<svg width="17" height="16" viewBox="0 0 17 16" fill="none" xmlns="http://www.w3.org/2000/svg">
<path d="M15.1464 0.0561523H13.5576V1.64494C13.5576 1.96269 13.2928 2.17453 13.028 2.17453C12.7632 2.17453 12.4984 1.96269 12.4984 1.64494V0.0561523H4.02492V1.64494C4.02492 1.96269 3.76012 2.17453 3.49533 2.17453C3.23053 2.17453 2.96573 1.96269 2.96573 1.64494V0.0561523H1.37695C0.582554 0.0561523 0 0.744626 0 1.64494V3.55148H16.947V1.64494C16.947 0.744626 15.9938 0.0561523 15.1464 0.0561523ZM0 4.66363V14.3552C0 15.3085 0.582555 15.944 1.42991 15.944H15.1994C16.0467 15.944 17 15.2555 17 14.3552V4.66363H0ZM4.7134 13.5608H3.44237C3.23053 13.5608 3.01869 13.4019 3.01869 13.1372V11.8132C3.01869 11.6013 3.17757 11.3895 3.44237 11.3895H4.76636C4.97819 11.3895 5.19003 11.5484 5.19003 11.8132V13.1372C5.13707 13.4019 4.97819 13.5608 4.7134 13.5608ZM4.7134 8.79447H3.44237C3.23053 8.79447 3.01869 8.63559 3.01869 8.3708V7.04681C3.01869 6.83497 3.17757 6.62313 3.44237 6.62313H4.76636C4.97819 6.62313 5.19003 6.78201 5.19003 7.04681V8.3708C5.13707 8.63559 4.97819 8.79447 4.7134 8.79447ZM8.95016 13.5608H7.62617C7.41433 13.5608 7.20249 13.4019 7.20249 13.1372V11.8132C7.20249 11.6013 7.36137 11.3895 7.62617 11.3895H8.95016C9.16199 11.3895 9.37383 11.5484 9.37383 11.8132V13.1372C9.37383 13.4019 9.21495 13.5608 8.95016 13.5608ZM8.95016 8.79447H7.62617C7.41433 8.79447 7.20249 8.63559 7.20249 8.3708V7.04681C7.20249 6.83497 7.36137 6.62313 7.62617 6.62313H8.95016C9.16199 6.62313 9.37383 6.78201 9.37383 7.04681V8.3708C9.37383 8.63559 9.21495 8.79447 8.95016 8.79447ZM13.1869 13.5608H11.8629C11.6511 13.5608 11.4393 13.4019 11.4393 13.1372V11.8132C11.4393 11.6013 11.5981 11.3895 11.8629 11.3895H13.1869C13.3988 11.3895 13.6106 11.5484 13.6106 11.8132V13.1372C13.6106 13.4019 13.4517 13.5608 13.1869 13.5608ZM13.1869 8.79447H11.8629C11.6511 8.79447 11.4393 8.63559 11.4393 8.3708V7.04681C11.4393 6.83497 11.5981 6.62313 11.8629 6.62313H13.1869C13.3988 6.62313 13.6106 6.78201 13.6106 7.04681V8.3708C13.6106 8.63559 13.4517 8.79447 13.1869 8.79447Z" fill="#6A6A6A"/>
</svg>
