<svg width="339" height="352" viewBox="0 0 339 352" fill="none" xmlns="http://www.w3.org/2000/svg">
<path d="M303.919 283.201L314.855 282.977L320.239 282.889C322.031 282.889 323.815 282.889 325.599 282.849L325.247 283.201L325.199 274.041L325.599 274.441L314.759 274.401C311.151 274.401 307.559 274.313 303.919 274.265L304.143 274.049C304.143 275.553 304.071 277.057 304.031 278.585L303.919 283.201ZM303.919 283.201L303.807 278.673C303.807 277.145 303.719 275.593 303.703 274.041V273.825H303.919C307.535 273.785 311.119 273.697 314.759 273.689L325.599 273.641H326.007V274.041L325.959 283.201V283.561H325.599C323.775 283.561 321.943 283.561 320.119 283.513L314.671 283.425L303.919 283.201Z" fill="#EBEBEB"/>
<path d="M316.017 294.72L326.953 294.496L332.337 294.408C334.129 294.408 335.913 294.408 337.697 294.368L337.345 294.72L337.297 285.6L337.697 286L326.857 285.952C323.241 285.952 319.657 285.864 316.017 285.816L316.201 285.6C316.201 287.104 316.137 288.608 316.097 290.136L316.017 294.72ZM316.017 294.72L315.905 290.192C315.865 288.664 315.817 287.112 315.801 285.56V285.344H316.025C319.641 285.304 323.225 285.216 326.865 285.216L337.705 285.16H338.105V285.56L338.065 294.72V295.08H337.713C335.889 295.08 334.057 295.08 332.233 295.032L326.785 294.944L316.017 294.72Z" fill="#EBEBEB"/>
<path d="M291.832 294.727H313.512V285.567H291.832V294.727Z" fill="#EBEBEB"/>
<path d="M33.3529 157.599L44.2809 157.375L49.6729 157.287C51.4649 157.287 53.2409 157.287 55.0329 157.287L54.6729 157.639V148.479L55.0729 148.879L44.2009 148.799C40.5849 148.799 37.0009 148.703 33.3609 148.663L33.5769 148.447C33.5769 149.951 33.5049 151.455 33.4729 152.983L33.3529 157.599ZM33.3529 157.599L33.2409 153.071C33.2409 151.535 33.1449 149.991 33.1289 148.439V148.223H33.3529C36.9609 148.183 40.5529 148.095 44.1929 148.087L55.0329 148.039H55.4329V148.439L55.4009 157.599V157.959H55.0489C53.2169 157.959 51.3929 157.959 49.5689 157.911L44.1129 157.823L33.3529 157.599Z" fill="#EBEBEB"/>
<path d="M45.4372 169.145H67.1172V159.985H45.4372V169.145Z" fill="#EBEBEB"/>
<path d="M21.2551 169.146L32.1991 168.922L37.5831 168.834C39.3751 168.834 41.1591 168.834 42.9431 168.834L42.5831 169.186V160.026L42.9831 160.426L32.1431 160.378C28.5271 160.378 24.9431 160.282 21.3031 160.242L21.5191 160.026C21.5191 161.53 21.4551 163.034 21.4151 164.562L21.2551 169.146ZM21.2551 169.146L21.1431 164.618C21.1031 163.082 21.0551 161.538 21.0391 159.986V159.77H21.2631C24.8791 159.73 28.4631 159.642 32.1031 159.634L42.9431 159.586H43.3431V159.986V169.146V169.506H42.9911C41.1671 169.506 39.3351 169.506 37.5111 169.458L32.0551 169.37L21.2551 169.146Z" fill="#EBEBEB"/>
<path d="M12.3903 294.727H34.0703V285.567H12.3903V294.727Z" fill="#EBEBEB"/>
<path d="M12.3992 46.7672L23.3272 46.5432L28.7192 46.4552C30.5112 46.4552 32.2872 46.4552 34.0792 46.4552L33.7192 46.8072L33.6792 37.5992L34.0792 37.9992L23.2392 37.9592C19.6232 37.9592 16.0392 37.8632 12.3992 37.8232L12.6152 37.6072C12.6152 39.1032 12.5432 40.6152 12.5112 42.1432L12.3992 46.7672ZM12.3992 46.7672L12.2792 42.2312C12.2472 40.7032 12.1992 39.1992 12.1992 37.5992V37.3832H12.4232C16.0312 37.3432 19.6232 37.2552 23.2632 37.2472L34.1032 37.1992H34.5032V37.5992L34.4552 46.7592V47.1192H34.1032C32.2712 47.1192 30.4472 47.1192 28.6232 47.0712L23.1672 46.9832L12.3992 46.7672Z" fill="#EBEBEB"/>
<path d="M0.304373 58.3203H21.9844V49.1603H0.304373V58.3203Z" fill="#EBEBEB"/>
<path d="M316.017 46.7748L326.953 46.5588L332.337 46.4628C334.129 46.4628 335.913 46.4628 337.697 46.4628L337.345 46.8148L337.297 37.5988L337.697 37.9988L326.857 37.9508C323.241 37.9508 319.657 37.8628 316.017 37.8228L316.201 37.5988C316.201 39.1028 316.137 40.6068 316.097 42.1348L316.017 46.7748ZM316.017 46.7748L315.905 42.2468C315.865 40.7188 315.817 39.1668 315.801 37.6148V37.3988H316.025C319.641 37.3988 323.225 37.2708 326.865 37.2708L337.705 37.2148H338.105V37.5988L338.065 46.7588V47.1188H337.713C335.889 47.1188 334.057 47.1188 332.233 47.0708L326.785 46.9828L316.017 46.7748Z" fill="#EBEBEB"/>
<path d="M273.742 181.785H295.422V172.625H273.742V181.785Z" fill="#EBEBEB"/>
<path d="M187.406 257.336H209.086V248.176H187.406V257.336Z" fill="#EBEBEB"/>
<path d="M207.646 69.3366L196.71 69.6006L191.326 69.6886C189.534 69.6886 187.75 69.6886 185.966 69.7366L186.318 69.3766L186.366 78.5446L185.966 78.1446L196.806 78.1926C200.414 78.1926 204.006 78.2806 207.646 78.3206L207.422 78.5446C207.422 77.0406 207.494 75.5286 207.534 74.0086L207.646 69.3366ZM207.646 69.3366L207.758 73.8726C207.758 75.4006 207.846 76.9446 207.862 78.5046V78.7206H207.646C204.03 78.7206 200.446 78.8486 196.806 78.8486L185.966 78.9046H185.566V78.5046L185.606 69.3366V68.9766H185.966C187.79 68.9766 189.622 68.9766 191.446 68.9766L196.894 69.0726L207.646 69.3366Z" fill="#EBEBEB"/>
<path d="M195.549 57.7813L184.613 58.0053L179.229 58.0933C177.437 58.0933 175.653 58.0933 173.869 58.1413L174.221 57.7813L174.269 66.9493L173.869 66.5493L184.709 66.5973C188.325 66.5973 191.909 66.6853 195.549 66.7253L195.333 66.9493C195.333 65.4453 195.397 63.9333 195.437 62.4133L195.549 57.7813ZM195.549 57.7813L195.661 62.3173C195.701 63.8453 195.749 65.3893 195.765 66.9493V67.1973H195.541C191.925 67.2373 188.341 67.3253 184.701 67.3253L173.861 67.3733H173.461V66.9733V57.8053V57.4453H173.813C175.637 57.4453 177.469 57.4453 179.293 57.4453L184.741 57.5333L195.549 57.7813Z" fill="#EBEBEB"/>
<path d="M304.976 0H304.176V78.304H304.976V0Z" fill="#C7C7C7"/>
<path d="M271.457 110.233L274.121 116.089H335.041L337.697 110.233L311.761 92.2812H297.393L271.457 110.233Z" fill="#EBEBEB"/>
<path d="M295.59 74.9844L297.39 92.2804H311.758L313.558 74.9844H295.59Z" fill="#DBDBDB"/>
<path d="M271.457 110.23L274.121 116.094H335.041L337.697 110.23H271.457Z" fill="#DBDBDB"/>
<path d="M238.198 0H237.398V44.184H238.198V0Z" fill="#C7C7C7"/>
<path d="M204.68 76.1122L207.344 81.9682H268.264L270.92 76.1122L244.984 58.1602H230.616L204.68 76.1122Z" fill="#EBEBEB"/>
<path d="M228.816 40.8633L230.616 58.1593H244.984L246.784 40.8633H228.816Z" fill="#DBDBDB"/>
<path d="M204.68 76.1133L207.344 81.9693H268.264L270.92 76.1133H204.68Z" fill="#DBDBDB"/>
<path d="M0.300781 350.92L42.4768 350.728L84.6448 350.656L168.997 350.52L253.349 350.656L295.517 350.728L337.693 350.92L295.517 351.12L253.349 351.184L168.997 351.32L84.6448 351.184L42.4768 351.112L0.300781 350.92Z" fill="#263238"/>
<path d="M301.985 41.0625H36.6094V226.486H301.985V41.0625Z" fill="#DBDBDB"/>
<path d="M301.985 40.918H36.6094V48.23H301.985V40.918Z" fill="#455A64"/>
<path d="M42.9461 44.5727C42.9461 44.8891 42.8523 45.1984 42.6764 45.4616C42.5006 45.7247 42.2507 45.9298 41.9584 46.0509C41.666 46.172 41.3443 46.2036 41.0339 46.1419C40.7236 46.0802 40.4385 45.9278 40.2147 45.704C39.991 45.4803 39.8386 45.1952 39.7768 44.8848C39.7151 44.5744 39.7468 44.2527 39.8679 43.9604C39.989 43.668 40.1941 43.4181 40.4572 43.2423C40.7203 43.0665 41.0296 42.9727 41.3461 42.9727C41.7704 42.9727 42.1774 43.1412 42.4775 43.4413C42.7775 43.7413 42.9461 44.1483 42.9461 44.5727Z" fill="#C7C7C7"/>
<path d="M49.4344 44.5727C49.4344 44.8891 49.3405 45.1984 49.1647 45.4616C48.9889 45.7247 48.739 45.9298 48.4467 46.0509C48.1543 46.172 47.8326 46.2036 47.5222 46.1419C47.2119 46.0802 46.9268 45.9278 46.703 45.704C46.4792 45.4803 46.3269 45.1952 46.2651 44.8848C46.2034 44.5744 46.2351 44.2527 46.3562 43.9604C46.4773 43.668 46.6823 43.4181 46.9455 43.2423C47.2086 43.0665 47.5179 42.9727 47.8344 42.9727C48.2587 42.9727 48.6657 43.1412 48.9657 43.4413C49.2658 43.7413 49.4344 44.1483 49.4344 44.5727Z" fill="white"/>
<path d="M55.9266 44.5727C55.9266 44.8891 55.8327 45.1984 55.6569 45.4616C55.4811 45.7247 55.2312 45.9298 54.9389 46.0509C54.6465 46.172 54.3248 46.2036 54.0144 46.1419C53.704 46.0802 53.419 45.9278 53.1952 45.704C52.9714 45.4803 52.819 45.1952 52.7573 44.8848C52.6956 44.5744 52.7273 44.2527 52.8484 43.9604C52.9695 43.668 53.1745 43.4181 53.4376 43.2423C53.7008 43.0665 54.0101 42.9727 54.3266 42.9727C54.7509 42.9727 55.1579 43.1412 55.4579 43.4413C55.758 43.7413 55.9266 44.1483 55.9266 44.5727Z" fill="#374761"/>
<path d="M278.457 66.3438H60.1367V209.912H278.457V66.3438Z" fill="white"/>
<path d="M104.663 99.0008C104.663 98.9368 104.669 98.8781 104.679 98.8248C104.69 98.7608 104.706 98.7021 104.727 98.6488L107.895 89.9128C108.013 89.5714 108.167 89.3101 108.359 89.1288C108.551 88.9368 108.813 88.8408 109.143 88.8408C109.474 88.8408 109.735 88.9368 109.927 89.1288C110.13 89.3101 110.29 89.5714 110.407 89.9128L113.543 98.6488C113.565 98.7021 113.581 98.7608 113.591 98.8248C113.602 98.8781 113.607 98.9368 113.607 99.0008C113.607 99.2781 113.517 99.4968 113.335 99.6568C113.154 99.8061 112.941 99.8808 112.695 99.8808C112.482 99.8808 112.295 99.8274 112.135 99.7208C111.986 99.6034 111.874 99.4381 111.799 99.2248L111.207 97.5288H107.047L106.471 99.2248C106.397 99.4381 106.279 99.6034 106.119 99.7208C105.97 99.8274 105.789 99.8808 105.575 99.8808C105.33 99.8808 105.117 99.8061 104.935 99.6568C104.754 99.4968 104.663 99.2781 104.663 99.0008ZM110.631 95.8488L109.159 91.6088H109.111L107.639 95.8488H110.631ZM116.138 102.761C115.872 102.761 115.653 102.675 115.482 102.505C115.322 102.345 115.242 102.115 115.242 101.817V92.9528C115.242 92.6541 115.322 92.4248 115.482 92.2648C115.653 92.0941 115.872 92.0088 116.138 92.0088C116.405 92.0088 116.608 92.0834 116.746 92.2328C116.896 92.3821 116.992 92.5794 117.034 92.8248H117.05C117.232 92.5581 117.488 92.3394 117.818 92.1688C118.149 91.9981 118.586 91.9128 119.13 91.9128C119.77 91.9128 120.32 92.0888 120.778 92.4408C121.237 92.7821 121.568 93.2568 121.77 93.8648C121.866 94.1634 121.936 94.4781 121.978 94.8088C122.021 95.1288 122.042 95.5074 122.042 95.9448C122.042 96.3821 122.021 96.7661 121.978 97.0968C121.936 97.4168 121.866 97.7261 121.77 98.0248C121.568 98.6328 121.237 99.1128 120.778 99.4648C120.32 99.8061 119.77 99.9768 119.13 99.9768C118.586 99.9768 118.144 99.8861 117.802 99.7048C117.472 99.5234 117.221 99.3101 117.05 99.0648H117.034V101.817C117.034 102.115 116.949 102.345 116.778 102.505C116.618 102.675 116.405 102.761 116.138 102.761ZM118.634 98.3768C118.976 98.3768 119.269 98.3021 119.514 98.1528C119.76 97.9928 119.941 97.7261 120.058 97.3528C120.165 97.0328 120.218 96.5634 120.218 95.9448C120.218 95.3261 120.165 94.8568 120.058 94.5368C119.941 94.1634 119.76 93.9021 119.514 93.7528C119.269 93.5928 118.976 93.5128 118.634 93.5128C118.293 93.5128 117.994 93.5928 117.738 93.7528C117.493 93.9021 117.312 94.1634 117.194 94.5368C117.088 94.8568 117.034 95.3261 117.034 95.9448C117.034 96.5634 117.088 97.0328 117.194 97.3528C117.312 97.7261 117.493 97.9928 117.738 98.1528C117.994 98.3021 118.293 98.3768 118.634 98.3768ZM124.857 102.761C124.59 102.761 124.372 102.675 124.201 102.505C124.041 102.345 123.961 102.115 123.961 101.817V92.9528C123.961 92.6541 124.041 92.4248 124.201 92.2648C124.372 92.0941 124.59 92.0088 124.857 92.0088C125.124 92.0088 125.326 92.0834 125.465 92.2328C125.614 92.3821 125.71 92.5794 125.753 92.8248H125.769C125.95 92.5581 126.206 92.3394 126.537 92.1688C126.868 91.9981 127.305 91.9128 127.849 91.9128C128.489 91.9128 129.038 92.0888 129.497 92.4408C129.956 92.7821 130.286 93.2568 130.489 93.8648C130.585 94.1634 130.654 94.4781 130.697 94.8088C130.74 95.1288 130.761 95.5074 130.761 95.9448C130.761 96.3821 130.74 96.7661 130.697 97.0968C130.654 97.4168 130.585 97.7261 130.489 98.0248C130.286 98.6328 129.956 99.1128 129.497 99.4648C129.038 99.8061 128.489 99.9768 127.849 99.9768C127.305 99.9768 126.862 99.8861 126.521 99.7048C126.19 99.5234 125.94 99.3101 125.769 99.0648H125.753V101.817C125.753 102.115 125.668 102.345 125.497 102.505C125.337 102.675 125.124 102.761 124.857 102.761ZM127.353 98.3768C127.694 98.3768 127.988 98.3021 128.233 98.1528C128.478 97.9928 128.66 97.7261 128.777 97.3528C128.884 97.0328 128.937 96.5634 128.937 95.9448C128.937 95.3261 128.884 94.8568 128.777 94.5368C128.66 94.1634 128.478 93.9021 128.233 93.7528C127.988 93.5928 127.694 93.5128 127.353 93.5128C127.012 93.5128 126.713 93.5928 126.457 93.7528C126.212 93.9021 126.03 94.1634 125.913 94.5368C125.806 94.8568 125.753 95.3261 125.753 95.9448C125.753 96.5634 125.806 97.0328 125.913 97.3528C126.03 97.7261 126.212 97.9928 126.457 98.1528C126.713 98.3021 127.012 98.3768 127.353 98.3768ZM134.76 99.8968C133.97 99.8968 133.421 99.7048 133.112 99.3208C132.802 98.9368 132.648 98.3768 132.648 97.6408V89.7848C132.648 89.4861 132.728 89.2568 132.888 89.0968C133.058 88.9261 133.277 88.8408 133.544 88.8408C133.8 88.8408 134.013 88.9261 134.184 89.0968C134.354 89.2568 134.44 89.4861 134.44 89.7848V97.4968C134.44 97.7741 134.488 97.9714 134.584 98.0888C134.68 98.1954 134.84 98.2648 135.064 98.2968C135.33 98.3288 135.522 98.4194 135.64 98.5688C135.757 98.7074 135.816 98.8781 135.816 99.0808C135.816 99.3154 135.741 99.5128 135.592 99.6728C135.442 99.8221 135.208 99.8968 134.888 99.8968H134.76ZM137.16 89.8488C137.16 89.5501 137.261 89.2994 137.464 89.0968C137.677 88.8834 137.933 88.7768 138.232 88.7768C138.531 88.7768 138.781 88.8834 138.984 89.0968C139.197 89.2994 139.304 89.5501 139.304 89.8488C139.304 90.1474 139.197 90.4034 138.984 90.6168C138.781 90.8194 138.531 90.9208 138.232 90.9208C137.933 90.9208 137.677 90.8194 137.464 90.6168C137.261 90.4034 137.16 90.1474 137.16 89.8488ZM138.232 99.8808C137.965 99.8808 137.747 99.8008 137.576 99.6408C137.416 99.4701 137.336 99.2354 137.336 98.9368V92.9528C137.336 92.6541 137.416 92.4248 137.576 92.2648C137.747 92.0941 137.965 92.0088 138.232 92.0088C138.499 92.0088 138.712 92.0941 138.872 92.2648C139.043 92.4248 139.128 92.6541 139.128 92.9528V98.9368C139.128 99.2354 139.043 99.4701 138.872 99.6408C138.712 99.8008 138.499 99.8808 138.232 99.8808ZM144.453 99.9768C143.674 99.9768 143.008 99.7954 142.453 99.4328C141.898 99.0701 141.509 98.5421 141.285 97.8488C141.125 97.3688 141.045 96.7341 141.045 95.9448C141.045 95.1554 141.125 94.5208 141.285 94.0408C141.509 93.3474 141.898 92.8194 142.453 92.4568C143.008 92.0941 143.674 91.9128 144.453 91.9128C144.997 91.9128 145.477 92.0088 145.893 92.2008C146.309 92.3821 146.64 92.6114 146.885 92.8888C147.002 93.0168 147.082 93.1394 147.125 93.2568C147.178 93.3634 147.205 93.4754 147.205 93.5928C147.205 93.8168 147.13 94.0034 146.981 94.1528C146.832 94.3021 146.645 94.3768 146.421 94.3768C146.282 94.3768 146.154 94.3448 146.037 94.2808C145.92 94.2061 145.802 94.1101 145.685 93.9928C145.536 93.8328 145.365 93.7154 145.173 93.6408C144.981 93.5554 144.746 93.5128 144.469 93.5128C144.128 93.5128 143.829 93.5981 143.573 93.7688C143.328 93.9288 143.146 94.1794 143.029 94.5208C142.965 94.7128 142.922 94.9261 142.901 95.1608C142.88 95.3848 142.869 95.6461 142.869 95.9448C142.869 96.2434 142.88 96.5101 142.901 96.7448C142.922 96.9688 142.965 97.1768 143.029 97.3688C143.146 97.7101 143.328 97.9661 143.573 98.1368C143.829 98.2968 144.128 98.3768 144.469 98.3768C144.746 98.3768 144.981 98.3394 145.173 98.2648C145.365 98.1794 145.536 98.0568 145.685 97.8968C145.802 97.7794 145.92 97.6888 146.037 97.6248C146.154 97.5501 146.282 97.5128 146.421 97.5128C146.645 97.5128 146.832 97.5874 146.981 97.7368C147.13 97.8861 147.205 98.0728 147.205 98.2968C147.205 98.4141 147.178 98.5314 147.125 98.6488C147.082 98.7554 147.002 98.8728 146.885 99.0008C146.64 99.2781 146.309 99.5128 145.893 99.7048C145.477 99.8861 144.997 99.9768 144.453 99.9768ZM155.379 98.5208C155.475 98.7021 155.523 98.8781 155.523 99.0488C155.523 99.2941 155.438 99.4968 155.267 99.6568C155.096 99.8061 154.883 99.8808 154.627 99.8808C154.296 99.8808 154.046 99.7581 153.875 99.5128L153.619 99.1288H153.603C153.379 99.3954 153.075 99.6034 152.691 99.7528C152.307 99.9021 151.854 99.9768 151.331 99.9768C150.414 99.9768 149.715 99.7741 149.235 99.3688C148.766 98.9528 148.531 98.3768 148.531 97.6408C148.531 96.8088 148.803 96.1901 149.347 95.7848C149.891 95.3794 150.643 95.1768 151.603 95.1768H153.187C153.251 95.1768 153.283 95.1448 153.283 95.0808V94.8888C153.283 94.4408 153.144 94.0941 152.867 93.8488C152.6 93.5928 152.163 93.4648 151.555 93.4648C151.278 93.4648 151.016 93.4968 150.771 93.5608C150.526 93.6248 150.318 93.6994 150.147 93.7848C149.987 93.8488 149.832 93.8808 149.683 93.8808C149.47 93.8808 149.294 93.8168 149.155 93.6888C149.016 93.5501 148.947 93.3688 148.947 93.1448C148.947 93.0168 148.979 92.8888 149.043 92.7608C149.118 92.6328 149.235 92.5261 149.395 92.4408C149.64 92.2914 149.96 92.1688 150.355 92.0728C150.75 91.9661 151.214 91.9128 151.747 91.9128C152.846 91.9128 153.656 92.1741 154.179 92.6968C154.712 93.2088 154.979 93.9448 154.979 94.9048V97.3368C154.979 97.5394 154.99 97.6941 155.011 97.8008C155.043 97.8968 155.086 97.9981 155.139 98.1048L155.379 98.5208ZM151.587 98.5208C152.11 98.5208 152.52 98.4194 152.819 98.2168C153.128 98.0141 153.283 97.7101 153.283 97.3048V96.6168C153.283 96.5528 153.251 96.5208 153.187 96.5208H151.907C151.31 96.5208 150.883 96.6061 150.627 96.7768C150.371 96.9474 150.243 97.2088 150.243 97.5608C150.243 98.2008 150.691 98.5208 151.587 98.5208ZM157.034 93.4808C156.81 93.4808 156.629 93.4221 156.49 93.3048C156.362 93.1768 156.298 93.0061 156.298 92.7928C156.298 92.5794 156.362 92.4088 156.49 92.2808C156.629 92.1528 156.81 92.0888 157.034 92.0888H157.258C157.333 92.0888 157.37 92.0568 157.37 91.9928V90.5848C157.37 90.2861 157.455 90.0568 157.626 89.8968C157.797 89.7261 158.015 89.6408 158.282 89.6408C158.538 89.6408 158.746 89.7261 158.906 89.8968C159.077 90.0568 159.162 90.2861 159.162 90.5848V91.9928C159.162 92.0568 159.194 92.0888 159.258 92.0888H160.074C160.298 92.0888 160.474 92.1528 160.602 92.2808C160.741 92.4088 160.81 92.5794 160.81 92.7928C160.81 93.0061 160.741 93.1768 160.602 93.3048C160.474 93.4221 160.298 93.4808 160.074 93.4808H159.258C159.194 93.4808 159.162 93.5128 159.162 93.5768V97.4168C159.162 97.7261 159.215 97.9448 159.322 98.0728C159.439 98.1901 159.663 98.2648 159.994 98.2968C160.271 98.3181 160.474 98.4088 160.602 98.5688C160.741 98.7181 160.81 98.8941 160.81 99.0968C160.81 99.3208 160.73 99.5128 160.57 99.6728C160.41 99.8221 160.165 99.8968 159.834 99.8968H159.69C158.847 99.8968 158.25 99.7048 157.898 99.3208C157.546 98.9261 157.37 98.3074 157.37 97.4648V93.5768C157.37 93.5128 157.333 93.4808 157.258 93.4808H157.034ZM162.238 89.8488C162.238 89.5501 162.339 89.2994 162.542 89.0968C162.755 88.8834 163.011 88.7768 163.31 88.7768C163.609 88.7768 163.859 88.8834 164.062 89.0968C164.275 89.2994 164.382 89.5501 164.382 89.8488C164.382 90.1474 164.275 90.4034 164.062 90.6168C163.859 90.8194 163.609 90.9208 163.31 90.9208C163.011 90.9208 162.755 90.8194 162.542 90.6168C162.339 90.4034 162.238 90.1474 162.238 89.8488ZM163.31 99.8808C163.043 99.8808 162.825 99.8008 162.654 99.6408C162.494 99.4701 162.414 99.2354 162.414 98.9368V92.9528C162.414 92.6541 162.494 92.4248 162.654 92.2648C162.825 92.0941 163.043 92.0088 163.31 92.0088C163.577 92.0088 163.79 92.0941 163.95 92.2648C164.121 92.4248 164.206 92.6541 164.206 92.9528V98.9368C164.206 99.2354 164.121 99.4701 163.95 99.6408C163.79 99.8008 163.577 99.8808 163.31 99.8808ZM169.563 99.9768C168.774 99.9768 168.096 99.7901 167.531 99.4168C166.976 99.0434 166.592 98.5208 166.379 97.8488C166.294 97.5714 166.23 97.2941 166.187 97.0168C166.144 96.7288 166.123 96.3714 166.123 95.9448C166.123 95.5181 166.144 95.1661 166.187 94.8888C166.23 94.6008 166.294 94.3181 166.379 94.0408C166.592 93.3688 166.976 92.8461 167.531 92.4728C168.096 92.0994 168.774 91.9128 169.563 91.9128C170.342 91.9128 171.008 92.0994 171.563 92.4728C172.128 92.8461 172.518 93.3688 172.731 94.0408C172.816 94.3181 172.88 94.6008 172.923 94.8888C172.966 95.1661 172.987 95.5181 172.987 95.9448C172.987 96.3714 172.966 96.7288 172.923 97.0168C172.88 97.2941 172.816 97.5714 172.731 97.8488C172.518 98.5208 172.128 99.0434 171.563 99.4168C171.008 99.7901 170.342 99.9768 169.563 99.9768ZM169.563 98.3768C169.926 98.3768 170.224 98.2914 170.459 98.1208C170.704 97.9394 170.886 97.6888 171.003 97.3688C171.067 97.1661 171.11 96.9634 171.131 96.7608C171.152 96.5474 171.163 96.2754 171.163 95.9448C171.163 95.6141 171.152 95.3474 171.131 95.1448C171.11 94.9421 171.067 94.7341 171.003 94.5208C170.886 94.2008 170.704 93.9554 170.459 93.7848C170.224 93.6034 169.926 93.5128 169.563 93.5128C169.2 93.5128 168.896 93.6034 168.651 93.7848C168.406 93.9554 168.224 94.2008 168.107 94.5208C168.043 94.7341 168 94.9421 167.979 95.1448C167.958 95.3474 167.947 95.6141 167.947 95.9448C167.947 96.2754 167.958 96.5474 167.979 96.7608C168 96.9634 168.043 97.1661 168.107 97.3688C168.224 97.6888 168.406 97.9394 168.651 98.1208C168.896 98.2914 169.2 98.3768 169.563 98.3768ZM176.722 92.8088C176.925 92.5314 177.197 92.3128 177.538 92.1528C177.89 91.9928 178.295 91.9128 178.754 91.9128C179.17 91.9128 179.538 91.9874 179.858 92.1368C180.189 92.2754 180.471 92.4728 180.706 92.7288C180.941 92.9848 181.117 93.2888 181.234 93.6408C181.362 93.9821 181.426 94.3608 181.426 94.7768V98.9368C181.426 99.2354 181.341 99.4701 181.17 99.6408C181.01 99.8008 180.797 99.8808 180.53 99.8808C180.263 99.8808 180.045 99.8008 179.874 99.6408C179.714 99.4701 179.634 99.2354 179.634 98.9368V95.1928C179.634 94.6914 179.511 94.2861 179.266 93.9768C179.031 93.6674 178.669 93.5128 178.178 93.5128C177.698 93.5128 177.33 93.6674 177.074 93.9768C176.829 94.2861 176.706 94.6914 176.706 95.1928V98.9368C176.706 99.2354 176.621 99.4701 176.45 99.6408C176.29 99.8008 176.077 99.8808 175.81 99.8808C175.543 99.8808 175.325 99.8008 175.154 99.6408C174.994 99.4701 174.914 99.2354 174.914 98.9368V92.9528C174.914 92.6541 174.994 92.4248 175.154 92.2648C175.325 92.0941 175.543 92.0088 175.81 92.0088C176.077 92.0088 176.279 92.0834 176.418 92.2328C176.567 92.3821 176.663 92.5741 176.706 92.8088H176.722ZM187.54 89.7688C187.54 89.5128 187.615 89.3101 187.764 89.1608C187.913 89.0008 188.121 88.9208 188.388 88.9208H193.812C194.111 88.9208 194.345 89.0008 194.516 89.1608C194.687 89.3208 194.772 89.5234 194.772 89.7688C194.772 90.0141 194.687 90.2168 194.516 90.3768C194.345 90.5368 194.111 90.6168 193.812 90.6168H189.524C189.46 90.6168 189.428 90.6488 189.428 90.7128V93.4808C189.428 93.5448 189.46 93.5768 189.524 93.5768H193.012C193.311 93.5768 193.545 93.6568 193.716 93.8168C193.887 93.9768 193.972 94.1794 193.972 94.4248C193.972 94.6701 193.887 94.8728 193.716 95.0328C193.545 95.1928 193.311 95.2728 193.012 95.2728H189.524C189.46 95.2728 189.428 95.3048 189.428 95.3688V98.8888C189.428 99.1981 189.337 99.4434 189.156 99.6248C188.985 99.7954 188.761 99.8808 188.484 99.8808C188.207 99.8808 187.977 99.7954 187.796 99.6248C187.625 99.4434 187.54 99.1981 187.54 98.8888V89.7688ZM199.501 99.9768C198.711 99.9768 198.034 99.7901 197.469 99.4168C196.914 99.0434 196.53 98.5208 196.317 97.8488C196.231 97.5714 196.167 97.2941 196.125 97.0168C196.082 96.7288 196.061 96.3714 196.061 95.9448C196.061 95.5181 196.082 95.1661 196.125 94.8888C196.167 94.6008 196.231 94.3181 196.317 94.0408C196.53 93.3688 196.914 92.8461 197.469 92.4728C198.034 92.0994 198.711 91.9128 199.501 91.9128C200.279 91.9128 200.946 92.0994 201.501 92.4728C202.066 92.8461 202.455 93.3688 202.669 94.0408C202.754 94.3181 202.818 94.6008 202.861 94.8888C202.903 95.1661 202.925 95.5181 202.925 95.9448C202.925 96.3714 202.903 96.7288 202.861 97.0168C202.818 97.2941 202.754 97.5714 202.669 97.8488C202.455 98.5208 202.066 99.0434 201.501 99.4168C200.946 99.7901 200.279 99.9768 199.501 99.9768ZM199.501 98.3768C199.863 98.3768 200.162 98.2914 200.397 98.1208C200.642 97.9394 200.823 97.6888 200.941 97.3688C201.005 97.1661 201.047 96.9634 201.069 96.7608C201.09 96.5474 201.101 96.2754 201.101 95.9448C201.101 95.6141 201.09 95.3474 201.069 95.1448C201.047 94.9421 201.005 94.7341 200.941 94.5208C200.823 94.2008 200.642 93.9554 200.397 93.7848C200.162 93.6034 199.863 93.5128 199.501 93.5128C199.138 93.5128 198.834 93.6034 198.589 93.7848C198.343 93.9554 198.162 94.2008 198.045 94.5208C197.981 94.7341 197.938 94.9421 197.917 95.1448C197.895 95.3474 197.885 95.6141 197.885 95.9448C197.885 96.2754 197.895 96.5474 197.917 96.7608C197.938 96.9634 197.981 97.1661 198.045 97.3688C198.162 97.6888 198.343 97.9394 198.589 98.1208C198.834 98.2914 199.138 98.3768 199.501 98.3768ZM206.644 92.9848H206.66C206.83 92.6861 207.081 92.4354 207.412 92.2328C207.753 92.0194 208.153 91.9128 208.612 91.9128C208.825 91.9128 209.012 91.9341 209.172 91.9768C209.332 92.0194 209.47 92.0674 209.588 92.1208C209.908 92.2914 210.068 92.5368 210.068 92.8568C210.068 93.1234 209.988 93.3421 209.828 93.5128C209.668 93.6834 209.454 93.7688 209.188 93.7688C209.07 93.7688 208.932 93.7421 208.772 93.6888C208.654 93.6568 208.532 93.6301 208.404 93.6088C208.286 93.5768 208.169 93.5608 208.052 93.5608C207.55 93.5608 207.188 93.7421 206.964 94.1048C206.75 94.4568 206.644 94.9261 206.644 95.5128V98.9368C206.644 99.2354 206.558 99.4701 206.388 99.6408C206.228 99.8008 206.014 99.8808 205.748 99.8808C205.492 99.8808 205.278 99.8008 205.108 99.6408C204.937 99.4701 204.852 99.2354 204.852 98.9368V92.9528C204.852 92.6541 204.932 92.4248 205.092 92.2648C205.262 92.0941 205.481 92.0088 205.748 92.0088C206.014 92.0088 206.228 92.0941 206.388 92.2648C206.558 92.4248 206.644 92.6541 206.644 92.9528V92.9848ZM211.57 92.9528C211.57 92.6541 211.65 92.4248 211.81 92.2648C211.981 92.0941 212.2 92.0088 212.466 92.0088C212.733 92.0088 212.936 92.0834 213.074 92.2328C213.224 92.3821 213.32 92.5741 213.362 92.8088H213.378C213.549 92.5634 213.8 92.3554 214.13 92.1848C214.472 92.0034 214.898 91.9128 215.41 91.9128C215.869 91.9128 216.274 92.0034 216.626 92.1848C216.989 92.3554 217.288 92.6061 217.522 92.9368H217.538C217.837 92.6168 218.184 92.3661 218.578 92.1848C218.973 92.0034 219.448 91.9128 220.002 91.9128C220.45 91.9128 220.845 91.9874 221.186 92.1368C221.538 92.2754 221.832 92.4728 222.066 92.7288C222.312 92.9848 222.493 93.2888 222.61 93.6408C222.738 93.9821 222.802 94.3608 222.802 94.7768V98.9368C222.802 99.2354 222.717 99.4701 222.546 99.6408C222.386 99.8008 222.173 99.8808 221.906 99.8808C221.64 99.8808 221.421 99.8008 221.25 99.6408C221.09 99.4701 221.01 99.2354 221.01 98.9368V95.1928C221.01 94.6914 220.888 94.2861 220.642 93.9768C220.397 93.6674 220.034 93.5128 219.554 93.5128C219.085 93.5128 218.722 93.6674 218.466 93.9768C218.21 94.2861 218.082 94.6914 218.082 95.1928V98.9368C218.082 99.2354 217.997 99.4701 217.826 99.6408C217.666 99.8008 217.453 99.8808 217.186 99.8808C216.92 99.8808 216.701 99.8008 216.53 99.6408C216.37 99.4701 216.29 99.2354 216.29 98.9368V95.1928C216.29 94.6914 216.168 94.2861 215.922 93.9768C215.677 93.6674 215.314 93.5128 214.834 93.5128C214.365 93.5128 214.002 93.6674 213.746 93.9768C213.49 94.2861 213.362 94.6914 213.362 95.1928V98.9368C213.362 99.2354 213.277 99.4701 213.106 99.6408C212.946 99.8008 212.733 99.8808 212.466 99.8808C212.2 99.8808 211.981 99.8008 211.81 99.6408C211.65 99.4701 211.57 99.2354 211.57 98.9368V92.9528Z" fill="#374761"/>
<path d="M263.742 202.485H74.8464V202.165C74.8464 200.256 74.0879 198.424 72.7376 197.074C71.3873 195.724 69.556 194.965 67.6464 194.965H67.3984V81.1813H67.5984C69.508 81.1813 71.3393 80.4227 72.6896 79.0724C74.0399 77.7222 74.7984 75.8908 74.7984 73.9813V73.7812H263.742V73.9813C263.742 75.8908 264.501 77.7222 265.851 79.0724C267.202 80.4227 269.033 81.1813 270.942 81.1813H271.142V194.949H270.942C269.033 194.949 267.202 195.708 265.851 197.058C264.501 198.408 263.742 200.24 263.742 202.149V202.485ZM75.2464 202.085H263.342C263.365 200.115 264.149 198.23 265.532 196.826C266.915 195.422 268.789 194.609 270.758 194.557V81.5972C268.809 81.5428 266.954 80.744 265.575 79.3649C264.196 77.9857 263.397 76.1309 263.342 74.1813H75.2464C75.192 76.1309 74.3932 77.9857 73.014 79.3649C71.6349 80.744 69.7801 81.5428 67.8304 81.5972V194.557C69.8003 194.609 71.6735 195.422 73.0564 196.826C74.4394 198.23 75.2243 200.115 75.2464 202.085Z" fill="#374761"/>
<path d="M140.348 114.254C145.18 114.184 150.006 114.134 154.828 114.102H169.3H183.78C188.58 114.134 193.404 114.184 198.252 114.254C193.452 114.334 188.628 114.387 183.78 114.414H169.3H154.828C150.006 114.403 145.18 114.35 140.348 114.254Z" fill="#263238"/>
<path d="M124.258 118.766L135.514 118.662L146.778 118.63L169.298 118.566L191.818 118.63L203.082 118.662L214.346 118.766L203.082 118.862L191.818 118.894L169.298 118.966L146.778 118.894L135.514 118.862L124.258 118.766Z" fill="#263238"/>
<path d="M189.297 174.27C194.193 174.196 199.086 174.145 203.977 174.118L218.657 174.07L233.337 174.118C238.233 174.118 243.126 174.169 248.017 174.27C243.132 174.345 238.238 174.396 233.337 174.422L218.657 174.47L203.977 174.398C199.081 174.398 194.188 174.356 189.297 174.27Z" fill="#263238"/>
<path d="M90.6016 174.27C95.4976 174.196 100.391 174.145 105.282 174.118L119.962 174.07L134.642 174.118C139.538 174.118 144.434 174.169 149.33 174.27C144.418 174.356 139.508 174.398 134.602 174.398L119.922 174.446L105.258 174.398C100.362 174.398 95.4762 174.356 90.6016 174.27Z" fill="#263238"/>
<path d="M223.145 141.016L209.681 141.112L196.217 141.144L169.297 141.208L142.377 141.144L128.913 141.112L115.457 141.016L128.913 140.912L142.377 140.88L169.297 140.816L196.217 140.88L209.681 140.912L223.145 141.016Z" fill="#263238"/>
<path d="M237.346 136.501L220.338 136.605L203.322 136.637L169.298 136.701L135.274 136.637L118.258 136.605L101.25 136.501L118.258 136.405L135.274 136.373L169.298 136.309L203.322 136.373L220.338 136.405L237.346 136.501Z" fill="#263238"/>
<path d="M233.059 145.516L217.115 145.612L201.179 145.644L169.299 145.716L137.419 145.644L121.483 145.612L105.539 145.516L121.483 145.412L137.419 145.38L169.299 145.316L201.179 145.38L217.115 145.42L233.059 145.516Z" fill="#263238"/>
<path d="M205.514 150.02L196.458 150.116L187.41 150.148L169.298 150.22L151.194 150.148L142.138 150.116L133.082 150.02L142.138 149.924L151.194 149.884L169.298 149.82L187.41 149.884L196.458 149.924L205.514 150.02Z" fill="#263238"/>
<path d="M199.831 171.279C200.813 170.596 201.826 169.956 202.871 169.359C203.902 168.732 205.007 168.235 206.159 167.879C206.307 167.842 206.457 167.813 206.607 167.791C206.699 167.767 206.795 167.771 206.884 167.8C206.974 167.83 207.053 167.885 207.111 167.959C207.268 168.245 207.34 168.57 207.319 168.895C207.306 169.499 207.245 170.101 207.135 170.695C206.927 171.879 206.631 173.047 206.335 174.199C205.688 176.514 204.886 178.783 203.935 180.991C203.701 181.549 203.418 182.084 203.087 182.591C202.992 182.728 202.882 182.854 202.759 182.967C202.676 183.05 202.565 183.098 202.447 183.103C202.37 183.102 202.294 183.077 202.231 183.031L202.127 182.919C201.951 182.63 201.862 182.297 201.871 181.959C201.898 180.742 202.111 179.536 202.503 178.383C202.855 177.228 203.307 176.106 203.855 175.031C204.375 173.934 205.088 172.94 205.959 172.095C206.425 171.678 206.999 171.401 207.615 171.295C207.932 171.246 208.256 171.273 208.559 171.375C208.847 171.519 209.078 171.756 209.215 172.047C209.354 172.304 209.521 172.546 209.711 172.767C209.798 172.871 209.913 172.948 210.041 172.991C210.17 173.033 210.308 173.039 210.439 173.007C210.991 172.809 211.501 172.511 211.943 172.127C212.183 171.951 212.415 171.759 212.663 171.591C212.791 171.502 212.924 171.422 213.063 171.351C213.137 171.303 213.223 171.278 213.311 171.278C213.399 171.278 213.485 171.303 213.559 171.351C213.791 171.647 213.735 171.959 213.847 172.223C213.881 172.354 213.964 172.467 214.078 172.54C214.193 172.613 214.33 172.64 214.463 172.615C214.961 172.303 215.406 171.914 215.783 171.463C216.183 171.031 216.583 170.575 216.975 170.127C217.775 169.223 218.527 168.303 219.327 167.415C219.727 166.967 220.127 166.527 220.567 166.103C220.784 165.891 221.013 165.693 221.255 165.511C221.383 165.417 221.519 165.337 221.663 165.271C221.746 165.231 221.836 165.209 221.927 165.207C221.982 165.208 222.035 165.222 222.083 165.249C222.13 165.275 222.17 165.313 222.199 165.359C222.338 165.656 222.383 165.988 222.327 166.311C222.296 166.612 222.248 166.911 222.183 167.207C222.053 167.796 221.892 168.378 221.703 168.951C221.341 170.106 220.861 171.222 220.271 172.279C220.114 172.552 219.923 172.805 219.703 173.031C219.636 173.103 219.554 173.159 219.463 173.195C219.372 173.231 219.273 173.246 219.175 173.239C219.009 173.222 218.846 173.176 218.695 173.103C218.398 172.963 218.136 172.759 217.927 172.506C217.718 172.253 217.568 171.957 217.487 171.639C217.442 171.45 217.468 171.251 217.559 171.079C217.613 170.984 217.694 170.906 217.791 170.855C217.884 170.805 217.99 170.783 218.095 170.791C218.414 170.816 218.726 170.889 219.023 171.007C219.599 171.207 220.151 171.455 220.703 171.695C221.255 171.935 221.799 172.175 222.343 172.399C222.623 172.503 222.895 172.615 223.143 172.695C223.272 172.734 223.403 172.763 223.535 172.783C223.649 172.79 223.763 172.765 223.863 172.711C224.319 172.487 224.615 171.911 225.071 171.487C225.306 171.222 225.631 171.053 225.983 171.015C226.05 171.007 226.117 171.014 226.18 171.035C226.244 171.056 226.302 171.09 226.351 171.135C226.398 171.184 226.433 171.242 226.455 171.305C226.477 171.369 226.485 171.436 226.479 171.503C226.465 171.668 226.436 171.831 226.391 171.991C226.303 172.255 226.271 172.599 226.351 172.615C226.431 172.631 226.783 172.615 227.031 172.575C227.581 172.406 228.094 172.134 228.543 171.775C228.783 171.607 229.031 171.423 229.303 171.263C229.598 171.067 229.952 170.982 230.303 171.023C230.903 171.255 231.432 171.638 231.839 172.135C232.03 172.343 232.245 172.529 232.479 172.687C232.583 172.759 232.687 172.775 232.711 172.751C232.831 172.691 232.947 172.622 233.055 172.543C233.525 172.191 233.974 171.812 234.399 171.407C235.274 170.612 236.052 169.718 236.719 168.743C237.05 168.288 237.249 167.751 237.295 167.191C237.295 166.655 236.743 166.391 236.167 166.319C235.006 166.123 233.819 166.139 232.663 166.367C232.084 166.473 231.516 166.634 230.967 166.847C230.685 166.954 230.417 167.093 230.167 167.263C229.951 167.423 229.751 167.655 229.815 167.871C229.934 168.109 230.136 168.294 230.383 168.391C230.644 168.514 230.911 168.623 231.183 168.719C231.743 168.911 232.311 169.087 232.887 169.223C235.238 169.666 237.624 169.894 240.015 169.903V169.943C237.618 169.998 235.22 169.824 232.855 169.423C232.266 169.292 231.683 169.129 231.111 168.935C230.831 168.831 230.543 168.743 230.263 168.607C229.949 168.484 229.696 168.243 229.559 167.935C229.536 167.762 229.565 167.586 229.641 167.429C229.718 167.273 229.84 167.142 229.991 167.055C230.236 166.868 230.505 166.714 230.791 166.599C231.352 166.362 231.937 166.188 232.535 166.079C233.73 165.824 234.96 165.789 236.167 165.975C236.486 166.02 236.793 166.126 237.071 166.287C237.223 166.38 237.35 166.509 237.441 166.662C237.532 166.816 237.583 166.989 237.591 167.167C237.567 167.809 237.352 168.43 236.975 168.951C236.305 169.965 235.513 170.892 234.615 171.711C234.179 172.135 233.714 172.528 233.223 172.887C233.091 172.986 232.949 173.071 232.799 173.143C232.697 173.178 232.588 173.189 232.481 173.174C232.374 173.158 232.272 173.118 232.183 173.055C231.925 172.875 231.687 172.669 231.471 172.439C231.114 172.011 230.662 171.671 230.151 171.447C229.711 171.383 229.199 171.791 228.727 172.127C228.234 172.516 227.672 172.809 227.071 172.991C226.9 173.055 226.718 173.085 226.535 173.078C226.353 173.071 226.173 173.028 226.007 172.951C225.925 172.877 225.863 172.783 225.828 172.677C225.793 172.572 225.786 172.46 225.807 172.351C225.825 172.189 225.858 172.028 225.903 171.871C225.94 171.743 225.964 171.612 225.975 171.479C225.975 171.431 225.975 171.407 225.975 171.431C225.975 171.455 225.975 171.431 225.919 171.431C225.672 171.467 225.446 171.589 225.279 171.775C224.871 172.151 224.591 172.735 223.959 173.071C223.795 173.158 223.608 173.194 223.423 173.175C223.26 173.158 223.099 173.123 222.943 173.071C222.647 172.983 222.367 172.871 222.087 172.759C221.527 172.527 220.983 172.279 220.431 172.039C219.879 171.799 219.343 171.551 218.791 171.359C218.535 171.253 218.266 171.183 217.991 171.151C217.799 171.151 217.687 171.311 217.743 171.567C217.811 171.83 217.934 172.076 218.106 172.287C218.277 172.499 218.492 172.67 218.735 172.791C218.854 172.848 218.981 172.885 219.111 172.903C219.191 172.903 219.279 172.903 219.383 172.775C219.583 172.575 219.755 172.349 219.895 172.103C220.485 171.088 220.97 170.016 221.343 168.903C221.537 168.342 221.699 167.77 221.831 167.191C221.901 166.904 221.952 166.613 221.983 166.319C222.038 166.052 222.016 165.774 221.919 165.519C221.831 165.367 221.495 165.519 221.279 165.719C221.044 165.895 220.82 166.085 220.607 166.287C220.175 166.695 219.767 167.135 219.367 167.575C218.567 168.455 217.767 169.367 216.967 170.263C216.567 170.711 216.167 171.159 215.759 171.599C215.367 172.067 214.896 172.462 214.367 172.767C214.2 172.809 214.023 172.784 213.873 172.697C213.724 172.611 213.614 172.469 213.567 172.303C213.455 172.015 213.463 171.663 213.303 171.503C213.143 171.343 213.087 171.503 212.959 171.551C212.83 171.618 212.707 171.695 212.591 171.783C212.351 171.951 212.119 172.143 211.879 172.327C211.422 172.732 210.893 173.046 210.319 173.255C210.159 173.294 209.99 173.288 209.833 173.239C209.675 173.19 209.533 173.099 209.423 172.975C209.22 172.746 209.041 172.496 208.887 172.231C208.727 171.983 208.567 171.719 208.327 171.639C208.068 171.562 207.795 171.543 207.527 171.583C206.958 171.688 206.429 171.948 205.999 172.335C205.162 173.171 204.48 174.149 203.983 175.223C203.454 176.287 203.018 177.396 202.679 178.535C202.316 179.657 202.122 180.827 202.103 182.007C202.094 182.27 202.158 182.53 202.287 182.759L202.335 182.815C202.366 182.803 202.394 182.784 202.415 182.759C202.513 182.668 202.598 182.566 202.671 182.455C202.971 181.955 203.238 181.437 203.471 180.903C204.419 178.719 205.221 176.474 205.871 174.183C206.215 173.041 206.501 171.882 206.727 170.711C206.849 170.132 206.916 169.543 206.927 168.951C206.952 168.675 206.899 168.399 206.775 168.151C206.703 168.055 206.631 168.031 206.471 168.063C206.328 168.078 206.186 168.105 206.047 168.143C204.906 168.478 203.808 168.945 202.775 169.535C201.727 170.103 200.695 170.719 199.695 171.367L199.831 171.279Z" fill="#263238"/>
<path d="M134.481 171.279C133.5 170.596 132.487 169.956 131.441 169.359C130.41 168.732 129.306 168.235 128.153 167.879C128.003 167.841 127.851 167.812 127.697 167.791C127.607 167.768 127.513 167.772 127.425 167.801C127.336 167.831 127.259 167.886 127.201 167.959C127.045 168.245 126.973 168.57 126.993 168.895C127.002 169.499 127.064 170.102 127.177 170.695C127.385 171.879 127.681 173.047 127.977 174.199C128.625 176.514 129.427 178.783 130.377 180.991C130.611 181.549 130.895 182.084 131.225 182.591C131.319 182.73 131.429 182.856 131.553 182.967C131.637 183.05 131.748 183.098 131.865 183.103C131.943 183.101 132.018 183.076 132.081 183.031L132.185 182.919C132.358 182.629 132.447 182.297 132.441 181.959C132.411 180.742 132.198 179.537 131.809 178.383C131.455 177.229 131.002 176.108 130.457 175.031C129.935 173.934 129.219 172.94 128.345 172.095C127.881 171.676 127.307 171.398 126.689 171.295C126.376 171.246 126.054 171.273 125.753 171.375C125.466 171.519 125.235 171.756 125.097 172.047C124.958 172.304 124.792 172.546 124.601 172.767C124.514 172.87 124.4 172.947 124.271 172.989C124.143 173.032 124.005 173.038 123.873 173.007C123.321 172.811 122.811 172.513 122.369 172.127C122.129 171.951 121.889 171.759 121.641 171.591C121.518 171.5 121.387 171.42 121.249 171.351C121.176 171.303 121.089 171.278 121.001 171.278C120.913 171.278 120.827 171.303 120.753 171.351C120.521 171.647 120.577 171.959 120.465 172.223C120.431 172.354 120.349 172.467 120.235 172.54C120.12 172.613 119.983 172.64 119.849 172.615C119.348 172.307 118.902 171.918 118.529 171.463C118.121 171.031 117.729 170.575 117.337 170.127C116.537 169.223 115.785 168.303 114.985 167.415C114.585 166.967 114.185 166.527 113.745 166.103C113.529 165.891 113.299 165.693 113.057 165.511C112.93 165.417 112.793 165.337 112.649 165.271C112.567 165.232 112.477 165.21 112.385 165.207C112.33 165.209 112.276 165.224 112.228 165.25C112.179 165.277 112.137 165.314 112.105 165.359C111.969 165.657 111.927 165.989 111.985 166.311C112.017 166.612 112.065 166.911 112.129 167.207C112.26 167.796 112.42 168.378 112.609 168.951C112.972 170.106 113.452 171.222 114.041 172.279C114.199 172.552 114.39 172.805 114.609 173.031C114.676 173.103 114.758 173.159 114.85 173.195C114.941 173.231 115.039 173.246 115.137 173.239C115.304 173.222 115.467 173.176 115.617 173.103C115.914 172.963 116.177 172.759 116.385 172.506C116.594 172.253 116.745 171.957 116.825 171.639C116.864 171.45 116.838 171.253 116.753 171.079C116.697 170.985 116.617 170.908 116.521 170.855C116.426 170.805 116.317 170.783 116.209 170.791C115.891 170.818 115.579 170.891 115.281 171.007C114.705 171.207 114.161 171.455 113.609 171.695C113.057 171.935 112.513 172.175 111.961 172.399C111.689 172.503 111.417 172.615 111.161 172.695C111.031 172.735 110.897 172.764 110.761 172.783C110.648 172.789 110.534 172.764 110.433 172.711C109.985 172.487 109.681 171.911 109.233 171.487C108.997 171.224 108.673 171.056 108.321 171.015C108.255 171.007 108.188 171.014 108.124 171.035C108.061 171.056 108.003 171.09 107.953 171.135C107.907 171.184 107.872 171.242 107.85 171.305C107.828 171.369 107.819 171.436 107.825 171.503C107.84 171.668 107.869 171.831 107.913 171.991C107.993 172.255 108.033 172.599 107.953 172.615C107.873 172.631 107.521 172.615 107.273 172.575C106.724 172.406 106.211 172.134 105.761 171.775C105.521 171.607 105.273 171.423 104.961 171.263C104.671 171.066 104.318 170.981 103.969 171.023C103.37 171.255 102.841 171.638 102.433 172.135C102.242 172.343 102.028 172.529 101.793 172.687C101.689 172.759 101.585 172.775 101.561 172.751C101.441 172.691 101.326 172.622 101.217 172.543C100.743 172.193 100.292 171.814 99.8654 171.407C98.9961 170.61 98.2204 169.716 97.5534 168.743C97.2293 168.29 97.0381 167.755 97.0014 167.199C97.0014 166.663 97.5534 166.399 98.1214 166.327C99.2854 166.131 100.475 166.147 101.633 166.375C102.212 166.482 102.78 166.643 103.329 166.855C103.61 166.966 103.878 167.105 104.129 167.271C104.345 167.431 104.545 167.663 104.481 167.879C104.362 168.119 104.156 168.304 103.905 168.399C103.645 168.522 103.378 168.632 103.105 168.727C102.544 168.924 101.972 169.092 101.393 169.231C99.0459 169.675 96.6626 169.902 94.2734 169.911V169.951C96.6845 170.008 99.0956 169.834 101.473 169.431C102.063 169.3 102.645 169.137 103.217 168.943C103.497 168.839 103.785 168.751 104.065 168.615C104.379 168.492 104.632 168.251 104.769 167.943C104.793 167.77 104.764 167.594 104.687 167.437C104.61 167.281 104.489 167.15 104.337 167.063C104.091 166.877 103.823 166.724 103.537 166.607C102.977 166.371 102.392 166.197 101.793 166.087C100.599 165.832 99.3684 165.797 98.1614 165.983C97.8405 166.029 97.5311 166.135 97.2494 166.295C97.0982 166.389 96.972 166.518 96.8815 166.671C96.7909 166.824 96.7388 166.997 96.7294 167.175C96.7619 167.816 96.9755 168.435 97.3454 168.959C98.0256 169.977 98.8321 170.904 99.7454 171.719C100.182 172.143 100.647 172.536 101.137 172.895C101.269 172.992 101.408 173.078 101.553 173.151C101.656 173.187 101.765 173.198 101.872 173.183C101.98 173.167 102.081 173.126 102.169 173.063C102.432 172.885 102.673 172.678 102.889 172.447C103.247 172.019 103.699 171.679 104.209 171.455C104.649 171.391 105.161 171.799 105.633 172.135C106.127 172.524 106.688 172.817 107.289 172.999C107.459 173.063 107.64 173.093 107.821 173.086C108.003 173.079 108.181 173.036 108.345 172.959C108.43 172.886 108.494 172.792 108.53 172.687C108.567 172.582 108.575 172.469 108.553 172.359C108.535 172.197 108.503 172.036 108.457 171.879C108.421 171.751 108.397 171.62 108.385 171.487C108.385 171.439 108.385 171.415 108.385 171.439C108.385 171.463 108.385 171.439 108.441 171.439C108.689 171.475 108.915 171.597 109.081 171.783C109.489 172.159 109.761 172.743 110.393 173.079C110.561 173.166 110.75 173.202 110.937 173.183C111.101 173.166 111.262 173.131 111.417 173.079C111.713 172.991 111.993 172.879 112.273 172.767C112.833 172.535 113.377 172.287 113.929 172.047C114.481 171.807 115.017 171.559 115.569 171.367C115.825 171.261 116.094 171.191 116.369 171.159C116.561 171.159 116.673 171.319 116.617 171.575C116.55 171.838 116.426 172.084 116.255 172.295C116.084 172.507 115.869 172.678 115.625 172.799C115.507 172.856 115.38 172.893 115.249 172.911C115.169 172.911 115.081 172.911 114.977 172.783C114.778 172.583 114.606 172.357 114.465 172.111C113.876 171.096 113.39 170.024 113.017 168.911C112.825 168.343 112.657 167.775 112.521 167.199C112.454 166.912 112.406 166.621 112.377 166.327C112.323 166.06 112.345 165.782 112.441 165.527C112.529 165.375 112.865 165.527 113.081 165.727C113.316 165.903 113.541 166.093 113.753 166.295C114.185 166.703 114.553 167.143 114.993 167.583C115.793 168.463 116.593 169.375 117.393 170.271C117.793 170.719 118.193 171.167 118.601 171.607C118.992 172.073 119.46 172.468 119.985 172.775C120.153 172.815 120.329 172.789 120.478 172.703C120.627 172.616 120.737 172.476 120.785 172.311C120.897 172.023 120.889 171.671 121.041 171.511C121.193 171.351 121.265 171.511 121.385 171.559C121.517 171.626 121.643 171.703 121.761 171.791C122.001 171.959 122.233 172.151 122.473 172.335C122.931 172.74 123.46 173.054 124.033 173.263C124.194 173.302 124.362 173.296 124.52 173.247C124.678 173.198 124.82 173.107 124.929 172.983C125.133 172.754 125.312 172.504 125.465 172.239C125.625 171.991 125.785 171.727 126.025 171.647C126.285 171.57 126.558 171.551 126.825 171.591C127.395 171.696 127.923 171.956 128.353 172.343C129.19 173.179 129.873 174.157 130.369 175.231C130.896 176.296 131.33 177.404 131.665 178.543C132.035 179.664 132.232 180.835 132.249 182.015C132.254 182.277 132.191 182.537 132.065 182.767L132.009 182.823C131.979 182.811 131.951 182.792 131.929 182.767C131.832 182.676 131.746 182.574 131.673 182.463C131.371 181.965 131.104 181.446 130.873 180.911C129.926 178.727 129.124 176.482 128.473 174.191C128.145 173.039 127.841 171.887 127.617 170.719C127.504 170.139 127.437 169.55 127.417 168.959C127.401 168.683 127.456 168.407 127.577 168.159C127.649 168.063 127.721 168.039 127.881 168.071C128.025 168.087 128.166 168.114 128.305 168.151C129.446 168.487 130.544 168.954 131.577 169.543C132.625 170.111 133.657 170.727 134.657 171.375L134.481 171.279Z" fill="#263238"/>
<path d="M186.488 168.117H151.512V174.741H186.488V168.117Z" fill="white"/>
<path d="M282.18 214.395L275.5 194.507L293.7 188.395L282.18 214.395Z" fill="#37474F"/>
<path d="M291.348 189.194L304.308 227.834L304.708 227.93L291.676 189.082L291.348 189.194Z" fill="white"/>
<path d="M277.527 193.823L290.559 232.671L290.831 232.359L277.863 193.711L277.527 193.823Z" fill="white"/>
<path d="M283.51 192.777L271.398 237.433L271.678 237.729L283.846 192.865L283.51 192.777Z" fill="white"/>
<path d="M269.445 188.961L257.277 233.825L257.669 233.713L269.789 189.049L269.445 188.961Z" fill="white"/>
<path d="M282.598 143.697C282.713 143.982 282.903 144.231 283.147 144.416C283.392 144.601 283.683 144.715 283.988 144.747C284.294 144.779 284.602 144.728 284.88 144.598C285.158 144.468 285.395 144.264 285.566 144.009C285.755 143.73 286.022 143.513 286.335 143.387C286.647 143.26 286.991 143.231 287.32 143.301C287.65 143.372 287.951 143.539 288.184 143.783C288.418 144.026 288.573 144.333 288.63 144.665C288.683 144.968 288.817 145.25 289.019 145.482C289.22 145.714 289.481 145.887 289.773 145.981C290.065 146.076 290.378 146.089 290.677 146.019C290.976 145.95 291.25 145.8 291.47 145.585C291.712 145.35 292.019 145.193 292.351 145.134C292.682 145.074 293.025 145.116 293.333 145.253C293.641 145.389 293.901 145.615 294.079 145.901C294.258 146.187 294.347 146.52 294.334 146.857C294.322 147.164 294.394 147.469 294.542 147.738C294.691 148.007 294.909 148.231 295.175 148.384C295.441 148.538 295.744 148.617 296.051 148.611C296.358 148.606 296.658 148.517 296.918 148.353C297.204 148.174 297.536 148.084 297.873 148.095C298.21 148.106 298.536 148.218 298.809 148.416C299.081 148.614 299.289 148.889 299.404 149.206C299.519 149.523 299.536 149.866 299.454 150.193C299.378 150.492 299.385 150.806 299.474 151.101C299.564 151.396 299.732 151.66 299.961 151.866C300.19 152.073 300.471 152.212 300.774 152.27C301.077 152.327 301.39 152.301 301.678 152.193C301.995 152.078 302.339 152.059 302.666 152.14C302.992 152.222 303.288 152.399 303.513 152.649C303.739 152.899 303.884 153.212 303.93 153.545C303.977 153.879 303.923 154.219 303.774 154.521C303.643 154.796 303.589 155.102 303.617 155.405C303.645 155.708 303.755 155.998 303.934 156.244C304.114 156.49 304.357 156.683 304.637 156.802C304.917 156.922 305.225 156.963 305.526 156.921C305.862 156.866 306.208 156.913 306.516 157.057C306.825 157.201 307.083 157.436 307.256 157.729C307.429 158.022 307.509 158.361 307.486 158.701C307.463 159.041 307.338 159.366 307.126 159.633C306.936 159.875 306.816 160.164 306.778 160.469C306.74 160.774 306.786 161.084 306.911 161.364C307.036 161.645 307.236 161.886 307.488 162.062C307.74 162.238 308.036 162.341 308.342 162.361C308.68 162.383 309.003 162.506 309.269 162.713C309.536 162.921 309.734 163.204 309.839 163.525C309.943 163.846 309.948 164.192 309.854 164.516C309.76 164.841 309.571 165.13 309.31 165.345C309.075 165.542 308.897 165.8 308.797 166.09C308.697 166.381 308.678 166.693 308.742 166.994C308.806 167.294 308.951 167.571 309.161 167.795C309.371 168.019 309.639 168.182 309.934 168.265C310.26 168.357 310.55 168.544 310.768 168.802C310.986 169.06 311.122 169.378 311.157 169.714C311.192 170.05 311.126 170.389 310.966 170.687C310.807 170.985 310.562 171.228 310.262 171.385C309.991 171.529 309.764 171.744 309.606 172.007C309.447 172.269 309.364 172.571 309.364 172.877C309.364 173.184 309.447 173.485 309.606 173.748C309.764 174.011 309.991 174.226 310.262 174.369C310.562 174.526 310.807 174.77 310.966 175.068C311.126 175.366 311.192 175.705 311.157 176.041C311.122 176.377 310.986 176.695 310.768 176.953C310.55 177.211 310.26 177.398 309.934 177.489C309.639 177.573 309.371 177.735 309.161 177.959C308.951 178.184 308.806 178.461 308.742 178.761C308.678 179.062 308.697 179.374 308.797 179.664C308.897 179.955 309.075 180.212 309.31 180.409C309.572 180.624 309.762 180.912 309.857 181.236C309.952 181.561 309.947 181.906 309.842 182.228C309.738 182.549 309.539 182.832 309.271 183.038C309.004 183.245 308.68 183.366 308.342 183.385C308.036 183.406 307.74 183.509 307.488 183.685C307.236 183.861 307.036 184.102 306.911 184.383C306.786 184.663 306.74 184.973 306.778 185.278C306.816 185.583 306.936 185.872 307.126 186.113C307.341 186.38 307.468 186.706 307.493 187.048C307.518 187.389 307.438 187.73 307.264 188.025C307.091 188.32 306.832 188.556 306.521 188.7C306.211 188.844 305.864 188.891 305.526 188.833C305.225 188.792 304.917 188.833 304.637 188.952C304.357 189.072 304.114 189.265 303.934 189.511C303.755 189.757 303.645 190.047 303.617 190.35C303.589 190.653 303.643 190.959 303.774 191.233C303.923 191.536 303.977 191.876 303.93 192.21C303.884 192.543 303.739 192.855 303.513 193.106C303.288 193.356 302.992 193.533 302.666 193.614C302.339 193.696 301.995 193.677 301.678 193.561C301.39 193.454 301.077 193.428 300.774 193.485C300.471 193.543 300.19 193.682 299.961 193.888C299.732 194.094 299.564 194.359 299.474 194.654C299.385 194.949 299.378 195.263 299.454 195.561C299.536 195.888 299.519 196.232 299.404 196.549C299.289 196.866 299.081 197.141 298.809 197.339C298.536 197.537 298.21 197.649 297.873 197.66C297.536 197.671 297.204 197.581 296.918 197.401C296.658 197.238 296.358 197.149 296.051 197.143C295.744 197.138 295.441 197.216 295.175 197.37C294.909 197.524 294.691 197.748 294.542 198.017C294.394 198.286 294.322 198.59 294.334 198.897C294.347 199.234 294.258 199.567 294.079 199.853C293.901 200.139 293.641 200.365 293.333 200.502C293.025 200.639 292.682 200.681 292.351 200.621C292.019 200.562 291.712 200.405 291.47 200.169C291.25 199.955 290.976 199.805 290.677 199.735C290.378 199.666 290.065 199.679 289.773 199.773C289.481 199.868 289.22 200.041 289.019 200.273C288.817 200.504 288.683 200.787 288.63 201.089C288.573 201.422 288.418 201.729 288.184 201.972C287.951 202.215 287.65 202.383 287.32 202.454C286.991 202.524 286.647 202.494 286.335 202.368C286.022 202.242 285.755 202.025 285.566 201.745C285.395 201.491 285.158 201.287 284.88 201.157C284.602 201.027 284.294 200.975 283.988 201.007C283.683 201.04 283.392 201.154 283.147 201.339C282.903 201.524 282.713 201.773 282.598 202.057C282.473 202.371 282.257 202.64 281.978 202.83C281.698 203.019 281.368 203.12 281.03 203.12C280.693 203.12 280.363 203.019 280.083 202.83C279.804 202.64 279.587 202.371 279.462 202.057C279.348 201.773 279.158 201.524 278.913 201.339C278.668 201.154 278.378 201.04 278.072 201.007C277.767 200.975 277.459 201.027 277.181 201.157C276.903 201.287 276.665 201.491 276.494 201.745C276.306 202.025 276.039 202.242 275.726 202.368C275.413 202.494 275.07 202.524 274.741 202.454C274.411 202.383 274.11 202.215 273.876 201.972C273.643 201.729 273.488 201.422 273.43 201.089C273.378 200.787 273.243 200.504 273.042 200.273C272.841 200.041 272.58 199.868 272.288 199.773C271.995 199.679 271.683 199.666 271.384 199.735C271.085 199.805 270.81 199.955 270.59 200.169C270.349 200.405 270.042 200.562 269.71 200.621C269.378 200.681 269.036 200.639 268.728 200.502C268.42 200.365 268.16 200.139 267.981 199.853C267.803 199.567 267.714 199.234 267.726 198.897C267.737 198.59 267.663 198.286 267.514 198.017C267.365 197.749 267.145 197.526 266.879 197.372C266.613 197.218 266.31 197.14 266.003 197.145C265.695 197.15 265.395 197.239 265.134 197.401C264.849 197.581 264.517 197.671 264.18 197.66C263.843 197.649 263.517 197.537 263.244 197.339C262.971 197.141 262.764 196.866 262.649 196.549C262.534 196.232 262.516 195.888 262.598 195.561C262.674 195.264 262.667 194.951 262.578 194.657C262.489 194.363 262.321 194.099 262.093 193.894C261.865 193.688 261.585 193.548 261.284 193.49C260.982 193.431 260.671 193.456 260.382 193.561C260.066 193.677 259.722 193.696 259.395 193.614C259.068 193.533 258.773 193.356 258.548 193.106C258.322 192.855 258.177 192.543 258.13 192.21C258.084 191.876 258.138 191.536 258.286 191.233C258.418 190.959 258.472 190.653 258.444 190.35C258.416 190.047 258.306 189.757 258.127 189.511C257.947 189.265 257.704 189.072 257.424 188.952C257.144 188.833 256.836 188.792 256.534 188.833C256.197 188.891 255.85 188.844 255.54 188.7C255.229 188.556 254.97 188.32 254.796 188.025C254.623 187.73 254.543 187.389 254.568 187.048C254.592 186.706 254.72 186.38 254.934 186.113C255.124 185.872 255.245 185.583 255.283 185.278C255.321 184.973 255.275 184.663 255.149 184.383C255.024 184.102 254.825 183.861 254.573 183.685C254.32 183.509 254.025 183.406 253.718 183.385C253.381 183.366 253.057 183.245 252.79 183.038C252.522 182.832 252.323 182.549 252.218 182.228C252.114 181.906 252.109 181.561 252.204 181.236C252.298 180.912 252.489 180.624 252.75 180.409C252.986 180.212 253.164 179.955 253.264 179.664C253.364 179.374 253.383 179.062 253.319 178.761C253.255 178.461 253.11 178.184 252.9 177.959C252.689 177.735 252.422 177.573 252.126 177.489C251.801 177.398 251.51 177.211 251.293 176.953C251.075 176.695 250.939 176.377 250.904 176.041C250.868 175.705 250.935 175.366 251.094 175.068C251.254 174.77 251.499 174.526 251.798 174.369C252.07 174.226 252.297 174.011 252.455 173.748C252.613 173.485 252.697 173.184 252.697 172.877C252.697 172.571 252.613 172.269 252.455 172.007C252.297 171.744 252.07 171.529 251.798 171.385C251.499 171.228 251.254 170.985 251.094 170.687C250.935 170.389 250.868 170.05 250.904 169.714C250.939 169.378 251.075 169.06 251.293 168.802C251.51 168.544 251.801 168.357 252.126 168.265C252.422 168.182 252.689 168.019 252.9 167.795C253.11 167.571 253.255 167.294 253.319 166.994C253.383 166.693 253.364 166.381 253.264 166.09C253.164 165.8 252.986 165.542 252.75 165.345C252.49 165.13 252.301 164.841 252.207 164.516C252.112 164.192 252.118 163.846 252.222 163.525C252.326 163.204 252.525 162.921 252.791 162.713C253.058 162.506 253.381 162.383 253.718 162.361C254.025 162.341 254.32 162.238 254.573 162.062C254.825 161.886 255.024 161.645 255.149 161.364C255.275 161.084 255.321 160.774 255.283 160.469C255.245 160.164 255.124 159.875 254.934 159.633C254.723 159.366 254.598 159.041 254.575 158.701C254.551 158.361 254.632 158.022 254.805 157.729C254.978 157.436 255.236 157.201 255.544 157.057C255.853 156.913 256.198 156.866 256.534 156.921C256.836 156.963 257.144 156.922 257.424 156.802C257.704 156.683 257.947 156.49 258.127 156.244C258.306 155.998 258.416 155.708 258.444 155.405C258.472 155.102 258.418 154.796 258.286 154.521C258.138 154.219 258.084 153.879 258.13 153.545C258.177 153.212 258.322 152.899 258.548 152.649C258.773 152.399 259.068 152.222 259.395 152.14C259.722 152.059 260.066 152.078 260.382 152.193C260.671 152.299 260.982 152.324 261.284 152.265C261.585 152.207 261.865 152.067 262.093 151.861C262.321 151.655 262.489 151.391 262.578 151.098C262.667 150.804 262.674 150.491 262.598 150.193C262.516 149.866 262.534 149.523 262.649 149.206C262.764 148.889 262.971 148.614 263.244 148.416C263.517 148.218 263.843 148.106 264.18 148.095C264.517 148.084 264.849 148.174 265.134 148.353C265.395 148.516 265.695 148.605 266.003 148.61C266.31 148.615 266.613 148.537 266.879 148.383C267.145 148.229 267.365 148.006 267.514 147.737C267.663 147.469 267.737 147.165 267.726 146.857C267.716 146.52 267.806 146.187 267.986 145.902C268.167 145.617 268.428 145.392 268.737 145.257C269.046 145.122 269.389 145.082 269.721 145.144C270.052 145.205 270.358 145.365 270.598 145.601C270.818 145.816 271.093 145.966 271.392 146.035C271.691 146.105 272.003 146.092 272.296 145.997C272.588 145.903 272.849 145.73 273.05 145.498C273.251 145.266 273.386 144.984 273.438 144.681C273.496 144.349 273.651 144.042 273.884 143.799C274.118 143.555 274.419 143.388 274.749 143.317C275.078 143.247 275.421 143.276 275.734 143.403C276.047 143.529 276.314 143.746 276.502 144.025C276.673 144.28 276.911 144.484 277.189 144.614C277.467 144.744 277.775 144.795 278.08 144.763C278.386 144.731 278.676 144.617 278.921 144.432C279.166 144.247 279.356 143.998 279.47 143.713C279.595 143.402 279.81 143.134 280.088 142.945C280.365 142.756 280.693 142.654 281.029 142.652C281.365 142.651 281.694 142.749 281.973 142.935C282.253 143.121 282.47 143.387 282.598 143.697Z" fill="#374761"/>
<path d="M306.238 179.775C310.039 165.841 301.825 151.463 287.891 147.662C273.957 143.86 259.579 152.074 255.778 166.008C251.976 179.942 260.19 194.32 274.124 198.121C288.059 201.923 302.436 193.709 306.238 179.775Z" fill="white"/>
<path d="M280.996 197.219C276.184 197.219 271.481 195.792 267.48 193.119C263.479 190.445 260.361 186.646 258.52 182.2C256.679 177.755 256.197 172.864 257.135 168.144C258.074 163.425 260.391 159.09 263.793 155.688C267.196 152.286 271.531 149.969 276.25 149.03C280.969 148.091 285.861 148.573 290.306 150.414C294.751 152.256 298.551 155.374 301.224 159.375C303.897 163.375 305.324 168.079 305.324 172.891C305.318 179.341 302.752 185.525 298.191 190.086C293.63 194.647 287.446 197.212 280.996 197.219ZM280.996 149.171C276.303 149.171 271.715 150.562 267.813 153.17C263.91 155.778 260.869 159.484 259.073 163.82C257.278 168.156 256.808 172.928 257.724 177.531C258.641 182.134 260.901 186.361 264.221 189.68C267.54 192.998 271.768 195.257 276.372 196.172C280.975 197.086 285.746 196.615 290.082 194.818C294.417 193.021 298.123 189.978 300.729 186.075C303.335 182.172 304.726 177.584 304.724 172.891C304.716 166.601 302.213 160.571 297.764 156.124C293.316 151.678 287.286 149.177 280.996 149.171Z" fill="#374761"/>
<path d="M278.309 187.45L263.973 173.114L269.853 167.226L278.309 175.682L305.229 148.762L311.109 154.65L278.309 187.45Z" fill="#455A64"/>
<path d="M4.41797 350.919H106.194L85.906 232.871H9.79397L4.41797 350.919Z" fill="#DBDBDB"/>
<path d="M4.41797 350.919H13.338L18.346 232.871H9.79397L4.41797 350.919Z" fill="#A6A6A6"/>
<path d="M84.2718 251.272C97.0078 277.672 127.2 321.264 139.84 309.896C158.752 292.904 170.816 256.152 175.6 241.304C178.28 232.976 135.912 220.368 133.552 227.92C130.192 238.664 125.08 261.04 121.84 264.28C120.136 265.984 105.84 247.072 95.1918 238.208C79.8078 225.432 80.1998 242.848 84.2718 251.272Z" fill="#EB9481"/>
<path d="M184.579 223.382C182.771 232.414 171.859 249.438 167.643 252.534C163.427 255.63 133.803 238.878 133.131 233.55C132.459 228.222 141.003 197.446 148.203 191.406C155.403 185.366 186.451 214.03 184.579 223.382Z" fill="#EB9481"/>
<path d="M133.804 227.351C133.804 227.351 131.772 215.551 126.604 206.343C122.268 198.607 114.948 187.607 119.02 185.111C127.388 179.999 145.628 207.447 145.628 207.447C145.628 207.447 151.732 220.847 143.892 226.647C138.94 230.279 133.804 227.351 133.804 227.351Z" fill="#EB9481"/>
<path d="M138.996 202.928C140.66 207.512 145.116 202.928 145.116 202.928C145.116 202.928 140.316 211.064 143.828 215.136C147.244 219.048 152.436 213.328 152.812 212.92C152.564 213.352 148.316 220.92 152.3 224.672C156.436 228.544 160.66 221.904 160.932 221.472C160.82 221.952 159.484 228.368 163.148 230.512C169.444 234.192 173.324 217.88 178.476 215C178.476 215 184.356 223.176 184.58 223.376C184.58 223.376 188.58 207.936 184.308 201.2C183.701 200.211 182.775 199.459 181.682 199.067C180.59 198.676 179.397 198.669 178.3 199.048C178.3 199.048 180.14 194.248 177.1 191.184C175.54 189.632 171.66 190.752 171.66 190.752C171.66 190.752 172.98 186.824 170.108 184.296C167.82 182.272 164.292 183.712 164.292 183.712C164.292 183.712 163.796 179.344 160.796 178.04C154.74 175.392 135.46 193.096 138.996 202.928Z" fill="#EB9481"/>
<path d="M163.698 183.854C163.762 183.806 163.698 183.694 163.626 183.742C155.866 188.014 148.65 195.086 144.85 203.15C144.722 203.414 145.098 203.734 145.29 203.47C150.794 195.91 156.282 189.638 163.698 183.854Z" fill="#263238"/>
<path d="M171.723 190.631C171.803 190.575 171.723 190.439 171.603 190.487C163.603 194.943 155.723 203.135 152.443 212.943C152.323 213.279 152.563 213.695 152.723 213.319C155.403 206.959 165.003 195.807 171.723 190.631Z" fill="#263238"/>
<path d="M160.939 222.237C164.451 212.957 170.587 205.733 177.955 199.221C178.051 199.133 177.955 199.005 177.819 199.053C173.347 201.261 169.083 205.901 166.075 209.797C163.208 213.356 161.325 217.604 160.611 222.117C160.587 222.301 160.859 222.437 160.939 222.237Z" fill="#263238"/>
<path d="M144.954 202.961C144.802 203.281 145.434 203.153 145.29 203.473C144.706 204.825 141.882 213.289 144.49 215.145C146.562 216.625 149.994 214.873 151.05 213.681L153.698 210.681L152.202 214.401C151.546 216.056 151.165 217.807 151.074 219.585C150.984 220.405 151.068 221.234 151.322 222.019C151.576 222.803 151.993 223.525 152.546 224.137C153.065 224.7 153.761 225.068 154.518 225.179C155.276 225.289 156.048 225.136 156.706 224.745C158.167 223.842 159.373 222.581 160.21 221.081L162.658 217.025L161.674 221.641C161.401 222.926 161.291 224.24 161.346 225.553C161.356 226.798 161.729 228.013 162.418 229.049C162.752 229.501 163.205 229.851 163.726 230.06C164.247 230.27 164.817 230.329 165.37 230.233C166.572 229.83 167.634 229.095 168.434 228.113C170.208 226.011 171.813 223.772 173.234 221.417C174.034 220.257 174.746 219.089 175.562 217.953C176.315 216.771 177.31 215.762 178.482 214.993C177.415 215.88 176.532 216.967 175.882 218.193C175.162 219.369 174.506 220.593 173.834 221.801C172.556 224.303 171.045 226.678 169.322 228.897C168.408 230.116 167.157 231.039 165.722 231.553C164.912 231.747 164.062 231.699 163.278 231.415C162.494 231.13 161.812 230.622 161.314 229.953C160.412 228.695 159.907 227.196 159.866 225.649C159.773 224.189 159.872 222.723 160.162 221.289L161.626 221.849C160.671 223.639 159.261 225.145 157.538 226.217C156.573 226.78 155.442 226.992 154.338 226.817C153.253 226.606 152.257 226.071 151.482 225.281C149.882 223.721 149.506 221.449 149.61 219.521C149.743 217.567 150.194 215.649 150.946 213.841L152.146 214.577C150.762 216.049 147.138 218.433 143.634 216.537C139.402 213.401 143.994 204.529 144.954 202.961Z" fill="#263238"/>
<path d="M145.114 202.936C144.287 203.505 143.378 203.945 142.418 204.241C142.036 204.369 141.625 204.392 141.23 204.31C140.835 204.227 140.469 204.04 140.17 203.769C139.606 203.083 139.251 202.25 139.146 201.369C138.978 200.401 138.858 199.377 138.778 198.312C138.329 199.303 138.092 200.377 138.082 201.465C138.047 202.062 138.129 202.661 138.325 203.227C138.522 203.792 138.828 204.314 139.226 204.76C139.717 205.196 140.328 205.475 140.978 205.561C141.601 205.615 142.227 205.496 142.786 205.216C143.784 204.722 144.6 203.924 145.114 202.936Z" fill="#263238"/>
<path d="M131.019 228.801L175.579 258.001C175.579 258.001 151.003 312.801 134.867 313.121C118.731 313.441 94.291 273.585 85.731 256.321C77.171 239.057 81.579 224.065 98.283 239.577C114.987 255.089 120.995 261.473 121.483 261.249C122.531 260.801 131.019 228.801 131.019 228.801Z" fill="#374761"/>
<path d="M175.579 258.001C175.579 258.001 158.539 296.017 143.515 308.905C140.507 311.497 137.571 313.073 134.867 313.121C118.731 313.433 94.2913 273.577 85.7233 256.321C80.4193 245.625 80.1234 235.809 84.5874 233.577C87.3474 232.193 91.9234 233.673 98.2834 239.577C115.083 255.185 120.995 261.473 121.483 261.241C122.523 260.801 131.027 228.801 131.027 228.801L175.579 258.001Z" fill="#374761"/>
<path d="M165.385 263.359C164.201 262.439 162.985 261.543 161.809 260.647C159.382 258.834 156.947 257.029 154.505 255.231C149.657 251.655 144.713 248.223 139.729 244.831C136.897 242.911 134.129 240.879 131.209 239.087C131.181 239.067 131.147 239.059 131.113 239.064C131.079 239.069 131.049 239.088 131.029 239.115C131.009 239.143 131 239.177 131.005 239.211C131.011 239.245 131.029 239.275 131.057 239.295C133.385 241.239 135.857 242.999 138.257 244.839C140.657 246.679 143.057 248.527 145.505 250.327C150.369 253.89 155.278 257.375 160.233 260.783C161.625 261.743 162.985 262.767 164.417 263.663C165.153 264.119 165.849 264.639 166.593 265.087C167.337 265.535 168.113 265.935 168.841 266.407C168.849 266.413 168.857 266.416 168.867 266.418C168.876 266.42 168.886 266.42 168.895 266.418C168.904 266.416 168.913 266.412 168.921 266.407C168.929 266.402 168.935 266.395 168.941 266.387C168.946 266.379 168.95 266.371 168.951 266.361C168.953 266.352 168.953 266.342 168.951 266.333C168.95 266.324 168.946 266.315 168.941 266.307C168.935 266.299 168.929 266.293 168.921 266.287C167.737 265.351 166.601 264.311 165.385 263.359Z" fill="#263238"/>
<path d="M121.868 260.231C120.32 264.778 119.077 269.423 118.148 274.135C117.644 276.463 117.26 278.815 116.884 281.159C116.482 283.487 116.239 285.839 116.156 288.199C116.156 288.287 116.276 288.287 116.3 288.199C116.956 285.935 117.428 283.575 117.9 281.255C118.372 278.935 118.868 276.599 119.324 274.263C120.236 269.599 121.332 264.959 122.1 260.271C122.116 260.127 121.916 260.095 121.868 260.231Z" fill="#263238"/>
<path opacity="0.1" d="M143.515 308.902C140.507 311.494 137.571 313.07 134.867 313.118C118.731 313.43 94.2913 273.574 85.7233 256.318C80.4193 245.622 80.1234 235.806 84.5874 233.574L143.515 308.902Z" fill="black"/>
<path d="M117.754 350.92H12.8103C12.3463 348.8 28.8583 256.88 64.2423 230.992C72.0983 225.248 86.0263 228.944 89.8983 234.528C109.378 262.592 117.754 350.92 117.754 350.92Z" fill="#EBEBEB"/>
<path d="M61.9234 231.68C61.9234 231.68 71.1874 272.384 72.1394 275.896C73.0914 279.408 76.5234 350.92 76.5234 350.92H11.8594C11.8594 350.92 26.4114 259.72 61.9234 231.68Z" fill="#374761"/>
<path d="M89.8984 234.527C89.8984 234.527 93.9544 265.727 94.4344 267.535C94.9144 269.343 108.202 350.919 108.202 350.919H118.274C118.274 350.919 109.466 256.631 89.8984 234.527Z" fill="#374761"/>
<path d="M49.5119 243.485C30.5999 270.117 3.19991 317.813 15.8239 326.301C36.6239 340.261 93.7039 344.005 106.76 344.325C112.36 344.461 120.072 306.997 115.904 302.645C111.736 298.293 51.9519 300.637 51.1919 297.045C50.7519 295.005 58.0639 276.125 61.7679 253.485C66.0399 227.349 54.8479 235.997 49.5119 243.485Z" fill="#EB9481"/>
<path d="M105.881 300.573C105.881 300.573 122.929 298.821 134.137 298.173C140.393 297.829 151.161 298.173 155.873 300.029C162.913 302.789 190.617 318.829 186.873 325.629C183.481 331.789 161.433 314.989 161.433 314.989C161.433 314.989 185.185 329.973 179.737 336.637C174.289 343.301 151.905 320.997 151.905 320.997C151.905 320.997 175.961 336.949 169.265 342.925C164.201 347.445 142.785 328.397 142.785 328.397C142.785 328.397 163.361 342.245 158.353 347.117C152.825 352.501 131.953 336.157 131.953 336.157C117.137 346.405 105.897 345.221 97.9935 343.429C96.0815 343.005 105.881 300.573 105.881 300.573Z" fill="#EB9481"/>
<path d="M153.557 309.295C156.413 310.951 159.309 312.615 162.005 314.519C164.701 316.423 167.333 318.431 169.837 320.583C175.989 325.855 179.013 330.119 178.797 329.879C173.701 324.127 164.157 317.151 161.453 315.239C158.749 313.327 156.173 311.303 153.453 309.391C153.413 309.343 153.485 309.255 153.557 309.295Z" fill="#263238"/>
<path d="M146.492 318.906C150.044 321.186 153.652 323.314 157.108 325.746C160.564 328.178 165.244 331.73 168.5 334.386C168.748 334.586 168.564 335.034 168.3 334.834C164.94 332.314 159.98 328.906 156.588 326.426C153.196 323.946 149.9 321.33 146.428 318.986C146.372 318.954 146.436 318.874 146.492 318.906Z" fill="#263238"/>
<path d="M138.944 326.062C144.544 329.262 149.552 333.494 154.368 337.766C154.608 337.974 154.368 338.038 154.096 337.83C149.04 333.83 145.096 330.678 138.824 326.254C138.728 326.19 138.824 325.99 138.944 326.062Z" fill="#263238"/>
<path d="M105.907 298.342L89.9068 346.686C89.9068 346.686 16.9388 337.39 11.5068 324.214C6.07476 311.038 27.8668 271.086 45.9068 246.542C63.6588 222.398 65.1628 238.718 61.8588 256.406C58.5548 274.094 52.3468 294.702 53.3948 296.102C54.4428 297.502 105.907 298.342 105.907 298.342Z" fill="#374761"/>
<path d="M81.0006 339.807C81.5686 338.423 82.1126 337.031 82.6566 335.631C83.7233 332.805 84.8059 329.975 85.9046 327.143C88.0406 321.503 90.0166 315.823 91.9286 310.111C93.0086 306.863 94.2166 303.647 95.1286 300.359C95.1403 300.326 95.1384 300.29 95.1234 300.259C95.1084 300.227 95.0815 300.203 95.0486 300.191C95.0157 300.179 94.9795 300.181 94.948 300.196C94.9165 300.211 94.8923 300.238 94.8806 300.271C93.6406 303.031 92.6086 305.871 91.4966 308.711C90.3846 311.551 89.2326 314.311 88.1606 317.175C86.0406 322.775 84.0166 328.479 82.0486 334.175C81.5046 335.775 80.8886 337.375 80.4486 338.975C80.2006 339.775 79.8886 340.575 79.6486 341.455C79.4086 342.335 79.2406 343.143 78.9846 343.975C78.9782 343.993 78.9793 344.013 78.9875 344.03C78.9958 344.048 79.0105 344.061 79.0286 344.067C79.0466 344.074 79.0664 344.072 79.0837 344.064C79.101 344.056 79.1142 344.041 79.1206 344.023C79.6966 342.607 80.3926 341.231 81.0006 339.807Z" fill="#263238"/>
<path d="M91.1627 343.358L90.0347 346.742V346.846H89.9147C83.0267 346.222 76.1707 345.35 69.3387 344.294C62.5067 343.238 55.6987 341.99 48.9387 340.494C42.1715 339.044 35.4937 337.203 28.9387 334.982C25.6459 333.865 22.4376 332.512 19.3387 330.934C17.7936 330.131 16.3167 329.202 14.9227 328.158C13.4894 327.151 12.3314 325.801 11.5547 324.23C12.4586 325.692 13.6913 326.922 15.1547 327.822C16.5956 328.741 18.107 329.543 19.6747 330.222C22.8156 331.606 26.0376 332.797 29.3227 333.79C35.8907 335.814 42.5867 337.438 49.3227 338.91C56.0587 340.382 62.8187 341.702 69.5947 342.91C76.3707 344.118 83.1947 345.358 89.9867 346.478L89.8347 346.574L91.1627 343.358Z" fill="#263238"/>
<path d="M105.281 300.23L105.825 298.318L105.905 298.43C98.7052 298.622 91.5052 298.702 84.3052 298.63C77.1052 298.558 69.9052 298.414 62.7052 298.03C60.8972 297.926 59.0892 297.806 57.2812 297.63C56.3692 297.534 55.4732 297.446 54.5372 297.278C54.2918 297.239 54.0487 297.185 53.8092 297.118L53.3932 296.982C53.2915 296.935 53.1927 296.881 53.0972 296.822C53.003 296.758 52.9216 296.677 52.8572 296.582C52.8141 296.525 52.7766 296.463 52.7452 296.398C52.7405 296.366 52.7405 296.334 52.7452 296.302C52.6734 295.988 52.6571 295.663 52.6972 295.342C52.6972 295.102 52.6972 294.854 52.7772 294.63C53.3372 290.982 54.1692 287.502 55.0092 283.982C56.6892 276.958 58.5772 269.998 60.6092 263.07L56.2172 284.246C55.5292 287.766 54.7292 291.318 54.2732 294.814C54.2732 295.03 54.2732 295.23 54.2092 295.446C54.2173 295.574 54.2173 295.702 54.2092 295.83C54.1939 295.789 54.1752 295.749 54.1532 295.71C54.1132 295.646 54.0012 295.574 54.0332 295.59C54.1054 295.621 54.1804 295.646 54.2572 295.662C54.4332 295.71 54.6412 295.75 54.8492 295.79C55.6492 295.934 56.5852 296.022 57.4652 296.102C59.2412 296.262 61.0332 296.366 62.8332 296.462C66.4172 296.665 70.0119 296.828 73.6172 296.95L84.4092 297.366C91.6092 297.622 98.8092 297.942 106.009 298.286H106.137V298.398L105.281 300.23Z" fill="#263238"/>
<path d="M61.705 267.43C61.2957 268.681 60.7596 269.887 60.105 271.03C59.4849 272.197 58.7069 273.274 57.793 274.23C58.353 273.038 58.945 271.886 59.577 270.742C60.2102 269.591 60.9212 268.484 61.705 267.43Z" fill="#263238"/>
<path d="M84.8168 248.84C78.7288 250.576 67.7367 241.64 63.2167 234.224C62.9127 233.712 64.1368 212.712 63.9448 208.528C63.9448 207.672 90.4887 213.72 90.4887 213.72C90.4887 213.72 88.3047 222.608 88.6727 229.904C88.7207 230.512 90.6968 247.2 84.8168 248.84Z" fill="#EB9481"/>
<path d="M63.5859 221.682C76.0099 230.482 88.1139 227.082 88.6579 226.922C88.8637 222.474 89.4797 218.056 90.4979 213.722C90.4979 213.722 63.9139 207.666 63.9539 208.53C64.0419 210.498 63.8259 216.162 63.5859 221.682Z" fill="#263238"/>
<path d="M89.0895 193.704C89.7695 199.896 94.6895 204.432 100.161 203.832C105.633 203.232 109.449 197.728 108.769 191.536C108.089 185.344 103.129 180.808 97.6975 181.4C92.2655 181.992 88.4095 187.504 89.0895 193.704Z" fill="#455A64"/>
<path d="M85.9465 194.44C86.6985 201.336 92.2185 206.384 98.2665 205.72C104.315 205.056 108.595 198.928 107.867 192.032C107.139 185.136 101.563 180.096 95.5225 180.8C89.4825 181.504 85.1865 187.552 85.9465 194.44Z" fill="#C7C7C7"/>
<path d="M60.2809 176.991C57.3849 186.287 62.1369 213.239 68.7289 219.279C78.2809 228.039 94.0089 228.967 101.473 217.463C108.673 206.311 101.881 171.303 94.5129 165.807C83.6569 157.703 64.5689 163.255 60.2809 176.991Z" fill="#EB9481"/>
<path d="M82.6819 193.911C82.6819 193.839 82.5539 194.023 82.5699 194.095C82.9779 195.895 83.1379 198.023 81.6099 198.895C81.5619 198.895 81.6099 199.015 81.6499 198.999C83.5939 198.399 83.3539 195.551 82.6819 193.911Z" fill="#263238"/>
<path d="M80.6991 192.33C77.7471 192.666 78.6351 198.554 81.3791 198.242C84.1231 197.93 83.1791 192.05 80.6991 192.33Z" fill="#263238"/>
<path d="M93.1515 192.497C93.1515 192.425 93.3115 192.561 93.3195 192.633C93.5355 194.465 94.1195 196.529 95.8315 196.881C95.8875 196.881 95.8955 196.985 95.8315 196.985C93.7995 197.009 93.0635 194.265 93.1515 192.497Z" fill="#263238"/>
<path d="M94.4987 190.342C97.3947 189.678 98.4987 195.518 95.8267 196.142C93.1547 196.766 92.0667 190.902 94.4987 190.342Z" fill="#263238"/>
<path d="M77.9715 189.992C78.7112 189.646 79.4322 189.262 80.1315 188.84C80.9496 188.541 81.6449 187.978 82.1075 187.24C82.2083 186.981 82.2214 186.696 82.1448 186.429C82.0682 186.161 81.9062 185.926 81.6835 185.76C80.6835 185.112 79.5395 185.416 78.5235 185.912C77.4794 186.394 76.6544 187.251 76.2115 188.312C76.1268 188.554 76.1138 188.816 76.1738 189.065C76.2339 189.315 76.3646 189.542 76.5502 189.719C76.7359 189.896 76.9686 190.016 77.2207 190.065C77.4727 190.113 77.7334 190.088 77.9715 189.992Z" fill="#263238"/>
<path d="M96.3235 187.039C95.5195 186.997 94.7183 186.911 93.9235 186.783C93.0654 186.809 92.2224 186.554 91.5235 186.055C91.3315 185.854 91.2116 185.595 91.1826 185.319C91.1537 185.042 91.2173 184.764 91.3635 184.527C92.0435 183.551 93.2195 183.399 94.3475 183.479C95.4672 183.542 96.5256 184.011 97.3235 184.799C97.4963 184.993 97.6096 185.232 97.6496 185.488C97.6896 185.744 97.6547 186.006 97.549 186.243C97.4433 186.48 97.2713 186.681 97.0539 186.822C96.8365 186.964 96.5828 187.039 96.3235 187.039Z" fill="#263238"/>
<path d="M83.6756 210.994C84.1796 211.354 84.7076 211.874 85.3716 211.834C86.0533 211.705 86.6997 211.432 87.2676 211.034C87.2799 211.026 87.2943 211.023 87.3086 211.025C87.3229 211.026 87.3361 211.033 87.3463 211.043C87.3565 211.053 87.3629 211.066 87.3646 211.081C87.3663 211.095 87.3631 211.109 87.3556 211.122C87.1494 211.518 86.8399 211.852 86.4596 212.087C86.0794 212.322 85.6427 212.45 85.1956 212.458C84.8092 212.418 84.4432 212.265 84.144 212.017C83.8449 211.769 83.6262 211.438 83.5156 211.066C83.5181 211.048 83.525 211.032 83.5355 211.018C83.546 211.004 83.5599 210.993 83.5759 210.986C83.5918 210.979 83.6093 210.976 83.6268 210.977C83.6442 210.978 83.661 210.984 83.6756 210.994Z" fill="#263238"/>
<path d="M84.7703 205.248C85.3422 205.899 86.0425 206.425 86.8272 206.792C87.6119 207.16 88.4641 207.361 89.3303 207.384C90.0873 207.412 90.8443 207.331 91.5783 207.144C91.7202 207.12 91.8595 207.083 91.9943 207.032L92.3863 206.912C92.4802 206.878 92.5605 206.814 92.6153 206.73C92.6701 206.647 92.6964 206.548 92.6903 206.448C92.6974 206.387 92.6974 206.325 92.6903 206.264V206.104C92.5143 204.688 92.0583 202.576 92.0583 202.576C92.6103 202.76 95.4023 203.536 95.2583 202.808C93.9783 196.8 92.5543 190.112 90.0103 184.408C89.9976 184.365 89.9681 184.328 89.9283 184.306C89.8886 184.284 89.8418 184.279 89.7983 184.292C89.7548 184.305 89.7182 184.334 89.6964 184.374C89.6747 184.414 89.6696 184.461 89.6823 184.504C90.6823 190.328 92.7063 195.944 93.8023 201.784C92.8077 201.489 91.7758 201.338 90.7383 201.336C90.5543 201.424 91.6983 205.4 91.7303 206.04V206.112C89.4183 206.768 87.5303 206.328 85.0023 205.088C84.7623 204.976 84.6343 205.12 84.7703 205.248Z" fill="#263238"/>
<path d="M90.6416 206.559C90.0206 207.677 89.1225 208.617 88.0336 209.287C87.4304 209.634 86.7343 209.785 86.0416 209.719C84.5296 209.559 84.2896 208.223 84.3856 207.039C84.4405 206.412 84.5722 205.794 84.7776 205.199C86.5372 206.266 88.5919 206.743 90.6416 206.559Z" fill="#263238"/>
<path d="M88.0336 209.288C87.4304 209.634 86.7343 209.785 86.0416 209.72C84.5296 209.56 84.2896 208.224 84.3856 207.04C85.9696 206.968 87.6736 207.792 88.0336 209.288Z" fill="#FF99BA"/>
<path d="M61.0569 200.647C67.7849 199.343 66.7689 186.871 66.7689 186.871C66.7689 186.871 77.9689 182.783 77.9689 173.767C77.9689 173.767 90.2729 178.679 98.3049 173.919C106.337 169.159 102.665 159.735 101.313 157.831C99.9609 155.927 95.9209 160.711 95.9209 160.711C95.9209 160.711 94.3209 155.295 92.7209 155.015C91.1209 154.735 90.1769 158.375 90.1769 158.375C90.1769 158.375 78.3529 156.775 68.3289 158.959C58.3049 161.143 55.2329 172.279 55.2329 172.279C55.2329 172.279 50.0649 174.447 49.0329 178.559C48.0009 182.671 56.7689 201.471 61.0569 200.647Z" fill="#263238"/>
<path d="M64.0654 187.479C73.2254 186.967 78.0334 179.895 77.6654 171.087C77.6613 171.074 77.6603 171.06 77.6626 171.046C77.6649 171.033 77.6703 171.02 77.6785 171.009C77.6867 170.997 77.6974 170.988 77.7097 170.982C77.722 170.976 77.7356 170.973 77.7494 170.973C77.7632 170.973 77.7768 170.976 77.7891 170.982C77.8014 170.988 77.8121 170.997 77.8203 171.009C77.8285 171.02 77.8339 171.033 77.8362 171.046C77.8385 171.06 77.8375 171.074 77.8334 171.087C79.0894 179.087 73.3294 189.415 64.0174 187.887C63.8254 187.847 63.8254 187.487 64.0654 187.479Z" fill="#263238"/>
<path d="M55.4894 172.072C55.5854 172.024 55.6654 172.176 55.5774 172.232C53.2974 173.872 50.6013 175.288 49.2733 177.896C47.6733 181.056 48.8174 184.584 50.2014 187.56C52.3534 192.184 56.0494 198.008 60.9294 200.032C61.2094 200.152 61.0174 200.56 60.7374 200.464C54.9534 198.384 50.3374 190.784 48.5694 185.208C46.5534 178.968 49.8414 174.568 55.4894 172.072Z" fill="#263238"/>
<path d="M88.2575 174.398C92.6495 175.998 98.5135 175.014 101.857 171.582C105.929 167.406 103.905 162.174 101.009 158.046C100.865 157.838 101.145 157.542 101.337 157.726C104.873 161.174 106.249 167.166 103.049 171.326C99.7454 175.614 92.8254 176.806 87.9854 175.022C87.5854 174.862 87.8575 174.246 88.2575 174.398Z" fill="#263238"/>
<path d="M65.906 198.96C65.906 198.96 59.698 190.344 55.778 192.56C51.858 194.776 56.578 207.336 61.274 209C61.8569 209.254 62.4853 209.387 63.1212 209.392C63.7571 209.397 64.3874 209.273 64.9741 209.028C65.5609 208.783 66.092 208.422 66.5353 207.966C66.9787 207.51 67.3252 206.969 67.554 206.376L65.906 198.96Z" fill="#EB9481"/>
<path d="M57.2253 196.133C57.2131 196.137 57.2025 196.146 57.1951 196.156C57.1876 196.167 57.1836 196.18 57.1836 196.193C57.1836 196.206 57.1876 196.219 57.1951 196.229C57.2025 196.24 57.2131 196.248 57.2253 196.253C60.4973 197.525 62.2493 200.517 63.4973 203.629C62.5133 202.437 61.1853 201.797 59.5933 202.965C59.5053 203.029 59.5933 203.165 59.6813 203.141C60.2494 202.953 60.8618 202.945 61.4346 203.118C62.0074 203.291 62.5127 203.637 62.8813 204.109C63.5074 204.901 64.044 205.759 64.4813 206.669C64.6413 206.957 65.1613 206.797 65.0493 206.461V206.389C65.0013 202.245 61.6813 196.485 57.2253 196.133Z" fill="#263238"/>
<path d="M59.1202 192.872C59.1202 192.872 55.7682 179.496 58.3762 171.272C61.2882 162.152 73.3122 154.048 90.2162 158.344C90.2162 158.344 70.8322 158.88 63.8162 170.904C60.6162 176.432 63.6882 192.384 63.6882 192.384L59.1202 192.872Z" fill="#C7C7C7"/>
<path d="M73.0475 197.426C74.3675 204.314 70.5355 210.834 64.4955 211.994C58.4555 213.154 52.4955 208.506 51.1595 201.594C49.8235 194.682 53.6715 188.178 59.7195 187.026C65.7675 185.874 71.7275 190.538 73.0475 197.426Z" fill="#C7C7C7"/>
<path d="M69.8049 197.639C70.9889 203.831 67.5489 209.695 62.1169 210.735C56.6849 211.775 51.3169 207.599 50.1169 201.407C48.9169 195.215 52.3729 189.351 57.8049 188.311C63.2369 187.271 68.6049 191.447 69.8049 197.639Z" fill="#455A64"/>
<path d="M209.588 346.66H102.812V351.452H209.588V346.66Z" fill="#455A64"/>
<path d="M209.596 346.66H155.852V351.452H209.596V346.66Z" fill="#37474F"/>
<path d="M159.109 351.442H263.173L276.781 280.762H172.717L159.109 351.442Z" fill="#37474F"/>
<path d="M163.34 351.442H267.404L281.012 280.762H176.948L163.34 351.442Z" fill="#455A64"/>
<path d="M215.843 316.099C215.754 316.905 215.838 317.721 216.089 318.492C216.34 319.263 216.753 319.972 217.299 320.572C217.846 321.171 218.514 321.647 219.258 321.968C220.003 322.29 220.808 322.448 221.619 322.435C223.344 322.406 224.998 321.745 226.268 320.577C227.538 319.409 228.335 317.815 228.507 316.099C228.596 315.293 228.512 314.477 228.261 313.706C228.009 312.935 227.597 312.227 227.05 311.628C226.504 311.029 225.836 310.554 225.091 310.234C224.346 309.913 223.541 309.755 222.731 309.771C221.008 309.801 219.355 310.461 218.086 311.627C216.817 312.793 216.019 314.384 215.843 316.099Z" fill="white"/>
<path d="M302.43 287.54C312.878 297.764 314.63 313.588 312.43 327.452C312.374 327.764 311.886 327.676 311.886 327.38C311.886 324.228 311.982 321.1 311.974 317.98C311.918 317.844 311.87 317.708 311.806 317.564C309.086 315.58 306.574 313.34 305.022 310.268C303.278 306.836 302.622 302.972 301.254 299.388C301.134 299.044 301.502 299.14 301.742 299.316C308.094 304.004 310.118 309.052 311.942 315.788C311.903 312.262 311.533 308.748 310.838 305.292C309.462 298.892 306.75 292.556 302.15 287.812C302.114 287.775 302.094 287.725 302.095 287.673C302.095 287.621 302.117 287.572 302.154 287.536C302.191 287.5 302.241 287.48 302.293 287.48C302.344 287.481 302.394 287.503 302.43 287.54Z" fill="#263238"/>
<path d="M300.462 288.733C298.67 288.789 297.542 291.661 296.142 292.501C295.995 292.621 295.825 292.709 295.641 292.759C295.458 292.809 295.267 292.82 295.08 292.79C294.892 292.761 294.713 292.692 294.554 292.588C294.395 292.485 294.26 292.348 294.158 292.189C292.766 290.253 294.67 287.861 296.462 286.525C295.182 287.053 294.118 287.981 292.742 288.237C292.565 288.295 292.378 288.314 292.193 288.293C292.009 288.272 291.831 288.212 291.671 288.117C291.512 288.021 291.375 287.892 291.27 287.739C291.165 287.586 291.094 287.412 291.062 287.229C290.454 284.589 293.766 283.413 296.038 283.357C294.934 282.597 291.774 280.509 293.454 279.485C295.134 278.461 298.862 281.437 300.07 282.421C301.846 283.861 303.966 286.013 304.07 288.269C304.15 290.901 301.846 289.285 300.462 288.733Z" fill="#374761"/>
<path opacity="0.1" d="M300.462 288.733C298.67 288.789 297.542 291.661 296.142 292.501C295.995 292.621 295.825 292.709 295.641 292.759C295.458 292.809 295.267 292.82 295.08 292.79C294.892 292.761 294.713 292.692 294.554 292.588C294.395 292.485 294.26 292.348 294.158 292.189C292.766 290.253 294.67 287.861 296.462 286.525C295.182 287.053 294.118 287.981 292.742 288.237C292.565 288.295 292.378 288.314 292.193 288.293C292.009 288.272 291.831 288.212 291.671 288.117C291.512 288.021 291.375 287.892 291.27 287.739C291.165 287.586 291.094 287.412 291.062 287.229C290.454 284.589 293.766 283.413 296.038 283.357C294.934 282.597 291.774 280.509 293.454 279.485C295.134 278.461 298.862 281.437 300.07 282.421C301.846 283.861 303.966 286.013 304.07 288.269C304.15 290.901 301.846 289.285 300.462 288.733Z" fill="black"/>
<path d="M301.001 289.173C298.705 288.125 294.289 289.629 293.913 288.765C293.153 286.989 296.681 285.781 298.585 285.565C296.833 285.093 293.473 284.333 293.577 282.645C293.705 280.581 298.729 282.357 301.273 284.301C304.473 286.765 304.473 289.101 303.929 289.613C303.185 290.237 301.369 289.349 301.001 289.173Z" fill="#374761"/>
<path d="M326.221 286.524C315.389 296.348 313.037 312.124 314.709 326.028C314.757 326.34 315.245 326.276 315.261 325.98C315.381 322.828 315.397 319.7 315.525 316.588L315.709 316.172C318.509 314.292 321.101 312.172 322.765 309.14C324.637 305.78 325.477 301.94 326.941 298.412C327.077 298.068 326.709 298.156 326.461 298.324C319.933 302.764 317.717 307.732 315.637 314.396C315.815 310.874 316.318 307.377 317.141 303.948C318.741 297.612 321.717 291.38 326.485 286.812C326.524 286.777 326.546 286.728 326.549 286.677C326.551 286.625 326.532 286.574 326.497 286.536C326.462 286.498 326.414 286.475 326.362 286.473C326.31 286.471 326.26 286.489 326.221 286.524Z" fill="#263238"/>
<path d="M328.143 287.787C329.935 287.915 330.951 290.835 332.319 291.723C332.461 291.849 332.628 291.942 332.809 291.999C332.99 292.055 333.18 292.072 333.368 292.05C333.557 292.027 333.738 291.965 333.9 291.867C334.062 291.77 334.202 291.639 334.311 291.483C335.775 289.603 333.959 287.139 332.223 285.739C333.479 286.315 334.511 287.275 335.879 287.595C336.053 287.659 336.239 287.685 336.425 287.67C336.61 287.656 336.79 287.603 336.953 287.513C337.116 287.424 337.257 287.301 337.369 287.152C337.48 287.003 337.559 286.833 337.599 286.651C338.303 284.035 335.039 282.731 332.799 282.595C333.935 281.867 337.167 279.907 335.527 278.819C333.887 277.731 330.055 280.563 328.807 281.499C326.975 282.867 324.807 284.939 324.615 287.195C324.375 289.819 326.735 288.291 328.143 287.787Z" fill="#374761"/>
<path opacity="0.1" d="M328.143 287.787C329.935 287.915 330.951 290.835 332.319 291.723C332.461 291.849 332.628 291.942 332.809 291.999C332.99 292.055 333.18 292.072 333.368 292.05C333.557 292.027 333.738 291.965 333.9 291.867C334.062 291.77 334.202 291.639 334.311 291.483C335.775 289.603 333.959 287.139 332.223 285.739C333.479 286.315 334.511 287.275 335.879 287.595C336.053 287.659 336.239 287.685 336.425 287.67C336.61 287.656 336.79 287.603 336.953 287.513C337.116 287.424 337.257 287.301 337.369 287.152C337.48 287.003 337.559 286.833 337.599 286.651C338.303 284.035 335.039 282.731 332.799 282.595C333.935 281.867 337.167 279.907 335.527 278.819C333.887 277.731 330.055 280.563 328.807 281.499C326.975 282.867 324.807 284.939 324.615 287.195C324.375 289.819 326.735 288.291 328.143 287.787Z" fill="black"/>
<path d="M327.605 288.211C329.941 287.259 334.293 288.923 334.701 288.067C335.501 286.331 332.053 284.987 330.157 284.675C331.925 284.267 335.309 283.643 335.277 281.947C335.229 279.875 330.133 281.459 327.517 283.315C324.221 285.651 324.149 288.019 324.661 288.515C325.365 289.195 327.213 288.371 327.605 288.211Z" fill="#374761"/>
<path d="M315.146 312.467C314.412 317.721 313.289 322.914 311.786 328.003C311.754 328.091 311.692 328.165 311.61 328.21C311.529 328.256 311.433 328.272 311.341 328.253C311.249 328.235 311.167 328.184 311.109 328.11C311.052 328.036 311.022 327.944 311.027 327.851C311.739 323.051 313.034 318.363 313.746 313.579C314.512 308.733 314.78 303.823 314.546 298.923C314.09 290.859 311.898 282.275 306.634 275.963C306.522 275.819 306.762 275.603 306.882 275.747C317.418 288.035 315.746 303.099 315.738 304.443C317.226 299.355 318.762 293.531 324.41 288.347C324.65 288.123 324.843 288.235 324.803 288.611C323.795 298.043 321.171 303.011 315.699 308.011C315.571 309.509 315.386 310.995 315.146 312.467Z" fill="#263238"/>
<path d="M306.596 277.381C304.7 276.541 302.084 278.981 300.196 279.117C299.983 279.161 299.765 279.161 299.552 279.118C299.34 279.075 299.139 278.989 298.961 278.865C298.783 278.742 298.632 278.583 298.517 278.4C298.402 278.216 298.325 278.011 298.292 277.797C297.828 275.085 301.012 273.565 303.54 273.077C301.94 272.981 300.38 273.405 298.812 272.989C298.599 272.96 298.395 272.885 298.214 272.77C298.033 272.655 297.878 272.503 297.761 272.323C297.643 272.143 297.566 271.941 297.533 271.729C297.5 271.516 297.514 271.3 297.572 271.093C298.276 268.045 302.3 268.493 304.692 269.581C303.932 268.229 301.7 264.485 303.956 264.261C306.212 264.037 308.588 269.005 309.348 270.661C310.468 273.061 311.58 276.349 310.524 278.733C309.3 281.493 307.732 278.653 306.596 277.381Z" fill="#374761"/>
<path opacity="0.1" d="M306.596 277.381C304.7 276.541 302.084 278.981 300.196 279.117C299.983 279.161 299.765 279.161 299.552 279.118C299.34 279.075 299.139 278.989 298.961 278.865C298.783 278.742 298.632 278.583 298.517 278.4C298.402 278.216 298.325 278.011 298.292 277.797C297.828 275.085 301.012 273.565 303.54 273.077C301.94 272.981 300.38 273.405 298.812 272.989C298.599 272.96 298.395 272.885 298.214 272.77C298.033 272.655 297.878 272.503 297.761 272.323C297.643 272.143 297.566 271.941 297.533 271.729C297.5 271.516 297.514 271.3 297.572 271.093C298.276 268.045 302.3 268.493 304.692 269.581C303.932 268.229 301.7 264.485 303.956 264.261C306.212 264.037 308.588 269.005 309.348 270.661C310.468 273.061 311.58 276.349 310.524 278.733C309.3 281.493 307.732 278.653 306.596 277.381Z" fill="black"/>
<path d="M306.895 278.099C305.039 275.859 299.695 275.195 299.743 274.099C299.847 271.883 304.119 272.395 306.215 273.107C304.615 271.731 301.527 269.259 302.487 267.555C303.655 265.475 307.983 269.851 309.639 273.155C311.727 277.315 310.511 279.771 309.719 279.995C308.639 280.315 307.199 278.475 306.895 278.099Z" fill="#374761"/>
<path d="M322.077 315.31L326.725 350.822H298.445C299.029 347.67 304.293 315.27 304.293 315.27L322.077 315.31Z" fill="#374761"/>
</svg>
