<svg width="41" height="40" viewBox="0 0 41 40" fill="none" xmlns="http://www.w3.org/2000/svg">
<path d="M0.502331 34.2842V38.571C0.502331 38.95 0.652815 39.3135 0.92068 39.5815C1.18855 39.8495 1.55185 40 1.93067 40H20.4991C20.8779 40 21.2412 39.8495 21.5091 39.5815C21.7769 39.3135 21.9274 38.95 21.9274 38.571V34.2842C21.9274 33.5262 21.6264 32.7993 21.0907 32.2633C20.555 31.7273 19.8284 31.4262 19.0707 31.4262H3.35901C2.60137 31.4262 1.87476 31.7273 1.33903 32.2633C0.803302 32.7993 0.502331 33.5262 0.502331 34.2842ZM1.46503 20.3804L15.7741 24.1471L14.8557 27.5166C14.7731 27.8186 14.5936 28.0851 14.3448 28.2751C14.096 28.4651 13.7918 28.5682 13.4788 28.5683C13.3554 28.568 13.2325 28.5522 13.1131 28.5212L1.56644 25.4818C1.38392 25.4337 1.21272 25.3499 1.06276 25.2353C0.91279 25.1206 0.78702 24.9774 0.692721 24.8138C0.598422 24.6502 0.537463 24.4696 0.513364 24.2823C0.489266 24.095 0.502506 23.9048 0.552322 23.7227L1.46503 20.3804ZM20.1306 8.17705L5.82146 4.41889L6.73988 1.04797C6.84017 0.68528 7.07942 0.376809 7.40568 0.189531C7.73193 0.00225288 8.11886 -0.048714 8.48246 0.0476965L20.0291 3.07566C20.2117 3.12373 20.3829 3.2075 20.5328 3.32215C20.6828 3.4368 20.8086 3.58005 20.9029 3.74362C20.9972 3.90719 21.0581 4.08783 21.0822 4.27511C21.1063 4.46239 21.0931 4.65259 21.0433 4.83471L20.1306 8.17705ZM5.07301 7.16678L19.3792 10.9335L19.0165 12.2639L32.9256 15.9249L30.7988 23.7227L16.8854 20.0603L16.5226 21.3906L2.21634 17.6239L5.07301 7.16678ZM35.6937 16.6522L39.4317 17.6368C39.6141 17.6848 39.7851 17.7686 39.935 17.8831C40.0848 17.9977 40.2105 18.1408 40.3048 18.3042C40.3991 18.4676 40.4601 18.6481 40.4843 18.8352C40.5085 19.0223 40.4954 19.2124 40.4458 19.3944L39.0675 24.4343C38.9851 24.7366 38.8057 25.0034 38.5569 25.1937C38.3081 25.384 38.0037 25.4872 37.6905 25.4875C37.5672 25.4872 37.4443 25.4713 37.3249 25.4403L33.5641 24.4501L35.6937 16.6522Z" fill="white"/>
</svg>
