<svg width="24" height="20" viewBox="0 0 24 20" fill="none" xmlns="http://www.w3.org/2000/svg">
<path d="M21.5714 19.9117H1.72752C0.773423 19.9117 0 19.1382 0 18.1842V1.72751C0 0.773417 0.773423 0 1.72752 0H21.5714C22.5255 0 23.2989 0.773417 23.2989 1.72751V18.1842C23.2989 19.1382 22.5255 19.9117 21.5714 19.9117Z" fill="url(#paint0_linear_965_30476)"/>
<path d="M19.9533 18.2902H3.34478C2.54627 18.2902 1.89893 17.6429 1.89893 16.8444V3.07084C1.89893 2.27234 2.54627 1.625 3.34478 1.625H19.9533C20.7518 1.625 21.3991 2.27234 21.3991 3.07084V16.8444C21.3991 17.6429 20.7518 18.2902 19.9533 18.2902Z" fill="url(#paint1_linear_965_30476)"/>
<path d="M12.8055 18.2892H3.34524C2.54658 18.2892 1.89893 17.6421 1.89893 16.8435V14.5856L4.29918 11.6681C5.09131 10.7044 6.56577 10.7044 7.35846 11.6681L8.85295 13.485L12.8055 18.2892Z" fill="url(#paint2_linear_965_30476)"/>
<path d="M21.4001 13.2121V16.8428C21.4001 17.6414 20.7524 18.2885 19.9537 18.2885H4.90088L8.85349 13.4843L13.7092 7.58171C14.5013 6.6186 15.9763 6.6186 16.7684 7.58171L21.4001 13.2121Z" fill="url(#paint3_linear_965_30476)"/>
<path d="M6.95126 7.16713C8.08365 7.16713 9.00164 6.24916 9.00164 5.11677C9.00164 3.98439 8.08365 3.06641 6.95126 3.06641C5.81886 3.06641 4.90088 3.98439 4.90088 5.11677C4.90088 6.24916 5.81886 7.16713 6.95126 7.16713Z" fill="url(#paint4_linear_965_30476)"/>
<defs>
<linearGradient id="paint0_linear_965_30476" x1="4.45492" y1="2.76133" x2="21.0422" y2="19.3487" gradientUnits="userSpaceOnUse">
<stop stop-color="#F8F6FB"/>
<stop offset="1" stop-color="#EFDCFB"/>
</linearGradient>
<linearGradient id="paint1_linear_965_30476" x1="5.70369" y1="2.22279" x2="21.8819" y2="23.2708" gradientUnits="userSpaceOnUse">
<stop stop-color="#4395D1"/>
<stop offset="0.297" stop-color="#4395D1"/>
<stop offset="0.735" stop-color="#42A0F7"/>
<stop offset="1" stop-color="#034EA2"/>
</linearGradient>
<linearGradient id="paint2_linear_965_30476" x1="3.80844" y1="13.2016" x2="10.8961" y2="22.4227" gradientUnits="userSpaceOnUse">
<stop stop-color="#CDEC7A"/>
<stop offset="0.215" stop-color="#B0E995" stop-opacity="0.784"/>
<stop offset="0.56" stop-color="#87E4BB" stop-opacity="0.439"/>
<stop offset="0.833" stop-color="#6EE1D2" stop-opacity="0.165"/>
<stop offset="0.999" stop-color="#65E0DB" stop-opacity="0"/>
</linearGradient>
<linearGradient id="paint3_linear_965_30476" x1="10.0915" y1="11.7706" x2="18.6397" y2="22.8919" gradientUnits="userSpaceOnUse">
<stop stop-color="#CDEC7A"/>
<stop offset="0.216" stop-color="#B0E995"/>
<stop offset="0.561" stop-color="#87E4BB"/>
<stop offset="0.835" stop-color="#6EE1D2"/>
<stop offset="1" stop-color="#65E0DB"/>
</linearGradient>
<linearGradient id="paint4_linear_965_30476" x1="5.93252" y1="3.79144" x2="8.7046" y2="7.39799" gradientUnits="userSpaceOnUse">
<stop stop-color="#FFD945"/>
<stop offset="0.304" stop-color="#FFCD3E"/>
<stop offset="0.856" stop-color="#FFAD2B"/>
<stop offset="1" stop-color="#FFA325"/>
</linearGradient>
</defs>
</svg>
