<svg width="12" height="13" viewBox="0 0 12 13" fill="none" xmlns="http://www.w3.org/2000/svg">
    <path d="M10.75 5.95v-3.4c0-.75-.32-1.05-1.115-1.05h-2.02C6.82 1.5 6.5 1.8 6.5 2.55v3.4C6.5 6.7 6.82 7 7.615 7h2.02c.795 0 1.115-.3 1.115-1.05zM5.5 7.05v3.4c0 .75-.32 1.05-1.115 1.05h-2.02c-.795 0-1.115-.3-1.115-1.05v-3.4C1.25 6.3 1.57 6 2.365 6h2.02C5.18 6 5.5 6.3 5.5 7.05z" fill="#374761"/>
    <path opacity=".4" d="M10.75 10.45v-1.4c0-.75-.32-1.05-1.115-1.05h-2.02C6.82 8 6.5 8.3 6.5 9.05v1.4c0 .75.32 1.05 1.115 1.05h2.02c.795 0 1.115-.3 1.115-1.05zM5.5 3.95v-1.4c0-.75-.32-1.05-1.115-1.05h-2.02c-.795 0-1.115.3-1.115 1.05v1.4C1.25 4.7 1.57 5 2.365 5h2.02C5.18 5 5.5 4.7 5.5 3.95z" fill="#001F56"/>
</svg>
