<svg width="16" height="16" viewBox="0 0 16 16" fill="none" xmlns="http://www.w3.org/2000/svg">
<path d="M14.8881 6.97362L1.69531 0.537489C1.56853 0.475707 1.42811 0.447201 1.28728 0.454652C1.14644 0.462104 1.00982 0.505268 0.890265 0.580083C0.770711 0.654898 0.67216 0.758902 0.603887 0.882308C0.535613 1.00571 0.499863 1.14446 0.5 1.2855V1.30936C0.500068 1.42085 0.513808 1.53192 0.540912 1.64007L1.80646 6.70224C1.82342 6.76967 1.8606 6.83031 1.913 6.87601C1.96541 6.92172 2.03054 6.9503 2.09966 6.95794L7.66164 7.57639C7.75418 7.58752 7.83944 7.63217 7.90128 7.70191C7.96313 7.77164 7.99728 7.86162 7.99728 7.95483C7.99728 8.04804 7.96313 8.13801 7.90128 8.20775C7.83944 8.27748 7.75418 8.32213 7.66164 8.33326L2.09966 8.95171C2.03054 8.95935 1.96541 8.98794 1.913 9.03364C1.8606 9.07934 1.82342 9.13998 1.80646 9.20741L0.540912 14.2689C0.513808 14.3771 0.500068 14.4881 0.5 14.5996V14.6235C0.499979 14.7645 0.535813 14.9031 0.604135 15.0264C0.672456 15.1497 0.771019 15.2537 0.890554 15.3284C1.01009 15.4031 1.14667 15.4462 1.28745 15.4536C1.42823 15.4611 1.56858 15.4326 1.69531 15.3708L14.8874 8.93467C15.0711 8.84504 15.2259 8.7056 15.3343 8.53223C15.4426 8.35887 15.5 8.15856 15.5 7.95414C15.5 7.74973 15.4426 7.54942 15.3343 7.37606C15.2259 7.20269 15.0718 7.06325 14.8881 6.97362Z" fill="white"/>
</svg>
