<svg width="41" height="40" viewBox="0 0 41 40" fill="none" xmlns="http://www.w3.org/2000/svg">
<path d="M16.0237 36.8444C16.1166 36.861 15.9324 36.8444 16.0237 36.8444ZM19.0295 3.12689C26.5516 3.12689 32.9443 8.49614 34.2299 15.8937C34.3776 16.7439 35.1867 17.3136 36.0368 17.1655C36.887 17.0178 37.4563 16.2088 37.3086 15.3587C35.9333 6.69124 27.8223 -0.138258 19.0294 0.00212592C-3.72158 0.772243 -6.37933 32.3011 16.0237 36.8444C17.9123 36.8 18.1636 34.1264 16.2966 33.7437C-2.06237 30.0072 0.298685 3.58444 19.0295 3.12689ZM40.4737 29.4537C40.4737 35.2689 35.7427 40 29.9274 40C15.9555 39.4698 15.9593 19.4354 29.9276 18.9073C35.7427 18.9073 40.4737 23.6383 40.4737 29.4537ZM37.3489 29.4537C37.3489 25.3615 34.0196 22.0322 29.9274 22.0322C20.0953 22.4053 20.098 36.5035 29.9275 36.8752C34.0196 36.8752 37.3489 33.5458 37.3489 29.4537ZM34.4584 29.4537C34.4584 30.3166 33.7589 31.0161 32.896 31.0161H31.4898V32.4223C31.4898 33.2852 30.7903 33.9847 29.9274 33.9847C29.0645 33.9847 28.365 33.2852 28.365 32.4223V31.0161H26.9588C26.0959 31.0161 25.3964 30.3166 25.3964 29.4537C25.3964 28.5907 26.0959 27.8912 26.9588 27.8912H28.365V26.4851C28.365 25.6221 29.0645 24.9226 29.9274 24.9226C30.7903 24.9226 31.4898 25.6221 31.4898 26.4851V27.8912H32.896C33.7589 27.8912 34.4584 28.5907 34.4584 29.4537ZM20.5529 16.7703V8.51724C20.5529 7.65431 19.8534 6.95482 18.9905 6.95482C18.1275 6.95482 17.428 7.65431 17.428 8.51724V16.7703C16.9031 17.2337 16.588 17.9653 16.6554 18.7098L12.1913 23.1064C11.1936 24.0742 11.9154 25.797 13.2878 25.782C13.6981 25.7825 14.0921 25.621 14.3841 25.3327L18.9267 20.8587C21.1066 20.9222 22.1625 18.1966 20.5529 16.7703Z" fill="white"/>
</svg>
