<svg width="20" height="20" viewBox="0 0 20 20" fill="none" xmlns="http://www.w3.org/2000/svg">
<path d="M18.1914 9.99999C18.1914 4.94688 14.1488 0.904297 9.0957 0.904297C4.10826 0.904297 0 5.01235 0 9.99999C0 15.0531 4.04258 19.0957 9.0957 19.0957V17.0746C5.15438 17.0746 2.0215 13.9417 2.02129 10.0004C2.02108 6.10015 5.19586 2.92538 9.09612 2.92559C13.0372 2.92559 16.1701 6.05868 16.1701 9.99999H14.5743C14.5348 9.99997 14.496 10.011 14.4624 10.0317C14.4288 10.0525 14.4016 10.0822 14.3839 10.1176C14.3663 10.1529 14.3588 10.1925 14.3624 10.2319C14.366 10.2712 14.3804 10.3088 14.4042 10.3404L17.0105 13.8156C17.0303 13.8421 17.056 13.8635 17.0856 13.8783C17.1151 13.8931 17.1477 13.9008 17.1808 13.9008C17.2138 13.9008 17.2464 13.8931 17.2759 13.8783C17.3055 13.8635 17.3312 13.8421 17.351 13.8156L19.9573 10.3404C19.9811 10.3088 19.9955 10.2712 19.9991 10.2319C20.0027 10.1925 19.9952 10.1529 19.9776 10.1176C19.9599 10.0822 19.9327 10.0525 19.8991 10.0317C19.8655 10.011 19.8267 9.99997 19.7872 9.99999H18.1914Z" fill="#C7B300"/>
<path d="M8.08456 5.95732V8.98936H7.07402C6.806 8.98936 6.54897 9.09582 6.35946 9.28534C6.16994 9.47485 6.06348 9.73188 6.06348 9.9999C6.06348 10.2679 6.16994 10.5249 6.35946 10.7145C6.54897 10.904 6.806 11.0104 7.07402 11.0104H9.09509C9.36311 11.0104 9.62014 10.904 9.80965 10.7145C9.99917 10.5249 10.1056 10.2679 10.1056 9.9999V5.95732C10.1056 5.68931 9.99917 5.43227 9.80965 5.24276C9.62014 5.05324 9.36311 4.94678 9.09509 4.94678C8.82708 4.94678 8.57005 5.05324 8.38054 5.24276C8.19102 5.43227 8.08456 5.68931 8.08456 5.95732Z" fill="#C7B300"/>
</svg>
