<svg width="40" height="34" viewBox="0 0 40 34" fill="none" xmlns="http://www.w3.org/2000/svg">
<path d="M18.4193 0.394531L0.385001 8.70953C0.269835 8.76299 0.17238 8.84831 0.104156 8.95539C0.0359319 9.06247 -0.00021029 9.18685 9.20444e-07 9.31382V10.5502H13.2079L18.4193 0.394531ZM39.615 8.70953L21.5807 0.394531L26.795 10.5474H40V9.31382C40.0002 9.18685 39.9641 9.06247 39.8958 8.95539C39.8276 8.84831 39.7302 8.76299 39.615 8.70953ZM14.3571 13.171C14.3573 13.6805 14.5598 14.1691 14.9201 14.5294C15.2804 14.8897 15.769 15.0922 16.2786 15.0924H23.7214C24.231 15.0922 24.7196 14.8897 25.0799 14.5294C25.4402 14.1691 25.6427 13.6805 25.6429 13.171V11.976H14.3571V13.171ZM27.0714 13.171C27.072 13.6801 27.2746 14.1683 27.6347 14.5282C27.9948 14.8882 28.483 15.0906 28.9921 15.091H36.435C36.9437 15.0898 37.4311 14.8871 37.7906 14.5272C38.1501 14.1673 38.3523 13.6796 38.3529 13.171V11.976H27.0714V13.171ZM18.9993 16.521H21.0014V30.5338H18.9993V16.521ZM12.9286 13.171V11.976H1.64714V13.171C1.64733 13.6801 1.84953 14.1684 2.20937 14.5286C2.5692 14.8889 3.05726 15.0916 3.56643 15.0924H11.0093C11.5185 15.0916 12.0065 14.8889 12.3663 14.5286C12.7262 14.1684 12.9284 13.6801 12.9286 13.171ZM24.9857 31.9624H15.0143C14.7965 31.9626 14.5877 32.0492 14.4337 32.2032C14.2797 32.3572 14.193 32.566 14.1929 32.7838V33.6052H25.8071V32.7838C25.807 32.566 25.7203 32.3572 25.5663 32.2032C25.4123 32.0492 25.2035 31.9626 24.9857 31.9624ZM14.8136 10.5474H25.1864L20 0.443817L14.8136 10.5474Z" fill="white"/>
</svg>
