<svg width="40" height="40" viewBox="0 0 40 40" fill="none" xmlns="http://www.w3.org/2000/svg">
<path d="M20.0685 13.9557C20.6191 13.9557 21.0649 13.5096 21.0649 12.9593C21.0649 12.4091 20.6191 11.9629 20.0685 11.9629C15.6664 11.9629 12.0977 15.5316 12.0977 19.9341C12.0977 24.3363 15.6664 27.905 20.0685 27.905C24.471 27.905 28.0398 24.3363 28.0398 19.9341C28.0398 19.3836 27.5936 18.9377 27.0434 18.9377C26.4931 18.9377 26.047 19.3836 26.047 19.9341C26.047 23.2358 23.3706 25.9125 20.0685 25.9125C16.7669 25.9125 14.0902 23.2358 14.0902 19.9341C14.0902 16.6321 16.7669 13.9557 20.0685 13.9557Z" fill="white"/>
<path d="M39.0801 14.0152C38.9069 13.4924 38.343 13.209 37.8199 13.382C37.309 13.551 37.0246 14.0948 37.1769 14.6109C40.1566 24.0998 34.8801 34.2074 25.3913 37.1872C15.9028 40.1669 5.79506 34.8905 2.81537 25.4016C-0.164702 15.9128 5.11209 5.80508 14.6006 2.82532C18.113 1.72241 21.879 1.72241 25.3913 2.82532C25.9187 2.9843 26.475 2.68586 26.634 2.15852C26.7906 1.63907 26.5034 1.09008 25.9873 0.922271C15.4512 -2.38343 4.22983 3.47813 0.924204 14.0146C-2.3815 24.5508 3.4803 35.7721 14.0165 39.0777C24.553 42.3834 35.774 36.5219 39.0797 25.9854C40.3021 22.089 40.3022 17.9117 39.08 14.0152H39.0801Z" fill="white"/>
<path d="M21.966 7.11899C21.9712 6.55164 21.5354 6.07742 20.9696 6.035C20.6721 6.00969 20.3742 5.98438 20.0687 5.98438C12.3645 5.98438 6.11914 12.2298 6.11914 19.9339C6.11914 27.6378 12.3645 33.8833 20.0687 33.8833C27.7726 33.8833 34.018 27.6378 34.018 19.934C34.018 19.5735 33.9961 19.2135 33.9518 18.8558C33.8722 18.3089 33.3643 17.9302 32.8175 18.0099C32.2706 18.0892 31.8918 18.5974 31.9712 19.1442C31.9743 19.1649 31.9779 19.1853 31.9822 19.2061C32.0039 19.4475 32.0252 19.6867 32.0252 19.9334C32.0255 26.5371 26.6725 31.8901 20.069 31.8907C13.4653 31.8911 8.11219 26.5376 8.11196 19.9342C8.11164 13.3309 13.4644 7.97742 20.0681 7.97719H20.0684C20.3157 7.97719 20.5551 7.99852 20.796 8.01985L20.9827 8.03547C21.5034 8.05774 21.9434 7.65367 21.9654 7.13305C21.9657 7.12813 21.9657 7.1236 21.966 7.11899Z" fill="white"/>
<path d="M26.0475 8.97251V12.5456L19.3647 19.2283C18.9689 19.6107 18.958 20.2415 19.3403 20.6373C19.7227 21.0331 20.3536 21.0441 20.7493 20.6617C20.7576 20.6538 20.7658 20.6456 20.7737 20.6373L27.4566 13.9546H31.0295C31.2938 13.9546 31.547 13.8496 31.7342 13.6625L37.7123 7.68407C38.1014 7.29501 38.1014 6.66423 37.7123 6.27509C37.6198 6.18259 37.51 6.10922 37.3891 6.05916C37.2683 6.00911 37.1387 5.98335 37.0079 5.98337H34.0187V2.99414C34.0187 2.44391 33.5726 1.99773 33.022 1.99805C32.7579 1.99811 32.5047 2.10304 32.318 2.28977L26.3395 8.26821C26.2469 8.36064 26.1735 8.47043 26.1234 8.59128C26.0733 8.71213 26.0475 8.84168 26.0475 8.97251ZM28.0403 9.38517L32.0259 5.39954V6.97977C32.0259 7.53001 32.4721 7.97618 33.0223 7.97618H34.6025L30.6169 11.9617H28.0403V9.38517Z" fill="white"/>
</svg>
