<svg xmlns="http://www.w3.org/2000/svg" width="853" height="392.3" viewBox="0 0 853 392.3"><path d="M848.651,95.842c-6.644-3.663-118.807-89.975-125.8-93.706-2.751-1.47-6,.353-7.046,4.259-1.906,7.065-9.732,36.318-11.407,42.913-.614,2.419.367,4.923,2.263,5.78l26.792,12.08c.166,2.714.3,5.192.392,7.267a279.175,279.175,0,0,1-11.809,93.521c-16.27,53.531-45.286,97.864-86.135,133.19-53.554,46.323-115.3,69.569-183.981,72.375a286.187,286.187,0,0,1-57.246-3.9,327.709,327.709,0,0,1-92.373-29.5,348.017,348.017,0,0,1-120.7-96.6,325.571,325.571,0,0,1-58.99-113.582A297.9,297.9,0,0,1,111.627,69.1l34.691-15.643c1.9-.857,2.877-3.36,2.265-5.78-1.678-6.595-9.5-35.847-11.407-42.913-1.057-3.906-4.3-5.73-7.046-4.259C123.144,4.245,10.984,90.557,4.333,94.212c-3.12,1.723-4.6,4.243-4.294,7.78.461,5.478.428,4.52,1.04,9.981a13.906,13.906,0,0,0,.294,1.756c.562,2.461,2.785,3.831,4.705,2.965L47.915,97.825a325.65,325.65,0,0,0,16.1,53.758,350.9,350.9,0,0,0,63.5,103.384c35.136,40,76.512,70.7,123.1,93.563,52.49,25.758,107.739,39.746,165.32,43.165,16.046.95,32.192.6,48.271.2,18.285-.445,36.428-2.8,54.479-6a391.791,391.791,0,0,0,83.464-24.371C648.663,342,690.081,314.152,724.8,275.515a301.856,301.856,0,0,0,64.543-113.162,298.55,298.55,0,0,0,12.488-64.36l45.094,20.331c1.921.865,4.144-.5,4.7-2.966a15.561,15.561,0,0,0,.3-1.756c.6-5.461.578-4.511,1.036-9.981A7.568,7.568,0,0,0,848.651,95.842Z" fill="#FF9C00"/></svg>