<svg width="1920" height="708" viewBox="0 0 1920 708" fill="none" xmlns="http://www.w3.org/2000/svg">
<rect width="1920" height="708" fill="url(#paint0_linear_557_23320)" fill-opacity="0.7"/>
<path d="M1213.82 655.815C1213.82 658.279 1211.86 660.28 1209.46 660.28C1207.05 660.28 1205.1 658.279 1205.1 655.815C1205.1 653.351 1207.05 651.35 1209.46 651.35C1211.86 651.35 1213.82 653.346 1213.82 655.815Z" stroke="#437A9F" stroke-opacity="0.1" stroke-width="1.8" stroke-miterlimit="10" stroke-linecap="round" stroke-linejoin="round"/>
<path d="M1256.11 694.539C1258.52 694.539 1260.47 692.54 1260.47 690.074C1260.47 687.608 1258.52 685.609 1256.11 685.609C1253.7 685.609 1251.75 687.608 1251.75 690.074C1251.75 692.54 1253.7 694.539 1256.11 694.539Z" stroke="#437A9F" stroke-opacity="0.1" stroke-width="1.8" stroke-miterlimit="10" stroke-linecap="round" stroke-linejoin="round"/>
<path d="M1239.7 680.895C1244.83 680.895 1249 676.631 1249 671.372C1249 666.113 1244.83 661.85 1239.7 661.85C1234.57 661.85 1230.4 666.113 1230.4 671.372C1230.4 676.631 1234.57 680.895 1239.7 680.895Z" stroke="#437A9F" stroke-opacity="0.1" stroke-width="1.8" stroke-miterlimit="10" stroke-linecap="round" stroke-linejoin="round"/>
<path d="M1255.9 671.372L1252.8 676.923L1251.15 683.104L1245.12 684.782L1239.7 687.964L1234.27 684.782L1228.24 683.104L1226.6 676.923L1223.5 671.372L1226.6 665.815L1228.24 659.635L1234.27 657.956L1239.7 654.775L1245.12 657.956L1251.15 659.635L1252.8 665.815L1255.9 671.372Z" stroke="#437A9F" stroke-opacity="0.1" stroke-width="1.8" stroke-miterlimit="10" stroke-linecap="round" stroke-linejoin="round"/>
<path d="M1251.75 690.074C1251.75 687.61 1253.71 685.609 1256.11 685.609C1257.41 685.609 1258.58 686.196 1259.38 687.122C1262.69 682.776 1264.68 677.313 1264.68 671.367C1264.68 657.234 1253.49 645.778 1239.7 645.778C1225.9 645.778 1214.71 657.234 1214.71 671.367C1214.71 685.5 1225.9 696.956 1239.7 696.956C1244.55 696.956 1249.07 695.537 1252.9 693.089C1252.19 692.294 1251.75 691.238 1251.75 690.074Z" stroke="#437A9F" stroke-opacity="0.1" stroke-width="1.8" stroke-miterlimit="10" stroke-linecap="round" stroke-linejoin="round"/>
<path d="M1239.7 636.744C1228.04 636.744 1217.76 642.789 1211.69 651.984C1212.96 652.764 1213.82 654.188 1213.82 655.82C1213.82 658.284 1211.86 660.285 1209.46 660.285C1208.87 660.285 1208.3 660.16 1207.79 659.942C1206.57 663.523 1205.9 667.365 1205.9 671.372C1205.9 690.495 1221.04 706 1239.71 706C1258.38 706 1273.51 690.495 1273.51 671.372C1273.51 652.249 1258.37 636.744 1239.7 636.744Z" stroke="#437A9F" stroke-opacity="0.1" stroke-width="1.8" stroke-miterlimit="10" stroke-linecap="round" stroke-linejoin="round"/>
<path d="M227.557 214.551L206.582 207.254C204.365 206.485 203.182 204.018 203.933 201.748C204.684 199.477 207.092 198.265 209.303 199.034L230.278 206.331C232.495 207.1 233.678 209.567 232.927 211.831C232.176 214.108 229.774 215.326 227.557 214.551Z" stroke="#437A9F" stroke-opacity="0.1" stroke-width="2.7" stroke-miterlimit="10"/>
<path d="M224.8 222.868L203.824 215.572C201.608 214.803 200.425 212.336 201.175 210.072C201.926 207.801 204.335 206.589 206.551 207.358L227.527 214.649C229.743 215.418 230.927 217.885 230.176 220.155C229.419 222.426 227.016 223.638 224.8 222.868Z" stroke="#437A9F" stroke-opacity="0.1" stroke-width="2.7" stroke-miterlimit="10"/>
<path d="M206.155 176.597C206.179 176.67 206.197 176.738 206.221 176.812C206.689 178.344 209.453 188.052 208.299 198.825L230.8 206.43C236.134 197.072 243.997 190.962 245.264 190.015C245.325 189.972 245.385 189.929 245.439 189.886C246.051 189.437 246.646 188.957 247.223 188.446C250.61 185.45 253.277 181.506 254.779 176.843C259.206 163.111 251.926 148.302 238.519 143.768C225.112 139.233 210.654 146.69 206.227 160.422C204.719 165.092 204.569 169.884 205.554 174.357C205.722 175.108 205.921 175.858 206.155 176.597Z" stroke="#437A9F" stroke-opacity="0.1" stroke-width="2.7" stroke-miterlimit="10"/>
<path d="M204.972 216.076C204.72 220.629 207.459 224.967 211.892 226.468C216.265 227.944 220.92 226.191 223.395 222.481L204.972 216.076Z" stroke="#437A9F" stroke-opacity="0.1" stroke-width="2.7" stroke-miterlimit="10"/>
<path d="M215.345 201.083L222.031 180.331C222.692 178.289 221.604 176.086 219.61 175.409C217.616 174.733 215.465 175.846 214.805 177.889C214.144 179.931 215.231 182.134 217.225 182.811L225.25 185.524" stroke="#437A9F" stroke-opacity="0.1" stroke-width="2.7" stroke-miterlimit="10"/>
<path d="M224.163 204.067L230.849 183.315C231.509 181.272 233.66 180.165 235.654 180.835C237.648 181.512 238.729 183.715 238.075 185.757C237.414 187.8 235.263 188.907 233.269 188.237L225.244 185.524" stroke="#437A9F" stroke-opacity="0.1" stroke-width="2.7" stroke-miterlimit="10"/>
<path d="M259.531 183.992L266.307 186.287" stroke="#437A9F" stroke-opacity="0.1" stroke-width="2.7" stroke-miterlimit="10" stroke-linecap="round"/>
<path d="M262.636 175.249L269.694 174.16" stroke="#437A9F" stroke-opacity="0.1" stroke-width="2.7" stroke-miterlimit="10" stroke-linecap="round"/>
<path d="M254.792 191.492L259.825 196.672" stroke="#437A9F" stroke-opacity="0.1" stroke-width="2.7" stroke-miterlimit="10" stroke-linecap="round"/>
<path d="M196.598 162.717L189.823 160.428" stroke="#437A9F" stroke-opacity="0.1" stroke-width="2.7" stroke-miterlimit="10" stroke-linecap="round"/>
<path d="M199.187 153.796L194.154 148.616" stroke="#437A9F" stroke-opacity="0.1" stroke-width="2.7" stroke-miterlimit="10" stroke-linecap="round"/>
<path d="M196.052 171.632L189 172.721" stroke="#437A9F" stroke-opacity="0.1" stroke-width="2.7" stroke-miterlimit="10" stroke-linecap="round"/>
<path d="M109.394 393.403L47.1096 374.346C42.5796 372.962 40.0084 368.079 41.36 363.439L53.7989 320.772C55.1505 316.132 59.918 313.499 64.4479 314.883L126.732 333.94C131.262 335.324 133.833 340.207 132.482 344.847L120.043 387.514C118.686 392.148 113.918 394.787 109.394 393.403Z" stroke="#437A9F" stroke-opacity="0.1" stroke-width="3.6" stroke-miterlimit="10" stroke-linecap="round"/>
<path d="M42.8281 358.393L121.511 382.468" stroke="#437A9F" stroke-opacity="0.1" stroke-width="3.6" stroke-miterlimit="10" stroke-linecap="round"/>
<path d="M82.3617 377.423C82.0238 378.58 80.8306 379.24 79.7008 378.894C78.5709 378.548 77.9268 377.325 78.2647 376.168C78.6026 375.011 79.7958 374.351 80.9256 374.697C82.0555 375.043 82.6996 376.266 82.3617 377.423Z" fill="#E2EAF0"/>
<path d="M87.0791 386.582L69.4385 381.185L67.0616 389.336L84.7022 394.732L87.0791 386.582Z" stroke="#437A9F" stroke-opacity="0.1" stroke-width="3.6" stroke-miterlimit="10" stroke-linecap="round"/>
<path d="M60.5195 387.8L90.9726 397.118" stroke="#437A9F" stroke-opacity="0.1" stroke-width="3.6" stroke-miterlimit="10" stroke-linecap="round"/>
<path d="M1408.35 226.072C1427.88 226.072 1443.7 218.388 1443.7 208.909C1443.7 199.429 1427.88 191.745 1408.35 191.745C1388.83 191.745 1373 199.429 1373 208.909C1373 218.388 1388.83 226.072 1408.35 226.072Z" stroke="#437A9F" stroke-opacity="0.1" stroke-width="2.7" stroke-miterlimit="10" stroke-linecap="round" stroke-linejoin="round"/>
<path d="M1422.65 217.855C1432.8 200.775 1434.62 182.933 1426.72 178.004C1418.81 173.075 1404.18 182.925 1394.02 200.005C1383.87 217.085 1382.05 234.927 1389.95 239.856C1397.86 244.786 1412.5 234.935 1422.65 217.855Z" stroke="#437A9F" stroke-opacity="0.1" stroke-width="2.7" stroke-miterlimit="10" stroke-linecap="round" stroke-linejoin="round"/>
<path d="M1426.71 239.849C1434.62 234.92 1432.79 217.078 1422.64 199.997C1412.49 182.917 1397.85 173.067 1389.95 177.996C1382.04 182.925 1383.86 200.767 1394.02 217.848C1404.17 234.928 1418.81 244.778 1426.71 239.849Z" stroke="#437A9F" stroke-opacity="0.1" stroke-width="2.7" stroke-miterlimit="10" stroke-linecap="round" stroke-linejoin="round"/>
<path d="M1408.35 213.452C1410.8 213.452 1412.79 211.418 1412.79 208.908C1412.79 206.399 1410.8 204.365 1408.35 204.365C1405.9 204.365 1403.92 206.399 1403.92 208.908C1403.92 211.418 1405.9 213.452 1408.35 213.452Z" stroke="#437A9F" stroke-opacity="0.1" stroke-width="2.7" stroke-miterlimit="10" stroke-linecap="round" stroke-linejoin="round"/>
<path d="M463.461 232.552L434.27 239.454L432.958 233.626C432.656 232.275 433.473 230.931 434.791 230.616L459.209 224.839C460.528 224.53 461.841 225.366 462.149 226.717L463.461 232.552Z" stroke="#437A9F" stroke-opacity="0.1" stroke-width="2.7" stroke-miterlimit="10" stroke-linecap="round"/>
<path d="M453.866 201.211C466.733 190.585 468.753 171.287 458.379 158.108C448.005 144.93 429.164 142.86 416.297 153.486C403.431 164.112 401.41 183.41 411.784 196.588C422.159 209.767 440.999 211.837 453.866 201.211Z" stroke="#437A9F" stroke-opacity="0.1" stroke-width="2.7" stroke-miterlimit="10"/>
<path d="M449.01 204.467L421.1 150.239L417.614 143.659C399.42 153.481 392.449 176.549 402.039 195.184C411.629 213.82 434.15 220.96 452.345 211.137L448.934 204.512" stroke="#437A9F" stroke-opacity="0.1" stroke-width="2.7" stroke-miterlimit="10" stroke-linecap="round" stroke-linejoin="round"/>
<path d="M427.251 162.121C436.389 157.187 442.423 150.519 440.729 147.229C439.035 143.939 430.255 145.271 421.118 150.206C411.981 155.14 405.946 161.808 407.64 165.098C409.334 168.389 418.114 167.056 427.251 162.121Z" stroke="#437A9F" stroke-opacity="0.1" stroke-width="2.7" stroke-miterlimit="10"/>
<path d="M429.396 207.445C435.846 208.719 442.749 207.85 449.01 204.467C455.272 201.083 459.875 195.744 462.494 189.575C456.044 188.301 449.142 189.17 442.88 192.553C436.613 195.937 432.015 201.276 429.396 207.445Z" stroke="#437A9F" stroke-opacity="0.1" stroke-width="2.7" stroke-miterlimit="10"/>
<path d="M449.033 204.433C456.342 200.486 456.018 185.147 448.309 170.172C440.601 155.197 428.427 146.258 421.118 150.204C413.81 154.151 414.134 169.49 421.842 184.465C429.551 199.44 441.724 208.38 449.033 204.433Z" stroke="#437A9F" stroke-opacity="0.1" stroke-width="2.7" stroke-miterlimit="10"/>
<path d="M408.583 191.647L461.527 163.06" stroke="#437A9F" stroke-opacity="0.1" stroke-width="2.7" stroke-miterlimit="10"/>
<path d="M443.747 214.476L446.837 227.676" stroke="#437A9F" stroke-opacity="0.1" stroke-width="2.7" stroke-miterlimit="10"/>
<path d="M430.766 240.683L467.977 231.542" stroke="#437A9F" stroke-opacity="0.1" stroke-width="2.7" stroke-miterlimit="10" stroke-linecap="round"/>
<path d="M1092.26 232.391L1107.83 216.439L1064.68 172.238L1049.1 188.189L1092.26 232.391Z" stroke="#437A9F" stroke-opacity="0.1" stroke-width="2.7" stroke-miterlimit="10" stroke-linecap="round" stroke-linejoin="round"/>
<path d="M1112.04 236.707L1107.83 216.436L1092.25 232.389L1112.04 236.707Z" stroke="#437A9F" stroke-opacity="0.1" stroke-width="2.7" stroke-miterlimit="10" stroke-linecap="round" stroke-linejoin="round"/>
<path d="M1110.07 227.249L1102.8 234.692" stroke="#437A9F" stroke-opacity="0.1" stroke-width="2.7" stroke-miterlimit="10" stroke-linecap="round" stroke-linejoin="round"/>
<path d="M1044.51 176.028L1052.79 167.546C1054.81 165.482 1058.07 165.482 1060.09 167.546L1064.67 172.237L1049.09 188.189L1044.51 183.499C1042.5 181.434 1042.5 178.085 1044.51 176.028Z" stroke="#437A9F" stroke-opacity="0.1" stroke-width="2.7" stroke-miterlimit="10" stroke-linecap="round" stroke-linejoin="round"/>
<path d="M1068.88 176.541L1053.3 192.5" stroke="#437A9F" stroke-opacity="0.1" stroke-width="2.7" stroke-miterlimit="10" stroke-linecap="round" stroke-linejoin="round"/>
<path d="M1100.04 224.412L1061.09 184.524" stroke="#437A9F" stroke-opacity="0.1" stroke-width="2.7" stroke-miterlimit="10" stroke-linecap="round" stroke-linejoin="round"/>
<path d="M549.024 612.045L546.158 618.737" stroke="#437A9F" stroke-opacity="0.1" stroke-width="3.6" stroke-miterlimit="10" stroke-linecap="round" stroke-linejoin="round"/>
<path d="M569.83 621.393L566.964 628.085" stroke="#437A9F" stroke-opacity="0.1" stroke-width="3.6" stroke-miterlimit="10" stroke-linecap="round" stroke-linejoin="round"/>
<path d="M590.642 630.737L587.776 637.429" stroke="#437A9F" stroke-opacity="0.1" stroke-width="3.6" stroke-miterlimit="10" stroke-linecap="round" stroke-linejoin="round"/>
<path d="M535.099 605.79L533.665 609.141" stroke="#437A9F" stroke-opacity="0.1" stroke-width="3.6" stroke-miterlimit="10" stroke-linecap="round" stroke-linejoin="round"/>
<path d="M542.061 608.922L540.629 612.263" stroke="#437A9F" stroke-opacity="0.1" stroke-width="3.6" stroke-miterlimit="10" stroke-linecap="round" stroke-linejoin="round"/>
<path d="M555.946 615.152L554.512 618.504" stroke="#437A9F" stroke-opacity="0.1" stroke-width="3.6" stroke-miterlimit="10" stroke-linecap="round" stroke-linejoin="round"/>
<path d="M562.903 618.279L561.475 621.626" stroke="#437A9F" stroke-opacity="0.1" stroke-width="3.6" stroke-miterlimit="10" stroke-linecap="round" stroke-linejoin="round"/>
<path d="M576.793 624.515L575.359 627.866" stroke="#437A9F" stroke-opacity="0.1" stroke-width="3.6" stroke-miterlimit="10" stroke-linecap="round" stroke-linejoin="round"/>
<path d="M597.941 634.015L596.513 637.362" stroke="#437A9F" stroke-opacity="0.1" stroke-width="3.6" stroke-miterlimit="10" stroke-linecap="round" stroke-linejoin="round"/>
<path d="M583.751 627.642L582.323 630.988" stroke="#437A9F" stroke-opacity="0.1" stroke-width="3.6" stroke-miterlimit="10" stroke-linecap="round" stroke-linejoin="round"/>
<path d="M586.141 687.527L517.437 597.862L607.258 638.197L586.141 687.527Z" stroke="#437A9F" stroke-opacity="0.1" stroke-width="3.6" stroke-miterlimit="10" stroke-linecap="round" stroke-linejoin="round"/>
<path d="M582.64 659.227L563.845 634.698L588.413 645.727L582.64 659.227Z" stroke="#437A9F" stroke-opacity="0.1" stroke-width="3.6" stroke-miterlimit="10" stroke-linecap="round" stroke-linejoin="round"/>
<path d="M596.896 258.804L571 271.628L622.616 380.97L648.512 368.146L596.896 258.804Z" stroke="#437A9F" stroke-opacity="0.1" stroke-width="3.6" stroke-miterlimit="10" stroke-linecap="round" stroke-linejoin="round"/>
<path d="M603.076 271.925L590.134 278.331" stroke="#437A9F" stroke-opacity="0.1" stroke-width="3.6" stroke-miterlimit="10" stroke-linecap="round" stroke-linejoin="round"/>
<path d="M615.037 297.256L602.086 303.672" stroke="#437A9F" stroke-opacity="0.1" stroke-width="3.6" stroke-miterlimit="10" stroke-linecap="round" stroke-linejoin="round"/>
<path d="M626.998 322.588L614.047 329.004" stroke="#437A9F" stroke-opacity="0.1" stroke-width="3.6" stroke-miterlimit="10" stroke-linecap="round" stroke-linejoin="round"/>
<path d="M638.95 347.929L626.008 354.336" stroke="#437A9F" stroke-opacity="0.1" stroke-width="3.6" stroke-miterlimit="10" stroke-linecap="round" stroke-linejoin="round"/>
<path d="M607.036 280.313L600.565 283.512" stroke="#437A9F" stroke-opacity="0.1" stroke-width="3.6" stroke-miterlimit="10" stroke-linecap="round" stroke-linejoin="round"/>
<path d="M611.032 288.785L604.561 291.993" stroke="#437A9F" stroke-opacity="0.1" stroke-width="3.6" stroke-miterlimit="10" stroke-linecap="round" stroke-linejoin="round"/>
<path d="M619.015 305.691L612.544 308.89" stroke="#437A9F" stroke-opacity="0.1" stroke-width="3.6" stroke-miterlimit="10" stroke-linecap="round" stroke-linejoin="round"/>
<path d="M623.011 314.163L616.54 317.371" stroke="#437A9F" stroke-opacity="0.1" stroke-width="3.6" stroke-miterlimit="10" stroke-linecap="round" stroke-linejoin="round"/>
<path d="M630.993 331.069L624.522 334.268" stroke="#437A9F" stroke-opacity="0.1" stroke-width="3.6" stroke-miterlimit="10" stroke-linecap="round" stroke-linejoin="round"/>
<path d="M634.999 339.541L628.519 342.748" stroke="#437A9F" stroke-opacity="0.1" stroke-width="3.6" stroke-miterlimit="10" stroke-linecap="round" stroke-linejoin="round"/>
<path d="M214.201 582.937L186.094 596.461C184.591 597.189 182.8 596.525 182.089 594.986L180.289 591.059C179.578 589.519 180.226 587.685 181.729 586.957L209.836 573.433C211.339 572.705 213.13 573.369 213.841 574.908L215.641 578.835C216.352 580.384 215.704 582.218 214.201 582.937Z" stroke="#437A9F" stroke-opacity="0.1" stroke-width="3.6" stroke-miterlimit="10" stroke-linecap="round"/>
<path d="M225.118 613.653L211.366 584.32L189.118 595.262L202.87 624.595L211.546 673.673C214.399 679.766 221.536 682.329 227.476 679.407L251.497 667.589C257.446 664.667 259.948 657.357 257.095 651.273L225.118 613.653Z" stroke="#437A9F" stroke-opacity="0.1" stroke-width="3.6" stroke-miterlimit="10" stroke-linecap="round"/>
<path d="M206.776 646.728C206.776 646.728 211.366 639.113 223.57 639.547C235.774 639.98 237.826 628.595 237.826 628.595" stroke="#437A9F" stroke-opacity="0.1" stroke-width="3.6" stroke-miterlimit="10" stroke-linecap="round"/>
<path d="M1436.33 477.026C1447.01 477.026 1455.66 468.161 1455.66 457.225C1455.66 446.29 1447.01 437.425 1436.33 437.425C1425.66 437.425 1417 446.29 1417 457.225C1417 468.161 1425.66 477.026 1436.33 477.026Z" stroke="#437A9F" stroke-opacity="0.1" stroke-width="3.6" stroke-miterlimit="10" stroke-linecap="round" stroke-linejoin="round"/>
<path d="M1463.43 496.587C1467.7 496.587 1471.16 493.042 1471.16 488.669C1471.16 484.295 1467.7 480.75 1463.43 480.75C1459.16 480.75 1455.7 484.295 1455.7 488.669C1455.7 493.042 1459.16 496.587 1463.43 496.587Z" stroke="#437A9F" stroke-opacity="0.1" stroke-width="3.6" stroke-miterlimit="10" stroke-linecap="round" stroke-linejoin="round"/>
<defs>
<linearGradient id="paint0_linear_557_23320" x1="960" y1="0" x2="960" y2="708" gradientUnits="userSpaceOnUse">
<stop stop-color="#E2EAF0"/>
<stop offset="1" stop-color="white"/>
</linearGradient>
</defs>
</svg>
