<svg width="1708" height="745" viewBox="0 0 1708 745" fill="none" xmlns="http://www.w3.org/2000/svg">
<path d="M1133.82 694.219C1133.82 696.625 1131.86 698.579 1129.46 698.579C1127.05 698.579 1125.1 696.625 1125.1 694.219C1125.1 691.814 1127.05 689.86 1129.46 689.86C1131.86 689.86 1133.82 691.809 1133.82 694.219Z" stroke="#437A9F" stroke-opacity="0.1" stroke-width="1.8" stroke-miterlimit="10" stroke-linecap="round" stroke-linejoin="round"/>
<path d="M1176.11 732.027C1178.52 732.027 1180.47 730.075 1180.47 727.667C1180.47 725.26 1178.52 723.308 1176.11 723.308C1173.7 723.308 1171.75 725.26 1171.75 727.667C1171.75 730.075 1173.7 732.027 1176.11 732.027Z" stroke="#437A9F" stroke-opacity="0.1" stroke-width="1.8" stroke-miterlimit="10" stroke-linecap="round" stroke-linejoin="round"/>
<path d="M1159.7 718.706C1164.83 718.706 1169 714.543 1169 709.408C1169 704.274 1164.83 700.111 1159.7 700.111C1154.57 700.111 1150.4 704.274 1150.4 709.408C1150.4 714.543 1154.57 718.706 1159.7 718.706Z" stroke="#437A9F" stroke-opacity="0.1" stroke-width="1.8" stroke-miterlimit="10" stroke-linecap="round" stroke-linejoin="round"/>
<path d="M1175.9 709.408L1172.8 714.828L1171.15 720.862L1165.13 722.501L1159.7 725.607L1154.28 722.501L1148.24 720.862L1146.6 714.828L1143.5 709.408L1146.6 703.983L1148.24 697.949L1154.28 696.31L1159.7 693.204L1165.13 696.31L1171.15 697.949L1172.8 703.983L1175.9 709.408Z" stroke="#437A9F" stroke-opacity="0.1" stroke-width="1.8" stroke-miterlimit="10" stroke-linecap="round" stroke-linejoin="round"/>
<path d="M1171.75 727.667C1171.75 725.262 1173.71 723.308 1176.11 723.308C1177.41 723.308 1178.58 723.882 1179.38 724.785C1182.69 720.542 1184.68 715.209 1184.68 709.403C1184.68 695.605 1173.49 684.42 1159.7 684.42C1145.9 684.42 1134.71 695.605 1134.71 709.403C1134.71 723.202 1145.9 734.387 1159.7 734.387C1164.55 734.387 1169.07 733.001 1172.9 730.611C1172.19 729.834 1171.75 728.804 1171.75 727.667Z" stroke="#437A9F" stroke-opacity="0.1" stroke-width="1.8" stroke-miterlimit="10" stroke-linecap="round" stroke-linejoin="round"/>
<path d="M1159.7 675.6C1148.04 675.6 1137.76 681.502 1131.69 690.479C1132.96 691.241 1133.82 692.631 1133.82 694.224C1133.82 696.63 1131.86 698.584 1129.46 698.584C1128.87 698.584 1128.3 698.462 1127.79 698.249C1126.57 701.745 1125.9 705.496 1125.9 709.408C1125.9 728.078 1141.04 743.217 1159.71 743.217C1178.38 743.217 1193.51 728.078 1193.51 709.408C1193.51 690.738 1178.37 675.6 1159.7 675.6Z" stroke="#437A9F" stroke-opacity="0.1" stroke-width="1.8" stroke-miterlimit="10" stroke-linecap="round" stroke-linejoin="round"/>
<path d="M58.5571 72.4031L37.5817 65.2792C35.3652 64.5284 34.1819 62.1197 34.9327 59.9032C35.6836 57.6867 38.0922 56.5034 40.3027 57.2543L61.2781 64.3782C63.4946 65.129 64.6779 67.5377 63.9271 69.7482C63.1762 71.9707 60.7735 73.16 58.5571 72.4031Z" stroke="#437A9F" stroke-opacity="0.1" stroke-width="2.7" stroke-miterlimit="10"/>
<path d="M55.8 80.5242L34.8246 73.4003C32.6081 72.6494 31.4248 70.2408 32.1756 68.0303C32.9265 65.8138 35.3352 64.6305 37.5516 65.3813L58.527 72.4993C60.7435 73.2501 61.9268 75.6588 61.176 77.8753C60.4191 80.0918 58.0165 81.2751 55.8 80.5242Z" stroke="#437A9F" stroke-opacity="0.1" stroke-width="2.7" stroke-miterlimit="10"/>
<path d="M37.1553 35.3478C37.1794 35.4198 37.1974 35.4859 37.2214 35.558C37.6899 37.0537 40.453 46.5322 39.2997 57.05L61.8008 64.4743C67.1347 55.3381 74.9975 49.3734 76.2649 48.4484C76.325 48.4063 76.3851 48.3643 76.4392 48.3222C77.0518 47.8838 77.6465 47.4152 78.2231 46.9167C81.6109 43.9914 84.2779 40.1411 85.7795 35.588C90.2065 22.1811 82.9264 7.72297 69.5194 3.29603C56.1125 -1.1309 41.6544 6.14922 37.2274 19.5562C35.7197 24.1152 35.5696 28.7945 36.5547 33.1613C36.7229 33.8942 36.9211 34.627 37.1553 35.3478Z" stroke="#437A9F" stroke-opacity="0.1" stroke-width="2.7" stroke-miterlimit="10"/>
<path d="M35.9724 73.8928C35.7201 78.3378 38.4591 82.5725 42.8921 84.0381C47.265 85.4797 51.9202 83.7678 54.3949 80.1458L35.9724 73.8928Z" stroke="#437A9F" stroke-opacity="0.1" stroke-width="2.7" stroke-miterlimit="10"/>
<path d="M46.3454 59.2545L53.0308 38.9939C53.6916 36.9997 52.6043 34.8493 50.6101 34.1885C48.6159 33.5278 46.4655 34.615 45.8048 36.6093C45.144 38.6035 46.2312 40.7539 48.2255 41.4146L56.2504 44.0636" stroke="#437A9F" stroke-opacity="0.1" stroke-width="2.7" stroke-miterlimit="10"/>
<path d="M55.1633 62.1677L61.8488 41.9071C62.5095 39.9129 64.6599 38.8317 66.6541 39.4864C68.6484 40.1472 69.7296 42.2976 69.0749 44.2918C68.4141 46.286 66.2637 47.3672 64.2695 46.7125L56.2445 44.0635" stroke="#437A9F" stroke-opacity="0.1" stroke-width="2.7" stroke-miterlimit="10"/>
<path d="M90.531 42.5677L97.3066 44.8082" stroke="#437A9F" stroke-opacity="0.1" stroke-width="2.7" stroke-miterlimit="10" stroke-linecap="round"/>
<path d="M93.6362 34.0323L100.694 32.9691" stroke="#437A9F" stroke-opacity="0.1" stroke-width="2.7" stroke-miterlimit="10" stroke-linecap="round"/>
<path d="M85.7915 49.89L90.8251 54.9476" stroke="#437A9F" stroke-opacity="0.1" stroke-width="2.7" stroke-miterlimit="10" stroke-linecap="round"/>
<path d="M27.5983 21.7967L20.8228 19.5623" stroke="#437A9F" stroke-opacity="0.1" stroke-width="2.7" stroke-miterlimit="10" stroke-linecap="round"/>
<path d="M30.1874 13.087L25.1538 8.02936" stroke="#437A9F" stroke-opacity="0.1" stroke-width="2.7" stroke-miterlimit="10" stroke-linecap="round"/>
<path d="M27.0519 30.5004L20 31.5635" stroke="#437A9F" stroke-opacity="0.1" stroke-width="2.7" stroke-miterlimit="10" stroke-linecap="round"/>
<path d="M70.3936 444.021L8.10957 425.415C3.57963 424.063 1.00843 419.296 2.36002 414.766L14.7989 373.11C16.1505 368.58 20.918 366.008 25.4479 367.36L87.732 385.966C92.2619 387.317 94.8331 392.085 93.4815 396.615L81.0427 438.271C79.6858 442.796 74.9183 445.372 70.3936 444.021Z" stroke="#437A9F" stroke-opacity="0.1" stroke-width="3.6" stroke-miterlimit="10" stroke-linecap="round"/>
<path d="M3.82788 409.84L82.5105 433.345" stroke="#437A9F" stroke-opacity="0.1" stroke-width="3.6" stroke-miterlimit="10" stroke-linecap="round"/>
<path d="M43.3617 428.419C43.0238 429.549 41.8306 430.193 40.7008 429.855C39.5709 429.517 38.9268 428.324 39.2647 427.194C39.6026 426.064 40.7958 425.42 41.9256 425.758C43.0555 426.096 43.6996 427.289 43.3617 428.419Z" fill="#E2EAF0"/>
<path d="M48.0788 437.361L30.4382 432.092L28.0614 440.05L45.702 445.319L48.0788 437.361Z" stroke="#437A9F" stroke-opacity="0.1" stroke-width="3.6" stroke-miterlimit="10" stroke-linecap="round"/>
<path d="M21.5198 438.551L51.9728 447.648" stroke="#437A9F" stroke-opacity="0.1" stroke-width="3.6" stroke-miterlimit="10" stroke-linecap="round"/>
<path d="M1654.05 137.972C1673.57 137.972 1689.4 130.469 1689.4 121.215C1689.4 111.96 1673.57 104.457 1654.05 104.457C1634.52 104.457 1618.7 111.96 1618.7 121.215C1618.7 130.469 1634.52 137.972 1654.05 137.972Z" stroke="#437A9F" stroke-opacity="0.1" stroke-width="2.7" stroke-miterlimit="10" stroke-linecap="round" stroke-linejoin="round"/>
<path d="M1668.34 129.949C1678.5 113.274 1680.32 95.854 1672.41 91.0416C1664.51 86.2291 1649.87 95.8462 1639.72 112.522C1629.57 129.198 1627.74 146.617 1635.65 151.43C1643.55 156.242 1658.19 146.625 1668.34 129.949Z" stroke="#437A9F" stroke-opacity="0.1" stroke-width="2.7" stroke-miterlimit="10" stroke-linecap="round" stroke-linejoin="round"/>
<path d="M1672.41 151.422C1680.31 146.61 1678.49 129.19 1668.34 112.514C1658.18 95.8386 1643.55 86.2216 1635.64 91.034C1627.74 95.8465 1629.56 113.266 1639.71 129.942C1649.87 146.618 1664.5 156.235 1672.41 151.422Z" stroke="#437A9F" stroke-opacity="0.1" stroke-width="2.7" stroke-miterlimit="10" stroke-linecap="round" stroke-linejoin="round"/>
<path d="M1654.05 125.651C1656.5 125.651 1658.48 123.664 1658.48 121.215C1658.48 118.765 1656.5 116.779 1654.05 116.779C1651.6 116.779 1649.61 118.765 1649.61 121.215C1649.61 123.664 1651.6 125.651 1654.05 125.651Z" stroke="#437A9F" stroke-opacity="0.1" stroke-width="2.7" stroke-miterlimit="10" stroke-linecap="round" stroke-linejoin="round"/>
<path d="M1666.48 650.078L1637.29 656.817L1635.98 651.127C1635.68 649.808 1636.5 648.495 1637.81 648.188L1662.23 642.548C1663.55 642.246 1664.86 643.063 1665.17 644.382L1666.48 650.078Z" stroke="#437A9F" stroke-opacity="0.1" stroke-width="2.7" stroke-miterlimit="10" stroke-linecap="round"/>
<path d="M1656.89 619.479C1669.76 609.105 1671.78 590.264 1661.4 577.397C1651.03 564.53 1632.19 562.51 1619.32 572.884C1606.45 583.259 1604.43 602.099 1614.81 614.966C1625.18 627.833 1644.02 629.853 1656.89 619.479Z" stroke="#437A9F" stroke-opacity="0.1" stroke-width="2.7" stroke-miterlimit="10"/>
<path d="M1652.03 622.658L1624.12 569.714L1620.64 563.29C1602.44 572.88 1595.47 595.401 1605.06 613.595C1614.65 631.789 1637.17 638.761 1655.37 629.171L1651.96 622.702" stroke="#437A9F" stroke-opacity="0.1" stroke-width="2.7" stroke-miterlimit="10" stroke-linecap="round" stroke-linejoin="round"/>
<path d="M1630.27 581.315C1639.41 576.498 1645.45 569.988 1643.75 566.776C1642.06 563.563 1633.28 564.864 1624.14 569.682C1615 574.5 1608.97 581.009 1610.66 584.222C1612.36 587.434 1621.14 586.133 1630.27 581.315Z" stroke="#437A9F" stroke-opacity="0.1" stroke-width="2.7" stroke-miterlimit="10"/>
<path d="M1632.42 625.566C1638.87 626.809 1645.77 625.961 1652.03 622.658C1658.29 619.354 1662.9 614.142 1665.52 608.119C1659.07 606.875 1652.16 607.723 1645.9 611.027C1639.64 614.33 1635.04 619.543 1632.42 625.566Z" stroke="#437A9F" stroke-opacity="0.1" stroke-width="2.7" stroke-miterlimit="10"/>
<path d="M1652.06 622.625C1659.36 618.772 1659.04 603.796 1651.33 589.176C1643.62 574.555 1631.45 565.827 1624.14 569.68C1616.83 573.534 1617.16 588.51 1624.87 603.13C1632.57 617.75 1644.75 626.479 1652.06 622.625Z" stroke="#437A9F" stroke-opacity="0.1" stroke-width="2.7" stroke-miterlimit="10"/>
<path d="M1611.61 610.141L1664.55 582.231" stroke="#437A9F" stroke-opacity="0.1" stroke-width="2.7" stroke-miterlimit="10"/>
<path d="M1646.77 632.43L1649.86 645.317" stroke="#437A9F" stroke-opacity="0.1" stroke-width="2.7" stroke-miterlimit="10"/>
<path d="M1633.79 658.016L1671 649.092" stroke="#437A9F" stroke-opacity="0.1" stroke-width="2.7" stroke-miterlimit="10" stroke-linecap="round"/>
<path d="M1686.46 463.221L1702.03 447.647L1658.88 404.492L1643.3 420.066L1686.46 463.221Z" stroke="#437A9F" stroke-opacity="0.1" stroke-width="2.7" stroke-miterlimit="10" stroke-linecap="round" stroke-linejoin="round"/>
<path d="M1706.24 467.434L1702.03 447.644L1686.45 463.219L1706.24 467.434Z" stroke="#437A9F" stroke-opacity="0.1" stroke-width="2.7" stroke-miterlimit="10" stroke-linecap="round" stroke-linejoin="round"/>
<path d="M1704.28 458.201L1697 465.467" stroke="#437A9F" stroke-opacity="0.1" stroke-width="2.7" stroke-miterlimit="10" stroke-linecap="round" stroke-linejoin="round"/>
<path d="M1638.71 408.192L1646.99 399.911C1649.01 397.896 1652.27 397.896 1654.29 399.911L1658.87 404.491L1643.29 420.065L1638.71 415.486C1636.7 413.471 1636.7 410.201 1638.71 408.192Z" stroke="#437A9F" stroke-opacity="0.1" stroke-width="2.7" stroke-miterlimit="10" stroke-linecap="round" stroke-linejoin="round"/>
<path d="M1663.08 408.693L1647.5 424.275" stroke="#437A9F" stroke-opacity="0.1" stroke-width="2.7" stroke-miterlimit="10" stroke-linecap="round" stroke-linejoin="round"/>
<path d="M1694.24 455.431L1655.29 416.487" stroke="#437A9F" stroke-opacity="0.1" stroke-width="2.7" stroke-miterlimit="10" stroke-linecap="round" stroke-linejoin="round"/>
<path d="M469.024 651.486L466.158 658.019" stroke="#437A9F" stroke-opacity="0.1" stroke-width="3.6" stroke-miterlimit="10" stroke-linecap="round" stroke-linejoin="round"/>
<path d="M489.83 660.613L486.964 667.147" stroke="#437A9F" stroke-opacity="0.1" stroke-width="3.6" stroke-miterlimit="10" stroke-linecap="round" stroke-linejoin="round"/>
<path d="M510.642 669.735L507.775 676.269" stroke="#437A9F" stroke-opacity="0.1" stroke-width="3.6" stroke-miterlimit="10" stroke-linecap="round" stroke-linejoin="round"/>
<path d="M455.099 645.379L453.665 648.651" stroke="#437A9F" stroke-opacity="0.1" stroke-width="3.6" stroke-miterlimit="10" stroke-linecap="round" stroke-linejoin="round"/>
<path d="M462.061 648.438L460.628 651.699" stroke="#437A9F" stroke-opacity="0.1" stroke-width="3.6" stroke-miterlimit="10" stroke-linecap="round" stroke-linejoin="round"/>
<path d="M475.946 654.52L474.512 657.792" stroke="#437A9F" stroke-opacity="0.1" stroke-width="3.6" stroke-miterlimit="10" stroke-linecap="round" stroke-linejoin="round"/>
<path d="M482.904 657.573L481.475 660.84" stroke="#437A9F" stroke-opacity="0.1" stroke-width="3.6" stroke-miterlimit="10" stroke-linecap="round" stroke-linejoin="round"/>
<path d="M496.793 663.661L495.36 666.933" stroke="#437A9F" stroke-opacity="0.1" stroke-width="3.6" stroke-miterlimit="10" stroke-linecap="round" stroke-linejoin="round"/>
<path d="M517.942 672.937L516.514 676.204" stroke="#437A9F" stroke-opacity="0.1" stroke-width="3.6" stroke-miterlimit="10" stroke-linecap="round" stroke-linejoin="round"/>
<path d="M503.751 666.714L502.323 669.981" stroke="#437A9F" stroke-opacity="0.1" stroke-width="3.6" stroke-miterlimit="10" stroke-linecap="round" stroke-linejoin="round"/>
<path d="M506.141 725.181L437.437 637.638L527.258 677.019L506.141 725.181Z" stroke="#437A9F" stroke-opacity="0.1" stroke-width="3.6" stroke-miterlimit="10" stroke-linecap="round" stroke-linejoin="round"/>
<path d="M502.64 697.551L483.845 673.603L508.413 684.371L502.64 697.551Z" stroke="#437A9F" stroke-opacity="0.1" stroke-width="3.6" stroke-miterlimit="10" stroke-linecap="round" stroke-linejoin="round"/>
<path d="M673.996 82.4999L648.1 95.0209L699.715 201.774L725.612 189.253L673.996 82.4999Z" stroke="#437A9F" stroke-opacity="0.1" stroke-width="3.6" stroke-miterlimit="10" stroke-linecap="round" stroke-linejoin="round"/>
<path d="M680.175 95.3102L667.233 101.565" stroke="#437A9F" stroke-opacity="0.1" stroke-width="3.6" stroke-miterlimit="10" stroke-linecap="round" stroke-linejoin="round"/>
<path d="M692.136 120.042L679.185 126.306" stroke="#437A9F" stroke-opacity="0.1" stroke-width="3.6" stroke-miterlimit="10" stroke-linecap="round" stroke-linejoin="round"/>
<path d="M704.097 144.774L691.146 151.038" stroke="#437A9F" stroke-opacity="0.1" stroke-width="3.6" stroke-miterlimit="10" stroke-linecap="round" stroke-linejoin="round"/>
<path d="M716.049 169.515L703.107 175.77" stroke="#437A9F" stroke-opacity="0.1" stroke-width="3.6" stroke-miterlimit="10" stroke-linecap="round" stroke-linejoin="round"/>
<path d="M684.136 103.5L677.665 106.623" stroke="#437A9F" stroke-opacity="0.1" stroke-width="3.6" stroke-miterlimit="10" stroke-linecap="round" stroke-linejoin="round"/>
<path d="M688.131 111.771L681.66 114.903" stroke="#437A9F" stroke-opacity="0.1" stroke-width="3.6" stroke-miterlimit="10" stroke-linecap="round" stroke-linejoin="round"/>
<path d="M696.114 128.277L689.643 131.4" stroke="#437A9F" stroke-opacity="0.1" stroke-width="3.6" stroke-miterlimit="10" stroke-linecap="round" stroke-linejoin="round"/>
<path d="M700.11 136.548L693.639 139.68" stroke="#437A9F" stroke-opacity="0.1" stroke-width="3.6" stroke-miterlimit="10" stroke-linecap="round" stroke-linejoin="round"/>
<path d="M708.093 153.054L701.622 156.177" stroke="#437A9F" stroke-opacity="0.1" stroke-width="3.6" stroke-miterlimit="10" stroke-linecap="round" stroke-linejoin="round"/>
<path d="M712.098 161.325L705.618 164.457" stroke="#437A9F" stroke-opacity="0.1" stroke-width="3.6" stroke-miterlimit="10" stroke-linecap="round" stroke-linejoin="round"/>
<path d="M134.201 623.068L106.094 636.271C104.591 636.982 102.8 636.334 102.089 634.831L100.289 630.997C99.5777 629.494 100.226 627.703 101.729 626.992L129.836 613.789C131.339 613.078 133.13 613.726 133.841 615.229L135.641 619.063C136.352 620.575 135.704 622.366 134.201 623.068Z" stroke="#437A9F" stroke-opacity="0.1" stroke-width="3.6" stroke-miterlimit="10" stroke-linecap="round"/>
<path d="M145.118 653.056L131.366 624.418L109.118 635.101L122.87 663.739L131.546 711.655C134.399 717.604 141.536 720.106 147.476 717.253L171.497 705.715C177.446 702.862 179.948 695.725 177.095 689.785L145.118 653.056Z" stroke="#437A9F" stroke-opacity="0.1" stroke-width="3.6" stroke-miterlimit="10" stroke-linecap="round"/>
<path d="M126.776 685.348C126.776 685.348 131.366 677.914 143.57 678.337C155.774 678.76 157.826 667.645 157.826 667.645" stroke="#437A9F" stroke-opacity="0.1" stroke-width="3.6" stroke-miterlimit="10" stroke-linecap="round"/>
<path d="M173.332 159.864C184.009 159.864 192.664 151.209 192.664 140.532C192.664 129.855 184.009 121.2 173.332 121.2C162.655 121.2 154 129.855 154 140.532C154 151.209 162.655 159.864 173.332 159.864Z" stroke="#437A9F" stroke-opacity="0.1" stroke-width="3.6" stroke-miterlimit="10" stroke-linecap="round" stroke-linejoin="round"/>
<path d="M200.431 178.962C204.701 178.962 208.162 175.501 208.162 171.231C208.162 166.961 204.701 163.5 200.431 163.5C196.161 163.5 192.7 166.961 192.7 171.231C192.7 175.501 196.161 178.962 200.431 178.962Z" stroke="#437A9F" stroke-opacity="0.1" stroke-width="3.6" stroke-miterlimit="10" stroke-linecap="round" stroke-linejoin="round"/>
</svg>
