<svg width="1920" height="400" viewBox="0 0 1920 400" fill="none" xmlns="http://www.w3.org/2000/svg">
<rect width="1920" height="400" fill="#E2EAF0"/>
<path d="M600.225 178.052C600.225 179.937 598.694 181.468 596.809 181.468C594.924 181.468 593.394 179.937 593.394 178.052C593.394 176.167 594.924 174.636 596.809 174.636C598.694 174.636 600.225 176.163 600.225 178.052Z" stroke="#4D2C5E" stroke-opacity="0.1" stroke-width="1.41041" stroke-miterlimit="10" stroke-linecap="round" stroke-linejoin="round"/>
<path d="M633.364 207.676C635.25 207.676 636.78 206.147 636.78 204.26C636.78 202.374 635.25 200.845 633.364 200.845C631.478 200.845 629.948 202.374 629.948 204.26C629.948 206.147 631.478 207.676 633.364 207.676Z" stroke="#4D2C5E" stroke-opacity="0.1" stroke-width="1.41041" stroke-miterlimit="10" stroke-linecap="round" stroke-linejoin="round"/>
<path d="M620.504 197.238C624.528 197.238 627.789 193.977 627.789 189.953C627.789 185.93 624.528 182.669 620.504 182.669C616.481 182.669 613.22 185.93 613.22 189.953C613.22 193.977 616.481 197.238 620.504 197.238Z" stroke="#4D2C5E" stroke-opacity="0.1" stroke-width="1.41041" stroke-miterlimit="10" stroke-linecap="round" stroke-linejoin="round"/>
<path d="M633.198 189.953L630.768 194.2L629.48 198.928L624.756 200.212L620.505 202.646L616.254 200.212L611.527 198.928L610.242 194.2L607.809 189.953L610.242 185.702L611.527 180.974L616.254 179.69L620.505 177.256L624.756 179.69L629.48 180.974L630.768 185.702L633.198 189.953Z" stroke="#4D2C5E" stroke-opacity="0.1" stroke-width="1.41041" stroke-miterlimit="10" stroke-linecap="round" stroke-linejoin="round"/>
<path d="M629.949 204.26C629.949 202.375 631.48 200.845 633.364 200.845C634.382 200.845 635.297 201.294 635.921 202.002C638.522 198.677 640.076 194.498 640.076 189.949C640.076 179.137 631.313 170.373 620.501 170.373C609.689 170.373 600.925 179.137 600.925 189.949C600.925 200.761 609.689 209.525 620.501 209.525C624.302 209.525 627.845 208.439 630.847 206.567C630.295 205.958 629.949 205.151 629.949 204.26Z" stroke="#4D2C5E" stroke-opacity="0.1" stroke-width="1.41041" stroke-miterlimit="10" stroke-linecap="round" stroke-linejoin="round"/>
<path d="M620.505 163.462C611.371 163.462 603.315 168.087 598.555 175.121C599.553 175.718 600.225 176.807 600.225 178.056C600.225 179.941 598.694 181.472 596.81 181.472C596.344 181.472 595.903 181.376 595.501 181.209C594.543 183.949 594.018 186.887 594.018 189.953C594.018 204.582 605.88 216.444 620.509 216.444C635.138 216.444 647 204.582 647 189.953C647 175.324 635.134 163.462 620.505 163.462Z" stroke="#4D2C5E" stroke-opacity="0.1" stroke-width="1.41041" stroke-miterlimit="10" stroke-linecap="round" stroke-linejoin="round"/>
<path d="M280.171 88.1651L263.736 82.583C261.999 81.9947 261.072 80.1073 261.66 78.3706C262.249 76.6339 264.136 75.7067 265.868 76.295L282.303 81.877C284.04 82.4654 284.967 84.3527 284.379 86.0847C283.791 87.8262 281.908 88.7581 280.171 88.1651Z" stroke="#4D2C5E" stroke-opacity="0.1" stroke-width="2.11561" stroke-miterlimit="10"/>
<path d="M278.011 94.5284L261.576 88.9464C259.839 88.3581 258.912 86.4707 259.5 84.7387C260.088 83.0019 261.976 82.0747 263.712 82.663L280.148 88.2404C281.885 88.8287 282.812 90.7161 282.224 92.4528C281.631 94.1895 279.748 95.1167 278.011 94.5284Z" stroke="#4D2C5E" stroke-opacity="0.1" stroke-width="2.11561" stroke-miterlimit="10"/>
<path d="M263.402 59.13C263.421 59.1864 263.435 59.2382 263.454 59.2947C263.821 60.4667 265.986 67.8937 265.082 76.1349L282.713 81.9523C286.893 74.7936 293.054 70.1199 294.047 69.3951C294.094 69.3621 294.141 69.3292 294.183 69.2963C294.663 68.9527 295.129 68.5855 295.581 68.1949C298.236 65.9028 300.325 62.8858 301.502 59.3182C304.971 48.8131 299.266 37.4843 288.761 34.0155C278.256 30.5467 266.927 36.2512 263.458 46.7563C262.277 50.3286 262.159 53.9951 262.931 57.4168C263.063 57.991 263.218 58.5652 263.402 59.13Z" stroke="#4D2C5E" stroke-opacity="0.1" stroke-width="2.11561" stroke-miterlimit="10"/>
<path d="M262.475 89.3323C262.277 92.8152 264.424 96.1333 267.897 97.2817C271.323 98.4113 274.971 97.0699 276.91 94.2318L262.475 89.3323Z" stroke="#4D2C5E" stroke-opacity="0.1" stroke-width="2.11561" stroke-miterlimit="10"/>
<path d="M270.603 77.8624L275.841 61.987C276.359 60.4244 275.507 58.7395 273.945 58.2218C272.382 57.704 270.697 58.5559 270.179 60.1185C269.662 61.6811 270.514 63.3661 272.076 63.8838L278.364 65.9594" stroke="#4D2C5E" stroke-opacity="0.1" stroke-width="2.11561" stroke-miterlimit="10"/>
<path d="M277.513 80.1448L282.751 64.2694C283.269 62.7068 284.954 61.8596 286.516 62.3727C288.079 62.8904 288.926 64.5754 288.413 66.1379C287.895 67.7005 286.211 68.5477 284.648 68.0347L278.36 65.9591" stroke="#4D2C5E" stroke-opacity="0.1" stroke-width="2.11561" stroke-miterlimit="10"/>
<path d="M305.226 64.7872L310.535 66.5428" stroke="#4D2C5E" stroke-opacity="0.1" stroke-width="2.11561" stroke-miterlimit="10" stroke-linecap="round"/>
<path d="M307.659 58.0993L313.189 57.2662" stroke="#4D2C5E" stroke-opacity="0.1" stroke-width="2.11561" stroke-miterlimit="10" stroke-linecap="round"/>
<path d="M301.512 70.5248L305.456 74.4877" stroke="#4D2C5E" stroke-opacity="0.1" stroke-width="2.11561" stroke-miterlimit="10" stroke-linecap="round"/>
<path d="M255.914 48.512L250.605 46.7612" stroke="#4D2C5E" stroke-opacity="0.1" stroke-width="2.11561" stroke-miterlimit="10" stroke-linecap="round"/>
<path d="M257.942 41.6875L253.998 37.7245" stroke="#4D2C5E" stroke-opacity="0.1" stroke-width="2.11561" stroke-miterlimit="10" stroke-linecap="round"/>
<path d="M255.486 55.3319L249.96 56.165" stroke="#4D2C5E" stroke-opacity="0.1" stroke-width="2.11561" stroke-miterlimit="10" stroke-linecap="round"/>
<path d="M200.59 214.645L151.787 200.067C148.238 199.008 146.223 195.272 147.282 191.722L157.029 159.082C158.088 155.533 161.823 153.518 165.373 154.577L214.176 169.156C217.726 170.215 219.74 173.95 218.681 177.5L208.935 210.14C207.871 213.685 204.136 215.704 200.59 214.645Z" stroke="#4D2C5E" stroke-opacity="0.1" stroke-width="2.82081" stroke-miterlimit="10" stroke-linecap="round"/>
<path d="M148.432 187.863L210.085 206.28" stroke="#4D2C5E" stroke-opacity="0.1" stroke-width="2.82081" stroke-miterlimit="10" stroke-linecap="round"/>
<path d="M179.41 202.421C179.145 203.306 178.21 203.811 177.325 203.546C176.439 203.281 175.935 202.346 176.199 201.461C176.464 200.576 177.399 200.071 178.284 200.336C179.17 200.6 179.674 201.535 179.41 202.421Z" fill="#437A9F"/>
<path d="M183.105 209.427L169.283 205.298L167.42 211.534L181.243 215.662L183.105 209.427Z" stroke="#4D2C5E" stroke-opacity="0.1" stroke-width="2.82081" stroke-miterlimit="10" stroke-linecap="round"/>
<path d="M162.294 210.359L186.156 217.487" stroke="#4D2C5E" stroke-opacity="0.1" stroke-width="2.82081" stroke-miterlimit="10" stroke-linecap="round"/>
<path d="M578.076 89.3003C593.375 89.3003 605.777 83.4217 605.777 76.17C605.777 68.9183 593.375 63.0397 578.076 63.0397C562.778 63.0397 550.376 68.9183 550.376 76.17C550.376 83.4217 562.778 89.3003 578.076 89.3003Z" stroke="#4D2C5E" stroke-opacity="0.1" stroke-width="2.11561" stroke-miterlimit="10" stroke-linecap="round" stroke-linejoin="round"/>
<path d="M589.279 83.0143C597.234 69.9479 598.662 56.2985 592.468 52.5276C586.275 48.7568 574.805 56.2923 566.85 69.3588C558.894 82.4253 557.466 96.0746 563.66 99.8455C569.854 103.616 581.323 96.0808 589.279 83.0143Z" stroke="#4D2C5E" stroke-opacity="0.1" stroke-width="2.11561" stroke-miterlimit="10" stroke-linecap="round" stroke-linejoin="round"/>
<path d="M592.463 99.8394C598.657 96.0686 597.229 82.4192 589.273 69.3528C581.318 56.2863 569.848 48.7507 563.655 52.5216C557.461 56.2925 558.889 69.9418 566.844 83.0083C574.799 96.0747 586.269 103.61 592.463 99.8394Z" stroke="#4D2C5E" stroke-opacity="0.1" stroke-width="2.11561" stroke-miterlimit="10" stroke-linecap="round" stroke-linejoin="round"/>
<path d="M578.076 79.6458C579.996 79.6458 581.552 78.0896 581.552 76.17C581.552 74.2504 579.996 72.6942 578.076 72.6942C576.157 72.6942 574.601 74.2504 574.601 76.17C574.601 78.0896 576.157 79.6458 578.076 79.6458Z" stroke="#4D2C5E" stroke-opacity="0.1" stroke-width="2.11561" stroke-miterlimit="10" stroke-linecap="round" stroke-linejoin="round"/>
<path d="M233.239 324.702L210.366 329.983L209.337 325.524C209.101 324.491 209.741 323.462 210.774 323.221L229.907 318.802C230.94 318.566 231.969 319.205 232.21 320.239L233.239 324.702Z" stroke="#4D2C5E" stroke-opacity="0.1" stroke-width="2.11561" stroke-miterlimit="10" stroke-linecap="round"/>
<path d="M225.722 300.726C235.803 292.597 237.387 277.834 229.258 267.752C221.129 257.671 206.366 256.087 196.284 264.216C186.202 272.345 184.619 287.108 192.748 297.19C200.877 307.272 215.64 308.855 225.722 300.726Z" stroke="#4D2C5E" stroke-opacity="0.1" stroke-width="2.11561" stroke-miterlimit="10"/>
<path d="M221.917 303.217L200.047 261.733L197.316 256.698C183.06 264.213 177.598 281.86 185.112 296.116C192.627 310.372 210.273 315.834 224.53 308.32L221.857 303.251" stroke="#4D2C5E" stroke-opacity="0.1" stroke-width="2.11561" stroke-miterlimit="10" stroke-linecap="round" stroke-linejoin="round"/>
<path d="M204.867 270.822C212.027 267.047 216.755 261.947 215.428 259.43C214.101 256.912 207.221 257.932 200.061 261.707C192.902 265.482 188.174 270.582 189.501 273.1C190.828 275.617 197.708 274.597 204.867 270.822Z" stroke="#4D2C5E" stroke-opacity="0.1" stroke-width="2.11561" stroke-miterlimit="10"/>
<path d="M206.548 305.495C211.602 306.47 217.01 305.805 221.916 303.217C226.823 300.628 230.43 296.544 232.482 291.825C227.428 290.85 222.02 291.515 217.113 294.103C212.202 296.692 208.6 300.776 206.548 305.495Z" stroke="#4D2C5E" stroke-opacity="0.1" stroke-width="2.11561" stroke-miterlimit="10"/>
<path d="M221.935 303.191C227.662 300.172 227.408 288.437 221.368 276.981C215.328 265.526 205.789 258.686 200.062 261.706C194.335 264.725 194.589 276.46 200.629 287.916C206.669 299.371 216.208 306.211 221.935 303.191Z" stroke="#4D2C5E" stroke-opacity="0.1" stroke-width="2.11561" stroke-miterlimit="10"/>
<path d="M190.239 293.409L231.723 271.54" stroke="#4D2C5E" stroke-opacity="0.1" stroke-width="2.11561" stroke-miterlimit="10"/>
<path d="M217.792 310.874L220.214 320.972" stroke="#4D2C5E" stroke-opacity="0.1" stroke-width="2.11561" stroke-miterlimit="10"/>
<path d="M207.621 330.922L236.778 323.929" stroke="#4D2C5E" stroke-opacity="0.1" stroke-width="2.11561" stroke-miterlimit="10" stroke-linecap="round"/>
<path d="M617.886 316.508L630.089 304.305L596.274 270.49L584.071 282.694L617.886 316.508Z" stroke="#4D2C5E" stroke-opacity="0.1" stroke-width="2.11561" stroke-miterlimit="10" stroke-linecap="round" stroke-linejoin="round"/>
<path d="M633.388 319.81L630.084 304.303L617.88 316.507L633.388 319.81Z" stroke="#4D2C5E" stroke-opacity="0.1" stroke-width="2.11561" stroke-miterlimit="10" stroke-linecap="round" stroke-linejoin="round"/>
<path d="M631.847 312.575L626.147 318.268" stroke="#4D2C5E" stroke-opacity="0.1" stroke-width="2.11561" stroke-miterlimit="10" stroke-linecap="round" stroke-linejoin="round"/>
<path d="M580.474 273.39L586.963 266.902C588.542 265.322 591.099 265.322 592.678 266.902L596.266 270.49L584.063 282.694L580.474 279.105C578.895 277.526 578.895 274.964 580.474 273.39Z" stroke="#4D2C5E" stroke-opacity="0.1" stroke-width="2.11561" stroke-miterlimit="10" stroke-linecap="round" stroke-linejoin="round"/>
<path d="M599.565 273.782L587.361 285.992" stroke="#4D2C5E" stroke-opacity="0.1" stroke-width="2.11561" stroke-miterlimit="10" stroke-linecap="round" stroke-linejoin="round"/>
<path d="M623.983 310.405L593.462 279.89" stroke="#4D2C5E" stroke-opacity="0.1" stroke-width="2.11561" stroke-miterlimit="10" stroke-linecap="round" stroke-linejoin="round"/>
<path d="M1859.46 132.978L1830.27 139.717L1828.96 134.027C1828.66 132.708 1829.47 131.395 1830.79 131.088L1855.21 125.448C1856.53 125.146 1857.84 125.963 1858.15 127.282L1859.46 132.978Z" stroke="#437A9F" stroke-opacity="0.1" stroke-width="2.7" stroke-miterlimit="10" stroke-linecap="round"/>
<path d="M1849.87 102.379C1862.73 92.0046 1864.75 73.164 1854.38 60.2972C1844 47.4305 1825.16 45.41 1812.3 55.7844C1799.43 66.1588 1797.41 84.9994 1807.78 97.8661C1818.16 110.733 1837 112.753 1849.87 102.379Z" stroke="#437A9F" stroke-opacity="0.1" stroke-width="2.7" stroke-miterlimit="10"/>
<path d="M1845.01 105.558L1817.1 52.6145L1813.61 46.1897C1795.42 55.7798 1788.45 78.3011 1798.04 96.4953C1807.63 114.689 1830.15 121.661 1848.35 112.071L1844.93 105.602" stroke="#437A9F" stroke-opacity="0.1" stroke-width="2.7" stroke-miterlimit="10" stroke-linecap="round" stroke-linejoin="round"/>
<path d="M1823.25 64.2154C1832.39 59.3979 1838.42 52.8882 1836.73 49.6757C1835.04 46.4632 1826.26 47.7644 1817.12 52.582C1807.98 57.3996 1801.95 63.9093 1803.64 67.1218C1805.33 70.3343 1814.11 69.033 1823.25 64.2154Z" stroke="#437A9F" stroke-opacity="0.1" stroke-width="2.7" stroke-miterlimit="10"/>
<path d="M1825.4 108.466C1831.85 109.709 1838.75 108.861 1845.01 105.558C1851.27 102.254 1855.88 97.0417 1858.49 91.0188C1852.04 89.7753 1845.14 90.6232 1838.88 93.9266C1832.61 97.2301 1828.02 102.443 1825.4 108.466Z" stroke="#437A9F" stroke-opacity="0.1" stroke-width="2.7" stroke-miterlimit="10"/>
<path d="M1845.03 105.525C1852.34 101.672 1852.02 86.696 1844.31 72.0757C1836.6 57.4554 1824.43 48.7271 1817.12 52.5805C1809.81 56.4339 1810.13 71.4099 1817.84 86.0302C1825.55 100.65 1837.72 109.379 1845.03 105.525Z" stroke="#437A9F" stroke-opacity="0.1" stroke-width="2.7" stroke-miterlimit="10"/>
<path d="M1804.58 93.0411L1857.53 65.1312" stroke="#437A9F" stroke-opacity="0.1" stroke-width="2.7" stroke-miterlimit="10"/>
<path d="M1839.75 115.33L1842.84 128.217" stroke="#437A9F" stroke-opacity="0.1" stroke-width="2.7" stroke-miterlimit="10"/>
<path d="M1826.77 140.916L1863.98 131.992" stroke="#437A9F" stroke-opacity="0.1" stroke-width="2.7" stroke-miterlimit="10" stroke-linecap="round"/>
<path d="M1740.43 270.821L1756.01 255.247L1712.85 212.092L1697.28 227.666L1740.43 270.821Z" stroke="#437A9F" stroke-opacity="0.1" stroke-width="2.7" stroke-miterlimit="10" stroke-linecap="round" stroke-linejoin="round"/>
<path d="M1760.22 275.035L1756 255.244L1740.43 270.819L1760.22 275.035Z" stroke="#437A9F" stroke-opacity="0.1" stroke-width="2.7" stroke-miterlimit="10" stroke-linecap="round" stroke-linejoin="round"/>
<path d="M1758.25 265.801L1750.98 273.067" stroke="#437A9F" stroke-opacity="0.1" stroke-width="2.7" stroke-miterlimit="10" stroke-linecap="round" stroke-linejoin="round"/>
<path d="M1692.69 215.793L1700.97 207.512C1702.99 205.496 1706.25 205.496 1708.26 207.512L1712.84 212.091L1697.27 227.666L1692.69 223.086C1690.67 221.071 1690.67 217.801 1692.69 215.793Z" stroke="#437A9F" stroke-opacity="0.1" stroke-width="2.7" stroke-miterlimit="10" stroke-linecap="round" stroke-linejoin="round"/>
<path d="M1717.05 216.293L1701.48 231.875" stroke="#437A9F" stroke-opacity="0.1" stroke-width="2.7" stroke-miterlimit="10" stroke-linecap="round" stroke-linejoin="round"/>
<path d="M1748.22 263.031L1709.27 224.087" stroke="#437A9F" stroke-opacity="0.1" stroke-width="2.7" stroke-miterlimit="10" stroke-linecap="round" stroke-linejoin="round"/>
<path d="M942.211 333.165L925.776 327.583C924.039 326.995 923.112 325.107 923.7 323.371C924.289 321.634 926.176 320.707 927.908 321.295L944.343 326.877C946.08 327.465 947.007 329.353 946.419 331.085C945.831 332.826 943.948 333.758 942.211 333.165Z" stroke="#4D2C5E" stroke-opacity="0.1" stroke-width="2.11561" stroke-miterlimit="10"/>
<path d="M940.051 339.528L923.616 333.946C921.879 333.358 920.952 331.471 921.54 329.739C922.128 328.002 924.016 327.075 925.753 327.663L942.188 333.24C943.925 333.829 944.852 335.716 944.264 337.453C943.671 339.19 941.788 340.117 940.051 339.528Z" stroke="#4D2C5E" stroke-opacity="0.1" stroke-width="2.11561" stroke-miterlimit="10"/>
<path d="M925.442 304.13C925.461 304.186 925.475 304.238 925.494 304.295C925.861 305.467 928.026 312.894 927.122 321.135L944.753 326.952C948.933 319.794 955.094 315.12 956.087 314.395C956.134 314.362 956.181 314.329 956.223 314.296C956.703 313.953 957.169 313.586 957.621 313.195C960.276 310.903 962.365 307.886 963.542 304.318C967.011 293.813 961.306 282.484 950.801 279.016C940.296 275.547 928.967 281.251 925.499 291.756C924.317 295.329 924.199 298.995 924.971 302.417C925.103 302.991 925.258 303.565 925.442 304.13Z" stroke="#4D2C5E" stroke-opacity="0.1" stroke-width="2.11561" stroke-miterlimit="10"/>
<path d="M924.515 334.332C924.317 337.815 926.464 341.133 929.937 342.282C933.363 343.411 937.011 342.07 938.95 339.232L924.515 334.332Z" stroke="#4D2C5E" stroke-opacity="0.1" stroke-width="2.11561" stroke-miterlimit="10"/>
<path d="M932.643 322.862L937.881 306.987C938.399 305.424 937.547 303.739 935.985 303.222C934.422 302.704 932.737 303.556 932.219 305.119C931.702 306.681 932.554 308.366 934.116 308.884L940.404 310.959" stroke="#4D2C5E" stroke-opacity="0.1" stroke-width="2.11561" stroke-miterlimit="10"/>
<path d="M939.553 325.145L944.791 309.269C945.309 307.707 946.994 306.86 948.556 307.373C950.119 307.89 950.966 309.575 950.453 311.138C949.936 312.701 948.251 313.548 946.688 313.035L940.4 310.959" stroke="#4D2C5E" stroke-opacity="0.1" stroke-width="2.11561" stroke-miterlimit="10"/>
<path d="M967.266 309.787L972.575 311.543" stroke="#4D2C5E" stroke-opacity="0.1" stroke-width="2.11561" stroke-miterlimit="10" stroke-linecap="round"/>
<path d="M969.699 303.099L975.229 302.266" stroke="#4D2C5E" stroke-opacity="0.1" stroke-width="2.11561" stroke-miterlimit="10" stroke-linecap="round"/>
<path d="M963.552 315.525L967.496 319.488" stroke="#4D2C5E" stroke-opacity="0.1" stroke-width="2.11561" stroke-miterlimit="10" stroke-linecap="round"/>
<path d="M917.954 293.512L912.645 291.761" stroke="#4D2C5E" stroke-opacity="0.1" stroke-width="2.11561" stroke-miterlimit="10" stroke-linecap="round"/>
<path d="M919.982 286.687L916.038 282.724" stroke="#4D2C5E" stroke-opacity="0.1" stroke-width="2.11561" stroke-miterlimit="10" stroke-linecap="round"/>
<path d="M917.526 300.332L912 301.165" stroke="#4D2C5E" stroke-opacity="0.1" stroke-width="2.11561" stroke-miterlimit="10" stroke-linecap="round"/>
<path d="M780.7 254.606C795.999 254.606 808.401 248.728 808.401 241.476C808.401 234.224 795.999 228.346 780.7 228.346C765.402 228.346 753 234.224 753 241.476C753 248.728 765.402 254.606 780.7 254.606Z" stroke="#4D2C5E" stroke-opacity="0.1" stroke-width="2.11561" stroke-miterlimit="10" stroke-linecap="round" stroke-linejoin="round"/>
<path d="M791.903 248.32C799.858 235.254 801.286 221.605 795.092 217.834C788.899 214.063 777.429 221.598 769.474 234.665C761.518 247.731 760.09 261.381 766.284 265.152C772.478 268.922 783.947 261.387 791.903 248.32Z" stroke="#4D2C5E" stroke-opacity="0.1" stroke-width="2.11561" stroke-miterlimit="10" stroke-linecap="round" stroke-linejoin="round"/>
<path d="M795.087 265.146C801.281 261.375 799.853 247.725 791.897 234.659C783.942 221.592 772.472 214.057 766.279 217.828C760.085 221.599 761.513 235.248 769.468 248.314C777.423 261.381 788.893 268.916 795.087 265.146Z" stroke="#4D2C5E" stroke-opacity="0.1" stroke-width="2.11561" stroke-miterlimit="10" stroke-linecap="round" stroke-linejoin="round"/>
<path d="M780.7 244.952C782.62 244.952 784.176 243.396 784.176 241.476C784.176 239.557 782.62 238 780.7 238C778.781 238 777.225 239.557 777.225 241.476C777.225 243.396 778.781 244.952 780.7 244.952Z" stroke="#4D2C5E" stroke-opacity="0.1" stroke-width="2.11561" stroke-miterlimit="10" stroke-linecap="round" stroke-linejoin="round"/>
<path d="M1505.59 86.3502L1456.79 71.7717C1453.24 70.7126 1451.22 66.977 1452.28 63.4275L1462.03 30.7872C1463.09 27.2377 1466.82 25.223 1470.37 26.2821L1519.18 40.8606C1522.73 41.9197 1524.74 45.6553 1523.68 49.2048L1513.93 81.8451C1512.87 85.3905 1509.14 87.4093 1505.59 86.3502Z" stroke="#4D2C5E" stroke-opacity="0.1" stroke-width="2.82081" stroke-miterlimit="10" stroke-linecap="round"/>
<path d="M1453.43 59.5677L1515.08 77.9853" stroke="#4D2C5E" stroke-opacity="0.1" stroke-width="2.82081" stroke-miterlimit="10" stroke-linecap="round"/>
<path d="M1484.41 74.1257C1484.14 75.011 1483.21 75.5157 1482.32 75.2509C1481.44 74.9862 1480.93 74.0512 1481.2 73.1659C1481.46 72.2806 1482.4 71.7759 1483.28 72.0407C1484.17 72.3054 1484.67 73.2404 1484.41 74.1257Z" fill="#437A9F"/>
<path d="M1488.11 81.132L1474.28 77.0034L1472.42 83.2388L1486.24 87.3674L1488.11 81.132Z" stroke="#4D2C5E" stroke-opacity="0.1" stroke-width="2.82081" stroke-miterlimit="10" stroke-linecap="round"/>
<path d="M1467.29 82.0643L1491.16 89.1922" stroke="#4D2C5E" stroke-opacity="0.1" stroke-width="2.82081" stroke-miterlimit="10" stroke-linecap="round"/>
<path d="M1000.83 69.5894C1000.83 71.4742 999.301 73.0052 997.416 73.0052C995.531 73.0052 994 71.4742 994 69.5894C994 67.7046 995.531 66.1737 997.416 66.1737C999.301 66.1737 1000.83 67.7006 1000.83 69.5894Z" stroke="#4D2C5E" stroke-opacity="0.1" stroke-width="1.41041" stroke-miterlimit="10" stroke-linecap="round" stroke-linejoin="round"/>
<path d="M1033.97 99.2137C1035.86 99.2137 1037.39 97.6844 1037.39 95.7979C1037.39 93.9115 1035.86 92.3822 1033.97 92.3822C1032.08 92.3822 1030.55 93.9115 1030.55 95.7979C1030.55 97.6844 1032.08 99.2137 1033.97 99.2137Z" stroke="#4D2C5E" stroke-opacity="0.1" stroke-width="1.41041" stroke-miterlimit="10" stroke-linecap="round" stroke-linejoin="round"/>
<path d="M1021.11 88.7757C1025.13 88.7757 1028.4 85.5142 1028.4 81.491C1028.4 77.4677 1025.13 74.2062 1021.11 74.2062C1017.09 74.2062 1013.83 77.4677 1013.83 81.491C1013.83 85.5142 1017.09 88.7757 1021.11 88.7757Z" stroke="#4D2C5E" stroke-opacity="0.1" stroke-width="1.41041" stroke-miterlimit="10" stroke-linecap="round" stroke-linejoin="round"/>
<path d="M1033.8 81.4907L1031.37 85.7375L1030.09 90.4655L1025.36 91.7499L1021.11 94.1834L1016.86 91.7499L1012.13 90.4655L1010.85 85.7375L1008.42 81.4907L1010.85 77.24L1012.13 72.512L1016.86 71.2276L1021.11 68.7941L1025.36 71.2276L1030.09 72.512L1031.37 77.24L1033.8 81.4907Z" stroke="#4D2C5E" stroke-opacity="0.1" stroke-width="1.41041" stroke-miterlimit="10" stroke-linecap="round" stroke-linejoin="round"/>
<path d="M1030.56 95.7978C1030.56 93.913 1032.09 92.3821 1033.97 92.3821C1034.99 92.3821 1035.9 92.8314 1036.53 93.5392C1039.13 90.215 1040.68 86.0357 1040.68 81.4867C1040.68 70.6749 1031.92 61.9109 1021.11 61.9109C1010.3 61.9109 1001.53 70.6749 1001.53 81.4867C1001.53 92.2986 1010.3 101.063 1021.11 101.063C1024.91 101.063 1028.45 99.977 1031.45 98.1042C1030.9 97.4958 1030.56 96.6886 1030.56 95.7978Z" stroke="#4D2C5E" stroke-opacity="0.1" stroke-width="1.41041" stroke-miterlimit="10" stroke-linecap="round" stroke-linejoin="round"/>
<path d="M1021.11 55C1011.98 55 1003.92 59.6246 999.162 66.6588C1000.16 67.2553 1000.83 68.3448 1000.83 69.5934C1000.83 71.4782 999.301 73.0092 997.416 73.0092C996.951 73.0092 996.509 72.9137 996.108 72.7467C995.149 75.4865 994.625 78.425 994.625 81.4908C994.625 96.12 1006.49 107.982 1021.12 107.982C1035.74 107.982 1047.61 96.12 1047.61 81.4908C1047.61 66.8616 1035.74 55 1021.11 55Z" stroke="#4D2C5E" stroke-opacity="0.1" stroke-width="1.41041" stroke-miterlimit="10" stroke-linecap="round" stroke-linejoin="round"/>
</svg>
