<svg width="27" height="27" viewBox="0 0 27 27" fill="none" xmlns="http://www.w3.org/2000/svg">
<path d="M8.65572 17.0051L7.7002 24.1992L12.7474 21.1709C12.9121 21.0721 12.9944 21.0227 13.0822 21.0034C13.1599 20.9864 13.2404 20.9864 13.3182 21.0034C13.406 21.0227 13.4883 21.0721 13.653 21.1709L18.7002 24.1992L17.7453 17.002M18.0687 4.67299C18.2386 5.08386 18.5646 5.41045 18.9752 5.58095L20.415 6.17735C20.8259 6.34755 21.1524 6.67401 21.3225 7.08492C21.4927 7.49582 21.4927 7.95751 21.3225 8.36841L20.7266 9.80721C20.5563 10.2183 20.5561 10.6804 20.7271 11.0913L21.3221 12.5297C21.4064 12.7332 21.4499 12.9514 21.4499 13.1717C21.4499 13.392 21.4066 13.6101 21.3223 13.8137C21.238 14.0172 21.1144 14.2022 20.9586 14.3579C20.8028 14.5137 20.6178 14.6372 20.4142 14.7215L18.9755 15.3174C18.5646 15.4873 18.2381 15.8134 18.0676 16.224L17.4712 17.6639C17.301 18.0748 16.9745 18.4012 16.5636 18.5714C16.1528 18.7416 15.6911 18.7416 15.2802 18.5714L13.8415 17.9755C13.4306 17.8057 12.9691 17.806 12.5584 17.9764L11.1186 18.572C10.708 18.7418 10.2467 18.7416 9.83615 18.5716C9.42559 18.4015 9.09933 18.0754 8.92902 17.665L8.33246 16.2247C8.16258 15.8138 7.83649 15.4872 7.42589 15.3167L5.98612 14.7203C5.57541 14.5502 5.24906 14.224 5.0788 13.8133C4.90854 13.4026 4.90831 12.9412 5.07816 12.5303L5.6741 11.0915C5.84388 10.6806 5.84353 10.2191 5.67314 9.80843L5.07805 8.36757C4.99368 8.16405 4.95023 7.9459 4.9502 7.72559C4.95016 7.50528 4.99353 7.28712 5.07784 7.08358C5.16215 6.88003 5.28573 6.6951 5.44154 6.53934C5.59734 6.38358 5.78231 6.26005 5.98587 6.1758L7.42462 5.57983C7.83511 5.41009 8.1615 5.08441 8.33212 4.67427L8.9285 3.23444C9.09869 2.82353 9.42514 2.49707 9.83603 2.32687C10.2469 2.15667 10.7086 2.15667 11.1195 2.32687L12.5582 2.92284C12.9691 3.09262 13.4306 3.09227 13.8413 2.92187L15.2816 2.32779C15.6925 2.15769 16.1541 2.15772 16.5649 2.32789C16.9757 2.49806 17.3021 2.82443 17.4723 3.23522L18.0688 4.67548L18.0687 4.67299Z" stroke="#0F172A" stroke-width="2.2" stroke-linecap="round" stroke-linejoin="round"/>
</svg>
