<svg width="37" height="36" viewBox="0 0 37 36" fill="none" xmlns="http://www.w3.org/2000/svg">
<path d="M8.73681 14.6249C8.73495 13.2907 8.99718 11.9693 9.5084 10.7368C10.0196 9.50443 10.7697 8.38538 11.7154 7.4442C12.6611 6.50302 13.7838 5.75833 15.0186 5.25306C16.2535 4.74778 17.5762 4.49191 18.9104 4.50019C24.4777 4.54158 28.9308 9.16913 28.9308 14.752V15.7499C28.9308 20.7865 29.9846 23.7091 30.9127 25.3065C31.0126 25.4772 31.0658 25.6712 31.0669 25.869C31.0679 26.0669 31.0168 26.2614 30.9187 26.4332C30.8205 26.6049 30.6788 26.7477 30.5079 26.8472C30.3369 26.9467 30.1427 26.9994 29.9449 26.9999H7.72159C7.52375 26.9994 7.32956 26.9467 7.15858 26.8472C6.98761 26.7477 6.84591 26.6048 6.74777 26.4331C6.64963 26.2613 6.59853 26.0667 6.59963 25.8688C6.60072 25.671 6.65397 25.477 6.75399 25.3063C7.68258 23.7088 8.73681 20.7862 8.73681 15.7499L8.73681 14.6249Z" stroke="#1D2026" stroke-width="2.25" stroke-linecap="round" stroke-linejoin="round"/>
<path d="M14.3333 27V28.125C14.3333 29.3185 14.8074 30.4631 15.6513 31.307C16.4952 32.1509 17.6398 32.625 18.8333 32.625C20.0267 32.625 21.1713 32.1509 22.0152 31.307C22.8591 30.4631 23.3333 29.3185 23.3333 28.125V27" stroke="#1D2026" stroke-width="2.25" stroke-linecap="round" stroke-linejoin="round"/>
<circle cx="26.3333" cy="7.5" r="6" fill="#F51A1A" stroke="white" stroke-width="1.5"/>
</svg>

