<svg width="27" height="27" viewBox="0 0 27 27" fill="none" xmlns="http://www.w3.org/2000/svg">
    <path d="M21.502 4.393h-16.2a.81.81 0 0 0-.81.81v16.2c0 .447.363.81.81.81h16.2a.81.81 0 0 0 .81-.81v-16.2a.81.81 0 0 0-.81-.81zM18.262 2.771v3.24M8.541 2.771v3.24M4.492 9.25h17.82" stroke="#555" stroke-width="1.62" stroke-linecap="round" stroke-linejoin="round"/>
    <path d="M9.756 13.3h2.835l-1.62 2.026a1.62 1.62 0 1 1-1.145 2.766M15.021 14.516l1.62-1.215v5.265" stroke="#555" stroke-width="1.62" stroke-linecap="round" stroke-linejoin="round"/>
</svg>
