<svg width="25" height="25" viewBox="0 0 25 25" fill="none" xmlns="http://www.w3.org/2000/svg">
<g clip-path="url(#clip0_394_2282)">
<path d="M12.6086 14.7716C12.2686 14.7716 11.9838 14.6564 11.7542 14.426C11.5238 14.1964 11.4086 13.9116 11.4086 13.5716C11.4086 13.2316 11.5238 12.9464 11.7542 12.716C11.9838 12.4864 12.2686 12.3716 12.6086 12.3716C12.9486 12.3716 13.2338 12.4864 13.4642 12.716C13.6938 12.9464 13.8086 13.2316 13.8086 13.5716C13.8086 13.9116 13.6938 14.1964 13.4642 14.426C13.2338 14.6564 12.9486 14.7716 12.6086 14.7716ZM7.80859 14.7716C7.46859 14.7716 7.18339 14.6564 6.95299 14.426C6.72339 14.1964 6.60859 13.9116 6.60859 13.5716C6.60859 13.2316 6.72339 12.9464 6.95299 12.716C7.18339 12.4864 7.46859 12.3716 7.80859 12.3716C8.14859 12.3716 8.43379 12.4864 8.66419 12.716C8.89379 12.9464 9.00859 13.2316 9.00859 13.5716C9.00859 13.9116 8.89379 14.1964 8.66419 14.426C8.43379 14.6564 8.14859 14.7716 7.80859 14.7716ZM17.4086 14.7716C17.0686 14.7716 16.7838 14.6564 16.5542 14.426C16.3238 14.1964 16.2086 13.9116 16.2086 13.5716C16.2086 13.2316 16.3238 12.9464 16.5542 12.716C16.7838 12.4864 17.0686 12.3716 17.4086 12.3716C17.7486 12.3716 18.0334 12.4864 18.263 12.716C18.4934 12.9464 18.6086 13.2316 18.6086 13.5716C18.6086 13.9116 18.4934 14.1964 18.263 14.426C18.0334 14.6564 17.7486 14.7716 17.4086 14.7716ZM12.6086 19.5716C12.2686 19.5716 11.9838 19.4564 11.7542 19.226C11.5238 18.9964 11.4086 18.7116 11.4086 18.3716C11.4086 18.0316 11.5238 17.7468 11.7542 17.5172C11.9838 17.2868 12.2686 17.1716 12.6086 17.1716C12.9486 17.1716 13.2338 17.2868 13.4642 17.5172C13.6938 17.7468 13.8086 18.0316 13.8086 18.3716C13.8086 18.7116 13.6938 18.9964 13.4642 19.226C13.2338 19.4564 12.9486 19.5716 12.6086 19.5716ZM7.80859 19.5716C7.46859 19.5716 7.18339 19.4564 6.95299 19.226C6.72339 18.9964 6.60859 18.7116 6.60859 18.3716C6.60859 18.0316 6.72339 17.7468 6.95299 17.5172C7.18339 17.2868 7.46859 17.1716 7.80859 17.1716C8.14859 17.1716 8.43379 17.2868 8.66419 17.5172C8.89379 17.7468 9.00859 18.0316 9.00859 18.3716C9.00859 18.7116 8.89379 18.9964 8.66419 19.226C8.43379 19.4564 8.14859 19.5716 7.80859 19.5716ZM17.4086 19.5716C17.0686 19.5716 16.7838 19.4564 16.5542 19.226C16.3238 18.9964 16.2086 18.7116 16.2086 18.3716C16.2086 18.0316 16.3238 17.7468 16.5542 17.5172C16.7838 17.2868 17.0686 17.1716 17.4086 17.1716C17.7486 17.1716 18.0334 17.2868 18.263 17.5172C18.4934 17.7468 18.6086 18.0316 18.6086 18.3716C18.6086 18.7116 18.4934 18.9964 18.263 19.226C18.0334 19.4564 17.7486 19.5716 17.4086 19.5716ZM4.20859 24.3716C3.54859 24.3716 2.98339 24.1368 2.51299 23.6672C2.04339 23.1968 1.80859 22.6316 1.80859 21.9716V5.17158C1.80859 4.51158 2.04339 3.94678 2.51299 3.47718C2.98339 3.00678 3.54859 2.77158 4.20859 2.77158H5.40859V0.371582H7.80859V2.77158H17.4086V0.371582H19.8086V2.77158H21.0086C21.6686 2.77158 22.2338 3.00678 22.7042 3.47718C23.1738 3.94678 23.4086 4.51158 23.4086 5.17158V21.9716C23.4086 22.6316 23.1738 23.1968 22.7042 23.6672C22.2338 24.1368 21.6686 24.3716 21.0086 24.3716H4.20859ZM4.20859 21.9716H21.0086V9.97158H4.20859V21.9716Z" fill="#2A6EED"/>
</g>
<defs>
<clipPath id="clip0_394_2282">
<rect width="24" height="24" fill="white" transform="translate(0.308594 0.371582)"/>
</clipPath>
</defs>
</svg>
