<svg width="266" height="232" viewBox="0 0 266 232" fill="none" xmlns="http://www.w3.org/2000/svg">
<path d="M254.054 12.2312C250.678 12.2312 247.941 9.49312 247.941 6.11558C247.941 2.73804 250.678 0 254.054 0C257.429 0 260.166 2.73804 260.166 6.11558C260.166 9.49312 257.429 12.2312 254.054 12.2312Z" fill="#263238" fill-opacity="0.15"/>
<path d="M223.112 12.2312C219.736 12.2312 217 9.49312 217 6.11558C217 2.73804 219.736 0 223.112 0C226.488 0 229.225 2.73804 229.225 6.11558C229.225 9.49312 226.488 12.2312 223.112 12.2312Z" fill="#263238" fill-opacity="0.15"/>
<path d="M192.169 12.2312C188.793 12.2312 186.056 9.49312 186.056 6.11558C186.056 2.73804 188.793 0 192.169 0C195.545 0 198.281 2.73804 198.281 6.11558C198.281 9.49312 195.545 12.2312 192.169 12.2312Z" fill="#263238" fill-opacity="0.15"/>
<path d="M161.225 12.2312C157.85 12.2312 155.113 9.49312 155.113 6.11558C155.113 2.73804 157.85 0 161.225 0C164.601 0 167.338 2.73804 167.338 6.11558C167.338 9.49312 164.601 12.2312 161.225 12.2312Z" fill="#263238" fill-opacity="0.15"/>
<path d="M254.054 43.5808C250.678 43.5808 247.941 40.8427 247.941 37.4652C247.941 34.0876 250.678 31.3496 254.054 31.3496C257.429 31.3496 260.166 34.0876 260.166 37.4652C260.166 40.8427 257.429 43.5808 254.054 43.5808Z" fill="#263238" fill-opacity="0.15"/>
<path d="M223.112 43.5808C219.736 43.5808 217 40.8427 217 37.4652C217 34.0876 219.736 31.3496 223.112 31.3496C226.488 31.3496 229.225 34.0876 229.225 37.4652C229.225 40.8427 226.488 43.5808 223.112 43.5808Z" fill="#263238" fill-opacity="0.15"/>
<path d="M192.169 43.5808C188.793 43.5808 186.056 40.8427 186.056 37.4652C186.056 34.0876 188.793 31.3496 192.169 31.3496C195.545 31.3496 198.281 34.0876 198.281 37.4652C198.281 40.8427 195.545 43.5808 192.169 43.5808Z" fill="#2A6EED" fill-opacity="0.5"/>
<path d="M161.225 43.5808C157.85 43.5808 155.113 40.8427 155.113 37.4652C155.113 34.0876 157.85 31.3496 161.225 31.3496C164.601 31.3496 167.338 34.0876 167.338 37.4652C167.338 40.8427 164.601 43.5808 161.225 43.5808Z" fill="#263238" fill-opacity="0.15"/>
<path d="M99.3407 43.5808C95.9649 43.5808 93.2283 40.8427 93.2283 37.4652C93.2283 34.0876 95.9649 31.3496 99.3407 31.3496C102.717 31.3496 105.453 34.0876 105.453 37.4652C105.453 40.8427 102.717 43.5808 99.3407 43.5808Z" fill="#263238" fill-opacity="0.15"/>
<path d="M254.054 74.9245C250.678 74.9245 247.941 72.1865 247.941 68.8089C247.941 65.4314 250.678 62.6934 254.054 62.6934C257.429 62.6934 260.166 65.4314 260.166 68.8089C260.166 72.1865 257.429 74.9245 254.054 74.9245Z" fill="#2A6EED" fill-opacity="0.5"/>
<path d="M223.112 74.9245C219.736 74.9245 217 72.1865 217 68.8089C217 65.4314 219.736 62.6934 223.112 62.6934C226.488 62.6934 229.225 65.4314 229.225 68.8089C229.225 72.1865 226.488 74.9245 223.112 74.9245Z" fill="#263238" fill-opacity="0.15"/>
<path d="M192.169 74.9245C188.793 74.9245 186.056 72.1865 186.056 68.8089C186.056 65.4314 188.793 62.6934 192.169 62.6934C195.545 62.6934 198.281 65.4314 198.281 68.8089C198.281 72.1865 195.545 74.9245 192.169 74.9245Z" fill="#263238" fill-opacity="0.15"/>
<path d="M161.225 74.9245C157.85 74.9245 155.113 72.1865 155.113 68.8089C155.113 65.4314 157.85 62.6934 161.225 62.6934C164.601 62.6934 167.338 65.4314 167.338 68.8089C167.338 72.1865 164.601 74.9245 161.225 74.9245Z" fill="#263238" fill-opacity="0.15"/>
<path d="M254.054 106.274C250.678 106.274 247.941 103.536 247.941 100.159C247.941 96.781 250.678 94.043 254.054 94.043C257.429 94.043 260.166 96.781 260.166 100.159C260.166 103.536 257.429 106.274 254.054 106.274Z" fill="#263238" fill-opacity="0.15"/>
<path d="M223.112 106.274C219.736 106.274 217 103.536 217 100.159C217 96.781 219.736 94.043 223.112 94.043C226.488 94.043 229.225 96.781 229.225 100.159C229.225 103.536 226.488 106.274 223.112 106.274Z" fill="#263238" fill-opacity="0.15"/>
<path d="M192.169 106.274C188.793 106.274 186.056 103.536 186.056 100.159C186.056 96.781 188.793 94.043 192.169 94.043C195.545 94.043 198.281 96.781 198.281 100.159C198.281 103.536 195.545 106.274 192.169 106.274Z" fill="#263238" fill-opacity="0.15"/>
<path d="M161.225 106.274C157.85 106.274 155.113 103.536 155.113 100.159C155.113 96.781 157.85 94.043 161.225 94.043C164.601 94.043 167.338 96.781 167.338 100.159C167.338 103.536 164.601 106.274 161.225 106.274Z" fill="#263238" fill-opacity="0.15"/>
<path d="M130.282 106.274C126.906 106.274 124.17 103.536 124.17 100.159C124.17 96.781 126.906 94.043 130.282 94.043C133.658 94.043 136.395 96.781 136.395 100.159C136.395 103.536 133.658 106.274 130.282 106.274Z" fill="#2A6EED" fill-opacity="0.5"/>
<path d="M99.3407 106.274C95.9649 106.274 93.2283 103.536 93.2283 100.159C93.2283 96.781 95.9649 94.043 99.3407 94.043C102.717 94.043 105.453 96.781 105.453 100.159C105.453 103.536 102.717 106.274 99.3407 106.274Z" fill="#263238" fill-opacity="0.15"/>
<path d="M68.3973 106.274C65.0215 106.274 62.2849 103.536 62.2849 100.159C62.2849 96.781 65.0215 94.043 68.3973 94.043C71.7731 94.043 74.5098 96.781 74.5098 100.159C74.5098 103.536 71.7731 106.274 68.3973 106.274Z" fill="#263238" fill-opacity="0.15"/>
<path d="M37.454 106.274C34.0782 106.274 31.3416 103.536 31.3416 100.159C31.3416 96.781 34.0782 94.043 37.454 94.043C40.8298 94.043 43.5664 96.781 43.5664 100.159C43.5664 103.536 40.8298 106.274 37.454 106.274Z" fill="#263238" fill-opacity="0.15"/>
<path d="M6.51258 106.274C3.13678 106.274 0.40016 103.536 0.40016 100.159C0.40016 96.781 3.13678 94.043 6.51258 94.043C9.88838 94.043 12.625 96.781 12.625 100.159C12.625 103.536 9.88838 106.274 6.51258 106.274Z" fill="#263238" fill-opacity="0.15"/>
<path d="M99.3407 137.618C95.9649 137.618 93.2283 134.88 93.2283 131.502C93.2283 128.125 95.9649 125.387 99.3407 125.387C102.717 125.387 105.453 128.125 105.453 131.502C105.453 134.88 102.717 137.618 99.3407 137.618Z" fill="#263238" fill-opacity="0.15"/>
<path d="M68.3973 137.618C65.0215 137.618 62.2849 134.88 62.2849 131.502C62.2849 128.125 65.0215 125.387 68.3973 125.387C71.7731 125.387 74.5098 128.125 74.5098 131.502C74.5098 134.88 71.7731 137.618 68.3973 137.618Z" fill="#263238" fill-opacity="0.15"/>
<path d="M37.454 137.618C34.0782 137.618 31.3416 134.88 31.3416 131.502C31.3416 128.125 34.0782 125.387 37.454 125.387C40.8298 125.387 43.5664 128.125 43.5664 131.502C43.5664 134.88 40.8298 137.618 37.454 137.618Z" fill="#263238" fill-opacity="0.15"/>
<path d="M6.51258 137.618C3.13678 137.618 0.40016 134.88 0.40016 131.502C0.40016 128.125 3.13678 125.387 6.51258 125.387C9.88838 125.387 12.625 128.125 12.625 131.502C12.625 134.88 9.88838 137.618 6.51258 137.618Z" fill="#263238" fill-opacity="0.15"/>
<path d="M99.3407 168.969C95.9649 168.969 93.2283 166.231 93.2283 162.854C93.2283 159.476 95.9649 156.738 99.3407 156.738C102.717 156.738 105.453 159.476 105.453 162.854C105.453 166.231 102.717 168.969 99.3407 168.969Z" fill="#2A6EED" fill-opacity="0.5"/>
<path d="M68.3973 168.969C65.0215 168.969 62.2849 166.231 62.2849 162.854C62.2849 159.476 65.0215 156.738 68.3973 156.738C71.7731 156.738 74.5098 159.476 74.5098 162.854C74.5098 166.231 71.7731 168.969 68.3973 168.969Z" fill="#263238" fill-opacity="0.15"/>
<path d="M37.454 168.969C34.0782 168.969 31.3416 166.231 31.3416 162.854C31.3416 159.476 34.0782 156.738 37.454 156.738C40.8298 156.738 43.5664 159.476 43.5664 162.854C43.5664 166.231 40.8298 168.969 37.454 168.969Z" fill="#2A6EED" fill-opacity="0.5"/>
<path d="M6.51258 168.969C3.13678 168.969 0.40016 166.231 0.40016 162.854C0.40016 159.476 3.13678 156.738 6.51258 156.738C9.88838 156.738 12.625 159.476 12.625 162.854C12.625 166.231 9.88838 168.969 6.51258 168.969Z" fill="#263238" fill-opacity="0.15"/>
<path d="M99.3407 200.317C95.9649 200.317 93.2283 197.579 93.2283 194.202C93.2283 190.824 95.9649 188.086 99.3407 188.086C102.717 188.086 105.453 190.824 105.453 194.202C105.453 197.579 102.717 200.317 99.3407 200.317Z" fill="#263238" fill-opacity="0.15"/>
<path d="M68.3973 200.317C65.0215 200.317 62.2849 197.579 62.2849 194.202C62.2849 190.824 65.0215 188.086 68.3973 188.086C71.7731 188.086 74.5098 190.824 74.5098 194.202C74.5098 197.579 71.7731 200.317 68.3973 200.317Z" fill="#263238" fill-opacity="0.15"/>
<path d="M37.454 200.317C34.0782 200.317 31.3416 197.579 31.3416 194.202C31.3416 190.824 34.0782 188.086 37.454 188.086C40.8298 188.086 43.5664 190.824 43.5664 194.202C43.5664 197.579 40.8298 200.317 37.454 200.317Z" fill="#2A6EED" fill-opacity="0.5"/>
<path d="M6.51258 200.317C3.13678 200.317 0.40016 197.579 0.40016 194.202C0.40016 190.824 3.13678 188.086 6.51258 188.086C9.88838 188.086 12.625 190.824 12.625 194.202C12.625 197.579 9.88838 200.317 6.51258 200.317Z" fill="#263238" fill-opacity="0.15"/>
<path d="M99.3407 231.661C95.9649 231.661 93.2283 228.923 93.2283 225.545C93.2283 222.168 95.9649 219.43 99.3407 219.43C102.717 219.43 105.453 222.168 105.453 225.545C105.453 228.923 102.717 231.661 99.3407 231.661Z" fill="#263238" fill-opacity="0.15"/>
<path d="M68.3973 231.661C65.0215 231.661 62.2849 228.923 62.2849 225.545C62.2849 222.168 65.0215 219.43 68.3973 219.43C71.7731 219.43 74.5098 222.168 74.5098 225.545C74.5098 228.923 71.7731 231.661 68.3973 231.661Z" fill="#263238" fill-opacity="0.15"/>
<path d="M37.454 231.661C34.0782 231.661 31.3416 228.923 31.3416 225.545C31.3416 222.168 34.0782 219.43 37.454 219.43C40.8298 219.43 43.5664 222.168 43.5664 225.545C43.5664 228.923 40.8298 231.661 37.454 231.661Z" fill="#263238" fill-opacity="0.15"/>
<path d="M6.51258 231.661C3.13678 231.661 0.40016 228.923 0.40016 225.545C0.40016 222.168 3.13678 219.43 6.51258 219.43C9.88838 219.43 12.625 222.168 12.625 225.545C12.625 228.923 9.88838 231.661 6.51258 231.661Z" fill="#263238" fill-opacity="0.15"/>
</svg>
