<svg width="266" height="232" viewBox="0 0 266 232" fill="none" xmlns="http://www.w3.org/2000/svg">
<path d="M259.487 219.531C256.111 219.531 253.375 222.269 253.375 225.646C253.375 229.024 256.111 231.762 259.487 231.762C262.863 231.762 265.6 229.024 265.6 225.646C265.6 222.269 262.863 219.531 259.487 219.531Z" fill="#263238" fill-opacity="0.15"/>
<path d="M228.544 219.531C225.168 219.531 222.431 222.269 222.431 225.646C222.431 229.024 225.168 231.762 228.544 231.762C231.92 231.762 234.656 229.024 234.656 225.646C234.656 222.269 231.92 219.531 228.544 219.531Z" fill="#263238" fill-opacity="0.15"/>
<path d="M197.602 219.531C194.227 219.531 191.49 222.269 191.49 225.646C191.49 229.024 194.227 231.762 197.602 231.762C200.978 231.762 203.715 229.024 203.715 225.646C203.715 222.269 200.978 219.531 197.602 219.531Z" fill="#263238" fill-opacity="0.15"/>
<path d="M166.659 219.531C163.283 219.531 160.547 222.269 160.547 225.646C160.547 229.024 163.283 231.762 166.659 231.762C170.035 231.762 172.771 229.024 172.771 225.646C172.771 222.269 170.035 219.531 166.659 219.531Z" fill="#263238" fill-opacity="0.15"/>
<path d="M135.716 219.531C132.34 219.531 129.603 222.269 129.603 225.646C129.603 229.024 132.34 231.762 135.716 231.762C139.092 231.762 141.828 229.024 141.828 225.646C141.828 222.269 139.092 219.531 135.716 219.531Z" fill="#263238" fill-opacity="0.15"/>
<path d="M259.487 188.183C256.111 188.183 253.375 190.921 253.375 194.298C253.375 197.676 256.111 200.414 259.487 200.414C262.863 200.414 265.6 197.676 265.6 194.298C265.6 190.921 262.863 188.183 259.487 188.183Z" fill="#2A6EED" fill-opacity="0.5"/>
<path d="M228.544 188.183C225.168 188.183 222.431 190.921 222.431 194.298C222.431 197.676 225.168 200.414 228.544 200.414C231.92 200.414 234.656 197.676 234.656 194.298C234.656 190.921 231.92 188.183 228.544 188.183Z" fill="#263238" fill-opacity="0.15"/>
<path d="M197.602 188.183C194.227 188.183 191.49 190.921 191.49 194.298C191.49 197.676 194.227 200.414 197.602 200.414C200.978 200.414 203.715 197.676 203.715 194.298C203.715 190.921 200.978 188.183 197.602 188.183Z" fill="#263238" fill-opacity="0.15"/>
<path d="M166.659 188.183C163.283 188.183 160.547 190.921 160.547 194.298C160.547 197.676 163.283 200.414 166.659 200.414C170.035 200.414 172.771 197.676 172.771 194.298C172.771 190.921 170.035 188.183 166.659 188.183Z" fill="#2A6EED" fill-opacity="0.5"/>
<path d="M135.716 188.183C132.34 188.183 129.603 190.921 129.603 194.298C129.603 197.676 132.34 200.414 135.716 200.414C139.092 200.414 141.828 197.676 141.828 194.298C141.828 190.921 139.092 188.183 135.716 188.183Z" fill="#263238" fill-opacity="0.15"/>
<path d="M73.8309 188.183C70.4551 188.183 67.7185 190.921 67.7185 194.298C67.7185 197.676 70.4551 200.414 73.8309 200.414C77.2067 200.414 79.9434 197.676 79.9434 194.298C79.9434 190.921 77.2067 188.183 73.8309 188.183Z" fill="#263238" fill-opacity="0.15"/>
<path d="M259.487 156.835C256.111 156.835 253.375 159.573 253.375 162.951C253.375 166.328 256.111 169.066 259.487 169.066C262.863 169.066 265.6 166.328 265.6 162.951C265.6 159.573 262.863 156.835 259.487 156.835Z" fill="#263238" fill-opacity="0.15"/>
<path d="M228.544 156.835C225.168 156.835 222.431 159.573 222.431 162.951C222.431 166.328 225.168 169.066 228.544 169.066C231.92 169.066 234.656 166.328 234.656 162.951C234.656 159.573 231.92 156.835 228.544 156.835Z" fill="#2A6EED" fill-opacity="0.5"/>
<path d="M197.602 156.835C194.227 156.835 191.49 159.573 191.49 162.951C191.49 166.328 194.227 169.066 197.602 169.066C200.978 169.066 203.715 166.328 203.715 162.951C203.715 159.573 200.978 156.835 197.602 156.835Z" fill="#263238" fill-opacity="0.15"/>
<path d="M166.659 156.835C163.283 156.835 160.547 159.573 160.547 162.951C160.547 166.328 163.283 169.066 166.659 169.066C170.035 169.066 172.771 166.328 172.771 162.951C172.771 159.573 170.035 156.835 166.659 156.835Z" fill="#263238" fill-opacity="0.15"/>
<path d="M135.716 156.835C132.34 156.835 129.603 159.573 129.603 162.951C129.603 166.328 132.34 169.066 135.716 169.066C139.092 169.066 141.828 166.328 141.828 162.951C141.828 159.573 139.092 156.835 135.716 156.835Z" fill="#263238" fill-opacity="0.15"/>
<path d="M259.487 125.488C256.111 125.488 253.375 128.226 253.375 131.603C253.375 134.981 256.111 137.719 259.487 137.719C262.863 137.719 265.6 134.981 265.6 131.603C265.6 128.226 262.863 125.488 259.487 125.488Z" fill="#263238" fill-opacity="0.15"/>
<path d="M228.544 125.488C225.168 125.488 222.431 128.226 222.431 131.603C222.431 134.981 225.168 137.719 228.544 137.719C231.92 137.719 234.656 134.981 234.656 131.603C234.656 128.226 231.92 125.488 228.544 125.488Z" fill="#263238" fill-opacity="0.15"/>
<path d="M197.602 125.488C194.227 125.488 191.49 128.226 191.49 131.603C191.49 134.981 194.227 137.719 197.602 137.719C200.978 137.719 203.715 134.981 203.715 131.603C203.715 128.226 200.978 125.488 197.602 125.488Z" fill="#263238" fill-opacity="0.15"/>
<path d="M166.659 125.488C163.283 125.488 160.547 128.226 160.547 131.603C160.547 134.981 163.283 137.719 166.659 137.719C170.035 137.719 172.771 134.981 172.771 131.603C172.771 128.226 170.035 125.488 166.659 125.488Z" fill="#263238" fill-opacity="0.15"/>
<path d="M135.716 125.488C132.34 125.488 129.603 128.226 129.603 131.603C129.603 134.981 132.34 137.719 135.716 137.719C139.092 137.719 141.828 134.981 141.828 131.603C141.828 128.226 139.092 125.488 135.716 125.488Z" fill="#263238" fill-opacity="0.15"/>
<path d="M104.774 125.488C101.399 125.488 98.6619 128.226 98.6619 131.603C98.6619 134.981 101.399 137.719 104.774 137.719C108.15 137.719 110.887 134.981 110.887 131.603C110.887 128.226 108.15 125.488 104.774 125.488Z" fill="#2A6EED" fill-opacity="0.5"/>
<path d="M73.8309 125.488C70.4551 125.488 67.7185 128.226 67.7185 131.603C67.7185 134.981 70.4551 137.719 73.8309 137.719C77.2067 137.719 79.9434 134.981 79.9434 131.603C79.9434 128.226 77.2067 125.488 73.8309 125.488Z" fill="#263238" fill-opacity="0.15"/>
<path d="M42.8876 125.488C39.5118 125.488 36.7752 128.226 36.7752 131.603C36.7752 134.981 39.5118 137.719 42.8876 137.719C46.2634 137.719 49 134.981 49 131.603C49 128.226 46.2634 125.488 42.8876 125.488Z" fill="#263238" fill-opacity="0.15"/>
<path d="M11.9442 125.488C8.56842 125.488 5.8318 128.226 5.8318 131.603C5.8318 134.981 8.56842 137.719 11.9442 137.719C15.32 137.719 18.0566 134.981 18.0566 131.603C18.0566 128.226 15.32 125.488 11.9442 125.488Z" fill="#263238" fill-opacity="0.15"/>
<path d="M73.8309 94.1438C70.4551 94.1438 67.7185 96.8819 67.7185 100.259C67.7185 103.637 70.4551 106.375 73.8309 106.375C77.2067 106.375 79.9434 103.637 79.9434 100.259C79.9434 96.8819 77.2067 94.1438 73.8309 94.1438Z" fill="#263238" fill-opacity="0.15"/>
<path d="M42.8876 94.1438C39.5118 94.1438 36.7752 96.8819 36.7752 100.259C36.7752 103.637 39.5118 106.375 42.8876 106.375C46.2634 106.375 49 103.637 49 100.259C49 96.8819 46.2634 94.1438 42.8876 94.1438Z" fill="#263238" fill-opacity="0.15"/>
<path d="M11.9442 94.1438C8.56842 94.1438 5.8318 96.8819 5.8318 100.259C5.8318 103.637 8.56842 106.375 11.9442 106.375C15.32 106.375 18.0566 103.637 18.0566 100.259C18.0566 96.8819 15.32 94.1438 11.9442 94.1438Z" fill="#263238" fill-opacity="0.15"/>
<path d="M73.8309 62.7923C70.4551 62.7923 67.7185 65.5303 67.7185 68.9079C67.7185 72.2854 70.4551 75.0234 73.8309 75.0234C77.2067 75.0234 79.9434 72.2854 79.9434 68.9079C79.9434 65.5303 77.2067 62.7923 73.8309 62.7923Z" fill="#2A6EED" fill-opacity="0.5"/>
<path d="M42.8876 62.7923C39.5118 62.7923 36.7752 65.5303 36.7752 68.9079C36.7752 72.2854 39.5118 75.0234 42.8876 75.0234C46.2634 75.0234 49 72.2854 49 68.9079C49 65.5303 46.2634 62.7923 42.8876 62.7923Z" fill="#263238" fill-opacity="0.15"/>
<path d="M11.9442 62.7923C8.56842 62.7923 5.8318 65.5303 5.8318 68.9079C5.8318 72.2854 8.56842 75.0234 11.9442 75.0234C15.32 75.0234 18.0566 72.2854 18.0566 68.9079C18.0566 65.5303 15.32 62.7923 11.9442 62.7923Z" fill="#2A6EED" fill-opacity="0.5"/>
<path d="M73.8309 31.4446C70.4551 31.4446 67.7185 34.1827 67.7185 37.5602C67.7185 40.9377 70.4551 43.6758 73.8309 43.6758C77.2067 43.6758 79.9434 40.9377 79.9434 37.5602C79.9434 34.1827 77.2067 31.4446 73.8309 31.4446Z" fill="#263238" fill-opacity="0.15"/>
<path d="M42.8876 31.4446C39.5118 31.4446 36.7752 34.1827 36.7752 37.5602C36.7752 40.9377 39.5118 43.6758 42.8876 43.6758C46.2634 43.6758 49 40.9377 49 37.5602C49 34.1827 46.2634 31.4446 42.8876 31.4446Z" fill="#263238" fill-opacity="0.15"/>
<path d="M11.9442 31.4446C8.56842 31.4446 5.8318 34.1827 5.8318 37.5602C5.8318 40.9377 8.56842 43.6758 11.9442 43.6758C15.32 43.6758 18.0566 40.9377 18.0566 37.5602C18.0566 34.1827 15.32 31.4446 11.9442 31.4446Z" fill="#2A6EED" fill-opacity="0.5"/>
<path d="M73.8309 0.100876C70.4551 0.100876 67.7185 2.83891 67.7185 6.21645C67.7185 9.59399 70.4551 12.332 73.8309 12.332C77.2067 12.332 79.9434 9.59399 79.9434 6.21645C79.9434 2.83891 77.2067 0.100876 73.8309 0.100876Z" fill="#263238" fill-opacity="0.15"/>
<path d="M42.8876 0.100876C39.5118 0.100876 36.7752 2.83891 36.7752 6.21645C36.7752 9.59399 39.5118 12.332 42.8876 12.332C46.2634 12.332 49 9.59399 49 6.21645C49 2.83891 46.2634 0.100876 42.8876 0.100876Z" fill="#263238" fill-opacity="0.15"/>
<path d="M11.9442 0.100876C8.56842 0.100876 5.8318 2.83891 5.8318 6.21645C5.8318 9.59399 8.56842 12.332 11.9442 12.332C15.32 12.332 18.0566 9.59399 18.0566 6.21645C18.0566 2.83891 15.32 0.100876 11.9442 0.100876Z" fill="#263238" fill-opacity="0.15"/>
</svg>
