<svg width="16" height="16" viewBox="0 0 16 16" fill="none" xmlns="http://www.w3.org/2000/svg">
<rect x="1.208" y="1.208" width="13.464" height="13.464" rx="6.732" fill="#D1031B" stroke="#D1031B" stroke-width="1.584"/>
<path d="M11.2961 10.9015C11.0202 11.1774 10.5603 11.1774 10.2843 10.9015L7.939 8.55619L5.59366 10.9015C5.31775 11.1774 4.85785 11.1774 4.58193 10.9015C4.30602 10.6256 4.30602 10.1657 4.58193 9.88981L6.92728 7.54447L4.58193 5.19913C4.30602 4.92321 4.30602 4.46332 4.58193 4.1874C4.85785 3.91149 5.31775 3.91149 5.59366 4.1874L7.939 6.53274L10.2843 4.1874C10.5603 3.91149 11.0202 3.91149 11.2961 4.1874C11.572 4.46332 11.572 4.92321 11.2961 5.19913L8.95072 7.54447L11.2961 9.88981C11.572 10.1657 11.572 10.6256 11.2961 10.9015Z" fill="white"/>
</svg>
