<svg width="19" height="32" viewBox="0 0 19 32" fill="none" xmlns="http://www.w3.org/2000/svg">
<path d="M15.4842 16.2618C13.9988 17.5488 12.1254 18.3016 10.1624 18.4C8.19949 18.4984 6.2601 17.9369 4.6534 16.805C3.0467 15.6731 1.86517 14.0358 1.29715 12.1543C0.729141 10.2728 0.807339 8.25526 1.51928 6.42334C2.23123 4.59142 3.53594 3.05056 5.22544 2.04638C6.91493 1.0422 8.89197 0.632494 10.8414 0.882581C12.7908 1.13267 14.6004 2.02815 15.9817 3.42628C17.363 4.82441 18.2365 6.64471 18.463 8.59701C19.2462 12.579 19.2374 17.3244 17.4422 21.577C15.5458 26.065 11.72 29.849 5.18821 31.5584C4.97787 31.6156 4.75827 31.6306 4.54211 31.6024C4.32595 31.5743 4.11751 31.5036 3.92883 31.3944C3.74015 31.2852 3.57498 31.1397 3.44285 30.9664C3.31072 30.793 3.21426 30.5951 3.15903 30.3843C3.10381 30.1734 3.09091 29.9537 3.1211 29.7378C3.15128 29.5219 3.22394 29.3141 3.33489 29.1265C3.44583 28.9388 3.59286 28.775 3.76747 28.6445C3.94209 28.514 4.14083 28.4195 4.35221 28.3662C9.92041 26.9076 12.9146 23.8122 14.4018 20.2922C14.9382 19.0022 15.3021 17.647 15.4842 16.2618V16.2618Z" fill="url(#paint0_linear_990_11918)"/>
<defs>
<linearGradient id="paint0_linear_990_11918" x1="18.9591" y1="0.811035" x2="-7.90538" y2="16.5411" gradientUnits="userSpaceOnUse">
<stop stop-color="#A3C3FE"/>
<stop offset="1" stop-color="#2A6EED"/>
</linearGradient>
</defs>
</svg>
