<svg width="16" height="16" viewBox="0 0 16 16" fill="none" xmlns="http://www.w3.org/2000/svg">
<rect x="1.208" y="1.208" width="13.464" height="13.464" rx="6.732" fill="#258F6E" stroke="#258F6E" stroke-width="1.584"/>
<path d="M7.01122 10.4083C6.97375 10.446 6.9292 10.4759 6.88013 10.4963C6.83106 10.5167 6.77844 10.5272 6.7253 10.5272C6.67216 10.5272 6.61954 10.5167 6.57048 10.4963C6.52141 10.4759 6.47686 10.446 6.43939 10.4083L4.15612 8.12464C4.0424 8.01089 3.97852 7.85662 3.97852 7.69577C3.97852 7.53492 4.0424 7.38065 4.15612 7.2669L4.44204 6.98099C4.55579 6.86726 4.71006 6.80338 4.87091 6.80338C5.03176 6.80338 5.18602 6.86726 5.29978 6.98099L6.7253 8.40651L10.5773 4.55456C10.691 4.44084 10.8453 4.37695 11.0061 4.37695C11.167 4.37695 11.3212 4.44084 11.435 4.55456L11.7209 4.84047C11.8346 4.95423 11.8985 5.10849 11.8985 5.26934C11.8985 5.43019 11.8346 5.58446 11.7209 5.69821L7.01122 10.4083Z" fill="white"/>
</svg>
