<svg width="25" height="25" viewBox="0 0 25 25" fill="none" xmlns="http://www.w3.org/2000/svg">
<path d="M9.06445 9.33789H9.07445M15.0645 15.3379H15.0745M16.0645 8.33789L8.06445 16.3379M9.56445 9.33789C9.56445 9.61403 9.3406 9.83789 9.06445 9.83789C8.78831 9.83789 8.56445 9.61403 8.56445 9.33789C8.56445 9.06175 8.78831 8.83789 9.06445 8.83789C9.3406 8.83789 9.56445 9.06175 9.56445 9.33789ZM15.5645 15.3379C15.5645 15.614 15.3406 15.8379 15.0645 15.8379C14.7883 15.8379 14.5645 15.614 14.5645 15.3379C14.5645 15.0617 14.7883 14.8379 15.0645 14.8379C15.3406 14.8379 15.5645 15.0617 15.5645 15.3379ZM22.0645 12.3379C22.0645 17.8607 17.5873 22.3379 12.0645 22.3379C6.54161 22.3379 2.06445 17.8607 2.06445 12.3379C2.06445 6.81504 6.54161 2.33789 12.0645 2.33789C17.5873 2.33789 22.0645 6.81504 22.0645 12.3379Z" stroke="#2A6EED" stroke-width="2" stroke-linecap="round" stroke-linejoin="round"/>
</svg>
