<svg width="32" height="32" viewBox="0 0 32 32" fill="none" xmlns="http://www.w3.org/2000/svg">
<path d="M15.7793 3.52344V6.44844" stroke="#FF6636" stroke-width="2.028" stroke-linecap="round" stroke-linejoin="round"/>
<path d="M15.7793 25.9473V28.8723" stroke="#FF6636" stroke-width="2.028" stroke-linecap="round" stroke-linejoin="round"/>
<path d="M22.6045 11.3223C22.6045 10.6821 22.4784 10.0481 22.2334 9.45668C21.9884 8.86522 21.6293 8.32781 21.1766 7.87512C20.724 7.42243 20.1865 7.06334 19.5951 6.81835C19.0036 6.57336 18.3697 6.44727 17.7295 6.44727H13.342C12.0491 6.44727 10.8091 6.96088 9.89485 7.87512C8.98061 8.78936 8.46699 10.0293 8.46699 11.3223C8.46699 12.6152 8.98061 13.8552 9.89485 14.7694C10.8091 15.6837 12.0491 16.1973 13.342 16.1973H18.7045C19.9974 16.1973 21.2374 16.7109 22.1516 17.6251C23.0659 18.5394 23.5795 19.7793 23.5795 21.0723C23.5795 22.3652 23.0659 23.6052 22.1516 24.5194C21.2374 25.4337 19.9974 25.9473 18.7045 25.9473H12.8545C11.5616 25.9473 10.3216 25.4337 9.40735 24.5194C8.49311 23.6052 7.97949 22.3652 7.97949 21.0723" stroke="#FF6636" stroke-width="2.34" stroke-linecap="round" stroke-linejoin="round"/>
</svg>
