<svg width="26" height="26" viewBox="0 0 26 26" fill="none" xmlns="http://www.w3.org/2000/svg">
<path d="M13.3115 7.5957V9.1707" stroke="#FF782D" stroke-width="1.8" stroke-linecap="round" stroke-linejoin="round"/>
<path d="M13.3115 17.0449V18.6199" stroke="#FF782D" stroke-width="1.8" stroke-linecap="round" stroke-linejoin="round"/>
<path d="M13.3123 22.5582C18.5314 22.5582 22.7623 18.3273 22.7623 13.1082C22.7623 7.88911 18.5314 3.6582 13.3123 3.6582C8.09321 3.6582 3.8623 7.88911 3.8623 13.1082C3.8623 18.3273 8.09321 22.5582 13.3123 22.5582Z" stroke="#FF782D" stroke-width="1.8" stroke-linecap="round" stroke-linejoin="round"/>
<path d="M10.9496 17.0449H14.4934C15.0155 17.0449 15.5163 16.8375 15.8855 16.4683C16.2547 16.0991 16.4621 15.5983 16.4621 15.0762C16.4621 14.554 16.2547 14.0533 15.8855 13.6841C15.5163 13.3148 15.0155 13.1074 14.4934 13.1074H12.1309C11.6087 13.1074 11.108 12.9 10.7387 12.5308C10.3695 12.1616 10.1621 11.6608 10.1621 11.1387C10.1621 10.6165 10.3695 10.1158 10.7387 9.74656C11.108 9.37734 11.6087 9.16992 12.1309 9.16992H15.6746" stroke="#FF782D" stroke-width="1.8" stroke-linecap="round" stroke-linejoin="round"/>
</svg>
