<svg width="36" height="35" viewBox="0 0 36 35" fill="none" xmlns="http://www.w3.org/2000/svg">
<path d="M17.8553 18.9519C18.6572 18.9519 19.3073 18.3018 19.3073 17.4999C19.3073 16.6979 18.6572 16.0479 17.8553 16.0479C17.0533 16.0479 16.4033 16.6979 16.4033 17.4999C16.4033 18.3018 17.0533 18.9519 17.8553 18.9519Z" stroke="black" stroke-width="2.904" stroke-linecap="round" stroke-linejoin="round"/>
<path d="M28.0193 18.9519C28.8212 18.9519 29.4713 18.3018 29.4713 17.4999C29.4713 16.6979 28.8212 16.0479 28.0193 16.0479C27.2173 16.0479 26.5673 16.6979 26.5673 17.4999C26.5673 18.3018 27.2173 18.9519 28.0193 18.9519Z" stroke="black" stroke-width="2.904" stroke-linecap="round" stroke-linejoin="round"/>
<path d="M7.69126 18.9519C8.49318 18.9519 9.14326 18.3018 9.14326 17.4999C9.14326 16.6979 8.49318 16.0479 7.69126 16.0479C6.88934 16.0479 6.23926 16.6979 6.23926 17.4999C6.23926 18.3018 6.88934 18.9519 7.69126 18.9519Z" stroke="black" stroke-width="2.904" stroke-linecap="round" stroke-linejoin="round"/>
</svg>
