<svg width="25" height="25" viewBox="0 0 25 25" fill="none" xmlns="http://www.w3.org/2000/svg">
<path d="M15.3852 4.311L2.18013 17.531C2.11363 17.5977 2.06624 17.6811 2.0429 17.7724L0.579191 23.6534C0.557664 23.7407 0.558983 23.8321 0.583022 23.9187C0.60706 24.0053 0.653006 24.0842 0.71642 24.1479C0.813824 24.2451 0.945705 24.2997 1.08322 24.2998C1.12565 24.2998 1.16791 24.2946 1.20905 24.2842L7.08391 22.8188C7.17526 22.7958 7.25865 22.7484 7.32514 22.6816L20.5315 9.46253L15.3852 4.311ZM23.8029 2.50848L22.333 1.03704C21.3505 0.0535729 19.6383 0.0545486 18.6569 1.03704L16.8563 2.83957L22.0023 7.9909L23.8029 6.18842C24.2936 5.69737 24.564 5.04372 24.564 4.34857C24.564 3.65341 24.2936 2.99977 23.8029 2.50848Z" fill="white"/>
</svg>
