<svg width="144" height="144" viewBox="0 0 144 144" fill="none" xmlns="http://www.w3.org/2000/svg">
<path d="M66.9113 5.30113C69.6874 2.40912 74.3126 2.40912 77.0887 5.30113L85.6055 14.1735C87.334 15.9741 89.8854 16.7272 92.3147 16.1538L104.217 13.3441C108.103 12.427 111.974 14.9142 112.755 18.8293L115.199 31.0784C115.683 33.5048 117.403 35.5003 119.731 36.3368L131.368 40.5174C135.096 41.857 136.99 46.0037 135.562 49.6991L131.026 61.4334C130.14 63.7245 130.51 66.3113 132.002 68.2623L139.624 78.2262C142.026 81.3662 141.379 85.8667 138.189 88.2026L128.134 95.5673C126.147 97.0226 125.063 99.4089 125.274 101.863L126.351 114.377C126.692 118.339 123.692 121.799 119.722 122.024L107.465 122.719C104.982 122.86 102.757 124.298 101.608 126.503L95.8828 137.494C94.0328 141.045 89.601 142.346 86.125 140.358L75.502 134.282C73.3322 133.041 70.6678 133.041 68.498 134.282L57.875 140.358C54.399 142.346 49.9672 141.045 48.1172 137.494L42.3916 126.503C41.2428 124.298 39.0177 122.86 36.5351 122.719L24.2777 122.024C20.3077 121.799 17.3083 118.339 17.6493 114.377L18.7263 101.863C18.9375 99.4089 17.8534 97.0226 15.8664 95.5673L5.81066 88.2026C2.6213 85.8667 1.97406 81.3662 4.37591 78.2262L11.9976 68.2623C13.4899 66.3113 13.8599 63.7245 12.9742 61.4334L8.43808 49.6991C7.00955 46.0037 8.90385 41.8569 12.6324 40.5174L24.2687 36.3368C26.5972 35.5003 28.3172 33.5048 28.8012 31.0784L31.2446 18.8293C32.0256 14.9142 35.8972 12.427 39.7826 13.3441L51.6853 16.1538C54.1146 16.7272 56.666 15.9741 58.3945 14.1735L66.9113 5.30113Z" fill="black" fill-opacity="0.1"/>
<path d="M66.9113 5.30113C69.6874 2.40912 74.3126 2.40912 77.0887 5.30113L85.6055 14.1735C87.334 15.9741 89.8854 16.7272 92.3147 16.1538L104.217 13.3441C108.103 12.427 111.974 14.9142 112.755 18.8293L115.199 31.0784C115.683 33.5048 117.403 35.5003 119.731 36.3368L131.368 40.5174C135.096 41.857 136.99 46.0037 135.562 49.6991L131.026 61.4334C130.14 63.7245 130.51 66.3113 132.002 68.2623L139.624 78.2262C142.026 81.3662 141.379 85.8667 138.189 88.2026L128.134 95.5673C126.147 97.0226 125.063 99.4089 125.274 101.863L126.351 114.377C126.692 118.339 123.692 121.799 119.722 122.024L107.465 122.719C104.982 122.86 102.757 124.298 101.608 126.503L95.8828 137.494C94.0328 141.045 89.601 142.346 86.125 140.358L75.502 134.282C73.3322 133.041 70.6678 133.041 68.498 134.282L57.875 140.358C54.399 142.346 49.9672 141.045 48.1172 137.494L42.3916 126.503C41.2428 124.298 39.0177 122.86 36.5351 122.719L24.2777 122.024C20.3077 121.799 17.3083 118.339 17.6493 114.377L18.7263 101.863C18.9375 99.4089 17.8534 97.0226 15.8664 95.5673L5.81066 88.2026C2.6213 85.8667 1.97406 81.3662 4.37591 78.2262L11.9976 68.2623C13.4899 66.3113 13.8599 63.7245 12.9742 61.4334L8.43808 49.6991C7.00955 46.0037 8.90385 41.8569 12.6324 40.5174L24.2687 36.3368C26.5972 35.5003 28.3172 33.5048 28.8012 31.0784L31.2446 18.8293C32.0256 14.9142 35.8972 12.427 39.7826 13.3441L51.6853 16.1538C54.1146 16.7272 56.666 15.9741 58.3945 14.1735L66.9113 5.30113Z" fill="#D9DBDD"/>
<path d="M22.0801 72.9746C22.0801 45.4046 44.43 23.0547 72 23.0547V23.0547C99.5699 23.0547 121.92 45.4046 121.92 72.9746V74.0012C121.92 101.571 99.5699 123.921 72 123.921V123.921C44.43 123.921 22.0801 101.571 22.0801 74.0012V72.9746Z" fill="black" fill-opacity="0.04"/>
<path d="M119.286 72.9746V74.0012C119.286 100.117 98.1154 121.287 72 121.287C45.8845 121.287 24.7138 100.117 24.7138 74.0012V72.9746C24.7138 46.8591 45.8845 25.6884 72 25.6884C98.1154 25.6884 119.286 46.8591 119.286 72.9746Z" stroke="white" stroke-opacity="0.79" stroke-width="5.26742"/>
<path opacity="0.8" d="M63.7723 82.6026L54.1872 72.9189C53.6711 72.3963 52.9704 72.1027 52.2398 72.1027C51.5091 72.1027 50.8084 72.3963 50.2923 72.9189C49.2151 74.0073 49.2151 75.7654 50.2923 76.8538L61.8387 88.5189C62.916 89.6073 64.6563 89.6073 65.7336 88.5189L94.9586 58.9933C96.0359 57.9049 96.0359 56.1468 94.9586 55.0584C94.4425 54.5359 93.7419 54.2422 93.0112 54.2422C92.2805 54.2422 91.5799 54.5359 91.0638 55.0584L63.7723 82.6026Z" fill="white" stroke="#FDFDFD" stroke-width="1.05348"/>
<g filter="url(#filter0_ii_1387_14848)">
<path d="M65.5543 6.71476C69.0707 3.05155 74.9293 3.05155 78.4457 6.71477L84.8617 13.3986C87.0511 15.6795 90.2829 16.6334 93.36 15.907L102.322 13.7916C107.243 12.6299 112.147 15.7804 113.136 20.7395L114.991 30.0356C115.604 33.1091 117.783 35.6367 120.732 36.6963L129.554 39.866C134.277 41.5627 136.677 46.8153 134.867 51.4961L131.406 60.4498C130.284 63.3519 130.753 66.6286 132.643 69.0999L138.457 76.7007C141.5 80.678 140.68 86.3787 136.64 89.3374L128.987 94.9423C126.47 96.7857 125.097 99.8084 125.364 102.917L126.185 112.447C126.617 117.466 122.817 121.849 117.789 122.134L108.533 122.659C105.388 122.837 102.57 124.658 101.114 127.451L96.7867 135.759C94.4433 140.257 88.8297 141.905 84.4268 139.386L76.4359 134.816C73.6875 133.244 70.3125 133.244 67.5641 134.816L59.5732 139.386C55.1703 141.905 49.5567 140.257 47.2133 135.759L42.8857 127.451C41.4305 124.658 38.6121 122.837 35.4675 122.659L26.2114 122.134C21.1827 121.849 17.3834 117.466 17.8153 112.447L18.6356 102.917C18.9031 99.8084 17.5299 96.7857 15.013 94.9423L7.36019 89.3374C3.32034 86.3787 2.50048 80.678 5.54282 76.7007L11.3569 69.0999C13.2473 66.6286 13.7159 63.3519 12.594 60.4498L9.13277 51.4961C7.3233 46.8153 9.72275 41.5627 14.4456 39.866L23.268 36.6963C26.2175 35.6367 28.3961 33.1091 29.0092 30.0356L30.8636 20.7395C31.8528 15.7804 36.7568 12.6299 41.6784 13.7916L50.64 15.907C53.7171 16.6334 56.9489 15.6795 59.1383 13.3986L65.5543 6.71476Z" fill="#D1031B"/>
</g>
<path d="M122.218 74.2556C122.218 102.07 99.6699 124.619 71.8552 124.619C44.0405 124.619 21.4922 102.07 21.4922 74.2556C21.4922 46.4409 44.0405 23.8926 71.8552 23.8926C99.6699 23.8926 122.218 46.4409 122.218 74.2556ZM31.8607 74.2556C31.8607 96.3439 49.7669 114.25 71.8552 114.25C93.9435 114.25 111.85 96.3439 111.85 74.2556C111.85 52.1672 93.9435 34.2611 71.8552 34.2611C49.7669 34.2611 31.8607 52.1672 31.8607 74.2556Z" fill="white" fill-opacity="0.5"/>
<path d="M71.8552 29.0768C71.8552 26.2137 74.1824 23.8649 77.0305 24.1592C85.1622 24.9992 92.995 27.8097 99.8354 32.3803C108.118 37.9142 114.573 45.7799 118.385 54.9825C122.196 64.1851 123.194 74.3115 121.25 84.0809C119.307 93.8504 114.511 102.824 107.467 109.868C100.424 116.911 91.45 121.708 81.6805 123.651C71.9111 125.594 61.7847 124.597 52.5821 120.785C43.3795 116.973 35.5138 110.518 29.9799 102.236C25.4093 95.3954 22.5988 87.5626 21.7588 79.4309C21.4646 76.5828 23.8133 74.2556 26.6765 74.2556V74.2556C29.5396 74.2556 31.8261 76.5863 32.1962 79.4254C32.9885 85.5027 35.1704 91.3411 38.601 96.4753C42.9956 103.052 49.2419 108.179 56.55 111.206C63.858 114.233 71.8996 115.025 79.6577 113.482C87.4159 111.938 94.5422 108.129 100.136 102.536C105.729 96.9426 109.538 89.8163 111.081 82.0581C112.624 74.3 111.832 66.2584 108.805 58.9504C105.778 51.6423 100.652 45.396 94.0749 41.0014C88.9407 37.5708 83.1024 35.3888 77.025 34.5966C74.1859 34.2265 71.8552 31.94 71.8552 29.0768V29.0768Z" fill="white" fill-opacity="0.7"/>
<path d="M89.2151 58.3061C88.7209 57.8107 88.0498 57.5323 87.35 57.5323C86.6502 57.5323 85.9792 57.8107 85.4849 58.3061L72.5482 71.2164L59.6115 58.2796C59.1172 57.7843 58.4461 57.5059 57.7464 57.5059C57.0466 57.5059 56.3755 57.7843 55.8812 58.2796C54.8495 59.3114 54.8495 60.9781 55.8812 62.0099L68.818 74.9466L55.8812 87.8833C54.8495 88.9151 54.8495 90.5818 55.8812 91.6136C56.913 92.6453 58.5797 92.6453 59.6115 91.6136L72.5482 78.6768L85.4849 91.6136C86.5167 92.6453 88.1834 92.6453 89.2151 91.6136C90.2469 90.5818 90.2469 88.9151 89.2151 87.8833L76.2784 74.9466L89.2151 62.0099C90.2205 61.0046 90.2205 59.3114 89.2151 58.3061Z" fill="white"/>
<path d="M87.35 57.3473C88.099 57.3473 88.8171 57.6453 89.3461 58.1754C90.4235 59.253 90.4235 61.0632 89.346 62.1407L76.54 74.9466L89.346 87.7525C90.45 88.8565 90.45 90.6404 89.346 91.7444C88.242 92.8484 86.4581 92.8484 85.3541 91.7444L72.5482 78.9385L59.7423 91.7444C58.6383 92.8484 56.8544 92.8484 55.7504 91.7444C54.6464 90.6404 54.6464 88.8565 55.7504 87.7525L68.5563 74.9466L55.7504 62.1407C54.6464 61.0367 54.6464 59.2529 55.7504 58.1489C56.2793 57.6188 56.9975 57.3209 57.7464 57.3209C58.4953 57.3209 59.2135 57.6188 59.7424 58.149L72.5483 70.9549L85.354 58.1754L87.35 57.3473ZM87.35 57.3473C86.6012 57.3473 85.8832 57.6452 85.3542 58.1752L87.35 57.3473Z" stroke="white" stroke-opacity="0.7" stroke-width="0.37"/>
<defs>
<filter id="filter0_ii_1387_14848" x="-3.69492" y="-0.966537" width="148.923" height="146.466" filterUnits="userSpaceOnUse" color-interpolation-filters="sRGB">
<feFlood flood-opacity="0" result="BackgroundImageFix"/>
<feBlend mode="normal" in="SourceGraphic" in2="BackgroundImageFix" result="shape"/>
<feColorMatrix in="SourceAlpha" type="matrix" values="0 0 0 0 0 0 0 0 0 0 0 0 0 0 0 0 0 0 127 0" result="hardAlpha"/>
<feOffset dx="4.93333" dy="4.93333"/>
<feGaussianBlur stdDeviation="5.55"/>
<feComposite in2="hardAlpha" operator="arithmetic" k2="-1" k3="1"/>
<feColorMatrix type="matrix" values="0 0 0 0 0.887695 0 0 0 0 0.887695 0 0 0 0 0.887695 0 0 0 1 0"/>
<feBlend mode="normal" in2="shape" result="effect1_innerShadow_1387_14848"/>
<feColorMatrix in="SourceAlpha" type="matrix" values="0 0 0 0 0 0 0 0 0 0 0 0 0 0 0 0 0 0 127 0" result="hardAlpha"/>
<feOffset dx="-7.4" dy="-4.93333"/>
<feGaussianBlur stdDeviation="6.16667"/>
<feComposite in2="hardAlpha" operator="arithmetic" k2="-1" k3="1"/>
<feColorMatrix type="matrix" values="0 0 0 0 0.829362 0 0 0 0 0.829362 0 0 0 0 0.829362 0 0 0 0.5 0"/>
<feBlend mode="normal" in2="effect1_innerShadow_1387_14848" result="effect2_innerShadow_1387_14848"/>
</filter>
</defs>
</svg>
