<svg width="24" height="28" viewBox="0 0 24 28" fill="none" xmlns="http://www.w3.org/2000/svg">
<path d="M-nan -nanC-nan -nan -nan -nan -nan -nanL21.5626 26.75H2.43745C2.15566 26.75 1.88542 26.638 1.68617 26.4388C1.48693 26.2395 1.37499 25.9693 1.375 25.6875V2.3125C1.37499 2.03071 1.48693 1.76047 1.68617 1.56121C1.88542 1.36195 2.15566 1.25001 2.43745 1.25H13.9452C14.7409 1.25 15.5039 1.56609 16.0666 2.12873L21.7464 7.80883C22.3089 8.37143 22.625 9.13447 22.625 9.9301V25.6875C22.625 25.9693 22.5131 26.2395 22.3138 26.4388C22.1146 26.638 21.8443 26.75 21.5626 26.75L-nan -nanC-nan -nan -nan -nan -nan -nanL-nan -nanZ" fill="white"/>
<path d="M15.1875 1.25V7.6875C15.1875 8.23978 15.6352 8.6875 16.1875 8.6875H22.6261" fill="#2A6EED"/>
<path d="M21.5626 26.75H2.43745C2.15566 26.75 1.88542 26.638 1.68617 26.4388C1.48693 26.2395 1.37499 25.9693 1.375 25.6875V2.3125C1.37499 2.03071 1.48693 1.76047 1.68617 1.56121C1.88542 1.36195 2.15566 1.25001 2.43745 1.25H13.9452C14.7409 1.25 15.5039 1.56609 16.0666 2.12873L21.7464 7.80883C22.3089 8.37143 22.625 9.13447 22.625 9.9301V25.6875C22.625 25.9693 22.5131 26.2395 22.3138 26.4388C22.1146 26.638 21.8443 26.75 21.5626 26.75ZM21.5626 26.75L-nan -nanC-nan -nan -nan -nan -nan -nanL-nan -nanC-nan -nan -nan -nan -nan -nanL21.5626 26.75ZM15.1875 1.25V7.6875C15.1875 8.23978 15.6352 8.6875 16.1875 8.6875H22.6261" stroke="#2A6EED" stroke-width="2" stroke-linecap="round" stroke-linejoin="round"/>
</svg>
