<svg width="35" height="35" viewBox="0 0 35 35" fill="none" xmlns="http://www.w3.org/2000/svg">
<path d="M4.75 28.0781V8.95312C4.75 8.67133 4.86194 8.40108 5.0612 8.20182C5.26046 8.00257 5.53071 7.89062 5.8125 7.89062H12.8958C13.1257 7.89062 13.3494 7.96519 13.5333 8.10312L17.2167 10.8656C17.4006 11.0036 17.6243 11.0781 17.8542 11.0781H27.0625C27.3443 11.0781 27.6145 11.1901 27.8138 11.3893C28.0131 11.5886 28.125 11.8588 28.125 12.1406V15.3281" stroke="#2A6EED" stroke-width="2.028" stroke-linecap="round" stroke-linejoin="round"/>
<path d="M4.75 28.0781L8.73284 18.121C8.81171 17.9239 8.94784 17.7549 9.12368 17.6358C9.29952 17.5168 9.507 17.4531 9.71935 17.4531H16.1158C16.3256 17.4531 16.5306 17.391 16.7052 17.2747L19.3573 15.5066C19.5319 15.3902 19.7369 15.3281 19.9467 15.3281H30.9009C31.0692 15.3281 31.2352 15.3681 31.385 15.4448C31.5349 15.5216 31.6644 15.6328 31.7628 15.7694C31.8612 15.9059 31.9258 16.064 31.9512 16.2304C31.9766 16.3968 31.9621 16.5669 31.9088 16.7266L28.125 28.0781H4.75Z" stroke="#2A6EED" stroke-width="2.028" stroke-linecap="round" stroke-linejoin="round"/>
</svg>
