<svg width="27" height="27" viewBox="0 0 27 27" fill="none" xmlns="http://www.w3.org/2000/svg">
<path d="M18.7002 15.9501V12.644C18.7002 12.4466 18.7002 12.3479 18.6701 12.2607C18.6436 12.1836 18.6002 12.1134 18.5431 12.0552C18.4786 11.9893 18.3903 11.9452 18.2137 11.8569L13.2002 9.35012M4.4002 10.4501V17.9374C4.4002 18.3465 4.4002 18.5511 4.46402 18.7302C4.52043 18.8885 4.61239 19.0318 4.73281 19.149C4.86903 19.2817 5.055 19.3669 5.42688 19.5374L12.4669 22.764C12.7366 22.8877 12.8715 22.9495 13.012 22.9739C13.1365 22.9955 13.2638 22.9955 13.3884 22.9739C13.5289 22.9495 13.6638 22.8877 13.9335 22.764L20.9735 19.5374C21.3454 19.3669 21.5314 19.2817 21.6676 19.149C21.788 19.0318 21.88 18.8885 21.9364 18.7302C22.0002 18.5511 22.0002 18.3465 22.0002 17.9374V10.4501M2.2002 9.35012L12.8066 4.04689C12.9509 3.97474 13.0231 3.93867 13.0988 3.92447C13.1658 3.9119 13.2346 3.9119 13.3016 3.92447C13.3773 3.93867 13.4494 3.97474 13.5937 4.04689L24.2002 9.35012L13.5937 14.6533C13.4494 14.7255 13.3773 14.7616 13.3016 14.7758C13.2346 14.7883 13.1658 14.7883 13.0988 14.7758C13.0231 14.7616 12.9509 14.7255 12.8066 14.6533L2.2002 9.35012Z" stroke="#0F172A" stroke-width="2.2" stroke-linecap="round" stroke-linejoin="round"/>
</svg>
