<svg width="26" height="26" viewBox="0 0 26 26" fill="none" xmlns="http://www.w3.org/2000/svg">
<path d="M13.448 19.3713L18.5704 22.6166C19.2251 23.0314 20.0381 22.4145 19.8438 21.6501L18.3638 15.8283C18.3221 15.6662 18.3271 15.4956 18.378 15.3361C18.429 15.1766 18.524 15.0348 18.652 14.9269L23.2454 11.1037C23.8489 10.6014 23.5374 9.5997 22.762 9.54938L16.7633 9.16006C16.6017 9.14852 16.4468 9.09131 16.3164 8.99511C16.1861 8.8989 16.0858 8.76765 16.0272 8.61664L13.7899 2.98266C13.7291 2.82238 13.621 2.68439 13.4799 2.58702C13.3388 2.48965 13.1714 2.4375 13 2.4375C12.8286 2.4375 12.6612 2.48965 12.5201 2.58702C12.379 2.68439 12.2709 2.82238 12.2101 2.98266L9.97282 8.61664C9.9142 8.76765 9.81389 8.8989 9.68357 8.99511C9.55324 9.09131 9.39827 9.14852 9.2367 9.16006L3.23802 9.54938C2.46258 9.5997 2.15106 10.6014 2.75462 11.1037L7.34801 14.9269C7.47602 15.0348 7.57098 15.1766 7.62196 15.3361C7.67294 15.4956 7.67788 15.6662 7.6362 15.8283L6.26371 21.2274C6.03056 22.1446 7.00608 22.885 7.7918 22.3872L12.552 19.3713C12.6859 19.2861 12.8413 19.2408 13 19.2408C13.1587 19.2408 13.3141 19.2861 13.448 19.3713V19.3713Z" stroke="#FD8E1F" stroke-width="1.3" stroke-linecap="round" stroke-linejoin="round"/>
<mask id="mask0_1304_41487" style="mask-type:alpha" maskUnits="userSpaceOnUse" x="0" y="0" width="14" height="27">
<path d="M13.002 0.652344H0.00195312V26.6523H13.002V0.652344Z" fill="white"/>
</mask>
<g mask="url(#mask0_1304_41487)">
<path d="M13.45 19.3732L18.5723 22.6185C19.2271 23.0334 20.04 22.4164 19.8457 21.6521L18.3658 15.8303C18.3241 15.6681 18.329 15.4975 18.38 15.3381C18.431 15.1786 18.5259 15.0367 18.6539 14.9288L23.2473 11.1057C23.8509 10.6033 23.5394 9.60166 22.7639 9.55133L16.7653 9.16202C16.6037 9.15047 16.4487 9.09327 16.3184 8.99706C16.1881 8.90085 16.0878 8.7696 16.0291 8.6186L13.7919 2.98462C13.7311 2.82434 13.6229 2.68635 13.4819 2.58897C13.3408 2.4916 13.1734 2.43945 13.002 2.43945C12.8305 2.43945 12.6632 2.4916 12.5221 2.58897C12.381 2.68635 12.2728 2.82434 12.212 2.98462L9.97477 8.6186C9.91615 8.7696 9.81584 8.90085 9.68552 8.99706C9.5552 9.09327 9.40023 9.15047 9.23865 9.16202L3.23997 9.55133C2.46454 9.60166 2.15302 10.6033 2.75657 11.1057L7.34997 14.9288C7.47798 15.0367 7.57293 15.1786 7.62392 15.3381C7.6749 15.4975 7.67983 15.6681 7.63816 15.8303L6.26566 21.2294C6.03251 22.1465 7.00803 22.8869 7.79375 22.3891L12.554 19.3732C12.6878 19.288 12.8433 19.2427 13.002 19.2427C13.1607 19.2427 13.3161 19.288 13.45 19.3732V19.3732Z" fill="#FD8E1F"/>
</g>
</svg>
