<svg width="21" height="16" viewBox="0 0 21 16" fill="none" xmlns="http://www.w3.org/2000/svg">
<path fill-rule="evenodd" clip-rule="evenodd" d="M20.8599 0.75C20.8599 1.16421 20.5241 1.5 20.1099 1.5L5.60986 1.5C5.19565 1.5 4.85986 1.16421 4.85986 0.749998C4.85986 0.335785 5.19565 0 5.60986 0H20.1099C20.5241 0 20.8599 0.335786 20.8599 0.75ZM20.8599 7.75C20.8599 8.16421 20.5241 8.5 20.1099 8.5L5.60986 8.5C5.19565 8.5 4.85986 8.16421 4.85986 7.75C4.85986 7.33578 5.19565 7 5.60986 7L20.1099 7C20.5241 7 20.8599 7.33579 20.8599 7.75ZM20.1099 15.5C20.5241 15.5 20.8599 15.1642 20.8599 14.75C20.8599 14.3358 20.5241 14 20.1099 14L5.60986 14C5.19565 14 4.85986 14.3358 4.85986 14.75C4.85986 15.1642 5.19565 15.5 5.60986 15.5L20.1099 15.5Z" fill="#2A6EED"/>
<circle cx="1.85986" cy="1" r="1" fill="#2A6EED"/>
<circle cx="1.85986" cy="8" r="1" fill="#2A6EED"/>
<circle cx="1.85986" cy="15" r="1" fill="#2A6EED"/>
</svg>
