<svg width="25" height="25" viewBox="0 0 25 25" fill="none" xmlns="http://www.w3.org/2000/svg">
<path d="M18.9043 8.7998H17.9043V6.7998C17.9043 4.0398 15.6643 1.7998 12.9043 1.7998C10.1443 1.7998 7.9043 4.0398 7.9043 6.7998V8.7998H6.9043C5.8043 8.7998 4.9043 9.6998 4.9043 10.7998V20.7998C4.9043 21.8998 5.8043 22.7998 6.9043 22.7998H18.9043C20.0043 22.7998 20.9043 21.8998 20.9043 20.7998V10.7998C20.9043 9.6998 20.0043 8.7998 18.9043 8.7998ZM12.9043 17.7998C11.8043 17.7998 10.9043 16.8998 10.9043 15.7998C10.9043 14.6998 11.8043 13.7998 12.9043 13.7998C14.0043 13.7998 14.9043 14.6998 14.9043 15.7998C14.9043 16.8998 14.0043 17.7998 12.9043 17.7998ZM16.0043 8.7998H9.8043V6.7998C9.8043 5.0898 11.1943 3.6998 12.9043 3.6998C14.6143 3.6998 16.0043 5.0898 16.0043 6.7998V8.7998Z" fill="white"/>
</svg>
