<svg width="44" height="55" viewBox="0 0 44 55" fill="none" xmlns="http://www.w3.org/2000/svg">
<path d="M18.6319 45.4201C18.836 43.367 19.0368 41.4928 19.2007 39.6153C19.2521 39.0241 19.4674 38.8419 20.0881 38.8452C26.124 38.8732 32.1603 38.8583 38.1962 38.8681C38.6852 38.869 38.971 38.849 38.9696 38.1993C38.9472 27.2769 38.9514 16.3554 38.9621 5.43343C38.9626 5.0089 38.8767 4.85712 38.4162 4.85805C27.4461 4.87113 16.4765 4.87113 5.50645 4.85759C5.01841 4.85712 4.92593 5.01871 4.9264 5.4708C4.93854 16.3689 4.94088 27.2666 4.92173 38.1648C4.92033 38.763 5.10994 38.8849 5.66057 38.8737C7.28864 38.8401 8.91764 38.8672 10.5466 38.8588C10.8922 38.8569 11.1953 38.9073 11.4672 39.1502C12.347 39.9357 13.2386 40.7073 14.1269 41.483C15.5808 42.7543 17.0351 44.025 18.6319 45.4201ZM0.128137 21.8425C0.128137 14.873 0.137944 7.90309 0.113192 0.933136C0.110856 0.237729 0.233219 -0.00185783 1.00335 1.02908e-05C14.9904 0.026631 28.978 0.022895 42.966 0.00608191C43.5839 0.00514785 43.7819 0.145724 43.7809 0.796297C43.7618 14.8077 43.7618 28.819 43.7795 42.8304C43.7805 43.501 43.6273 43.7187 42.9169 43.7154C36.7615 43.686 30.606 43.7042 24.4506 43.6888C23.9037 43.6874 23.6375 43.7289 23.5786 44.4117C23.2923 47.7477 22.9271 51.0767 22.5815 54.4076C22.5605 54.6107 22.6595 54.9194 22.4363 54.9914C22.2574 55.0488 22.0879 54.806 21.924 54.6621C17.9094 51.1519 13.8803 47.6585 9.87131 44.1427C9.47761 43.7971 9.08577 43.6855 8.58184 43.6897C6.21073 43.7093 3.83962 43.6981 1.46851 43.6977C0.128137 43.6977 0.128137 43.6977 0.128137 42.3204V21.8425Z" fill="white"/>
<path d="M28.6856 18.3266C28.1704 19.0682 27.6385 19.7982 27.1444 20.5533C25.5186 23.0428 23.8991 25.5362 22.2859 28.0338C22.0112 28.4583 21.8142 28.456 21.5302 28.0184C19.5126 24.9084 17.4769 21.8106 15.4495 18.7072C15.3649 18.5773 15.2613 18.5054 15.0824 18.5012C15.0824 23.3639 15.0665 28.2206 15.1001 33.0763C15.1048 33.761 14.8928 33.8987 14.2665 33.8763C12.9742 33.8301 11.6796 33.8417 10.3869 33.8735C9.93479 33.8847 9.83391 33.7451 9.83485 33.3098C9.84746 25.5973 9.84605 17.8857 9.83531 10.1731C9.83485 9.7785 9.92778 9.6398 10.3453 9.64633C11.9499 9.66821 13.5548 9.66883 15.1595 9.6482C15.5228 9.64353 15.7017 9.78738 15.8857 10.0853C17.695 13.0181 19.5149 15.9444 21.3453 18.8641C21.9361 19.807 21.9622 19.8056 22.5418 18.8786C24.3683 15.9545 26.188 13.0262 28.0009 10.0937C28.1774 9.80793 28.3521 9.6412 28.7262 9.64633C30.33 9.66922 31.9356 9.67015 33.5403 9.64633C33.9588 9.64026 34.0508 9.7799 34.0503 10.175C34.0401 17.8875 34.0391 25.5991 34.0522 33.3117C34.0527 33.7502 33.9443 33.8828 33.4955 33.8726C32.1551 33.8427 30.812 33.824 29.473 33.8796C28.8504 33.9053 28.7981 33.6512 28.8 33.1421C28.8154 28.2323 28.8093 23.3224 28.8093 18.4134L28.6856 18.3266Z" fill="white"/>
</svg>
