<svg width="36" height="46" viewBox="0 0 36 46" fill="none" xmlns="http://www.w3.org/2000/svg">
<path d="M15.6226 37.3631C15.7862 35.7176 15.9472 34.2154 16.0786 32.7106C16.1197 32.2367 16.2923 32.0907 16.7898 32.0933C21.6276 32.1158 26.4658 32.1038 31.3036 32.1117C31.6955 32.1124 31.9246 32.0963 31.9235 31.5757C31.9055 22.8213 31.9089 14.0676 31.9175 5.3136C31.9178 4.97334 31.849 4.85168 31.4799 4.85243C22.6873 4.86291 13.8951 4.86291 5.10254 4.85206C4.71137 4.85168 4.63725 4.9812 4.63763 5.34355C4.64736 14.0785 4.64923 22.813 4.63388 31.548C4.63276 32.0275 4.78474 32.1252 5.22607 32.1162C6.53098 32.0892 7.83663 32.1109 9.14228 32.1042C9.41928 32.1027 9.66222 32.1431 9.88008 32.3378C10.5853 32.9674 11.2999 33.5858 12.0119 34.2075C13.1772 35.2265 14.3428 36.245 15.6226 37.3631ZM0.79179 18.4656C0.79179 12.8795 0.79965 7.29305 0.779811 1.70659C0.777939 1.14921 0.876014 0.957182 1.49328 0.958679C12.704 0.980016 23.9151 0.977022 35.1266 0.963546C35.6218 0.962797 35.7805 1.07547 35.7798 1.59691C35.7644 12.8271 35.7644 24.0573 35.7787 35.2875C35.7794 35.825 35.6566 35.9995 35.0873 35.9968C30.1536 35.9732 25.22 35.9878 20.2864 35.9755C19.848 35.9744 19.6347 36.0077 19.5875 36.555C19.358 39.2288 19.0653 41.897 18.7883 44.5667C18.7715 44.7295 18.8508 44.9769 18.6719 45.0346C18.5285 45.0806 18.3927 44.886 18.2613 44.7707C15.0436 41.9572 11.8142 39.1573 8.601 36.3393C8.28545 36.0623 7.97139 35.9729 7.56749 35.9762C5.66703 35.992 3.76657 35.983 1.86611 35.9826C0.79179 35.9826 0.79179 35.9826 0.79179 34.8787V18.4656Z" fill="#2A6EED"/>
<path d="M23.6809 15.647C23.268 16.2414 22.8416 16.8265 22.4456 17.4318C21.1425 19.4271 19.8445 21.4256 18.5515 23.4274C18.3314 23.7676 18.1734 23.7658 17.9458 23.415C16.3287 20.9224 14.697 18.4395 13.0721 15.9521C13.0043 15.848 12.9212 15.7904 12.7778 15.787C12.7778 19.6845 12.7651 23.5771 12.7921 27.469C12.7958 28.0178 12.6259 28.1282 12.1239 28.1102C11.0881 28.0732 10.0505 28.0825 9.01436 28.108C8.65201 28.117 8.57116 28.005 8.5719 27.6562C8.58201 21.4745 8.58089 15.2936 8.57228 9.11199C8.5719 8.79568 8.6464 8.68451 8.98104 8.68975C10.2672 8.70728 11.5535 8.70778 12.8396 8.69124C13.1308 8.6875 13.2742 8.80279 13.4217 9.04161C14.8719 11.3923 16.3305 13.7377 17.7976 16.0778C18.2711 16.8336 18.2921 16.8325 18.7566 16.0894C20.2205 13.7458 21.679 11.3988 23.1321 9.04835C23.2736 8.81926 23.4136 8.68563 23.7134 8.68975C24.9989 8.70809 26.2858 8.70884 27.572 8.68975C27.9074 8.68488 27.9811 8.7968 27.9808 9.11348C27.9725 15.2951 27.9718 21.476 27.9823 27.6577C27.9826 28.0091 27.8958 28.1155 27.5361 28.1072C26.4618 28.0833 25.3852 28.0683 24.312 28.1128C23.813 28.1334 23.7711 27.9298 23.7726 27.5218C23.7849 23.5865 23.7801 19.6512 23.7801 15.7166L23.6809 15.647Z" fill="#2A6EED"/>
</svg>
