<svg width="186" height="194" viewBox="0 0 186 194" fill="none" xmlns="http://www.w3.org/2000/svg">
<path d="M175.695 0.53125H124.599C119.185 0.53125 114.797 4.91985 114.797 10.3334V61.4297C114.797 66.8433 119.185 71.2319 124.599 71.2319H133.767C136.437 71.2319 138.6 73.3957 138.6 76.0652V84.3314C138.6 86.0682 140.798 86.8207 141.863 85.4491L151.498 73.0335C151.933 72.4727 152.491 72.0188 153.129 71.7066C153.766 71.3943 154.467 71.2319 155.176 71.2319H175.696C181.109 71.2319 185.498 66.8433 185.498 61.4297V10.3334C185.498 4.91985 181.109 0.53125 175.695 0.53125Z" fill="#E86820"/>
<path d="M175.697 0.53125H165.107C170.521 0.53125 174.91 4.91985 174.91 10.3334V61.4297C174.91 66.8433 170.521 71.2319 165.107 71.2319H175.697C181.11 71.2319 185.499 66.8433 185.499 61.4297V10.3334C185.499 4.91985 181.11 0.53125 175.697 0.53125Z" fill="#AB511F"/>
<path d="M112.28 193.47H9.06055L10.4808 173.975C11.3506 162.045 20.3312 152.291 32.1529 150.442L40.3268 149.16C44.4828 148.513 47.5424 144.932 47.5424 140.73V110.725H78.2117V140.73C78.2117 144.932 81.2753 148.513 85.4273 149.16L93.6053 150.442C105.422 152.291 114.407 162.045 115.273 173.975L116.373 189.069C116.546 191.446 114.664 193.47 112.28 193.47Z" fill="#FAA68E"/>
<path d="M40.4914 167.769C40.6641 167.105 41.0521 166.518 41.5949 166.098C42.1376 165.678 42.8042 165.45 43.4903 165.45H56.3742C63.3531 165.45 69.0109 159.793 69.0109 152.814V147.502C69.0109 146.904 69.2482 146.332 69.6706 145.909C70.093 145.487 70.6659 145.249 71.2632 145.249H79.5148C78.6634 143.895 78.2114 142.328 78.2109 140.729V131.801H51.1208C49.6711 131.801 48.8221 130.171 49.6541 128.985L55.0835 121.228C55.899 120.071 56.3138 118.679 56.2645 117.265C56.2395 116.259 55.9826 115.273 55.5139 114.383C55.0451 113.493 54.3773 112.723 53.5623 112.133L53.4236 112.032C52.587 111.423 51.6224 111.012 50.6031 110.831C49.5839 110.65 48.5369 110.704 47.5416 110.989V140.728C47.5416 144.93 44.4821 148.511 40.326 149.158L32.1521 150.44C26.7843 151.276 21.8202 153.794 17.9745 157.631L9.2158 191.326L9.06055 193.469H33.8106L40.4914 167.769Z" fill="#E09380"/>
<path d="M112.28 193.47H9.06055L10.4808 173.975C11.3506 162.045 20.3312 152.291 32.1529 150.442L40.3268 149.16C40.8972 149.07 41.4574 148.923 41.9991 148.723C47.0464 154.182 54.4595 157.632 62.7212 157.632C71.0296 157.632 78.4762 154.148 83.5273 148.635C84.1382 148.882 84.7756 149.059 85.4269 149.16L93.6049 150.442C105.422 152.291 114.407 162.045 115.273 173.975L116.373 189.069C116.545 191.443 114.663 193.47 112.28 193.47Z" fill="#4E85EC"/>
<path d="M43.4906 165.451H56.3746C61.8511 165.451 66.5129 161.967 68.2667 157.094C66.4397 157.45 64.5829 157.63 62.7216 157.632C54.4595 157.632 47.0464 154.181 41.9995 148.723C37.06 150.554 26.792 148.845 17.9757 157.632L9.21693 191.328L9.06055 193.47H33.8106L40.4914 167.77C40.6641 167.106 41.0522 166.518 41.595 166.099C42.1378 165.679 42.8045 165.451 43.4906 165.451ZM116.373 189.069L115.273 173.975C114.856 168.181 112.484 162.699 108.546 158.428C99.7281 148.852 88.7788 150.466 83.9395 148.789C83.9207 148.782 83.9026 148.774 83.8838 148.768C83.764 148.726 83.6451 148.682 83.5273 148.635C82.6634 149.573 81.7343 150.45 80.747 151.258L82.9741 151.606C94.7912 153.456 103.776 163.21 104.642 175.14L105.742 190.233C105.834 191.497 105.341 192.658 104.505 193.471H112.28C114.664 193.47 116.546 191.446 116.373 189.069Z" fill="#2A6EED"/>
<path d="M95.9368 175.75C95.5544 175.75 95.1758 175.825 94.8226 175.972C94.4693 176.118 94.1484 176.332 93.878 176.603C93.6077 176.873 93.3932 177.194 93.2469 177.547C93.1006 177.9 93.0253 178.279 93.0254 178.661V193.469H98.8486V178.661C98.8485 177.889 98.5417 177.149 97.9956 176.603C97.4496 176.057 96.709 175.75 95.9368 175.75Z" fill="#2A6EED"/>
<path d="M148.299 48.8085C147.917 48.8085 147.538 48.7333 147.185 48.587C146.832 48.4407 146.511 48.2262 146.24 47.9559C145.97 47.6855 145.756 47.3645 145.609 47.0113C145.463 46.658 145.388 46.2794 145.388 45.8971V35.9359C145.388 35.1637 145.695 34.4232 146.241 33.8772C146.787 33.3312 147.527 33.0245 148.299 33.0245H150.147C154.381 33.0245 157.825 29.5802 157.825 25.3465C157.825 21.1128 154.381 17.6685 150.147 17.6685C145.914 17.6685 142.469 21.1128 142.469 25.3465C142.469 26.1187 142.163 26.8592 141.617 27.4052C141.071 27.9512 140.33 28.2579 139.558 28.2579C138.786 28.2579 138.045 27.9512 137.499 27.4052C136.953 26.8592 136.646 26.1187 136.646 25.3465C136.646 17.9018 142.703 11.8457 150.147 11.8457C157.592 11.8457 163.648 17.9022 163.648 25.3465C163.648 32.4328 158.16 38.2621 151.211 38.8062V45.8971C151.211 46.6692 150.904 47.4097 150.358 47.9557C149.812 48.5016 149.071 48.8084 148.299 48.8085ZM148.299 59.9206C147.917 59.9206 147.538 59.8453 147.185 59.699C146.832 59.5527 146.511 59.3383 146.24 59.0679C145.97 58.7976 145.756 58.4766 145.609 58.1233C145.463 57.7701 145.388 57.3915 145.388 57.0091V56.1564C145.388 55.3842 145.695 54.6437 146.241 54.0977C146.787 53.5517 147.527 53.2449 148.299 53.2449C149.071 53.2449 149.812 53.5517 150.358 54.0977C150.904 54.6437 151.211 55.3842 151.211 56.1564V57.0091C151.211 57.7813 150.904 58.5218 150.358 59.0678C149.812 59.6138 149.071 59.9206 148.299 59.9206Z" fill="#263238"/>
<path d="M68.3677 13.4941H55.3522C40.2043 13.4941 26.9903 21.7705 19.9831 34.0477C10.2412 36.5997 3.14014 45.6037 3.445 56.1543L4.56909 95.0329H118.448V63.5745C118.448 35.9161 96.0261 13.4941 68.3677 13.4941Z" fill="#414141"/>
<path d="M29.2779 101.577H9.21909C4.40279 101.577 0.498047 97.6724 0.498047 92.8557V90.1214C0.498047 85.3051 4.40241 81.4004 9.21909 81.4004H29.2779V101.577ZM93.8347 101.577H113.894C118.71 101.577 122.615 97.6724 122.615 92.8557V90.1214C122.615 85.3051 118.71 81.4004 113.894 81.4004H93.8347V101.577Z" fill="#FAA68E"/>
<path d="M108.662 88.158C108.662 116.902 79.6633 133.403 62.7209 133.403C45.783 133.403 16.7793 116.902 16.7793 88.158C16.7793 69.7968 21.8831 55.9003 30.1414 46.5813C31.9996 44.4846 35.2731 44.5057 37.129 46.6046C39.017 48.7398 41.0048 50.7796 43.1697 52.6385C45.7193 54.8286 48.7291 56.8274 52.0848 56.8639C54.3251 56.891 56.6479 55.6901 57.8549 53.8948C58.8542 52.4082 60.8371 51.9496 62.4601 52.7078C73.1592 57.7076 84.9642 60.772 96.8002 61.4341C101.56 61.7006 105.608 65.0585 106.686 69.7019C107.972 75.2458 108.662 81.3999 108.662 88.158Z" fill="#FAA68E"/>
<path d="M106.685 69.7041C105.829 66.0142 103.094 63.1423 99.6193 61.9824C100.657 67.1183 101.211 72.7395 101.211 78.8457C101.211 108.197 71.5991 125.046 54.2987 125.046C46.2534 125.046 35.543 121.398 26.3867 114.544C36.3573 126.753 51.9688 133.405 62.721 133.405C79.6634 133.405 108.663 116.904 108.663 88.1599C108.663 81.4021 107.972 75.2481 106.685 69.7041Z" fill="#E09380"/>
<path d="M25.5095 193.469L33.8861 161.247C34.0602 160.577 34.4516 159.984 34.9989 159.561C35.5462 159.138 36.2184 158.909 36.9102 158.909H49.7741C56.7531 158.909 62.4109 153.251 62.4109 146.272V140.96C62.4109 140.363 62.6482 139.79 63.0705 139.367C63.4929 138.945 64.0658 138.708 64.6632 138.708H77.2242C80.9431 138.708 84.0908 135.762 84.1202 132.043C84.1297 131.15 83.9606 130.264 83.6228 129.438C83.2851 128.612 82.7855 127.861 82.1535 127.231C81.5296 126.605 80.7881 126.109 79.9717 125.771C79.1553 125.432 78.2801 125.259 77.3964 125.26H44.5207C43.071 125.26 42.222 123.629 43.0541 122.444L48.4835 114.686C49.2988 113.53 49.7136 112.138 49.6645 110.724C49.6394 109.718 49.3825 108.732 48.9138 107.842C48.4451 106.952 47.7772 106.182 46.9622 105.592L46.8235 105.491C43.7599 103.268 39.507 103.945 37.3093 106.992C33.4309 112.371 16.3815 135.976 14.6963 138.312L1.26707 189.975C0.807329 191.744 2.14207 193.469 3.96933 193.469H25.5095Z" fill="#F9B1A0"/>
<path d="M49.3243 91.2183C50.0739 91.2183 50.7927 90.9205 51.3228 90.3905C51.8528 89.8604 52.1505 89.1416 52.1505 88.392V85.2364C52.1505 84.4868 51.8528 83.768 51.3228 83.2379C50.7927 82.7079 50.0739 82.4102 49.3243 82.4102C48.5747 82.4102 47.8559 82.7079 47.3258 83.2379C46.7958 83.768 46.498 84.4868 46.498 85.2364V88.392C46.498 89.1416 46.7958 89.8604 47.3258 90.3905C47.8559 90.9205 48.5747 91.2183 49.3243 91.2183ZM91.559 91.2183C92.3086 91.2183 93.0274 90.9205 93.5574 90.3905C94.0875 89.8604 94.3852 89.1416 94.3852 88.392V85.2364C94.3852 84.4868 94.0875 83.768 93.5574 83.2379C93.0274 82.7079 92.3086 82.4102 91.559 82.4102C90.8094 82.4102 90.0905 82.7079 89.5605 83.2379C89.0305 83.768 88.7327 84.4868 88.7327 85.2364V88.392C88.7327 89.1416 89.0305 89.8604 89.5605 90.3905C90.0905 90.9205 90.8094 91.2183 91.559 91.2183ZM65.5669 105.124C69.4204 102.876 73.009 102.876 76.8625 105.124C77.1831 105.311 77.5374 105.433 77.9051 105.483C78.2729 105.533 78.647 105.51 79.0059 105.416C79.3649 105.321 79.7017 105.157 79.9971 104.932C80.2925 104.708 80.5408 104.427 80.7277 104.106C81.1053 103.459 81.2102 102.688 81.0194 101.963C80.8286 101.238 80.3577 100.619 79.7102 100.241C74.1523 96.9989 68.2767 96.9989 62.7188 100.241C62.0713 100.619 61.6004 101.238 61.4096 101.963C61.2189 102.688 61.3239 103.459 61.7016 104.107C62.0792 104.754 62.6987 105.225 63.4236 105.416C64.1485 105.606 64.9195 105.501 65.5669 105.124Z" fill="#0F172A"/>
</svg>
