<svg width="154" height="155" viewBox="0 0 154 155" fill="none" xmlns="http://www.w3.org/2000/svg">
<path d="M120.904 0.976562H18.4613C8.35817 0.976562 0.167969 9.16677 0.167969 19.2699V129.03C0.167969 139.133 8.35817 147.323 18.4613 147.323H120.904C131.007 147.323 139.197 139.133 139.197 129.03V19.2699C139.197 9.16677 131.007 0.976562 120.904 0.976562Z" fill="#2A6EED"/>
<path d="M113.587 154.641C135.814 154.641 153.832 136.623 153.832 114.396C153.832 92.1688 135.814 74.1504 113.587 74.1504C91.3602 74.1504 73.3418 92.1688 73.3418 114.396C73.3418 136.623 91.3602 154.641 113.587 154.641Z" fill="#E86820"/>
<path d="M63.8513 110.737H22.1196C21.1493 110.737 20.2187 110.352 19.5325 109.666C18.8464 108.98 18.4609 108.049 18.4609 107.079C18.4609 106.108 18.8464 105.178 19.5325 104.492C20.2187 103.805 21.1493 103.42 22.1196 103.42H63.8513C64.8216 103.42 65.7522 103.805 66.4383 104.492C67.1245 105.178 67.5099 106.108 67.5099 107.079C67.5099 108.049 67.1245 108.98 66.4383 109.666C65.7522 110.352 64.8216 110.737 63.8513 110.737ZM63.8513 125.372H22.1196C21.1493 125.372 20.2187 124.986 19.5325 124.3C18.8464 123.614 18.4609 122.684 18.4609 121.713C18.4609 120.743 18.8464 119.812 19.5325 119.126C20.2187 118.44 21.1493 118.055 22.1196 118.055H63.8513C64.8216 118.055 65.7522 118.44 66.4383 119.126C67.1245 119.812 67.5099 120.743 67.5099 121.713C67.5099 122.684 67.1245 123.614 66.4383 124.3C65.7522 124.986 64.8216 125.372 63.8513 125.372Z" fill="#ECF0F6"/>
<path d="M79.9723 81.2392H22.1196C21.1493 81.2392 20.2187 80.8537 19.5325 80.1676C18.8464 79.4815 18.4609 78.5509 18.4609 77.5805C18.4609 76.6102 18.8464 75.6796 19.5325 74.9935C20.2187 74.3073 21.1493 73.9219 22.1196 73.9219H79.9723C80.9426 73.9219 81.8732 74.3073 82.5593 74.9935C83.2455 75.6796 83.6309 76.6102 83.6309 77.5805C83.6309 78.5509 83.2455 79.4815 82.5593 80.1676C81.8732 80.8537 80.9426 81.2392 79.9723 81.2392ZM70.0253 95.8739H22.1196C21.1493 95.8739 20.2187 95.4884 19.5325 94.8023C18.8464 94.1161 18.4609 93.1855 18.4609 92.2152C18.4609 91.2449 18.8464 90.3143 19.5325 89.6281C20.2187 88.942 21.1493 88.5565 22.1196 88.5565H70.0253C70.9956 88.5565 71.9262 88.942 72.6123 89.6281C73.2985 90.3143 73.6839 91.2449 73.6839 92.2152C73.6839 93.1855 73.2985 94.1161 72.6123 94.8023C71.9262 95.4884 70.9956 95.8739 70.0253 95.8739Z" fill="#ECF0F6"/>
<path d="M103.236 128.401C102.513 128.401 101.805 128.187 101.204 127.784C100.602 127.382 100.133 126.811 99.8566 126.143C99.5797 125.474 99.5073 124.739 99.6484 124.029C99.7895 123.32 100.138 122.668 100.649 122.156L121.35 101.463C122.04 100.796 122.964 100.427 123.924 100.436C124.883 100.444 125.801 100.829 126.479 101.507C127.157 102.185 127.542 103.103 127.55 104.062C127.559 105.022 127.19 105.946 126.523 106.636L105.823 127.329C105.137 128.016 104.206 128.401 103.236 128.401Z" fill="white"/>
<path d="M123.937 128.401C122.967 128.401 122.037 128.016 121.351 127.329L100.65 106.636C99.9836 105.946 99.6148 105.022 99.6232 104.062C99.6315 103.103 100.016 102.185 100.695 101.507C101.373 100.829 102.291 100.444 103.25 100.436C104.209 100.427 105.133 100.796 105.823 101.463L126.524 122.156C127.036 122.668 127.384 123.32 127.525 124.029C127.666 124.739 127.594 125.474 127.317 126.143C127.04 126.811 126.571 127.382 125.97 127.784C125.368 128.187 124.661 128.401 123.937 128.401Z" fill="white"/>
<path d="M76.8863 0.976562V50.5149C76.8839 52.0445 76.4021 53.5349 75.5088 54.7765C74.6155 56.0182 73.3556 56.9487 71.9061 57.4372C70.4566 57.9258 68.8905 57.9478 67.4278 57.5002C65.9652 57.0526 64.6796 56.1579 63.7517 54.9419L63.3493 54.3931C61.6297 52.1247 60.4955 50.7344 59.2881 50.7344C57.7149 50.7344 56.471 52.2345 54.788 54.5029C54.0757 55.8471 53.054 57.0026 51.8072 57.8741C50.5603 58.7457 49.1241 59.3082 47.617 59.5152C46.098 59.3077 44.6404 58.7796 43.341 57.9659C42.0416 57.1522 40.9301 56.0715 40.0801 54.7955C38.2508 52.8199 36.3483 50.7344 34.4458 50.7344C33.897 50.7344 33.3116 50.9174 31.8847 53.2223C31.0471 54.5739 29.7919 55.6159 28.3092 56.1905C26.8266 56.7652 25.1971 56.8412 23.6673 56.4071C22.1376 55.9729 20.7909 55.0523 19.8311 53.7846C18.8712 52.5168 18.3505 50.9709 18.3477 49.3807V0.976562H76.8863Z" fill="#4E85EC"/>
</svg>
