<svg width="19" height="23" viewBox="0 0 19 23" fill="none" xmlns="http://www.w3.org/2000/svg">
<path d="M1.5 3.48866C1.5 2.42038 1.5 1.88624 1.72274 1.5918C1.91678 1.33529 2.21337 1.17656 2.53444 1.15739C2.90298 1.13539 3.34741 1.43167 4.23627 2.02425L15.8034 9.73566C16.5378 10.2253 16.9051 10.4701 17.033 10.7787C17.1449 11.0485 17.1449 11.3517 17.033 11.6214C16.9051 11.93 16.5378 12.1748 15.8034 12.6645L4.23627 20.3759C3.34741 20.9685 2.90298 21.2647 2.53444 21.2427C2.21337 21.2236 1.91678 21.0648 1.72274 20.8083C1.5 20.5139 1.5 19.9798 1.5 18.9115V3.48866Z" stroke="#0F172A" stroke-width="2.2" stroke-linecap="round" stroke-linejoin="round"/>
</svg>
