<svg width="21" height="21" viewBox="0 0 21 21" fill="none" xmlns="http://www.w3.org/2000/svg">
<path d="M17.7001 10.3384L6.45189 3.46426C6.35715 3.40636 6.24869 3.37475 6.13768 3.37267C6.02666 3.37059 5.9171 3.39812 5.82026 3.45243C5.72341 3.50675 5.64279 3.58588 5.58667 3.68169C5.53056 3.7775 5.50098 3.88652 5.50098 3.99756V17.7458C5.50098 17.8568 5.53056 17.9658 5.58667 18.0617C5.64279 18.1575 5.72341 18.2366 5.82026 18.2909C5.9171 18.3452 6.02666 18.3728 6.13768 18.3707C6.24869 18.3686 6.35715 18.337 6.45189 18.2791L17.7001 11.405C17.7914 11.3491 17.8669 11.2708 17.9193 11.1774C17.9716 11.084 17.9992 10.9787 17.9992 10.8717C17.9992 10.7646 17.9716 10.6593 17.9193 10.566C17.8669 10.4726 17.7914 10.3942 17.7001 10.3384Z" fill="#8C94A3"/>
</svg>
