<svg width="25" height="25" viewBox="0 0 25 25" fill="none" xmlns="http://www.w3.org/2000/svg">
<path d="M15.7256 4.811L2.52046 18.031C2.45397 18.0977 2.40658 18.1811 2.38323 18.2724L0.919523 24.1534C0.897996 24.2407 0.899315 24.3321 0.923354 24.4187C0.947392 24.5053 0.993338 24.5842 1.05675 24.6479C1.15416 24.7451 1.28604 24.7997 1.42356 24.7998C1.46598 24.7998 1.50824 24.7946 1.54938 24.7842L7.42425 23.3188C7.51559 23.2958 7.59898 23.2484 7.66547 23.1816L20.8718 9.96253L15.7256 4.811ZM24.1433 3.00848L22.6733 1.53704C21.6909 0.553573 19.9786 0.554549 18.9973 1.53704L17.1967 3.33957L22.3427 8.4909L24.1433 6.68842C24.634 6.19737 24.9043 5.54372 24.9043 4.84857C24.9043 4.15341 24.634 3.49977 24.1433 3.00848Z" fill="#2A6EED"/>
</svg>
