<svg width="21" height="21" viewBox="0 0 21 21" fill="none" xmlns="http://www.w3.org/2000/svg">
<path d="M16.334 3.99658H13.5215C13.1763 3.99658 12.8965 4.2764 12.8965 4.62158V17.1216C12.8965 17.4668 13.1763 17.7466 13.5215 17.7466H16.334C16.6792 17.7466 16.959 17.4668 16.959 17.1216V4.62158C16.959 4.2764 16.6792 3.99658 16.334 3.99658Z" fill="#1D2026"/>
<path d="M7.89648 3.99658H5.08398C4.73881 3.99658 4.45898 4.2764 4.45898 4.62158V17.1216C4.45898 17.4668 4.73881 17.7466 5.08398 17.7466H7.89648C8.24166 17.7466 8.52148 17.4668 8.52148 17.1216V4.62158C8.52148 4.2764 8.24166 3.99658 7.89648 3.99658Z" fill="#1D2026"/>
</svg>
