<svg width="25" height="25" viewBox="0 0 25 25" fill="none" xmlns="http://www.w3.org/2000/svg">
<path d="M2.9043 7.7998L11.0692 13.5152C11.7304 13.9781 12.061 14.2095 12.4206 14.2991C12.7382 14.3783 13.0704 14.3783 13.388 14.2991C13.7476 14.2095 14.0782 13.9781 14.7394 13.5152L22.9043 7.7998M7.7043 20.7998H18.1043C19.7845 20.7998 20.6245 20.7998 21.2663 20.4728C21.8308 20.1852 22.2897 19.7263 22.5773 19.1618C22.9043 18.52 22.9043 17.68 22.9043 15.9998V9.5998C22.9043 7.91965 22.9043 7.07957 22.5773 6.43783C22.2897 5.87335 21.8308 5.41441 21.2663 5.12679C20.6245 4.7998 19.7845 4.7998 18.1043 4.7998H7.7043C6.02414 4.7998 5.18406 4.7998 4.54233 5.12679C3.97784 5.41441 3.5189 5.87335 3.23128 6.43783C2.9043 7.07957 2.9043 7.91965 2.9043 9.5998V15.9998C2.9043 17.68 2.9043 18.52 3.23128 19.1618C3.5189 19.7263 3.97784 20.1852 4.54233 20.4728C5.18406 20.7998 6.02414 20.7998 7.7043 20.7998Z" stroke="white" stroke-width="2" stroke-linecap="round" stroke-linejoin="round"/>
</svg>
