<svg width="19" height="19" viewBox="0 0 19 19" fill="none" xmlns="http://www.w3.org/2000/svg">
    <path d="M14.528 2.702H4.258c-.814 0-1.467.566-1.467 1.258v8.803c0 .691.653 1.257 1.467 1.257h2.935l2.2 1.887 2.201-1.887h2.934c.807 0 1.468-.566 1.468-1.257V3.96c0-.692-.66-1.258-1.468-1.258zm-4.401 10.06H8.66v-1.257h1.467v1.258zm1.518-4.872-.66.578c-.528.46-.858.836-.858 1.78H8.66v-.315c0-.691.33-1.32.858-1.78l.91-.792a1.15 1.15 0 0 0 .432-.886c0-.692-.66-1.258-1.467-1.258s-1.467.566-1.467 1.258H6.46c0-1.39 1.313-2.515 2.934-2.515 1.622 0 2.935 1.125 2.935 2.515 0 .553-.264 1.056-.683 1.415z" fill="#2A6EED"/>
</svg>
