<svg width="35" height="35" viewBox="0 0 35 35" fill="none" xmlns="http://www.w3.org/2000/svg">
<path d="M8.33333 4.26172H28.1667C29.3229 4.26172 30 5.04593 30 5.69029V22.6903C30 23.3347 29.3229 24.1189 28.1667 24.1189H23.5947C22.5716 24.1189 21.619 24.6403 21.0677 25.5021L18.25 29.9062L15.4323 25.5021C14.881 24.6403 13.9284 24.1189 12.9053 24.1189H8.33333C7.1664 24.1189 6.5 23.3376 6.5 22.6903V5.69029C6.5 5.04296 7.1664 4.26172 8.33333 4.26172Z" fill="white" stroke="#2A6EED" stroke-width="2"/>
<path d="M17.4487 22.0746H17.772C18.3077 22.0746 18.7419 21.6342 18.7419 21.091C18.7419 20.5478 18.3077 20.1074 17.772 20.1074H17.4487C16.913 20.1074 16.4787 20.5478 16.4787 21.091C16.4787 21.6342 16.913 22.0746 17.4487 22.0746Z" fill="#2A6EED"/>
<path d="M20.8343 15.0932L21.8527 14.1883C22.4977 13.6277 22.9051 12.8408 22.9051 11.9753C22.9051 9.80161 20.8796 8.04102 18.3787 8.04102C16.3283 8.04102 14.5973 9.22459 14.0404 10.849C13.8351 11.4476 14.359 11.9753 14.984 11.9753C15.6089 11.9753 16.1015 11.4151 16.4787 10.9098C16.883 10.3682 17.5848 10.0082 18.3787 10.0082C19.6235 10.0082 20.6419 10.8934 20.6419 11.9753C20.6419 12.5163 20.393 13.0081 19.9743 13.3621L18.5711 14.6014C17.7564 15.3194 16.4787 17.1824 16.4787 18.2644C16.4787 18.536 16.6959 18.7561 16.9637 18.7561L18.3787 18.7767C18.9232 18.7767 18.9489 17.8009 19.411 17.0538C19.5468 16.8343 19.6759 16.6078 19.7817 16.3725C20.0102 15.8647 20.3734 15.4994 20.8343 15.0932Z" fill="#2A6EED"/>
</svg>
