<svg width="26" height="26" viewBox="0 0 26 26" fill="none" xmlns="http://www.w3.org/2000/svg">
<path d="M20.0915 3.52344H5.50814C4.35189 3.52344 3.4248 4.32701 3.4248 5.30915V17.8092C3.4248 18.7913 4.35189 19.5949 5.50814 19.5949H9.67481L12.7998 22.2734L15.9248 19.5949H20.0915C21.2373 19.5949 22.1748 18.7913 22.1748 17.8092V5.30915C22.1748 4.32701 21.2373 3.52344 20.0915 3.52344ZM13.8415 17.8092H11.7581V16.0234H13.8415V17.8092ZM15.9977 10.8895L15.0602 11.7109C14.3102 12.3627 13.8415 12.8984 13.8415 14.2377H11.7581V13.7913C11.7581 12.8092 12.2269 11.9163 12.9769 11.2645L14.2686 10.1395C14.654 9.81808 14.8831 9.37165 14.8831 8.88058C14.8831 7.89844 13.9456 7.09487 12.7998 7.09487C11.654 7.09487 10.7165 7.89844 10.7165 8.88058H8.63314C8.63314 6.90737 10.4977 5.30915 12.7998 5.30915C15.1019 5.30915 16.9665 6.90737 16.9665 8.88058C16.9665 9.6663 16.5915 10.3806 15.9977 10.8895Z" fill="#FF782D"/>
</svg>
