<svg width="37" height="36" viewBox="0 0 37 36" fill="none" xmlns="http://www.w3.org/2000/svg">
    <path d="M9.322 5h19.833c1.156 0 1.833.784 1.833 1.429v17c0 .644-.677 1.428-1.833 1.428h-4.572a3 3 0 0 0-2.527 1.383l-2.818 4.405-2.817-4.405a3 3 0 0 0-2.527-1.383H9.322c-1.167 0-1.834-.781-1.834-1.428v-17C7.488 5.78 8.155 5 9.322 5z" fill="#fff" stroke="#000" stroke-width="2"/>
    <path d="M18.437 22.813h.323c.536 0 .97-.44.97-.984a.977.977 0 0 0-.97-.983h-.323c-.536 0-.97.44-.97.983 0 .543.434.984.97.984zM21.823 15.832l1.018-.905c.645-.561 1.052-1.348 1.052-2.213 0-2.174-2.025-3.935-4.526-3.935-2.05 0-3.781 1.184-4.338 2.808-.206.599.318 1.127.943 1.127s1.118-.56 1.495-1.066c.404-.541 1.106-.902 1.9-.902 1.245 0 2.263.886 2.263 1.968 0 .54-.249 1.032-.667 1.386l-1.404 1.24c-.814.718-2.092 2.58-2.092 3.663 0 .271.217.491.485.491l1.415.021c.544 0 .57-.976 1.032-1.723.136-.22.265-.446.371-.681.229-.508.592-.873 1.053-1.28z" fill="#000"/>
</svg>
