<svg width="25" height="25" viewBox="0 0 25 25" fill="none" xmlns="http://www.w3.org/2000/svg">
<path d="M4.32268 13.4541L20.1585 22.3221C20.2917 22.3967 20.4445 22.4289 20.5965 22.4143C20.7485 22.3997 20.8924 22.3391 21.009 22.2405C21.1256 22.142 21.2094 22.0102 21.2491 21.8627C21.2888 21.7153 21.2826 21.5593 21.2312 21.4155L18.2442 13.0519C18.186 12.8888 18.186 12.7106 18.2442 12.5474L21.2312 4.18391C21.2826 4.04012 21.2888 3.88408 21.2491 3.73664C21.2094 3.5892 21.1256 3.4574 21.009 3.35884C20.8924 3.26028 20.7485 3.19966 20.5965 3.18509C20.4445 3.17051 20.2917 3.20268 20.1584 3.27728L4.32268 12.1453C4.20636 12.2105 4.1095 12.3054 4.04209 12.4204C3.97467 12.5355 3.93914 12.6664 3.93914 12.7997C3.93914 12.933 3.97467 13.0639 4.04209 13.1789C4.1095 13.294 4.20636 13.3889 4.32268 13.4541Z" fill="white"/>
<path d="M18.1543 12.7998H12.1543" stroke="#2A6EED" stroke-width="1.5" stroke-linecap="round" stroke-linejoin="round"/>
</svg>
