<svg width="29" height="30" viewBox="0 0 29 30" fill="none" xmlns="http://www.w3.org/2000/svg">
<path d="M14.1063 2.23911C14.2623 1.75887 14.9417 1.75887 15.0977 2.23911L17.7033 10.258C17.773 10.4728 17.9732 10.6182 18.199 10.6182H26.6306C27.1356 10.6182 27.3455 11.2644 26.937 11.5612L20.1157 16.5172C19.933 16.6499 19.8565 16.8852 19.9263 17.0999L22.5318 25.1189C22.6879 25.5991 22.1382 25.9984 21.7297 25.7016L14.9084 20.7457C14.7257 20.6129 14.4783 20.6129 14.2956 20.7457L7.4743 25.7016C7.06579 25.9984 6.51614 25.5991 6.67218 25.1189L9.27769 17.0999C9.34747 16.8852 9.27103 16.6499 9.08833 16.5172L2.26702 11.5612C1.8585 11.2644 2.06845 10.6182 2.5734 10.6182H11.005C11.2308 10.6182 11.431 10.4728 11.5008 10.258L14.1063 2.23911Z" fill="#EAB308"/>
</svg>
