<svg width="35" height="33" viewBox="0 0 35 33" fill="none" xmlns="http://www.w3.org/2000/svg">
<path d="M17.0084 1.15383C17.158 0.69317 17.8097 0.69317 17.9594 1.15383L21.2741 11.3555C21.4749 11.9735 22.0509 12.3919 22.7007 12.3919H33.4273C33.9117 12.3919 34.1131 13.0117 33.7212 13.2964L25.0432 19.6014C24.5175 19.9834 24.2975 20.6604 24.4983 21.2784L27.813 31.4801C27.9627 31.9407 27.4354 32.3238 27.0436 32.0391L18.3656 25.7341C17.8398 25.3522 17.1279 25.3522 16.6022 25.7341L7.92419 32.0391C7.53233 32.3238 7.00509 31.9407 7.15477 31.4801L10.4695 21.2784C10.6703 20.6604 10.4503 19.9834 9.92457 19.6014L1.24655 13.2964C0.854691 13.0117 1.05608 12.3919 1.54044 12.3919H12.2671C12.9169 12.3919 13.4928 11.9735 13.6936 11.3555L17.0084 1.15383Z" fill="white" stroke="#AFC7D9"/>
</svg>
