<svg width="35" height="33" viewBox="0 0 35 33" fill="none" xmlns="http://www.w3.org/2000/svg">
<path d="M16.5328 0.999316C16.8322 0.0780058 18.1356 0.0780058 18.4349 0.999316L21.7497 11.2009C21.8835 11.613 22.2675 11.8919 22.7007 11.8919H33.4273C34.3961 11.8919 34.7988 13.1315 34.0151 13.7009L25.3371 20.0059C24.9866 20.2605 24.84 20.7119 24.9738 21.1239L28.2885 31.3256C28.5879 32.2469 27.5334 33.013 26.7497 32.4436L18.0717 26.1386C17.7212 25.884 17.2466 25.884 16.8961 26.1386L8.21808 32.4436C7.43437 33.013 6.37989 32.2469 6.67924 31.3256L9.99395 21.1239C10.1278 20.7119 9.98116 20.2605 9.63068 20.0059L0.952655 13.7009C0.168941 13.1315 0.571717 11.8919 1.54044 11.8919H12.2671C12.7003 11.8919 13.0842 11.613 13.2181 11.2009L16.5328 0.999316Z" fill="#FDD836"/>
</svg>
