<svg width="26" height="27" viewBox="0 0 26 27" fill="none" xmlns="http://www.w3.org/2000/svg">
    <path d="m13.448 19.871 5.122 3.246c.655.414 1.468-.203 1.274-.967l-1.48-5.822a.89.89 0 0 1 .288-.901l4.593-3.823c.604-.503.292-1.504-.483-1.555l-5.999-.389a.855.855 0 0 1-.736-.543L13.79 3.483a.845.845 0 0 0-1.58 0L9.973 9.117a.855.855 0 0 1-.736.543l-5.999.39c-.775.05-1.087 1.051-.483 1.554l4.593 3.823a.89.89 0 0 1 .288.901l-1.372 5.4c-.233.917.742 1.657 1.528 1.16l4.76-3.017a.835.835 0 0 1 .896 0z" fill="#FD8E1F"/>
</svg>
