<svg width="197" height="187" viewBox="0 0 197 187" fill="none" xmlns="http://www.w3.org/2000/svg">
<path d="M70.7351 17.6431C76.1411 12.2994 84.8401 12.2994 90.2461 17.6431L91.6057 18.987C94.9656 22.3082 99.7842 23.6919 104.394 22.6593L106.364 22.218C113.913 20.5273 121.386 25.3347 122.978 32.9046L123.144 33.6949C124.151 38.4876 127.611 42.3944 132.246 43.9747L133.203 44.3008C140.748 46.8729 144.573 55.2643 141.565 62.6466V62.6466C139.663 67.3151 140.453 72.6564 143.617 76.581V76.581C148.671 82.8502 147.357 92.1053 140.744 96.7006L140.415 96.9294C136.317 99.7777 134.063 104.608 134.514 109.578L134.538 109.843C135.249 117.675 129.316 124.531 121.464 124.954L119.871 125.04C115.08 125.297 110.762 128.012 108.453 132.218L107.77 133.462C104.094 140.157 95.699 142.624 88.9862 138.981L87.1096 137.962C82.9813 135.722 77.9999 135.722 73.8716 137.962L71.995 138.981C65.2821 142.624 56.8874 140.157 53.2117 133.462L52.5286 132.218C50.2194 128.012 45.9012 125.297 41.1099 125.04L39.5176 124.954C31.6652 124.531 25.7326 117.675 26.4429 109.843L26.4669 109.578C26.9178 104.608 24.6645 99.7777 20.5659 96.9294L20.2367 96.7006C13.6241 92.1053 12.3103 82.8502 17.3642 76.581V76.581C20.528 72.6564 21.3177 67.3151 19.4157 62.6466V62.6466C16.4081 55.2643 20.2332 46.8729 27.7782 44.3008L28.7348 43.9747C33.3704 42.3944 36.8298 38.4876 37.8374 33.6949L38.0035 32.9046C39.5949 25.3347 47.0684 20.5273 54.6167 22.218L56.5869 22.6593C61.1969 23.6919 66.0156 22.3082 69.3755 18.987L70.7351 17.6431Z" fill="url(#paint0_linear_1387_14658)"/>
<path d="M70.7351 17.6431C76.1411 12.2994 84.8401 12.2994 90.2461 17.6431L91.6057 18.987C94.9656 22.3082 99.7842 23.6919 104.394 22.6593L106.364 22.218C113.913 20.5273 121.386 25.3347 122.978 32.9046L123.144 33.6949C124.151 38.4876 127.611 42.3944 132.246 43.9747L133.203 44.3008C140.748 46.8729 144.573 55.2643 141.565 62.6466V62.6466C139.663 67.3151 140.453 72.6564 143.617 76.581V76.581C148.671 82.8502 147.357 92.1053 140.744 96.7006L140.415 96.9294C136.317 99.7777 134.063 104.608 134.514 109.578L134.538 109.843C135.249 117.675 129.316 124.531 121.464 124.954L119.871 125.04C115.08 125.297 110.762 128.012 108.453 132.218L107.77 133.462C104.094 140.157 95.699 142.624 88.9862 138.981L87.1096 137.962C82.9813 135.722 77.9999 135.722 73.8716 137.962L71.995 138.981C65.2821 142.624 56.8874 140.157 53.2117 133.462L52.5286 132.218C50.2194 128.012 45.9012 125.297 41.1099 125.04L39.5176 124.954C31.6652 124.531 25.7326 117.675 26.4429 109.843L26.4669 109.578C26.9178 104.608 24.6645 99.7777 20.5659 96.9294L20.2367 96.7006C13.6241 92.1053 12.3103 82.8502 17.3642 76.581V76.581C20.528 72.6564 21.3177 67.3151 19.4157 62.6466V62.6466C16.4081 55.2643 20.2332 46.8729 27.7782 44.3008L28.7348 43.9747C33.3704 42.3944 36.8298 38.4876 37.8374 33.6949L38.0035 32.9046C39.5949 25.3347 47.0684 20.5273 54.6167 22.218L56.5869 22.6593C61.1969 23.6919 66.0156 22.3082 69.3755 18.987L70.7351 17.6431Z" fill="url(#paint1_linear_1387_14658)" fill-opacity="0.1"/>
<path d="M30.2285 78.2057C30.2285 51.5964 51.7996 30.0254 78.4088 30.0254H82.5682C109.177 30.0254 130.749 51.5964 130.749 78.2057V78.2057C130.749 104.815 109.177 126.386 82.5682 126.386H78.4088C51.7996 126.386 30.2285 104.815 30.2285 78.2057V78.2057Z" fill="black" fill-opacity="0.04"/>
<path d="M78.4088 35.2067H82.5682C106.316 35.2067 125.567 54.458 125.567 78.2057C125.567 101.953 106.316 121.205 82.5682 121.205H78.4088C54.6612 121.205 35.4099 101.953 35.4099 78.2057C35.4099 54.458 54.6612 35.2067 78.4088 35.2067Z" stroke="white" stroke-opacity="0.3" stroke-width="10.3627"/>
<path opacity="0.8" d="M72.2076 86.9138L62.5571 77.6627C62.0375 77.1635 61.3321 76.8829 60.5964 76.8829C59.8608 76.8829 59.1553 77.1635 58.6357 77.6627C57.5511 78.7025 57.5511 80.3821 58.6357 81.4218L70.2608 92.5658C71.3454 93.6056 73.0975 93.6056 74.1822 92.5658L103.606 64.3592C104.691 63.3194 104.691 61.6398 103.606 60.6001C103.087 60.1009 102.381 59.8203 101.646 59.8203C100.91 59.8203 100.205 60.1009 99.685 60.6001L72.2076 86.9138Z" fill="white" stroke="#FDFDFD" stroke-width="2.07254"/>
<path d="M80.4901 35.284C80.4901 32.5362 82.7225 30.2846 85.4586 30.539C94.6494 31.3936 103.457 34.6073 110.914 39.8761C119.706 46.0883 126.151 54.8259 129.293 64.7909C132.434 74.7559 132.104 85.4167 128.352 95.1896C124.599 104.962 117.624 113.326 108.463 119.038C99.3015 124.75 88.4429 127.505 77.4999 126.894C66.5569 126.284 56.1134 122.34 47.7208 115.649C39.3283 108.957 33.4344 99.8759 30.9147 89.753C28.7979 81.2486 29.1575 72.3903 31.9065 64.1142C32.7871 61.4629 35.7791 60.298 38.3637 61.3584V61.3584C41.092 62.4778 42.3055 65.6362 41.4849 68.4687C39.6956 74.6446 39.5558 81.177 41.1211 87.4658C43.122 95.5046 47.8025 102.716 54.4672 108.03C61.132 113.344 69.4254 116.476 78.1155 116.96C86.8056 117.445 95.4287 115.257 102.704 110.721C109.979 106.186 115.518 99.544 118.498 91.7831C121.478 84.0222 121.74 75.5562 119.245 67.6427C116.751 59.7293 111.632 52.7905 104.65 47.8573C99.0045 43.8683 92.3841 41.3626 85.4544 40.5496C82.7253 40.2294 80.4901 38.0319 80.4901 35.284V35.284Z" fill="white" fill-opacity="0.5"/>
<defs>
<linearGradient id="paint0_linear_1387_14658" x1="80.4906" y1="8" x2="80.4906" y2="145.567" gradientUnits="userSpaceOnUse">
<stop stop-color="#2DB58B"/>
<stop offset="1" stop-color="#258F6E"/>
</linearGradient>
<linearGradient id="paint1_linear_1387_14658" x1="-16.8983" y1="-2.74745" x2="84.6772" y2="188.326" gradientUnits="userSpaceOnUse">
<stop stop-color="white"/>
<stop offset="1" stop-color="white" stop-opacity="0"/>
</linearGradient>
</defs>
</svg>
