<svg width="26" height="27" viewBox="0 0 26 27" fill="none" xmlns="http://www.w3.org/2000/svg">
    <path d="M18.153 14.827h0l-.004.004a1.67 1.67 0 0 0-.54 1.692l1.479 5.82a.107.107 0 0 1 0 .067.101.101 0 0 1-.034.044.07.07 0 0 1-.035.016.02.02 0 0 1-.007 0 .087.087 0 0 1-.024-.012l-5.121-3.245s0 0 0 0a1.615 1.615 0 0 0-1.733 0s0 0 0 0l-4.76 3.015a.21.21 0 0 1-.131.039.27.27 0 0 1-.223-.347l1.372-5.397v-.002a1.67 1.67 0 0 0-.541-1.69l-.004-.004-4.593-3.823a.087.087 0 0 1-.033-.047.128.128 0 0 1 .003-.068.108.108 0 0 1 .03-.05h0c.004-.004.011-.01.035-.011l5.998-.39h.005A1.635 1.635 0 0 0 10.7 9.402l2.236-5.631h0l.004-.012a.065.065 0 0 1 .024-.03l-.441-.64.441.64a.065.065 0 0 1 .098.03h0l.004.012 2.236 5.631a1.634 1.634 0 0 0 1.407 1.036h.005l5.998.39c.024.001.031.007.035.01a.109.109 0 0 1 .03.05.128.128 0 0 1 .003.07.088.088 0 0 1-.033.046l-4.593 3.823z" stroke="#FD8E1F" stroke-width="1.56" stroke-linecap="round" stroke-linejoin="round"/>
</svg>
