<svg width="155" height="154" viewBox="0 0 155 154" fill="none" xmlns="http://www.w3.org/2000/svg">
<g clip-path="url(#clip0_1187_13780)">
<path d="M121.847 83.6994V76.9992C126.204 69.4683 128.699 60.7251 128.699 51.399C128.699 23.1222 105.776 0.199219 77.4989 0.199219C49.2218 0.199219 26.2988 23.1222 26.2988 51.3993C26.2988 60.7254 28.7936 69.4686 33.1502 76.9995V83.6994H121.847Z" fill="#FEDF30"/>
<path d="M77.4994 0.199219C76.3045 0.199219 75.1198 0.243619 73.9453 0.324319C100.564 2.15012 121.591 24.3174 121.591 51.3993C121.591 60.7254 119.097 69.4686 114.74 76.9995V83.6994H121.848V76.9992C126.205 69.4683 128.7 60.7251 128.7 51.399C128.7 23.1222 105.777 0.199219 77.4994 0.199219Z" fill="#FEC526"/>
<path d="M69.8191 38.3572C69.2044 38.3572 68.6148 38.113 68.1801 37.6784C67.7455 37.2437 67.5013 36.6542 67.5013 36.0394C67.5013 31.6711 63.9475 28.117 59.5792 28.117C55.2109 28.117 51.6571 31.6708 51.6571 36.0394C51.6571 36.6542 51.4129 37.2437 50.9782 37.6784C50.5435 38.113 49.954 38.3572 49.3393 38.3572C48.7246 38.3572 48.135 38.113 47.7004 37.6784C47.2657 37.2437 47.0215 36.6542 47.0215 36.0394C47.0215 29.1148 52.6549 23.4814 59.5795 23.4814C66.5038 23.4814 72.1375 29.1151 72.1375 36.0394C72.1372 36.6542 71.8929 37.2437 71.4581 37.6783C71.0234 38.113 70.4338 38.3572 69.8191 38.3572ZM105.659 38.3572C105.354 38.3573 105.053 38.2974 104.772 38.1809C104.491 38.0644 104.235 37.8937 104.02 37.6785C103.805 37.4632 103.634 37.2077 103.517 36.9265C103.401 36.6452 103.341 36.3438 103.341 36.0394C103.341 31.6711 99.7873 28.117 95.4193 28.117C91.051 28.117 87.4969 31.6708 87.4969 36.0394C87.4969 36.3438 87.437 36.6452 87.3205 36.9265C87.2041 37.2077 87.0333 37.4632 86.8181 37.6785C86.6029 37.8937 86.3473 38.0644 86.0661 38.1809C85.7849 38.2974 85.4835 38.3573 85.1791 38.3572C84.8747 38.3573 84.5733 38.2974 84.292 38.1809C84.0108 38.0644 83.7553 37.8937 83.5401 37.6785C83.3248 37.4632 83.1541 37.2077 83.0376 36.9265C82.9212 36.6452 82.8612 36.3438 82.8613 36.0394C82.8613 29.1148 88.495 23.4814 95.4193 23.4814C102.344 23.4814 107.977 29.1151 107.977 36.0394C107.977 36.6542 107.733 37.2437 107.298 37.6784C106.863 38.1131 106.274 38.3572 105.659 38.3572Z" fill="#444444"/>
<path d="M58.3324 75.3994H96.6691C101.6 71.4571 105.291 66.0295 107.058 59.7913C107.523 58.1518 106.301 56.5195 104.597 56.5195H50.4043C48.7 56.5195 47.4787 58.1518 47.9431 59.7913C49.711 66.0298 53.4016 71.4571 58.3324 75.3994Z" fill="#D83131"/>
<path d="M89.5586 75.3994H96.6668C101.597 71.4571 105.288 66.0295 107.055 59.7913C107.52 58.1518 106.299 56.5195 104.594 56.5195H97.4861C99.1904 56.5195 100.412 58.1518 99.9473 59.7913C98.18 66.0298 94.4891 71.4571 89.5586 75.3994Z" fill="#C41926"/>
<path d="M96.6684 75.3992C91.9782 70.1027 85.1313 66.7598 77.5002 66.7598C69.8691 66.7598 63.0222 70.1027 58.332 75.3995V75.3998C59.0388 75.9651 59.7701 76.499 60.5238 77V83.6999H94.4766V76.9997C95.2304 76.4985 95.9615 75.9645 96.6684 75.3992Z" fill="#FE76A8"/>
<path d="M96.6678 75.3997C95.5865 74.1797 94.3921 73.0649 93.1005 72.0703C91.3982 73.942 89.4728 75.5976 87.3672 77.0002V83.7001H94.4754V76.9999C95.2293 76.4989 95.9608 75.965 96.6678 75.3997Z" fill="#FE5694"/>
<path d="M149.499 153.799H5.49922C2.84812 153.799 0.699219 151.65 0.699219 148.999V81.799C0.699219 79.1482 2.84812 76.999 5.49922 76.999H149.499C152.15 76.999 154.299 79.1482 154.299 81.799V148.999C154.299 151.65 152.15 153.799 149.499 153.799Z" fill="#ECF0F6"/>
<path d="M90.4207 109.987C90.5869 110.015 90.7222 110.038 92.9662 110.038C94.0597 110.038 95.6536 110.033 97.9951 110.02C98.6054 110.012 99.1877 109.763 99.6158 109.328C100.044 108.893 100.283 108.306 100.281 107.696C100.28 107.085 100.037 106.5 99.6069 106.068C99.1765 105.635 98.5928 105.389 97.9825 105.384H97.9693C96.292 105.393 94.4896 105.4 93.1288 105.401V87.2392C93.1288 86.9348 93.0689 86.6334 92.9524 86.3522C92.836 86.0709 92.6652 85.8154 92.45 85.6002C92.2348 85.3849 91.9792 85.2142 91.698 85.0977C91.4168 84.9813 91.1154 84.9213 90.811 84.9214C90.5066 84.9213 90.2052 84.9813 89.9239 85.0977C89.6427 85.2142 89.3872 85.3849 89.172 85.6002C88.9567 85.8154 88.786 86.0709 88.6695 86.3522C88.5531 86.6334 88.4931 86.9348 88.4932 87.2392V107.702C88.4931 108.249 88.6865 108.779 89.0393 109.197C89.3921 109.615 89.8814 109.895 90.4207 109.987ZM117.711 107.689C117.708 107.077 117.462 106.49 117.028 106.058C116.594 105.627 116.006 105.384 115.394 105.384H115.381C113.703 105.393 111.901 105.4 110.54 105.401V87.2392C110.54 86.9348 110.48 86.6334 110.364 86.3522C110.247 86.071 110.077 85.8155 109.861 85.6003C109.646 85.385 109.391 85.2143 109.109 85.0978C108.828 84.9813 108.527 84.9214 108.222 84.9214C107.918 84.9214 107.617 84.9813 107.335 85.0978C107.054 85.2143 106.799 85.385 106.583 85.6003C106.368 85.8155 106.197 86.071 106.081 86.3522C105.965 86.6334 105.905 86.9348 105.905 87.2392V107.702C105.905 108.249 106.098 108.779 106.451 109.197C106.804 109.615 107.293 109.895 107.832 109.987C107.999 110.015 108.134 110.038 110.378 110.038C111.471 110.038 113.065 110.033 115.407 110.02C116.021 110.016 116.61 109.769 117.042 109.332C117.474 108.895 117.715 108.304 117.711 107.689ZM80.5801 89.6506C80.8845 89.6506 81.1859 89.5907 81.4671 89.4742C81.7483 89.3578 82.0039 89.187 82.2191 88.9718C82.4343 88.7566 82.6051 88.501 82.7215 88.2198C82.838 87.9386 82.8979 87.6372 82.8979 87.3328C82.8979 87.0284 82.838 86.727 82.7215 86.4458C82.6051 86.1645 82.4343 85.909 82.2191 85.6938C82.0039 85.4785 81.7483 85.3078 81.4671 85.1913C81.1859 85.0749 80.8845 85.0149 80.5801 85.015H72.0292C71.4145 85.015 70.8249 85.2592 70.3902 85.6939C69.9556 86.1285 69.7114 86.7181 69.7114 87.3328V107.626C69.7113 107.93 69.7713 108.231 69.8877 108.513C70.0042 108.794 70.1749 109.049 70.3902 109.265C70.6054 109.48 70.8609 109.651 71.1421 109.767C71.4234 109.884 71.7248 109.944 72.0292 109.943H80.5801C80.8845 109.944 81.1859 109.884 81.4671 109.767C81.7483 109.651 82.0039 109.48 82.2191 109.265C82.4343 109.049 82.6051 108.794 82.7215 108.513C82.838 108.231 82.8979 107.93 82.8979 107.626C82.8979 107.321 82.838 107.02 82.7215 106.739C82.6051 106.457 82.4343 106.202 82.2191 105.987C82.0039 105.771 81.7483 105.601 81.4671 105.484C81.1859 105.368 80.8845 105.308 80.5801 105.308H74.3473V99.7975H79.9495C80.2539 99.7975 80.5553 99.7376 80.8365 99.6211C81.1177 99.5047 81.3733 99.3339 81.5885 99.1187C81.8037 98.9035 81.9745 98.6479 82.0909 98.3667C82.2074 98.0855 82.2673 97.7841 82.2673 97.4797C82.2673 97.1753 82.2074 96.8739 82.0909 96.5927C81.9745 96.3114 81.8037 96.0559 81.5885 95.8407C81.3733 95.6254 81.1177 95.4547 80.8365 95.3382C80.5553 95.2218 80.2539 95.1618 79.9495 95.1619H74.3473V89.6512H80.5801V89.6506ZM41.3179 107.861C41.3398 107.972 41.3698 108.081 41.4076 108.187C41.6 108.728 41.9551 109.196 42.4241 109.527C42.8931 109.859 43.4531 110.036 44.0272 110.037L44.0461 110.036C44.6343 110.032 45.2061 109.842 45.6792 109.492C46.1523 109.142 46.5024 108.652 46.6792 108.091L50.6959 95.1136L54.6946 108.094C54.8728 108.657 55.2257 109.149 55.7023 109.498C56.1788 109.848 56.7542 110.036 57.3451 110.037L57.364 110.036C57.9414 110.032 58.5031 109.849 58.9714 109.511C59.4397 109.173 59.7912 108.698 59.9773 108.151C60.01 108.055 60.0364 107.957 60.0562 107.858L64.0624 87.7291C64.1823 87.1261 64.0579 86.5003 63.7164 85.9891C63.3749 85.4779 62.8443 85.1233 62.2414 85.0033C61.9428 84.9438 61.6355 84.9437 61.3369 85.0029C61.0383 85.0622 60.7544 85.1798 60.5012 85.3489C60.2481 85.518 60.0308 85.7353 59.8617 85.9884C59.6925 86.2415 59.5749 86.5254 59.5156 86.824L56.9554 99.6871L52.9102 86.5561C52.759 86.0638 52.4482 85.6359 52.0268 85.3399C51.6054 85.044 51.0975 84.8968 50.5831 84.9217C50.0687 84.9465 49.5773 85.142 49.1865 85.4773C48.7956 85.8125 48.5275 86.2684 48.4246 86.773L44.4271 99.688L41.8753 86.7886C41.7561 86.1855 41.4021 85.6545 40.8914 85.3124C40.3807 84.9703 39.7549 84.8451 39.1519 84.9643C38.5488 85.0835 38.0178 85.4374 37.6757 85.9482C37.3336 86.4589 37.2084 87.0846 37.3276 87.6877L41.3179 107.861ZM101.89 120.761H101.867C101.252 120.767 100.665 121.017 100.235 121.456C99.8042 121.895 99.5657 122.487 99.5716 123.101L99.7003 136.372L89.6374 121.8C89.3565 121.394 88.953 121.088 88.4858 120.927C88.0186 120.766 87.5122 120.758 87.0405 120.905C86.5687 121.052 86.1563 121.346 85.8633 121.744C85.5704 122.142 85.4123 122.623 85.4122 123.117V143.559C85.4122 144.174 85.6564 144.763 86.091 145.198C86.5257 145.633 87.1153 145.877 87.73 145.877C88.3447 145.877 88.9342 145.633 89.3689 145.198C89.8036 144.763 90.0478 144.174 90.0478 143.559V130.553L99.6442 144.449C100.335 145.447 101.482 145.874 102.57 145.534C103.681 145.187 104.399 144.141 104.399 142.847L104.208 123.057C104.202 122.446 103.955 121.862 103.521 121.433C103.087 121.003 102.501 120.761 101.89 120.761ZM121.88 141.241H115.647V135.731H121.25C121.554 135.731 121.855 135.671 122.137 135.554C122.418 135.438 122.673 135.267 122.889 135.052C123.104 134.837 123.275 134.581 123.391 134.3C123.507 134.019 123.567 133.717 123.567 133.413C123.567 133.108 123.507 132.807 123.391 132.526C123.275 132.245 123.104 131.989 122.889 131.774C122.673 131.559 122.418 131.388 122.137 131.271C121.855 131.155 121.554 131.095 121.25 131.095H115.647V125.584H121.88C122.495 125.584 123.084 125.34 123.519 124.905C123.954 124.47 124.198 123.881 124.198 123.266C124.198 122.651 123.954 122.062 123.519 121.627C123.084 121.193 122.495 120.948 121.88 120.948H113.33C113.025 120.948 112.724 121.008 112.443 121.125C112.161 121.241 111.906 121.412 111.691 121.627C111.475 121.842 111.305 122.098 111.188 122.379C111.072 122.66 111.012 122.962 111.012 123.266V143.559C111.012 143.864 111.072 144.165 111.188 144.446C111.305 144.728 111.475 144.983 111.691 145.198C111.906 145.414 112.161 145.584 112.443 145.701C112.724 145.817 113.025 145.877 113.33 145.877H121.88C122.495 145.877 123.084 145.633 123.519 145.198C123.954 144.764 124.198 144.174 124.198 143.559C124.198 143.255 124.138 142.954 124.022 142.672C123.905 142.391 123.734 142.136 123.519 141.92C123.304 141.705 123.048 141.534 122.767 141.418C122.486 141.301 122.185 141.241 121.88 141.241ZM38.7436 121.367H33.1147C32.8099 121.367 32.5081 121.427 32.2266 121.544C31.945 121.66 31.6893 121.831 31.474 122.047C31.2587 122.263 31.088 122.519 30.9719 122.801C30.8557 123.082 30.7962 123.384 30.7969 123.689V143.236C30.7969 143.397 30.8134 143.554 30.8446 143.705C30.8794 144.271 31.1206 144.804 31.5223 145.204C31.9565 145.635 32.5434 145.877 33.1552 145.877H33.1639C33.334 145.876 37.3465 145.861 38.9488 145.832C44.8234 145.73 49.0873 140.594 49.0873 133.622C49.0876 126.292 44.9308 121.367 38.7436 121.367ZM38.8678 141.198C38.089 141.211 36.6868 141.222 35.4652 141.23C35.4577 138.879 35.4472 135.348 35.4472 133.6C35.4472 132.14 35.4412 128.447 35.437 126.003H38.7436C42.952 126.003 44.4517 129.939 44.4517 133.622C44.4517 137.344 42.7252 141.131 38.8678 141.198ZM67.2496 120.761C60.3253 120.761 54.6916 126.395 54.6916 133.319C54.6916 140.243 60.325 145.877 67.2496 145.877C74.1739 145.877 79.8073 140.243 79.8073 133.319C79.8073 126.395 74.1739 120.761 67.2496 120.761ZM67.2496 141.241C62.8813 141.241 59.3275 137.687 59.3275 133.319C59.3275 128.951 62.8813 125.397 67.2496 125.397C71.6179 125.397 75.1717 128.951 75.1717 133.319C75.1717 137.687 71.6179 141.241 67.2496 141.241Z" fill="#2A6EED"/>
<path d="M149.354 76.999H142.246C144.977 76.999 147.191 79.213 147.191 81.9439V148.854C147.191 151.585 144.977 153.799 142.246 153.799H149.354C152.085 153.799 154.299 151.585 154.299 148.854V81.9439C154.299 79.213 152.085 76.999 149.354 76.999Z" fill="#E2E2E2"/>
</g>
<defs>
<clipPath id="clip0_1187_13780">
<rect width="153.6" height="153.6" fill="white" transform="translate(0.699219 0.200195)"/>
</clipPath>
</defs>
</svg>
