<svg width="23" height="23" viewBox="0 0 23 23" fill="none" xmlns="http://www.w3.org/2000/svg">
    <path d="M17.988 13.95a2.14 2.14 0 0 0 2.138 2.13c0 3.412-.855 4.268-4.268 4.268H7.323c-3.413 0-4.268-.856-4.268-4.268v-.419a2.148 2.148 0 0 0 2.138-2.138 2.148 2.148 0 0 0-2.138-2.139v-.419c.009-3.412.855-4.267 4.268-4.267h8.526c3.413 0 4.268.855 4.268 4.267v.856c-1.174 0-2.13.946-2.13 2.13zM15.532 6.697H7.26l2.667-2.666c2.175-2.175 3.267-2.175 5.441 0l.546.546a1.872 1.872 0 0 0-.382 2.12z" stroke="#E86820" stroke-width="1.56" stroke-linecap="round" stroke-linejoin="round"/>
    <path d="M9.77 6.698v13.65" stroke="#E86820" stroke-width="1.56" stroke-linecap="round" stroke-linejoin="round" stroke-dasharray="7.8 7.8"/>
</svg>
