<svg width="18" height="19" viewBox="0 0 18 19" fill="none" xmlns="http://www.w3.org/2000/svg">
<path fill-rule="evenodd" clip-rule="evenodd" d="M13.5 1.45819C13.5001 1.32274 13.4696 1.18902 13.4108 1.067C13.352 0.94497 13.2664 0.837786 13.1605 0.753435C13.0545 0.669085 12.9308 0.609743 12.7987 0.579833C12.6666 0.549924 12.5295 0.550218 12.3975 0.580694L1.5975 3.07369C1.39943 3.11943 1.22267 3.23088 1.09602 3.38989C0.969366 3.5489 0.900276 3.74611 0.9 3.94939V17.5421H0.45C0.330653 17.5421 0.216193 17.5895 0.131802 17.6739C0.0474107 17.7583 0 17.8727 0 17.9921C0 18.1114 0.0474107 18.2259 0.131802 18.3103C0.216193 18.3947 0.330653 18.4421 0.45 18.4421H5.4V15.7421C5.4 15.5034 5.49482 15.2745 5.6636 15.1057C5.83239 14.9369 6.0613 14.8421 6.3 14.8421H8.1C8.33869 14.8421 8.56761 14.9369 8.7364 15.1057C8.90518 15.2745 9 15.5034 9 15.7421V18.4421H13.5V1.45819ZM4.05 5.84209C3.93065 5.84209 3.81619 5.8895 3.7318 5.9739C3.64741 6.05829 3.6 6.17275 3.6 6.29209V7.19209C3.6 7.31144 3.64741 7.4259 3.7318 7.51029C3.81619 7.59468 3.93065 7.64209 4.05 7.64209H4.95C5.06935 7.64209 5.18381 7.59468 5.2682 7.51029C5.35259 7.4259 5.4 7.31144 5.4 7.19209V6.29209C5.4 6.17275 5.35259 6.05829 5.2682 5.9739C5.18381 5.8895 5.06935 5.84209 4.95 5.84209H4.05ZM3.6 8.99209C3.6 8.87275 3.64741 8.75829 3.7318 8.6739C3.81619 8.5895 3.93065 8.54209 4.05 8.54209H4.95C5.06935 8.54209 5.18381 8.5895 5.2682 8.6739C5.35259 8.75829 5.4 8.87275 5.4 8.99209V9.89209C5.4 10.0114 5.35259 10.1259 5.2682 10.2103C5.18381 10.2947 5.06935 10.3421 4.95 10.3421H4.05C3.93065 10.3421 3.81619 10.2947 3.7318 10.2103C3.64741 10.1259 3.6 10.0114 3.6 9.89209V8.99209ZM4.05 11.2421C3.93065 11.2421 3.81619 11.2895 3.7318 11.3739C3.64741 11.4583 3.6 11.5727 3.6 11.6921V12.5921C3.6 12.7114 3.64741 12.8259 3.7318 12.9103C3.81619 12.9947 3.93065 13.0421 4.05 13.0421H4.95C5.06935 13.0421 5.18381 12.9947 5.2682 12.9103C5.35259 12.8259 5.4 12.7114 5.4 12.5921V11.6921C5.4 11.5727 5.35259 11.4583 5.2682 11.3739C5.18381 11.2895 5.06935 11.2421 4.95 11.2421H4.05ZM6.3 6.29209C6.3 6.17275 6.34741 6.05829 6.4318 5.9739C6.51619 5.8895 6.63065 5.84209 6.75 5.84209H7.65C7.76935 5.84209 7.88381 5.8895 7.9682 5.9739C8.05259 6.05829 8.1 6.17275 8.1 6.29209V7.19209C8.1 7.31144 8.05259 7.4259 7.9682 7.51029C7.88381 7.59468 7.76935 7.64209 7.65 7.64209H6.75C6.63065 7.64209 6.51619 7.59468 6.4318 7.51029C6.34741 7.4259 6.3 7.31144 6.3 7.19209V6.29209ZM6.75 8.54209C6.63065 8.54209 6.51619 8.5895 6.4318 8.6739C6.34741 8.75829 6.3 8.87275 6.3 8.99209V9.89209C6.3 10.0114 6.34741 10.1259 6.4318 10.2103C6.51619 10.2947 6.63065 10.3421 6.75 10.3421H7.65C7.76935 10.3421 7.88381 10.2947 7.9682 10.2103C8.05259 10.1259 8.1 10.0114 8.1 9.89209V8.99209C8.1 8.87275 8.05259 8.75829 7.9682 8.6739C7.88381 8.5895 7.76935 8.54209 7.65 8.54209H6.75ZM6.3 11.6921C6.3 11.5727 6.34741 11.4583 6.4318 11.3739C6.51619 11.2895 6.63065 11.2421 6.75 11.2421H7.65C7.76935 11.2421 7.88381 11.2895 7.9682 11.3739C8.05259 11.4583 8.1 11.5727 8.1 11.6921V12.5921C8.1 12.7114 8.05259 12.8259 7.9682 12.9103C7.88381 12.9947 7.76935 13.0421 7.65 13.0421H6.75C6.63065 13.0421 6.51619 12.9947 6.4318 12.9103C6.34741 12.8259 6.3 12.7114 6.3 12.5921V11.6921ZM9.45 5.84209C9.33065 5.84209 9.21619 5.8895 9.1318 5.9739C9.04741 6.05829 9 6.17275 9 6.29209V7.19209C9 7.31144 9.04741 7.4259 9.1318 7.51029C9.21619 7.59468 9.33065 7.64209 9.45 7.64209H10.35C10.4693 7.64209 10.5838 7.59468 10.6682 7.51029C10.7526 7.4259 10.8 7.31144 10.8 7.19209V6.29209C10.8 6.17275 10.7526 6.05829 10.6682 5.9739C10.5838 5.8895 10.4693 5.84209 10.35 5.84209H9.45ZM9 8.99209C9 8.87275 9.04741 8.75829 9.1318 8.6739C9.21619 8.5895 9.33065 8.54209 9.45 8.54209H10.35C10.4693 8.54209 10.5838 8.5895 10.6682 8.6739C10.7526 8.75829 10.8 8.87275 10.8 8.99209V9.89209C10.8 10.0114 10.7526 10.1259 10.6682 10.2103C10.5838 10.2947 10.4693 10.3421 10.35 10.3421H9.45C9.33065 10.3421 9.21619 10.2947 9.1318 10.2103C9.04741 10.1259 9 10.0114 9 9.89209V8.99209ZM9.45 11.2421C9.33065 11.2421 9.21619 11.2895 9.1318 11.3739C9.04741 11.4583 9 11.5727 9 11.6921V12.5921C9 12.7114 9.04741 12.8259 9.1318 12.9103C9.21619 12.9947 9.33065 13.0421 9.45 13.0421H10.35C10.4693 13.0421 10.5838 12.9947 10.6682 12.9103C10.7526 12.8259 10.8 12.7114 10.8 12.5921V11.6921C10.8 11.5727 10.7526 11.4583 10.6682 11.3739C10.5838 11.2895 10.4693 11.2421 10.35 11.2421H9.45Z" fill="#555555"/>
<path d="M14.3998 3.76416V18.4423H17.5498C17.6692 18.4423 17.7836 18.3948 17.868 18.3105C17.9524 18.2261 17.9998 18.1116 17.9998 17.9923C17.9998 17.8729 17.9524 17.7585 17.868 17.6741C17.7836 17.5897 17.6692 17.5423 17.5498 17.5423H17.0998V5.67036C17.0997 5.50326 17.0531 5.33949 16.9652 5.19739C16.8773 5.05528 16.7516 4.94045 16.6021 4.86576L14.3998 3.76416ZM8.0998 18.4423H6.2998V15.7423H8.0998V18.4423Z" fill="#555555"/>
</svg>
