<svg width="18" height="15" viewBox="0 0 18 15" fill="none" xmlns="http://www.w3.org/2000/svg">
<path d="M11.25 3.375C11.0511 3.375 10.8603 3.29598 10.7197 3.15533C10.579 3.01468 10.5 2.82391 10.5 2.625V1.5H7.5V2.625C7.5 2.82391 7.42098 3.01468 7.28033 3.15533C7.13968 3.29598 6.94891 3.375 6.75 3.375C6.55109 3.375 6.36032 3.29598 6.21967 3.15533C6.07902 3.01468 6 2.82391 6 2.625V1.5C6 0.67275 6.67275 0 7.5 0H10.5C11.3273 0 12 0.67275 12 1.5V2.625C12 2.82391 11.921 3.01468 11.7803 3.15533C11.6397 3.29598 11.4489 3.375 11.25 3.375ZM9.5325 10.035C9.17196 10.1589 8.77956 10.1536 8.4225 10.02L0 7.215V12.9375C0 14.0775 0.9225 15 2.0625 15H15.9375C17.0775 15 18 14.0775 18 12.9375V7.215L9.5325 10.035Z" fill="#374761"/>
<path d="M17.9999 4.3125V6.03L9.17988 8.97C9.11988 8.9925 9.05988 9 8.99988 9C8.93988 9 8.87988 8.9925 8.81988 8.97L-0.00012207 6.03V4.3125C-0.00012207 3.1725 0.922378 2.25 2.06238 2.25H15.9374C17.0774 2.25 17.9999 3.1725 17.9999 4.3125Z" fill="#374761"/>
</svg>
