<svg width="32" height="32" viewBox="0 0 32 32" fill="none" xmlns="http://www.w3.org/2000/svg">
<path d="M22 27.0012C21.7361 27.0012 21.48 26.896 21.2932 26.708L18.9599 24.3745C18.5693 23.9839 18.5693 23.3506 18.9599 22.96C19.3506 22.5693 19.9839 22.5693 20.3747 22.96L21.9492 24.5332L25.5801 20.3452C25.9414 19.928 26.5747 19.8826 26.9907 20.2439C27.4079 20.6052 27.4534 21.2373 27.0906 21.6545L22.7573 26.6545C22.6674 26.7583 22.5571 26.8424 22.4332 26.9016C22.3093 26.9608 22.1745 26.9938 22.0373 26.9985C22.0239 27.0012 22.0119 27.0012 22 27.0012ZM11.3332 25.3345H3.66675C1.64406 25.3345 0 23.6907 0 21.668V6.33447C0 4.31178 1.64406 2.66797 3.66675 2.66797H23C25.0227 2.66797 26.6667 4.31172 26.6667 6.33447V11.668C26.6667 12.22 26.2187 12.668 25.6667 12.668C25.1147 12.668 24.6667 12.2212 24.6667 11.668V6.33447C24.6667 5.41572 23.9187 4.66797 23 4.66797H3.66675C2.748 4.66797 2 5.41578 2 6.33447V21.668C2 22.5867 2.74806 23.3345 3.66675 23.3345H11.3332C11.8852 23.3345 12.3332 23.7825 12.3332 24.3345C12.3332 24.8865 11.8852 25.3345 11.3332 25.3345Z" fill="white"/>
<path d="M25.6668 10H1C0.448 10 0 9.552 0 9C0 8.448 0.448 8 1 8H25.6668C26.2188 8 26.6668 8.448 26.6668 9C26.6668 9.552 26.2188 10 25.6668 10ZM6.33325 7.33325C5.78125 7.33325 5.33325 6.88525 5.33325 6.33325V1C5.33325 0.448 5.78125 0 6.33325 0C6.88525 0 7.33325 0.448 7.33325 1V6.33325C7.33325 6.88525 6.88525 7.33325 6.33325 7.33325ZM20.3333 7.33325C19.7813 7.33325 19.3333 6.88525 19.3333 6.33325V1C19.3333 0.448 19.7813 0 20.3333 0C20.8853 0 21.3333 0.448 21.3333 1V6.33325C21.3333 6.88525 20.8853 7.33325 20.3333 7.33325ZM23.3333 32C18.5547 32 14.6667 28.1121 14.6667 23.3333C14.6667 18.5547 18.5547 14.6667 23.3333 14.6667C28.1121 14.6667 32 18.5547 32 23.3333C32 28.1121 28.1121 32 23.3333 32ZM23.3333 16.6667C19.6573 16.6667 16.6667 19.6573 16.6667 23.3333C16.6667 27.0093 19.6573 30 23.3333 30C27.0093 30 30 27.0093 30 23.3333C30 19.6573 27.0093 16.6667 23.3333 16.6667Z" fill="white"/>
</svg>
