<svg width="40" height="40" viewBox="0 0 40 40" fill="none" xmlns="http://www.w3.org/2000/svg">
<path d="M27.5 33.75C27.1701 33.75 26.85 33.6184 26.6165 33.3835L23.6999 30.4666C23.2116 29.9784 23.2116 29.1867 23.6999 28.6984C24.1882 28.2102 24.9798 28.2102 25.4684 28.6984L27.4365 30.665L31.9751 25.43C32.4267 24.9084 33.2184 24.8517 33.7384 25.3034C34.2599 25.755 34.3167 26.5451 33.8632 27.0666L28.4466 33.3166C28.3342 33.4463 28.1963 33.5515 28.0415 33.6255C27.8866 33.6994 27.7182 33.7407 27.5466 33.7466C27.5299 33.75 27.5149 33.75 27.5 33.75ZM14.1666 31.6666H4.58344C2.05508 31.6666 0 29.6119 0 27.0834V7.91656C0 5.3882 2.05508 3.33344 4.58344 3.33344H28.75C31.2784 3.33344 33.3334 5.38812 33.3334 7.91656V14.5834C33.3334 15.2734 32.7734 15.8334 32.0834 15.8334C31.3934 15.8334 30.8334 15.275 30.8334 14.5834V7.91656C30.8334 6.76812 29.8984 5.83344 28.75 5.83344H4.58344C3.435 5.83344 2.5 6.7682 2.5 7.91656V27.0834C2.5 28.2319 3.43508 29.1666 4.58344 29.1666H14.1666C14.8566 29.1666 15.4166 29.7266 15.4166 30.4166C15.4166 31.1066 14.8566 31.6666 14.1666 31.6666Z" fill="white"/>
<path d="M32.0834 12.5H1.25C0.56 12.5 0 11.94 0 11.25C0 10.56 0.56 10 1.25 10H32.0834C32.7734 10 33.3334 10.56 33.3334 11.25C33.3334 11.94 32.7734 12.5 32.0834 12.5ZM7.91656 9.16656C7.22656 9.16656 6.66656 8.60656 6.66656 7.91656V1.25C6.66656 0.56 7.22656 0 7.91656 0C8.60656 0 9.16656 0.56 9.16656 1.25V7.91656C9.16656 8.60656 8.60656 9.16656 7.91656 9.16656ZM25.4166 9.16656C24.7266 9.16656 24.1666 8.60656 24.1666 7.91656V1.25C24.1666 0.56 24.7266 0 25.4166 0C26.1066 0 26.6666 0.56 26.6666 1.25V7.91656C26.6666 8.60656 26.1066 9.16656 25.4166 9.16656ZM29.1666 40C23.1934 40 18.3334 35.1401 18.3334 29.1666C18.3334 23.1934 23.1934 18.3334 29.1666 18.3334C35.1401 18.3334 40 23.1934 40 29.1666C40 35.1401 35.1401 40 29.1666 40ZM29.1666 20.8334C24.5716 20.8334 20.8334 24.5716 20.8334 29.1666C20.8334 33.7616 24.5716 37.5 29.1666 37.5C33.7616 37.5 37.5 33.7616 37.5 29.1666C37.5 24.5716 33.7616 20.8334 29.1666 20.8334Z" fill="white"/>
</svg>
