<svg width="18" height="19" viewBox="0 0 18 19" fill="none" xmlns="http://www.w3.org/2000/svg">
<path d="M17.9595 2.97019C17.9197 2.8738 17.8521 2.79142 17.7654 2.73348C17.6786 2.67553 17.5767 2.64464 17.4724 2.64471H15.8552V1.02756C15.8553 0.923263 15.8244 0.821289 15.7665 0.734562C15.7085 0.647836 15.6262 0.580261 15.5298 0.540401C15.3325 0.457995 15.1059 0.504366 14.955 0.654729L12.8457 2.79922C12.7967 2.84817 12.7578 2.90629 12.7313 2.97026C12.7048 3.03423 12.6912 3.10281 12.6912 3.17206V5.06304L8.09968 9.65462C7.8937 9.8606 7.8937 10.1943 8.09968 10.4003C8.30566 10.6063 8.63939 10.6063 8.84537 10.4003L13.4369 5.80881H15.3279C15.4679 5.80881 15.6018 5.75319 15.7007 5.6543L17.8452 3.54492C17.919 3.47121 17.9693 3.37724 17.9897 3.27492C18.01 3.1726 17.9995 3.06654 17.9595 2.97019Z" fill="#001F56"/>
<path d="M16.1661 6.61894C15.9167 6.77581 15.6294 6.86324 15.3279 6.86324H13.8736L13.5343 7.2025C14.0032 8.03929 14.2732 9.00183 14.2732 10.0273C14.2732 13.2258 11.671 15.828 8.47251 15.828C5.274 15.828 2.67184 13.2258 2.67184 10.0273C2.67184 6.82879 5.27403 4.22656 8.47255 4.22656C9.49802 4.22656 10.4605 4.4966 11.2973 4.96544L11.6366 4.62618V3.17187C11.6366 2.8703 11.724 2.58301 11.8809 2.33361C10.8147 1.85981 9.66775 1.58984 8.47255 1.58984C3.82025 1.58984 0 5.37491 0 10.0272C0 14.6796 3.82022 18.4998 8.47251 18.4998C13.1248 18.4998 16.9099 14.6795 16.9099 10.0272C16.9099 8.83206 16.6399 7.68513 16.1661 6.61894Z" fill="#001F56"/>
<path d="M12.743 7.9939L10.5676 10.1693C10.4932 11.2668 9.58887 12.1366 8.47258 12.1366C7.30761 12.1366 6.36325 11.1922 6.36325 10.0273C6.36325 8.91089 7.23312 8.0067 8.33052 7.93228L10.506 5.75684C9.88727 5.46079 9.20306 5.28125 8.47258 5.28125C5.85548 5.28125 3.72656 7.41017 3.72656 10.0273C3.72656 12.6444 5.85548 14.7733 8.47258 14.7733C11.0897 14.7733 13.2186 12.6444 13.2186 10.0273C13.2186 9.2968 13.0391 8.61258 12.743 7.9939Z" fill="#001F56"/>
</svg>
