<svg width="39" height="40" viewBox="0 0 39 40" fill="none" xmlns="http://www.w3.org/2000/svg">
<path fill-rule="evenodd" clip-rule="evenodd" d="M31.6046 25.5915V38.5752C31.6046 39.3591 30.9637 40 30.1798 40H1.87501C1.08646 40 0.447266 39.3585 0.447266 38.5752V1.42774C0.447266 0.639839 1.0871 0 1.87501 0H25.7976C26.1896 0 26.529 0.142419 26.8044 0.417903L31.1866 4.80016C31.4622 5.07565 31.6046 5.415 31.6046 5.80702V13.8905L33.1474 11.2192C33.8471 10.0046 35.4072 9.58395 36.6221 10.2864L37.2818 10.6646L37.283 10.6652C38.4975 11.3648 38.9151 12.9289 38.2155 14.1434L38.2151 14.144L37.1053 16.0658L31.6046 25.5915ZM25.4741 1.29032H1.87501C1.7992 1.29032 1.73759 1.35185 1.73759 1.42774V38.5752C1.73759 38.6498 1.79985 38.7097 1.87501 38.7097H30.1798C30.2538 38.7097 30.3143 38.6492 30.3143 38.5752V27.8259L28.5586 30.8663L28.5574 30.8681C28.5008 30.9662 28.4194 31.0477 28.3213 31.1043L24.3714 33.3844C24.2733 33.4411 24.162 33.4709 24.0488 33.4709C23.9355 33.4709 23.8243 33.4411 23.7262 33.3844C23.6281 33.3278 23.5467 33.2463 23.49 33.1482C23.4334 33.0502 23.4036 32.9389 23.4036 32.8256V28.2624C23.4036 28.1481 23.434 28.037 23.4902 27.9398L30.3143 16.1245V6.13048H26.5106C25.9424 6.13048 25.4741 5.66218 25.4741 5.09403V1.29032ZM29.4019 4.84016L26.7644 2.20274V4.84016H29.4019ZM32.8327 14.344L24.9302 28.0263L27.7638 29.6623L35.6652 15.9794L32.8327 14.344ZM36.3105 14.8619L37.0974 13.4992C37.4423 12.9003 37.238 12.1286 36.6392 11.7835L35.9798 11.4054L35.9773 11.404C35.3789 11.0573 34.6102 11.2649 34.2655 11.8632L34.2652 11.8639L33.4781 13.2266L36.3105 14.8619ZM24.694 29.3798V31.7083L26.7106 30.5442L24.694 29.3798ZM11.6165 37.7621C7.75993 37.7621 4.60968 34.6165 4.60968 30.7553C4.60968 26.8988 7.75993 23.7485 11.6165 23.7485C15.4777 23.7485 18.6232 26.8988 18.6232 30.7553C18.6232 34.6165 15.4777 37.7621 11.6165 37.7621ZM11.6165 36.4718C14.7666 36.4718 17.3329 33.9055 17.3329 30.7553C17.3329 27.609 14.7666 25.0389 11.6165 25.0389C8.47009 25.0389 5.90001 27.609 5.90001 30.7553C5.90001 33.9055 8.47009 36.4718 11.6165 36.4718ZM8.17186 31.391C7.92009 31.1393 7.92009 30.7305 8.17186 30.4787C8.42364 30.2269 8.83243 30.2269 9.0842 30.4787L10.394 31.7885L14.1757 28.3579C14.3024 28.243 14.4696 28.1831 14.6405 28.1915C14.8114 28.1998 14.9719 28.2756 15.0869 28.4023C15.2018 28.529 15.2617 28.6962 15.2534 28.8671C15.2451 29.038 15.1693 29.1985 15.0426 29.3135L10.8058 33.157C10.6831 33.2683 10.5223 33.3282 10.3567 33.3242C10.191 33.3201 10.0333 33.2525 9.91614 33.1354L8.17186 31.391ZM11.6165 6.72992C11.2604 6.72992 10.9713 6.44081 10.9713 6.08476C10.9713 5.72871 11.2604 5.4396 11.6165 5.4396H21.3609C21.7169 5.4396 22.0061 5.72871 22.0061 6.08476C22.0061 6.44081 21.7169 6.72992 21.3609 6.72992H11.6165ZM16.4886 10.5018C16.1326 10.5018 15.8435 10.2127 15.8435 9.85661C15.8435 9.50048 16.1326 9.21145 16.4886 9.21145H25.9048C26.2609 9.21145 26.55 9.50048 26.55 9.85661C26.55 10.2127 26.2609 10.5018 25.9048 10.5018H16.4886ZM5.25485 10.5018C4.8988 10.5018 4.60968 10.2127 4.60968 9.85661C4.60968 9.50048 4.8988 9.21145 5.25485 9.21145H13.1091C13.4652 9.21145 13.7543 9.50048 13.7543 9.85661C13.7543 10.2127 13.4652 10.5018 13.1091 10.5018H5.25485ZM5.25485 6.72992C4.8988 6.72992 4.60968 6.44081 4.60968 6.08476C4.60968 5.72871 4.8988 5.4396 5.25485 5.4396H8.58412C8.94017 5.4396 9.22928 5.72871 9.22928 6.08476C9.22928 6.44081 8.94017 6.72992 8.58412 6.72992H5.25485ZM5.25485 18.0455C4.8988 18.0455 4.60968 17.7564 4.60968 17.4003C4.60968 17.0442 4.8988 16.7552 5.25485 16.7552H10.1168C10.4728 16.7552 10.7619 17.0442 10.7619 17.4003C10.7619 17.7564 10.4728 18.0455 10.1168 18.0455H5.25485ZM5.25485 21.8173C4.8988 21.8173 4.60968 21.5282 4.60968 21.1722C4.60968 20.816 4.8988 20.527 5.25485 20.527H15.7366C16.0927 20.527 16.3818 20.816 16.3818 21.1722C16.3818 21.5282 16.0927 21.8173 15.7366 21.8173H5.25485ZM19.1669 21.8173C18.8108 21.8173 18.5217 21.5282 18.5217 21.1722C18.5217 20.816 18.8108 20.527 19.1669 20.527H23.0948C23.4508 20.527 23.7399 20.816 23.7399 21.1722C23.7399 21.5282 23.4508 21.8173 23.0948 21.8173H19.1669ZM13.1091 18.0455C12.7531 18.0455 12.464 17.7564 12.464 17.4003C12.464 17.0442 12.7531 16.7552 13.1091 16.7552H23.0948C23.4508 16.7552 23.7399 17.0442 23.7399 17.4003C23.7399 17.7564 23.4508 18.0455 23.0948 18.0455H13.1091ZM5.25485 14.2736C4.8988 14.2736 4.60968 13.9845 4.60968 13.6285C4.60968 13.2723 4.8988 12.9833 5.25485 12.9833H17.9781C18.3341 12.9833 18.6232 13.2723 18.6232 13.6285C18.6232 13.9845 18.3341 14.2736 17.9781 14.2736H5.25485ZM21.1967 14.2736C20.8407 14.2736 20.5515 13.9845 20.5515 13.6285C20.5515 13.2723 20.8407 12.9833 21.1967 12.9833H24.8884C25.2445 12.9833 25.5336 13.2723 25.5336 13.6285C25.5336 13.9845 25.2445 14.2736 24.8884 14.2736H21.1967Z" fill="white"/>
</svg>
