<svg width="22" height="23" viewBox="0 0 22 23" fill="none" xmlns="http://www.w3.org/2000/svg">
<path d="M11 0.5C4.928 0.5 0 5.428 0 11.5C0 17.572 4.928 22.5 11 22.5C17.072 22.5 22 17.572 22 11.5C22 5.428 17.072 0.5 11 0.5ZM11 18.1C10.1933 18.1 9.53333 17.44 9.53333 16.6333C9.53333 15.8267 10.1933 15.1667 11 15.1667C11.8067 15.1667 12.4667 15.8267 12.4667 16.6333C12.4667 17.44 11.8067 18.1 11 18.1ZM12.6793 6.726L12.188 12.6073C12.1367 13.2233 11.6233 13.7 11 13.7C10.3767 13.7 9.86333 13.2233 9.812 12.6073L9.32067 6.726C9.24 5.74333 10.01 4.9 11 4.9C11.2215 4.9 11.4408 4.94363 11.6455 5.02839C11.8501 5.11315 12.036 5.23739 12.1927 5.39401C12.3493 5.55063 12.4735 5.73657 12.5583 5.94121C12.643 6.14584 12.6867 6.36517 12.6867 6.58667C12.6867 6.63067 12.6867 6.682 12.6793 6.726Z" fill="#bf2132"/>
</svg>
