<svg width="25" height="24" viewBox="0 0 25 24" fill="none" xmlns="http://www.w3.org/2000/svg">
<path d="M5.59558 23.958C5.32165 23.958 5.04967 23.8726 4.81754 23.7047C4.60641 23.5519 4.44487 23.3404 4.353 23.0965C4.26113 22.8526 4.24299 22.5871 4.30083 22.3329L5.90917 15.2483L0.454748 10.465C0.258579 10.2938 0.117068 10.0688 0.0478211 9.8178C-0.021426 9.56683 -0.0153524 9.30104 0.0652861 9.05349C0.14543 8.80608 0.296426 8.58763 0.499553 8.42523C0.70268 8.26283 0.949005 8.16362 1.20799 8.13989L8.4248 7.48465L11.2781 0.807393C11.4884 0.316805 11.9676 0 12.4999 0C13.0323 0 13.5114 0.316805 13.7218 0.80627L16.5751 7.48465L23.7908 8.1398C24.3221 8.18765 24.77 8.54723 24.9346 9.05344C25.0992 9.55971 24.947 10.1149 24.5461 10.465L19.0917 15.2473L20.7 22.3318C20.8179 22.8527 20.6157 23.3914 20.1835 23.7038C19.7522 24.0162 19.1771 24.0402 18.723 23.7673L12.4999 20.0484L6.2769 23.7694C6.06649 23.8943 5.83206 23.958 5.59558 23.958Z" fill="#169ED9"/>
</svg>
