<svg width="35" height="40" viewBox="0 0 35 40" fill="none" xmlns="http://www.w3.org/2000/svg">
<path d="M31.635 8.02667C31.3233 8.02774 31.0227 7.91107 30.7933 7.7C27.115 4.34667 22.395 2.5 17.5017 2.5C12.6083 2.5 7.88832 4.34667 4.20999 7.70167C3.96128 7.89977 3.64656 7.99594 3.3296 7.9707C3.01263 7.94545 2.71711 7.80067 2.5029 7.56569C2.28868 7.33071 2.17178 7.02309 2.17589 6.70515C2.17999 6.38721 2.30478 6.08271 2.52499 5.85333C6.66665 2.07833 11.985 0 17.5017 0C23.0183 0 28.3367 2.07833 32.4783 5.85333C32.6646 6.02331 32.7951 6.24563 32.8527 6.49112C32.9103 6.73661 32.8923 6.99378 32.8011 7.22886C32.7099 7.46394 32.5497 7.66594 32.3416 7.80832C32.1335 7.9507 31.8871 8.02682 31.635 8.02667Z" fill="white"/>
<path d="M33.7504 16.195C33.5451 16.1955 33.3429 16.1452 33.1617 16.0487C32.9806 15.9522 32.8261 15.8123 32.7121 15.6416C29.2421 10.475 23.5554 7.38998 17.5004 7.38998C11.4454 7.38998 5.75873 10.475 2.28873 15.6416C2.19724 15.778 2.07979 15.895 1.94308 15.986C1.80638 16.0769 1.6531 16.1401 1.49199 16.1718C1.33088 16.2035 1.1651 16.2032 1.00411 16.1709C0.843122 16.1385 0.690081 16.0748 0.553725 15.9833C0.41737 15.8918 0.300369 15.7744 0.209403 15.6377C0.118438 15.501 0.0552886 15.3477 0.0235619 15.1866C-0.00816481 15.0255 -0.00784788 14.8597 0.0244945 14.6987C0.0568368 14.5377 0.120571 14.3847 0.212059 14.2483C4.14706 8.38998 10.6104 4.89165 17.5004 4.89165C24.3904 4.89165 30.8537 8.38998 34.7887 14.25C34.9146 14.4381 34.987 14.6569 34.9982 14.883C35.0094 15.1091 34.9591 15.334 34.8524 15.5337C34.7458 15.7333 34.587 15.9003 34.3929 16.0168C34.1988 16.1333 33.9768 16.1949 33.7504 16.195Z" fill="white"/>
<path d="M13.553 40C13.3878 40.0002 13.2242 39.9676 13.0717 39.904C12.9193 39.8405 12.7809 39.7474 12.6647 39.63C12.3913 39.355 5.98633 32.8167 5.98633 26.5217C5.98633 19.9883 11.1513 14.6733 17.5013 14.6733C23.8513 14.6733 29.0163 19.9883 29.0163 26.5217C29.0163 26.8532 28.8846 27.1711 28.6502 27.4056C28.4158 27.64 28.0979 27.7717 27.7663 27.7717C27.4348 27.7717 27.1169 27.64 26.8824 27.4056C26.648 27.1711 26.5163 26.8532 26.5163 26.5217C26.5163 21.3667 22.473 17.1733 17.5013 17.1733C12.5297 17.1733 8.48633 21.3667 8.48633 26.5217C8.48633 31.8 14.3813 37.81 14.4413 37.87C14.6151 38.0453 14.7331 38.2681 14.7804 38.5103C14.8277 38.7525 14.8023 39.0034 14.7073 39.2312C14.6123 39.459 14.452 39.6535 14.2465 39.7903C14.0411 39.9272 13.7998 40.0001 13.553 40Z" fill="white"/>
<path d="M21.4478 40C18.4411 40 11.4711 34.28 10.7961 27.91C10.5578 25.6583 11.2744 23.355 12.7111 21.7483C13.9611 20.3517 15.6494 19.5767 17.4644 19.5667H17.4994C19.2694 19.5667 20.9428 20.2617 22.2161 21.5267C22.8743 22.1809 23.3956 22.9597 23.7496 23.8176C24.1036 24.6755 24.2831 25.5953 24.2778 26.5233V27.3383C24.2778 29.3467 25.8411 30.98 27.7644 30.98C29.6878 30.98 31.2528 29.3467 31.2528 27.3383V27.0533C31.2528 19.27 25.6144 12.795 18.4161 12.315C14.6628 12.06 11.0628 13.3567 8.28443 15.9533C5.4011 18.65 3.74777 22.5033 3.74777 26.5233C3.74314 29.8167 4.85469 33.0145 6.9011 35.595C7.00353 35.7234 7.07968 35.8706 7.12519 36.0284C7.1707 36.1862 7.18468 36.3514 7.16634 36.5146C7.148 36.6778 7.0977 36.8358 7.0183 36.9796C6.9389 37.1234 6.83197 37.2501 6.7036 37.3525C6.57523 37.4549 6.42795 37.5311 6.27015 37.5766C6.11236 37.6221 5.94715 37.6361 5.78395 37.6177C5.62075 37.5994 5.46276 37.5491 5.319 37.4697C5.17524 37.3903 5.04853 37.2834 4.9461 37.155C2.5469 34.1303 1.24274 30.3823 1.2461 26.5217C1.2461 21.8117 3.18943 17.2933 6.57443 14.1267C9.86277 11.05 14.1261 9.51999 18.5794 9.81833C27.0861 10.3867 33.7511 17.9567 33.7511 27.0517V27.3367C33.7511 30.7233 31.0644 33.4783 27.7628 33.4783C24.4611 33.4783 21.7761 30.7233 21.7761 27.3367V26.5217C21.7761 25.2917 21.3061 24.1483 20.4528 23.2983C20.0662 22.9081 19.6062 22.5982 19.0993 22.3865C18.5925 22.1749 18.0487 22.0656 17.4994 22.065H17.4761C16.0678 22.0717 15.1194 22.8033 14.5728 23.415C13.5978 24.5033 13.1144 26.0867 13.2794 27.6467C13.8311 32.8433 19.8028 37.5017 21.4461 37.5017C21.7695 37.5133 22.0758 37.6498 22.3006 37.8827C22.5254 38.1155 22.6511 38.4264 22.6513 38.75C22.6515 39.0736 22.5262 39.3847 22.3018 39.6179C22.0773 39.851 21.7712 39.988 21.4478 40Z" fill="white"/>
<path d="M26.0873 37.555C21.614 37.555 16.1523 32.0883 16.1523 25.7067C16.1523 25.3751 16.284 25.0572 16.5185 24.8228C16.7529 24.5884 17.0708 24.4567 17.4023 24.4567C17.7339 24.4567 18.0518 24.5884 18.2862 24.8228C18.5206 25.0572 18.6523 25.3751 18.6523 25.7067C18.6523 30.6533 22.8107 35.055 26.0873 35.055C26.4189 35.055 26.7368 35.1867 26.9712 35.4211C27.2056 35.6555 27.3373 35.9735 27.3373 36.305C27.3373 36.6365 27.2056 36.9545 26.9712 37.1889C26.7368 37.4233 26.4189 37.555 26.0873 37.555Z" fill="white"/>
</svg>
