<svg width="42" height="40" viewBox="0 0 42 40" fill="none" xmlns="http://www.w3.org/2000/svg">
<path d="M3.92034 15.1272C3.66711 15.1269 3.41994 15.0497 3.21157 14.9058C3.00319 14.7619 2.84344 14.5581 2.75345 14.3214C2.66347 14.0847 2.6475 13.8262 2.70767 13.5803C2.76783 13.3343 2.90129 13.1124 3.09037 12.9439C7.33857 9.16567 12.9967 7.60737 18.6282 8.66401C18.9432 8.7364 19.218 8.92786 19.3951 9.1983C19.5721 9.46874 19.6377 9.79719 19.578 10.1149C19.5184 10.4326 19.3381 10.7148 19.075 10.9026C18.8119 11.0904 18.4864 11.1691 18.1666 11.1223C13.3067 10.2056 8.41353 11.554 4.75031 14.8139C4.52143 15.0166 4.22606 15.1281 3.92034 15.1272Z" fill="white"/>
<path d="M2.23664 21.4804C2.009 21.4801 1.78576 21.4177 1.59102 21.2998C1.39627 21.1819 1.23741 21.0131 1.13158 20.8116C1.02575 20.61 0.976963 20.3834 0.990491 20.1562C1.00402 19.9289 1.07935 19.7097 1.20834 19.5221C5.19488 13.7339 12.3297 10.944 18.9561 12.5839C19.2777 12.664 19.5545 12.8681 19.726 13.1517C19.8975 13.4353 19.9496 13.7753 19.8711 14.0972C19.8327 14.2571 19.7629 14.4078 19.6658 14.5405C19.5687 14.6732 19.4462 14.7853 19.3054 14.8702C19.1646 14.9552 19.0083 15.0114 18.8457 15.0355C18.683 15.0595 18.5172 15.0511 18.3578 15.0105C12.7263 13.6156 6.66484 16.0039 3.26994 20.9388C3.15454 21.1061 3.00017 21.2428 2.82016 21.3371C2.64015 21.4315 2.43989 21.4807 2.23664 21.4804ZM12.0247 40C11.6964 40.0006 11.3812 39.8712 11.148 39.64C10.9264 39.4234 5.74987 34.2568 5.74987 29.2402C5.74987 24.0054 9.97306 19.7471 15.1646 19.7471C20.3561 19.7471 24.5793 24.0054 24.5793 29.2402C24.5793 29.5718 24.4476 29.8897 24.2132 30.1241C23.9788 30.3585 23.6608 30.4902 23.3293 30.4902C22.9978 30.4902 22.6799 30.3585 22.4455 30.1241C22.211 29.8897 22.0793 29.5718 22.0793 29.2402C22.0793 25.3853 18.9778 22.2471 15.1646 22.2471C11.3514 22.2471 8.24979 25.3837 8.24979 29.2402C8.24979 33.2085 12.858 37.8167 12.9046 37.8617C13.0799 38.0364 13.1995 38.2591 13.2483 38.5017C13.2971 38.7443 13.2728 38.9959 13.1787 39.2247C13.0845 39.4535 12.9246 39.6493 12.7192 39.7873C12.5138 39.9253 12.2721 39.9993 12.0247 40Z" fill="white"/>
<path d="M5.9562 38.1534C5.77035 38.1535 5.58682 38.1121 5.41901 38.0322C5.2512 37.9524 5.10334 37.836 4.98623 37.6917C3.03131 35.3098 1.96653 32.3217 1.97466 29.2402C1.97466 25.5587 3.51127 22.0071 6.18786 19.4971C7.49722 18.261 9.04831 17.3094 10.7435 16.7022C12.4386 16.095 14.2412 15.8453 16.0375 15.9689C17.8972 16.0885 19.7065 16.6232 21.3324 17.5338C21.6219 17.6954 21.8354 17.9653 21.9259 18.2843C22.0163 18.6033 21.9764 18.9451 21.8149 19.2346C21.6533 19.5241 21.3834 19.7376 21.0644 19.8281C20.7454 19.9186 20.4036 19.8787 20.1141 19.7171C18.8117 18.9875 17.3623 18.5592 15.8726 18.4638C14.4175 18.3597 12.9568 18.56 11.5834 19.0518C10.2101 19.5437 8.9543 20.3163 7.89614 21.3204C6.81625 22.3374 5.95557 23.5644 5.36691 24.926C4.77825 26.2876 4.47403 27.7552 4.47291 29.2386C4.46711 31.7458 5.33386 34.177 6.9245 36.1151C7.07341 36.2983 7.16738 36.52 7.19552 36.7544C7.22366 36.9889 7.18482 37.2265 7.0835 37.4398C6.98218 37.653 6.82252 37.8333 6.62302 37.9596C6.42351 38.0858 6.19232 38.1531 5.9562 38.1534Z" fill="white"/>
<path d="M18.2981 40C15.8365 40 10.1301 35.4318 9.57674 30.3469C9.38174 28.5119 9.95006 26.7036 11.1334 25.382C11.6343 24.8107 12.2508 24.352 12.9419 24.0363C13.6331 23.7206 14.3834 23.555 15.1432 23.5504C15.8648 23.5316 16.5827 23.6592 17.2536 23.9256C17.9244 24.192 18.5343 24.5917 19.0464 25.1003C19.8514 25.8986 20.8114 27.3753 20.8114 29.8719C20.8114 31.2819 21.9397 32.4302 23.3263 32.4302C24.5846 32.4302 25.8579 31.4785 25.8579 29.6619C25.8587 27.6808 25.3496 25.7328 24.3796 24.0054C24.2479 23.8193 24.1699 23.6005 24.1541 23.3731C24.1383 23.1456 24.1854 22.9182 24.2902 22.7157C24.3949 22.5132 24.5534 22.3434 24.7482 22.2249C24.943 22.1064 25.1666 22.0437 25.3946 22.0437H25.4112C25.8596 22.0437 26.2712 22.2821 26.4929 22.6687C27.7146 24.7962 28.357 27.2069 28.3561 29.6602C28.3561 33.0818 25.7629 34.9285 23.3246 34.9285C20.5597 34.9285 18.3098 32.6602 18.3098 29.8702C18.3098 28.5753 17.9548 27.5386 17.2848 26.872C16.5932 26.1853 15.7432 26.0753 15.1582 26.0486C14.7475 26.0507 14.3419 26.1408 13.969 26.3131C13.5961 26.4853 13.2645 26.7356 12.9966 27.047C12.2933 27.8319 11.9433 28.9652 12.0617 30.0786C12.4966 34.0751 17.2682 37.5001 18.2981 37.5001C18.6296 37.5001 18.9476 37.6318 19.182 37.8662C19.4164 38.1006 19.5481 38.4185 19.5481 38.75C19.5481 39.0815 19.4164 39.3995 19.182 39.6339C18.9476 39.8683 18.6296 40 18.2981 40Z" fill="white"/>
<path d="M21.9957 38.0984C18.2991 38.0984 13.8359 33.8635 13.8359 28.6052C13.8359 28.2737 13.9676 27.9558 14.202 27.7214C14.4365 27.487 14.7544 27.3553 15.0859 27.3553C15.4174 27.3553 15.7353 27.487 15.9698 27.7214C16.2042 27.9558 16.3359 28.2737 16.3359 28.6052C16.3359 32.4652 19.7608 35.5984 21.9957 35.5984C22.3272 35.5984 22.6451 35.7301 22.8795 35.9645C23.114 36.1989 23.2456 36.5169 23.2456 36.8484C23.2456 37.1799 23.114 37.4978 22.8795 37.7323C22.6451 37.9667 22.3272 38.0984 21.9957 38.0984ZM31.0137 23.3337C30.8471 23.3337 30.6821 23.3004 30.5254 23.2337C30.1371 23.0687 21.014 19.0971 21.014 10.924V4.22744C21.0141 3.9663 21.096 3.71175 21.2481 3.49952C21.4003 3.28729 21.6151 3.12804 21.8624 3.04413L30.6121 0.0675275C30.8723 -0.0225092 31.1552 -0.0225092 31.4154 0.0675275L40.1651 3.04413C40.4127 3.1276 40.6277 3.28674 40.78 3.49907C40.9322 3.7114 41.0138 3.96618 41.0134 4.22744V10.924C41.0134 19.0971 31.8904 23.0704 31.502 23.2354C31.3473 23.3 31.1814 23.3334 31.0137 23.3337ZM23.514 5.12242V10.924C23.514 16.5038 29.2721 19.8254 31.0121 20.7004C32.7487 19.8204 38.5135 16.4822 38.5135 10.924V5.12242L31.0137 2.57081L23.514 5.12242Z" fill="white"/>
<path d="M30.5964 15.8338C30.4323 15.8338 30.2698 15.8014 30.1183 15.7385C29.9667 15.6755 29.829 15.5834 29.7131 15.4672L26.3799 12.1339C26.2638 12.0178 26.1717 11.88 26.1089 11.7283C26.046 11.5766 26.0137 11.414 26.0137 11.2498C26.0137 11.0856 26.046 10.923 26.1089 10.7713C26.1717 10.6196 26.2638 10.4817 26.3799 10.3656C26.496 10.2495 26.6338 10.1574 26.7855 10.0946C26.9372 10.0317 27.0998 9.9994 27.264 9.9994C27.4282 9.9994 27.5908 10.0317 27.7425 10.0946C27.8942 10.1574 28.0321 10.2495 28.1482 10.3656L30.4631 12.6806L34.5963 7.16737C34.6925 7.03013 34.8153 6.91363 34.9574 6.82479C35.0995 6.73596 35.258 6.67661 35.4235 6.65027C35.589 6.62393 35.7581 6.63114 35.9207 6.67147C36.0834 6.7118 36.2363 6.78443 36.3703 6.88503C36.5043 6.98563 36.6168 7.11216 36.7009 7.25709C36.7851 7.40202 36.8392 7.56239 36.8601 7.72866C36.881 7.89493 36.8683 8.06372 36.8227 8.22497C36.7771 8.38623 36.6995 8.53666 36.5946 8.66733L31.5947 15.3339C31.4875 15.4774 31.3506 15.5962 31.1932 15.6819C31.0359 15.7676 30.8619 15.8183 30.6831 15.8305C30.6548 15.8338 30.6264 15.8338 30.5964 15.8338Z" fill="white"/>
</svg>
