<svg width="25" height="24" viewBox="0 0 25 24" fill="none" xmlns="http://www.w3.org/2000/svg">
<path d="M5.59558 23.958C5.32165 23.958 5.04967 23.8725 4.81754 23.7047C4.60641 23.5519 4.44487 23.3403 4.353 23.0964C4.26113 22.8525 4.24299 22.587 4.30083 22.3329L5.90917 15.2482L0.454748 10.465C0.258579 10.2938 0.117068 10.0687 0.0478211 9.81778C-0.021426 9.56681 -0.0153524 9.30102 0.0652861 9.05347C0.14543 8.80606 0.296426 8.58762 0.499553 8.42521C0.70268 8.26281 0.949005 8.1636 1.20799 8.13988L8.4248 7.48464L11.2781 0.807391C11.4884 0.316804 11.9676 0 12.4999 0C13.0323 0 13.5114 0.316804 13.7218 0.806268L16.5751 7.48464L23.7908 8.13978C24.3221 8.18763 24.77 8.54721 24.9346 9.05342C25.0992 9.55969 24.947 10.1149 24.5461 10.4649L19.0917 15.2473L20.7 22.3317C20.8179 22.8527 20.6157 23.3913 20.1835 23.7038C19.7522 24.0162 19.1771 24.0402 18.723 23.7672L12.4999 20.0484L6.2769 23.7693C6.06649 23.8943 5.83206 23.958 5.59558 23.958ZM12.4999 18.4464C12.7365 18.4464 12.9707 18.5099 13.1813 18.6348L19.0543 22.1475L17.5364 15.4607C17.4833 15.227 17.4943 14.9833 17.5684 14.7554C17.6425 14.5274 17.7769 14.3238 17.9573 14.166L23.1075 9.64929L16.2937 9.03057C16.0539 9.0091 15.8245 8.92282 15.63 8.78095C15.4355 8.63909 15.2832 8.44699 15.1895 8.22523L12.4999 1.92402L9.8071 8.22616C9.6175 8.67515 9.19557 8.9836 8.70615 9.02842L1.8914 9.64719L7.04142 14.1639C7.41027 14.4868 7.57161 14.9828 7.46233 15.4598L5.94559 22.1463L11.8186 18.6348C12.029 18.5099 12.2635 18.4464 12.4999 18.4464ZM8.36967 7.61374C8.36967 7.61374 8.36967 7.61487 8.36855 7.61584L8.36967 7.61374ZM16.6282 7.61067L16.6293 7.61277C16.6293 7.61164 16.6293 7.61164 16.6281 7.61067H16.6282Z" fill="#169ED9"/>
</svg>
