<svg width="17" height="18" viewBox="0 0 17 18" fill="none" xmlns="http://www.w3.org/2000/svg">
<path d="M8.5 3.48828C5.46082 3.48828 2.98828 5.96082 2.98828 9C2.98828 12.0392 5.46082 14.5117 8.5 14.5117C11.5392 14.5117 14.0117 12.0392 14.0117 9C14.0117 5.96082 11.5392 3.48828 8.5 3.48828ZM10.6121 11.8164L8.00195 9.20629V4.51758H8.99805V8.79371L11.3164 11.1121L10.6121 11.8164Z" fill="#6A6A6A"/>
<path d="M8.5 0.5C3.79711 0.5 0 4.2999 0 9C0 13.7029 3.79983 17.5 8.5 17.5C13.2029 17.5 17 13.7001 17 9C17 4.29711 13.2002 0.5 8.5 0.5ZM8.5 15.5078C4.91157 15.5078 1.99219 12.5884 1.99219 9C1.99219 5.41157 4.91157 2.49219 8.5 2.49219C12.0884 2.49219 15.0078 5.41157 15.0078 9C15.0078 12.5884 12.0884 15.5078 8.5 15.5078Z" fill="#6A6A6A"/>
</svg>
