<svg width="39" height="40" viewBox="0 0 39 40" fill="none" xmlns="http://www.w3.org/2000/svg">
<path d="M18.5737 8.94357e-06C16.1246 -0.00304274 13.7383 0.774939 11.7616 2.2209C9.78494 3.66687 8.32082 5.70548 7.58204 8.0405C6.84325 10.3755 6.86829 12.8853 7.65351 15.2051C8.43873 17.5249 9.94323 19.5339 11.9484 20.9402C8.47851 22.3268 5.50296 24.7201 3.4046 27.812C1.30623 30.9039 0.18105 34.5529 0.173828 38.2896C0.202268 38.7519 0.405971 39.186 0.743404 39.5033C1.08084 39.8206 1.52659 39.9973 1.98978 39.9973C2.45298 39.9973 2.89873 39.8206 3.23617 39.5033C3.5736 39.186 3.7773 38.7519 3.80574 38.2896C3.79966 35.606 4.51194 32.9696 5.86864 30.6542C7.22534 28.3388 9.17702 26.4287 11.5211 25.1222C13.8652 23.8156 16.5162 23.1602 19.1991 23.2241C21.8819 23.2879 24.4988 24.0686 26.7781 25.4852C26.9819 25.6114 27.2085 25.6963 27.4451 25.7349C27.6816 25.7736 27.9235 25.7652 28.1568 25.7104C28.3901 25.6556 28.6104 25.5553 28.805 25.4154C28.9996 25.2754 29.1647 25.0985 29.2909 24.8948C29.4172 24.691 29.502 24.4644 29.5406 24.2278C29.5793 23.9912 29.571 23.7494 29.5161 23.5161C29.4613 23.2827 29.361 23.0625 29.2211 22.8679C29.0812 22.6733 28.9042 22.5082 28.7005 22.3819C27.6454 21.7469 26.53 21.218 25.3707 20.8028C28.2336 18.7088 30.1079 15.3378 30.1079 11.5343C30.1079 5.19729 24.9107 8.94357e-06 18.5737 8.94357e-06ZM18.5737 3.63879C22.9471 3.63879 26.4692 7.16085 26.4692 11.5343C26.4692 15.9077 22.9471 19.4229 18.5737 19.4229C14.2003 19.4229 10.6851 15.9214 10.6851 11.5343C10.6851 7.16085 14.1934 3.63879 18.5737 3.63879ZM36.953 25.444C36.658 25.4524 36.3695 25.5324 36.1123 25.6771C35.8552 25.8218 35.6371 26.0269 35.4769 26.2747L29.2154 35.66L25.2883 33.0305C25.0895 32.8838 24.8629 32.7789 24.6224 32.7222C24.3819 32.6655 24.1324 32.6583 23.8889 32.7009C23.6455 32.7434 23.4133 32.835 23.2063 32.9699C22.9993 33.1049 22.8218 33.2804 22.6846 33.486C22.5475 33.6915 22.4534 33.9228 22.4082 34.1657C22.363 34.4086 22.3676 34.6582 22.4216 34.8993C22.4757 35.1405 22.5781 35.3681 22.7227 35.5685C22.8673 35.7689 23.0511 35.9378 23.2629 36.0651L28.7211 39.697C29.1227 39.9633 29.6136 40.0593 30.086 39.9641C30.5584 39.8689 30.9737 39.5901 31.2408 39.189L38.5115 28.2864C38.7002 28.0091 38.8086 27.685 38.8247 27.35C38.8409 27.0149 38.764 26.682 38.6028 26.3878C38.4415 26.0937 38.2021 25.8499 37.9109 25.6834C37.6198 25.5168 37.2882 25.434 36.953 25.444Z" fill="white"/>
</svg>
