<svg width="54" height="53" viewBox="0 0 54 53" fill="none" xmlns="http://www.w3.org/2000/svg">
<path d="M53.7798 26.5C53.7798 11.8644 41.9153 0 27.2798 0C12.6442 0 0.779785 11.8644 0.779785 26.5C0.779785 39.7267 10.4704 50.69 23.1392 52.6781V34.1602H16.4106V26.5H23.1392V20.6617C23.1392 14.0202 27.0955 10.3516 33.1486 10.3516C36.047 10.3516 39.0806 10.8691 39.0806 10.8691V17.3906H35.7391C32.4473 17.3906 31.4204 19.4335 31.4204 21.5312V26.5H38.77L37.5951 34.1602H31.4204V52.6781C44.0892 50.69 53.7798 39.7267 53.7798 26.5Z" fill="#1877F2"/>
<path d="M37.5951 34.1602L38.77 26.5H31.4204V21.5312C31.4204 19.4356 32.4473 17.3906 35.7391 17.3906H39.0806V10.8691C39.0806 10.8691 36.0481 10.3516 33.1486 10.3516C27.0955 10.3516 23.1392 14.0202 23.1392 20.6617V26.5H16.4106V34.1602H23.1392V52.6781C25.8829 53.1073 28.6767 53.1073 31.4204 52.6781V34.1602H37.5951Z" fill="white"/>
</svg>
