<svg width="54" height="53" viewBox="0 0 54 53" fill="none" xmlns="http://www.w3.org/2000/svg">
<path d="M27.2884 0C16.2249 0 12.9893 0.0114163 12.3603 0.0636054C10.0899 0.252383 8.67711 0.609959 7.13796 1.37649C5.95179 1.96565 5.01632 2.64859 4.09307 3.60594C2.41165 5.35182 1.39261 7.49973 1.02372 10.0529C0.84437 11.2924 0.792195 11.5452 0.781597 17.8764C0.777521 19.9868 0.781597 22.7642 0.781597 26.4896C0.781597 37.5472 0.793825 40.7804 0.846815 41.4083C1.03024 43.6182 1.37672 45.0086 2.11042 46.5294C3.51262 49.4405 6.19066 51.626 9.3456 52.4414C10.438 52.7227 11.6446 52.8777 13.1935 52.9511C13.8498 52.9796 20.5387 53 27.2318 53C33.9248 53 40.6179 52.9919 41.2578 52.9592C43.0513 52.8748 44.0928 52.735 45.2443 52.4373C46.8087 52.0361 48.2666 51.298 49.5163 50.2748C50.7659 49.2515 51.7772 47.9677 52.4795 46.5131C53.1989 45.0289 53.5637 43.5856 53.7288 41.4911C53.7647 41.0344 53.7798 33.7537 53.7798 26.4827C53.7798 19.2105 53.7635 11.9431 53.7276 11.4865C53.5605 9.35815 53.1957 7.92703 52.453 6.41436C51.8436 5.17609 51.167 4.25137 50.1846 3.30585C48.4319 1.63091 46.2878 0.61159 43.7325 0.243005C42.4945 0.0640131 42.2479 0.0110086 35.9136 0H27.2884Z" fill="url(#paint0_radial_990_11900)"/>
<path d="M27.1207 10.26C22.6395 10.26 22.0772 10.2796 20.3172 10.3597C18.5606 10.4401 17.3616 10.7182 16.3125 11.1263C15.2273 11.5477 14.3067 12.1114 13.3896 13.0289C12.4718 13.946 11.908 14.8666 11.4852 15.9515C11.0761 17.0009 10.7977 18.2003 10.7186 19.9562C10.6403 21.7162 10.6196 22.2789 10.6196 26.76C10.6196 31.2411 10.6396 31.8018 10.7193 33.5618C10.8001 35.3184 11.0782 36.5174 11.4859 37.5665C11.9077 38.6517 12.4714 39.5723 13.3889 40.4894C14.3057 41.4072 15.2262 41.9723 16.3108 42.3938C17.3606 42.8018 18.5599 43.0799 20.3161 43.1603C22.0761 43.2404 22.6382 43.26 27.1189 43.26C31.6004 43.26 32.1611 43.2404 33.9211 43.1603C35.6776 43.0799 36.878 42.8018 37.9278 42.3938C39.0127 41.9723 39.9319 41.4072 40.8487 40.4894C41.7665 39.5723 42.3302 38.6517 42.753 37.5668C43.1587 36.5174 43.4371 35.318 43.5196 33.5621C43.5987 31.8021 43.6193 31.2411 43.6193 26.76C43.6193 22.2789 43.5987 21.7165 43.5196 19.9565C43.4371 18.1999 43.1587 17.0009 42.753 15.9518C42.3302 14.8666 41.7665 13.946 40.8487 13.0289C39.9308 12.1111 39.013 11.5474 37.9268 11.1263C36.8749 10.7182 35.6752 10.4401 33.9187 10.3597C32.1587 10.2796 31.5983 10.26 27.1158 10.26H27.1207ZM25.6405 13.2334C26.0798 13.2328 26.57 13.2334 27.1207 13.2334C31.5262 13.2334 32.0483 13.2493 33.788 13.3283C35.3968 13.4019 36.2699 13.6707 36.8515 13.8965C37.6215 14.1956 38.1705 14.5531 38.7477 15.1306C39.3252 15.7081 39.6827 16.2581 39.9824 17.0281C40.2083 17.609 40.4774 18.4822 40.5506 20.0909C40.6297 21.8303 40.6469 22.3528 40.6469 26.7562C40.6469 31.1597 40.6297 31.6822 40.5506 33.4215C40.4771 35.0303 40.2083 35.9034 39.9824 36.4844C39.6833 37.2544 39.3252 37.8026 38.7477 38.3798C38.1702 38.9573 37.6219 39.3148 36.8515 39.6139C36.2706 39.8407 35.3968 40.1089 33.788 40.1824C32.0487 40.2615 31.5262 40.2787 27.1207 40.2787C22.7148 40.2787 22.1927 40.2615 20.4533 40.1824C18.8445 40.1082 17.9714 39.8394 17.3894 39.6135C16.6194 39.3144 16.0694 38.9569 15.4919 38.3794C14.9144 37.8019 14.5569 37.2533 14.2572 36.483C14.0313 35.902 13.7622 35.0289 13.689 33.4202C13.6099 31.6808 13.5941 31.1583 13.5941 26.7521C13.5941 22.3459 13.6099 21.8262 13.689 20.0868C13.7625 18.478 14.0313 17.6049 14.2572 17.0233C14.5563 16.2533 14.9144 15.7033 15.4919 15.1258C16.0694 14.5483 16.6194 14.1908 17.3894 13.891C17.9711 13.6642 18.8445 13.396 20.4533 13.3221C21.9754 13.2534 22.5653 13.2328 25.6405 13.2293V13.2334ZM35.9282 15.9731C35.5366 15.9731 35.1537 16.0893 34.8281 16.3069C34.5025 16.5245 34.2487 16.8337 34.0989 17.1956C33.949 17.5574 33.9099 17.9556 33.9863 18.3397C34.0628 18.7238 34.2514 19.0766 34.5284 19.3534C34.8054 19.6303 35.1582 19.8189 35.5424 19.8952C35.9265 19.9715 36.3246 19.9322 36.6864 19.7822C37.0482 19.6323 37.3574 19.3784 37.5749 19.0527C37.7923 18.727 37.9084 18.3441 37.9082 17.9524C37.9082 16.8593 37.0213 15.9724 35.9282 15.9724V15.9731ZM27.1207 18.2866C22.4412 18.2866 18.6472 22.0805 18.6472 26.76C18.6472 31.4395 22.4412 35.2317 27.1207 35.2317C31.8001 35.2317 35.5931 31.4395 35.5931 26.76C35.5931 22.0805 31.8001 18.2866 27.1207 18.2866ZM27.1207 21.26C30.158 21.26 32.6207 23.7223 32.6207 26.76C32.6207 29.7974 30.158 32.26 27.1207 32.26C24.0829 32.26 21.6207 29.7974 21.6207 26.76C21.6207 23.7223 24.0829 21.26 27.1207 21.26Z" fill="white"/>
<defs>
<radialGradient id="paint0_radial_990_11900" cx="0" cy="0" r="1" gradientUnits="userSpaceOnUse" gradientTransform="translate(14.858 57.0821) rotate(-90) scale(52.5269 48.8542)">
<stop stop-color="#FFDD55"/>
<stop offset="0.1" stop-color="#FFDD55"/>
<stop offset="0.5" stop-color="#FF543E"/>
<stop offset="1" stop-color="#C837AB"/>
</radialGradient>
</defs>
</svg>
