<svg width="54" height="53" viewBox="0 0 54 53" fill="none" xmlns="http://www.w3.org/2000/svg">
<path d="M0.779785 26.5C0.779785 41.1355 12.6442 53 27.2798 53C41.9153 53 53.7798 41.1355 53.7798 26.5C53.7798 11.8645 41.9153 0 27.2798 0C12.6442 0 0.779785 11.8645 0.779785 26.5Z" fill="#25D366"/>
<path fill-rule="evenodd" clip-rule="evenodd" d="M38.8735 14.6992C35.7681 11.5938 31.6274 9.9375 27.2798 9.9375C18.1704 9.9375 10.7173 17.3906 10.7173 26.5C10.7173 29.3984 11.5454 32.2969 12.9946 34.7813L10.7173 43.0625L19.4126 40.7852C21.897 42.0273 24.5884 42.8555 27.2798 42.8555C36.3892 42.8555 43.8423 35.4023 43.8423 26.293C43.8423 21.9453 41.979 17.8047 38.8735 14.6992ZM27.2798 40.1641C24.7954 40.1641 22.311 39.543 20.2407 38.3008L19.8266 38.0938L14.6509 39.543L16.1001 34.5742L15.686 33.9531C14.2368 31.6758 13.6157 29.1914 13.6157 26.707C13.6157 19.2539 19.8267 13.043 27.2798 13.043C31.0063 13.043 34.3189 14.4922 37.0103 16.9766C39.7017 19.668 40.9439 22.9805 40.9439 26.707C40.9439 33.9531 34.9399 40.1641 27.2798 40.1641ZM34.7329 29.8125C34.3189 29.6055 32.2486 28.5703 31.8345 28.5703C31.4204 28.3633 31.2134 28.3633 31.0063 28.7773C30.7993 29.1914 29.9712 30.0195 29.7642 30.4336C29.5572 30.6406 29.3501 30.6406 28.936 30.6406C28.5219 30.4336 27.2798 30.0195 25.6236 28.5703C24.3814 27.5352 23.5532 26.0859 23.3462 25.6719C23.1392 25.2578 23.3462 25.0508 23.5532 24.8437C23.7603 24.6367 23.9673 24.4297 24.1743 24.2227C24.3813 24.0156 24.3814 23.8086 24.5884 23.6016C24.7954 23.3945 24.5884 23.1875 24.5884 22.9805C24.5884 22.7734 23.7603 20.7031 23.3462 19.875C23.1392 19.2539 22.7251 19.2539 22.5181 19.2539C22.3111 19.2539 22.104 19.2539 21.6899 19.2539C21.4829 19.2539 21.0688 19.2539 20.6548 19.668C20.2407 20.082 19.2056 21.1172 19.2056 23.1875C19.2056 25.2578 20.6548 27.1211 20.8618 27.5352C21.0688 27.7422 23.7602 32.0898 27.9009 33.7461C31.4204 35.1953 32.0415 34.7813 32.8697 34.7813C33.6978 34.7813 35.354 33.7461 35.561 32.918C35.9751 31.8828 35.9751 31.0547 35.7681 31.0547C35.561 30.0195 35.147 30.0195 34.7329 29.8125Z" fill="white"/>
</svg>

