<svg width="263" height="119" viewBox="0 0 263 119" fill="none" xmlns="http://www.w3.org/2000/svg">
<rect width="263" height="119" rx="10" fill="url(#paint0_linear_3752_40303)"/>
<path d="M20.6165 25.1406V23.8182H28.4964V25.1406H25.3196V34H23.7884V25.1406H20.6165ZM29.3255 34V26.3636H30.7623V27.5767H30.8418C30.981 27.1657 31.2263 26.8426 31.5776 26.6072C31.9322 26.3686 32.3333 26.2493 32.7807 26.2493C32.8735 26.2493 32.9829 26.2526 33.1088 26.2592C33.2381 26.2659 33.3392 26.2741 33.4121 26.2841V27.706C33.3525 27.6894 33.2464 27.6712 33.0939 27.6513C32.9415 27.6281 32.789 27.6165 32.6365 27.6165C32.2852 27.6165 31.972 27.6911 31.6969 27.8402C31.4251 27.986 31.2097 28.1899 31.0506 28.4517C30.8915 28.7102 30.812 29.0052 30.812 29.3366V34H29.3255ZM36.8525 34.169C36.3685 34.169 35.931 34.0795 35.54 33.9006C35.1489 33.7183 34.839 33.4548 34.6103 33.1101C34.3849 32.7654 34.2722 32.3428 34.2722 31.8423C34.2722 31.4115 34.3551 31.0568 34.5208 30.7784C34.6865 30.5 34.9102 30.2796 35.1919 30.1172C35.4737 29.9548 35.7885 29.8321 36.1365 29.7493C36.4846 29.6664 36.8392 29.6035 37.2005 29.5604C37.6578 29.5073 38.0291 29.4643 38.3141 29.4311C38.5991 29.3946 38.8063 29.3366 38.9355 29.2571C39.0648 29.1776 39.1294 29.0483 39.1294 28.8693V28.8345C39.1294 28.4003 39.0068 28.0639 38.7615 27.8253C38.5196 27.5866 38.1583 27.4673 37.6777 27.4673C37.1773 27.4673 36.7828 27.5784 36.4945 27.8004C36.2095 28.0192 36.0123 28.2628 35.9029 28.5312L34.5059 28.2131C34.6716 27.7491 34.9135 27.3745 35.2317 27.0895C35.5532 26.8011 35.9228 26.5923 36.3404 26.4631C36.758 26.3305 37.1971 26.2642 37.6578 26.2642C37.9628 26.2642 38.2859 26.3007 38.6273 26.3736C38.972 26.4432 39.2935 26.5724 39.5918 26.7614C39.8934 26.9503 40.1403 27.2204 40.3326 27.5717C40.5248 27.9197 40.6209 28.3722 40.6209 28.929V34H39.1692V32.956H39.1096C39.0134 33.1482 38.8693 33.3371 38.677 33.5227C38.4848 33.7083 38.2379 33.8625 37.9363 33.9851C37.6346 34.1077 37.2734 34.169 36.8525 34.169ZM37.1756 32.9759C37.5866 32.9759 37.9379 32.8946 38.2296 32.7322C38.5246 32.5698 38.7483 32.3577 38.9007 32.0959C39.0565 31.8307 39.1344 31.5473 39.1344 31.2457V30.2614C39.0814 30.3144 38.9786 30.3641 38.8262 30.4105C38.677 30.4536 38.5063 30.4917 38.3141 30.5249C38.1219 30.5547 37.9346 30.5829 37.7523 30.6094C37.57 30.6326 37.4176 30.6525 37.2949 30.669C37.0066 30.7055 36.7431 30.7668 36.5044 30.853C36.2691 30.9392 36.0802 31.0634 35.9377 31.2259C35.7985 31.3849 35.7289 31.5971 35.7289 31.8622C35.7289 32.2301 35.8648 32.5085 36.1365 32.6974C36.4083 32.883 36.7547 32.9759 37.1756 32.9759ZM42.6009 34V26.3636H44.0874V34H42.6009ZM43.3516 25.1854C43.093 25.1854 42.871 25.0992 42.6854 24.9268C42.5031 24.7512 42.4119 24.5424 42.4119 24.3004C42.4119 24.0552 42.5031 23.8464 42.6854 23.674C42.871 23.4983 43.093 23.4105 43.3516 23.4105C43.6101 23.4105 43.8305 23.4983 44.0128 23.674C44.1984 23.8464 44.2912 24.0552 44.2912 24.3004C44.2912 24.5424 44.1984 24.7512 44.0128 24.9268C43.8305 25.0992 43.6101 25.1854 43.3516 25.1854ZM47.5737 29.4659V34H46.0872V26.3636H47.514V27.6065H47.6085C47.7842 27.2022 48.0592 26.8774 48.4338 26.6321C48.8116 26.3868 49.2872 26.2642 49.8606 26.2642C50.381 26.2642 50.8367 26.3736 51.2278 26.5923C51.6189 26.8078 51.9222 27.1293 52.1376 27.5568C52.353 27.9844 52.4608 28.513 52.4608 29.1428V34H50.9743V29.3217C50.9743 28.7682 50.8301 28.3357 50.5417 28.0241C50.2534 27.7093 49.8573 27.5518 49.3535 27.5518C49.0088 27.5518 48.7022 27.6264 48.4338 27.7756C48.1686 27.9247 47.9582 28.1435 47.8024 28.4318C47.6499 28.7169 47.5737 29.0616 47.5737 29.4659ZM54.4544 34V26.3636H55.9409V34H54.4544ZM55.2051 25.1854C54.9466 25.1854 54.7245 25.0992 54.5389 24.9268C54.3566 24.7512 54.2654 24.5424 54.2654 24.3004C54.2654 24.0552 54.3566 23.8464 54.5389 23.674C54.7245 23.4983 54.9466 23.4105 55.2051 23.4105C55.4636 23.4105 55.684 23.4983 55.8663 23.674C56.0519 23.8464 56.1447 24.0552 56.1447 24.3004C56.1447 24.5424 56.0519 24.7512 55.8663 24.9268C55.684 25.0992 55.4636 25.1854 55.2051 25.1854ZM59.4272 29.4659V34H57.9407V26.3636H59.3675V27.6065H59.462C59.6377 27.2022 59.9128 26.8774 60.2873 26.6321C60.6651 26.3868 61.1407 26.2642 61.7141 26.2642C62.2345 26.2642 62.6902 26.3736 63.0813 26.5923C63.4724 26.8078 63.7757 27.1293 63.9911 27.5568C64.2066 27.9844 64.3143 28.513 64.3143 29.1428V34H62.8278V29.3217C62.8278 28.7682 62.6836 28.3357 62.3952 28.0241C62.1069 27.7093 61.7108 27.5518 61.207 27.5518C60.8623 27.5518 60.5558 27.6264 60.2873 27.7756C60.0221 27.9247 59.8117 28.1435 59.6559 28.4318C59.5034 28.7169 59.4272 29.0616 59.4272 29.4659ZM69.5096 37.0227C68.9031 37.0227 68.381 36.9432 67.9435 36.7841C67.5094 36.625 67.1547 36.4145 66.8796 36.1527C66.6045 35.8909 66.399 35.6042 66.2631 35.2926L67.5408 34.7656C67.6303 34.9115 67.7496 35.0656 67.8988 35.228C68.0513 35.3937 68.2567 35.5346 68.5153 35.6506C68.7771 35.7666 69.1135 35.8246 69.5245 35.8246C70.0879 35.8246 70.5536 35.687 70.9215 35.4119C71.2894 35.1402 71.4734 34.706 71.4734 34.1094V32.608H71.3789C71.2894 32.7704 71.1602 32.951 70.9911 33.1499C70.8254 33.3487 70.5967 33.5211 70.305 33.6669C70.0134 33.8127 69.6339 33.8857 69.1665 33.8857C68.5633 33.8857 68.0198 33.7448 67.5359 33.4631C67.0553 33.178 66.6741 32.7588 66.3924 32.2053C66.114 31.6484 65.9748 30.964 65.9748 30.152C65.9748 29.34 66.1123 28.6439 66.3874 28.0639C66.6658 27.4839 67.047 27.0398 67.5309 26.7315C68.0148 26.42 68.5633 26.2642 69.1765 26.2642C69.6504 26.2642 70.0333 26.3438 70.3249 26.5028C70.6166 26.6586 70.8436 26.8409 71.006 27.0497C71.1718 27.2585 71.2994 27.4425 71.3888 27.6016H71.4982V26.3636H72.9549V34.169C72.9549 34.8253 72.8024 35.3639 72.4975 35.7848C72.1926 36.2057 71.7799 36.5173 71.2596 36.7195C70.7425 36.9216 70.1592 37.0227 69.5096 37.0227ZM69.4947 32.6527C69.9222 32.6527 70.2835 32.5533 70.5785 32.3544C70.8768 32.1522 71.1022 31.8639 71.2546 31.4893C71.4104 31.1115 71.4883 30.6591 71.4883 30.1321C71.4883 29.6184 71.4121 29.166 71.2596 28.7749C71.1071 28.3838 70.8834 28.0788 70.5884 27.8601C70.2934 27.638 69.9289 27.527 69.4947 27.527C69.0472 27.527 68.6744 27.643 68.3761 27.875C68.0778 28.1037 67.8524 28.4152 67.6999 28.8097C67.5508 29.2041 67.4762 29.6449 67.4762 30.1321C67.4762 30.6326 67.5524 31.0717 67.7049 31.4496C67.8574 31.8274 68.0827 32.1224 68.381 32.3345C68.6826 32.5466 69.0539 32.6527 69.4947 32.6527ZM87.2296 27.1293H85.6784C85.6188 26.7978 85.5078 26.5062 85.3453 26.2543C85.1829 26.0024 84.9841 25.7886 84.7488 25.6129C84.5134 25.4373 84.2499 25.3047 83.9583 25.2152C83.6699 25.1257 83.3633 25.081 83.0385 25.081C82.4519 25.081 81.9266 25.2285 81.4625 25.5234C81.0018 25.8184 80.6373 26.2509 80.3688 26.821C80.1036 27.3911 79.9711 28.0871 79.9711 28.9091C79.9711 29.7377 80.1036 30.437 80.3688 31.0071C80.6373 31.5772 81.0035 32.008 81.4675 32.2997C81.9315 32.5914 82.4535 32.7372 83.0336 32.7372C83.3551 32.7372 83.66 32.6941 83.9483 32.608C84.24 32.5185 84.5035 32.3875 84.7388 32.2152C84.9741 32.0429 85.173 31.8324 85.3354 31.5838C85.5011 31.3319 85.6155 31.0436 85.6784 30.7188L87.2296 30.7237C87.1467 31.2242 86.986 31.6849 86.7473 32.1058C86.512 32.5234 86.2087 32.8847 85.8375 33.1896C85.4696 33.4912 85.0487 33.7249 84.5748 33.8906C84.1008 34.0563 83.5837 34.1392 83.0236 34.1392C82.142 34.1392 81.3565 33.9304 80.6671 33.5128C79.9777 33.0919 79.4341 32.4903 79.0364 31.7081C78.642 30.9259 78.4448 29.9929 78.4448 28.9091C78.4448 27.822 78.6436 26.889 79.0414 26.1101C79.4391 25.3279 79.9827 24.728 80.6721 24.3104C81.3614 23.8894 82.1453 23.679 83.0236 23.679C83.5639 23.679 84.0676 23.7569 84.535 23.9126C85.0056 24.0651 85.4282 24.2905 85.8027 24.5888C86.1773 24.8838 86.4872 25.245 86.7324 25.6726C86.9777 26.0968 87.1434 26.5824 87.2296 27.1293ZM92.1651 34.1541C91.4492 34.1541 90.8245 33.9901 90.2908 33.6619C89.7572 33.3338 89.3429 32.8748 89.0479 32.2848C88.753 31.6948 88.6055 31.0054 88.6055 30.2166C88.6055 29.4245 88.753 28.7318 89.0479 28.1385C89.3429 27.5452 89.7572 27.0845 90.2908 26.7564C90.8245 26.4283 91.4492 26.2642 92.1651 26.2642C92.881 26.2642 93.5058 26.4283 94.0394 26.7564C94.573 27.0845 94.9873 27.5452 95.2823 28.1385C95.5773 28.7318 95.7248 29.4245 95.7248 30.2166C95.7248 31.0054 95.5773 31.6948 95.2823 32.2848C94.9873 32.8748 94.573 33.3338 94.0394 33.6619C93.5058 33.9901 92.881 34.1541 92.1651 34.1541ZM92.1701 32.9062C92.6341 32.9062 93.0186 32.7836 93.3235 32.5384C93.6284 32.2931 93.8538 31.9666 93.9996 31.5589C94.1488 31.1513 94.2234 30.7022 94.2234 30.2116C94.2234 29.7244 94.1488 29.277 93.9996 28.8693C93.8538 28.4583 93.6284 28.1286 93.3235 27.88C93.0186 27.6314 92.6341 27.5071 92.1701 27.5071C91.7028 27.5071 91.315 27.6314 91.0067 27.88C90.7018 28.1286 90.4748 28.4583 90.3256 28.8693C90.1798 29.277 90.1069 29.7244 90.1069 30.2116C90.1069 30.7022 90.1798 31.1513 90.3256 31.5589C90.4748 31.9666 90.7018 32.2931 91.0067 32.5384C91.315 32.7836 91.7028 32.9062 92.1701 32.9062ZM97.3841 34V26.3636H98.8109V27.6065H98.9054C99.0645 27.1856 99.3246 26.8575 99.6859 26.6222C100.047 26.3835 100.48 26.2642 100.983 26.2642C101.494 26.2642 101.921 26.3835 102.266 26.6222C102.614 26.8608 102.871 27.1889 103.037 27.6065H103.116C103.299 27.1989 103.589 26.8741 103.986 26.6321C104.384 26.3868 104.858 26.2642 105.408 26.2642C106.101 26.2642 106.666 26.4813 107.104 26.9155C107.544 27.3497 107.765 28.0043 107.765 28.8793V34H106.278V29.0185C106.278 28.5014 106.137 28.1269 105.856 27.8949C105.574 27.6629 105.238 27.5469 104.846 27.5469C104.363 27.5469 103.986 27.696 103.718 27.9943C103.449 28.2893 103.315 28.6688 103.315 29.1328V34H101.834V28.924C101.834 28.5097 101.704 28.1766 101.446 27.9247C101.187 27.6728 100.851 27.5469 100.437 27.5469C100.155 27.5469 99.8947 27.6214 99.6561 27.7706C99.4208 27.9164 99.2302 28.1203 99.0843 28.3821C98.9418 28.6439 98.8706 28.9472 98.8706 29.2919V34H97.3841ZM109.757 36.8636V26.3636H111.209V27.6016H111.333C111.419 27.4425 111.544 27.2585 111.706 27.0497C111.868 26.8409 112.094 26.6586 112.382 26.5028C112.67 26.3438 113.052 26.2642 113.526 26.2642C114.142 26.2642 114.692 26.42 115.176 26.7315C115.66 27.0431 116.04 27.4922 116.315 28.0788C116.593 28.6655 116.732 29.3714 116.732 30.1967C116.732 31.022 116.595 31.7296 116.32 32.3196C116.045 32.9062 115.667 33.3587 115.186 33.6768C114.705 33.9917 114.157 34.1491 113.54 34.1491C113.076 34.1491 112.697 34.0713 112.402 33.9155C112.11 33.7597 111.882 33.5774 111.716 33.3686C111.55 33.1598 111.423 32.9742 111.333 32.8118H111.244V36.8636H109.757ZM111.214 30.1818C111.214 30.7187 111.292 31.1894 111.447 31.5938C111.603 31.9981 111.829 32.3146 112.124 32.5433C112.419 32.7687 112.78 32.8814 113.207 32.8814C113.652 32.8814 114.023 32.7637 114.321 32.5284C114.619 32.2898 114.845 31.9666 114.997 31.5589C115.153 31.1513 115.231 30.6922 115.231 30.1818C115.231 29.678 115.155 29.2256 115.002 28.8246C114.853 28.4235 114.628 28.107 114.326 27.875C114.028 27.643 113.655 27.527 113.207 27.527C112.777 27.527 112.412 27.638 112.114 27.8601C111.819 28.0821 111.595 28.392 111.442 28.7898C111.29 29.1875 111.214 29.6515 111.214 30.1818ZM119.884 23.8182V34H118.398V23.8182H119.884ZM125.175 34.1541C124.423 34.1541 123.775 33.9934 123.231 33.6719C122.691 33.3471 122.273 32.8913 121.979 32.3047C121.687 31.7147 121.541 31.0237 121.541 30.2315C121.541 29.4493 121.687 28.7599 121.979 28.1634C122.273 27.5668 122.684 27.1011 123.211 26.7663C123.742 26.4316 124.362 26.2642 125.071 26.2642C125.502 26.2642 125.919 26.3355 126.324 26.478C126.728 26.6205 127.091 26.8442 127.412 27.1491C127.734 27.4541 127.988 27.8501 128.173 28.3374C128.359 28.8213 128.452 29.4096 128.452 30.1023V30.6293H122.381V29.5156H126.995C126.995 29.1245 126.915 28.7782 126.756 28.4766C126.597 28.1716 126.373 27.9313 126.085 27.7557C125.8 27.58 125.465 27.4922 125.081 27.4922C124.663 27.4922 124.299 27.5949 123.987 27.8004C123.679 28.0026 123.44 28.2678 123.271 28.5959C123.105 28.9207 123.023 29.2737 123.023 29.6548V30.5249C123.023 31.0353 123.112 31.4695 123.291 31.8274C123.473 32.1854 123.727 32.4588 124.052 32.6477C124.376 32.8333 124.756 32.9261 125.19 32.9261C125.472 32.9261 125.729 32.8864 125.961 32.8068C126.193 32.724 126.393 32.6013 126.562 32.4389C126.731 32.2765 126.861 32.076 126.95 31.8374L128.357 32.0909C128.244 32.5052 128.042 32.8681 127.751 33.1797C127.462 33.4879 127.099 33.7282 126.662 33.9006C126.228 34.0696 125.732 34.1541 125.175 34.1541ZM133.665 26.3636V27.5568H129.494V26.3636H133.665ZM130.613 24.5341H132.099V31.7578C132.099 32.0462 132.143 32.2633 132.229 32.4091C132.315 32.5516 132.426 32.6494 132.562 32.7024C132.701 32.7521 132.852 32.777 133.014 32.777C133.134 32.777 133.238 32.7687 133.327 32.7521C133.417 32.7356 133.487 32.7223 133.536 32.7124L133.805 33.9403C133.719 33.9735 133.596 34.0066 133.437 34.0398C133.278 34.0762 133.079 34.0961 132.84 34.0994C132.449 34.1061 132.085 34.0365 131.746 33.8906C131.408 33.7448 131.135 33.5194 130.926 33.2145C130.717 32.9096 130.613 32.5268 130.613 32.0661V24.5341ZM135.31 34V26.3636H136.796V34H135.31ZM136.061 25.1854C135.802 25.1854 135.58 25.0992 135.394 24.9268C135.212 24.7512 135.121 24.5424 135.121 24.3004C135.121 24.0552 135.212 23.8464 135.394 23.674C135.58 23.4983 135.802 23.4105 136.061 23.4105C136.319 23.4105 136.539 23.4983 136.722 23.674C136.907 23.8464 137 24.0552 137 24.3004C137 24.5424 136.907 24.7512 136.722 24.9268C136.539 25.0992 136.319 25.1854 136.061 25.1854ZM142.013 34.1541C141.297 34.1541 140.672 33.9901 140.138 33.6619C139.605 33.3338 139.191 32.8748 138.896 32.2848C138.601 31.6948 138.453 31.0054 138.453 30.2166C138.453 29.4245 138.601 28.7318 138.896 28.1385C139.191 27.5452 139.605 27.0845 140.138 26.7564C140.672 26.4283 141.297 26.2642 142.013 26.2642C142.729 26.2642 143.353 26.4283 143.887 26.7564C144.421 27.0845 144.835 27.5452 145.13 28.1385C145.425 28.7318 145.572 29.4245 145.572 30.2166C145.572 31.0054 145.425 31.6948 145.13 32.2848C144.835 32.8748 144.421 33.3338 143.887 33.6619C143.353 33.9901 142.729 34.1541 142.013 34.1541ZM142.018 32.9062C142.482 32.9062 142.866 32.7836 143.171 32.5384C143.476 32.2931 143.701 31.9666 143.847 31.5589C143.996 31.1513 144.071 30.7022 144.071 30.2116C144.071 29.7244 143.996 29.277 143.847 28.8693C143.701 28.4583 143.476 28.1286 143.171 27.88C142.866 27.6314 142.482 27.5071 142.018 27.5071C141.55 27.5071 141.163 27.6314 140.854 27.88C140.549 28.1286 140.322 28.4583 140.173 28.8693C140.027 29.277 139.955 29.7244 139.955 30.2116C139.955 30.7022 140.027 31.1513 140.173 31.5589C140.322 31.9666 140.549 32.2931 140.854 32.5384C141.163 32.7836 141.55 32.9062 142.018 32.9062ZM148.718 29.4659V34H147.232V26.3636H148.659V27.6065H148.753C148.929 27.2022 149.204 26.8774 149.578 26.6321C149.956 26.3868 150.432 26.2642 151.005 26.2642C151.526 26.2642 151.981 26.3736 152.372 26.5923C152.763 26.8078 153.067 27.1293 153.282 27.5568C153.498 27.9844 153.605 28.513 153.605 29.1428V34H152.119V29.3217C152.119 28.7682 151.975 28.3357 151.686 28.0241C151.398 27.7093 151.002 27.5518 150.498 27.5518C150.153 27.5518 149.847 27.6264 149.578 27.7756C149.313 27.9247 149.103 28.1435 148.947 28.4318C148.794 28.7169 148.718 29.0616 148.718 29.4659Z" fill="white"/>
<path d="M21.5511 66V63.7159L27.6108 57.7756C28.1903 57.1903 28.6733 56.6705 29.0597 56.2159C29.446 55.7614 29.7358 55.321 29.929 54.8949C30.1222 54.4687 30.2188 54.0142 30.2188 53.5312C30.2188 52.9801 30.0938 52.5085 29.8438 52.1165C29.5938 51.7188 29.25 51.4119 28.8125 51.196C28.375 50.9801 27.8778 50.8722 27.321 50.8722C26.7472 50.8722 26.2443 50.9915 25.8125 51.2301C25.3807 51.4631 25.0455 51.7955 24.8068 52.2273C24.5739 52.6591 24.4574 53.1733 24.4574 53.7699H21.4489C21.4489 52.6619 21.7017 51.6989 22.2074 50.8807C22.7131 50.0625 23.4091 49.429 24.2955 48.9801C25.1875 48.5312 26.2102 48.3068 27.3636 48.3068C28.5341 48.3068 29.5625 48.5256 30.4489 48.9631C31.3352 49.4006 32.0227 50 32.5114 50.7614C33.0057 51.5227 33.2528 52.392 33.2528 53.3693C33.2528 54.0227 33.1278 54.6648 32.8778 55.2955C32.6278 55.9261 32.1875 56.625 31.5568 57.392C30.9318 58.1591 30.054 59.0881 28.9233 60.179L25.9148 63.2386V63.358H33.517V66H21.5511ZM43.5568 48.5455V66H40.3949V51.6222H40.2926L36.2102 54.2301V51.3324L40.5483 48.5455H43.5568ZM47.6733 62.7614V60.2472L55.0795 48.5455H57.1761V52.125H55.8977L50.9119 60.0256V60.1619H61.25V62.7614H47.6733ZM56 66V61.9943L56.0341 60.8693V48.5455H59.017V66H56ZM70.0412 66.2386C68.9048 66.2386 67.8878 66.0256 66.9901 65.5994C66.0923 65.1676 65.3793 64.5767 64.8509 63.8267C64.3281 63.0767 64.0497 62.2187 64.0156 61.2528H67.0838C67.1406 61.9687 67.4503 62.554 68.0128 63.0085C68.5753 63.4574 69.2514 63.6818 70.0412 63.6818C70.6605 63.6818 71.2116 63.5398 71.6946 63.2557C72.1776 62.9716 72.5582 62.5767 72.8366 62.071C73.1151 61.5653 73.2514 60.9886 73.2457 60.3409C73.2514 59.6818 73.1122 59.0966 72.8281 58.5852C72.544 58.0739 72.1548 57.6733 71.6605 57.3835C71.1662 57.0881 70.598 56.9403 69.956 56.9403C69.4332 56.9347 68.919 57.0312 68.4134 57.2301C67.9077 57.429 67.5071 57.6903 67.2116 58.0142L64.3565 57.5455L65.2685 48.5455H75.3935V51.1875H67.8849L67.3821 55.8153H67.4844C67.8082 55.4347 68.2656 55.1193 68.8565 54.8693C69.4474 54.6136 70.0952 54.4858 70.7997 54.4858C71.8565 54.4858 72.7997 54.7358 73.6293 55.2358C74.4588 55.7301 75.1122 56.4119 75.5895 57.2812C76.0668 58.1506 76.3054 59.1449 76.3054 60.2642C76.3054 61.4176 76.0384 62.446 75.5043 63.3494C74.9759 64.2472 74.2401 64.9545 73.2969 65.4716C72.3594 65.983 71.2741 66.2386 70.0412 66.2386Z" fill="white"/>
<circle cx="29" cy="86" r="9" fill="white" fill-opacity="0.3"/>
<path d="M32.9427 83.8554C32.8854 83.7149 32.7708 83.5992 32.6316 83.5413C32.5661 83.5165 32.4925 83.5 32.4188 83.5H30.8961C30.5769 83.5 30.3231 83.7562 30.3231 84.0785C30.3231 84.4008 30.5769 84.657 30.8961 84.657H31.0435L29.3162 86.4008L28.4812 85.1446C28.383 85.0041 28.2356 84.905 28.0637 84.8884C27.8836 84.8719 27.7281 84.9298 27.6053 85.0537L25.1658 87.5165C24.9447 87.7397 24.9447 88.1033 25.1658 88.3347C25.2804 88.4504 25.4195 88.5 25.5669 88.5C25.7142 88.5 25.8616 88.4421 25.968 88.3347L27.9163 86.3678L28.7513 87.624C28.8496 87.7645 28.9969 87.8636 29.1688 87.8802C29.3489 87.8967 29.5045 87.8388 29.6273 87.7149L31.8539 85.4669V85.6157C31.8539 85.938 32.1077 86.1942 32.427 86.1942C32.7462 86.1942 33 85.938 33 85.6157V84.0702C32.9836 83.9959 32.9754 83.9215 32.9427 83.8554Z" fill="white"/>
<path d="M46.4773 88.9659V83.3409H47.4318V88.9659H46.4773ZM44.142 86.6307V85.6761H49.767V86.6307H44.142ZM51.609 88.7102V87.8409L55.4442 81.7727H56.0749V83.1193H55.6488L52.7511 87.7045V87.7727H57.9158V88.7102H51.609ZM55.717 90.5V88.446V88.0412V81.7727H56.7227V90.5H55.717ZM62.3594 90.6193C61.7173 90.6193 61.1705 90.4446 60.7188 90.0952C60.267 89.7429 59.9219 89.233 59.6832 88.5653C59.4446 87.8949 59.3253 87.0852 59.3253 86.1364C59.3253 85.1932 59.4446 84.3878 59.6832 83.7202C59.9247 83.0497 60.2713 82.5384 60.723 82.1861C61.1776 81.831 61.723 81.6534 62.3594 81.6534C62.9957 81.6534 63.5398 81.831 63.9915 82.1861C64.446 82.5384 64.7926 83.0497 65.0312 83.7202C65.2727 84.3878 65.3935 85.1932 65.3935 86.1364C65.3935 87.0852 65.2741 87.8949 65.0355 88.5653C64.7969 89.233 64.4517 89.7429 64 90.0952C63.5483 90.4446 63.0014 90.6193 62.3594 90.6193ZM62.3594 89.6818C62.9957 89.6818 63.4901 89.375 63.8423 88.7614C64.1946 88.1477 64.3707 87.2727 64.3707 86.1364C64.3707 85.3807 64.2898 84.7372 64.1278 84.206C63.9688 83.6747 63.7386 83.2699 63.4375 82.9915C63.1392 82.7131 62.7798 82.5739 62.3594 82.5739C61.7287 82.5739 61.2358 82.8849 60.8807 83.5071C60.5256 84.1264 60.348 85.0028 60.348 86.1364C60.348 86.892 60.4276 87.5341 60.5866 88.0625C60.7457 88.5909 60.9744 88.9929 61.2727 89.2685C61.5739 89.544 61.9361 89.6818 62.3594 89.6818ZM71.4616 88.8636V88.4034C71.4616 88.0852 71.527 87.794 71.6577 87.5298C71.7912 87.2628 71.9844 87.0497 72.2372 86.8906C72.4929 86.7287 72.8026 86.6477 73.1662 86.6477C73.5355 86.6477 73.8452 86.7287 74.0952 86.8906C74.3452 87.0497 74.5341 87.2628 74.6619 87.5298C74.7898 87.794 74.8537 88.0852 74.8537 88.4034V88.8636C74.8537 89.1818 74.7884 89.4744 74.6577 89.7415C74.5298 90.0057 74.3395 90.2187 74.0866 90.3807C73.8366 90.5398 73.5298 90.6193 73.1662 90.6193C72.7969 90.6193 72.4858 90.5398 72.233 90.3807C71.9801 90.2187 71.7884 90.0057 71.6577 89.7415C71.527 89.4744 71.4616 89.1818 71.4616 88.8636ZM72.331 88.4034V88.8636C72.331 89.1278 72.3935 89.3651 72.5185 89.5753C72.6435 89.7827 72.8594 89.8864 73.1662 89.8864C73.4645 89.8864 73.6747 89.7827 73.7969 89.5753C73.9219 89.3651 73.9844 89.1278 73.9844 88.8636V88.4034C73.9844 88.1392 73.9247 87.9034 73.8054 87.696C73.6861 87.4858 73.473 87.3807 73.1662 87.3807C72.8679 87.3807 72.6534 87.4858 72.5227 87.696C72.3949 87.9034 72.331 88.1392 72.331 88.4034ZM67.1151 83.8693V83.4091C67.1151 83.0909 67.1804 82.7997 67.3111 82.5355C67.4446 82.2685 67.6378 82.0554 67.8906 81.8963C68.1463 81.7344 68.456 81.6534 68.8196 81.6534C69.1889 81.6534 69.4986 81.7344 69.7486 81.8963C69.9986 82.0554 70.1875 82.2685 70.3153 82.5355C70.4432 82.7997 70.5071 83.0909 70.5071 83.4091V83.8693C70.5071 84.1875 70.4418 84.4801 70.3111 84.7472C70.1832 85.0114 69.9929 85.2244 69.7401 85.3864C69.4901 85.5455 69.1832 85.625 68.8196 85.625C68.4503 85.625 68.1392 85.5455 67.8864 85.3864C67.6335 85.2244 67.4418 85.0114 67.3111 84.7472C67.1804 84.4801 67.1151 84.1875 67.1151 83.8693ZM67.9844 83.4091V83.8693C67.9844 84.1335 68.0469 84.3707 68.1719 84.581C68.2969 84.7884 68.5128 84.892 68.8196 84.892C69.1179 84.892 69.3281 84.7884 69.4503 84.581C69.5753 84.3707 69.6378 84.1335 69.6378 83.8693V83.4091C69.6378 83.1449 69.5781 82.9091 69.4588 82.7017C69.3395 82.4915 69.1264 82.3864 68.8196 82.3864C68.5213 82.3864 68.3068 82.4915 68.1761 82.7017C68.0483 82.9091 67.9844 83.1449 67.9844 83.4091ZM67.4389 90.5L73.4389 81.7727H74.4105L68.4105 90.5H67.4389ZM81.348 81.7727V90.5H80.2912V81.7727H81.348ZM84.3363 86.5625V90.5H83.3306V83.9545H84.3022V84.9773H84.3874C84.5408 84.6449 84.7738 84.3778 85.0863 84.1761C85.3988 83.9716 85.8022 83.8693 86.2965 83.8693C86.7397 83.8693 87.1275 83.9602 87.4599 84.142C87.7923 84.321 88.0508 84.5938 88.2354 84.9602C88.4201 85.3239 88.5124 85.7841 88.5124 86.3409V90.5H87.5067V86.4091C87.5067 85.8949 87.3732 85.4943 87.1062 85.2074C86.8391 84.9176 86.4727 84.7727 86.0067 84.7727C85.6857 84.7727 85.3988 84.8423 85.146 84.9815C84.896 85.1207 84.6985 85.3239 84.5536 85.5909C84.4087 85.858 84.3363 86.1818 84.3363 86.5625ZM93.0092 90.6364C92.3956 90.6364 91.8672 90.4915 91.424 90.2017C90.9808 89.9119 90.6399 89.5128 90.4013 89.0043C90.1626 88.4957 90.0433 87.9148 90.0433 87.2614C90.0433 86.5966 90.1655 86.0099 90.4098 85.5014C90.657 84.9901 91.0007 84.5909 91.4411 84.304C91.8842 84.0142 92.4013 83.8693 92.9922 83.8693C93.4524 83.8693 93.8672 83.9545 94.2365 84.125C94.6058 84.2955 94.9084 84.5341 95.1442 84.8409C95.38 85.1477 95.5263 85.5057 95.5831 85.9148H94.5774C94.5007 85.6165 94.3303 85.3523 94.0661 85.1222C93.8047 84.8892 93.4524 84.7727 93.0092 84.7727C92.6172 84.7727 92.2734 84.875 91.978 85.0795C91.6854 85.2812 91.4567 85.5668 91.2919 85.9361C91.13 86.3026 91.049 86.733 91.049 87.2273C91.049 87.733 91.1286 88.1733 91.2876 88.5483C91.4496 88.9233 91.6768 89.2145 91.9695 89.4219C92.2649 89.6293 92.6115 89.733 93.0092 89.733C93.2706 89.733 93.5078 89.6875 93.7209 89.5966C93.9339 89.5057 94.1143 89.375 94.2621 89.2045C94.4098 89.0341 94.5149 88.8295 94.5774 88.5909H95.5831C95.5263 88.9773 95.3857 89.3253 95.1612 89.6349C94.9396 89.9418 94.6456 90.1861 94.2791 90.3679C93.9155 90.5469 93.4922 90.6364 93.0092 90.6364Z" fill="white"/>
<circle cx="211" cy="57.4999" r="28.9999" stroke="white" stroke-opacity="0.3" stroke-width="6"/>
<path d="M219.195 29.6914C223.883 31.0786 228.145 33.6289 231.584 37.1052C235.023 40.5814 237.527 44.8708 238.863 49.5744C240.2 54.278 240.325 59.2431 239.228 64.0082C238.13 68.7732 235.846 73.1834 232.587 76.8287C229.328 80.4739 225.2 83.236 220.587 84.8579C215.974 86.4799 211.026 86.9091 206.202 86.1056C201.379 85.3022 196.837 83.2922 192.999 80.2625C189.161 77.2328 186.151 73.2818 184.25 68.7769" stroke="white" stroke-width="6" stroke-linecap="round"/>
<path d="M185.981 72.1289C183.431 68.2888 181.583 60.0774 182 55.4999C182.51 49.909 184.763 44.5519 187.5 40.4999" stroke="white" stroke-width="6" stroke-linecap="round"/>
<path d="M198.817 65.179C197.866 65.179 197.023 65.0192 196.286 64.6996C195.553 64.38 194.977 63.9432 194.56 63.3892C194.146 62.831 193.942 62.1982 193.946 61.4908C193.942 60.9411 194.061 60.4361 194.304 59.9759C194.547 59.5156 194.875 59.1321 195.288 58.8253C195.706 58.5142 196.17 58.3161 196.682 58.2308V58.1413C196.009 57.9922 195.463 57.6491 195.045 57.1122C194.632 56.571 194.428 55.9467 194.432 55.2393C194.428 54.5661 194.615 53.9652 194.994 53.4368C195.374 52.9084 195.893 52.4929 196.554 52.1903C197.214 51.8835 197.969 51.7301 198.817 51.7301C199.656 51.7301 200.404 51.8835 201.06 52.1903C201.721 52.4929 202.241 52.9084 202.62 53.4368C203.004 53.9652 203.195 54.5661 203.195 55.2393C203.195 55.9467 202.984 56.571 202.562 57.1122C202.145 57.6491 201.606 57.9922 200.945 58.1413V58.2308C201.457 58.3161 201.917 58.5142 202.326 58.8253C202.739 59.1321 203.067 59.5156 203.31 59.9759C203.558 60.4361 203.681 60.9411 203.681 61.4908C203.681 62.1982 203.472 62.831 203.055 63.3892C202.637 63.9432 202.062 64.38 201.329 64.6996C200.6 65.0192 199.763 65.179 198.817 65.179ZM198.817 63.3509C199.307 63.3509 199.733 63.2678 200.095 63.1016C200.457 62.9311 200.739 62.6925 200.939 62.3857C201.139 62.0788 201.241 61.7251 201.246 61.3246C201.241 60.907 201.133 60.5384 200.92 60.2188C200.711 59.8949 200.423 59.6413 200.057 59.4581C199.695 59.2749 199.281 59.1832 198.817 59.1832C198.348 59.1832 197.93 59.2749 197.564 59.4581C197.197 59.6413 196.908 59.8949 196.695 60.2188C196.486 60.5384 196.384 60.907 196.388 61.3246C196.384 61.7251 196.482 62.0788 196.682 62.3857C196.882 62.6882 197.163 62.9247 197.526 63.0952C197.892 63.2656 198.322 63.3509 198.817 63.3509ZM198.817 57.3871C199.217 57.3871 199.571 57.3061 199.878 57.1442C200.189 56.9822 200.434 56.7564 200.613 56.4666C200.792 56.1768 200.884 55.8423 200.888 55.4631C200.884 55.0881 200.794 54.7599 200.619 54.4787C200.445 54.1932 200.202 53.9737 199.891 53.8203C199.58 53.6626 199.222 53.5838 198.817 53.5838C198.403 53.5838 198.039 53.6626 197.724 53.8203C197.413 53.9737 197.17 54.1932 196.995 54.4787C196.825 54.7599 196.741 55.0881 196.746 55.4631C196.741 55.8423 196.827 56.1768 197.001 56.4666C197.18 56.7521 197.425 56.978 197.737 57.1442C198.052 57.3061 198.412 57.3871 198.817 57.3871ZM205.782 65V63.2869L210.327 58.8317C210.762 58.3928 211.124 58.0028 211.414 57.6619C211.704 57.321 211.921 56.9908 212.066 56.6712C212.211 56.3516 212.283 56.0107 212.283 55.6484C212.283 55.2351 212.189 54.8814 212.002 54.5874C211.814 54.2891 211.557 54.0589 211.229 53.897C210.9 53.7351 210.528 53.6541 210.11 53.6541C209.68 53.6541 209.302 53.7436 208.979 53.9226C208.655 54.0973 208.403 54.3466 208.224 54.6705C208.05 54.9943 207.962 55.38 207.962 55.8274H205.706C205.706 54.9964 205.895 54.2741 206.275 53.6605C206.654 53.0469 207.176 52.5717 207.841 52.2351C208.51 51.8984 209.277 51.7301 210.142 51.7301C211.02 51.7301 211.791 51.8942 212.456 52.2223C213.121 52.5504 213.636 53 214.003 53.571C214.373 54.142 214.559 54.794 214.559 55.527C214.559 56.017 214.465 56.4986 214.278 56.9716C214.09 57.4446 213.76 57.9687 213.287 58.544C212.818 59.1193 212.16 59.8161 211.312 60.6342L209.055 62.929V63.0185H214.757V65H205.782ZM222.601 62.9545V62.3793C222.601 61.9567 222.69 61.5678 222.867 61.2127C223.048 60.8576 223.311 60.5717 223.656 60.3551C224 60.1385 224.417 60.0302 224.907 60.0302C225.412 60.0302 225.834 60.1385 226.175 60.3551C226.516 60.5682 226.774 60.8523 226.948 61.2074C227.125 61.5625 227.214 61.9531 227.214 62.3793V62.9545C227.214 63.3771 227.125 63.766 226.948 64.1211C226.77 64.4762 226.509 64.7621 226.165 64.9787C225.824 65.1953 225.405 65.3036 224.907 65.3036C224.41 65.3036 223.99 65.1953 223.645 64.9787C223.301 64.7621 223.04 64.4762 222.862 64.1211C222.688 63.766 222.601 63.3771 222.601 62.9545ZM223.991 62.3793V62.9545C223.991 63.2351 224.059 63.4925 224.194 63.7269C224.329 63.9613 224.567 64.0785 224.907 64.0785C225.252 64.0785 225.488 63.9631 225.616 63.7322C225.747 63.4979 225.813 63.2386 225.813 62.9545V62.3793C225.813 62.0952 225.751 61.8359 225.627 61.6016C225.502 61.3636 225.263 61.2447 224.907 61.2447C224.574 61.2447 224.338 61.3636 224.199 61.6016C224.061 61.8359 223.991 62.0952 223.991 62.3793ZM217.056 56.7116V56.1364C217.056 55.7102 217.146 55.3196 217.328 54.9645C217.509 54.6094 217.771 54.3253 218.116 54.1122C218.46 53.8956 218.878 53.7873 219.368 53.7873C219.868 53.7873 220.289 53.8956 220.63 54.1122C220.975 54.3253 221.234 54.6094 221.408 54.9645C221.582 55.3196 221.669 55.7102 221.669 56.1364V56.7116C221.669 57.1378 221.58 57.5284 221.403 57.8835C221.229 58.2351 220.969 58.5174 220.625 58.7305C220.28 58.9435 219.861 59.0501 219.368 59.0501C218.867 59.0501 218.444 58.9435 218.1 58.7305C217.759 58.5174 217.5 58.2333 217.322 57.8782C217.145 57.5231 217.056 57.1342 217.056 56.7116ZM218.457 56.1364V56.7116C218.457 56.9957 218.523 57.255 218.654 57.4893C218.789 57.7202 219.027 57.8356 219.368 57.8356C219.709 57.8356 219.943 57.7202 220.071 57.4893C220.202 57.255 220.268 56.9957 220.268 56.7116V56.1364C220.268 55.8523 220.206 55.593 220.081 55.3587C219.957 55.1207 219.719 55.0018 219.368 55.0018C219.03 55.0018 218.794 55.1207 218.659 55.3587C218.524 55.5966 218.457 55.8558 218.457 56.1364ZM217.663 65L225.163 54.0909H226.495L218.995 65H217.663Z" fill="white"/>
<defs>
<linearGradient id="paint0_linear_3752_40303" x1="-380.875" y1="-254.66" x2="368.157" y2="-146.786" gradientUnits="userSpaceOnUse">
<stop stop-color="#F8B806"/>
<stop offset="1" stop-color="#CD7916"/>
</linearGradient>
</defs>
</svg>
