<svg width="263" height="119" viewBox="0 0 263 119" fill="none" xmlns="http://www.w3.org/2000/svg">
<rect width="263" height="119" rx="10" fill="url(#paint0_linear_3752_40257)"/>
<path d="M21.1186 34V23.8182H24.7479C25.54 23.8182 26.1963 23.9624 26.7166 24.2507C27.237 24.5391 27.6264 24.9335 27.8849 25.4339C28.1435 25.9311 28.2727 26.4912 28.2727 27.1143C28.2727 27.7408 28.1418 28.3042 27.88 28.8047C27.6214 29.3018 27.2304 29.6963 26.7067 29.9879C26.1863 30.2763 25.5317 30.4205 24.7429 30.4205H22.2472V29.1179H24.6037C25.1042 29.1179 25.5102 29.0317 25.8217 28.8594C26.1333 28.6837 26.362 28.4451 26.5078 28.1435C26.6536 27.8419 26.7266 27.4988 26.7266 27.1143C26.7266 26.7299 26.6536 26.3885 26.5078 26.0902C26.362 25.7919 26.1316 25.5582 25.8168 25.3892C25.5052 25.2202 25.0942 25.1357 24.5838 25.1357H22.6548V34H21.1186ZM29.9544 34V26.3636H31.3912V27.5767H31.4707C31.6099 27.1657 31.8552 26.8426 32.2065 26.6072C32.5611 26.3686 32.9622 26.2493 33.4096 26.2493C33.5024 26.2493 33.6118 26.2526 33.7377 26.2592C33.867 26.2659 33.9681 26.2741 34.041 26.2841V27.706C33.9814 27.6894 33.8753 27.6712 33.7228 27.6513C33.5704 27.6281 33.4179 27.6165 33.2654 27.6165C32.9141 27.6165 32.6009 27.6911 32.3258 27.8402C32.054 27.986 31.8386 28.1899 31.6795 28.4517C31.5204 28.7102 31.4409 29.0052 31.4409 29.3366V34H29.9544ZM38.2706 34.1541C37.5547 34.1541 36.9299 33.9901 36.3963 33.6619C35.8627 33.3338 35.4484 32.8748 35.1534 32.2848C34.8584 31.6948 34.7109 31.0054 34.7109 30.2166C34.7109 29.4245 34.8584 28.7318 35.1534 28.1385C35.4484 27.5452 35.8627 27.0845 36.3963 26.7564C36.9299 26.4283 37.5547 26.2642 38.2706 26.2642C38.9865 26.2642 39.6113 26.4283 40.1449 26.7564C40.6785 27.0845 41.0928 27.5452 41.3878 28.1385C41.6828 28.7318 41.8303 29.4245 41.8303 30.2166C41.8303 31.0054 41.6828 31.6948 41.3878 32.2848C41.0928 32.8748 40.6785 33.3338 40.1449 33.6619C39.6113 33.9901 38.9865 34.1541 38.2706 34.1541ZM38.2756 32.9062C38.7396 32.9062 39.1241 32.7836 39.429 32.5384C39.7339 32.2931 39.9593 31.9666 40.1051 31.5589C40.2543 31.1513 40.3288 30.7022 40.3288 30.2116C40.3288 29.7244 40.2543 29.277 40.1051 28.8693C39.9593 28.4583 39.7339 28.1286 39.429 27.88C39.1241 27.6314 38.7396 27.5071 38.2756 27.5071C37.8082 27.5071 37.4205 27.6314 37.1122 27.88C36.8073 28.1286 36.5803 28.4583 36.4311 28.8693C36.2853 29.277 36.2124 29.7244 36.2124 30.2116C36.2124 30.7022 36.2853 31.1513 36.4311 31.5589C36.5803 31.9666 36.8073 32.2931 37.1122 32.5384C37.4205 32.7836 37.8082 32.9062 38.2756 32.9062ZM46.3482 34.1491C45.7317 34.1491 45.1815 33.9917 44.6976 33.6768C44.217 33.3587 43.8392 32.9062 43.5641 32.3196C43.2923 31.7296 43.1564 31.022 43.1564 30.1967C43.1564 29.3714 43.294 28.6655 43.5691 28.0788C43.8475 27.4922 44.2286 27.0431 44.7125 26.7315C45.1964 26.42 45.745 26.2642 46.3581 26.2642C46.8321 26.2642 47.2132 26.3438 47.5016 26.5028C47.7933 26.6586 48.0186 26.8409 48.1777 27.0497C48.3401 27.2585 48.4661 27.4425 48.5556 27.6016H48.6451V23.8182H50.1316V34H48.6799V32.8118H48.5556C48.4661 32.9742 48.3368 33.1598 48.1678 33.3686C48.0021 33.5774 47.7734 33.7597 47.4817 33.9155C47.19 34.0713 46.8122 34.1491 46.3482 34.1491ZM46.6763 32.8814C47.1039 32.8814 47.4651 32.7687 47.7601 32.5433C48.0584 32.3146 48.2838 31.9981 48.4363 31.5938C48.592 31.1894 48.6699 30.7187 48.6699 30.1818C48.6699 29.6515 48.5937 29.1875 48.4412 28.7898C48.2888 28.392 48.065 28.0821 47.7701 27.8601C47.4751 27.638 47.1105 27.527 46.6763 27.527C46.2289 27.527 45.856 27.643 45.5577 27.875C45.2594 28.107 45.034 28.4235 44.8816 28.8246C44.7324 29.2256 44.6578 29.678 44.6578 30.1818C44.6578 30.6922 44.7341 31.1513 44.8865 31.5589C45.039 31.9666 45.2644 32.2898 45.5627 32.5284C45.8643 32.7637 46.2355 32.8814 46.6763 32.8814ZM57.0906 30.8331V26.3636H58.582V34H57.1204V32.6776H57.0408C56.8652 33.0852 56.5835 33.425 56.1957 33.6967C55.8112 33.9652 55.3323 34.0994 54.7589 34.0994C54.2683 34.0994 53.8342 33.9917 53.4563 33.7763C53.0818 33.5575 52.7868 33.2344 52.5714 32.8068C52.3593 32.3793 52.2532 31.8506 52.2532 31.2209V26.3636H53.7397V31.0419C53.7397 31.5623 53.8839 31.9766 54.1722 32.2848C54.4606 32.593 54.8351 32.7472 55.2958 32.7472C55.5742 32.7472 55.851 32.6776 56.1261 32.5384C56.4045 32.3991 56.6348 32.1887 56.8171 31.907C57.0027 31.6252 57.0939 31.2673 57.0906 30.8331ZM63.796 34.1541C63.0569 34.1541 62.4205 33.9867 61.8869 33.652C61.3566 33.3139 60.9489 32.8482 60.6639 32.255C60.3788 31.6617 60.2363 30.9822 60.2363 30.2166C60.2363 29.4411 60.3822 28.7566 60.6738 28.1634C60.9655 27.5668 61.3765 27.1011 61.9068 26.7663C62.4371 26.4316 63.0618 26.2642 63.7811 26.2642C64.3611 26.2642 64.8781 26.3719 65.3322 26.5874C65.7863 26.7995 66.1525 27.0978 66.4309 27.4822C66.7127 27.8667 66.88 28.3158 66.9331 28.8295H65.4863C65.4068 28.4716 65.2245 28.1634 64.9395 27.9048C64.6577 27.6463 64.2799 27.517 63.8059 27.517C63.3916 27.517 63.0287 27.6264 62.7172 27.8452C62.4089 28.0606 62.1686 28.3688 61.9963 28.7699C61.8239 29.1676 61.7377 29.6383 61.7377 30.1818C61.7377 30.7386 61.8223 31.2192 61.9913 31.6236C62.1603 32.0279 62.399 32.3411 62.7072 32.5632C63.0188 32.7853 63.385 32.8963 63.8059 32.8963C64.0877 32.8963 64.3429 32.8449 64.5716 32.7422C64.8036 32.6361 64.9975 32.4853 65.1532 32.2898C65.3123 32.0942 65.4234 31.8589 65.4863 31.5838H66.9331C66.88 32.0777 66.7193 32.5185 66.4508 32.9062C66.1824 33.294 65.8227 33.599 65.372 33.821C64.9245 34.0431 64.3992 34.1541 63.796 34.1541ZM72.0874 26.3636V27.5568H67.9162V26.3636H72.0874ZM69.0348 24.5341H70.5213V31.7578C70.5213 32.0462 70.5644 32.2633 70.6506 32.4091C70.7367 32.5516 70.8478 32.6494 70.9837 32.7024C71.1229 32.7521 71.2737 32.777 71.4361 32.777C71.5554 32.777 71.6598 32.7687 71.7493 32.7521C71.8388 32.7356 71.9084 32.7223 71.9581 32.7124L72.2266 33.9403C72.1404 33.9735 72.0178 34.0066 71.8587 34.0398C71.6996 34.0762 71.5007 34.0961 71.2621 34.0994C70.871 34.1061 70.5064 34.0365 70.1683 33.8906C69.8303 33.7448 69.5568 33.5194 69.348 33.2145C69.1392 32.9096 69.0348 32.5268 69.0348 32.0661V24.5341ZM73.7317 34V26.3636H75.2182V34H73.7317ZM74.4824 25.1854C74.2239 25.1854 74.0018 25.0992 73.8162 24.9268C73.6339 24.7512 73.5428 24.5424 73.5428 24.3004C73.5428 24.0552 73.6339 23.8464 73.8162 23.674C74.0018 23.4983 74.2239 23.4105 74.4824 23.4105C74.7409 23.4105 74.9614 23.4983 75.1436 23.674C75.3292 23.8464 75.4221 24.0552 75.4221 24.3004C75.4221 24.5424 75.3292 24.7512 75.1436 24.9268C74.9614 25.0992 74.7409 25.1854 74.4824 25.1854ZM83.7507 26.3636L80.9815 34H79.3906L76.6165 26.3636H78.2124L80.1463 32.2401H80.2259L82.1548 26.3636H83.7507ZM85.1477 34V26.3636H86.6342V34H85.1477ZM85.8984 25.1854C85.6399 25.1854 85.4179 25.0992 85.2322 24.9268C85.05 24.7512 84.9588 24.5424 84.9588 24.3004C84.9588 24.0552 85.05 23.8464 85.2322 23.674C85.4179 23.4983 85.6399 23.4105 85.8984 23.4105C86.157 23.4105 86.3774 23.4983 86.5597 23.674C86.7453 23.8464 86.8381 24.0552 86.8381 24.3004C86.8381 24.5424 86.7453 24.7512 86.5597 24.9268C86.3774 25.0992 86.157 25.1854 85.8984 25.1854ZM92.1987 26.3636V27.5568H88.0275V26.3636H92.1987ZM89.1461 24.5341H90.6326V31.7578C90.6326 32.0462 90.6757 32.2633 90.7619 32.4091C90.8481 32.5516 90.9591 32.6494 91.095 32.7024C91.2342 32.7521 91.385 32.777 91.5474 32.777C91.6667 32.777 91.7711 32.7687 91.8606 32.7521C91.9501 32.7356 92.0197 32.7223 92.0694 32.7124L92.3379 33.9403C92.2517 33.9735 92.1291 34.0066 91.97 34.0398C91.8109 34.0762 91.612 34.0961 91.3734 34.0994C90.9823 34.1061 90.6177 34.0365 90.2797 33.8906C89.9416 33.7448 89.6681 33.5194 89.4593 33.2145C89.2505 32.9096 89.1461 32.5268 89.1461 32.0661V24.5341ZM94.7827 36.8636C94.5606 36.8636 94.3584 36.8454 94.1761 36.8089C93.9938 36.7758 93.858 36.7393 93.7685 36.6996L94.1264 35.4815C94.3982 35.5545 94.6402 35.5859 94.8523 35.576C95.0644 35.5661 95.2517 35.4865 95.4141 35.3374C95.5798 35.1882 95.7256 34.9446 95.8516 34.6065L96.0355 34.0994L93.2415 26.3636H94.8324L96.7663 32.2898H96.8459L98.7798 26.3636H100.376L97.2287 35.0192C97.0829 35.4169 96.8973 35.7533 96.6719 36.0284C96.4465 36.3068 96.178 36.5156 95.8665 36.6548C95.5549 36.794 95.1937 36.8636 94.7827 36.8636ZM105.597 34V23.8182H109.226C110.015 23.8182 110.67 23.9541 111.19 24.2259C111.714 24.4976 112.105 24.8738 112.363 25.3544C112.622 25.8317 112.751 26.3835 112.751 27.0099C112.751 27.633 112.62 28.1816 112.358 28.6555C112.1 29.1262 111.709 29.4924 111.185 29.7543C110.665 30.0161 110.01 30.147 109.221 30.147H106.472V28.8246H109.082C109.579 28.8246 109.984 28.7533 110.295 28.6108C110.61 28.4683 110.84 28.2611 110.986 27.9893C111.132 27.7176 111.205 27.3911 111.205 27.0099C111.205 26.6255 111.131 26.2924 110.981 26.0107C110.836 25.7289 110.605 25.5135 110.29 25.3643C109.979 25.2119 109.569 25.1357 109.062 25.1357H107.133V34H105.597ZM110.623 29.4062L113.139 34H111.389L108.923 29.4062H110.623ZM116.724 34.169C116.24 34.169 115.802 34.0795 115.411 33.9006C115.02 33.7183 114.71 33.4548 114.481 33.1101C114.256 32.7654 114.143 32.3428 114.143 31.8423C114.143 31.4115 114.226 31.0568 114.392 30.7784C114.558 30.5 114.781 30.2796 115.063 30.1172C115.345 29.9548 115.66 29.8321 116.008 29.7493C116.356 29.6664 116.71 29.6035 117.072 29.5604C117.529 29.5073 117.9 29.4643 118.185 29.4311C118.47 29.3946 118.677 29.3366 118.807 29.2571C118.936 29.1776 119.001 29.0483 119.001 28.8693V28.8345C119.001 28.4003 118.878 28.0639 118.633 27.8253C118.391 27.5866 118.029 27.4673 117.549 27.4673C117.048 27.4673 116.654 27.5784 116.366 27.8004C116.081 28.0192 115.883 28.2628 115.774 28.5312L114.377 28.2131C114.543 27.7491 114.785 27.3745 115.103 27.0895C115.424 26.8011 115.794 26.5923 116.211 26.4631C116.629 26.3305 117.068 26.2642 117.529 26.2642C117.834 26.2642 118.157 26.3007 118.498 26.3736C118.843 26.4432 119.165 26.5724 119.463 26.7614C119.765 26.9503 120.011 27.2204 120.204 27.5717C120.396 27.9197 120.492 28.3722 120.492 28.929V34H119.04V32.956H118.981C118.885 33.1482 118.74 33.3371 118.548 33.5227C118.356 33.7083 118.109 33.8625 117.807 33.9851C117.506 34.1077 117.144 34.169 116.724 34.169ZM117.047 32.9759C117.458 32.9759 117.809 32.8946 118.101 32.7322C118.396 32.5698 118.619 32.3577 118.772 32.0959C118.928 31.8307 119.006 31.5473 119.006 31.2457V30.2614C118.952 30.3144 118.85 30.3641 118.697 30.4105C118.548 30.4536 118.377 30.4917 118.185 30.5249C117.993 30.5547 117.806 30.5829 117.623 30.6094C117.441 30.6326 117.289 30.6525 117.166 30.669C116.878 30.7055 116.614 30.7668 116.376 30.853C116.14 30.9392 115.951 31.0634 115.809 31.2259C115.67 31.3849 115.6 31.5971 115.6 31.8622C115.6 32.2301 115.736 32.5085 116.008 32.6974C116.279 32.883 116.626 32.9759 117.047 32.9759ZM126.037 26.3636V27.5568H121.865V26.3636H126.037ZM122.984 24.5341H124.471V31.7578C124.471 32.0462 124.514 32.2633 124.6 32.4091C124.686 32.5516 124.797 32.6494 124.933 32.7024C125.072 32.7521 125.223 32.777 125.385 32.777C125.505 32.777 125.609 32.7687 125.699 32.7521C125.788 32.7356 125.858 32.7223 125.907 32.7124L126.176 33.9403C126.09 33.9735 125.967 34.0066 125.808 34.0398C125.649 34.0762 125.45 34.0961 125.211 34.0994C124.82 34.1061 124.456 34.0365 124.118 33.8906C123.779 33.7448 123.506 33.5194 123.297 33.2145C123.088 32.9096 122.984 32.5268 122.984 32.0661V24.5341ZM130.89 34.1541C130.138 34.1541 129.49 33.9934 128.946 33.6719C128.406 33.3471 127.988 32.8913 127.693 32.3047C127.402 31.7147 127.256 31.0237 127.256 30.2315C127.256 29.4493 127.402 28.7599 127.693 28.1634C127.988 27.5668 128.399 27.1011 128.926 26.7663C129.457 26.4316 130.076 26.2642 130.786 26.2642C131.217 26.2642 131.634 26.3355 132.039 26.478C132.443 26.6205 132.806 26.8442 133.127 27.1491C133.449 27.4541 133.702 27.8501 133.888 28.3374C134.074 28.8213 134.166 29.4096 134.166 30.1023V30.6293H128.096V29.5156H132.71C132.71 29.1245 132.63 28.7782 132.471 28.4766C132.312 28.1716 132.088 27.9313 131.8 27.7557C131.515 27.58 131.18 27.4922 130.796 27.4922C130.378 27.4922 130.013 27.5949 129.702 27.8004C129.394 28.0026 129.155 28.2678 128.986 28.5959C128.82 28.9207 128.737 29.2737 128.737 29.6548V30.5249C128.737 31.0353 128.827 31.4695 129.006 31.8274C129.188 32.1854 129.442 32.4588 129.767 32.6477C130.091 32.8333 130.471 32.9261 130.905 32.9261C131.187 32.9261 131.444 32.8864 131.676 32.8068C131.908 32.724 132.108 32.6013 132.277 32.4389C132.446 32.2765 132.575 32.076 132.665 31.8374L134.072 32.0909C133.959 32.5052 133.757 32.8681 133.465 33.1797C133.177 33.4879 132.814 33.7282 132.377 33.9006C131.942 34.0696 131.447 34.1541 130.89 34.1541Z" fill="white"/>
<path d="M21.5511 66V63.7159L27.6108 57.7756C28.1903 57.1903 28.6733 56.6705 29.0597 56.2159C29.446 55.7614 29.7358 55.321 29.929 54.8949C30.1222 54.4687 30.2188 54.0142 30.2188 53.5312C30.2188 52.9801 30.0938 52.5085 29.8438 52.1165C29.5938 51.7188 29.25 51.4119 28.8125 51.196C28.375 50.9801 27.8778 50.8722 27.321 50.8722C26.7472 50.8722 26.2443 50.9915 25.8125 51.2301C25.3807 51.4631 25.0455 51.7955 24.8068 52.2273C24.5739 52.6591 24.4574 53.1733 24.4574 53.7699H21.4489C21.4489 52.6619 21.7017 51.6989 22.2074 50.8807C22.7131 50.0625 23.4091 49.429 24.2955 48.9801C25.1875 48.5312 26.2102 48.3068 27.3636 48.3068C28.5341 48.3068 29.5625 48.5256 30.4489 48.9631C31.3352 49.4006 32.0227 50 32.5114 50.7614C33.0057 51.5227 33.2528 52.392 33.2528 53.3693C33.2528 54.0227 33.1278 54.6648 32.8778 55.2955C32.6278 55.9261 32.1875 56.625 31.5568 57.392C30.9318 58.1591 30.054 59.0881 28.9233 60.179L25.9148 63.2386V63.358H33.517V66H21.5511ZM43.5568 48.5455V66H40.3949V51.6222H40.2926L36.2102 54.2301V51.3324L40.5483 48.5455H43.5568ZM47.6733 62.7614V60.2472L55.0795 48.5455H57.1761V52.125H55.8977L50.9119 60.0256V60.1619H61.25V62.7614H47.6733ZM56 66V61.9943L56.0341 60.8693V48.5455H59.017V66H56ZM70.0412 66.2386C68.9048 66.2386 67.8878 66.0256 66.9901 65.5994C66.0923 65.1676 65.3793 64.5767 64.8509 63.8267C64.3281 63.0767 64.0497 62.2187 64.0156 61.2528H67.0838C67.1406 61.9687 67.4503 62.554 68.0128 63.0085C68.5753 63.4574 69.2514 63.6818 70.0412 63.6818C70.6605 63.6818 71.2116 63.5398 71.6946 63.2557C72.1776 62.9716 72.5582 62.5767 72.8366 62.071C73.1151 61.5653 73.2514 60.9886 73.2457 60.3409C73.2514 59.6818 73.1122 59.0966 72.8281 58.5852C72.544 58.0739 72.1548 57.6733 71.6605 57.3835C71.1662 57.0881 70.598 56.9403 69.956 56.9403C69.4332 56.9347 68.919 57.0312 68.4134 57.2301C67.9077 57.429 67.5071 57.6903 67.2116 58.0142L64.3565 57.5455L65.2685 48.5455H75.3935V51.1875H67.8849L67.3821 55.8153H67.4844C67.8082 55.4347 68.2656 55.1193 68.8565 54.8693C69.4474 54.6136 70.0952 54.4858 70.7997 54.4858C71.8565 54.4858 72.7997 54.7358 73.6293 55.2358C74.4588 55.7301 75.1122 56.4119 75.5895 57.2812C76.0668 58.1506 76.3054 59.1449 76.3054 60.2642C76.3054 61.4176 76.0384 62.446 75.5043 63.3494C74.9759 64.2472 74.2401 64.9545 73.2969 65.4716C72.3594 65.983 71.2741 66.2386 70.0412 66.2386Z" fill="white"/>
<circle cx="29" cy="86" r="9" fill="white" fill-opacity="0.3"/>
<path d="M32.9427 83.8554C32.8854 83.7149 32.7708 83.5992 32.6317 83.5413C32.5662 83.5165 32.4925 83.5 32.4188 83.5H30.8962C30.5769 83.5 30.3231 83.7562 30.3231 84.0785C30.3231 84.4008 30.5769 84.657 30.8962 84.657H31.0435L29.3162 86.4008L28.4812 85.1446C28.383 85.0041 28.2356 84.905 28.0637 84.8884C27.8836 84.8719 27.7281 84.9298 27.6053 85.0537L25.1658 87.5165C24.9448 87.7397 24.9448 88.1033 25.1658 88.3347C25.2804 88.4504 25.4196 88.5 25.5669 88.5C25.7143 88.5 25.8616 88.4421 25.9681 88.3347L27.9164 86.3678L28.7514 87.624C28.8496 87.7645 28.997 87.8636 29.1689 87.8802C29.349 87.8967 29.5045 87.8388 29.6273 87.7149L31.854 85.4669V85.6157C31.854 85.938 32.1077 86.1942 32.427 86.1942C32.7463 86.1942 33 85.938 33 85.6157V84.0702C32.9837 83.9959 32.9755 83.9215 32.9427 83.8554Z" fill="white"/>
<path d="M46.4773 88.9659V83.3409H47.4318V88.9659H46.4773ZM44.142 86.6307V85.6761H49.767V86.6307H44.142ZM51.8168 90.5L55.7202 82.7784V82.7102H51.2202V81.7727H56.8111V82.7614L52.9247 90.5H51.8168ZM62.8484 88.8636V88.4034C62.8484 88.0852 62.9137 87.794 63.0444 87.5298C63.1779 87.2628 63.3711 87.0497 63.6239 86.8906C63.8796 86.7287 64.1893 86.6477 64.5529 86.6477C64.9222 86.6477 65.2319 86.7287 65.4819 86.8906C65.7319 87.0497 65.9208 87.2628 66.0487 87.5298C66.1765 87.794 66.2404 88.0852 66.2404 88.4034V88.8636C66.2404 89.1818 66.1751 89.4744 66.0444 89.7415C65.9165 90.0057 65.7262 90.2187 65.4734 90.3807C65.2234 90.5398 64.9165 90.6193 64.5529 90.6193C64.1836 90.6193 63.8725 90.5398 63.6197 90.3807C63.3668 90.2187 63.1751 90.0057 63.0444 89.7415C62.9137 89.4744 62.8484 89.1818 62.8484 88.8636ZM63.7177 88.4034V88.8636C63.7177 89.1278 63.7802 89.3651 63.9052 89.5753C64.0302 89.7827 64.2461 89.8864 64.5529 89.8864C64.8512 89.8864 65.0614 89.7827 65.1836 89.5753C65.3086 89.3651 65.3711 89.1278 65.3711 88.8636V88.4034C65.3711 88.1392 65.3114 87.9034 65.1921 87.696C65.0728 87.4858 64.8597 87.3807 64.5529 87.3807C64.2546 87.3807 64.0401 87.4858 63.9094 87.696C63.7816 87.9034 63.7177 88.1392 63.7177 88.4034ZM58.5018 83.8693V83.4091C58.5018 83.0909 58.5671 82.7997 58.6978 82.5355C58.8313 82.2685 59.0245 82.0554 59.2773 81.8963C59.533 81.7344 59.8427 81.6534 60.2063 81.6534C60.5756 81.6534 60.8853 81.7344 61.1353 81.8963C61.3853 82.0554 61.5742 82.2685 61.7021 82.5355C61.8299 82.7997 61.8938 83.0909 61.8938 83.4091V83.8693C61.8938 84.1875 61.8285 84.4801 61.6978 84.7472C61.57 85.0114 61.3796 85.2244 61.1268 85.3864C60.8768 85.5455 60.57 85.625 60.2063 85.625C59.837 85.625 59.5259 85.5455 59.2731 85.3864C59.0202 85.2244 58.8285 85.0114 58.6978 84.7472C58.5671 84.4801 58.5018 84.1875 58.5018 83.8693ZM59.3711 83.4091V83.8693C59.3711 84.1335 59.4336 84.3707 59.5586 84.581C59.6836 84.7884 59.8995 84.892 60.2063 84.892C60.5046 84.892 60.7148 84.7884 60.837 84.581C60.962 84.3707 61.0245 84.1335 61.0245 83.8693V83.4091C61.0245 83.1449 60.9648 82.9091 60.8455 82.7017C60.7262 82.4915 60.5131 82.3864 60.2063 82.3864C59.908 82.3864 59.6935 82.4915 59.5629 82.7017C59.435 82.9091 59.3711 83.1449 59.3711 83.4091ZM58.8256 90.5L64.8256 81.7727H65.7972L59.7972 90.5H58.8256ZM72.7347 81.7727V90.5H71.6779V81.7727H72.7347ZM75.723 86.5625V90.5H74.7173V83.9545H75.6889V84.9773H75.7741C75.9276 84.6449 76.1605 84.3778 76.473 84.1761C76.7855 83.9716 77.1889 83.8693 77.6832 83.8693C78.1264 83.8693 78.5142 83.9602 78.8466 84.142C79.179 84.321 79.4375 84.5938 79.6222 84.9602C79.8068 85.3239 79.8991 85.7841 79.8991 86.3409V90.5H78.8935V86.4091C78.8935 85.8949 78.7599 85.4943 78.4929 85.2074C78.2259 84.9176 77.8594 84.7727 77.3935 84.7727C77.0724 84.7727 76.7855 84.8423 76.5327 84.9815C76.2827 85.1207 76.0852 85.3239 75.9403 85.5909C75.7955 85.858 75.723 86.1818 75.723 86.5625ZM84.396 90.6364C83.7823 90.6364 83.2539 90.4915 82.8107 90.2017C82.3675 89.9119 82.0266 89.5128 81.788 89.0043C81.5494 88.4957 81.43 87.9148 81.43 87.2614C81.43 86.5966 81.5522 86.0099 81.7965 85.5014C82.0437 84.9901 82.3874 84.5909 82.8278 84.304C83.271 84.0142 83.788 83.8693 84.3789 83.8693C84.8391 83.8693 85.2539 83.9545 85.6232 84.125C85.9925 84.2955 86.2951 84.5341 86.5309 84.8409C86.7667 85.1477 86.913 85.5057 86.9698 85.9148H85.9641C85.8874 85.6165 85.717 85.3523 85.4528 85.1222C85.1914 84.8892 84.8391 84.7727 84.396 84.7727C84.0039 84.7727 83.6602 84.875 83.3647 85.0795C83.0721 85.2812 82.8434 85.5668 82.6786 85.9361C82.5167 86.3026 82.4357 86.733 82.4357 87.2273C82.4357 87.733 82.5153 88.1733 82.6744 88.5483C82.8363 88.9233 83.0636 89.2145 83.3562 89.4219C83.6516 89.6293 83.9982 89.733 84.396 89.733C84.6573 89.733 84.8945 89.6875 85.1076 89.5966C85.3207 89.5057 85.5011 89.375 85.6488 89.2045C85.7965 89.0341 85.9016 88.8295 85.9641 88.5909H86.9698C86.913 88.9773 86.7724 89.3253 86.5479 89.6349C86.3263 89.9418 86.0323 90.1861 85.6658 90.3679C85.3022 90.5469 84.8789 90.6364 84.396 90.6364Z" fill="white"/>
<circle cx="211" cy="57.4999" r="28.9999" stroke="white" stroke-opacity="0.3" stroke-width="6"/>
<path d="M219.227 29.6914C223.916 31.0786 228.178 33.6289 231.616 37.1052C235.055 40.5814 237.559 44.8708 238.896 49.5744C240.232 54.278 240.357 59.2431 239.26 64.0082C238.162 68.7732 235.878 73.1834 232.619 76.8287C229.36 80.4739 225.232 83.236 220.619 84.8579C216.006 86.4799 211.058 86.9091 206.235 86.1056" stroke="white" stroke-width="6" stroke-linecap="round"/>
<path d="M198.714 64.179C197.862 64.179 197.099 64.0192 196.426 63.6996C195.753 63.3757 195.218 62.9325 194.822 62.37C194.43 61.8075 194.221 61.1641 194.195 60.4396H196.496C196.539 60.9766 196.771 61.4155 197.193 61.7564C197.615 62.093 198.122 62.2614 198.714 62.2614C199.179 62.2614 199.592 62.1548 199.955 61.9418C200.317 61.7287 200.602 61.4325 200.811 61.0533C201.02 60.674 201.122 60.2415 201.118 59.7557C201.122 59.2614 201.018 58.8224 200.805 58.4389C200.592 58.0554 200.3 57.755 199.929 57.5376C199.558 57.3161 199.132 57.2053 198.651 57.2053C198.259 57.201 197.873 57.2734 197.494 57.4226C197.114 57.5717 196.814 57.7678 196.592 58.0107L194.451 57.6591L195.135 50.9091H202.729V52.8906H197.097L196.72 56.3615H196.797C197.04 56.076 197.383 55.8395 197.826 55.652C198.269 55.4602 198.755 55.3643 199.283 55.3643C200.076 55.3643 200.783 55.5518 201.406 55.9268C202.028 56.2976 202.518 56.8089 202.876 57.4609C203.234 58.1129 203.413 58.8587 203.413 59.6982C203.413 60.5632 203.212 61.3345 202.812 62.0121C202.415 62.6854 201.864 63.2159 201.156 63.6037C200.453 63.9872 199.639 64.179 198.714 64.179ZM205.317 61.571V59.6854L210.872 50.9091H212.445V53.5938H211.486L207.746 59.5192V59.6214H215.5V61.571H205.317ZM211.562 64V60.9957L211.588 60.152V50.9091H213.825V64H211.562ZM223.181 61.9545V61.3793C223.181 60.9567 223.27 60.5678 223.447 60.2127C223.629 59.8576 223.891 59.5717 224.236 59.3551C224.58 59.1385 224.998 59.0302 225.488 59.0302C225.992 59.0302 226.414 59.1385 226.755 59.3551C227.096 59.5682 227.354 59.8523 227.528 60.2074C227.705 60.5625 227.794 60.9531 227.794 61.3793V61.9545C227.794 62.3771 227.705 62.766 227.528 63.1211C227.35 63.4762 227.089 63.7621 226.745 63.9787C226.404 64.1953 225.985 64.3036 225.488 64.3036C224.99 64.3036 224.57 64.1953 224.225 63.9787C223.881 63.7621 223.62 63.4762 223.442 63.1211C223.268 62.766 223.181 62.3771 223.181 61.9545ZM224.571 61.3793V61.9545C224.571 62.2351 224.639 62.4925 224.774 62.7269C224.909 62.9613 225.147 63.0785 225.488 63.0785C225.832 63.0785 226.068 62.9631 226.196 62.7322C226.327 62.4979 226.393 62.2386 226.393 61.9545V61.3793C226.393 61.0952 226.331 60.8359 226.207 60.6016C226.082 60.3636 225.843 60.2447 225.488 60.2447C225.154 60.2447 224.918 60.3636 224.779 60.6016C224.641 60.8359 224.571 61.0952 224.571 61.3793ZM217.636 55.7116V55.1364C217.636 54.7102 217.727 54.3196 217.908 53.9645C218.089 53.6094 218.352 53.3253 218.696 53.1122C219.04 52.8956 219.458 52.7873 219.948 52.7873C220.449 52.7873 220.869 52.8956 221.21 53.1122C221.555 53.3253 221.814 53.6094 221.988 53.9645C222.162 54.3196 222.249 54.7102 222.249 55.1364V55.7116C222.249 56.1378 222.16 56.5284 221.983 56.8835C221.809 57.2351 221.549 57.5174 221.205 57.7305C220.86 57.9435 220.441 58.0501 219.948 58.0501C219.447 58.0501 219.025 57.9435 218.68 57.7305C218.339 57.5174 218.08 57.2333 217.902 56.8782C217.725 56.5231 217.636 56.1342 217.636 55.7116ZM219.037 55.1364V55.7116C219.037 55.9957 219.103 56.255 219.234 56.4893C219.369 56.7202 219.607 56.8356 219.948 56.8356C220.289 56.8356 220.523 56.7202 220.651 56.4893C220.782 56.255 220.848 55.9957 220.848 55.7116V55.1364C220.848 54.8523 220.786 54.593 220.662 54.3587C220.537 54.1207 220.299 54.0018 219.948 54.0018C219.61 54.0018 219.374 54.1207 219.239 54.3587C219.104 54.5966 219.037 54.8558 219.037 55.1364ZM218.243 64L225.743 53.0909H227.075L219.575 64H218.243Z" fill="white"/>
<defs>
<linearGradient id="paint0_linear_3752_40257" x1="-380.875" y1="-254.66" x2="368.157" y2="-146.786" gradientUnits="userSpaceOnUse">
<stop stop-color="#B0CDFF"/>
<stop offset="1" stop-color="#002E7F"/>
</linearGradient>
</defs>
</svg>
