<svg width="263" height="119" viewBox="0 0 263 119" fill="none" xmlns="http://www.w3.org/2000/svg">
<rect width="263" height="119" rx="10" fill="url(#paint0_linear_3752_40242)"/>
<path d="M21.9787 34H20.348L24.0121 23.8182H25.7869L29.451 34H27.8203L24.9418 25.6676H24.8622L21.9787 34ZM22.2521 30.0128H27.5419V31.3054H22.2521V30.0128ZM33.8956 34.1541C33.1565 34.1541 32.5201 33.9867 31.9865 33.652C31.4562 33.3139 31.0485 32.8482 30.7635 32.255C30.4785 31.6617 30.3359 30.9822 30.3359 30.2166C30.3359 29.4411 30.4818 28.7566 30.7734 28.1634C31.0651 27.5668 31.4761 27.1011 32.0064 26.7663C32.5367 26.4316 33.1615 26.2642 33.8807 26.2642C34.4607 26.2642 34.9777 26.3719 35.4318 26.5874C35.8859 26.7995 36.2521 27.0978 36.5305 27.4822C36.8123 27.8667 36.9796 28.3158 37.0327 28.8295H35.5859C35.5064 28.4716 35.3241 28.1634 35.0391 27.9048C34.7573 27.6463 34.3795 27.517 33.9055 27.517C33.4912 27.517 33.1283 27.6264 32.8168 27.8452C32.5085 28.0606 32.2682 28.3688 32.0959 28.7699C31.9235 29.1676 31.8374 29.6383 31.8374 30.1818C31.8374 30.7386 31.9219 31.2192 32.0909 31.6236C32.2599 32.0279 32.4986 32.3411 32.8068 32.5632C33.1184 32.7853 33.4846 32.8963 33.9055 32.8963C34.1873 32.8963 34.4425 32.8449 34.6712 32.7422C34.9032 32.6361 35.0971 32.4853 35.2528 32.2898C35.4119 32.0942 35.523 31.8589 35.5859 31.5838H37.0327C36.9796 32.0777 36.8189 32.5185 36.5504 32.9062C36.282 33.294 35.9223 33.599 35.4716 33.821C35.0241 34.0431 34.4988 34.1541 33.8956 34.1541ZM42.187 26.3636V27.5568H38.0158V26.3636H42.187ZM39.1344 24.5341H40.6209V31.7578C40.6209 32.0462 40.664 32.2633 40.7502 32.4091C40.8364 32.5516 40.9474 32.6494 41.0833 32.7024C41.2225 32.7521 41.3733 32.777 41.5357 32.777C41.655 32.777 41.7594 32.7687 41.8489 32.7521C41.9384 32.7356 42.008 32.7223 42.0577 32.7124L42.3262 33.9403C42.24 33.9735 42.1174 34.0066 41.9583 34.0398C41.7992 34.0762 41.6003 34.0961 41.3617 34.0994C40.9706 34.1061 40.606 34.0365 40.2679 33.8906C39.9299 33.7448 39.6564 33.5194 39.4476 33.2145C39.2388 32.9096 39.1344 32.5268 39.1344 32.0661V24.5341ZM43.8313 34V26.3636H45.3178V34H43.8313ZM44.582 25.1854C44.3235 25.1854 44.1014 25.0992 43.9158 24.9268C43.7335 24.7512 43.6424 24.5424 43.6424 24.3004C43.6424 24.0552 43.7335 23.8464 43.9158 23.674C44.1014 23.4983 44.3235 23.4105 44.582 23.4105C44.8406 23.4105 45.061 23.4983 45.2433 23.674C45.4289 23.8464 45.5217 24.0552 45.5217 24.3004C45.5217 24.5424 45.4289 24.7512 45.2433 24.9268C45.061 25.0992 44.8406 25.1854 44.582 25.1854ZM53.8503 26.3636L51.0811 34H49.4902L46.7161 26.3636H48.312L50.2459 32.2401H50.3255L52.2544 26.3636H53.8503ZM58.2788 34.1541C57.5264 34.1541 56.8784 33.9934 56.3349 33.6719C55.7946 33.3471 55.377 32.8913 55.082 32.3047C54.7904 31.7147 54.6445 31.0237 54.6445 30.2315C54.6445 29.4493 54.7904 28.7599 55.082 28.1634C55.377 27.5668 55.788 27.1011 56.315 26.7663C56.8453 26.4316 57.4651 26.2642 58.1744 26.2642C58.6052 26.2642 59.0228 26.3355 59.4272 26.478C59.8316 26.6205 60.1945 26.8442 60.516 27.1491C60.8375 27.4541 61.091 27.8501 61.2766 28.3374C61.4622 28.8213 61.555 29.4096 61.555 30.1023V30.6293H55.4847V29.5156H60.0984C60.0984 29.1245 60.0188 28.7782 59.8597 28.4766C59.7006 28.1716 59.4769 27.9313 59.1886 27.7557C58.9035 27.58 58.5688 27.4922 58.1843 27.4922C57.7667 27.4922 57.4021 27.5949 57.0906 27.8004C56.7823 28.0026 56.5437 28.2678 56.3746 28.5959C56.2089 28.9207 56.1261 29.2737 56.1261 29.6548V30.5249C56.1261 31.0353 56.2156 31.4695 56.3945 31.8274C56.5768 32.1854 56.8304 32.4588 57.1552 32.6477C57.48 32.8333 57.8595 32.9261 58.2937 32.9261C58.5754 32.9261 58.8323 32.8864 59.0643 32.8068C59.2963 32.724 59.4968 32.6013 59.6658 32.4389C59.8349 32.2765 59.9641 32.076 60.0536 31.8374L61.4606 32.0909C61.3479 32.5052 61.1457 32.8681 60.854 33.1797C60.5657 33.4879 60.2028 33.7282 59.7653 33.9006C59.3311 34.0696 58.8356 34.1541 58.2788 34.1541ZM67.0288 34V23.8182H73.4123V25.1406H68.565V28.2429H73.0792V29.5604H68.565V32.6776H73.4719V34H67.0288ZM75.345 34V26.3636H76.7718V27.6065H76.8663C77.0254 27.1856 77.2856 26.8575 77.6468 26.6222C78.0081 26.3835 78.4406 26.2642 78.9444 26.2642C79.4548 26.2642 79.8824 26.3835 80.2271 26.6222C80.5751 26.8608 80.832 27.1889 80.9977 27.6065H81.0772C81.2595 27.1989 81.5495 26.8741 81.9473 26.6321C82.345 26.3868 82.819 26.2642 83.3691 26.2642C84.0618 26.2642 84.627 26.4813 85.0645 26.9155C85.5053 27.3497 85.7257 28.0043 85.7257 28.8793V34H84.2392V29.0185C84.2392 28.5014 84.0983 28.1269 83.8166 27.8949C83.5349 27.6629 83.1984 27.5469 82.8074 27.5469C82.3234 27.5469 81.9473 27.696 81.6788 27.9943C81.4103 28.2893 81.2761 28.6688 81.2761 29.1328V34H79.7946V28.924C79.7946 28.5097 79.6653 28.1766 79.4068 27.9247C79.1483 27.6728 78.8118 27.5469 78.3975 27.5469C78.1158 27.5469 77.8556 27.6214 77.617 27.7706C77.3817 27.9164 77.1911 28.1203 77.0453 28.3821C76.9028 28.6439 76.8315 28.9472 76.8315 29.2919V34H75.345ZM87.718 36.8636V26.3636H89.1697V27.6016H89.294C89.3802 27.4425 89.5045 27.2585 89.6669 27.0497C89.8293 26.8409 90.0547 26.6586 90.343 26.5028C90.6314 26.3438 91.0125 26.2642 91.4865 26.2642C92.103 26.2642 92.6532 26.42 93.1371 26.7315C93.621 27.0431 94.0005 27.4922 94.2756 28.0788C94.554 28.6655 94.6932 29.3714 94.6932 30.1967C94.6932 31.022 94.5556 31.7296 94.2805 32.3196C94.0054 32.9062 93.6276 33.3587 93.147 33.6768C92.6664 33.9917 92.1179 34.1491 91.5014 34.1491C91.0374 34.1491 90.6579 34.0713 90.3629 33.9155C90.0713 33.7597 89.8426 33.5774 89.6768 33.3686C89.5111 33.1598 89.3835 32.9742 89.294 32.8118H89.2045V36.8636H87.718ZM89.1747 30.1818C89.1747 30.7187 89.2526 31.1894 89.4084 31.5938C89.5642 31.9981 89.7895 32.3146 90.0845 32.5433C90.3795 32.7687 90.7408 32.8814 91.1683 32.8814C91.6125 32.8814 91.9837 32.7637 92.282 32.5284C92.5803 32.2898 92.8056 31.9666 92.9581 31.5589C93.1139 31.1513 93.1918 30.6922 93.1918 30.1818C93.1918 29.678 93.1155 29.2256 92.9631 28.8246C92.8139 28.4235 92.5885 28.107 92.2869 27.875C91.9886 27.643 91.6158 27.527 91.1683 27.527C90.7375 27.527 90.3729 27.638 90.0746 27.8601C89.7796 28.0821 89.5559 28.392 89.4034 28.7898C89.2509 29.1875 89.1747 29.6515 89.1747 30.1818ZM97.8452 23.8182V34H96.3587V23.8182H97.8452ZM103.062 34.1541C102.346 34.1541 101.721 33.9901 101.187 33.6619C100.654 33.3338 100.239 32.8748 99.9444 32.2848C99.6494 31.6948 99.502 31.0054 99.502 30.2166C99.502 29.4245 99.6494 28.7318 99.9444 28.1385C100.239 27.5452 100.654 27.0845 101.187 26.7564C101.721 26.4283 102.346 26.2642 103.062 26.2642C103.778 26.2642 104.402 26.4283 104.936 26.7564C105.47 27.0845 105.884 27.5452 106.179 28.1385C106.474 28.7318 106.621 29.4245 106.621 30.2166C106.621 31.0054 106.474 31.6948 106.179 32.2848C105.884 32.8748 105.47 33.3338 104.936 33.6619C104.402 33.9901 103.778 34.1541 103.062 34.1541ZM103.067 32.9062C103.531 32.9062 103.915 32.7836 104.22 32.5384C104.525 32.2931 104.75 31.9666 104.896 31.5589C105.045 31.1513 105.12 30.7022 105.12 30.2116C105.12 29.7244 105.045 29.277 104.896 28.8693C104.75 28.4583 104.525 28.1286 104.22 27.88C103.915 27.6314 103.531 27.5071 103.067 27.5071C102.599 27.5071 102.211 27.6314 101.903 27.88C101.598 28.1286 101.371 28.4583 101.222 28.8693C101.076 29.277 101.003 29.7244 101.003 30.2116C101.003 30.7022 101.076 31.1513 101.222 31.5589C101.371 31.9666 101.598 32.2931 101.903 32.5384C102.211 32.7836 102.599 32.9062 103.067 32.9062ZM108.96 36.8636C108.738 36.8636 108.536 36.8454 108.354 36.8089C108.172 36.7758 108.036 36.7393 107.946 36.6996L108.304 35.4815C108.576 35.5545 108.818 35.5859 109.03 35.576C109.242 35.5661 109.429 35.4865 109.592 35.3374C109.758 35.1882 109.903 34.9446 110.029 34.6065L110.213 34.0994L107.419 26.3636H109.01L110.944 32.2898H111.024L112.958 26.3636H114.553L111.406 35.0192C111.261 35.4169 111.075 35.7533 110.85 36.0284C110.624 36.3068 110.356 36.5156 110.044 36.6548C109.733 36.794 109.371 36.8636 108.96 36.8636ZM118.982 34.1541C118.23 34.1541 117.582 33.9934 117.038 33.6719C116.498 33.3471 116.08 32.8913 115.785 32.3047C115.493 31.7147 115.348 31.0237 115.348 30.2315C115.348 29.4493 115.493 28.7599 115.785 28.1634C116.08 27.5668 116.491 27.1011 117.018 26.7663C117.548 26.4316 118.168 26.2642 118.877 26.2642C119.308 26.2642 119.726 26.3355 120.13 26.478C120.535 26.6205 120.898 26.8442 121.219 27.1491C121.541 27.4541 121.794 27.8501 121.98 28.3374C122.165 28.8213 122.258 29.4096 122.258 30.1023V30.6293H116.188V29.5156H120.801C120.801 29.1245 120.722 28.7782 120.563 28.4766C120.404 28.1716 120.18 27.9313 119.892 27.7557C119.607 27.58 119.272 27.4922 118.887 27.4922C118.47 27.4922 118.105 27.5949 117.794 27.8004C117.485 28.0026 117.247 28.2678 117.078 28.5959C116.912 28.9207 116.829 29.2737 116.829 29.6548V30.5249C116.829 31.0353 116.919 31.4695 117.098 31.8274C117.28 32.1854 117.533 32.4588 117.858 32.6477C118.183 32.8333 118.563 32.9261 118.997 32.9261C119.279 32.9261 119.535 32.8864 119.767 32.8068C119.999 32.724 120.2 32.6013 120.369 32.4389C120.538 32.2765 120.667 32.076 120.757 31.8374L122.164 32.0909C122.051 32.5052 121.849 32.8681 121.557 33.1797C121.269 33.4879 120.906 33.7282 120.468 33.9006C120.034 34.0696 119.539 34.1541 118.982 34.1541ZM127.199 34.1541C126.446 34.1541 125.798 33.9934 125.255 33.6719C124.715 33.3471 124.297 32.8913 124.002 32.3047C123.71 31.7147 123.564 31.0237 123.564 30.2315C123.564 29.4493 123.71 28.7599 124.002 28.1634C124.297 27.5668 124.708 27.1011 125.235 26.7663C125.765 26.4316 126.385 26.2642 127.094 26.2642C127.525 26.2642 127.943 26.3355 128.347 26.478C128.751 26.6205 129.114 26.8442 129.436 27.1491C129.757 27.4541 130.011 27.8501 130.197 28.3374C130.382 28.8213 130.475 29.4096 130.475 30.1023V30.6293H124.405V29.5156H129.018C129.018 29.1245 128.939 28.7782 128.78 28.4766C128.621 28.1716 128.397 27.9313 128.108 27.7557C127.823 27.58 127.489 27.4922 127.104 27.4922C126.687 27.4922 126.322 27.5949 126.01 27.8004C125.702 28.0026 125.464 28.2678 125.295 28.5959C125.129 28.9207 125.046 29.2737 125.046 29.6548V30.5249C125.046 31.0353 125.135 31.4695 125.314 31.8274C125.497 32.1854 125.75 32.4588 126.075 32.6477C126.4 32.8333 126.779 32.9261 127.214 32.9261C127.495 32.9261 127.752 32.8864 127.984 32.8068C128.216 32.724 128.417 32.6013 128.586 32.4389C128.755 32.2765 128.884 32.076 128.974 31.8374L130.381 32.0909C130.268 32.5052 130.066 32.8681 129.774 33.1797C129.486 33.4879 129.123 33.7282 128.685 33.9006C128.251 34.0696 127.756 34.1541 127.199 34.1541ZM137.847 28.228L136.499 28.4666C136.443 28.2943 136.353 28.1302 136.231 27.9744C136.112 27.8187 135.949 27.6911 135.744 27.5916C135.538 27.4922 135.281 27.4425 134.973 27.4425C134.552 27.4425 134.201 27.5369 133.919 27.7259C133.637 27.9115 133.496 28.1518 133.496 28.4467C133.496 28.7019 133.591 28.9074 133.78 29.0632C133.969 29.219 134.274 29.3466 134.695 29.446L135.908 29.7244C136.61 29.8868 137.134 30.1371 137.479 30.4751C137.823 30.8132 137.996 31.2524 137.996 31.7926C137.996 32.25 137.863 32.6577 137.598 33.0156C137.336 33.3703 136.97 33.6487 136.499 33.8509C136.032 34.053 135.49 34.1541 134.874 34.1541C134.018 34.1541 133.321 33.9718 132.781 33.6072C132.24 33.2393 131.909 32.7173 131.786 32.0412L133.223 31.8224C133.313 32.197 133.496 32.4804 133.775 32.6726C134.053 32.8615 134.416 32.956 134.864 32.956C135.351 32.956 135.74 32.8549 136.032 32.6527C136.324 32.4472 136.469 32.197 136.469 31.902C136.469 31.6634 136.38 31.4628 136.201 31.3004C136.025 31.138 135.755 31.0154 135.391 30.9325L134.098 30.6491C133.385 30.4867 132.858 30.2282 132.517 29.8736C132.179 29.5189 132.01 29.0698 132.01 28.5263C132.01 28.0755 132.136 27.6811 132.388 27.343C132.64 27.005 132.988 26.7415 133.432 26.5526C133.876 26.3603 134.385 26.2642 134.958 26.2642C135.783 26.2642 136.433 26.4432 136.907 26.8011C137.381 27.1558 137.694 27.6314 137.847 28.228Z" fill="white"/>
<path d="M21.5511 66V63.7159L27.6108 57.7756C28.1903 57.1903 28.6733 56.6705 29.0597 56.2159C29.446 55.7614 29.7358 55.321 29.929 54.8949C30.1222 54.4687 30.2188 54.0142 30.2188 53.5312C30.2188 52.9801 30.0938 52.5085 29.8438 52.1165C29.5938 51.7188 29.25 51.4119 28.8125 51.196C28.375 50.9801 27.8778 50.8722 27.321 50.8722C26.7472 50.8722 26.2443 50.9915 25.8125 51.2301C25.3807 51.4631 25.0455 51.7955 24.8068 52.2273C24.5739 52.6591 24.4574 53.1733 24.4574 53.7699H21.4489C21.4489 52.6619 21.7017 51.6989 22.2074 50.8807C22.7131 50.0625 23.4091 49.429 24.2955 48.9801C25.1875 48.5312 26.2102 48.3068 27.3636 48.3068C28.5341 48.3068 29.5625 48.5256 30.4489 48.9631C31.3352 49.4006 32.0227 50 32.5114 50.7614C33.0057 51.5227 33.2528 52.392 33.2528 53.3693C33.2528 54.0227 33.1278 54.6648 32.8778 55.2955C32.6278 55.9261 32.1875 56.625 31.5568 57.392C30.9318 58.1591 30.054 59.0881 28.9233 60.179L25.9148 63.2386V63.358H33.517V66H21.5511ZM43.5568 48.5455V66H40.3949V51.6222H40.2926L36.2102 54.2301V51.3324L40.5483 48.5455H43.5568ZM47.6733 62.7614V60.2472L55.0795 48.5455H57.1761V52.125H55.8977L50.9119 60.0256V60.1619H61.25V62.7614H47.6733ZM56 66V61.9943L56.0341 60.8693V48.5455H59.017V66H56ZM70.0412 66.2386C68.9048 66.2386 67.8878 66.0256 66.9901 65.5994C66.0923 65.1676 65.3793 64.5767 64.8509 63.8267C64.3281 63.0767 64.0497 62.2187 64.0156 61.2528H67.0838C67.1406 61.9687 67.4503 62.554 68.0128 63.0085C68.5753 63.4574 69.2514 63.6818 70.0412 63.6818C70.6605 63.6818 71.2116 63.5398 71.6946 63.2557C72.1776 62.9716 72.5582 62.5767 72.8366 62.071C73.1151 61.5653 73.2514 60.9886 73.2457 60.3409C73.2514 59.6818 73.1122 59.0966 72.8281 58.5852C72.544 58.0739 72.1548 57.6733 71.6605 57.3835C71.1662 57.0881 70.598 56.9403 69.956 56.9403C69.4332 56.9347 68.919 57.0312 68.4134 57.2301C67.9077 57.429 67.5071 57.6903 67.2116 58.0142L64.3565 57.5455L65.2685 48.5455H75.3935V51.1875H67.8849L67.3821 55.8153H67.4844C67.8082 55.4347 68.2656 55.1193 68.8565 54.8693C69.4474 54.6136 70.0952 54.4858 70.7997 54.4858C71.8565 54.4858 72.7997 54.7358 73.6293 55.2358C74.4588 55.7301 75.1122 56.4119 75.5895 57.2812C76.0668 58.1506 76.3054 59.1449 76.3054 60.2642C76.3054 61.4176 76.0384 62.446 75.5043 63.3494C74.9759 64.2472 74.2401 64.9545 73.2969 65.4716C72.3594 65.983 71.2741 66.2386 70.0412 66.2386Z" fill="white"/>
<circle cx="29" cy="86" r="9" fill="white" fill-opacity="0.3"/>
<path d="M32.9427 83.8554C32.8854 83.7149 32.7708 83.5992 32.6317 83.5413C32.5662 83.5165 32.4925 83.5 32.4188 83.5H30.8962C30.5769 83.5 30.3231 83.7562 30.3231 84.0785C30.3231 84.4008 30.5769 84.657 30.8962 84.657H31.0435L29.3162 86.4008L28.4812 85.1446C28.383 85.0041 28.2356 84.905 28.0637 84.8884C27.8836 84.8719 27.7281 84.9298 27.6053 85.0537L25.1658 87.5165C24.9448 87.7397 24.9448 88.1033 25.1658 88.3347C25.2804 88.4504 25.4196 88.5 25.5669 88.5C25.7143 88.5 25.8616 88.4421 25.9681 88.3347L27.9164 86.3678L28.7514 87.624C28.8496 87.7645 28.997 87.8636 29.1689 87.8802C29.349 87.8967 29.5045 87.8388 29.6273 87.7149L31.854 85.4669V85.6157C31.854 85.938 32.1077 86.1942 32.427 86.1942C32.7463 86.1942 33 85.938 33 85.6157V84.0702C32.9837 83.9959 32.9755 83.9215 32.9427 83.8554Z" fill="white"/>
<path d="M46.4773 88.9659V83.3409H47.4318V88.9659H46.4773ZM44.142 86.6307V85.6761H49.767V86.6307H44.142ZM51.4034 90.5V89.733L54.2841 86.5795C54.6222 86.2102 54.9006 85.8892 55.1193 85.6165C55.3381 85.3409 55.5 85.0824 55.6051 84.8409C55.7131 84.5966 55.767 84.3409 55.767 84.0739C55.767 83.767 55.6932 83.5014 55.5455 83.277C55.4006 83.0526 55.2017 82.8793 54.9489 82.7571C54.696 82.6349 54.4119 82.5739 54.0966 82.5739C53.7614 82.5739 53.4688 82.6435 53.2188 82.7827C52.9716 82.919 52.7798 83.1108 52.6435 83.358C52.5099 83.6051 52.4432 83.8949 52.4432 84.2273H51.4375C51.4375 83.7159 51.5554 83.267 51.7912 82.8807C52.027 82.4943 52.348 82.1932 52.7543 81.9773C53.1634 81.7614 53.6222 81.6534 54.1307 81.6534C54.642 81.6534 55.0952 81.7614 55.4901 81.9773C55.8849 82.1932 56.1946 82.4844 56.419 82.8509C56.6435 83.2173 56.7557 83.625 56.7557 84.0739C56.7557 84.3949 56.6974 84.7088 56.581 85.0156C56.4673 85.3196 56.2685 85.6591 55.9844 86.0341C55.7031 86.4062 55.3125 86.8608 54.8125 87.3977L52.8523 89.4943V89.5625H56.9091V90.5H51.4034ZM63.1179 88.8636V88.4034C63.1179 88.0852 63.1832 87.794 63.3139 87.5298C63.4474 87.2628 63.6406 87.0497 63.8935 86.8906C64.1491 86.7287 64.4588 86.6477 64.8224 86.6477C65.1918 86.6477 65.5014 86.7287 65.7514 86.8906C66.0014 87.0497 66.1903 87.2628 66.3182 87.5298C66.446 87.794 66.5099 88.0852 66.5099 88.4034V88.8636C66.5099 89.1818 66.4446 89.4744 66.3139 89.7415C66.1861 90.0057 65.9957 90.2187 65.7429 90.3807C65.4929 90.5398 65.1861 90.6193 64.8224 90.6193C64.4531 90.6193 64.142 90.5398 63.8892 90.3807C63.6364 90.2187 63.4446 90.0057 63.3139 89.7415C63.1832 89.4744 63.1179 89.1818 63.1179 88.8636ZM63.9872 88.4034V88.8636C63.9872 89.1278 64.0497 89.3651 64.1747 89.5753C64.2997 89.7827 64.5156 89.8864 64.8224 89.8864C65.1207 89.8864 65.331 89.7827 65.4531 89.5753C65.5781 89.3651 65.6406 89.1278 65.6406 88.8636V88.4034C65.6406 88.1392 65.581 87.9034 65.4616 87.696C65.3423 87.4858 65.1293 87.3807 64.8224 87.3807C64.5241 87.3807 64.3097 87.4858 64.179 87.696C64.0511 87.9034 63.9872 88.1392 63.9872 88.4034ZM58.7713 83.8693V83.4091C58.7713 83.0909 58.8366 82.7997 58.9673 82.5355C59.1009 82.2685 59.294 82.0554 59.5469 81.8963C59.8026 81.7344 60.1122 81.6534 60.4759 81.6534C60.8452 81.6534 61.1548 81.7344 61.4048 81.8963C61.6548 82.0554 61.8438 82.2685 61.9716 82.5355C62.0994 82.7997 62.1634 83.0909 62.1634 83.4091V83.8693C62.1634 84.1875 62.098 84.4801 61.9673 84.7472C61.8395 85.0114 61.6491 85.2244 61.3963 85.3864C61.1463 85.5455 60.8395 85.625 60.4759 85.625C60.1065 85.625 59.7955 85.5455 59.5426 85.3864C59.2898 85.2244 59.098 85.0114 58.9673 84.7472C58.8366 84.4801 58.7713 84.1875 58.7713 83.8693ZM59.6406 83.4091V83.8693C59.6406 84.1335 59.7031 84.3707 59.8281 84.581C59.9531 84.7884 60.169 84.892 60.4759 84.892C60.7741 84.892 60.9844 84.7884 61.1065 84.581C61.2315 84.3707 61.294 84.1335 61.294 83.8693V83.4091C61.294 83.1449 61.2344 82.9091 61.1151 82.7017C60.9957 82.4915 60.7827 82.3864 60.4759 82.3864C60.1776 82.3864 59.9631 82.4915 59.8324 82.7017C59.7045 82.9091 59.6406 83.1449 59.6406 83.4091ZM59.0952 90.5L65.0952 81.7727H66.0668L60.0668 90.5H59.0952ZM73.0043 81.7727V90.5H71.9474V81.7727H73.0043ZM75.9925 86.5625V90.5H74.9869V83.9545H75.9585V84.9773H76.0437C76.1971 84.6449 76.43 84.3778 76.7425 84.1761C77.055 83.9716 77.4585 83.8693 77.9528 83.8693C78.396 83.8693 78.7837 83.9602 79.1161 84.142C79.4485 84.321 79.707 84.5938 79.8917 84.9602C80.0763 85.3239 80.1687 85.7841 80.1687 86.3409V90.5H79.163V86.4091C79.163 85.8949 79.0295 85.4943 78.7624 85.2074C78.4954 84.9176 78.1289 84.7727 77.663 84.7727C77.342 84.7727 77.055 84.8423 76.8022 84.9815C76.5522 85.1207 76.3548 85.3239 76.2099 85.5909C76.065 85.858 75.9925 86.1818 75.9925 86.5625ZM84.6655 90.6364C84.0518 90.6364 83.5234 90.4915 83.0803 90.2017C82.6371 89.9119 82.2962 89.5128 82.0575 89.0043C81.8189 88.4957 81.6996 87.9148 81.6996 87.2614C81.6996 86.5966 81.8217 86.0099 82.0661 85.5014C82.3132 84.9901 82.657 84.5909 83.0973 84.304C83.5405 84.0142 84.0575 83.8693 84.6484 83.8693C85.1087 83.8693 85.5234 83.9545 85.8928 84.125C86.2621 84.2955 86.5646 84.5341 86.8004 84.8409C87.0362 85.1477 87.1825 85.5057 87.2393 85.9148H86.2337C86.157 85.6165 85.9865 85.3523 85.7223 85.1222C85.4609 84.8892 85.1087 84.7727 84.6655 84.7727C84.2734 84.7727 83.9297 84.875 83.6342 85.0795C83.3416 85.2812 83.1129 85.5668 82.9482 85.9361C82.7862 86.3026 82.7053 86.733 82.7053 87.2273C82.7053 87.733 82.7848 88.1733 82.9439 88.5483C83.1058 88.9233 83.3331 89.2145 83.6257 89.4219C83.9212 89.6293 84.2678 89.733 84.6655 89.733C84.9268 89.733 85.1641 89.6875 85.3771 89.5966C85.5902 89.5057 85.7706 89.375 85.9183 89.2045C86.0661 89.0341 86.1712 88.8295 86.2337 88.5909H87.2393C87.1825 88.9773 87.0419 89.3253 86.8175 89.6349C86.5959 89.9418 86.3018 90.1861 85.9354 90.3679C85.5717 90.5469 85.1484 90.6364 84.6655 90.6364Z" fill="white"/>
<circle cx="211" cy="57.4999" r="28.9999" stroke="white" stroke-opacity="0.3" stroke-width="6"/>
<path d="M219.227 29.6914C223.916 31.0786 228.178 33.6289 231.616 37.1052C235.055 40.5814 237.559 44.8708 238.896 49.5744C240.232 54.278 240.357 59.2431 239.26 64.0082C238.162 68.7732 235.878 73.1834 232.619 76.8287C229.36 80.4739 225.232 83.236 220.619 84.8579C216.006 86.4799 211.058 86.9091 206.235 86.1056C201.411 85.3022 196.87 83.2922 193.031 80.2625C189.193 77.2328 186.184 73.2818 184.282 68.7769" stroke="white" stroke-width="6" stroke-linecap="round"/>
<path d="M194.643 64L200.21 52.9801V52.8906H193.748V50.9091H202.665V52.9354L197.104 64H194.643ZM203.437 61.571V59.6854L208.991 50.9091H210.564V53.5938H209.605L205.866 59.5192V59.6214H213.619V61.571H203.437ZM209.682 64V60.9957L209.707 60.152V50.9091H211.944V64H209.682ZM221.3 61.9545V61.3793C221.3 60.9567 221.389 60.5678 221.567 60.2127C221.748 59.8576 222.01 59.5717 222.355 59.3551C222.699 59.1385 223.117 59.0302 223.607 59.0302C224.111 59.0302 224.534 59.1385 224.874 59.3551C225.215 59.5682 225.473 59.8523 225.647 60.2074C225.824 60.5625 225.913 60.9531 225.913 61.3793V61.9545C225.913 62.3771 225.824 62.766 225.647 63.1211C225.469 63.4762 225.208 63.7621 224.864 63.9787C224.523 64.1953 224.104 64.3036 223.607 64.3036C223.11 64.3036 222.689 64.1953 222.344 63.9787C222 63.7621 221.739 63.4762 221.561 63.1211C221.387 62.766 221.3 62.3771 221.3 61.9545ZM222.691 61.3793V61.9545C222.691 62.2351 222.758 62.4925 222.893 62.7269C223.028 62.9613 223.266 63.0785 223.607 63.0785C223.951 63.0785 224.187 62.9631 224.315 62.7322C224.447 62.4979 224.512 62.2386 224.512 61.9545V61.3793C224.512 61.0952 224.45 60.8359 224.326 60.6016C224.202 60.3636 223.962 60.2447 223.607 60.2447C223.273 60.2447 223.037 60.3636 222.898 60.6016C222.76 60.8359 222.691 61.0952 222.691 61.3793ZM215.755 55.7116V55.1364C215.755 54.7102 215.846 54.3196 216.027 53.9645C216.208 53.6094 216.471 53.3253 216.815 53.1122C217.16 52.8956 217.577 52.7873 218.067 52.7873C218.568 52.7873 218.988 52.8956 219.329 53.1122C219.674 53.3253 219.933 53.6094 220.107 53.9645C220.281 54.3196 220.368 54.7102 220.368 55.1364V55.7116C220.368 56.1378 220.279 56.5284 220.102 56.8835C219.928 57.2351 219.669 57.5174 219.324 57.7305C218.98 57.9435 218.561 58.0501 218.067 58.0501C217.566 58.0501 217.144 57.9435 216.799 57.7305C216.458 57.5174 216.199 57.2333 216.021 56.8782C215.844 56.5231 215.755 56.1342 215.755 55.7116ZM217.156 55.1364V55.7116C217.156 55.9957 217.222 56.255 217.353 56.4893C217.488 56.7202 217.726 56.8356 218.067 56.8356C218.408 56.8356 218.642 56.7202 218.77 56.4893C218.901 56.255 218.967 55.9957 218.967 55.7116V55.1364C218.967 54.8523 218.905 54.593 218.781 54.3587C218.656 54.1207 218.419 54.0018 218.067 54.0018C217.73 54.0018 217.493 54.1207 217.358 54.3587C217.224 54.5966 217.156 54.8558 217.156 55.1364ZM216.362 64L223.862 53.0909H225.194L217.694 64H216.362Z" fill="white"/>
<defs>
<linearGradient id="paint0_linear_3752_40242" x1="-14.1851" y1="-27.2409" x2="302.119" y2="20.843" gradientUnits="userSpaceOnUse">
<stop stop-color="#2D82B2"/>
<stop offset="1" stop-color="#329ABB"/>
</linearGradient>
</defs>
</svg>
