<svg width="263" height="119" viewBox="0 0 263 119" fill="none" xmlns="http://www.w3.org/2000/svg">
<rect width="263" height="119" rx="10" fill="url(#paint0_linear_3752_40319)"/>
<path d="M21.1186 34V23.8182H27.5021V25.1406H22.6548V28.2429H27.169V29.5604H22.6548V32.6776H27.5618V34H21.1186ZM29.4348 34V26.3636H30.8617V27.6065H30.9561C31.1152 27.1856 31.3754 26.8575 31.7367 26.6222C32.098 26.3835 32.5305 26.2642 33.0343 26.2642C33.5447 26.2642 33.9722 26.3835 34.3169 26.6222C34.665 26.8608 34.9218 27.1889 35.0875 27.6065H35.1671C35.3494 27.1989 35.6394 26.8741 36.0371 26.6321C36.4348 26.3868 36.9088 26.2642 37.459 26.2642C38.1517 26.2642 38.7168 26.4813 39.1543 26.9155C39.5951 27.3497 39.8155 28.0043 39.8155 28.8793V34H38.329V29.0185C38.329 28.5014 38.1882 28.1269 37.9064 27.8949C37.6247 27.6629 37.2883 27.5469 36.8972 27.5469C36.4133 27.5469 36.0371 27.696 35.7686 27.9943C35.5002 28.2893 35.3659 28.6688 35.3659 29.1328V34H33.8844V28.924C33.8844 28.5097 33.7551 28.1766 33.4966 27.9247C33.2381 27.6728 32.9017 27.5469 32.4874 27.5469C32.2057 27.5469 31.9455 27.6214 31.7069 27.7706C31.4715 27.9164 31.281 28.1203 31.1351 28.3821C30.9926 28.6439 30.9213 28.9472 30.9213 29.2919V34H29.4348ZM41.8079 36.8636V26.3636H43.2596V27.6016H43.3839C43.4701 27.4425 43.5943 27.2585 43.7567 27.0497C43.9192 26.8409 44.1445 26.6586 44.4329 26.5028C44.7212 26.3438 45.1024 26.2642 45.5763 26.2642C46.1928 26.2642 46.743 26.42 47.2269 26.7315C47.7108 27.0431 48.0903 27.4922 48.3654 28.0788C48.6438 28.6655 48.783 29.3714 48.783 30.1967C48.783 31.022 48.6455 31.7296 48.3704 32.3196C48.0953 32.9062 47.7174 33.3587 47.2369 33.6768C46.7563 33.9917 46.2077 34.1491 45.5913 34.1491C45.1272 34.1491 44.7478 34.0713 44.4528 33.9155C44.1611 33.7597 43.9324 33.5774 43.7667 33.3686C43.601 33.1598 43.4734 32.9742 43.3839 32.8118H43.2944V36.8636H41.8079ZM43.2646 30.1818C43.2646 30.7187 43.3424 31.1894 43.4982 31.5938C43.654 31.9981 43.8794 32.3146 44.1744 32.5433C44.4693 32.7687 44.8306 32.8814 45.2582 32.8814C45.7023 32.8814 46.0735 32.7637 46.3718 32.5284C46.6701 32.2898 46.8955 31.9666 47.0479 31.5589C47.2037 31.1513 47.2816 30.6922 47.2816 30.1818C47.2816 29.678 47.2054 29.2256 47.0529 28.8246C46.9038 28.4235 46.6784 28.107 46.3768 27.875C46.0785 27.643 45.7056 27.527 45.2582 27.527C44.8273 27.527 44.4627 27.638 44.1644 27.8601C43.8694 28.0821 43.6457 28.392 43.4933 28.7898C43.3408 29.1875 43.2646 29.6515 43.2646 30.1818ZM51.935 23.8182V34H50.4485V23.8182H51.935ZM57.1515 34.1541C56.4355 34.1541 55.8108 33.9901 55.2772 33.6619C54.7435 33.3338 54.3292 32.8748 54.0343 32.2848C53.7393 31.6948 53.5918 31.0054 53.5918 30.2166C53.5918 29.4245 53.7393 28.7318 54.0343 28.1385C54.3292 27.5452 54.7435 27.0845 55.2772 26.7564C55.8108 26.4283 56.4355 26.2642 57.1515 26.2642C57.8674 26.2642 58.4921 26.4283 59.0257 26.7564C59.5594 27.0845 59.9737 27.5452 60.2686 28.1385C60.5636 28.7318 60.7111 29.4245 60.7111 30.2166C60.7111 31.0054 60.5636 31.6948 60.2686 32.2848C59.9737 32.8748 59.5594 33.3338 59.0257 33.6619C58.4921 33.9901 57.8674 34.1541 57.1515 34.1541ZM57.1564 32.9062C57.6204 32.9062 58.0049 32.7836 58.3098 32.5384C58.6148 32.2931 58.8401 31.9666 58.986 31.5589C59.1351 31.1513 59.2097 30.7022 59.2097 30.2116C59.2097 29.7244 59.1351 29.277 58.986 28.8693C58.8401 28.4583 58.6148 28.1286 58.3098 27.88C58.0049 27.6314 57.6204 27.5071 57.1564 27.5071C56.6891 27.5071 56.3013 27.6314 55.9931 27.88C55.6882 28.1286 55.4611 28.4583 55.312 28.8693C55.1661 29.277 55.0932 29.7244 55.0932 30.2116C55.0932 30.7022 55.1661 31.1513 55.312 31.5589C55.4611 31.9666 55.6882 32.2931 55.9931 32.5384C56.3013 32.7836 56.6891 32.9062 57.1564 32.9062ZM63.0502 36.8636C62.8282 36.8636 62.626 36.8454 62.4437 36.8089C62.2614 36.7758 62.1255 36.7393 62.036 36.6996L62.394 35.4815C62.6658 35.5545 62.9077 35.5859 63.1199 35.576C63.332 35.5661 63.5192 35.4865 63.6816 35.3374C63.8474 35.1882 63.9932 34.9446 64.1191 34.6065L64.3031 34.0994L61.5091 26.3636H63.1L65.0339 32.2898H65.1135L67.0474 26.3636H68.6433L65.4963 35.0192C65.3504 35.4169 65.1648 35.7533 64.9395 36.0284C64.7141 36.3068 64.4456 36.5156 64.1341 36.6548C63.8225 36.794 63.4612 36.8636 63.0502 36.8636ZM73.0717 34.1541C72.3194 34.1541 71.6714 33.9934 71.1278 33.6719C70.5876 33.3471 70.17 32.8913 69.875 32.3047C69.5833 31.7147 69.4375 31.0237 69.4375 30.2315C69.4375 29.4493 69.5833 28.7599 69.875 28.1634C70.17 27.5668 70.581 27.1011 71.108 26.7663C71.6383 26.4316 72.258 26.2642 72.9673 26.2642C73.3982 26.2642 73.8158 26.3355 74.2202 26.478C74.6245 26.6205 74.9875 26.8442 75.3089 27.1491C75.6304 27.4541 75.884 27.8501 76.0696 28.3374C76.2552 28.8213 76.348 29.4096 76.348 30.1023V30.6293H70.2777V29.5156H74.8913C74.8913 29.1245 74.8118 28.7782 74.6527 28.4766C74.4936 28.1716 74.2699 27.9313 73.9815 27.7557C73.6965 27.58 73.3617 27.4922 72.9773 27.4922C72.5597 27.4922 72.1951 27.5949 71.8835 27.8004C71.5753 28.0026 71.3366 28.2678 71.1676 28.5959C71.0019 28.9207 70.919 29.2737 70.919 29.6548V30.5249C70.919 31.0353 71.0085 31.4695 71.1875 31.8274C71.3698 32.1854 71.6233 32.4588 71.9482 32.6477C72.273 32.8333 72.6525 32.9261 73.0866 32.9261C73.3684 32.9261 73.6252 32.8864 73.8572 32.8068C74.0893 32.724 74.2898 32.6013 74.4588 32.4389C74.6278 32.2765 74.7571 32.076 74.8466 31.8374L76.2536 32.0909C76.1409 32.5052 75.9387 32.8681 75.647 33.1797C75.3587 33.4879 74.9957 33.7282 74.5582 33.9006C74.1241 34.0696 73.6286 34.1541 73.0717 34.1541ZM81.2885 34.1541C80.5362 34.1541 79.8882 33.9934 79.3446 33.6719C78.8044 33.3471 78.3868 32.8913 78.0918 32.3047C77.8001 31.7147 77.6543 31.0237 77.6543 30.2315C77.6543 29.4493 77.8001 28.7599 78.0918 28.1634C78.3868 27.5668 78.7978 27.1011 79.3248 26.7663C79.8551 26.4316 80.4748 26.2642 81.1841 26.2642C81.615 26.2642 82.0326 26.3355 82.437 26.478C82.8413 26.6205 83.2042 26.8442 83.5257 27.1491C83.8472 27.4541 84.1008 27.8501 84.2864 28.3374C84.472 28.8213 84.5648 29.4096 84.5648 30.1023V30.6293H78.4945V29.5156H83.1081C83.1081 29.1245 83.0286 28.7782 82.8695 28.4766C82.7104 28.1716 82.4867 27.9313 82.1983 27.7557C81.9133 27.58 81.5785 27.4922 81.1941 27.4922C80.7765 27.4922 80.4119 27.5949 80.1003 27.8004C79.7921 28.0026 79.5534 28.2678 79.3844 28.5959C79.2187 28.9207 79.1358 29.2737 79.1358 29.6548V30.5249C79.1358 31.0353 79.2253 31.4695 79.4043 31.8274C79.5866 32.1854 79.8401 32.4588 80.165 32.6477C80.4898 32.8333 80.8693 32.9261 81.3034 32.9261C81.5852 32.9261 81.842 32.8864 82.074 32.8068C82.306 32.724 82.5066 32.6013 82.6756 32.4389C82.8446 32.2765 82.9739 32.076 83.0634 31.8374L84.4703 32.0909C84.3577 32.5052 84.1555 32.8681 83.8638 33.1797C83.5755 33.4879 83.2125 33.7282 82.775 33.9006C82.3408 34.0696 81.8453 34.1541 81.2885 34.1541ZM95.5918 26.4929C95.5388 26.0223 95.32 25.6577 94.9355 25.3991C94.5511 25.1373 94.0672 25.0064 93.4838 25.0064C93.0662 25.0064 92.705 25.0727 92.4 25.2053C92.0951 25.3345 91.8581 25.5135 91.6891 25.7422C91.5234 25.9676 91.4405 26.2244 91.4405 26.5128C91.4405 26.7547 91.4969 26.9635 91.6096 27.1392C91.7256 27.3149 91.8764 27.4624 92.062 27.5817C92.2509 27.6977 92.4531 27.7955 92.6685 27.875C92.8839 27.9512 93.0911 28.0142 93.29 28.0639L94.2843 28.3224C94.6091 28.402 94.9422 28.5097 95.2836 28.6456C95.6249 28.7815 95.9415 28.9605 96.2331 29.1825C96.5248 29.4046 96.7601 29.6797 96.9391 30.0078C97.1214 30.3359 97.2125 30.7287 97.2125 31.1861C97.2125 31.7628 97.0634 32.2749 96.7651 32.7223C96.4701 33.1697 96.0409 33.5227 95.4775 33.7812C94.9173 34.0398 94.2395 34.169 93.4441 34.169C92.6818 34.169 92.0222 34.0481 91.4654 33.8061C90.9086 33.5642 90.4727 33.2211 90.1578 32.777C89.843 32.3295 89.669 31.7992 89.6358 31.1861H91.177C91.2069 31.554 91.3262 31.8606 91.535 32.1058C91.7471 32.3478 92.0172 32.5284 92.3453 32.6477C92.6768 32.7637 93.0397 32.8217 93.4341 32.8217C93.8683 32.8217 94.2544 32.7538 94.5925 32.6179C94.9339 32.4787 95.2024 32.2865 95.3979 32.0412C95.5935 31.7926 95.6912 31.5026 95.6912 31.1712C95.6912 30.8696 95.6051 30.6226 95.4327 30.4304C95.2637 30.2382 95.0333 30.0791 94.7417 29.9531C94.4533 29.8272 94.1268 29.7161 93.7623 29.62L92.5591 29.2919C91.7438 29.0698 91.0975 28.7434 90.6202 28.3125C90.1462 27.8816 89.9093 27.3116 89.9093 26.6023C89.9093 26.0156 90.0684 25.5036 90.3865 25.0661C90.7047 24.6286 91.1356 24.2888 91.6792 24.0469C92.2227 23.8016 92.8359 23.679 93.5186 23.679C94.208 23.679 94.8162 23.8 95.3432 24.0419C95.8735 24.2839 96.2911 24.617 96.5961 25.0412C96.901 25.4621 97.0601 25.946 97.0733 26.4929H95.5918ZM101.151 34.169C100.667 34.169 100.23 34.0795 99.8388 33.9006C99.4477 33.7183 99.1378 33.4548 98.9091 33.1101C98.6837 32.7654 98.571 32.3428 98.571 31.8423C98.571 31.4115 98.6539 31.0568 98.8196 30.7784C98.9853 30.5 99.209 30.2796 99.4908 30.1172C99.7725 29.9548 100.087 29.8321 100.435 29.7493C100.783 29.6664 101.138 29.6035 101.499 29.5604C101.957 29.5073 102.328 29.4643 102.613 29.4311C102.898 29.3946 103.105 29.3366 103.234 29.2571C103.364 29.1776 103.428 29.0483 103.428 28.8693V28.8345C103.428 28.4003 103.306 28.0639 103.06 27.8253C102.818 27.5866 102.457 27.4673 101.977 27.4673C101.476 27.4673 101.082 27.5784 100.793 27.8004C100.508 28.0192 100.311 28.2628 100.202 28.5312L98.8047 28.2131C98.9704 27.7491 99.2124 27.3745 99.5305 27.0895C99.852 26.8011 100.222 26.5923 100.639 26.4631C101.057 26.3305 101.496 26.2642 101.957 26.2642C102.262 26.2642 102.585 26.3007 102.926 26.3736C103.271 26.4432 103.592 26.5724 103.891 26.7614C104.192 26.9503 104.439 27.2204 104.631 27.5717C104.824 27.9197 104.92 28.3722 104.92 28.929V34H103.468V32.956H103.408C103.312 33.1482 103.168 33.3371 102.976 33.5227C102.784 33.7083 102.537 33.8625 102.235 33.9851C101.933 34.1077 101.572 34.169 101.151 34.169ZM101.474 32.9759C101.885 32.9759 102.237 32.8946 102.528 32.7322C102.823 32.5698 103.047 32.3577 103.2 32.0959C103.355 31.8307 103.433 31.5473 103.433 31.2457V30.2614C103.38 30.3144 103.277 30.3641 103.125 30.4105C102.976 30.4536 102.805 30.4917 102.613 30.5249C102.421 30.5547 102.233 30.5829 102.051 30.6094C101.869 30.6326 101.716 30.6525 101.594 30.669C101.305 30.7055 101.042 30.7668 100.803 30.853C100.568 30.9392 100.379 31.0634 100.237 31.2259C100.097 31.3849 100.028 31.5971 100.028 31.8622C100.028 32.2301 100.164 32.5085 100.435 32.6974C100.707 32.883 101.054 32.9759 101.474 32.9759ZM110.464 26.3636V27.5568H106.293V26.3636H110.464ZM107.412 24.5341H108.898V31.7578C108.898 32.0462 108.941 32.2633 109.028 32.4091C109.114 32.5516 109.225 32.6494 109.361 32.7024C109.5 32.7521 109.651 32.777 109.813 32.777C109.932 32.777 110.037 32.7687 110.126 32.7521C110.216 32.7356 110.285 32.7223 110.335 32.7124L110.604 33.9403C110.517 33.9735 110.395 34.0066 110.236 34.0398C110.077 34.0762 109.878 34.0961 109.639 34.0994C109.248 34.1061 108.883 34.0365 108.545 33.8906C108.207 33.7448 107.934 33.5194 107.725 33.2145C107.516 32.9096 107.412 32.5268 107.412 32.0661V24.5341ZM112.109 34V26.3636H113.595V34H112.109ZM112.859 25.1854C112.601 25.1854 112.379 25.0992 112.193 24.9268C112.011 24.7512 111.92 24.5424 111.92 24.3004C111.92 24.0552 112.011 23.8464 112.193 23.674C112.379 23.4983 112.601 23.4105 112.859 23.4105C113.118 23.4105 113.338 23.4983 113.521 23.674C113.706 23.8464 113.799 24.0552 113.799 24.3004C113.799 24.5424 113.706 24.7512 113.521 24.9268C113.338 25.0992 113.118 25.1854 112.859 25.1854ZM121.317 28.228L119.97 28.4666C119.914 28.2943 119.824 28.1302 119.702 27.9744C119.582 27.8187 119.42 27.6911 119.214 27.5916C119.009 27.4922 118.752 27.4425 118.444 27.4425C118.023 27.4425 117.671 27.5369 117.39 27.7259C117.108 27.9115 116.967 28.1518 116.967 28.4467C116.967 28.7019 117.062 28.9074 117.251 29.0632C117.439 29.219 117.744 29.3466 118.165 29.446L119.378 29.7244C120.081 29.8868 120.605 30.1371 120.949 30.4751C121.294 30.8132 121.466 31.2524 121.466 31.7926C121.466 32.25 121.334 32.6577 121.069 33.0156C120.807 33.3703 120.441 33.6487 119.97 33.8509C119.503 34.053 118.961 34.1541 118.344 34.1541C117.489 34.1541 116.791 33.9718 116.251 33.6072C115.711 33.2393 115.38 32.7173 115.257 32.0412L116.694 31.8224C116.783 32.197 116.967 32.4804 117.246 32.6726C117.524 32.8615 117.887 32.956 118.334 32.956C118.822 32.956 119.211 32.8549 119.503 32.6527C119.794 32.4472 119.94 32.197 119.94 31.902C119.94 31.6634 119.851 31.4628 119.672 31.3004C119.496 31.138 119.226 31.0154 118.861 30.9325L117.569 30.6491C116.856 30.4867 116.329 30.2282 115.988 29.8736C115.65 29.5189 115.481 29.0698 115.481 28.5263C115.481 28.0755 115.607 27.6811 115.858 27.343C116.11 27.005 116.458 26.7415 116.903 26.5526C117.347 26.3603 117.855 26.2642 118.429 26.2642C119.254 26.2642 119.904 26.4432 120.378 26.8011C120.852 27.1558 121.165 27.6314 121.317 28.228ZM126.735 26.3636V27.5568H122.42V26.3636H126.735ZM123.603 34V25.4787C123.603 25.0014 123.707 24.6053 123.916 24.2905C124.125 23.9723 124.402 23.7353 124.746 23.5795C125.091 23.4205 125.466 23.3409 125.87 23.3409C126.168 23.3409 126.424 23.3658 126.636 23.4155C126.848 23.4619 127.005 23.505 127.108 23.5447L126.76 24.7479C126.69 24.728 126.601 24.7048 126.491 24.6783C126.382 24.6484 126.25 24.6335 126.094 24.6335C125.732 24.6335 125.474 24.723 125.318 24.902C125.166 25.081 125.089 25.3395 125.089 25.6776V34H123.603ZM130.259 34.169C129.775 34.169 129.337 34.0795 128.946 33.9006C128.555 33.7183 128.245 33.4548 128.017 33.1101C127.791 32.7654 127.678 32.3428 127.678 31.8423C127.678 31.4115 127.761 31.0568 127.927 30.7784C128.093 30.5 128.316 30.2796 128.598 30.1172C128.88 29.9548 129.195 29.8321 129.543 29.7493C129.891 29.6664 130.245 29.6035 130.607 29.5604C131.064 29.5073 131.435 29.4643 131.72 29.4311C132.005 29.3946 132.213 29.3366 132.342 29.2571C132.471 29.1776 132.536 29.0483 132.536 28.8693V28.8345C132.536 28.4003 132.413 28.0639 132.168 27.8253C131.926 27.5866 131.565 27.4673 131.084 27.4673C130.584 27.4673 130.189 27.5784 129.901 27.8004C129.616 28.0192 129.419 28.2628 129.309 28.5312L127.912 28.2131C128.078 27.7491 128.32 27.3745 128.638 27.0895C128.959 26.8011 129.329 26.5923 129.747 26.4631C130.164 26.3305 130.603 26.2642 131.064 26.2642C131.369 26.2642 131.692 26.3007 132.034 26.3736C132.378 26.4432 132.7 26.5724 132.998 26.7614C133.3 26.9503 133.547 27.2204 133.739 27.5717C133.931 27.9197 134.027 28.3722 134.027 28.929V34H132.575V32.956H132.516C132.42 33.1482 132.276 33.3371 132.083 33.5227C131.891 33.7083 131.644 33.8625 131.343 33.9851C131.041 34.1077 130.68 34.169 130.259 34.169ZM130.582 32.9759C130.993 32.9759 131.344 32.8946 131.636 32.7322C131.931 32.5698 132.155 32.3577 132.307 32.0959C132.463 31.8307 132.541 31.5473 132.541 31.2457V30.2614C132.488 30.3144 132.385 30.3641 132.232 30.4105C132.083 30.4536 131.913 30.4917 131.72 30.5249C131.528 30.5547 131.341 30.5829 131.159 30.6094C130.976 30.6326 130.824 30.6525 130.701 30.669C130.413 30.7055 130.149 30.7668 129.911 30.853C129.675 30.9392 129.486 31.0634 129.344 31.2259C129.205 31.3849 129.135 31.5971 129.135 31.8622C129.135 32.2301 129.271 32.5085 129.543 32.6974C129.815 32.883 130.161 32.9759 130.582 32.9759ZM139.224 34.1541C138.485 34.1541 137.848 33.9867 137.315 33.652C136.784 33.3139 136.377 32.8482 136.092 32.255C135.807 31.6617 135.664 30.9822 135.664 30.2166C135.664 29.4411 135.81 28.7566 136.102 28.1634C136.393 27.5668 136.804 27.1011 137.335 26.7663C137.865 26.4316 138.49 26.2642 139.209 26.2642C139.789 26.2642 140.306 26.3719 140.76 26.5874C141.214 26.7995 141.58 27.0978 141.859 27.4822C142.14 27.8667 142.308 28.3158 142.361 28.8295H140.914C140.835 28.4716 140.652 28.1634 140.367 27.9048C140.085 27.6463 139.708 27.517 139.234 27.517C138.819 27.517 138.456 27.6264 138.145 27.8452C137.837 28.0606 137.596 28.3688 137.424 28.7699C137.252 29.1676 137.165 29.6383 137.165 30.1818C137.165 30.7386 137.25 31.2192 137.419 31.6236C137.588 32.0279 137.827 32.3411 138.135 32.5632C138.446 32.7853 138.813 32.8963 139.234 32.8963C139.515 32.8963 139.771 32.8449 139.999 32.7422C140.231 32.6361 140.425 32.4853 140.581 32.2898C140.74 32.0942 140.851 31.8589 140.914 31.5838H142.361C142.308 32.0777 142.147 32.5185 141.879 32.9062C141.61 33.294 141.25 33.599 140.8 33.821C140.352 34.0431 139.827 34.1541 139.224 34.1541ZM147.515 26.3636V27.5568H143.344V26.3636H147.515ZM144.463 24.5341H145.949V31.7578C145.949 32.0462 145.992 32.2633 146.078 32.4091C146.164 32.5516 146.276 32.6494 146.411 32.7024C146.551 32.7521 146.701 32.777 146.864 32.777C146.983 32.777 147.088 32.7687 147.177 32.7521C147.267 32.7356 147.336 32.7223 147.386 32.7124L147.654 33.9403C147.568 33.9735 147.445 34.0066 147.286 34.0398C147.127 34.0762 146.928 34.0961 146.69 34.0994C146.299 34.1061 145.934 34.0365 145.596 33.8906C145.258 33.7448 144.985 33.5194 144.776 33.2145C144.567 32.9096 144.463 32.5268 144.463 32.0661V24.5341ZM149.159 34V26.3636H150.646V34H149.159ZM149.91 25.1854C149.652 25.1854 149.43 25.0992 149.244 24.9268C149.062 24.7512 148.971 24.5424 148.971 24.3004C148.971 24.0552 149.062 23.8464 149.244 23.674C149.43 23.4983 149.652 23.4105 149.91 23.4105C150.169 23.4105 150.389 23.4983 150.571 23.674C150.757 23.8464 150.85 24.0552 150.85 24.3004C150.85 24.5424 150.757 24.7512 150.571 24.9268C150.389 25.0992 150.169 25.1854 149.91 25.1854ZM155.862 34.1541C155.146 34.1541 154.522 33.9901 153.988 33.6619C153.454 33.3338 153.04 32.8748 152.745 32.2848C152.45 31.6948 152.303 31.0054 152.303 30.2166C152.303 29.4245 152.45 28.7318 152.745 28.1385C153.04 27.5452 153.454 27.0845 153.988 26.7564C154.522 26.4283 155.146 26.2642 155.862 26.2642C156.578 26.2642 157.203 26.4283 157.737 26.7564C158.27 27.0845 158.685 27.5452 158.98 28.1385C159.275 28.7318 159.422 29.4245 159.422 30.2166C159.422 31.0054 159.275 31.6948 158.98 32.2848C158.685 32.8748 158.27 33.3338 157.737 33.6619C157.203 33.9901 156.578 34.1541 155.862 34.1541ZM155.867 32.9062C156.331 32.9062 156.716 32.7836 157.021 32.5384C157.326 32.2931 157.551 31.9666 157.697 31.5589C157.846 31.1513 157.921 30.7022 157.921 30.2116C157.921 29.7244 157.846 29.277 157.697 28.8693C157.551 28.4583 157.326 28.1286 157.021 27.88C156.716 27.6314 156.331 27.5071 155.867 27.5071C155.4 27.5071 155.012 27.6314 154.704 27.88C154.399 28.1286 154.172 28.4583 154.023 28.8693C153.877 29.277 153.804 29.7244 153.804 30.2116C153.804 30.7022 153.877 31.1513 154.023 31.5589C154.172 31.9666 154.399 32.2931 154.704 32.5384C155.012 32.7836 155.4 32.9062 155.867 32.9062ZM162.568 29.4659V34H161.081V26.3636H162.508V27.6065H162.603C162.778 27.2022 163.053 26.8774 163.428 26.6321C163.806 26.3868 164.281 26.2642 164.855 26.2642C165.375 26.2642 165.831 26.3736 166.222 26.5923C166.613 26.8078 166.916 27.1293 167.132 27.5568C167.347 27.9844 167.455 28.513 167.455 29.1428V34H165.968V29.3217C165.968 28.7682 165.824 28.3357 165.536 28.0241C165.248 27.7093 164.851 27.5518 164.348 27.5518C164.003 27.5518 163.696 27.6264 163.428 27.7756C163.163 27.9247 162.952 28.1435 162.797 28.4318C162.644 28.7169 162.568 29.0616 162.568 29.4659Z" fill="white"/>
<path d="M21.5511 66V63.7159L27.6108 57.7756C28.1903 57.1903 28.6733 56.6705 29.0597 56.2159C29.446 55.7614 29.7358 55.321 29.929 54.8949C30.1222 54.4687 30.2188 54.0142 30.2188 53.5312C30.2188 52.9801 30.0938 52.5085 29.8438 52.1165C29.5938 51.7188 29.25 51.4119 28.8125 51.196C28.375 50.9801 27.8778 50.8722 27.321 50.8722C26.7472 50.8722 26.2443 50.9915 25.8125 51.2301C25.3807 51.4631 25.0455 51.7955 24.8068 52.2273C24.5739 52.6591 24.4574 53.1733 24.4574 53.7699H21.4489C21.4489 52.6619 21.7017 51.6989 22.2074 50.8807C22.7131 50.0625 23.4091 49.429 24.2955 48.9801C25.1875 48.5312 26.2102 48.3068 27.3636 48.3068C28.5341 48.3068 29.5625 48.5256 30.4489 48.9631C31.3352 49.4006 32.0227 50 32.5114 50.7614C33.0057 51.5227 33.2528 52.392 33.2528 53.3693C33.2528 54.0227 33.1278 54.6648 32.8778 55.2955C32.6278 55.9261 32.1875 56.625 31.5568 57.392C30.9318 58.1591 30.054 59.0881 28.9233 60.179L25.9148 63.2386V63.358H33.517V66H21.5511ZM43.5568 48.5455V66H40.3949V51.6222H40.2926L36.2102 54.2301V51.3324L40.5483 48.5455H43.5568ZM47.6733 62.7614V60.2472L55.0795 48.5455H57.1761V52.125H55.8977L50.9119 60.0256V60.1619H61.25V62.7614H47.6733ZM56 66V61.9943L56.0341 60.8693V48.5455H59.017V66H56ZM70.0412 66.2386C68.9048 66.2386 67.8878 66.0256 66.9901 65.5994C66.0923 65.1676 65.3793 64.5767 64.8509 63.8267C64.3281 63.0767 64.0497 62.2187 64.0156 61.2528H67.0838C67.1406 61.9687 67.4503 62.554 68.0128 63.0085C68.5753 63.4574 69.2514 63.6818 70.0412 63.6818C70.6605 63.6818 71.2116 63.5398 71.6946 63.2557C72.1776 62.9716 72.5582 62.5767 72.8366 62.071C73.1151 61.5653 73.2514 60.9886 73.2457 60.3409C73.2514 59.6818 73.1122 59.0966 72.8281 58.5852C72.544 58.0739 72.1548 57.6733 71.6605 57.3835C71.1662 57.0881 70.598 56.9403 69.956 56.9403C69.4332 56.9347 68.919 57.0312 68.4134 57.2301C67.9077 57.429 67.5071 57.6903 67.2116 58.0142L64.3565 57.5455L65.2685 48.5455H75.3935V51.1875H67.8849L67.3821 55.8153H67.4844C67.8082 55.4347 68.2656 55.1193 68.8565 54.8693C69.4474 54.6136 70.0952 54.4858 70.7997 54.4858C71.8565 54.4858 72.7997 54.7358 73.6293 55.2358C74.4588 55.7301 75.1122 56.4119 75.5895 57.2812C76.0668 58.1506 76.3054 59.1449 76.3054 60.2642C76.3054 61.4176 76.0384 62.446 75.5043 63.3494C74.9759 64.2472 74.2401 64.9545 73.2969 65.4716C72.3594 65.983 71.2741 66.2386 70.0412 66.2386Z" fill="white"/>
<circle cx="29" cy="86" r="9" fill="white" fill-opacity="0.3"/>
<path d="M32.9427 83.8554C32.8854 83.7149 32.7708 83.5992 32.6316 83.5413C32.5661 83.5165 32.4925 83.5 32.4188 83.5H30.8961C30.5769 83.5 30.3231 83.7562 30.3231 84.0785C30.3231 84.4008 30.5769 84.657 30.8961 84.657H31.0435L29.3162 86.4008L28.4812 85.1446C28.383 85.0041 28.2356 84.905 28.0637 84.8884C27.8836 84.8719 27.7281 84.9298 27.6053 85.0537L25.1658 87.5165C24.9447 87.7397 24.9447 88.1033 25.1658 88.3347C25.2804 88.4504 25.4195 88.5 25.5669 88.5C25.7142 88.5 25.8616 88.4421 25.968 88.3347L27.9163 86.3678L28.7513 87.624C28.8496 87.7645 28.9969 87.8636 29.1688 87.8802C29.3489 87.8967 29.5045 87.8388 29.6273 87.7149L31.8539 85.4669V85.6157C31.8539 85.938 32.1077 86.1942 32.427 86.1942C32.7462 86.1942 33 85.938 33 85.6157V84.0702C32.9836 83.9959 32.9754 83.9215 32.9427 83.8554Z" fill="white"/>
<path d="M46.4773 88.9659V83.3409H47.4318V88.9659H46.4773ZM44.142 86.6307V85.6761H49.767V86.6307H44.142ZM54.8817 81.7727V90.5H53.8249V82.8807H53.7738L51.6431 84.2955V83.2216L53.8249 81.7727H54.8817ZM61.8406 88.8636V88.4034C61.8406 88.0852 61.9059 87.794 62.0366 87.5298C62.1701 87.2628 62.3633 87.0497 62.6161 86.8906C62.8718 86.7287 63.1815 86.6477 63.5451 86.6477C63.9144 86.6477 64.2241 86.7287 64.4741 86.8906C64.7241 87.0497 64.913 87.2628 65.0408 87.5298C65.1687 87.794 65.2326 88.0852 65.2326 88.4034V88.8636C65.2326 89.1818 65.1673 89.4744 65.0366 89.7415C64.9087 90.0057 64.7184 90.2187 64.4656 90.3807C64.2156 90.5398 63.9087 90.6193 63.5451 90.6193C63.1758 90.6193 62.8647 90.5398 62.6119 90.3807C62.359 90.2187 62.1673 90.0057 62.0366 89.7415C61.9059 89.4744 61.8406 89.1818 61.8406 88.8636ZM62.7099 88.4034V88.8636C62.7099 89.1278 62.7724 89.3651 62.8974 89.5753C63.0224 89.7827 63.2383 89.8864 63.5451 89.8864C63.8434 89.8864 64.0536 89.7827 64.1758 89.5753C64.3008 89.3651 64.3633 89.1278 64.3633 88.8636V88.4034C64.3633 88.1392 64.3036 87.9034 64.1843 87.696C64.065 87.4858 63.8519 87.3807 63.5451 87.3807C63.2468 87.3807 63.0323 87.4858 62.9016 87.696C62.7738 87.9034 62.7099 88.1392 62.7099 88.4034ZM57.494 83.8693V83.4091C57.494 83.0909 57.5593 82.7997 57.69 82.5355C57.8235 82.2685 58.0167 82.0554 58.2695 81.8963C58.5252 81.7344 58.8349 81.6534 59.1985 81.6534C59.5678 81.6534 59.8775 81.7344 60.1275 81.8963C60.3775 82.0554 60.5664 82.2685 60.6942 82.5355C60.8221 82.7997 60.886 83.0909 60.886 83.4091V83.8693C60.886 84.1875 60.8207 84.4801 60.69 84.7472C60.5621 85.0114 60.3718 85.2244 60.119 85.3864C59.869 85.5455 59.5621 85.625 59.1985 85.625C58.8292 85.625 58.5181 85.5455 58.2653 85.3864C58.0124 85.2244 57.8207 85.0114 57.69 84.7472C57.5593 84.4801 57.494 84.1875 57.494 83.8693ZM58.3633 83.4091V83.8693C58.3633 84.1335 58.4258 84.3707 58.5508 84.581C58.6758 84.7884 58.8917 84.892 59.1985 84.892C59.4968 84.892 59.707 84.7884 59.8292 84.581C59.9542 84.3707 60.0167 84.1335 60.0167 83.8693V83.4091C60.0167 83.1449 59.957 82.9091 59.8377 82.7017C59.7184 82.4915 59.5053 82.3864 59.1985 82.3864C58.9002 82.3864 58.6857 82.4915 58.555 82.7017C58.4272 82.9091 58.3633 83.1449 58.3633 83.4091ZM57.8178 90.5L63.8178 81.7727H64.7894L58.7894 90.5H57.8178ZM71.7269 81.7727V90.5H70.6701V81.7727H71.7269ZM74.7152 86.5625V90.5H73.7095V83.9545H74.6811V84.9773H74.7663C74.9197 84.6449 75.1527 84.3778 75.4652 84.1761C75.7777 83.9716 76.1811 83.8693 76.6754 83.8693C77.1186 83.8693 77.5064 83.9602 77.8388 84.142C78.1712 84.321 78.4297 84.5938 78.6143 84.9602C78.799 85.3239 78.8913 85.7841 78.8913 86.3409V90.5H77.8857V86.4091C77.8857 85.8949 77.7521 85.4943 77.4851 85.2074C77.218 84.9176 76.8516 84.7727 76.3857 84.7727C76.0646 84.7727 75.7777 84.8423 75.5249 84.9815C75.2749 85.1207 75.0774 85.3239 74.9325 85.5909C74.7876 85.858 74.7152 86.1818 74.7152 86.5625ZM83.3881 90.6364C82.7745 90.6364 82.2461 90.4915 81.8029 90.2017C81.3597 89.9119 81.0188 89.5128 80.7802 89.0043C80.5415 88.4957 80.4222 87.9148 80.4222 87.2614C80.4222 86.5966 80.5444 86.0099 80.7887 85.5014C81.0359 84.9901 81.3796 84.5909 81.82 84.304C82.2631 84.0142 82.7802 83.8693 83.3711 83.8693C83.8313 83.8693 84.2461 83.9545 84.6154 84.125C84.9847 84.2955 85.2873 84.5341 85.5231 84.8409C85.7589 85.1477 85.9052 85.5057 85.962 85.9148H84.9563C84.8796 85.6165 84.7092 85.3523 84.445 85.1222C84.1836 84.8892 83.8313 84.7727 83.3881 84.7727C82.9961 84.7727 82.6523 84.875 82.3569 85.0795C82.0643 85.2812 81.8356 85.5668 81.6708 85.9361C81.5089 86.3026 81.4279 86.733 81.4279 87.2273C81.4279 87.733 81.5075 88.1733 81.6665 88.5483C81.8285 88.9233 82.0558 89.2145 82.3484 89.4219C82.6438 89.6293 82.9904 89.733 83.3881 89.733C83.6495 89.733 83.8867 89.6875 84.0998 89.5966C84.3129 89.5057 84.4933 89.375 84.641 89.2045C84.7887 89.0341 84.8938 88.8295 84.9563 88.5909H85.962C85.9052 88.9773 85.7646 89.3253 85.5401 89.6349C85.3185 89.9418 85.0245 90.1861 84.658 90.3679C84.2944 90.5469 83.8711 90.6364 83.3881 90.6364Z" fill="white"/>
<circle cx="211" cy="57.4999" r="28.9999" stroke="white" stroke-opacity="0.3" stroke-width="6"/>
<path d="M219.195 29.6914C223.883 31.0786 228.145 33.6289 231.584 37.1052C235.023 40.5814 237.527 44.8708 238.863 49.5744C240.2 54.278 240.325 59.2431 239.228 64.0082C238.13 68.7732 235.846 73.1834 232.587 76.8287C229.328 80.4739 225.2 83.236 220.587 84.8579C215.974 86.4799 211.026 86.9091 206.202 86.1056C201.379 85.3022 196.837 83.2922 192.999 80.2625C189.161 77.2328 186.151 73.2818 184.25 68.7769" stroke="white" stroke-width="6" stroke-linecap="round"/>
<path d="M185.981 72.1289C183.431 68.2888 181.583 60.0774 182 55.4999C182.51 49.909 184.763 44.5519 187.5 40.4999" stroke="white" stroke-width="6" stroke-linecap="round"/>
<path d="M198.817 65.179C197.866 65.179 197.023 65.0192 196.286 64.6996C195.553 64.38 194.977 63.9432 194.56 63.3892C194.146 62.831 193.942 62.1982 193.946 61.4908C193.942 60.9411 194.061 60.4361 194.304 59.9759C194.547 59.5156 194.875 59.1321 195.288 58.8253C195.706 58.5142 196.17 58.3161 196.682 58.2308V58.1413C196.009 57.9922 195.463 57.6491 195.045 57.1122C194.632 56.571 194.428 55.9467 194.432 55.2393C194.428 54.5661 194.615 53.9652 194.994 53.4368C195.374 52.9084 195.893 52.4929 196.554 52.1903C197.214 51.8835 197.969 51.7301 198.817 51.7301C199.656 51.7301 200.404 51.8835 201.06 52.1903C201.721 52.4929 202.241 52.9084 202.62 53.4368C203.004 53.9652 203.195 54.5661 203.195 55.2393C203.195 55.9467 202.984 56.571 202.562 57.1122C202.145 57.6491 201.606 57.9922 200.945 58.1413V58.2308C201.457 58.3161 201.917 58.5142 202.326 58.8253C202.739 59.1321 203.067 59.5156 203.31 59.9759C203.558 60.4361 203.681 60.9411 203.681 61.4908C203.681 62.1982 203.472 62.831 203.055 63.3892C202.637 63.9432 202.062 64.38 201.329 64.6996C200.6 65.0192 199.763 65.179 198.817 65.179ZM198.817 63.3509C199.307 63.3509 199.733 63.2678 200.095 63.1016C200.457 62.9311 200.739 62.6925 200.939 62.3857C201.139 62.0788 201.241 61.7251 201.246 61.3246C201.241 60.907 201.133 60.5384 200.92 60.2188C200.711 59.8949 200.423 59.6413 200.057 59.4581C199.695 59.2749 199.281 59.1832 198.817 59.1832C198.348 59.1832 197.93 59.2749 197.564 59.4581C197.197 59.6413 196.908 59.8949 196.695 60.2188C196.486 60.5384 196.384 60.907 196.388 61.3246C196.384 61.7251 196.482 62.0788 196.682 62.3857C196.882 62.6882 197.163 62.9247 197.526 63.0952C197.892 63.2656 198.322 63.3509 198.817 63.3509ZM198.817 57.3871C199.217 57.3871 199.571 57.3061 199.878 57.1442C200.189 56.9822 200.434 56.7564 200.613 56.4666C200.792 56.1768 200.884 55.8423 200.888 55.4631C200.884 55.0881 200.794 54.7599 200.619 54.4787C200.445 54.1932 200.202 53.9737 199.891 53.8203C199.58 53.6626 199.222 53.5838 198.817 53.5838C198.403 53.5838 198.039 53.6626 197.724 53.8203C197.413 53.9737 197.17 54.1932 196.995 54.4787C196.825 54.7599 196.741 55.0881 196.746 55.4631C196.741 55.8423 196.827 56.1768 197.001 56.4666C197.18 56.7521 197.425 56.978 197.737 57.1442C198.052 57.3061 198.412 57.3871 198.817 57.3871ZM205.782 65V63.2869L210.327 58.8317C210.762 58.3928 211.124 58.0028 211.414 57.6619C211.704 57.321 211.921 56.9908 212.066 56.6712C212.211 56.3516 212.283 56.0107 212.283 55.6484C212.283 55.2351 212.189 54.8814 212.002 54.5874C211.814 54.2891 211.557 54.0589 211.229 53.897C210.9 53.7351 210.528 53.6541 210.11 53.6541C209.68 53.6541 209.302 53.7436 208.979 53.9226C208.655 54.0973 208.403 54.3466 208.224 54.6705C208.05 54.9943 207.962 55.38 207.962 55.8274H205.706C205.706 54.9964 205.895 54.2741 206.275 53.6605C206.654 53.0469 207.176 52.5717 207.841 52.2351C208.51 51.8984 209.277 51.7301 210.142 51.7301C211.02 51.7301 211.791 51.8942 212.456 52.2223C213.121 52.5504 213.636 53 214.003 53.571C214.373 54.142 214.559 54.794 214.559 55.527C214.559 56.017 214.465 56.4986 214.278 56.9716C214.09 57.4446 213.76 57.9687 213.287 58.544C212.818 59.1193 212.16 59.8161 211.312 60.6342L209.055 62.929V63.0185H214.757V65H205.782ZM222.601 62.9545V62.3793C222.601 61.9567 222.69 61.5678 222.867 61.2127C223.048 60.8576 223.311 60.5717 223.656 60.3551C224 60.1385 224.417 60.0302 224.907 60.0302C225.412 60.0302 225.834 60.1385 226.175 60.3551C226.516 60.5682 226.774 60.8523 226.948 61.2074C227.125 61.5625 227.214 61.9531 227.214 62.3793V62.9545C227.214 63.3771 227.125 63.766 226.948 64.1211C226.77 64.4762 226.509 64.7621 226.165 64.9787C225.824 65.1953 225.405 65.3036 224.907 65.3036C224.41 65.3036 223.99 65.1953 223.645 64.9787C223.301 64.7621 223.04 64.4762 222.862 64.1211C222.688 63.766 222.601 63.3771 222.601 62.9545ZM223.991 62.3793V62.9545C223.991 63.2351 224.059 63.4925 224.194 63.7269C224.329 63.9613 224.567 64.0785 224.907 64.0785C225.252 64.0785 225.488 63.9631 225.616 63.7322C225.747 63.4979 225.813 63.2386 225.813 62.9545V62.3793C225.813 62.0952 225.751 61.8359 225.627 61.6016C225.502 61.3636 225.263 61.2447 224.907 61.2447C224.574 61.2447 224.338 61.3636 224.199 61.6016C224.061 61.8359 223.991 62.0952 223.991 62.3793ZM217.056 56.7116V56.1364C217.056 55.7102 217.146 55.3196 217.328 54.9645C217.509 54.6094 217.771 54.3253 218.116 54.1122C218.46 53.8956 218.878 53.7873 219.368 53.7873C219.868 53.7873 220.289 53.8956 220.63 54.1122C220.975 54.3253 221.234 54.6094 221.408 54.9645C221.582 55.3196 221.669 55.7102 221.669 56.1364V56.7116C221.669 57.1378 221.58 57.5284 221.403 57.8835C221.229 58.2351 220.969 58.5174 220.625 58.7305C220.28 58.9435 219.861 59.0501 219.368 59.0501C218.867 59.0501 218.444 58.9435 218.1 58.7305C217.759 58.5174 217.5 58.2333 217.322 57.8782C217.145 57.5231 217.056 57.1342 217.056 56.7116ZM218.457 56.1364V56.7116C218.457 56.9957 218.523 57.255 218.654 57.4893C218.789 57.7202 219.027 57.8356 219.368 57.8356C219.709 57.8356 219.943 57.7202 220.071 57.4893C220.202 57.255 220.268 56.9957 220.268 56.7116V56.1364C220.268 55.8523 220.206 55.593 220.081 55.3587C219.957 55.1207 219.719 55.0018 219.368 55.0018C219.03 55.0018 218.794 55.1207 218.659 55.3587C218.524 55.5966 218.457 55.8558 218.457 56.1364ZM217.663 65L225.163 54.0909H226.495L218.995 65H217.663Z" fill="white"/>
<defs>
<linearGradient id="paint0_linear_3752_40319" x1="-396.084" y1="-278.46" x2="275.107" y2="-175.159" gradientUnits="userSpaceOnUse">
<stop stop-color="#B2A4FF"/>
<stop offset="1" stop-color="#684EF2"/>
</linearGradient>
</defs>
</svg>
