<svg width="263" height="119" viewBox="0 0 263 119" fill="none" xmlns="http://www.w3.org/2000/svg">
<rect width="263" height="119" rx="10" fill="url(#paint0_linear_3752_40272)"/>
<path d="M29.9631 28.9091C29.9631 29.9962 29.7642 30.9309 29.3665 31.7131C28.9688 32.492 28.4235 33.0919 27.7308 33.5128C27.0414 33.9304 26.2576 34.1392 25.3793 34.1392C24.4976 34.1392 23.7105 33.9304 23.0178 33.5128C22.3284 33.0919 21.7848 32.4903 21.3871 31.7081C20.9893 30.9259 20.7905 29.9929 20.7905 28.9091C20.7905 27.822 20.9893 26.889 21.3871 26.1101C21.7848 25.3279 22.3284 24.728 23.0178 24.3104C23.7105 23.8894 24.4976 23.679 25.3793 23.679C26.2576 23.679 27.0414 23.8894 27.7308 24.3104C28.4235 24.728 28.9688 25.3279 29.3665 26.1101C29.7642 26.889 29.9631 27.822 29.9631 28.9091ZM28.4418 28.9091C28.4418 28.0805 28.3075 27.3828 28.0391 26.8161C27.7739 26.246 27.4093 25.8151 26.9453 25.5234C26.4846 25.2285 25.9626 25.081 25.3793 25.081C24.7926 25.081 24.2689 25.2285 23.8082 25.5234C23.3475 25.8151 22.983 26.246 22.7145 26.8161C22.4493 27.3828 22.3168 28.0805 22.3168 28.9091C22.3168 29.7377 22.4493 30.437 22.7145 31.0071C22.983 31.5739 23.3475 32.0047 23.8082 32.2997C24.2689 32.5914 24.7926 32.7372 25.3793 32.7372C25.9626 32.7372 26.4846 32.5914 26.9453 32.2997C27.4093 32.0047 27.7739 31.5739 28.0391 31.0071C28.3075 30.437 28.4418 29.7377 28.4418 28.9091ZM38.2917 26.3636L35.5225 34H33.9316L31.1575 26.3636H32.7534L34.6873 32.2401H34.7669L36.6958 26.3636H38.2917ZM42.7202 34.1541C41.9678 34.1541 41.3198 33.9934 40.7763 33.6719C40.236 33.3471 39.8184 32.8913 39.5234 32.3047C39.2318 31.7147 39.0859 31.0237 39.0859 30.2315C39.0859 29.4493 39.2318 28.7599 39.5234 28.1634C39.8184 27.5668 40.2294 27.1011 40.7564 26.7663C41.2867 26.4316 41.9065 26.2642 42.6158 26.2642C43.0466 26.2642 43.4643 26.3355 43.8686 26.478C44.273 26.6205 44.6359 26.8442 44.9574 27.1491C45.2789 27.4541 45.5324 27.8501 45.718 28.3374C45.9036 28.8213 45.9964 29.4096 45.9964 30.1023V30.6293H39.9261V29.5156H44.5398C44.5398 29.1245 44.4602 28.7782 44.3011 28.4766C44.142 28.1716 43.9183 27.9313 43.63 27.7557C43.3449 27.58 43.0102 27.4922 42.6257 27.4922C42.2081 27.4922 41.8435 27.5949 41.532 27.8004C41.2237 28.0026 40.9851 28.2678 40.8161 28.5959C40.6503 28.9207 40.5675 29.2737 40.5675 29.6548V30.5249C40.5675 31.0353 40.657 31.4695 40.8359 31.8274C41.0182 32.1854 41.2718 32.4588 41.5966 32.6477C41.9214 32.8333 42.3009 32.9261 42.7351 32.9261C43.0168 32.9261 43.2737 32.8864 43.5057 32.8068C43.7377 32.724 43.9382 32.6013 44.1072 32.4389C44.2763 32.2765 44.4055 32.076 44.495 31.8374L45.902 32.0909C45.7893 32.5052 45.5871 32.8681 45.2955 33.1797C45.0071 33.4879 44.6442 33.7282 44.2067 33.9006C43.7725 34.0696 43.277 34.1541 42.7202 34.1541ZM47.6458 34V26.3636H49.0826V27.5767H49.1621C49.3013 27.1657 49.5466 26.8426 49.8979 26.6072C50.2525 26.3686 50.6536 26.2493 51.101 26.2493C51.1938 26.2493 51.3032 26.2526 51.4292 26.2592C51.5584 26.2659 51.6595 26.2741 51.7324 26.2841V27.706C51.6728 27.6894 51.5667 27.6712 51.4142 27.6513C51.2618 27.6281 51.1093 27.6165 50.9569 27.6165C50.6055 27.6165 50.2923 27.6911 50.0172 27.8402C49.7454 27.986 49.53 28.1899 49.3709 28.4517C49.2118 28.7102 49.1323 29.0052 49.1323 29.3366V34H47.6458ZM57.0346 26.3636V27.5568H52.8635V26.3636H57.0346ZM53.9821 24.5341H55.4686V31.7578C55.4686 32.0462 55.5117 32.2633 55.5978 32.4091C55.684 32.5516 55.795 32.6494 55.9309 32.7024C56.0701 32.7521 56.2209 32.777 56.3833 32.777C56.5027 32.777 56.6071 32.7687 56.6966 32.7521C56.786 32.7356 56.8556 32.7223 56.9054 32.7124L57.1738 33.9403C57.0877 33.9735 56.965 34.0066 56.8059 34.0398C56.6468 34.0762 56.448 34.0961 56.2093 34.0994C55.8182 34.1061 55.4537 34.0365 55.1156 33.8906C54.7775 33.7448 54.5041 33.5194 54.2953 33.2145C54.0865 32.9096 53.9821 32.5268 53.9821 32.0661V24.5341ZM58.679 34V26.3636H60.1655V34H58.679ZM59.4297 25.1854C59.1712 25.1854 58.9491 25.0992 58.7635 24.9268C58.5812 24.7512 58.4901 24.5424 58.4901 24.3004C58.4901 24.0552 58.5812 23.8464 58.7635 23.674C58.9491 23.4983 59.1712 23.4105 59.4297 23.4105C59.6882 23.4105 59.9086 23.4983 60.0909 23.674C60.2765 23.8464 60.3693 24.0552 60.3693 24.3004C60.3693 24.5424 60.2765 24.7512 60.0909 24.9268C59.9086 25.0992 59.6882 25.1854 59.4297 25.1854ZM62.1653 34V26.3636H63.5922V27.6065H63.6866C63.8457 27.1856 64.1059 26.8575 64.4672 26.6222C64.8284 26.3835 65.2609 26.2642 65.7647 26.2642C66.2752 26.2642 66.7027 26.3835 67.0474 26.6222C67.3954 26.8608 67.6523 27.1889 67.818 27.6065H67.8975C68.0798 27.1989 68.3699 26.8741 68.7676 26.6321C69.1653 26.3868 69.6393 26.2642 70.1895 26.2642C70.8822 26.2642 71.4473 26.4813 71.8848 26.9155C72.3256 27.3497 72.546 28.0043 72.546 28.8793V34H71.0595V29.0185C71.0595 28.5014 70.9186 28.1269 70.6369 27.8949C70.3552 27.6629 70.0188 27.5469 69.6277 27.5469C69.1438 27.5469 68.7676 27.696 68.4991 27.9943C68.2306 28.2893 68.0964 28.6688 68.0964 29.1328V34H66.6149V28.924C66.6149 28.5097 66.4856 28.1766 66.2271 27.9247C65.9686 27.6728 65.6322 27.5469 65.2179 27.5469C64.9361 27.5469 64.676 27.6214 64.4373 27.7706C64.202 27.9164 64.0114 28.1203 63.8656 28.3821C63.7231 28.6439 63.6518 28.9472 63.6518 29.2919V34H62.1653ZM77.8295 34.1541C77.0772 34.1541 76.4292 33.9934 75.8857 33.6719C75.3454 33.3471 74.9278 32.8913 74.6328 32.3047C74.3411 31.7147 74.1953 31.0237 74.1953 30.2315C74.1953 29.4493 74.3411 28.7599 74.6328 28.1634C74.9278 27.5668 75.3388 27.1011 75.8658 26.7663C76.3961 26.4316 77.0159 26.2642 77.7251 26.2642C78.156 26.2642 78.5736 26.3355 78.978 26.478C79.3823 26.6205 79.7453 26.8442 80.0668 27.1491C80.3883 27.4541 80.6418 27.8501 80.8274 28.3374C81.013 28.8213 81.1058 29.4096 81.1058 30.1023V30.6293H75.0355V29.5156H79.6491C79.6491 29.1245 79.5696 28.7782 79.4105 28.4766C79.2514 28.1716 79.0277 27.9313 78.7393 27.7557C78.4543 27.58 78.1196 27.4922 77.7351 27.4922C77.3175 27.4922 76.9529 27.5949 76.6413 27.8004C76.3331 28.0026 76.0945 28.2678 75.9254 28.5959C75.7597 28.9207 75.6768 29.2737 75.6768 29.6548V30.5249C75.6768 31.0353 75.7663 31.4695 75.9453 31.8274C76.1276 32.1854 76.3812 32.4588 76.706 32.6477C77.0308 32.8333 77.4103 32.9261 77.8445 32.9261C78.1262 32.9261 78.383 32.8864 78.6151 32.8068C78.8471 32.724 79.0476 32.6013 79.2166 32.4389C79.3857 32.2765 79.5149 32.076 79.6044 31.8374L81.0114 32.0909C80.8987 32.5052 80.6965 32.8681 80.4048 33.1797C80.1165 33.4879 79.7536 33.7282 79.3161 33.9006C78.8819 34.0696 78.3864 34.1541 77.8295 34.1541ZM86.5795 34V23.8182H88.1158V28.2429H93.1918V23.8182H94.733V34H93.1918V29.5604H88.1158V34H86.5795ZM100.067 34.1541C99.3516 34.1541 98.7268 33.9901 98.1932 33.6619C97.6596 33.3338 97.2453 32.8748 96.9503 32.2848C96.6553 31.6948 96.5078 31.0054 96.5078 30.2166C96.5078 29.4245 96.6553 28.7318 96.9503 28.1385C97.2453 27.5452 97.6596 27.0845 98.1932 26.7564C98.7268 26.4283 99.3516 26.2642 100.067 26.2642C100.783 26.2642 101.408 26.4283 101.942 26.7564C102.475 27.0845 102.89 27.5452 103.185 28.1385C103.48 28.7318 103.627 29.4245 103.627 30.2166C103.627 31.0054 103.48 31.6948 103.185 32.2848C102.89 32.8748 102.475 33.3338 101.942 33.6619C101.408 33.9901 100.783 34.1541 100.067 34.1541ZM100.072 32.9062C100.536 32.9062 100.921 32.7836 101.226 32.5384C101.531 32.2931 101.756 31.9666 101.902 31.5589C102.051 31.1513 102.126 30.7022 102.126 30.2116C102.126 29.7244 102.051 29.277 101.902 28.8693C101.756 28.4583 101.531 28.1286 101.226 27.88C100.921 27.6314 100.536 27.5071 100.072 27.5071C99.6051 27.5071 99.2173 27.6314 98.9091 27.88C98.6042 28.1286 98.3771 28.4583 98.228 28.8693C98.0821 29.277 98.0092 29.7244 98.0092 30.2116C98.0092 30.7022 98.0821 31.1513 98.228 31.5589C98.3771 31.9666 98.6042 32.2931 98.9091 32.5384C99.2173 32.7836 99.6051 32.9062 100.072 32.9062ZM110.124 30.8331V26.3636H111.615V34H110.154V32.6776H110.074C109.898 33.0852 109.617 33.425 109.229 33.6967C108.844 33.9652 108.365 34.0994 107.792 34.0994C107.302 34.0994 106.867 33.9917 106.49 33.7763C106.115 33.5575 105.82 33.2344 105.605 32.8068C105.392 32.3793 105.286 31.8506 105.286 31.2209V26.3636H106.773V31.0419C106.773 31.5623 106.917 31.9766 107.205 32.2848C107.494 32.593 107.868 32.7472 108.329 32.7472C108.607 32.7472 108.884 32.6776 109.159 32.5384C109.438 32.3991 109.668 32.1887 109.85 31.907C110.036 31.6252 110.127 31.2673 110.124 30.8331ZM113.613 34V26.3636H115.049V27.5767H115.129C115.268 27.1657 115.513 26.8426 115.865 26.6072C116.219 26.3686 116.62 26.2493 117.068 26.2493C117.161 26.2493 117.27 26.2526 117.396 26.2592C117.525 26.2659 117.626 26.2741 117.699 26.2841V27.706C117.64 27.6894 117.533 27.6712 117.381 27.6513C117.229 27.6281 117.076 27.6165 116.924 27.6165C116.572 27.6165 116.259 27.6911 115.984 27.8402C115.712 27.986 115.497 28.1899 115.338 28.4517C115.179 28.7102 115.099 29.0052 115.099 29.3366V34H113.613ZM124.708 28.228L123.361 28.4666C123.304 28.2943 123.215 28.1302 123.092 27.9744C122.973 27.8187 122.81 27.6911 122.605 27.5916C122.399 27.4922 122.143 27.4425 121.834 27.4425C121.413 27.4425 121.062 27.5369 120.78 27.7259C120.499 27.9115 120.358 28.1518 120.358 28.4467C120.358 28.7019 120.452 28.9074 120.641 29.0632C120.83 29.219 121.135 29.3466 121.556 29.446L122.769 29.7244C123.472 29.8868 123.995 30.1371 124.34 30.4751C124.685 30.8132 124.857 31.2524 124.857 31.7926C124.857 32.25 124.724 32.6577 124.459 33.0156C124.198 33.3703 123.831 33.6487 123.361 33.8509C122.893 34.053 122.351 34.1541 121.735 34.1541C120.88 34.1541 120.182 33.9718 119.642 33.6072C119.102 33.2393 118.77 32.7173 118.648 32.0412L120.084 31.8224C120.174 32.197 120.358 32.4804 120.636 32.6726C120.915 32.8615 121.278 32.956 121.725 32.956C122.212 32.956 122.602 32.8549 122.893 32.6527C123.185 32.4472 123.331 32.197 123.331 31.902C123.331 31.6634 123.241 31.4628 123.062 31.3004C122.887 31.138 122.617 31.0154 122.252 30.9325L120.959 30.6491C120.247 30.4867 119.72 30.2282 119.378 29.8736C119.04 29.5189 118.871 29.0698 118.871 28.5263C118.871 28.0755 118.997 27.6811 119.249 27.343C119.501 27.005 119.849 26.7415 120.293 26.5526C120.737 26.3603 121.246 26.2642 121.819 26.2642C122.645 26.2642 123.294 26.4432 123.768 26.8011C124.242 27.1558 124.555 27.6314 124.708 28.228ZM130.316 34V23.8182H133.945C134.734 23.8182 135.389 23.9541 135.909 24.2259C136.433 24.4976 136.824 24.8738 137.082 25.3544C137.341 25.8317 137.47 26.3835 137.47 27.0099C137.47 27.633 137.339 28.1816 137.077 28.6555C136.819 29.1262 136.428 29.4924 135.904 29.7543C135.384 30.0161 134.729 30.147 133.94 30.147H131.191V28.8246H133.801C134.298 28.8246 134.702 28.7533 135.014 28.6108C135.329 28.4683 135.559 28.2611 135.705 27.9893C135.851 27.7176 135.924 27.3911 135.924 27.0099C135.924 26.6255 135.849 26.2924 135.7 26.0107C135.554 25.7289 135.324 25.5135 135.009 25.3643C134.698 25.2119 134.288 25.1357 133.781 25.1357H131.852V34H130.316ZM135.342 29.4062L137.858 34H136.108L133.642 29.4062H135.342ZM141.442 34.169C140.958 34.169 140.521 34.0795 140.13 33.9006C139.739 33.7183 139.429 33.4548 139.2 33.1101C138.975 32.7654 138.862 32.3428 138.862 31.8423C138.862 31.4115 138.945 31.0568 139.111 30.7784C139.276 30.5 139.5 30.2796 139.782 30.1172C140.064 29.9548 140.378 29.8321 140.726 29.7493C141.074 29.6664 141.429 29.6035 141.79 29.5604C142.248 29.5073 142.619 29.4643 142.904 29.4311C143.189 29.3946 143.396 29.3366 143.525 29.2571C143.655 29.1776 143.719 29.0483 143.719 28.8693V28.8345C143.719 28.4003 143.597 28.0639 143.351 27.8253C143.109 27.5866 142.748 27.4673 142.268 27.4673C141.767 27.4673 141.373 27.5784 141.084 27.8004C140.799 28.0192 140.602 28.2628 140.493 28.5312L139.096 28.2131C139.261 27.7491 139.503 27.3745 139.822 27.0895C140.143 26.8011 140.513 26.5923 140.93 26.4631C141.348 26.3305 141.787 26.2642 142.248 26.2642C142.553 26.2642 142.876 26.3007 143.217 26.3736C143.562 26.4432 143.883 26.5724 144.182 26.7614C144.483 26.9503 144.73 27.2204 144.922 27.5717C145.115 27.9197 145.211 28.3722 145.211 28.929V34H143.759V32.956H143.699C143.603 33.1482 143.459 33.3371 143.267 33.5227C143.075 33.7083 142.828 33.8625 142.526 33.9851C142.224 34.1077 141.863 34.169 141.442 34.169ZM141.765 32.9759C142.176 32.9759 142.528 32.8946 142.819 32.7322C143.114 32.5698 143.338 32.3577 143.491 32.0959C143.646 31.8307 143.724 31.5473 143.724 31.2457V30.2614C143.671 30.3144 143.568 30.3641 143.416 30.4105C143.267 30.4536 143.096 30.4917 142.904 30.5249C142.712 30.5547 142.524 30.5829 142.342 30.6094C142.16 30.6326 142.007 30.6525 141.885 30.669C141.596 30.7055 141.333 30.7668 141.094 30.853C140.859 30.9392 140.67 31.0634 140.528 31.2259C140.388 31.3849 140.319 31.5971 140.319 31.8622C140.319 32.2301 140.455 32.5085 140.726 32.6974C140.998 32.883 141.345 32.9759 141.765 32.9759ZM150.755 26.3636V27.5568H146.584V26.3636H150.755ZM147.703 24.5341H149.189V31.7578C149.189 32.0462 149.232 32.2633 149.319 32.4091C149.405 32.5516 149.516 32.6494 149.652 32.7024C149.791 32.7521 149.942 32.777 150.104 32.777C150.223 32.777 150.328 32.7687 150.417 32.7521C150.507 32.7356 150.576 32.7223 150.626 32.7124L150.895 33.9403C150.808 33.9735 150.686 34.0066 150.527 34.0398C150.368 34.0762 150.169 34.0961 149.93 34.0994C149.539 34.1061 149.174 34.0365 148.836 33.8906C148.498 33.7448 148.225 33.5194 148.016 33.2145C147.807 32.9096 147.703 32.5268 147.703 32.0661V24.5341ZM155.609 34.1541C154.856 34.1541 154.209 33.9934 153.665 33.6719C153.125 33.3471 152.707 32.8913 152.412 32.3047C152.12 31.7147 151.975 31.0237 151.975 30.2315C151.975 29.4493 152.12 28.7599 152.412 28.1634C152.707 27.5668 153.118 27.1011 153.645 26.7663C154.175 26.4316 154.795 26.2642 155.504 26.2642C155.935 26.2642 156.353 26.3355 156.757 26.478C157.162 26.6205 157.525 26.8442 157.846 27.1491C158.168 27.4541 158.421 27.8501 158.607 28.3374C158.792 28.8213 158.885 29.4096 158.885 30.1023V30.6293H152.815V29.5156H157.428C157.428 29.1245 157.349 28.7782 157.19 28.4766C157.031 28.1716 156.807 27.9313 156.519 27.7557C156.234 27.58 155.899 27.4922 155.514 27.4922C155.097 27.4922 154.732 27.5949 154.421 27.8004C154.112 28.0026 153.874 28.2678 153.705 28.5959C153.539 28.9207 153.456 29.2737 153.456 29.6548V30.5249C153.456 31.0353 153.546 31.4695 153.725 31.8274C153.907 32.1854 154.16 32.4588 154.485 32.6477C154.81 32.8333 155.19 32.9261 155.624 32.9261C155.905 32.9261 156.162 32.8864 156.394 32.8068C156.626 32.724 156.827 32.6013 156.996 32.4389C157.165 32.2765 157.294 32.076 157.384 31.8374L158.791 32.0909C158.678 32.5052 158.476 32.8681 158.184 33.1797C157.896 33.4879 157.533 33.7282 157.095 33.9006C156.661 34.0696 156.166 34.1541 155.609 34.1541Z" fill="white"/>
<path d="M21.5511 66V63.7159L27.6108 57.7756C28.1903 57.1903 28.6733 56.6705 29.0597 56.2159C29.446 55.7614 29.7358 55.321 29.929 54.8949C30.1222 54.4687 30.2188 54.0142 30.2188 53.5312C30.2188 52.9801 30.0938 52.5085 29.8438 52.1165C29.5938 51.7188 29.25 51.4119 28.8125 51.196C28.375 50.9801 27.8778 50.8722 27.321 50.8722C26.7472 50.8722 26.2443 50.9915 25.8125 51.2301C25.3807 51.4631 25.0455 51.7955 24.8068 52.2273C24.5739 52.6591 24.4574 53.1733 24.4574 53.7699H21.4489C21.4489 52.6619 21.7017 51.6989 22.2074 50.8807C22.7131 50.0625 23.4091 49.429 24.2955 48.9801C25.1875 48.5312 26.2102 48.3068 27.3636 48.3068C28.5341 48.3068 29.5625 48.5256 30.4489 48.9631C31.3352 49.4006 32.0227 50 32.5114 50.7614C33.0057 51.5227 33.2528 52.392 33.2528 53.3693C33.2528 54.0227 33.1278 54.6648 32.8778 55.2955C32.6278 55.9261 32.1875 56.625 31.5568 57.392C30.9318 58.1591 30.054 59.0881 28.9233 60.179L25.9148 63.2386V63.358H33.517V66H21.5511ZM43.5568 48.5455V66H40.3949V51.6222H40.2926L36.2102 54.2301V51.3324L40.5483 48.5455H43.5568ZM47.6733 62.7614V60.2472L55.0795 48.5455H57.1761V52.125H55.8977L50.9119 60.0256V60.1619H61.25V62.7614H47.6733ZM56 66V61.9943L56.0341 60.8693V48.5455H59.017V66H56ZM70.0412 66.2386C68.9048 66.2386 67.8878 66.0256 66.9901 65.5994C66.0923 65.1676 65.3793 64.5767 64.8509 63.8267C64.3281 63.0767 64.0497 62.2187 64.0156 61.2528H67.0838C67.1406 61.9687 67.4503 62.554 68.0128 63.0085C68.5753 63.4574 69.2514 63.6818 70.0412 63.6818C70.6605 63.6818 71.2116 63.5398 71.6946 63.2557C72.1776 62.9716 72.5582 62.5767 72.8366 62.071C73.1151 61.5653 73.2514 60.9886 73.2457 60.3409C73.2514 59.6818 73.1122 59.0966 72.8281 58.5852C72.544 58.0739 72.1548 57.6733 71.6605 57.3835C71.1662 57.0881 70.598 56.9403 69.956 56.9403C69.4332 56.9347 68.919 57.0312 68.4134 57.2301C67.9077 57.429 67.5071 57.6903 67.2116 58.0142L64.3565 57.5455L65.2685 48.5455H75.3935V51.1875H67.8849L67.3821 55.8153H67.4844C67.8082 55.4347 68.2656 55.1193 68.8565 54.8693C69.4474 54.6136 70.0952 54.4858 70.7997 54.4858C71.8565 54.4858 72.7997 54.7358 73.6293 55.2358C74.4588 55.7301 75.1122 56.4119 75.5895 57.2812C76.0668 58.1506 76.3054 59.1449 76.3054 60.2642C76.3054 61.4176 76.0384 62.446 75.5043 63.3494C74.9759 64.2472 74.2401 64.9545 73.2969 65.4716C72.3594 65.983 71.2741 66.2386 70.0412 66.2386Z" fill="white"/>
<circle cx="29" cy="86" r="9" fill="white" fill-opacity="0.3"/>
<path d="M32.9427 83.8554C32.8854 83.7149 32.7708 83.5992 32.6317 83.5413C32.5662 83.5165 32.4925 83.5 32.4188 83.5H30.8962C30.5769 83.5 30.3231 83.7562 30.3231 84.0785C30.3231 84.4008 30.5769 84.657 30.8962 84.657H31.0435L29.3162 86.4008L28.4812 85.1446C28.383 85.0041 28.2356 84.905 28.0637 84.8884C27.8836 84.8719 27.7281 84.9298 27.6053 85.0537L25.1658 87.5165C24.9448 87.7397 24.9448 88.1033 25.1658 88.3347C25.2804 88.4504 25.4196 88.5 25.5669 88.5C25.7143 88.5 25.8616 88.4421 25.9681 88.3347L27.9164 86.3678L28.7514 87.624C28.8496 87.7645 28.997 87.8636 29.1689 87.8802C29.349 87.8967 29.5045 87.8388 29.6273 87.7149L31.854 85.4669V85.6157C31.854 85.938 32.1077 86.1942 32.427 86.1942C32.7463 86.1942 33 85.938 33 85.6157V84.0702C32.9837 83.9959 32.9755 83.9215 32.9427 83.8554Z" fill="white"/>
<path d="M47.6705 85.6676V86.6051H43.8523V85.6676H47.6705ZM49.2184 88.7102V87.8409L53.0536 81.7727H53.6843V83.1193H53.2582L50.3604 87.7045V87.7727H55.5252V88.7102H49.2184ZM53.3263 90.5V88.446V88.0412V81.7727H54.332V90.5H53.3263ZM61.571 88.8636V88.4034C61.571 88.0852 61.6364 87.794 61.767 87.5298C61.9006 87.2628 62.0938 87.0497 62.3466 86.8906C62.6023 86.7287 62.9119 86.6477 63.2756 86.6477C63.6449 86.6477 63.9545 86.7287 64.2045 86.8906C64.4545 87.0497 64.6435 87.2628 64.7713 87.5298C64.8991 87.794 64.9631 88.0852 64.9631 88.4034V88.8636C64.9631 89.1818 64.8977 89.4744 64.767 89.7415C64.6392 90.0057 64.4489 90.2187 64.196 90.3807C63.946 90.5398 63.6392 90.6193 63.2756 90.6193C62.9063 90.6193 62.5952 90.5398 62.3423 90.3807C62.0895 90.2187 61.8977 90.0057 61.767 89.7415C61.6364 89.4744 61.571 89.1818 61.571 88.8636ZM62.4403 88.4034V88.8636C62.4403 89.1278 62.5028 89.3651 62.6278 89.5753C62.7528 89.7827 62.9688 89.8864 63.2756 89.8864C63.5739 89.8864 63.7841 89.7827 63.9062 89.5753C64.0312 89.3651 64.0938 89.1278 64.0938 88.8636V88.4034C64.0938 88.1392 64.0341 87.9034 63.9148 87.696C63.7955 87.4858 63.5824 87.3807 63.2756 87.3807C62.9773 87.3807 62.7628 87.4858 62.6321 87.696C62.5043 87.9034 62.4403 88.1392 62.4403 88.4034ZM57.2244 83.8693V83.4091C57.2244 83.0909 57.2898 82.7997 57.4205 82.5355C57.554 82.2685 57.7472 82.0554 58 81.8963C58.2557 81.7344 58.5653 81.6534 58.929 81.6534C59.2983 81.6534 59.608 81.7344 59.858 81.8963C60.108 82.0554 60.2969 82.2685 60.4247 82.5355C60.5526 82.7997 60.6165 83.0909 60.6165 83.4091V83.8693C60.6165 84.1875 60.5511 84.4801 60.4205 84.7472C60.2926 85.0114 60.1023 85.2244 59.8494 85.3864C59.5994 85.5455 59.2926 85.625 58.929 85.625C58.5597 85.625 58.2486 85.5455 57.9957 85.3864C57.7429 85.2244 57.5511 85.0114 57.4205 84.7472C57.2898 84.4801 57.2244 84.1875 57.2244 83.8693ZM58.0938 83.4091V83.8693C58.0938 84.1335 58.1562 84.3707 58.2812 84.581C58.4062 84.7884 58.6222 84.892 58.929 84.892C59.2273 84.892 59.4375 84.7884 59.5597 84.581C59.6847 84.3707 59.7472 84.1335 59.7472 83.8693V83.4091C59.7472 83.1449 59.6875 82.9091 59.5682 82.7017C59.4489 82.4915 59.2358 82.3864 58.929 82.3864C58.6307 82.3864 58.4162 82.4915 58.2855 82.7017C58.1577 82.9091 58.0938 83.1449 58.0938 83.4091ZM57.5483 90.5L63.5483 81.7727H64.5199L58.5199 90.5H57.5483ZM71.4574 81.7727V90.5H70.4006V81.7727H71.4574ZM74.4457 86.5625V90.5H73.44V83.9545H74.4116V84.9773H74.4968C74.6502 84.6449 74.8832 84.3778 75.1957 84.1761C75.5082 83.9716 75.9116 83.8693 76.4059 83.8693C76.8491 83.8693 77.2369 83.9602 77.5692 84.142C77.9016 84.321 78.1602 84.5938 78.3448 84.9602C78.5295 85.3239 78.6218 85.7841 78.6218 86.3409V90.5H77.6161V86.4091C77.6161 85.8949 77.4826 85.4943 77.2156 85.2074C76.9485 84.9176 76.582 84.7727 76.1161 84.7727C75.7951 84.7727 75.5082 84.8423 75.2553 84.9815C75.0053 85.1207 74.8079 85.3239 74.663 85.5909C74.5181 85.858 74.4457 86.1818 74.4457 86.5625ZM83.1186 90.6364C82.505 90.6364 81.9766 90.4915 81.5334 90.2017C81.0902 89.9119 80.7493 89.5128 80.5107 89.0043C80.272 88.4957 80.1527 87.9148 80.1527 87.2614C80.1527 86.5966 80.2749 86.0099 80.5192 85.5014C80.7663 84.9901 81.1101 84.5909 81.5504 84.304C81.9936 84.0142 82.5107 83.8693 83.1016 83.8693C83.5618 83.8693 83.9766 83.9545 84.3459 84.125C84.7152 84.2955 85.0178 84.5341 85.2536 84.8409C85.4893 85.1477 85.6357 85.5057 85.6925 85.9148H84.6868C84.6101 85.6165 84.4396 85.3523 84.1754 85.1222C83.9141 84.8892 83.5618 84.7727 83.1186 84.7727C82.7266 84.7727 82.3828 84.875 82.0874 85.0795C81.7947 85.2812 81.5661 85.5668 81.4013 85.9361C81.2393 86.3026 81.1584 86.733 81.1584 87.2273C81.1584 87.733 81.2379 88.1733 81.397 88.5483C81.5589 88.9233 81.7862 89.2145 82.0788 89.4219C82.3743 89.6293 82.7209 89.733 83.1186 89.733C83.38 89.733 83.6172 89.6875 83.8303 89.5966C84.0433 89.5057 84.2237 89.375 84.3714 89.2045C84.5192 89.0341 84.6243 88.8295 84.6868 88.5909H85.6925C85.6357 88.9773 85.495 89.3253 85.2706 89.6349C85.049 89.9418 84.755 90.1861 84.3885 90.3679C84.0249 90.5469 83.6016 90.6364 83.1186 90.6364Z" fill="white"/>
<circle cx="211" cy="57.4999" r="28.9999" stroke="white" stroke-opacity="0.3" stroke-width="6"/>
<path d="M219.227 29.6914C223.916 31.0786 228.178 33.6289 231.616 37.1052C235.055 40.5814 237.559 44.8708 238.896 49.5744" stroke="white" stroke-width="6" stroke-linecap="round"/>
<path d="M195.163 65V63.2869L199.708 58.8317C200.143 58.3928 200.505 58.0028 200.795 57.6619C201.085 57.321 201.302 56.9908 201.447 56.6712C201.592 56.3516 201.664 56.0107 201.664 55.6484C201.664 55.2351 201.57 54.8814 201.383 54.5874C201.195 54.2891 200.938 54.0589 200.609 53.897C200.281 53.7351 199.908 53.6541 199.491 53.6541C199.06 53.6541 198.683 53.7436 198.359 53.9226C198.036 54.0973 197.784 54.3466 197.605 54.6705C197.43 54.9943 197.343 55.38 197.343 55.8274H195.087C195.087 54.9964 195.276 54.2741 195.656 53.6605C196.035 53.0469 196.557 52.5717 197.222 52.2351C197.891 51.8984 198.658 51.7301 199.523 51.7301C200.401 51.7301 201.172 51.8942 201.837 52.2223C202.501 52.5504 203.017 53 203.384 53.571C203.754 54.142 203.94 54.794 203.94 55.527C203.94 56.017 203.846 56.4986 203.658 56.9716C203.471 57.4446 203.141 57.9687 202.668 58.544C202.199 59.1193 201.54 59.8161 200.692 60.6342L198.436 62.929V63.0185H204.138V65H195.163ZM211.668 51.9091V65H209.296V54.2166H209.219L206.158 56.1726V53.9993L209.411 51.9091H211.668ZM220.63 62.9545V62.3793C220.63 61.9567 220.719 61.5678 220.897 61.2127C221.078 60.8576 221.341 60.5717 221.685 60.3551C222.029 60.1385 222.447 60.0302 222.937 60.0302C223.441 60.0302 223.864 60.1385 224.205 60.3551C224.545 60.5682 224.803 60.8523 224.977 61.2074C225.154 61.5625 225.243 61.9531 225.243 62.3793V62.9545C225.243 63.3771 225.154 63.766 224.977 64.1211C224.799 64.4762 224.538 64.7621 224.194 64.9787C223.853 65.1953 223.434 65.3036 222.937 65.3036C222.44 65.3036 222.019 65.1953 221.674 64.9787C221.33 64.7621 221.069 64.4762 220.891 64.1211C220.717 63.766 220.63 63.3771 220.63 62.9545ZM222.021 62.3793V62.9545C222.021 63.2351 222.088 63.4925 222.223 63.7269C222.358 63.9613 222.596 64.0785 222.937 64.0785C223.281 64.0785 223.517 63.9631 223.645 63.7322C223.777 63.4979 223.842 63.2386 223.842 62.9545V62.3793C223.842 62.0952 223.78 61.8359 223.656 61.6016C223.532 61.3636 223.292 61.2447 222.937 61.2447C222.603 61.2447 222.367 61.3636 222.228 61.6016C222.09 61.8359 222.021 62.0952 222.021 62.3793ZM215.085 56.7116V56.1364C215.085 55.7102 215.176 55.3196 215.357 54.9645C215.538 54.6094 215.801 54.3253 216.145 54.1122C216.49 53.8956 216.907 53.7873 217.397 53.7873C217.898 53.7873 218.319 53.8956 218.659 54.1122C219.004 54.3253 219.263 54.6094 219.437 54.9645C219.611 55.3196 219.698 55.7102 219.698 56.1364V56.7116C219.698 57.1378 219.609 57.5284 219.432 57.8835C219.258 58.2351 218.999 58.5174 218.654 58.7305C218.31 58.9435 217.891 59.0501 217.397 59.0501C216.896 59.0501 216.474 58.9435 216.129 58.7305C215.788 58.5174 215.529 58.2333 215.352 57.8782C215.174 57.5231 215.085 57.1342 215.085 56.7116ZM216.486 56.1364V56.7116C216.486 56.9957 216.552 57.255 216.683 57.4893C216.818 57.7202 217.056 57.8356 217.397 57.8356C217.738 57.8356 217.972 57.7202 218.1 57.4893C218.232 57.255 218.297 56.9957 218.297 56.7116V56.1364C218.297 55.8523 218.235 55.593 218.111 55.3587C217.987 55.1207 217.749 55.0018 217.397 55.0018C217.06 55.0018 216.824 55.1207 216.689 55.3587C216.554 55.5966 216.486 55.8558 216.486 56.1364ZM215.692 65L223.192 54.0909H224.524L217.024 65H215.692Z" fill="white"/>
<defs>
<linearGradient id="paint0_linear_3752_40272" x1="-380.875" y1="-254.66" x2="339.798" y2="-142.735" gradientUnits="userSpaceOnUse">
<stop stop-color="#80A8E9"/>
<stop offset="1" stop-color="#374761"/>
</linearGradient>
</defs>
</svg>
