<svg width="575" height="407" viewBox="0 0 575 407" fill="none" xmlns="http://www.w3.org/2000/svg">
<rect width="575" height="406" rx="10" fill="white"/>
<path d="M22.544 42.5H20.4474L25.1584 29.4091H27.4403L32.1513 42.5H30.0547L26.3537 31.7869H26.2514L22.544 42.5ZM22.8956 37.3736H29.6967V39.0355H22.8956V37.3736ZM37.8658 42.6982C36.9155 42.6982 36.0973 42.483 35.4112 42.0526C34.7294 41.6179 34.2053 41.0192 33.8388 40.2564C33.4723 39.4936 33.2891 38.62 33.2891 37.6357C33.2891 36.6385 33.4766 35.7585 33.8516 34.9957C34.2266 34.2287 34.755 33.63 35.4368 33.1996C36.1186 32.7692 36.9219 32.554 37.8466 32.554C38.5923 32.554 39.2571 32.6925 39.8409 32.9695C40.4247 33.2422 40.8956 33.6257 41.2536 34.12C41.6158 34.6143 41.831 35.1918 41.8991 35.8523H40.0391C39.9368 35.392 39.7024 34.9957 39.3359 34.6634C38.9737 34.331 38.4879 34.1648 37.8786 34.1648C37.3459 34.1648 36.8793 34.3054 36.4787 34.5866C36.0824 34.8636 35.7734 35.2599 35.5518 35.7756C35.3303 36.2869 35.2195 36.892 35.2195 37.5909C35.2195 38.3068 35.3281 38.9247 35.5455 39.4446C35.7628 39.9645 36.0696 40.3672 36.4659 40.6527C36.8665 40.9382 37.3374 41.081 37.8786 41.081C38.2408 41.081 38.5689 41.0149 38.8629 40.8828C39.1612 40.7464 39.4105 40.5526 39.6108 40.3011C39.8153 40.0497 39.9581 39.7472 40.0391 39.3935H41.8991C41.831 40.0284 41.6243 40.5952 41.2791 41.0938C40.9339 41.5923 40.4716 41.9844 39.892 42.2699C39.3168 42.5554 38.6413 42.6982 37.8658 42.6982ZM48.5261 32.6818V34.2159H43.1632V32.6818H48.5261ZM44.6014 30.3295H46.5126V39.6172C46.5126 39.9879 46.568 40.267 46.6788 40.4545C46.7896 40.6378 46.9324 40.7635 47.1071 40.8317C47.286 40.8956 47.4799 40.9276 47.6887 40.9276C47.8422 40.9276 47.9764 40.9169 48.0914 40.8956C48.2065 40.8743 48.296 40.8572 48.3599 40.8445L48.7051 42.4233C48.5943 42.4659 48.4366 42.5085 48.2321 42.5511C48.0275 42.598 47.7718 42.6236 47.465 42.6278C46.9622 42.6364 46.4934 42.5469 46.0588 42.3594C45.6241 42.1719 45.2725 41.8821 45.0041 41.4901C44.7356 41.098 44.6014 40.6058 44.6014 40.0135V30.3295ZM50.6403 42.5V32.6818H52.5515V42.5H50.6403ZM51.6055 31.1669C51.2731 31.1669 50.9876 31.0561 50.7489 30.8345C50.5146 30.6087 50.3974 30.3402 50.3974 30.0291C50.3974 29.7138 50.5146 29.4453 50.7489 29.2237C50.9876 28.9979 51.2731 28.8849 51.6055 28.8849C51.9379 28.8849 52.2212 28.9979 52.4556 29.2237C52.6942 29.4453 52.8136 29.7138 52.8136 30.0291C52.8136 30.3402 52.6942 30.6087 52.4556 30.8345C52.2212 31.0561 51.9379 31.1669 51.6055 31.1669ZM63.5218 32.6818L59.9615 42.5H57.916L54.3493 32.6818H56.4011L58.8876 40.2372H58.9899L61.47 32.6818H63.5218ZM69.2156 42.6982C68.2482 42.6982 67.4151 42.4915 66.7163 42.0781C66.0217 41.6605 65.4847 41.0746 65.1055 40.3203C64.7305 39.5618 64.543 38.6733 64.543 37.6548C64.543 36.6491 64.7305 35.7628 65.1055 34.9957C65.4847 34.2287 66.0131 33.63 66.6907 33.1996C67.3725 32.7692 68.1694 32.554 69.0813 32.554C69.6353 32.554 70.1722 32.6456 70.6921 32.8288C71.212 33.0121 71.6786 33.2997 72.092 33.6918C72.5053 34.0838 72.8313 34.593 73.07 35.2195C73.3086 35.8416 73.4279 36.598 73.4279 37.4886V38.1662H65.6232V36.7344H71.555C71.555 36.2315 71.4528 35.7862 71.2482 35.3984C71.0437 35.0064 70.756 34.6974 70.3853 34.4716C70.0188 34.2457 69.5884 34.1328 69.0941 34.1328C68.5572 34.1328 68.0884 34.2649 67.6879 34.5291C67.2915 34.7891 66.9847 35.13 66.7674 35.5518C66.5543 35.9695 66.4478 36.4233 66.4478 36.9134V38.032C66.4478 38.6882 66.5629 39.2464 66.793 39.7067C67.0273 40.1669 67.3533 40.5185 67.771 40.7614C68.1886 41 68.6765 41.1193 69.2347 41.1193C69.5969 41.1193 69.9272 41.0682 70.2255 40.9659C70.5238 40.8594 70.7816 40.7017 70.9989 40.4929C71.2163 40.2841 71.3825 40.0263 71.4975 39.7195L73.3065 40.0455C73.1616 40.5781 72.9016 41.0447 72.5266 41.4453C72.1559 41.8416 71.6893 42.1506 71.1268 42.3722C70.5685 42.5895 69.9315 42.6982 69.2156 42.6982ZM80.4656 42.5V29.4091H88.6729V31.1094H82.4407V35.098H88.2447V36.7919H82.4407V40.7997H88.7496V42.5H80.4656ZM91.1578 42.5V32.6818H92.9924V34.2798H93.1138C93.3184 33.7386 93.6529 33.3168 94.1174 33.0142C94.5819 32.7074 95.138 32.554 95.7857 32.554C96.4419 32.554 96.9917 32.7074 97.4348 33.0142C97.8823 33.321 98.2125 33.7429 98.4256 34.2798H98.5279C98.7623 33.7557 99.1351 33.3381 99.6465 33.027C100.158 32.7116 100.767 32.554 101.475 32.554C102.365 32.554 103.092 32.8331 103.654 33.3913C104.221 33.9496 104.504 34.7912 104.504 35.9162V42.5H102.593V36.0952C102.593 35.4304 102.412 34.9489 102.05 34.6506C101.688 34.3523 101.255 34.2031 100.752 34.2031C100.13 34.2031 99.6465 34.3949 99.3013 34.7784C98.9561 35.1577 98.7836 35.6456 98.7836 36.2422V42.5H96.8787V35.9737C96.8787 35.4411 96.7125 35.0128 96.3801 34.6889C96.0478 34.3651 95.6152 34.2031 95.0826 34.2031C94.7203 34.2031 94.3858 34.299 94.079 34.4908C93.7765 34.6783 93.5314 34.9403 93.3439 35.277C93.1607 35.6136 93.0691 36.0036 93.0691 36.4467V42.5H91.1578ZM107.066 46.1818V32.6818H108.933V34.2734H109.092C109.203 34.0689 109.363 33.8324 109.572 33.5639C109.781 33.2955 110.07 33.0611 110.441 32.8608C110.812 32.6562 111.302 32.554 111.911 32.554C112.704 32.554 113.411 32.7543 114.033 33.1548C114.656 33.5554 115.143 34.1328 115.497 34.8871C115.855 35.6413 116.034 36.549 116.034 37.6101C116.034 38.6712 115.857 39.581 115.504 40.3395C115.15 41.0937 114.664 41.6754 114.046 42.0845C113.428 42.4893 112.723 42.6918 111.93 42.6918C111.334 42.6918 110.846 42.5916 110.467 42.3913C110.092 42.1911 109.798 41.9567 109.585 41.6882C109.371 41.4197 109.207 41.1811 109.092 40.9723H108.977V46.1818H107.066ZM108.939 37.5909C108.939 38.2812 109.039 38.8864 109.239 39.4062C109.44 39.9261 109.729 40.3331 110.109 40.6271C110.488 40.9169 110.952 41.0618 111.502 41.0618C112.073 41.0618 112.55 40.9105 112.934 40.608C113.317 40.3011 113.607 39.8857 113.803 39.3615C114.004 38.8374 114.104 38.2472 114.104 37.5909C114.104 36.9432 114.006 36.3615 113.81 35.8459C113.618 35.3303 113.328 34.9233 112.94 34.625C112.557 34.3267 112.077 34.1776 111.502 34.1776C110.948 34.1776 110.479 34.3203 110.096 34.6058C109.717 34.8913 109.429 35.2898 109.233 35.8011C109.037 36.3125 108.939 36.9091 108.939 37.5909ZM120.087 29.4091V42.5H118.175V29.4091H120.087ZM126.794 42.6982C125.873 42.6982 125.07 42.4872 124.384 42.0653C123.698 41.6435 123.165 41.0533 122.786 40.2947C122.406 39.5362 122.217 38.6499 122.217 37.6357C122.217 36.6172 122.406 35.7266 122.786 34.9638C123.165 34.201 123.698 33.6087 124.384 33.1868C125.07 32.7649 125.873 32.554 126.794 32.554C127.714 32.554 128.517 32.7649 129.203 33.1868C129.889 33.6087 130.422 34.201 130.801 34.9638C131.181 35.7266 131.37 36.6172 131.37 37.6357C131.37 38.6499 131.181 39.5362 130.801 40.2947C130.422 41.0533 129.889 41.6435 129.203 42.0653C128.517 42.4872 127.714 42.6982 126.794 42.6982ZM126.8 41.0938C127.396 41.0938 127.891 40.9361 128.283 40.6207C128.675 40.3054 128.965 39.8857 129.152 39.3615C129.344 38.8374 129.44 38.2599 129.44 37.6293C129.44 37.0028 129.344 36.4276 129.152 35.9034C128.965 35.375 128.675 34.951 128.283 34.6314C127.891 34.3118 127.396 34.152 126.8 34.152C126.199 34.152 125.7 34.3118 125.304 34.6314C124.912 34.951 124.62 35.375 124.428 35.9034C124.241 36.4276 124.147 37.0028 124.147 37.6293C124.147 38.2599 124.241 38.8374 124.428 39.3615C124.62 39.8857 124.912 40.3054 125.304 40.6207C125.7 40.9361 126.199 41.0938 126.8 41.0938ZM134.378 46.1818C134.092 46.1818 133.832 46.1584 133.598 46.1115C133.363 46.0689 133.189 46.022 133.074 45.9709L133.534 44.4048C133.883 44.4986 134.194 44.5391 134.467 44.5263C134.74 44.5135 134.981 44.4112 135.189 44.2195C135.403 44.0277 135.59 43.7145 135.752 43.2798L135.988 42.6278L132.396 32.6818H134.442L136.928 40.3011H137.03L139.517 32.6818H141.569L137.523 43.8104C137.335 44.3217 137.096 44.7543 136.807 45.108C136.517 45.4659 136.172 45.7344 135.771 45.9134C135.371 46.0923 134.906 46.1818 134.378 46.1818ZM147.262 42.6982C146.295 42.6982 145.462 42.4915 144.763 42.0781C144.069 41.6605 143.532 41.0746 143.152 40.3203C142.777 39.5618 142.59 38.6733 142.59 37.6548C142.59 36.6491 142.777 35.7628 143.152 34.9957C143.532 34.2287 144.06 33.63 144.738 33.1996C145.419 32.7692 146.216 32.554 147.128 32.554C147.682 32.554 148.219 32.6456 148.739 32.8288C149.259 33.0121 149.725 33.2997 150.139 33.6918C150.552 34.0838 150.878 34.593 151.117 35.2195C151.355 35.8416 151.475 36.598 151.475 37.4886V38.1662H143.67V36.7344H149.602C149.602 36.2315 149.5 35.7862 149.295 35.3984C149.091 35.0064 148.803 34.6974 148.432 34.4716C148.066 34.2457 147.635 34.1328 147.141 34.1328C146.604 34.1328 146.135 34.2649 145.735 34.5291C145.338 34.7891 145.032 35.13 144.814 35.5518C144.601 35.9695 144.495 36.4233 144.495 36.9134V38.032C144.495 38.6882 144.61 39.2464 144.84 39.7067C145.074 40.1669 145.4 40.5185 145.818 40.7614C146.235 41 146.723 41.1193 147.282 41.1193C147.644 41.1193 147.974 41.0682 148.272 40.9659C148.571 40.8594 148.828 40.7017 149.046 40.4929C149.263 40.2841 149.429 40.0263 149.544 39.7195L151.353 40.0455C151.208 40.5781 150.949 41.0447 150.574 41.4453C150.203 41.8416 149.736 42.1506 149.174 42.3722C148.615 42.5895 147.978 42.6982 147.262 42.6982ZM157.827 42.6982C156.86 42.6982 156.026 42.4915 155.328 42.0781C154.633 41.6605 154.096 41.0746 153.717 40.3203C153.342 39.5618 153.154 38.6733 153.154 37.6548C153.154 36.6491 153.342 35.7628 153.717 34.9957C154.096 34.2287 154.624 33.63 155.302 33.1996C155.984 32.7692 156.781 32.554 157.693 32.554C158.247 32.554 158.784 32.6456 159.303 32.8288C159.823 33.0121 160.29 33.2997 160.703 33.6918C161.117 34.0838 161.443 34.593 161.681 35.2195C161.92 35.8416 162.039 36.598 162.039 37.4886V38.1662H154.235V36.7344H160.166C160.166 36.2315 160.064 35.7862 159.86 35.3984C159.655 35.0064 159.367 34.6974 158.997 34.4716C158.63 34.2457 158.2 34.1328 157.705 34.1328C157.169 34.1328 156.7 34.2649 156.299 34.5291C155.903 34.7891 155.596 35.13 155.379 35.5518C155.166 35.9695 155.059 36.4233 155.059 36.9134V38.032C155.059 38.6882 155.174 39.2464 155.404 39.7067C155.639 40.1669 155.965 40.5185 156.382 40.7614C156.8 41 157.288 41.1193 157.846 41.1193C158.208 41.1193 158.539 41.0682 158.837 40.9659C159.135 40.8594 159.393 40.7017 159.61 40.4929C159.828 40.2841 159.994 40.0263 160.109 39.7195L161.918 40.0455C161.773 40.5781 161.513 41.0447 161.138 41.4453C160.767 41.8416 160.301 42.1506 159.738 42.3722C159.18 42.5895 158.543 42.6982 157.827 42.6982ZM171.517 35.0788L169.785 35.3857C169.712 35.1641 169.597 34.9531 169.44 34.7528C169.286 34.5526 169.077 34.3885 168.813 34.2607C168.549 34.1328 168.219 34.0689 167.822 34.0689C167.281 34.0689 166.83 34.1903 166.467 34.4332C166.105 34.6719 165.924 34.9808 165.924 35.3601C165.924 35.6882 166.045 35.9524 166.288 36.1527C166.531 36.353 166.923 36.517 167.464 36.6449L169.024 37.0028C169.928 37.2116 170.601 37.5334 171.044 37.968C171.487 38.4027 171.709 38.9673 171.709 39.6619C171.709 40.25 171.538 40.7741 171.197 41.2344C170.861 41.6903 170.39 42.0483 169.785 42.3082C169.184 42.5682 168.487 42.6982 167.695 42.6982C166.595 42.6982 165.698 42.4638 165.004 41.995C164.309 41.522 163.883 40.8509 163.725 39.9815L165.572 39.7003C165.688 40.1818 165.924 40.5462 166.282 40.7933C166.64 41.0362 167.107 41.1577 167.682 41.1577C168.308 41.1577 168.809 41.0277 169.184 40.7678C169.559 40.5036 169.746 40.1818 169.746 39.8026C169.746 39.4957 169.631 39.2379 169.401 39.0291C169.175 38.8203 168.828 38.6626 168.359 38.5561L166.697 38.1918C165.781 37.983 165.104 37.6506 164.665 37.1946C164.23 36.7386 164.013 36.1612 164.013 35.4624C164.013 34.8828 164.175 34.3757 164.499 33.9411C164.822 33.5064 165.27 33.1676 165.841 32.9247C166.412 32.6776 167.066 32.554 167.803 32.554C168.864 32.554 169.7 32.7841 170.309 33.2443C170.918 33.7003 171.321 34.3118 171.517 35.0788Z" fill="#101317"/>
<rect x="186.5" y="29.5" width="22" height="12" rx="6" fill="#002E7F"/>
<rect x="197.5" y="30.5" width="10" height="10" rx="5" fill="white"/>
<path d="M213.459 40V31.2727H216.57C217.246 31.2727 217.807 31.3892 218.253 31.6222C218.702 31.8551 219.037 32.1776 219.259 32.5895C219.48 32.9986 219.591 33.4716 219.591 34.0085C219.591 34.5426 219.479 35.0128 219.254 35.419C219.033 35.8224 218.697 36.1364 218.249 36.3608C217.803 36.5852 217.241 36.6974 216.565 36.6974H214.209V35.5639H216.446C216.872 35.5639 217.219 35.5028 217.486 35.3807C217.756 35.2585 217.953 35.081 218.078 34.848C218.203 34.6151 218.266 34.3352 218.266 34.0085C218.266 33.679 218.202 33.3935 218.074 33.152C217.949 32.9105 217.751 32.7259 217.482 32.598C217.214 32.4673 216.864 32.402 216.429 32.402H214.776V40H213.459ZM217.767 36.0625L219.923 40H218.423L216.31 36.0625H217.767ZM223.83 40.1321C223.185 40.1321 222.63 39.9943 222.164 39.7188C221.701 39.4403 221.343 39.0497 221.09 38.5469C220.84 38.0412 220.715 37.4489 220.715 36.7699C220.715 36.0994 220.84 35.5085 221.09 34.9972C221.343 34.4858 221.695 34.0866 222.147 33.7997C222.601 33.5128 223.132 33.3693 223.74 33.3693C224.11 33.3693 224.468 33.4304 224.814 33.5526C225.161 33.6747 225.472 33.8665 225.748 34.1278C226.023 34.3892 226.24 34.7287 226.4 35.1463C226.559 35.5611 226.638 36.0653 226.638 36.6591V37.1108H221.435V36.1562H225.39C225.39 35.821 225.321 35.5241 225.185 35.2656C225.049 35.0043 224.857 34.7983 224.61 34.6477C224.365 34.4972 224.078 34.4219 223.749 34.4219C223.391 34.4219 223.078 34.5099 222.811 34.6861C222.547 34.8594 222.343 35.0866 222.198 35.3679C222.056 35.6463 221.985 35.9489 221.985 36.2756V37.0213C221.985 37.4588 222.061 37.831 222.215 38.1378C222.371 38.4446 222.588 38.679 222.867 38.8409C223.145 39 223.471 39.0795 223.843 39.0795C224.084 39.0795 224.304 39.0455 224.503 38.9773C224.702 38.9062 224.874 38.8011 225.019 38.6619C225.164 38.5227 225.275 38.3509 225.351 38.1463L226.557 38.3636C226.461 38.7187 226.287 39.0298 226.037 39.2969C225.79 39.5611 225.479 39.767 225.104 39.9148C224.732 40.0597 224.307 40.1321 223.83 40.1321ZM228.052 33.4545H229.326V40.4261C229.326 40.8636 229.246 41.233 229.087 41.5341C228.931 41.8352 228.698 42.0639 228.388 42.2202C228.082 42.3764 227.702 42.4545 227.251 42.4545C227.205 42.4545 227.163 42.4545 227.123 42.4545C227.08 42.4545 227.036 42.4531 226.991 42.4503V41.3551C227.031 41.3551 227.066 41.3551 227.097 41.3551C227.126 41.3551 227.158 41.3551 227.195 41.3551C227.496 41.3551 227.714 41.2741 227.847 41.1122C227.984 40.9531 228.052 40.7216 228.052 40.4176V33.4545ZM228.683 32.4446C228.461 32.4446 228.271 32.3707 228.112 32.223C227.955 32.0724 227.877 31.8935 227.877 31.6861C227.877 31.4759 227.955 31.2969 228.112 31.1491C228.271 30.9986 228.461 30.9233 228.683 30.9233C228.904 30.9233 229.093 30.9986 229.249 31.1491C229.408 31.2969 229.488 31.4759 229.488 31.6861C229.488 31.8935 229.408 32.0724 229.249 32.223C229.093 32.3707 228.904 32.4446 228.683 32.4446ZM233.861 40.1321C233.216 40.1321 232.661 39.9943 232.195 39.7188C231.732 39.4403 231.374 39.0497 231.121 38.5469C230.871 38.0412 230.746 37.4489 230.746 36.7699C230.746 36.0994 230.871 35.5085 231.121 34.9972C231.374 34.4858 231.726 34.0866 232.178 33.7997C232.632 33.5128 233.164 33.3693 233.772 33.3693C234.141 33.3693 234.499 33.4304 234.846 33.5526C235.192 33.6747 235.503 33.8665 235.779 34.1278C236.054 34.3892 236.272 34.7287 236.431 35.1463C236.59 35.5611 236.669 36.0653 236.669 36.6591V37.1108H231.466V36.1562H235.421C235.421 35.821 235.353 35.5241 235.216 35.2656C235.08 35.0043 234.888 34.7983 234.641 34.6477C234.397 34.4972 234.11 34.4219 233.78 34.4219C233.422 34.4219 233.11 34.5099 232.843 34.6861C232.578 34.8594 232.374 35.0866 232.229 35.3679C232.087 35.6463 232.016 35.9489 232.016 36.2756V37.0213C232.016 37.4588 232.093 37.831 232.246 38.1378C232.402 38.4446 232.62 38.679 232.898 38.8409C233.176 39 233.502 39.0795 233.874 39.0795C234.115 39.0795 234.336 39.0455 234.534 38.9773C234.733 38.9062 234.905 38.8011 235.05 38.6619C235.195 38.5227 235.306 38.3509 235.382 38.1463L236.588 38.3636C236.492 38.7187 236.319 39.0298 236.069 39.2969C235.821 39.5611 235.51 39.767 235.135 39.9148C234.763 40.0597 234.338 40.1321 233.861 40.1321ZM240.84 40.1321C240.207 40.1321 239.661 39.9886 239.204 39.7017C238.749 39.4119 238.4 39.0128 238.156 38.5043C237.911 37.9957 237.789 37.4134 237.789 36.7571C237.789 36.0923 237.914 35.5057 238.164 34.9972C238.414 34.4858 238.766 34.0866 239.221 33.7997C239.675 33.5128 240.211 33.3693 240.827 33.3693C241.325 33.3693 241.768 33.4616 242.157 33.6463C242.546 33.8281 242.86 34.0838 243.099 34.4134C243.34 34.7429 243.484 35.1278 243.529 35.5682H242.289C242.221 35.2614 242.065 34.9972 241.82 34.7756C241.579 34.554 241.255 34.4432 240.849 34.4432C240.494 34.4432 240.183 34.5369 239.915 34.7244C239.651 34.9091 239.445 35.1733 239.298 35.517C239.15 35.858 239.076 36.2614 239.076 36.7273C239.076 37.2045 239.148 37.6165 239.293 37.9631C239.438 38.3097 239.643 38.5781 239.907 38.7685C240.174 38.9588 240.488 39.054 240.849 39.054C241.09 39.054 241.309 39.0099 241.505 38.9219C241.704 38.831 241.87 38.7017 242.004 38.5341C242.14 38.3665 242.235 38.1648 242.289 37.929H243.529C243.484 38.3523 243.346 38.7301 243.116 39.0625C242.886 39.3949 242.577 39.6562 242.191 39.8466C241.808 40.0369 241.357 40.1321 240.84 40.1321ZM247.947 33.4545V34.4773H244.372V33.4545H247.947ZM245.331 31.8864H246.605V38.0781C246.605 38.3253 246.642 38.5114 246.716 38.6364C246.789 38.7585 246.885 38.8423 247.001 38.8878C247.12 38.9304 247.25 38.9517 247.389 38.9517C247.491 38.9517 247.581 38.9446 247.657 38.9304C247.734 38.9162 247.794 38.9048 247.836 38.8963L248.066 39.9489C247.993 39.9773 247.887 40.0057 247.751 40.0341C247.615 40.0653 247.444 40.0824 247.24 40.0852C246.904 40.0909 246.592 40.0312 246.302 39.9062C246.012 39.7812 245.778 39.5881 245.599 39.3267C245.42 39.0653 245.331 38.7372 245.331 38.3423V31.8864ZM252.107 40.1321C251.462 40.1321 250.907 39.9943 250.441 39.7188C249.978 39.4403 249.62 39.0497 249.367 38.5469C249.117 38.0412 248.992 37.4489 248.992 36.7699C248.992 36.0994 249.117 35.5085 249.367 34.9972C249.62 34.4858 249.972 34.0866 250.424 33.7997C250.879 33.5128 251.41 33.3693 252.018 33.3693C252.387 33.3693 252.745 33.4304 253.092 33.5526C253.438 33.6747 253.749 33.8665 254.025 34.1278C254.3 34.3892 254.518 34.7287 254.677 35.1463C254.836 35.5611 254.915 36.0653 254.915 36.6591V37.1108H249.712V36.1562H253.667C253.667 35.821 253.599 35.5241 253.462 35.2656C253.326 35.0043 253.134 34.7983 252.887 34.6477C252.643 34.4972 252.356 34.4219 252.026 34.4219C251.668 34.4219 251.356 34.5099 251.089 34.6861C250.825 34.8594 250.62 35.0866 250.475 35.3679C250.333 35.6463 250.262 35.9489 250.262 36.2756V37.0213C250.262 37.4588 250.339 37.831 250.492 38.1378C250.648 38.4446 250.866 38.679 251.144 38.8409C251.423 39 251.748 39.0795 252.12 39.0795C252.362 39.0795 252.582 39.0455 252.781 38.9773C252.979 38.9062 253.151 38.8011 253.296 38.6619C253.441 38.5227 253.552 38.3509 253.629 38.1463L254.835 38.3636C254.738 38.7187 254.565 39.0298 254.315 39.2969C254.067 39.5611 253.756 39.767 253.381 39.9148C253.009 40.0597 252.585 40.1321 252.107 40.1321ZM258.779 40.1278C258.251 40.1278 257.779 39.9929 257.365 39.723C256.953 39.4503 256.629 39.0625 256.393 38.5597C256.16 38.054 256.044 37.4474 256.044 36.7401C256.044 36.0327 256.162 35.4276 256.397 34.9247C256.636 34.4219 256.963 34.0369 257.377 33.7699C257.792 33.5028 258.262 33.3693 258.788 33.3693C259.194 33.3693 259.521 33.4375 259.768 33.5739C260.018 33.7074 260.211 33.8636 260.348 34.0426C260.487 34.2216 260.595 34.3793 260.672 34.5156H260.748V31.2727H262.022V40H260.778V38.9815H260.672C260.595 39.1207 260.484 39.2798 260.339 39.4588C260.197 39.6378 260.001 39.794 259.751 39.9276C259.501 40.0611 259.177 40.1278 258.779 40.1278ZM259.061 39.0412C259.427 39.0412 259.737 38.9446 259.99 38.7514C260.245 38.5554 260.439 38.2841 260.569 37.9375C260.703 37.5909 260.77 37.1875 260.77 36.7273C260.77 36.2727 260.704 35.875 260.574 35.5341C260.443 35.1932 260.251 34.9276 259.998 34.7372C259.745 34.5469 259.433 34.4517 259.061 34.4517C258.677 34.4517 258.358 34.5511 258.102 34.75C257.846 34.9489 257.653 35.2202 257.522 35.5639C257.395 35.9077 257.331 36.2955 257.331 36.7273C257.331 37.1648 257.396 37.5582 257.527 37.9077C257.657 38.2571 257.85 38.5341 258.106 38.7386C258.365 38.9403 258.683 39.0412 259.061 39.0412Z" fill="#101317"/>
<rect x="278.5" y="29.5" width="22" height="12" rx="6" fill="#FF6523"/>
<rect x="289.5" y="30.5" width="10" height="10" rx="5" fill="white"/>
<path d="M306.196 40H304.798L307.939 31.2727H309.46L312.601 40H311.203L308.736 32.858H308.668L306.196 40ZM306.43 36.5824H310.964V37.6903H306.43V36.5824ZM313.759 42.4545V33.4545H315.003V34.5156H315.11C315.184 34.3793 315.29 34.2216 315.429 34.0426C315.569 33.8636 315.762 33.7074 316.009 33.5739C316.256 33.4375 316.583 33.3693 316.989 33.3693C317.517 33.3693 317.989 33.5028 318.404 33.7699C318.819 34.0369 319.144 34.4219 319.38 34.9247C319.618 35.4276 319.738 36.0327 319.738 36.7401C319.738 37.4474 319.62 38.054 319.384 38.5597C319.148 39.0625 318.824 39.4503 318.412 39.723C318 39.9929 317.53 40.1278 317.002 40.1278C316.604 40.1278 316.279 40.0611 316.026 39.9276C315.776 39.794 315.58 39.6378 315.438 39.4588C315.296 39.2798 315.186 39.1207 315.11 38.9815H315.033V42.4545H313.759ZM315.007 36.7273C315.007 37.1875 315.074 37.5909 315.208 37.9375C315.341 38.2841 315.534 38.5554 315.787 38.7514C316.04 38.9446 316.35 39.0412 316.716 39.0412C317.097 39.0412 317.415 38.9403 317.671 38.7386C317.926 38.5341 318.12 38.2571 318.25 37.9077C318.384 37.5582 318.451 37.1648 318.451 36.7273C318.451 36.2955 318.385 35.9077 318.255 35.5639C318.127 35.2202 317.934 34.9489 317.675 34.75C317.419 34.5511 317.1 34.4517 316.716 34.4517C316.347 34.4517 316.034 34.5469 315.779 34.7372C315.526 34.9276 315.334 35.1932 315.203 35.5341C315.073 35.875 315.007 36.2727 315.007 36.7273ZM321.165 42.4545V33.4545H322.409V34.5156H322.516C322.59 34.3793 322.696 34.2216 322.836 34.0426C322.975 33.8636 323.168 33.7074 323.415 33.5739C323.662 33.4375 323.989 33.3693 324.395 33.3693C324.924 33.3693 325.395 33.5028 325.81 33.7699C326.225 34.0369 326.55 34.4219 326.786 34.9247C327.025 35.4276 327.144 36.0327 327.144 36.7401C327.144 37.4474 327.026 38.054 326.79 38.5597C326.554 39.0625 326.23 39.4503 325.819 39.723C325.407 39.9929 324.936 40.1278 324.408 40.1278C324.01 40.1278 323.685 40.0611 323.432 39.9276C323.182 39.794 322.986 39.6378 322.844 39.4588C322.702 39.2798 322.593 39.1207 322.516 38.9815H322.439V42.4545H321.165ZM322.414 36.7273C322.414 37.1875 322.48 37.5909 322.614 37.9375C322.748 38.2841 322.941 38.5554 323.194 38.7514C323.446 38.9446 323.756 39.0412 324.123 39.0412C324.503 39.0412 324.821 38.9403 325.077 38.7386C325.333 38.5341 325.526 38.2571 325.657 37.9077C325.79 37.5582 325.857 37.1648 325.857 36.7273C325.857 36.2955 325.792 35.9077 325.661 35.5639C325.533 35.2202 325.34 34.9489 325.081 34.75C324.826 34.5511 324.506 34.4517 324.123 34.4517C323.753 34.4517 323.441 34.5469 323.185 34.7372C322.932 34.9276 322.74 35.1932 322.61 35.5341C322.479 35.875 322.414 36.2727 322.414 36.7273ZM329.846 31.2727V40H328.571V31.2727H329.846ZM331.56 40V33.4545H332.834V40H331.56ZM332.203 32.4446C331.982 32.4446 331.791 32.3707 331.632 32.223C331.476 32.0724 331.398 31.8935 331.398 31.6861C331.398 31.4759 331.476 31.2969 331.632 31.1491C331.791 30.9986 331.982 30.9233 332.203 30.9233C332.425 30.9233 332.614 30.9986 332.77 31.1491C332.929 31.2969 333.009 31.4759 333.009 31.6861C333.009 31.8935 332.929 32.0724 332.77 32.223C332.614 32.3707 332.425 32.4446 332.203 32.4446ZM337.305 40.1321C336.672 40.1321 336.126 39.9886 335.669 39.7017C335.214 39.4119 334.865 39.0128 334.62 38.5043C334.376 37.9957 334.254 37.4134 334.254 36.7571C334.254 36.0923 334.379 35.5057 334.629 34.9972C334.879 34.4858 335.231 34.0866 335.686 33.7997C336.14 33.5128 336.676 33.3693 337.292 33.3693C337.789 33.3693 338.233 33.4616 338.622 33.6463C339.011 33.8281 339.325 34.0838 339.564 34.4134C339.805 34.7429 339.949 35.1278 339.994 35.5682H338.754C338.686 35.2614 338.529 34.9972 338.285 34.7756C338.044 34.554 337.72 34.4432 337.314 34.4432C336.958 34.4432 336.647 34.5369 336.38 34.7244C336.116 34.9091 335.91 35.1733 335.762 35.517C335.615 35.858 335.541 36.2614 335.541 36.7273C335.541 37.2045 335.613 37.6165 335.758 37.9631C335.903 38.3097 336.108 38.5781 336.372 38.7685C336.639 38.9588 336.953 39.054 337.314 39.054C337.555 39.054 337.774 39.0099 337.97 38.9219C338.169 38.831 338.335 38.7017 338.468 38.5341C338.605 38.3665 338.7 38.1648 338.754 37.929H339.994C339.949 38.3523 339.811 38.7301 339.581 39.0625C339.35 39.3949 339.042 39.6562 338.656 39.8466C338.272 40.0369 337.822 40.1321 337.305 40.1321ZM343.261 40.1449C342.847 40.1449 342.472 40.0682 342.136 39.9148C341.801 39.7585 341.536 39.5327 341.339 39.2372C341.146 38.9418 341.05 38.5795 341.05 38.1506C341.05 37.7812 341.121 37.4773 341.263 37.2386C341.405 37 341.597 36.8111 341.838 36.6719C342.08 36.5327 342.349 36.4276 342.648 36.3565C342.946 36.2855 343.25 36.2315 343.56 36.1946C343.952 36.1491 344.27 36.1122 344.514 36.0838C344.759 36.0526 344.936 36.0028 345.047 35.9347C345.158 35.8665 345.213 35.7557 345.213 35.6023V35.5724C345.213 35.2003 345.108 34.9119 344.898 34.7074C344.69 34.5028 344.381 34.4006 343.969 34.4006C343.54 34.4006 343.202 34.4957 342.955 34.6861C342.71 34.8736 342.541 35.0824 342.447 35.3125L341.25 35.0398C341.392 34.642 341.599 34.321 341.872 34.0767C342.148 33.8295 342.464 33.6506 342.822 33.5398C343.18 33.4261 343.557 33.3693 343.952 33.3693C344.213 33.3693 344.49 33.4006 344.783 33.4631C345.078 33.5227 345.354 33.6335 345.609 33.7955C345.868 33.9574 346.08 34.1889 346.244 34.4901C346.409 34.7884 346.491 35.1761 346.491 35.6534V40H345.247V39.1051H345.196C345.114 39.2699 344.99 39.4318 344.825 39.5909C344.661 39.75 344.449 39.8821 344.19 39.9872C343.932 40.0923 343.622 40.1449 343.261 40.1449ZM343.538 39.1222C343.891 39.1222 344.192 39.0526 344.442 38.9134C344.695 38.7741 344.886 38.5923 345.017 38.3679C345.151 38.1406 345.217 37.8977 345.217 37.6392V36.7955C345.172 36.8409 345.084 36.8835 344.953 36.9233C344.825 36.9602 344.679 36.9929 344.514 37.0213C344.349 37.0469 344.189 37.071 344.033 37.0938C343.876 37.1136 343.746 37.1307 343.641 37.1449C343.393 37.1761 343.168 37.2287 342.963 37.3026C342.761 37.3764 342.599 37.483 342.477 37.6222C342.358 37.7585 342.298 37.9403 342.298 38.1676C342.298 38.483 342.415 38.7216 342.648 38.8835C342.881 39.0426 343.178 39.1222 343.538 39.1222ZM351.244 33.4545V34.4773H347.669V33.4545H351.244ZM348.627 31.8864H349.902V38.0781C349.902 38.3253 349.939 38.5114 350.012 38.6364C350.086 38.7585 350.181 38.8423 350.298 38.8878C350.417 38.9304 350.547 38.9517 350.686 38.9517C350.788 38.9517 350.877 38.9446 350.954 38.9304C351.031 38.9162 351.091 38.9048 351.133 38.8963L351.363 39.9489C351.289 39.9773 351.184 40.0057 351.048 40.0341C350.912 40.0653 350.741 40.0824 350.537 40.0852C350.201 40.0909 349.889 40.0312 349.599 39.9062C349.309 39.7812 349.075 39.5881 348.896 39.3267C348.717 39.0653 348.627 38.7372 348.627 38.3423V31.8864ZM352.653 40V33.4545H353.928V40H352.653ZM353.297 32.4446C353.075 32.4446 352.885 32.3707 352.726 32.223C352.57 32.0724 352.491 31.8935 352.491 31.6861C352.491 31.4759 352.57 31.2969 352.726 31.1491C352.885 30.9986 353.075 30.9233 353.297 30.9233C353.518 30.9233 353.707 30.9986 353.864 31.1491C354.023 31.2969 354.102 31.4759 354.102 31.6861C354.102 31.8935 354.023 32.0724 353.864 32.223C353.707 32.3707 353.518 32.4446 353.297 32.4446ZM358.399 40.1321C357.785 40.1321 357.25 39.9915 356.792 39.7102C356.335 39.429 355.98 39.0355 355.727 38.5298C355.474 38.0241 355.348 37.4332 355.348 36.7571C355.348 36.0781 355.474 35.4844 355.727 34.9759C355.98 34.4673 356.335 34.0724 356.792 33.7912C357.25 33.5099 357.785 33.3693 358.399 33.3693C359.012 33.3693 359.548 33.5099 360.005 33.7912C360.463 34.0724 360.818 34.4673 361.071 34.9759C361.324 35.4844 361.45 36.0781 361.45 36.7571C361.45 37.4332 361.324 38.0241 361.071 38.5298C360.818 39.0355 360.463 39.429 360.005 39.7102C359.548 39.9915 359.012 40.1321 358.399 40.1321ZM358.403 39.0625C358.801 39.0625 359.13 38.9574 359.392 38.7472C359.653 38.5369 359.846 38.2571 359.971 37.9077C360.099 37.5582 360.163 37.1733 360.163 36.7528C360.163 36.3352 360.099 35.9517 359.971 35.6023C359.846 35.25 359.653 34.9673 359.392 34.7543C359.13 34.5412 358.801 34.4347 358.403 34.4347C358.002 34.4347 357.67 34.5412 357.406 34.7543C357.145 34.9673 356.95 35.25 356.822 35.6023C356.697 35.9517 356.635 36.3352 356.635 36.7528C356.635 37.1733 356.697 37.5582 356.822 37.9077C356.95 38.2571 357.145 38.5369 357.406 38.7472C357.67 38.9574 358.002 39.0625 358.403 39.0625ZM364.146 36.1136V40H362.872V33.4545H364.095V34.5199H364.176C364.327 34.1733 364.563 33.8949 364.884 33.6847C365.207 33.4744 365.615 33.3693 366.107 33.3693C366.553 33.3693 366.943 33.4631 367.278 33.6506C367.614 33.8352 367.874 34.1108 368.058 34.4773C368.243 34.8437 368.335 35.2969 368.335 35.8366V40H367.061V35.9901C367.061 35.5156 366.938 35.1449 366.69 34.8778C366.443 34.608 366.104 34.473 365.672 34.473C365.376 34.473 365.114 34.5369 364.884 34.6648C364.656 34.7926 364.476 34.9801 364.342 35.2273C364.212 35.4716 364.146 35.767 364.146 36.1136ZM374.949 35.0526L373.794 35.2571C373.746 35.1094 373.669 34.9687 373.564 34.8352C373.462 34.7017 373.322 34.5923 373.146 34.5071C372.97 34.4219 372.75 34.3793 372.486 34.3793C372.125 34.3793 371.824 34.4602 371.582 34.6222C371.341 34.7812 371.22 34.9872 371.22 35.2401C371.22 35.4588 371.301 35.6349 371.463 35.7685C371.625 35.902 371.886 36.0114 372.247 36.0966L373.287 36.3352C373.889 36.4744 374.338 36.6889 374.634 36.9787C374.929 37.2685 375.077 37.6449 375.077 38.108C375.077 38.5 374.963 38.8494 374.736 39.1562C374.511 39.4602 374.197 39.6989 373.794 39.8722C373.393 40.0455 372.929 40.1321 372.401 40.1321C371.668 40.1321 371.07 39.9759 370.607 39.6634C370.143 39.348 369.859 38.9006 369.754 38.321L370.986 38.1335C371.063 38.4545 371.22 38.6974 371.459 38.8622C371.697 39.0241 372.009 39.1051 372.392 39.1051C372.81 39.1051 373.143 39.0185 373.393 38.8452C373.643 38.669 373.768 38.4545 373.768 38.2017C373.768 37.9972 373.692 37.8253 373.538 37.6861C373.388 37.5469 373.156 37.4418 372.844 37.3707L371.736 37.1278C371.125 36.9886 370.673 36.767 370.381 36.4631C370.091 36.1591 369.946 35.7741 369.946 35.3082C369.946 34.9219 370.054 34.5838 370.27 34.294C370.486 34.0043 370.784 33.7784 371.165 33.6165C371.545 33.4517 371.982 33.3693 372.473 33.3693C373.18 33.3693 373.737 33.5227 374.143 33.8295C374.55 34.1335 374.818 34.5412 374.949 35.0526Z" fill="#333333"/>
<rect x="391.5" y="29.5" width="22" height="12" rx="6" fill="#169ED9"/>
<rect x="402.5" y="30.5" width="10" height="10" rx="5" fill="white"/>
<path d="M423.219 33.5653C423.173 33.1619 422.986 32.8494 422.656 32.6278C422.327 32.4034 421.912 32.2912 421.412 32.2912C421.054 32.2912 420.744 32.348 420.483 32.4616C420.222 32.5724 420.018 32.7259 419.874 32.9219C419.732 33.1151 419.661 33.3352 419.661 33.5824C419.661 33.7898 419.709 33.9687 419.805 34.1193C419.905 34.2699 420.034 34.3963 420.193 34.4986C420.355 34.598 420.528 34.6818 420.713 34.75C420.898 34.8153 421.075 34.8693 421.246 34.9119L422.098 35.1335C422.376 35.2017 422.662 35.294 422.955 35.4105C423.247 35.527 423.518 35.6804 423.768 35.8707C424.018 36.0611 424.22 36.2969 424.374 36.5781C424.53 36.8594 424.608 37.196 424.608 37.5881C424.608 38.0824 424.48 38.5213 424.224 38.9048C423.972 39.2884 423.604 39.5909 423.121 39.8125C422.641 40.0341 422.06 40.1449 421.378 40.1449C420.724 40.1449 420.159 40.0412 419.682 39.8338C419.205 39.6264 418.831 39.3324 418.561 38.9517C418.291 38.5682 418.142 38.1136 418.114 37.5881H419.435C419.46 37.9034 419.563 38.1662 419.741 38.3764C419.923 38.5838 420.155 38.7386 420.436 38.8409C420.72 38.9403 421.031 38.9901 421.369 38.9901C421.741 38.9901 422.072 38.9318 422.362 38.8153C422.655 38.696 422.885 38.5312 423.053 38.321C423.22 38.108 423.304 37.8594 423.304 37.5753C423.304 37.3168 423.23 37.1051 423.082 36.9403C422.938 36.7756 422.74 36.6392 422.49 36.5312C422.243 36.4233 421.963 36.3281 421.651 36.2457L420.619 35.9645C419.92 35.7741 419.366 35.4943 418.957 35.125C418.551 34.7557 418.348 34.267 418.348 33.6591C418.348 33.1562 418.484 32.7173 418.757 32.3423C419.03 31.9673 419.399 31.6761 419.865 31.4688C420.331 31.2585 420.857 31.1534 421.442 31.1534C422.033 31.1534 422.554 31.2571 423.006 31.4645C423.46 31.6719 423.818 31.9574 424.08 32.321C424.341 32.6818 424.477 33.0966 424.489 33.5653H423.219ZM427.353 36.1136V40H426.079V31.2727H427.336V34.5199H427.417C427.571 34.1676 427.805 33.8878 428.12 33.6804C428.436 33.473 428.848 33.3693 429.356 33.3693C429.805 33.3693 430.197 33.4616 430.532 33.6463C430.87 33.831 431.132 34.1065 431.316 34.473C431.504 34.8366 431.598 35.2912 431.598 35.8366V40H430.324V35.9901C430.324 35.5099 430.2 35.1378 429.953 34.8736C429.706 34.6065 429.362 34.473 428.922 34.473C428.62 34.473 428.35 34.5369 428.112 34.6648C427.876 34.7926 427.69 34.9801 427.554 35.2273C427.42 35.4716 427.353 35.767 427.353 36.1136ZM436.055 40.1321C435.441 40.1321 434.906 39.9915 434.449 39.7102C433.991 39.429 433.636 39.0355 433.383 38.5298C433.13 38.0241 433.004 37.4332 433.004 36.7571C433.004 36.0781 433.13 35.4844 433.383 34.9759C433.636 34.4673 433.991 34.0724 434.449 33.7912C434.906 33.5099 435.441 33.3693 436.055 33.3693C436.669 33.3693 437.204 33.5099 437.662 33.7912C438.119 34.0724 438.474 34.4673 438.727 34.9759C438.98 35.4844 439.106 36.0781 439.106 36.7571C439.106 37.4332 438.98 38.0241 438.727 38.5298C438.474 39.0355 438.119 39.429 437.662 39.7102C437.204 39.9915 436.669 40.1321 436.055 40.1321ZM436.059 39.0625C436.457 39.0625 436.787 38.9574 437.048 38.7472C437.309 38.5369 437.502 38.2571 437.627 37.9077C437.755 37.5582 437.819 37.1733 437.819 36.7528C437.819 36.3352 437.755 35.9517 437.627 35.6023C437.502 35.25 437.309 34.9673 437.048 34.7543C436.787 34.5412 436.457 34.4347 436.059 34.4347C435.659 34.4347 435.326 34.5412 435.062 34.7543C434.801 34.9673 434.606 35.25 434.478 35.6023C434.353 35.9517 434.291 36.3352 434.291 36.7528C434.291 37.1733 434.353 37.5582 434.478 37.9077C434.606 38.2571 434.801 38.5369 435.062 38.7472C435.326 38.9574 435.659 39.0625 436.059 39.0625ZM440.528 40V33.4545H441.76V34.4943H441.828C441.947 34.142 442.158 33.8651 442.459 33.6634C442.763 33.4588 443.107 33.3565 443.49 33.3565C443.57 33.3565 443.663 33.3594 443.771 33.3651C443.882 33.3707 443.969 33.3778 444.031 33.3864V34.6051C443.98 34.5909 443.889 34.5753 443.759 34.5582C443.628 34.5384 443.497 34.5284 443.366 34.5284C443.065 34.5284 442.797 34.5923 442.561 34.7202C442.328 34.8452 442.143 35.0199 442.007 35.2443C441.871 35.4659 441.803 35.7187 441.803 36.0028V40H440.528ZM448.576 33.4545V34.4773H445.001V33.4545H448.576ZM445.96 31.8864H447.234V38.0781C447.234 38.3253 447.271 38.5114 447.344 38.6364C447.418 38.7585 447.513 38.8423 447.63 38.8878C447.749 38.9304 447.879 38.9517 448.018 38.9517C448.12 38.9517 448.21 38.9446 448.286 38.9304C448.363 38.9162 448.423 38.9048 448.465 38.8963L448.695 39.9489C448.621 39.9773 448.516 40.0057 448.38 40.0341C448.244 40.0653 448.073 40.0824 447.869 40.0852C447.533 40.0909 447.221 40.0312 446.931 39.9062C446.641 39.7812 446.407 39.5881 446.228 39.3267C446.049 39.0653 445.96 38.7372 445.96 38.3423V31.8864ZM451.4 31.2727V40H450.126V31.2727H451.4ZM453.114 40V33.4545H454.388V40H453.114ZM453.758 32.4446C453.536 32.4446 453.346 32.3707 453.187 32.223C453.031 32.0724 452.952 31.8935 452.952 31.6861C452.952 31.4759 453.031 31.2969 453.187 31.1491C453.346 30.9986 453.536 30.9233 453.758 30.9233C453.979 30.9233 454.168 30.9986 454.325 31.1491C454.484 31.2969 454.563 31.4759 454.563 31.6861C454.563 31.8935 454.484 32.0724 454.325 32.223C454.168 32.3707 453.979 32.4446 453.758 32.4446ZM461.007 35.0526L459.853 35.2571C459.804 35.1094 459.728 34.9687 459.623 34.8352C459.52 34.7017 459.381 34.5923 459.205 34.5071C459.029 34.4219 458.809 34.3793 458.544 34.3793C458.184 34.3793 457.882 34.4602 457.641 34.6222C457.4 34.7812 457.279 34.9872 457.279 35.2401C457.279 35.4588 457.36 35.6349 457.522 35.7685C457.684 35.902 457.945 36.0114 458.306 36.0966L459.346 36.3352C459.948 36.4744 460.397 36.6889 460.692 36.9787C460.988 37.2685 461.135 37.6449 461.135 38.108C461.135 38.5 461.022 38.8494 460.794 39.1562C460.57 39.4602 460.256 39.6989 459.853 39.8722C459.452 40.0455 458.988 40.1321 458.459 40.1321C457.726 40.1321 457.128 39.9759 456.665 39.6634C456.202 39.348 455.918 38.9006 455.813 38.321L457.044 38.1335C457.121 38.4545 457.279 38.6974 457.517 38.8622C457.756 39.0241 458.067 39.1051 458.451 39.1051C458.868 39.1051 459.202 39.0185 459.452 38.8452C459.702 38.669 459.827 38.4545 459.827 38.2017C459.827 37.9972 459.75 37.8253 459.597 37.6861C459.446 37.5469 459.215 37.4418 458.902 37.3707L457.794 37.1278C457.184 36.9886 456.732 36.767 456.439 36.4631C456.15 36.1591 456.005 35.7741 456.005 35.3082C456.005 34.9219 456.113 34.5838 456.328 34.294C456.544 34.0043 456.843 33.7784 457.223 33.6165C457.604 33.4517 458.04 33.3693 458.532 33.3693C459.239 33.3693 459.796 33.5227 460.202 33.8295C460.608 34.1335 460.877 34.5412 461.007 35.0526ZM465.592 33.4545V34.4773H462.016V33.4545H465.592ZM462.975 31.8864H464.249V38.0781C464.249 38.3253 464.286 38.5114 464.36 38.6364C464.434 38.7585 464.529 38.8423 464.646 38.8878C464.765 38.9304 464.894 38.9517 465.033 38.9517C465.136 38.9517 465.225 38.9446 465.302 38.9304C465.379 38.9162 465.438 38.9048 465.481 38.8963L465.711 39.9489C465.637 39.9773 465.532 40.0057 465.396 40.0341C465.259 40.0653 465.089 40.0824 464.884 40.0852C464.549 40.0909 464.237 40.0312 463.947 39.9062C463.657 39.7812 463.423 39.5881 463.244 39.3267C463.065 39.0653 462.975 38.7372 462.975 38.3423V31.8864ZM469.752 40.1321C469.107 40.1321 468.551 39.9943 468.086 39.7188C467.623 39.4403 467.265 39.0497 467.012 38.5469C466.762 38.0412 466.637 37.4489 466.637 36.7699C466.637 36.0994 466.762 35.5085 467.012 34.9972C467.265 34.4858 467.617 34.0866 468.069 33.7997C468.523 33.5128 469.054 33.3693 469.662 33.3693C470.032 33.3693 470.39 33.4304 470.736 33.5526C471.083 33.6747 471.394 33.8665 471.669 34.1278C471.945 34.3892 472.162 34.7287 472.321 35.1463C472.48 35.5611 472.56 36.0653 472.56 36.6591V37.1108H467.357V36.1562H471.311C471.311 35.821 471.243 35.5241 471.107 35.2656C470.971 35.0043 470.779 34.7983 470.532 34.6477C470.287 34.4972 470 34.4219 469.671 34.4219C469.313 34.4219 469 34.5099 468.733 34.6861C468.469 34.8594 468.265 35.0866 468.12 35.3679C467.978 35.6463 467.907 35.9489 467.907 36.2756V37.0213C467.907 37.4588 467.983 37.831 468.137 38.1378C468.293 38.4446 468.51 38.679 468.789 38.8409C469.067 39 469.392 39.0795 469.765 39.0795C470.006 39.0795 470.226 39.0455 470.425 38.9773C470.624 38.9062 470.796 38.8011 470.941 38.6619C471.086 38.5227 471.196 38.3509 471.273 38.1463L472.479 38.3636C472.382 38.7187 472.209 39.0298 471.959 39.2969C471.712 39.5611 471.401 39.767 471.026 39.9148C470.654 40.0597 470.229 40.1321 469.752 40.1321ZM476.424 40.1278C475.896 40.1278 475.424 39.9929 475.009 39.723C474.597 39.4503 474.273 39.0625 474.038 38.5597C473.805 38.054 473.688 37.4474 473.688 36.7401C473.688 36.0327 473.806 35.4276 474.042 34.9247C474.281 34.4219 474.607 34.0369 475.022 33.7699C475.437 33.5028 475.907 33.3693 476.433 33.3693C476.839 33.3693 477.165 33.4375 477.413 33.5739C477.663 33.7074 477.856 33.8636 477.992 34.0426C478.131 34.2216 478.239 34.3793 478.316 34.5156H478.393V31.2727H479.667V40H478.423V38.9815H478.316C478.239 39.1207 478.129 39.2798 477.984 39.4588C477.842 39.6378 477.646 39.794 477.396 39.9276C477.146 40.0611 476.822 40.1278 476.424 40.1278ZM476.705 39.0412C477.072 39.0412 477.381 38.9446 477.634 38.7514C477.89 38.5554 478.083 38.2841 478.214 37.9375C478.347 37.5909 478.414 37.1875 478.414 36.7273C478.414 36.2727 478.349 35.875 478.218 35.5341C478.087 35.1932 477.896 34.9276 477.643 34.7372C477.39 34.5469 477.077 34.4517 476.705 34.4517C476.322 34.4517 476.002 34.5511 475.746 34.75C475.491 34.9489 475.298 35.2202 475.167 35.5639C475.039 35.9077 474.975 36.2955 474.975 36.7273C474.975 37.1648 475.04 37.5582 475.171 37.9077C475.302 38.2571 475.495 38.5341 475.751 38.7386C476.009 38.9403 476.327 39.0412 476.705 39.0412Z" fill="#101317"/>
<rect x="495.5" y="20.5" width="59" height="30" rx="9.5" stroke="#F0F0F0"/>
<path d="M508.784 40H505.959V31.2727H508.874C509.729 31.2727 510.463 31.4474 511.077 31.7969C511.69 32.1435 512.161 32.642 512.487 33.2926C512.817 33.9403 512.982 34.7173 512.982 35.6236C512.982 36.5327 512.815 37.3139 512.483 37.9673C512.153 38.6207 511.676 39.1236 511.051 39.4759C510.426 39.8253 509.67 40 508.784 40ZM507.276 38.8494H508.712C509.376 38.8494 509.929 38.7244 510.369 38.4744C510.81 38.2216 511.139 37.8565 511.358 37.3793C511.577 36.8991 511.686 36.3139 511.686 35.6236C511.686 34.9389 511.577 34.358 511.358 33.8807C511.142 33.4034 510.82 33.0412 510.391 32.794C509.962 32.5469 509.429 32.4233 508.793 32.4233H507.276V38.8494ZM516.422 40.1449C516.007 40.1449 515.632 40.0682 515.297 39.9148C514.961 39.7585 514.696 39.5327 514.5 39.2372C514.306 38.9418 514.21 38.5795 514.21 38.1506C514.21 37.7812 514.281 37.4773 514.423 37.2386C514.565 37 514.757 36.8111 514.998 36.6719C515.24 36.5327 515.51 36.4276 515.808 36.3565C516.106 36.2855 516.41 36.2315 516.72 36.1946C517.112 36.1491 517.43 36.1122 517.674 36.0838C517.919 36.0526 518.096 36.0028 518.207 35.9347C518.318 35.8665 518.373 35.7557 518.373 35.6023V35.5724C518.373 35.2003 518.268 34.9119 518.058 34.7074C517.85 34.5028 517.541 34.4006 517.129 34.4006C516.7 34.4006 516.362 34.4957 516.115 34.6861C515.87 34.8736 515.701 35.0824 515.608 35.3125L514.41 35.0398C514.552 34.642 514.76 34.321 515.032 34.0767C515.308 33.8295 515.625 33.6506 515.983 33.5398C516.341 33.4261 516.717 33.3693 517.112 33.3693C517.373 33.3693 517.65 33.4006 517.943 33.4631C518.238 33.5227 518.514 33.6335 518.77 33.7955C519.028 33.9574 519.24 34.1889 519.404 34.4901C519.569 34.7884 519.652 35.1761 519.652 35.6534V40H518.407V39.1051H518.356C518.274 39.2699 518.15 39.4318 517.985 39.5909C517.821 39.75 517.609 39.8821 517.35 39.9872C517.092 40.0923 516.782 40.1449 516.422 40.1449ZM516.699 39.1222C517.051 39.1222 517.352 39.0526 517.602 38.9134C517.855 38.7741 518.047 38.5923 518.177 38.3679C518.311 38.1406 518.377 37.8977 518.377 37.6392V36.7955C518.332 36.8409 518.244 36.8835 518.113 36.9233C517.985 36.9602 517.839 36.9929 517.674 37.0213C517.51 37.0469 517.349 37.071 517.193 37.0938C517.037 37.1136 516.906 37.1307 516.801 37.1449C516.554 37.1761 516.328 37.2287 516.123 37.3026C515.922 37.3764 515.76 37.483 515.637 37.6222C515.518 37.7585 515.458 37.9403 515.458 38.1676C515.458 38.483 515.575 38.7216 515.808 38.8835C516.041 39.0426 516.338 39.1222 516.699 39.1222ZM521.92 42.4545C521.729 42.4545 521.556 42.4389 521.4 42.4077C521.244 42.3793 521.127 42.348 521.05 42.3139L521.357 41.2699C521.59 41.3324 521.798 41.3594 521.979 41.3509C522.161 41.3423 522.322 41.2741 522.461 41.1463C522.603 41.0185 522.728 40.8097 522.836 40.5199L522.994 40.0852L520.599 33.4545H521.962L523.62 38.5341H523.688L525.346 33.4545H526.714L524.016 40.8736C523.891 41.2145 523.732 41.5028 523.539 41.7386C523.346 41.9773 523.116 42.1563 522.849 42.2756C522.582 42.3949 522.272 42.4545 521.92 42.4545Z" fill="#333333"/>
<path d="M535.748 32.9998C535.938 32.9998 536.128 33.0698 536.278 33.2198L539.278 36.2198L542.278 33.2198C542.568 32.9298 543.048 32.9298 543.338 33.2198C543.628 33.5098 543.628 33.9898 543.338 34.2798L539.808 37.8098C539.518 38.0998 539.038 38.0998 538.748 37.8098L535.218 34.2798C534.928 33.9898 534.928 33.5098 535.218 33.2198C535.368 33.0698 535.558 32.9998 535.748 32.9998Z" fill="#333333"/>
<path d="M25.1506 111.273V120H23.8295V112.594H23.7784L21.6903 113.957V112.696L23.8679 111.273H25.1506ZM30.5497 120.145C29.8764 120.142 29.3011 119.964 28.8239 119.612C28.3466 119.26 27.9815 118.747 27.7287 118.074C27.4759 117.401 27.3494 116.589 27.3494 115.641C27.3494 114.695 27.4759 113.886 27.7287 113.216C27.9844 112.545 28.3509 112.034 28.8281 111.682C29.3082 111.33 29.8821 111.153 30.5497 111.153C31.2173 111.153 31.7898 111.331 32.267 111.686C32.7443 112.038 33.1094 112.55 33.3622 113.22C33.6179 113.888 33.7457 114.695 33.7457 115.641C33.7457 116.592 33.6193 117.405 33.3665 118.078C33.1136 118.749 32.7486 119.261 32.2713 119.616C31.794 119.969 31.2202 120.145 30.5497 120.145ZM30.5497 119.007C31.1406 119.007 31.6023 118.719 31.9347 118.142C32.2699 117.565 32.4375 116.732 32.4375 115.641C32.4375 114.916 32.3608 114.304 32.2074 113.804C32.0568 113.301 31.8395 112.92 31.5554 112.662C31.2741 112.401 30.9389 112.27 30.5497 112.27C29.9616 112.27 29.5 112.56 29.1648 113.139C28.8295 113.719 28.6605 114.553 28.6577 115.641C28.6577 116.368 28.733 116.983 28.8835 117.486C29.0369 117.986 29.2543 118.365 29.5355 118.624C29.8168 118.879 30.1548 119.007 30.5497 119.007ZM38.2958 120.145C37.6225 120.142 37.0472 119.964 36.57 119.612C36.0927 119.26 35.7276 118.747 35.4748 118.074C35.2219 117.401 35.0955 116.589 35.0955 115.641C35.0955 114.695 35.2219 113.886 35.4748 113.216C35.7305 112.545 36.0969 112.034 36.5742 111.682C37.0543 111.33 37.6282 111.153 38.2958 111.153C38.9634 111.153 39.5359 111.331 40.0131 111.686C40.4904 112.038 40.8555 112.55 41.1083 113.22C41.364 113.888 41.4918 114.695 41.4918 115.641C41.4918 116.592 41.3654 117.405 41.1126 118.078C40.8597 118.749 40.4947 119.261 40.0174 119.616C39.5401 119.969 38.9663 120.145 38.2958 120.145ZM38.2958 119.007C38.8867 119.007 39.3484 118.719 39.6808 118.142C40.016 117.565 40.1836 116.732 40.1836 115.641C40.1836 114.916 40.1069 114.304 39.9535 113.804C39.8029 113.301 39.5856 112.92 39.3015 112.662C39.0202 112.401 38.685 112.27 38.2958 112.27C37.7077 112.27 37.2461 112.56 36.9109 113.139C36.5756 113.719 36.4066 114.553 36.4038 115.641C36.4038 116.368 36.479 116.983 36.6296 117.486C36.783 117.986 37.0004 118.365 37.2816 118.624C37.5629 118.879 37.9009 119.007 38.2958 119.007ZM47.5589 118.364V117.903C47.5589 117.574 47.6271 117.273 47.7635 117C47.9027 116.724 48.1044 116.504 48.3686 116.339C48.6357 116.172 48.9581 116.088 49.3359 116.088C49.7223 116.088 50.0462 116.17 50.3075 116.335C50.5689 116.5 50.7663 116.72 50.8999 116.996C51.0362 117.271 51.1044 117.574 51.1044 117.903V118.364C51.1044 118.693 51.0362 118.996 50.8999 119.271C50.7635 119.544 50.5632 119.764 50.299 119.932C50.0376 120.097 49.7166 120.179 49.3359 120.179C48.9524 120.179 48.6286 120.097 48.3643 119.932C48.1001 119.764 47.8999 119.544 47.7635 119.271C47.6271 118.996 47.5589 118.693 47.5589 118.364ZM48.5518 117.903V118.364C48.5518 118.608 48.6101 118.83 48.7266 119.028C48.843 119.227 49.0462 119.327 49.3359 119.327C49.6229 119.327 49.8232 119.227 49.9368 119.028C50.0504 118.83 50.1072 118.608 50.1072 118.364V117.903C50.1072 117.659 50.0518 117.437 49.9411 117.239C49.8331 117.04 49.6314 116.94 49.3359 116.94C49.0518 116.94 48.8501 117.04 48.7308 117.239C48.6115 117.437 48.5518 117.659 48.5518 117.903ZM43.1697 113.369V112.909C43.1697 112.58 43.2379 112.277 43.3743 112.001C43.5135 111.726 43.7152 111.506 43.9794 111.341C44.2464 111.176 44.5689 111.094 44.9467 111.094C45.3331 111.094 45.657 111.176 45.9183 111.341C46.1797 111.506 46.3771 111.726 46.5107 112.001C46.6442 112.277 46.7109 112.58 46.7109 112.909V113.369C46.7109 113.699 46.6428 114.001 46.5064 114.277C46.3729 114.55 46.174 114.77 45.9098 114.938C45.6484 115.102 45.3274 115.185 44.9467 115.185C44.5604 115.185 44.2351 115.102 43.9709 114.938C43.7095 114.77 43.5107 114.55 43.3743 114.277C43.2379 114.001 43.1697 113.699 43.1697 113.369ZM44.1669 112.909V113.369C44.1669 113.614 44.2237 113.835 44.3374 114.034C44.4538 114.233 44.657 114.332 44.9467 114.332C45.2308 114.332 45.4297 114.233 45.5433 114.034C45.6598 113.835 45.718 113.614 45.718 113.369V112.909C45.718 112.665 45.6626 112.443 45.5518 112.244C45.4411 112.045 45.2393 111.946 44.9467 111.946C44.6626 111.946 44.4609 112.045 44.3416 112.244C44.2251 112.443 44.1669 112.665 44.1669 112.909ZM43.5746 120L49.5746 111.273H50.593L44.593 120H43.5746Z" fill="#718096"/>
<line x1="72" y1="121.5" x2="555" y2="121.5" stroke="#F7F8FA"/>
<path d="M24.7415 152.153C25.1307 152.156 25.5142 152.227 25.892 152.366C26.2699 152.506 26.6108 152.733 26.9148 153.048C27.2216 153.364 27.4659 153.79 27.6477 154.327C27.8324 154.861 27.9261 155.526 27.929 156.321C27.929 157.085 27.8523 157.766 27.6989 158.362C27.5455 158.956 27.3253 159.457 27.0384 159.866C26.7543 160.276 26.4091 160.587 26.0028 160.8C25.5966 161.013 25.1392 161.119 24.6307 161.119C24.1108 161.119 23.6491 161.017 23.2457 160.812C22.8423 160.608 22.5142 160.325 22.2614 159.964C22.0085 159.601 21.8509 159.183 21.7884 158.712H23.0881C23.1733 159.087 23.3466 159.391 23.608 159.624C23.8722 159.854 24.2131 159.969 24.6307 159.969C25.2699 159.969 25.7685 159.69 26.1264 159.134C26.4844 158.574 26.6648 157.793 26.6676 156.79H26.5994C26.4517 157.034 26.267 157.244 26.0455 157.42C25.8267 157.597 25.581 157.733 25.3082 157.83C25.0355 157.926 24.7443 157.974 24.4347 157.974C23.9318 157.974 23.4744 157.851 23.0625 157.604C22.6506 157.357 22.3224 157.017 22.0781 156.585C21.8338 156.153 21.7116 155.661 21.7116 155.107C21.7116 154.555 21.8366 154.055 22.0866 153.607C22.3395 153.158 22.6918 152.803 23.1435 152.541C23.598 152.277 24.1307 152.148 24.7415 152.153ZM24.7457 153.261C24.4134 153.261 24.1136 153.344 23.8466 153.509C23.5824 153.67 23.3736 153.891 23.2202 154.169C23.0668 154.445 22.9901 154.751 22.9901 155.089C22.9901 155.428 23.0639 155.734 23.2116 156.01C23.3622 156.283 23.5668 156.5 23.8253 156.662C24.0866 156.821 24.3849 156.901 24.7202 156.901C24.9702 156.901 25.2031 156.852 25.419 156.756C25.6349 156.659 25.8239 156.526 25.9858 156.355C26.1477 156.182 26.2741 155.986 26.3651 155.767C26.456 155.548 26.5014 155.318 26.5014 155.077C26.5014 154.756 26.4247 154.457 26.2713 154.182C26.1207 153.906 25.9134 153.685 25.6491 153.517C25.3849 153.347 25.0838 153.261 24.7457 153.261ZM32.5067 161.145C31.8335 161.142 31.2582 160.964 30.7809 160.612C30.3036 160.26 29.9386 159.747 29.6857 159.074C29.4329 158.401 29.3065 157.589 29.3065 156.641C29.3065 155.695 29.4329 154.886 29.6857 154.216C29.9414 153.545 30.3079 153.034 30.7852 152.682C31.2653 152.33 31.8391 152.153 32.5067 152.153C33.1744 152.153 33.7468 152.331 34.2241 152.686C34.7013 153.038 35.0664 153.55 35.3192 154.22C35.5749 154.888 35.7028 155.695 35.7028 156.641C35.7028 157.592 35.5763 158.405 35.3235 159.078C35.0707 159.749 34.7056 160.261 34.2283 160.616C33.7511 160.969 33.1772 161.145 32.5067 161.145ZM32.5067 160.007C33.0977 160.007 33.5593 159.719 33.8917 159.142C34.2269 158.565 34.3945 157.732 34.3945 156.641C34.3945 155.916 34.3178 155.304 34.1644 154.804C34.0138 154.301 33.7965 153.92 33.5124 153.662C33.2312 153.401 32.896 153.27 32.5067 153.27C31.9187 153.27 31.457 153.56 31.1218 154.139C30.7866 154.719 30.6175 155.553 30.6147 156.641C30.6147 157.368 30.69 157.983 30.8406 158.486C30.994 158.986 31.2113 159.365 31.4925 159.624C31.7738 159.879 32.1119 160.007 32.5067 160.007ZM41.7699 159.364V158.903C41.7699 158.574 41.8381 158.273 41.9744 158C42.1136 157.724 42.3153 157.504 42.5795 157.339C42.8466 157.172 43.169 157.088 43.5469 157.088C43.9332 157.088 44.2571 157.17 44.5185 157.335C44.7798 157.5 44.9773 157.72 45.1108 157.996C45.2472 158.271 45.3153 158.574 45.3153 158.903V159.364C45.3153 159.693 45.2472 159.996 45.1108 160.271C44.9744 160.544 44.7741 160.764 44.5099 160.932C44.2486 161.097 43.9276 161.179 43.5469 161.179C43.1634 161.179 42.8395 161.097 42.5753 160.932C42.3111 160.764 42.1108 160.544 41.9744 160.271C41.8381 159.996 41.7699 159.693 41.7699 159.364ZM42.7628 158.903V159.364C42.7628 159.608 42.821 159.83 42.9375 160.028C43.054 160.227 43.2571 160.327 43.5469 160.327C43.8338 160.327 44.0341 160.227 44.1477 160.028C44.2614 159.83 44.3182 159.608 44.3182 159.364V158.903C44.3182 158.659 44.2628 158.437 44.152 158.239C44.044 158.04 43.8423 157.94 43.5469 157.94C43.2628 157.94 43.0611 158.04 42.9418 158.239C42.8224 158.437 42.7628 158.659 42.7628 158.903ZM37.3807 154.369V153.909C37.3807 153.58 37.4489 153.277 37.5852 153.001C37.7244 152.726 37.9261 152.506 38.1903 152.341C38.4574 152.176 38.7798 152.094 39.1577 152.094C39.544 152.094 39.8679 152.176 40.1293 152.341C40.3906 152.506 40.5881 152.726 40.7216 153.001C40.8551 153.277 40.9219 153.58 40.9219 153.909V154.369C40.9219 154.699 40.8537 155.001 40.7173 155.277C40.5838 155.55 40.3849 155.77 40.1207 155.938C39.8594 156.102 39.5384 156.185 39.1577 156.185C38.7713 156.185 38.446 156.102 38.1818 155.938C37.9205 155.77 37.7216 155.55 37.5852 155.277C37.4489 155.001 37.3807 154.699 37.3807 154.369ZM38.3778 153.909V154.369C38.3778 154.614 38.4347 154.835 38.5483 155.034C38.6648 155.233 38.8679 155.332 39.1577 155.332C39.4418 155.332 39.6406 155.233 39.7543 155.034C39.8707 154.835 39.929 154.614 39.929 154.369V153.909C39.929 153.665 39.8736 153.443 39.7628 153.244C39.652 153.045 39.4503 152.946 39.1577 152.946C38.8736 152.946 38.6719 153.045 38.5526 153.244C38.4361 153.443 38.3778 153.665 38.3778 153.909ZM37.7855 161L43.7855 152.273H44.804L38.804 161H37.7855Z" fill="#718096"/>
<line x1="71" y1="162.5" x2="555" y2="162.5" stroke="#F7F8FA"/>
<path d="M24.7884 202.119C24.1776 202.119 23.6378 202.014 23.169 201.804C22.7031 201.594 22.3381 201.304 22.0739 200.935C21.8097 200.565 21.679 200.145 21.6818 199.673C21.679 199.304 21.7543 198.964 21.9077 198.655C22.0639 198.342 22.2756 198.082 22.5426 197.875C22.8097 197.665 23.108 197.531 23.4375 197.474V197.423C23.0028 197.318 22.6548 197.085 22.3935 196.724C22.1321 196.364 22.0028 195.949 22.0057 195.48C22.0028 195.034 22.1207 194.636 22.3594 194.287C22.6009 193.935 22.9318 193.658 23.3523 193.456C23.7727 193.254 24.2514 193.153 24.7884 193.153C25.3196 193.153 25.794 193.256 26.2116 193.46C26.6321 193.662 26.9631 193.939 27.2045 194.291C27.446 194.641 27.5682 195.037 27.571 195.48C27.5682 195.949 27.4347 196.364 27.1705 196.724C26.9063 197.085 26.5625 197.318 26.1392 197.423V197.474C26.4659 197.531 26.7599 197.665 27.0213 197.875C27.2855 198.082 27.4957 198.342 27.652 198.655C27.8111 198.964 27.892 199.304 27.8949 199.673C27.892 200.145 27.7585 200.565 27.4943 200.935C27.2301 201.304 26.8636 201.594 26.3949 201.804C25.929 202.014 25.3935 202.119 24.7884 202.119ZM24.7884 201.041C25.1491 201.041 25.4616 200.982 25.7259 200.862C25.9901 200.74 26.1946 200.571 26.3395 200.355C26.4844 200.136 26.5582 199.881 26.5611 199.588C26.5582 199.284 26.4787 199.016 26.3224 198.783C26.169 198.55 25.9602 198.366 25.696 198.233C25.4318 198.099 25.1293 198.033 24.7884 198.033C24.4446 198.033 24.1392 198.099 23.8722 198.233C23.6051 198.366 23.3949 198.55 23.2415 198.783C23.0881 199.016 23.0128 199.284 23.0156 199.588C23.0128 199.881 23.0824 200.136 23.2244 200.355C23.3693 200.571 23.5753 200.74 23.8423 200.862C24.1094 200.982 24.4247 201.041 24.7884 201.041ZM24.7884 196.98C25.0781 196.98 25.3352 196.922 25.5597 196.805C25.7841 196.689 25.9602 196.527 26.0881 196.32C26.2188 196.112 26.2855 195.869 26.2884 195.591C26.2855 195.318 26.2202 195.08 26.0923 194.875C25.9673 194.67 25.7926 194.513 25.5682 194.402C25.3438 194.288 25.0838 194.232 24.7884 194.232C24.4872 194.232 24.223 194.288 23.9957 194.402C23.7713 194.513 23.5966 194.67 23.4716 194.875C23.3466 195.08 23.2855 195.318 23.2884 195.591C23.2855 195.869 23.348 196.112 23.4759 196.32C23.6037 196.527 23.7798 196.689 24.0043 196.805C24.2315 196.922 24.4929 196.98 24.7884 196.98ZM32.4599 202.145C31.7866 202.142 31.2113 201.964 30.734 201.612C30.2567 201.26 29.8917 200.747 29.6388 200.074C29.386 199.401 29.2596 198.589 29.2596 197.641C29.2596 196.695 29.386 195.886 29.6388 195.216C29.8945 194.545 30.261 194.034 30.7383 193.682C31.2184 193.33 31.7923 193.153 32.4599 193.153C33.1275 193.153 33.6999 193.331 34.1772 193.686C34.6545 194.038 35.0195 194.55 35.2724 195.22C35.5281 195.888 35.6559 196.695 35.6559 197.641C35.6559 198.592 35.5295 199.405 35.2766 200.078C35.0238 200.749 34.6587 201.261 34.1815 201.616C33.7042 201.969 33.1303 202.145 32.4599 202.145ZM32.4599 201.007C33.0508 201.007 33.5124 200.719 33.8448 200.142C34.18 199.565 34.3477 198.732 34.3477 197.641C34.3477 196.916 34.271 196.304 34.1175 195.804C33.967 195.301 33.7496 194.92 33.4656 194.662C33.1843 194.401 32.8491 194.27 32.4599 194.27C31.8718 194.27 31.4102 194.56 31.0749 195.139C30.7397 195.719 30.5707 196.553 30.5678 197.641C30.5678 198.368 30.6431 198.983 30.7937 199.486C30.9471 199.986 31.1644 200.365 31.4457 200.624C31.7269 200.879 32.065 201.007 32.4599 201.007ZM41.723 200.364V199.903C41.723 199.574 41.7912 199.273 41.9276 199C42.0668 198.724 42.2685 198.504 42.5327 198.339C42.7997 198.172 43.1222 198.088 43.5 198.088C43.8864 198.088 44.2102 198.17 44.4716 198.335C44.733 198.5 44.9304 198.72 45.0639 198.996C45.2003 199.271 45.2685 199.574 45.2685 199.903V200.364C45.2685 200.693 45.2003 200.996 45.0639 201.271C44.9276 201.544 44.7273 201.764 44.4631 201.932C44.2017 202.097 43.8807 202.179 43.5 202.179C43.1165 202.179 42.7926 202.097 42.5284 201.932C42.2642 201.764 42.0639 201.544 41.9276 201.271C41.7912 200.996 41.723 200.693 41.723 200.364ZM42.7159 199.903V200.364C42.7159 200.608 42.7741 200.83 42.8906 201.028C43.0071 201.227 43.2102 201.327 43.5 201.327C43.7869 201.327 43.9872 201.227 44.1009 201.028C44.2145 200.83 44.2713 200.608 44.2713 200.364V199.903C44.2713 199.659 44.2159 199.437 44.1051 199.239C43.9972 199.04 43.7955 198.94 43.5 198.94C43.2159 198.94 43.0142 199.04 42.8949 199.239C42.7756 199.437 42.7159 199.659 42.7159 199.903ZM37.3338 195.369V194.909C37.3338 194.58 37.402 194.277 37.5384 194.001C37.6776 193.726 37.8793 193.506 38.1435 193.341C38.4105 193.176 38.733 193.094 39.1108 193.094C39.4972 193.094 39.821 193.176 40.0824 193.341C40.3438 193.506 40.5412 193.726 40.6747 194.001C40.8082 194.277 40.875 194.58 40.875 194.909V195.369C40.875 195.699 40.8068 196.001 40.6705 196.277C40.5369 196.55 40.3381 196.77 40.0739 196.938C39.8125 197.102 39.4915 197.185 39.1108 197.185C38.7244 197.185 38.3991 197.102 38.1349 196.938C37.8736 196.77 37.6747 196.55 37.5384 196.277C37.402 196.001 37.3338 195.699 37.3338 195.369ZM38.331 194.909V195.369C38.331 195.614 38.3878 195.835 38.5014 196.034C38.6179 196.233 38.821 196.332 39.1108 196.332C39.3949 196.332 39.5938 196.233 39.7074 196.034C39.8239 195.835 39.8821 195.614 39.8821 195.369V194.909C39.8821 194.665 39.8267 194.443 39.7159 194.244C39.6051 194.045 39.4034 193.946 39.1108 193.946C38.8267 193.946 38.625 194.045 38.5057 194.244C38.3892 194.443 38.331 194.665 38.331 194.909ZM37.7386 202L43.7386 193.273H44.7571L38.7571 202H37.7386Z" fill="#718096"/>
<line x1="71" y1="203.5" x2="555" y2="203.5" stroke="#F7F8FA"/>
<path d="M24.8864 243.119C24.4972 243.114 24.1136 243.043 23.7358 242.906C23.3608 242.77 23.0199 242.543 22.7131 242.224C22.4063 241.906 22.1605 241.479 21.9759 240.942C21.794 240.405 21.7031 239.734 21.7031 238.93C21.7031 238.169 21.7784 237.493 21.929 236.902C22.0824 236.311 22.3026 235.812 22.5895 235.406C22.8764 234.997 23.223 234.686 23.6293 234.473C24.0355 234.26 24.4915 234.153 24.9972 234.153C25.517 234.153 25.9787 234.256 26.3821 234.46C26.7855 234.665 27.1122 234.947 27.3622 235.308C27.6151 235.669 27.7756 236.08 27.8438 236.54H26.544C26.456 236.176 26.2813 235.879 26.0199 235.649C25.7585 235.419 25.4176 235.304 24.9972 235.304C24.358 235.304 23.8594 235.582 23.5014 236.139C23.1463 236.696 22.9673 237.47 22.9645 238.462H23.0284C23.179 238.214 23.3636 238.004 23.5824 237.831C23.804 237.655 24.0511 237.52 24.3239 237.426C24.5994 237.33 24.8892 237.281 25.1932 237.281C25.6989 237.281 26.1563 237.405 26.5653 237.652C26.9773 237.896 27.3054 238.234 27.5497 238.666C27.794 239.098 27.9162 239.592 27.9162 240.149C27.9162 240.706 27.7898 241.21 27.5369 241.662C27.2869 242.114 26.9347 242.472 26.4801 242.736C26.0256 242.997 25.4943 243.125 24.8864 243.119ZM24.8821 242.011C25.2173 242.011 25.517 241.929 25.7812 241.764C26.0455 241.599 26.2543 241.378 26.4077 241.099C26.5611 240.821 26.6378 240.51 26.6378 240.166C26.6378 239.831 26.5625 239.526 26.4119 239.25C26.2642 238.974 26.0597 238.756 25.7983 238.594C25.5398 238.432 25.2443 238.351 24.9119 238.351C24.6591 238.351 24.4247 238.399 24.2088 238.496C23.9957 238.592 23.8082 238.726 23.6463 238.896C23.4844 239.067 23.3565 239.263 23.2628 239.484C23.1719 239.703 23.1264 239.935 23.1264 240.179C23.1264 240.506 23.2017 240.808 23.3523 241.087C23.5057 241.365 23.7145 241.589 23.9787 241.76C24.2457 241.928 24.5469 242.011 24.8821 242.011ZM32.5067 243.145C31.8335 243.142 31.2582 242.964 30.7809 242.612C30.3036 242.26 29.9386 241.747 29.6857 241.074C29.4329 240.401 29.3065 239.589 29.3065 238.641C29.3065 237.695 29.4329 236.886 29.6857 236.216C29.9414 235.545 30.3079 235.034 30.7852 234.682C31.2653 234.33 31.8391 234.153 32.5067 234.153C33.1744 234.153 33.7468 234.331 34.2241 234.686C34.7013 235.038 35.0664 235.55 35.3192 236.22C35.5749 236.888 35.7028 237.695 35.7028 238.641C35.7028 239.592 35.5763 240.405 35.3235 241.078C35.0707 241.749 34.7056 242.261 34.2283 242.616C33.7511 242.969 33.1772 243.145 32.5067 243.145ZM32.5067 242.007C33.0977 242.007 33.5593 241.719 33.8917 241.142C34.2269 240.565 34.3945 239.732 34.3945 238.641C34.3945 237.916 34.3178 237.304 34.1644 236.804C34.0138 236.301 33.7965 235.92 33.5124 235.662C33.2312 235.401 32.896 235.27 32.5067 235.27C31.9187 235.27 31.457 235.56 31.1218 236.139C30.7866 236.719 30.6175 237.553 30.6147 238.641C30.6147 239.368 30.69 239.983 30.8406 240.486C30.994 240.986 31.2113 241.365 31.4925 241.624C31.7738 241.879 32.1119 242.007 32.5067 242.007ZM41.7699 241.364V240.903C41.7699 240.574 41.8381 240.273 41.9744 240C42.1136 239.724 42.3153 239.504 42.5795 239.339C42.8466 239.172 43.169 239.088 43.5469 239.088C43.9332 239.088 44.2571 239.17 44.5185 239.335C44.7798 239.5 44.9773 239.72 45.1108 239.996C45.2472 240.271 45.3153 240.574 45.3153 240.903V241.364C45.3153 241.693 45.2472 241.996 45.1108 242.271C44.9744 242.544 44.7741 242.764 44.5099 242.932C44.2486 243.097 43.9276 243.179 43.5469 243.179C43.1634 243.179 42.8395 243.097 42.5753 242.932C42.3111 242.764 42.1108 242.544 41.9744 242.271C41.8381 241.996 41.7699 241.693 41.7699 241.364ZM42.7628 240.903V241.364C42.7628 241.608 42.821 241.83 42.9375 242.028C43.054 242.227 43.2571 242.327 43.5469 242.327C43.8338 242.327 44.0341 242.227 44.1477 242.028C44.2614 241.83 44.3182 241.608 44.3182 241.364V240.903C44.3182 240.659 44.2628 240.437 44.152 240.239C44.044 240.04 43.8423 239.94 43.5469 239.94C43.2628 239.94 43.0611 240.04 42.9418 240.239C42.8224 240.437 42.7628 240.659 42.7628 240.903ZM37.3807 236.369V235.909C37.3807 235.58 37.4489 235.277 37.5852 235.001C37.7244 234.726 37.9261 234.506 38.1903 234.341C38.4574 234.176 38.7798 234.094 39.1577 234.094C39.544 234.094 39.8679 234.176 40.1293 234.341C40.3906 234.506 40.5881 234.726 40.7216 235.001C40.8551 235.277 40.9219 235.58 40.9219 235.909V236.369C40.9219 236.699 40.8537 237.001 40.7173 237.277C40.5838 237.55 40.3849 237.77 40.1207 237.938C39.8594 238.102 39.5384 238.185 39.1577 238.185C38.7713 238.185 38.446 238.102 38.1818 237.938C37.9205 237.77 37.7216 237.55 37.5852 237.277C37.4489 237.001 37.3807 236.699 37.3807 236.369ZM38.3778 235.909V236.369C38.3778 236.614 38.4347 236.835 38.5483 237.034C38.6648 237.233 38.8679 237.332 39.1577 237.332C39.4418 237.332 39.6406 237.233 39.7543 237.034C39.8707 236.835 39.929 236.614 39.929 236.369V235.909C39.929 235.665 39.8736 235.443 39.7628 235.244C39.652 235.045 39.4503 234.946 39.1577 234.946C38.8736 234.946 38.6719 235.045 38.5526 235.244C38.4361 235.443 38.3778 235.665 38.3778 235.909ZM37.7855 243L43.7855 234.273H44.804L38.804 243H37.7855Z" fill="#718096"/>
<line x1="71" y1="244.5" x2="555" y2="244.5" stroke="#F7F8FA"/>
<path d="M21.6562 282.295V281.23L25.4276 275.273H26.267V276.841H25.7344L23.0369 281.111V281.179H28.206V282.295H21.6562ZM25.794 284V281.972L25.8026 281.486V275.273H27.0511V284H25.794ZM32.7294 284.145C32.0561 284.142 31.4808 283.964 31.0036 283.612C30.5263 283.26 30.1612 282.747 29.9084 282.074C29.6555 281.401 29.5291 280.589 29.5291 279.641C29.5291 278.695 29.6555 277.886 29.9084 277.216C30.1641 276.545 30.5305 276.034 31.0078 275.682C31.4879 275.33 32.0618 275.153 32.7294 275.153C33.397 275.153 33.9695 275.331 34.4467 275.686C34.924 276.038 35.2891 276.55 35.5419 277.22C35.7976 277.888 35.9254 278.695 35.9254 279.641C35.9254 280.592 35.799 281.405 35.5462 282.078C35.2933 282.749 34.9283 283.261 34.451 283.616C33.9737 283.969 33.3999 284.145 32.7294 284.145ZM32.7294 283.007C33.3203 283.007 33.782 282.719 34.1143 282.142C34.4496 281.565 34.6172 280.732 34.6172 279.641C34.6172 278.916 34.5405 278.304 34.3871 277.804C34.2365 277.301 34.0192 276.92 33.7351 276.662C33.4538 276.401 33.1186 276.27 32.7294 276.27C32.1413 276.27 31.6797 276.56 31.3445 277.139C31.0092 277.719 30.8402 278.553 30.8374 279.641C30.8374 280.368 30.9126 280.983 31.0632 281.486C31.2166 281.986 31.4339 282.365 31.7152 282.624C31.9964 282.879 32.3345 283.007 32.7294 283.007ZM41.9925 282.364V281.903C41.9925 281.574 42.0607 281.273 42.1971 281C42.3363 280.724 42.538 280.504 42.8022 280.339C43.0692 280.172 43.3917 280.088 43.7695 280.088C44.1559 280.088 44.4798 280.17 44.7411 280.335C45.0025 280.5 45.1999 280.72 45.3335 280.996C45.4698 281.271 45.538 281.574 45.538 281.903V282.364C45.538 282.693 45.4698 282.996 45.3335 283.271C45.1971 283.544 44.9968 283.764 44.7326 283.932C44.4712 284.097 44.1502 284.179 43.7695 284.179C43.386 284.179 43.0621 284.097 42.7979 283.932C42.5337 283.764 42.3335 283.544 42.1971 283.271C42.0607 282.996 41.9925 282.693 41.9925 282.364ZM42.9854 281.903V282.364C42.9854 282.608 43.0437 282.83 43.1602 283.028C43.2766 283.227 43.4798 283.327 43.7695 283.327C44.0565 283.327 44.2567 283.227 44.3704 283.028C44.484 282.83 44.5408 282.608 44.5408 282.364V281.903C44.5408 281.659 44.4854 281.437 44.3746 281.239C44.2667 281.04 44.065 280.94 43.7695 280.94C43.4854 280.94 43.2837 281.04 43.1644 281.239C43.0451 281.437 42.9854 281.659 42.9854 281.903ZM37.6033 277.369V276.909C37.6033 276.58 37.6715 276.277 37.8079 276.001C37.9471 275.726 38.1488 275.506 38.413 275.341C38.68 275.176 39.0025 275.094 39.3803 275.094C39.7667 275.094 40.0906 275.176 40.3519 275.341C40.6133 275.506 40.8107 275.726 40.9442 276.001C41.0778 276.277 41.1445 276.58 41.1445 276.909V277.369C41.1445 277.699 41.0763 278.001 40.94 278.277C40.8065 278.55 40.6076 278.77 40.3434 278.938C40.082 279.102 39.761 279.185 39.3803 279.185C38.994 279.185 38.6687 279.102 38.4045 278.938C38.1431 278.77 37.9442 278.55 37.8079 278.277C37.6715 278.001 37.6033 277.699 37.6033 277.369ZM38.6005 276.909V277.369C38.6005 277.614 38.6573 277.835 38.771 278.034C38.8874 278.233 39.0906 278.332 39.3803 278.332C39.6644 278.332 39.8633 278.233 39.9769 278.034C40.0934 277.835 40.1516 277.614 40.1516 277.369V276.909C40.1516 276.665 40.0962 276.443 39.9854 276.244C39.8746 276.045 39.6729 275.946 39.3803 275.946C39.0962 275.946 38.8945 276.045 38.7752 276.244C38.6587 276.443 38.6005 276.665 38.6005 276.909ZM38.0082 284L44.0082 275.273H45.0266L39.0266 284H38.0082Z" fill="#718096"/>
<line x1="71" y1="285.5" x2="555" y2="285.5" stroke="#F7F8FA"/>
<path d="M21.8395 325V324.045L24.7926 320.986C25.108 320.653 25.3679 320.362 25.5724 320.112C25.7798 319.859 25.9347 319.619 26.0369 319.392C26.1392 319.165 26.1903 318.923 26.1903 318.668C26.1903 318.378 26.1222 318.128 25.9858 317.918C25.8494 317.705 25.6634 317.541 25.4276 317.428C25.1918 317.311 24.9261 317.253 24.6307 317.253C24.3182 317.253 24.0455 317.317 23.8125 317.445C23.5795 317.572 23.4006 317.753 23.2756 317.986C23.1506 318.219 23.0881 318.491 23.0881 318.804H21.831C21.831 318.273 21.9531 317.808 22.1974 317.411C22.4418 317.013 22.777 316.705 23.2031 316.486C23.6293 316.264 24.1136 316.153 24.6562 316.153C25.2045 316.153 25.6875 316.263 26.1051 316.482C26.5256 316.697 26.8537 316.993 27.0895 317.368C27.3253 317.74 27.4432 318.161 27.4432 318.629C27.4432 318.953 27.3821 319.27 27.2599 319.58C27.1406 319.889 26.9318 320.234 26.6335 320.615C26.3352 320.993 25.9205 321.452 25.3892 321.991L23.6548 323.807V323.871H27.5838V325H21.8395ZM32.2372 325.145C31.5639 325.142 30.9886 324.964 30.5114 324.612C30.0341 324.26 29.669 323.747 29.4162 323.074C29.1634 322.401 29.0369 321.589 29.0369 320.641C29.0369 319.695 29.1634 318.886 29.4162 318.216C29.6719 317.545 30.0384 317.034 30.5156 316.682C30.9957 316.33 31.5696 316.153 32.2372 316.153C32.9048 316.153 33.4773 316.331 33.9545 316.686C34.4318 317.038 34.7969 317.55 35.0497 318.22C35.3054 318.888 35.4332 319.695 35.4332 320.641C35.4332 321.592 35.3068 322.405 35.054 323.078C34.8011 323.749 34.4361 324.261 33.9588 324.616C33.4815 324.969 32.9077 325.145 32.2372 325.145ZM32.2372 324.007C32.8281 324.007 33.2898 323.719 33.6222 323.142C33.9574 322.565 34.125 321.732 34.125 320.641C34.125 319.916 34.0483 319.304 33.8949 318.804C33.7443 318.301 33.527 317.92 33.2429 317.662C32.9616 317.401 32.6264 317.27 32.2372 317.27C31.6491 317.27 31.1875 317.56 30.8523 318.139C30.517 318.719 30.348 319.553 30.3452 320.641C30.3452 321.368 30.4205 321.983 30.571 322.486C30.7244 322.986 30.9418 323.365 31.223 323.624C31.5043 323.879 31.8423 324.007 32.2372 324.007ZM41.5004 323.364V322.903C41.5004 322.574 41.5685 322.273 41.7049 322C41.8441 321.724 42.0458 321.504 42.31 321.339C42.5771 321.172 42.8995 321.088 43.2773 321.088C43.6637 321.088 43.9876 321.17 44.2489 321.335C44.5103 321.5 44.7077 321.72 44.8413 321.996C44.9776 322.271 45.0458 322.574 45.0458 322.903V323.364C45.0458 323.693 44.9776 323.996 44.8413 324.271C44.7049 324.544 44.5046 324.764 44.2404 324.932C43.979 325.097 43.658 325.179 43.2773 325.179C42.8938 325.179 42.57 325.097 42.3058 324.932C42.0415 324.764 41.8413 324.544 41.7049 324.271C41.5685 323.996 41.5004 323.693 41.5004 323.364ZM42.4933 322.903V323.364C42.4933 323.608 42.5515 323.83 42.668 324.028C42.7844 324.227 42.9876 324.327 43.2773 324.327C43.5643 324.327 43.7646 324.227 43.8782 324.028C43.9918 323.83 44.0487 323.608 44.0487 323.364V322.903C44.0487 322.659 43.9933 322.437 43.8825 322.239C43.7745 322.04 43.5728 321.94 43.2773 321.94C42.9933 321.94 42.7915 322.04 42.6722 322.239C42.5529 322.437 42.4933 322.659 42.4933 322.903ZM37.1112 318.369V317.909C37.1112 317.58 37.1793 317.277 37.3157 317.001C37.4549 316.726 37.6566 316.506 37.9208 316.341C38.1879 316.176 38.5103 316.094 38.8881 316.094C39.2745 316.094 39.5984 316.176 39.8597 316.341C40.1211 316.506 40.3185 316.726 40.4521 317.001C40.5856 317.277 40.6523 317.58 40.6523 317.909V318.369C40.6523 318.699 40.5842 319.001 40.4478 319.277C40.3143 319.55 40.1154 319.77 39.8512 319.938C39.5898 320.102 39.2688 320.185 38.8881 320.185C38.5018 320.185 38.1765 320.102 37.9123 319.938C37.6509 319.77 37.4521 319.55 37.3157 319.277C37.1793 319.001 37.1112 318.699 37.1112 318.369ZM38.1083 317.909V318.369C38.1083 318.614 38.1651 318.835 38.2788 319.034C38.3952 319.233 38.5984 319.332 38.8881 319.332C39.1722 319.332 39.3711 319.233 39.4847 319.034C39.6012 318.835 39.6594 318.614 39.6594 318.369V317.909C39.6594 317.665 39.604 317.443 39.4933 317.244C39.3825 317.045 39.1808 316.946 38.8881 316.946C38.604 316.946 38.4023 317.045 38.283 317.244C38.1665 317.443 38.1083 317.665 38.1083 317.909ZM37.516 325L43.516 316.273H44.5344L38.5344 325H37.516Z" fill="#718096"/>
<line x1="71" y1="326.5" x2="555" y2="326.5" stroke="#F7F8FA"/>
<path d="M86 205.5C86 203.015 88.0147 201 90.5 201C92.9853 201 95 203.015 95 205.5V330H86V205.5Z" fill="#FF6523"/>
<path d="M102 283.5C102 281.015 104.015 279 106.5 279C108.985 279 111 281.015 111 283.5V330H102V283.5Z" fill="#169ED9"/>
<path d="M70 247.5C70 245.015 72.0147 243 74.5 243C76.9853 243 79 245.015 79 247.5V330H70V247.5Z" fill="#002E7F" fill-opacity="0.8"/>
<path d="M86.709 350.565C86.6635 350.162 86.476 349.849 86.1465 349.628C85.8169 349.403 85.4022 349.291 84.9022 349.291C84.5442 349.291 84.2346 349.348 83.9732 349.462C83.7118 349.572 83.5087 349.726 83.3638 349.922C83.2218 350.115 83.1507 350.335 83.1507 350.582C83.1507 350.79 83.199 350.969 83.2956 351.119C83.3951 351.27 83.5243 351.396 83.6834 351.499C83.8453 351.598 84.0186 351.682 84.2033 351.75C84.388 351.815 84.5655 351.869 84.736 351.912L85.5882 352.134C85.8667 352.202 86.1522 352.294 86.4448 352.411C86.7374 352.527 87.0087 352.68 87.2587 352.871C87.5087 353.061 87.7104 353.297 87.8638 353.578C88.0201 353.859 88.0982 354.196 88.0982 354.588C88.0982 355.082 87.9703 355.521 87.7147 355.905C87.4618 356.288 87.0939 356.591 86.611 356.812C86.1309 357.034 85.5499 357.145 84.8681 357.145C84.2147 357.145 83.6493 357.041 83.1721 356.834C82.6948 356.626 82.3212 356.332 82.0513 355.952C81.7814 355.568 81.6323 355.114 81.6039 354.588H82.9249C82.9505 354.903 83.0527 355.166 83.2317 355.376C83.4135 355.584 83.6451 355.739 83.9263 355.841C84.2104 355.94 84.5215 355.99 84.8596 355.99C85.2317 355.99 85.5627 355.932 85.8525 355.815C86.1451 355.696 86.3752 355.531 86.5428 355.321C86.7104 355.108 86.7942 354.859 86.7942 354.575C86.7942 354.317 86.7203 354.105 86.5726 353.94C86.4277 353.776 86.2303 353.639 85.9803 353.531C85.7331 353.423 85.4533 353.328 85.1408 353.246L84.1096 352.964C83.4107 352.774 82.8567 352.494 82.4476 352.125C82.0414 351.756 81.8382 351.267 81.8382 350.659C81.8382 350.156 81.9746 349.717 82.2473 349.342C82.5201 348.967 82.8894 348.676 83.3553 348.469C83.8212 348.259 84.3468 348.153 84.932 348.153C85.5229 348.153 86.0442 348.257 86.4959 348.464C86.9505 348.672 87.3084 348.957 87.5698 349.321C87.8311 349.682 87.9675 350.097 87.9789 350.565H86.709ZM91.4743 357.145C91.0595 357.145 90.6845 357.068 90.3493 356.915C90.014 356.759 89.7484 356.533 89.5524 356.237C89.3592 355.942 89.2626 355.58 89.2626 355.151C89.2626 354.781 89.3336 354.477 89.4757 354.239C89.6177 354 89.8095 353.811 90.051 353.672C90.2924 353.533 90.5623 353.428 90.8606 353.357C91.1589 353.286 91.4629 353.232 91.7725 353.195C92.1646 353.149 92.4828 353.112 92.7271 353.084C92.9714 353.053 93.149 353.003 93.2598 352.935C93.3706 352.866 93.426 352.756 93.426 352.602V352.572C93.426 352.2 93.3208 351.912 93.1106 351.707C92.9032 351.503 92.5936 351.401 92.1816 351.401C91.7527 351.401 91.4146 351.496 91.1674 351.686C90.9231 351.874 90.7541 352.082 90.6603 352.312L89.4629 352.04C89.6049 351.642 89.8123 351.321 90.085 351.077C90.3606 350.83 90.6774 350.651 91.0353 350.54C91.3933 350.426 91.7697 350.369 92.1646 350.369C92.426 350.369 92.7029 350.401 92.9956 350.463C93.291 350.523 93.5666 350.634 93.8223 350.795C94.0808 350.957 94.2924 351.189 94.4572 351.49C94.622 351.788 94.7044 352.176 94.7044 352.653V357H93.46V356.105H93.4089C93.3265 356.27 93.2029 356.432 93.0382 356.591C92.8734 356.75 92.6618 356.882 92.4032 356.987C92.1447 357.092 91.835 357.145 91.4743 357.145ZM91.7512 356.122C92.1035 356.122 92.4047 356.053 92.6547 355.913C92.9075 355.774 93.0993 355.592 93.2299 355.368C93.3635 355.141 93.4302 354.898 93.4302 354.639V353.795C93.3848 353.841 93.2967 353.884 93.166 353.923C93.0382 353.96 92.8919 353.993 92.7271 354.021C92.5623 354.047 92.4018 354.071 92.2456 354.094C92.0893 354.114 91.9586 354.131 91.8535 354.145C91.6064 354.176 91.3805 354.229 91.176 354.303C90.9743 354.376 90.8123 354.483 90.6902 354.622C90.5708 354.759 90.5112 354.94 90.5112 355.168C90.5112 355.483 90.6277 355.722 90.8606 355.884C91.0936 356.043 91.3904 356.122 91.7512 356.122ZM99.4569 350.455V351.477H95.8816V350.455H99.4569ZM96.8404 348.886H98.1145V355.078C98.1145 355.325 98.1515 355.511 98.2253 355.636C98.2992 355.759 98.3944 355.842 98.5108 355.888C98.6301 355.93 98.7594 355.952 98.8986 355.952C99.0009 355.952 99.0904 355.945 99.1671 355.93C99.2438 355.916 99.3034 355.905 99.3461 355.896L99.5762 356.949C99.5023 356.977 99.3972 357.006 99.2608 357.034C99.1245 357.065 98.954 357.082 98.7495 357.085C98.4142 357.091 98.1017 357.031 97.812 356.906C97.5222 356.781 97.2878 356.588 97.1088 356.327C96.9299 356.065 96.8404 355.737 96.8404 355.342V348.886Z" fill="#333333"/>
<path d="M157 268.5C157 266.015 159.015 264 161.5 264C163.985 264 166 266.015 166 268.5V330H157V268.5Z" fill="#FF6523"/>
<path d="M173 221.602C173 219.116 175.015 217.102 177.5 217.102C179.985 217.102 182 219.116 182 221.602V330H173V221.602Z" fill="#169ED9"/>
<path d="M141 143.5C141 141.015 143.015 139 145.5 139C147.985 139 150 141.015 150 143.5V330H141V143.5Z" fill="#002E7F" fill-opacity="0.8"/>
<path d="M156.203 350.565C156.158 350.162 155.97 349.849 155.641 349.628C155.311 349.403 154.896 349.291 154.396 349.291C154.038 349.291 153.729 349.348 153.467 349.462C153.206 349.572 153.003 349.726 152.858 349.922C152.716 350.115 152.645 350.335 152.645 350.582C152.645 350.79 152.693 350.969 152.79 351.119C152.889 351.27 153.018 351.396 153.178 351.499C153.339 351.598 153.513 351.682 153.697 351.75C153.882 351.815 154.06 351.869 154.23 351.912L155.082 352.134C155.361 352.202 155.646 352.294 155.939 352.411C156.232 352.527 156.503 352.68 156.753 352.871C157.003 353.061 157.205 353.297 157.358 353.578C157.514 353.859 157.592 354.196 157.592 354.588C157.592 355.082 157.464 355.521 157.209 355.905C156.956 356.288 156.588 356.591 156.105 356.812C155.625 357.034 155.044 357.145 154.362 357.145C153.709 357.145 153.143 357.041 152.666 356.834C152.189 356.626 151.815 356.332 151.545 355.952C151.276 355.568 151.126 355.114 151.098 354.588H152.419C152.445 354.903 152.547 355.166 152.726 355.376C152.908 355.584 153.139 355.739 153.42 355.841C153.705 355.94 154.016 355.99 154.354 355.99C154.726 355.99 155.057 355.932 155.347 355.815C155.639 355.696 155.869 355.531 156.037 355.321C156.205 355.108 156.288 354.859 156.288 354.575C156.288 354.317 156.214 354.105 156.067 353.94C155.922 353.776 155.724 353.639 155.474 353.531C155.227 353.423 154.947 353.328 154.635 353.246L153.604 352.964C152.905 352.774 152.351 352.494 151.942 352.125C151.536 351.756 151.332 351.267 151.332 350.659C151.332 350.156 151.469 349.717 151.741 349.342C152.014 348.967 152.384 348.676 152.849 348.469C153.315 348.259 153.841 348.153 154.426 348.153C155.017 348.153 155.538 348.257 155.99 348.464C156.445 348.672 156.803 348.957 157.064 349.321C157.325 349.682 157.462 350.097 157.473 350.565H156.203ZM163.21 354.286V350.455H164.488V357H163.235V355.866H163.167C163.017 356.216 162.775 356.507 162.443 356.74C162.113 356.97 161.703 357.085 161.211 357.085C160.791 357.085 160.419 356.993 160.095 356.808C159.774 356.621 159.521 356.344 159.336 355.977C159.154 355.611 159.064 355.158 159.064 354.618V350.455H160.338V354.464C160.338 354.911 160.461 355.266 160.708 355.53C160.956 355.794 161.277 355.926 161.672 355.926C161.91 355.926 162.147 355.866 162.383 355.747C162.622 355.628 162.819 355.447 162.975 355.206C163.135 354.964 163.213 354.658 163.21 354.286ZM167.474 353.114V357H166.2V350.455H167.423V351.52H167.504C167.655 351.173 167.891 350.895 168.212 350.685C168.536 350.474 168.943 350.369 169.435 350.369C169.881 350.369 170.271 350.463 170.607 350.651C170.942 350.835 171.202 351.111 171.386 351.477C171.571 351.844 171.663 352.297 171.663 352.837V357H170.389V352.99C170.389 352.516 170.266 352.145 170.018 351.878C169.771 351.608 169.432 351.473 169 351.473C168.705 351.473 168.442 351.537 168.212 351.665C167.984 351.793 167.804 351.98 167.67 352.227C167.54 352.472 167.474 352.767 167.474 353.114Z" fill="#333333"/>
<path d="M228 213.991C228 211.506 230.015 209.491 232.5 209.491C234.985 209.491 237 211.506 237 213.991V330H228V213.991Z" fill="#FF6523"/>
<path d="M244 251.928C244 249.442 246.015 247.428 248.5 247.428C250.985 247.428 253 249.442 253 251.928V329.881H244V251.928Z" fill="#169ED9"/>
<path d="M212 283.76C212 281.274 214.015 279.26 216.5 279.26C218.985 279.26 221 281.274 221 283.76V330.001H212V283.76Z" fill="#002E7F" fill-opacity="0.8"/>
<path d="M220.873 348.273H222.471L225.249 355.057H225.352L228.13 348.273H229.728V357H228.475V350.685H228.394L225.82 356.987H224.781L222.207 350.68H222.126V357H220.873V348.273ZM234.297 357.132C233.684 357.132 233.148 356.991 232.691 356.71C232.233 356.429 231.878 356.036 231.625 355.53C231.373 355.024 231.246 354.433 231.246 353.757C231.246 353.078 231.373 352.484 231.625 351.976C231.878 351.467 232.233 351.072 232.691 350.791C233.148 350.51 233.684 350.369 234.297 350.369C234.911 350.369 235.446 350.51 235.904 350.791C236.361 351.072 236.716 351.467 236.969 351.976C237.222 352.484 237.348 353.078 237.348 353.757C237.348 354.433 237.222 355.024 236.969 355.53C236.716 356.036 236.361 356.429 235.904 356.71C235.446 356.991 234.911 357.132 234.297 357.132ZM234.301 356.062C234.699 356.062 235.029 355.957 235.29 355.747C235.551 355.537 235.745 355.257 235.87 354.908C235.998 354.558 236.061 354.173 236.061 353.753C236.061 353.335 235.998 352.952 235.87 352.602C235.745 352.25 235.551 351.967 235.29 351.754C235.029 351.541 234.699 351.435 234.301 351.435C233.901 351.435 233.569 351.541 233.304 351.754C233.043 351.967 232.848 352.25 232.721 352.602C232.596 352.952 232.533 353.335 232.533 353.753C232.533 354.173 232.596 354.558 232.721 354.908C232.848 355.257 233.043 355.537 233.304 355.747C233.569 355.957 233.901 356.062 234.301 356.062ZM240.045 353.114V357H238.771V350.455H239.994V351.52H240.075C240.225 351.173 240.461 350.895 240.782 350.685C241.106 350.474 241.513 350.369 242.005 350.369C242.451 350.369 242.842 350.463 243.177 350.651C243.512 350.835 243.772 351.111 243.957 351.477C244.141 351.844 244.234 352.297 244.234 352.837V357H242.96V352.99C242.96 352.516 242.836 352.145 242.589 351.878C242.342 351.608 242.002 351.473 241.57 351.473C241.275 351.473 241.012 351.537 240.782 351.665C240.555 351.793 240.374 351.98 240.241 352.227C240.11 352.472 240.045 352.767 240.045 353.114Z" fill="#333333"/>
<path d="M299 267.903C299 265.418 301.015 263.403 303.5 263.403C305.985 263.403 308 265.418 308 267.903V330.001H299V267.903Z" fill="#FF6523"/>
<path d="M316 236.824C316 234.339 318.015 232.324 320.5 232.324C322.985 232.324 325 234.339 325 236.824V330H316V236.824Z" fill="#169ED9"/>
<path d="M283 301.519C283 299.033 285.015 297.019 287.5 297.019C289.985 297.019 292 299.033 292 301.519V330H283V301.519Z" fill="#002E7F" fill-opacity="0.8"/>
<path d="M293.442 349.406V348.273H300.197V349.406H297.474V357H296.161V349.406H293.442ZM302.861 353.114V357H301.587V348.273H302.844V351.52H302.925C303.078 351.168 303.313 350.888 303.628 350.68C303.944 350.473 304.355 350.369 304.864 350.369C305.313 350.369 305.705 350.462 306.04 350.646C306.378 350.831 306.64 351.107 306.824 351.473C307.012 351.837 307.105 352.291 307.105 352.837V357H305.831V352.99C305.831 352.51 305.708 352.138 305.461 351.874C305.213 351.607 304.87 351.473 304.429 351.473C304.128 351.473 303.858 351.537 303.62 351.665C303.384 351.793 303.198 351.98 303.061 352.227C302.928 352.472 302.861 352.767 302.861 353.114ZM312.952 354.286V350.455H314.23V357H312.978V355.866H312.909C312.759 356.216 312.517 356.507 312.185 356.74C311.855 356.97 311.445 357.085 310.953 357.085C310.533 357.085 310.161 356.993 309.837 356.808C309.516 356.621 309.263 356.344 309.078 355.977C308.897 355.611 308.806 355.158 308.806 354.618V350.455H310.08V354.464C310.08 354.911 310.203 355.266 310.451 355.53C310.698 355.794 311.019 355.926 311.414 355.926C311.652 355.926 311.89 355.866 312.125 355.747C312.364 355.628 312.561 355.447 312.718 355.206C312.877 354.964 312.955 354.658 312.952 354.286Z" fill="#333333"/>
<path d="M387 276.228C387 273.742 389.015 271.728 391.5 271.728C393.985 271.728 396 273.742 396 276.228V330H387V276.228Z" fill="#169ED9"/>
<path d="M355 266.516C355 264.03 357.015 262.016 359.5 262.016C361.985 262.016 364 264.03 364 266.516V330H355V266.516Z" fill="#002E7F" fill-opacity="0.8"/>
<path d="M371 197.5C371 195.015 373.015 193 375.5 193C377.985 193 380 195.015 380 197.5V330H371V197.5Z" fill="#FF6523"/>
<path d="M365.347 357L362.927 348.273H364.312L366.012 355.031H366.093L367.862 348.273H369.234L371.002 355.036H371.083L372.779 348.273H374.168L371.744 357H370.418L368.582 350.463H368.513L366.677 357H365.347ZM377.443 357.132C376.798 357.132 376.243 356.994 375.777 356.719C375.314 356.44 374.956 356.05 374.703 355.547C374.453 355.041 374.328 354.449 374.328 353.77C374.328 353.099 374.453 352.509 374.703 351.997C374.956 351.486 375.308 351.087 375.76 350.8C376.214 350.513 376.746 350.369 377.354 350.369C377.723 350.369 378.081 350.43 378.428 350.553C378.774 350.675 379.085 350.866 379.361 351.128C379.636 351.389 379.854 351.729 380.013 352.146C380.172 352.561 380.251 353.065 380.251 353.659V354.111H375.048V353.156H379.003C379.003 352.821 378.935 352.524 378.798 352.266C378.662 352.004 378.47 351.798 378.223 351.648C377.979 351.497 377.692 351.422 377.362 351.422C377.004 351.422 376.692 351.51 376.425 351.686C376.161 351.859 375.956 352.087 375.811 352.368C375.669 352.646 375.598 352.949 375.598 353.276V354.021C375.598 354.459 375.675 354.831 375.828 355.138C375.984 355.445 376.202 355.679 376.48 355.841C376.759 356 377.084 356.08 377.456 356.08C377.697 356.08 377.918 356.045 378.116 355.977C378.315 355.906 378.487 355.801 378.632 355.662C378.777 355.523 378.888 355.351 378.964 355.146L380.17 355.364C380.074 355.719 379.901 356.03 379.651 356.297C379.403 356.561 379.092 356.767 378.717 356.915C378.345 357.06 377.92 357.132 377.443 357.132ZM384.115 357.128C383.587 357.128 383.115 356.993 382.701 356.723C382.289 356.45 381.965 356.062 381.729 355.56C381.496 355.054 381.38 354.447 381.38 353.74C381.38 353.033 381.498 352.428 381.733 351.925C381.972 351.422 382.299 351.037 382.713 350.77C383.128 350.503 383.598 350.369 384.124 350.369C384.53 350.369 384.857 350.438 385.104 350.574C385.354 350.707 385.547 350.864 385.684 351.043C385.823 351.222 385.931 351.379 386.007 351.516H386.084V348.273H387.358V357H386.114V355.982H386.007C385.931 356.121 385.82 356.28 385.675 356.459C385.533 356.638 385.337 356.794 385.087 356.928C384.837 357.061 384.513 357.128 384.115 357.128ZM384.397 356.041C384.763 356.041 385.073 355.945 385.326 355.751C385.581 355.555 385.775 355.284 385.905 354.938C386.039 354.591 386.105 354.187 386.105 353.727C386.105 353.273 386.04 352.875 385.909 352.534C385.779 352.193 385.587 351.928 385.334 351.737C385.081 351.547 384.769 351.452 384.397 351.452C384.013 351.452 383.694 351.551 383.438 351.75C383.182 351.949 382.989 352.22 382.858 352.564C382.73 352.908 382.667 353.295 382.667 353.727C382.667 354.165 382.732 354.558 382.863 354.908C382.993 355.257 383.186 355.534 383.442 355.739C383.701 355.94 384.019 356.041 384.397 356.041Z" fill="#333333"/>
<path d="M442 270.56C442 268.074 444.015 266.06 446.5 266.06C448.985 266.06 451 268.074 451 270.56V329.882H442V270.56Z" fill="#FF6523"/>
<path d="M458 248.241C458 245.756 460.015 243.741 462.5 243.741C464.985 243.741 467 245.756 467 248.241V330H458V248.241Z" fill="#169ED9"/>
<path d="M426 211.454C426 208.969 428.015 206.954 430.5 206.954C432.985 206.954 435 208.969 435 211.454V330H426V211.454Z" fill="#002E7F" fill-opacity="0.8"/>
<path d="M436.294 349.406V348.273H443.048V349.406H440.325V357H439.013V349.406H436.294ZM445.713 353.114V357H444.439V348.273H445.696V351.52H445.777C445.93 351.168 446.164 350.888 446.48 350.68C446.795 350.473 447.207 350.369 447.716 350.369C448.164 350.369 448.556 350.462 448.892 350.646C449.23 350.831 449.491 351.107 449.676 351.473C449.863 351.837 449.957 352.291 449.957 352.837V357H448.683V352.99C448.683 352.51 448.559 352.138 448.312 351.874C448.065 351.607 447.721 351.473 447.281 351.473C446.98 351.473 446.71 351.537 446.471 351.665C446.235 351.793 446.049 351.98 445.913 352.227C445.779 352.472 445.713 352.767 445.713 353.114ZM456.562 352.053L455.407 352.257C455.359 352.109 455.282 351.969 455.177 351.835C455.075 351.702 454.936 351.592 454.76 351.507C454.583 351.422 454.363 351.379 454.099 351.379C453.738 351.379 453.437 351.46 453.196 351.622C452.954 351.781 452.833 351.987 452.833 352.24C452.833 352.459 452.914 352.635 453.076 352.768C453.238 352.902 453.5 353.011 453.86 353.097L454.9 353.335C455.502 353.474 455.951 353.689 456.247 353.979C456.542 354.268 456.69 354.645 456.69 355.108C456.69 355.5 456.576 355.849 456.349 356.156C456.125 356.46 455.811 356.699 455.407 356.872C455.007 357.045 454.542 357.132 454.014 357.132C453.281 357.132 452.683 356.976 452.22 356.663C451.757 356.348 451.473 355.901 451.368 355.321L452.599 355.134C452.676 355.455 452.833 355.697 453.072 355.862C453.311 356.024 453.622 356.105 454.005 356.105C454.423 356.105 454.757 356.018 455.007 355.845C455.257 355.669 455.382 355.455 455.382 355.202C455.382 354.997 455.305 354.825 455.152 354.686C455.001 354.547 454.77 354.442 454.457 354.371L453.349 354.128C452.738 353.989 452.287 353.767 451.994 353.463C451.704 353.159 451.559 352.774 451.559 352.308C451.559 351.922 451.667 351.584 451.883 351.294C452.099 351.004 452.397 350.778 452.778 350.616C453.159 350.452 453.595 350.369 454.086 350.369C454.794 350.369 455.35 350.523 455.757 350.83C456.163 351.134 456.431 351.541 456.562 352.053Z" fill="#333333"/>
<path d="M513 271.074C513 268.589 515.015 266.574 517.5 266.574C519.985 266.574 522 268.589 522 271.074V330H513V271.074Z" fill="#FF6523"/>
<path d="M529 302.589C529 300.104 531.015 298.089 533.5 298.089C535.985 298.089 538 300.104 538 302.589V330H529V302.589Z" fill="#169ED9"/>
<path d="M497 302.589C497 300.104 499.015 298.089 501.5 298.089C503.985 298.089 506 300.104 506 302.589V330H497V302.589Z" fill="#002E7F" fill-opacity="0.8"/>
<path d="M511.187 357V348.273H516.599V349.406H512.504V352.065H516.211V353.195H512.504V357H511.187ZM518.034 357V350.455H519.266V351.494H519.334C519.453 351.142 519.664 350.865 519.965 350.663C520.269 350.459 520.612 350.357 520.996 350.357C521.075 350.357 521.169 350.359 521.277 350.365C521.388 350.371 521.475 350.378 521.537 350.386V351.605C521.486 351.591 521.395 351.575 521.264 351.558C521.134 351.538 521.003 351.528 520.872 351.528C520.571 351.528 520.303 351.592 520.067 351.72C519.834 351.845 519.649 352.02 519.513 352.244C519.377 352.466 519.308 352.719 519.308 353.003V357H518.034ZM522.64 357V350.455H523.914V357H522.64ZM523.283 349.445C523.062 349.445 522.871 349.371 522.712 349.223C522.556 349.072 522.478 348.893 522.478 348.686C522.478 348.476 522.556 348.297 522.712 348.149C522.871 347.999 523.062 347.923 523.283 347.923C523.505 347.923 523.694 347.999 523.85 348.149C524.009 348.297 524.089 348.476 524.089 348.686C524.089 348.893 524.009 349.072 523.85 349.223C523.694 349.371 523.505 349.445 523.283 349.445Z" fill="#333333"/>
</svg>
