<svg width="750" height="385" viewBox="0 0 750 385" fill="none" xmlns="http://www.w3.org/2000/svg">
<rect width="750" height="385" rx="10" fill="white"/>
<path d="M26.2514 33.7557H28.1946L29.5625 35.5391L30.2081 36.3317L32.3878 39.1761H30.3679L28.9105 37.2777L28.4119 36.5874L26.2514 33.7557ZM32.8097 31.4545C32.8097 32.8523 32.554 34.054 32.0426 35.0597C31.5313 36.0611 30.8303 36.8324 29.9396 37.3736C29.0533 37.9105 28.0455 38.179 26.9162 38.179C25.7827 38.179 24.7706 37.9105 23.88 37.3736C22.9936 36.8324 22.2947 36.0589 21.7834 35.0533C21.272 34.0476 21.0163 32.848 21.0163 31.4545C21.0163 30.0568 21.272 28.8572 21.7834 27.8558C22.2947 26.8501 22.9936 26.0788 23.88 25.5419C24.7706 25.0007 25.7827 24.7301 26.9162 24.7301C28.0455 24.7301 29.0533 25.0007 29.9396 25.5419C30.8303 26.0788 31.5313 26.8501 32.0426 27.8558C32.554 28.8572 32.8097 30.0568 32.8097 31.4545ZM30.8537 31.4545C30.8537 30.3892 30.6811 29.4922 30.3359 28.7635C29.995 28.0305 29.5263 27.4766 28.9297 27.1016C28.3374 26.7223 27.6662 26.5327 26.9162 26.5327C26.1619 26.5327 25.4886 26.7223 24.8963 27.1016C24.304 27.4766 23.8352 28.0305 23.4901 28.7635C23.1491 29.4922 22.9787 30.3892 22.9787 31.4545C22.9787 32.5199 23.1491 33.419 23.4901 34.152C23.8352 34.8807 24.304 35.4347 24.8963 35.8139C25.4886 36.1889 26.1619 36.3764 26.9162 36.3764C27.6662 36.3764 28.3374 36.1889 28.9297 35.8139C29.5263 35.4347 29.995 34.8807 30.3359 34.152C30.6811 33.419 30.8537 32.5199 30.8537 31.4545ZM41.3382 33.9283V28.1818H43.2559V38H41.3766V36.2997H41.2743C41.0485 36.8239 40.6863 37.2607 40.1877 37.6101C39.6934 37.9553 39.0776 38.1278 38.3404 38.1278C37.7097 38.1278 37.1515 37.9893 36.6657 37.7124C36.1841 37.4311 35.8049 37.0156 35.5279 36.4659C35.2551 35.9162 35.1188 35.2365 35.1188 34.4268V28.1818H37.03V34.1967C37.03 34.8658 37.2154 35.3984 37.5861 35.7947C37.9569 36.1911 38.4384 36.3892 39.0307 36.3892C39.3887 36.3892 39.7445 36.2997 40.0982 36.1207C40.4561 35.9418 40.7523 35.6712 40.9867 35.3089C41.2253 34.9467 41.3425 34.4865 41.3382 33.9283ZM45.8239 38V28.1818H47.7351V38H45.8239ZM46.7891 26.6669C46.4567 26.6669 46.1712 26.5561 45.9325 26.3345C45.6982 26.1087 45.581 25.8402 45.581 25.5291C45.581 25.2138 45.6982 24.9453 45.9325 24.7237C46.1712 24.4979 46.4567 24.3849 46.7891 24.3849C47.1214 24.3849 47.4048 24.4979 47.6392 24.7237C47.8778 24.9453 47.9972 25.2138 47.9972 25.5291C47.9972 25.8402 47.8778 26.1087 47.6392 26.3345C47.4048 26.5561 47.1214 26.6669 46.7891 26.6669ZM54.4419 38.1982C53.4917 38.1982 52.6735 37.983 51.9874 37.5526C51.3056 37.1179 50.7814 36.5192 50.415 35.7564C50.0485 34.9936 49.8652 34.12 49.8652 33.1357C49.8652 32.1385 50.0527 31.2585 50.4277 30.4957C50.8027 29.7287 51.3311 29.13 52.013 28.6996C52.6948 28.2692 53.498 28.054 54.4228 28.054C55.1685 28.054 55.8333 28.1925 56.4171 28.4695C57.0009 28.7422 57.4718 29.1257 57.8297 29.62C58.1919 30.1143 58.4071 30.6918 58.4753 31.3523H56.6152C56.513 30.892 56.2786 30.4957 55.9121 30.1634C55.5499 29.831 55.0641 29.6648 54.4547 29.6648C53.9221 29.6648 53.4554 29.8054 53.0549 30.0866C52.6586 30.3636 52.3496 30.7599 52.128 31.2756C51.9064 31.7869 51.7956 32.392 51.7956 33.0909C51.7956 33.8068 51.9043 34.4247 52.1216 34.9446C52.339 35.4645 52.6458 35.8672 53.0421 36.1527C53.4426 36.4382 53.9135 36.581 54.4547 36.581C54.8169 36.581 55.1451 36.5149 55.4391 36.3828C55.7374 36.2464 55.9867 36.0526 56.187 35.8011C56.3915 35.5497 56.5343 35.2472 56.6152 34.8935H58.4753C58.4071 35.5284 58.2005 36.0952 57.8553 36.5938C57.5101 37.0923 57.0478 37.4844 56.4682 37.7699C55.8929 38.0554 55.2175 38.1982 54.4419 38.1982ZM62.277 34.6697L62.2642 32.3366H62.5966L66.5085 28.1818H68.7969L64.3352 32.9119H64.0348L62.277 34.6697ZM60.5192 38V24.9091H62.4304V38H60.5192ZM66.7195 38L63.2038 33.3338L64.5206 31.9979L69.0653 38H66.7195ZM76.5616 38H74.465L79.176 24.9091H81.4579L86.1689 38H84.0723L80.3713 27.2869H80.269L76.5616 38ZM76.9132 32.8736H83.7143V34.5355H76.9132V32.8736ZM91.8833 38.1982C90.9331 38.1982 90.1149 37.983 89.4288 37.5526C88.747 37.1179 88.2228 36.5192 87.8564 35.7564C87.4899 34.9936 87.3066 34.12 87.3066 33.1357C87.3066 32.1385 87.4941 31.2585 87.8691 30.4957C88.2441 29.7287 88.7725 29.13 89.4544 28.6996C90.1362 28.2692 90.9395 28.054 91.8642 28.054C92.6099 28.054 93.2747 28.1925 93.8585 28.4695C94.4423 28.7422 94.9132 29.1257 95.2711 29.62C95.6333 30.1143 95.8485 30.6918 95.9167 31.3523H94.0566C93.9544 30.892 93.72 30.4957 93.3535 30.1634C92.9913 29.831 92.5055 29.6648 91.8961 29.6648C91.3635 29.6648 90.8968 29.8054 90.4963 30.0866C90.1 30.3636 89.791 30.7599 89.5694 31.2756C89.3478 31.7869 89.237 32.392 89.237 33.0909C89.237 33.8068 89.3457 34.4247 89.563 34.9446C89.7804 35.4645 90.0872 35.8672 90.4835 36.1527C90.8841 36.4382 91.3549 36.581 91.8961 36.581C92.2583 36.581 92.5865 36.5149 92.8805 36.3828C93.1788 36.2464 93.4281 36.0526 93.6284 35.8011C93.8329 35.5497 93.9757 35.2472 94.0566 34.8935H95.9167C95.8485 35.5284 95.6419 36.0952 95.2967 36.5938C94.9515 37.0923 94.4892 37.4844 93.9096 37.7699C93.3343 38.0554 92.6589 38.1982 91.8833 38.1982ZM102.096 38.1982C101.146 38.1982 100.328 37.983 99.6417 37.5526C98.9599 37.1179 98.4357 36.5192 98.0692 35.7564C97.7028 34.9936 97.5195 34.12 97.5195 33.1357C97.5195 32.1385 97.707 31.2585 98.082 30.4957C98.457 29.7287 98.9854 29.13 99.6673 28.6996C100.349 28.2692 101.152 28.054 102.077 28.054C102.823 28.054 103.488 28.1925 104.071 28.4695C104.655 28.7422 105.126 29.1257 105.484 29.62C105.846 30.1143 106.061 30.6918 106.13 31.3523H104.27C104.167 30.892 103.933 30.4957 103.566 30.1634C103.204 29.831 102.718 29.6648 102.109 29.6648C101.576 29.6648 101.11 29.8054 100.709 30.0866C100.313 30.3636 100.004 30.7599 99.7823 31.2756C99.5607 31.7869 99.4499 32.392 99.4499 33.0909C99.4499 33.8068 99.5586 34.4247 99.7759 34.9446C99.9933 35.4645 100.3 35.8672 100.696 36.1527C101.097 36.4382 101.568 36.581 102.109 36.581C102.471 36.581 102.799 36.5149 103.093 36.3828C103.392 36.2464 103.641 36.0526 103.841 35.8011C104.046 35.5497 104.189 35.2472 104.27 34.8935H106.13C106.061 35.5284 105.855 36.0952 105.51 36.5938C105.164 37.0923 104.702 37.4844 104.123 37.7699C103.547 38.0554 102.872 38.1982 102.096 38.1982ZM112.405 38.1982C111.438 38.1982 110.605 37.9915 109.906 37.5781C109.211 37.1605 108.674 36.5746 108.295 35.8203C107.92 35.0618 107.732 34.1733 107.732 33.1548C107.732 32.1491 107.92 31.2628 108.295 30.4957C108.674 29.7287 109.203 29.13 109.88 28.6996C110.562 28.2692 111.359 28.054 112.271 28.054C112.825 28.054 113.362 28.1456 113.882 28.3288C114.401 28.5121 114.868 28.7997 115.281 29.1918C115.695 29.5838 116.021 30.093 116.259 30.7195C116.498 31.3416 116.617 32.098 116.617 32.9886V33.6662H108.813V32.2344H114.744C114.744 31.7315 114.642 31.2862 114.438 30.8984C114.233 30.5064 113.945 30.1974 113.575 29.9716C113.208 29.7457 112.778 29.6328 112.284 29.6328C111.747 29.6328 111.278 29.7649 110.877 30.0291C110.481 30.2891 110.174 30.63 109.957 31.0518C109.744 31.4695 109.637 31.9233 109.637 32.4134V33.532C109.637 34.1882 109.752 34.7464 109.982 35.2067C110.217 35.6669 110.543 36.0185 110.96 36.2614C111.378 36.5 111.866 36.6193 112.424 36.6193C112.786 36.6193 113.117 36.5682 113.415 36.4659C113.713 36.3594 113.971 36.2017 114.188 35.9929C114.406 35.7841 114.572 35.5263 114.687 35.2195L116.496 35.5455C116.351 36.0781 116.091 36.5447 115.716 36.9453C115.345 37.3416 114.879 37.6506 114.316 37.8722C113.758 38.0895 113.121 38.1982 112.405 38.1982ZM126.095 30.5788L124.363 30.8857C124.29 30.6641 124.175 30.4531 124.018 30.2528C123.864 30.0526 123.656 29.8885 123.391 29.7607C123.127 29.6328 122.797 29.5689 122.401 29.5689C121.859 29.5689 121.408 29.6903 121.045 29.9332C120.683 30.1719 120.502 30.4808 120.502 30.8601C120.502 31.1882 120.624 31.4524 120.866 31.6527C121.109 31.853 121.501 32.017 122.043 32.1449L123.602 32.5028C124.506 32.7116 125.179 33.0334 125.622 33.468C126.065 33.9027 126.287 34.4673 126.287 35.1619C126.287 35.75 126.116 36.2741 125.776 36.7344C125.439 37.1903 124.968 37.5483 124.363 37.8082C123.762 38.0682 123.065 38.1982 122.273 38.1982C121.173 38.1982 120.276 37.9638 119.582 37.495C118.887 37.022 118.461 36.3509 118.303 35.4815L120.151 35.2003C120.266 35.6818 120.502 36.0462 120.86 36.2933C121.218 36.5362 121.685 36.6577 122.26 36.6577C122.886 36.6577 123.387 36.5277 123.762 36.2678C124.137 36.0036 124.325 35.6818 124.325 35.3026C124.325 34.9957 124.21 34.7379 123.979 34.5291C123.754 34.3203 123.406 34.1626 122.938 34.0561L121.276 33.6918C120.359 33.483 119.682 33.1506 119.243 32.6946C118.808 32.2386 118.591 31.6612 118.591 30.9624C118.591 30.3828 118.753 29.8757 119.077 29.4411C119.401 29.0064 119.848 28.6676 120.419 28.4247C120.99 28.1776 121.644 28.054 122.381 28.054C123.442 28.054 124.278 28.2841 124.887 28.7443C125.496 29.2003 125.899 29.8118 126.095 30.5788ZM135.746 30.5788L134.013 30.8857C133.941 30.6641 133.826 30.4531 133.668 30.2528C133.515 30.0526 133.306 29.8885 133.042 29.7607C132.778 29.6328 132.447 29.5689 132.051 29.5689C131.51 29.5689 131.058 29.6903 130.696 29.9332C130.334 30.1719 130.153 30.4808 130.153 30.8601C130.153 31.1882 130.274 31.4524 130.517 31.6527C130.76 31.853 131.152 32.017 131.693 32.1449L133.253 32.5028C134.156 32.7116 134.829 33.0334 135.273 33.468C135.716 33.9027 135.937 34.4673 135.937 35.1619C135.937 35.75 135.767 36.2741 135.426 36.7344C135.089 37.1903 134.618 37.5483 134.013 37.8082C133.412 38.0682 132.716 38.1982 131.923 38.1982C130.824 38.1982 129.927 37.9638 129.232 37.495C128.537 37.022 128.111 36.3509 127.954 35.4815L129.801 35.2003C129.916 35.6818 130.153 36.0462 130.51 36.2933C130.868 36.5362 131.335 36.6577 131.91 36.6577C132.537 36.6577 133.037 36.5277 133.412 36.2678C133.787 36.0036 133.975 35.6818 133.975 35.3026C133.975 34.9957 133.86 34.7379 133.63 34.5291C133.404 34.3203 133.057 34.1626 132.588 34.0561L130.926 33.6918C130.01 33.483 129.332 33.1506 128.893 32.6946C128.459 32.2386 128.241 31.6612 128.241 30.9624C128.241 30.3828 128.403 29.8757 128.727 29.4411C129.051 29.0064 129.498 28.6676 130.069 28.4247C130.64 28.1776 131.295 28.054 132.032 28.054C133.093 28.054 133.928 28.2841 134.537 28.7443C135.147 29.2003 135.55 29.8118 135.746 30.5788Z" fill="black"/>
<path d="M694.199 38V27.0909H701.038V28.5078H695.844V31.8317H700.681V33.2433H695.844V36.5831H701.102V38H694.199ZM706.172 38.1598C705.511 38.1598 704.922 37.9911 704.403 37.6538C703.888 37.3129 703.483 36.8281 703.189 36.1996C702.897 35.5675 702.752 34.8093 702.752 33.9251C702.752 33.0408 702.899 32.2844 703.194 31.6559C703.492 31.0273 703.901 30.5462 704.419 30.2124C704.938 29.8786 705.525 29.7116 706.182 29.7116C706.69 29.7116 707.098 29.7969 707.407 29.9673C707.72 30.1342 707.961 30.3295 708.132 30.5533C708.306 30.777 708.441 30.9741 708.537 31.1445H708.633V27.0909H710.225V38H708.67V36.7269H708.537C708.441 36.9009 708.302 37.0998 708.121 37.3235C707.944 37.5472 707.699 37.7425 707.386 37.9094C707.074 38.0763 706.669 38.1598 706.172 38.1598ZM706.523 36.8015C706.981 36.8015 707.368 36.6808 707.684 36.4393C708.004 36.1942 708.245 35.8551 708.409 35.4219C708.576 34.9886 708.659 34.4844 708.659 33.9091C708.659 33.3409 708.578 32.8437 708.414 32.4176C708.251 31.9915 708.011 31.6594 707.695 31.4215C707.379 31.1836 706.988 31.0646 706.523 31.0646C706.044 31.0646 705.644 31.1889 705.325 31.4375C705.005 31.6861 704.764 32.0252 704.6 32.4549C704.44 32.8846 704.361 33.3693 704.361 33.9091C704.361 34.456 704.442 34.9478 704.606 35.3846C704.769 35.8214 705.01 36.1676 705.33 36.4233C705.653 36.6754 706.051 36.8015 706.523 36.8015ZM712.498 38V29.8182H714.091V38H712.498ZM713.303 28.5558C713.026 28.5558 712.788 28.4634 712.589 28.2788C712.394 28.0906 712.296 27.8668 712.296 27.6076C712.296 27.3448 712.394 27.1211 712.589 26.9364C712.788 26.7482 713.026 26.6541 713.303 26.6541C713.58 26.6541 713.816 26.7482 714.011 26.9364C714.21 27.1211 714.309 27.3448 714.309 27.6076C714.309 27.8668 714.21 28.0906 714.011 28.2788C713.816 28.4634 713.58 28.5558 713.303 28.5558ZM720.053 29.8182V31.0966H715.584V29.8182H720.053ZM716.782 27.858H718.375V35.5977C718.375 35.9066 718.421 36.1392 718.514 36.2955C718.606 36.4482 718.725 36.5529 718.87 36.6097C719.02 36.663 719.181 36.6896 719.355 36.6896C719.483 36.6896 719.595 36.6808 719.691 36.663C719.787 36.6452 719.861 36.631 719.915 36.6204L720.202 37.9361C720.11 37.9716 719.978 38.0071 719.808 38.0426C719.638 38.0817 719.424 38.103 719.169 38.1065C718.75 38.1136 718.359 38.0391 717.997 37.8828C717.635 37.7266 717.342 37.4851 717.118 37.1584C716.894 36.8317 716.782 36.4215 716.782 35.9279V27.858Z" fill="#374761"/>
<path d="M693 40.983H720.74V42.0057H693V40.983Z" fill="#374761"/>
<rect x="21.5" y="68.5" width="155" height="126" rx="18.5" stroke="#374761" stroke-width="3"/>
<path d="M118.336 128.684C120.709 128.684 122.633 126.76 122.633 124.387C122.633 122.014 120.709 120.09 118.336 120.09C115.963 120.09 114.039 122.014 114.039 124.387C114.039 126.76 115.963 128.684 118.336 128.684Z" fill="#374761"/>
<path d="M123.558 129.79C122.204 131.099 120.363 131.907 118.336 131.907C116.309 131.907 114.468 131.099 113.114 129.79C111.403 130.949 110.279 132.908 110.279 135.129V140.501H124.781C125.671 140.501 126.393 139.779 126.393 138.889V135.129C126.393 132.908 125.268 130.949 123.558 129.79Z" fill="#374761"/>
<path d="M98.9999 128.684C101.373 128.684 103.297 126.76 103.297 124.387C103.297 122.014 101.373 120.09 98.9999 120.09C96.6268 120.09 94.7031 122.014 94.7031 124.387C94.7031 126.76 96.6268 128.684 98.9999 128.684Z" fill="#374761"/>
<path d="M104.222 129.79C102.868 131.099 101.027 131.907 98.9999 131.907C96.9727 131.907 95.1316 131.099 93.7777 129.79C92.0675 130.949 90.9433 132.908 90.9433 135.129V140.501H107.057V135.129C107.057 132.908 105.932 130.949 104.222 129.79Z" fill="#374761"/>
<path d="M79.664 128.684C82.0371 128.684 83.9609 126.76 83.9609 124.387C83.9609 122.014 82.0371 120.09 79.664 120.09C77.2909 120.09 75.3671 122.014 75.3671 124.387C75.3671 126.76 77.2909 128.684 79.664 128.684Z" fill="#374761"/>
<path d="M84.8862 129.79C83.5324 131.099 81.6913 131.907 79.664 131.907C77.6367 131.907 75.7956 131.099 74.4418 129.79C72.7315 130.949 71.6074 132.908 71.6074 135.129V138.889C71.6074 139.779 72.3288 140.501 73.2187 140.501H87.7206V135.129C87.7206 132.908 86.5965 130.949 84.8862 129.79Z" fill="#374761"/>
<path d="M98.9999 94.0938C101.373 94.0938 103.297 92.17 103.297 89.7969C103.297 87.4238 101.373 85.5 98.9999 85.5C96.6268 85.5 94.7031 87.4238 94.7031 89.7969C94.7031 92.17 96.6268 94.0938 98.9999 94.0938Z" fill="#374761"/>
<path d="M92.5546 105.911H105.445C106.335 105.911 107.057 105.189 107.057 104.299V100.54C107.057 98.318 105.932 96.3591 104.222 95.2002C102.868 96.5091 101.027 97.3169 98.9999 97.3169C96.9727 97.3169 95.1316 96.5091 93.7777 95.2002C92.0675 96.3591 90.9433 98.318 90.9433 100.54V104.299C90.9433 105.189 91.6647 105.911 92.5546 105.911ZM81.2753 117.043V114.612H116.725V117.043C117.244 116.929 117.783 116.868 118.336 116.868C118.889 116.868 119.428 116.929 119.947 117.043V113.001C119.947 112.111 119.226 111.389 118.336 111.389H100.611V109.133H97.3886V111.389H79.664C78.7741 111.389 78.0527 112.111 78.0527 113.001V117.043C78.5722 116.929 79.1109 116.868 79.664 116.868C80.2171 116.868 80.7558 116.929 81.2753 117.043Z" fill="#374761"/>
<path d="M42.2955 163.864L45.5341 173.341H45.6648L48.9034 163.864H50.8011L46.6136 175.5H44.5852L40.3977 163.864H42.2955ZM52.3452 175.5V166.773H54.044V175.5H52.3452ZM53.2031 165.426C52.9077 165.426 52.6539 165.328 52.4418 165.131C52.2334 164.93 52.1293 164.691 52.1293 164.415C52.1293 164.134 52.2334 163.896 52.4418 163.699C52.6539 163.498 52.9077 163.398 53.2031 163.398C53.4986 163.398 53.7505 163.498 53.9588 163.699C54.1709 163.896 54.277 164.134 54.277 164.415C54.277 164.691 54.1709 164.93 53.9588 165.131C53.7505 165.328 53.4986 165.426 53.2031 165.426ZM60.0909 175.676C59.2311 175.676 58.4905 175.492 57.8693 175.125C57.2519 174.754 56.7746 174.233 56.4375 173.562C56.1042 172.888 55.9375 172.098 55.9375 171.193C55.9375 170.299 56.1042 169.511 56.4375 168.83C56.7746 168.148 57.2443 167.616 57.8466 167.233C58.4527 166.85 59.161 166.659 59.9716 166.659C60.464 166.659 60.9413 166.741 61.4034 166.903C61.8655 167.066 62.2803 167.322 62.6477 167.67C63.0152 168.019 63.3049 168.472 63.517 169.028C63.7292 169.581 63.8352 170.254 63.8352 171.045V171.648H56.8977V170.375H62.1705C62.1705 169.928 62.0795 169.532 61.8977 169.188C61.7159 168.839 61.4602 168.564 61.1307 168.364C60.8049 168.163 60.4223 168.062 59.983 168.062C59.5057 168.062 59.089 168.18 58.733 168.415C58.3807 168.646 58.108 168.949 57.9148 169.324C57.7254 169.695 57.6307 170.098 57.6307 170.534V171.528C57.6307 172.112 57.733 172.608 57.9375 173.017C58.1458 173.426 58.4356 173.739 58.8068 173.955C59.178 174.167 59.6117 174.273 60.108 174.273C60.4299 174.273 60.7235 174.227 60.9886 174.136C61.2538 174.042 61.483 173.902 61.6761 173.716C61.8693 173.53 62.017 173.301 62.1193 173.028L63.7273 173.318C63.5985 173.792 63.3674 174.206 63.0341 174.562C62.7045 174.915 62.2898 175.189 61.7898 175.386C61.2936 175.58 60.7273 175.676 60.0909 175.676ZM67.5966 175.5L65.0284 166.773H66.7841L68.4943 173.182H68.5795L70.2955 166.773H72.0511L73.7557 173.153H73.8409L75.5398 166.773H77.2955L74.733 175.5H73L71.2273 169.199H71.0966L69.3239 175.5H67.5966ZM93.3864 169.682C93.3864 170.924 93.1591 171.992 92.7045 172.886C92.25 173.777 91.6269 174.462 90.8352 174.943C90.0473 175.42 89.1515 175.659 88.1477 175.659C87.1402 175.659 86.2405 175.42 85.4489 174.943C84.661 174.462 84.0398 173.775 83.5852 172.881C83.1307 171.987 82.9034 170.92 82.9034 169.682C82.9034 168.439 83.1307 167.373 83.5852 166.483C84.0398 165.589 84.661 164.903 85.4489 164.426C86.2405 163.945 87.1402 163.705 88.1477 163.705C89.1515 163.705 90.0473 163.945 90.8352 164.426C91.6269 164.903 92.25 165.589 92.7045 166.483C93.1591 167.373 93.3864 168.439 93.3864 169.682ZM91.6477 169.682C91.6477 168.735 91.4943 167.937 91.1875 167.29C90.8845 166.638 90.4678 166.146 89.9375 165.812C89.411 165.475 88.8144 165.307 88.1477 165.307C87.4773 165.307 86.8788 165.475 86.3523 165.812C85.8258 166.146 85.4091 166.638 85.1023 167.29C84.7992 167.937 84.6477 168.735 84.6477 169.682C84.6477 170.629 84.7992 171.428 85.1023 172.08C85.4091 172.727 85.8258 173.22 86.3523 173.557C86.8788 173.89 87.4773 174.057 88.1477 174.057C88.8144 174.057 89.411 173.89 89.9375 173.557C90.4678 173.22 90.8845 172.727 91.1875 172.08C91.4943 171.428 91.6477 170.629 91.6477 169.682ZM95.4389 175.5V166.773H97.081V168.159H97.1719C97.331 167.689 97.6113 167.32 98.0128 167.051C98.4181 166.778 98.8764 166.642 99.3878 166.642C99.4938 166.642 99.6188 166.646 99.7628 166.653C99.9105 166.661 100.026 166.67 100.109 166.682V168.307C100.041 168.288 99.92 168.267 99.7457 168.244C99.5715 168.218 99.3973 168.205 99.223 168.205C98.8215 168.205 98.4635 168.29 98.1491 168.46C97.8385 168.627 97.5923 168.86 97.4105 169.159C97.2287 169.455 97.1378 169.792 97.1378 170.17V175.5H95.4389ZM104.926 178.955C104.233 178.955 103.636 178.864 103.136 178.682C102.64 178.5 102.235 178.259 101.92 177.96C101.606 177.661 101.371 177.333 101.216 176.977L102.676 176.375C102.778 176.542 102.915 176.718 103.085 176.903C103.259 177.093 103.494 177.254 103.79 177.386C104.089 177.519 104.473 177.585 104.943 177.585C105.587 177.585 106.119 177.428 106.54 177.114C106.96 176.803 107.17 176.307 107.17 175.625V173.909H107.062C106.96 174.095 106.813 174.301 106.619 174.528C106.43 174.756 106.169 174.953 105.835 175.119C105.502 175.286 105.068 175.369 104.534 175.369C103.845 175.369 103.223 175.208 102.67 174.886C102.121 174.561 101.686 174.081 101.364 173.449C101.045 172.812 100.886 172.03 100.886 171.102C100.886 170.174 101.044 169.379 101.358 168.716C101.676 168.053 102.112 167.545 102.665 167.193C103.218 166.837 103.845 166.659 104.545 166.659C105.087 166.659 105.525 166.75 105.858 166.932C106.191 167.11 106.451 167.318 106.636 167.557C106.826 167.795 106.972 168.006 107.074 168.188H107.199V166.773H108.864V175.693C108.864 176.443 108.689 177.059 108.341 177.54C107.992 178.021 107.521 178.377 106.926 178.608C106.335 178.839 105.669 178.955 104.926 178.955ZM104.909 173.96C105.398 173.96 105.811 173.847 106.148 173.619C106.489 173.388 106.746 173.059 106.92 172.631C107.098 172.199 107.188 171.682 107.188 171.08C107.188 170.492 107.1 169.975 106.926 169.528C106.752 169.081 106.496 168.733 106.159 168.483C105.822 168.229 105.405 168.102 104.909 168.102C104.398 168.102 103.972 168.235 103.631 168.5C103.29 168.761 103.032 169.117 102.858 169.568C102.688 170.019 102.602 170.523 102.602 171.08C102.602 171.652 102.689 172.153 102.864 172.585C103.038 173.017 103.295 173.354 103.636 173.597C103.981 173.839 104.405 173.96 104.909 173.96ZM125.178 167.648H123.405C123.337 167.269 123.21 166.936 123.024 166.648C122.839 166.36 122.611 166.116 122.342 165.915C122.073 165.714 121.772 165.562 121.439 165.46C121.109 165.358 120.759 165.307 120.388 165.307C119.717 165.307 119.117 165.475 118.587 165.812C118.06 166.15 117.643 166.644 117.337 167.295C117.034 167.947 116.882 168.742 116.882 169.682C116.882 170.629 117.034 171.428 117.337 172.08C117.643 172.731 118.062 173.223 118.592 173.557C119.123 173.89 119.719 174.057 120.382 174.057C120.75 174.057 121.098 174.008 121.428 173.909C121.761 173.807 122.062 173.657 122.331 173.46C122.6 173.263 122.827 173.023 123.013 172.739C123.202 172.451 123.333 172.121 123.405 171.75L125.178 171.756C125.083 172.328 124.899 172.854 124.626 173.335C124.357 173.812 124.011 174.225 123.587 174.574C123.166 174.919 122.685 175.186 122.143 175.375C121.602 175.564 121.011 175.659 120.371 175.659C119.363 175.659 118.465 175.42 117.678 174.943C116.89 174.462 116.268 173.775 115.814 172.881C115.363 171.987 115.138 170.92 115.138 169.682C115.138 168.439 115.365 167.373 115.82 166.483C116.274 165.589 116.895 164.903 117.683 164.426C118.471 163.945 119.367 163.705 120.371 163.705C120.988 163.705 121.564 163.794 122.098 163.972C122.636 164.146 123.119 164.403 123.547 164.744C123.975 165.081 124.329 165.494 124.609 165.983C124.89 166.468 125.079 167.023 125.178 167.648ZM128.841 170.318V175.5H127.142V163.864H128.818V168.193H128.926C129.131 167.723 129.443 167.35 129.864 167.074C130.284 166.797 130.833 166.659 131.511 166.659C132.11 166.659 132.633 166.782 133.08 167.028C133.53 167.275 133.879 167.642 134.125 168.131C134.375 168.616 134.5 169.222 134.5 169.949V175.5H132.801V170.153C132.801 169.513 132.636 169.017 132.307 168.665C131.977 168.309 131.519 168.131 130.932 168.131C130.53 168.131 130.17 168.216 129.852 168.386C129.538 168.557 129.29 168.807 129.108 169.136C128.93 169.462 128.841 169.856 128.841 170.318ZM139.307 175.693C138.754 175.693 138.254 175.591 137.807 175.386C137.36 175.178 137.006 174.877 136.744 174.483C136.487 174.089 136.358 173.606 136.358 173.034C136.358 172.542 136.453 172.136 136.642 171.818C136.831 171.5 137.087 171.248 137.409 171.062C137.731 170.877 138.091 170.737 138.489 170.642C138.886 170.547 139.292 170.475 139.705 170.426C140.227 170.366 140.652 170.316 140.977 170.278C141.303 170.237 141.54 170.17 141.688 170.08C141.835 169.989 141.909 169.841 141.909 169.636V169.597C141.909 169.1 141.769 168.716 141.489 168.443C141.212 168.17 140.799 168.034 140.25 168.034C139.678 168.034 139.227 168.161 138.898 168.415C138.572 168.665 138.347 168.943 138.222 169.25L136.625 168.886C136.814 168.356 137.091 167.928 137.455 167.602C137.822 167.273 138.244 167.034 138.722 166.886C139.199 166.735 139.701 166.659 140.227 166.659C140.576 166.659 140.945 166.701 141.335 166.784C141.729 166.864 142.097 167.011 142.438 167.227C142.782 167.443 143.064 167.752 143.284 168.153C143.504 168.551 143.614 169.068 143.614 169.705V175.5H141.955V174.307H141.886C141.777 174.527 141.612 174.742 141.392 174.955C141.172 175.167 140.89 175.343 140.545 175.483C140.201 175.623 139.788 175.693 139.307 175.693ZM139.676 174.33C140.146 174.33 140.547 174.237 140.881 174.051C141.218 173.866 141.473 173.623 141.648 173.324C141.826 173.021 141.915 172.697 141.915 172.352V171.227C141.854 171.288 141.737 171.345 141.562 171.398C141.392 171.447 141.197 171.491 140.977 171.528C140.758 171.562 140.544 171.595 140.335 171.625C140.127 171.652 139.953 171.674 139.812 171.693C139.483 171.735 139.182 171.805 138.909 171.903C138.64 172.002 138.424 172.144 138.261 172.33C138.102 172.511 138.023 172.754 138.023 173.057C138.023 173.477 138.178 173.795 138.489 174.011C138.799 174.223 139.195 174.33 139.676 174.33ZM145.876 175.5V166.773H147.518V168.159H147.609C147.768 167.689 148.049 167.32 148.45 167.051C148.856 166.778 149.314 166.642 149.825 166.642C149.931 166.642 150.056 166.646 150.2 166.653C150.348 166.661 150.464 166.67 150.547 166.682V168.307C150.479 168.288 150.357 168.267 150.183 168.244C150.009 168.218 149.835 168.205 149.661 168.205C149.259 168.205 148.901 168.29 148.587 168.46C148.276 168.627 148.03 168.86 147.848 169.159C147.666 169.455 147.575 169.792 147.575 170.17V175.5H145.876ZM156.607 166.773V168.136H151.839V166.773H156.607ZM153.118 164.682H154.817V172.938C154.817 173.267 154.866 173.515 154.964 173.682C155.063 173.845 155.19 173.956 155.345 174.017C155.504 174.074 155.677 174.102 155.862 174.102C155.999 174.102 156.118 174.093 156.22 174.074C156.322 174.055 156.402 174.04 156.459 174.028L156.766 175.432C156.667 175.47 156.527 175.508 156.345 175.545C156.163 175.587 155.936 175.61 155.663 175.614C155.216 175.621 154.8 175.542 154.413 175.375C154.027 175.208 153.714 174.951 153.476 174.602C153.237 174.254 153.118 173.816 153.118 173.29V164.682Z" fill="#374761"/>
<rect x="202.5" y="68.5" width="155" height="126" rx="18.5" stroke="#374761" stroke-width="3"/>
<path d="M298.602 85.5H261.398C260.165 85.5014 258.983 85.9918 258.111 86.8637C257.239 87.7355 256.748 88.9176 256.747 90.1506V135.846C256.746 136.676 256.968 137.492 257.389 138.208C257.811 138.924 258.416 139.514 259.142 139.917C259.869 140.319 260.69 140.52 261.52 140.498C262.35 140.477 263.16 140.233 263.864 139.792L279.644 129.928C279.751 129.863 279.873 129.828 279.998 129.828C280.123 129.827 280.246 129.861 280.353 129.925L296.139 139.792C296.843 140.232 297.652 140.475 298.482 140.497C299.312 140.518 300.132 140.317 300.858 139.915C301.584 139.512 302.189 138.922 302.61 138.207C303.031 137.491 303.253 136.676 303.253 135.846V90.1506C303.252 88.9176 302.761 87.7355 301.889 86.8637C301.017 85.9918 299.835 85.5014 298.602 85.5ZM291.156 105.511L286.452 109.271C286.259 109.426 286.117 109.635 286.044 109.871C285.97 110.107 285.969 110.36 286.04 110.597L288.193 117.78C288.268 118.03 288.262 118.298 288.176 118.544C288.09 118.791 287.929 119.004 287.715 119.154C287.501 119.303 287.245 119.381 286.984 119.377C286.723 119.373 286.47 119.287 286.261 119.13L280.744 114.993C280.529 114.832 280.268 114.745 280 114.745C279.732 114.745 279.471 114.832 279.256 114.993L273.739 119.13C273.53 119.288 273.277 119.375 273.015 119.38C272.753 119.385 272.497 119.306 272.282 119.157C272.068 119.007 271.906 118.793 271.82 118.546C271.734 118.299 271.729 118.031 271.804 117.78L273.96 110.597C274.031 110.36 274.03 110.106 273.956 109.869C273.882 109.632 273.739 109.423 273.545 109.268L268.844 105.511C268.644 105.35 268.498 105.131 268.428 104.884C268.358 104.637 268.365 104.374 268.451 104.132C268.536 103.89 268.694 103.68 268.903 103.531C269.113 103.383 269.363 103.303 269.62 103.302H275.007C275.25 103.303 275.488 103.231 275.691 103.097C275.895 102.963 276.054 102.772 276.149 102.548L278.86 96.2229C278.956 96.0001 279.115 95.8102 279.317 95.6768C279.52 95.5433 279.757 95.4722 280 95.4722C280.243 95.4722 280.48 95.5433 280.683 95.6768C280.885 95.8102 281.044 96.0001 281.14 96.2229L283.853 102.548C283.949 102.772 284.108 102.963 284.311 103.097C284.514 103.231 284.753 103.303 284.996 103.302H290.38C290.637 103.303 290.887 103.383 291.097 103.531C291.306 103.68 291.464 103.89 291.549 104.132C291.635 104.374 291.642 104.637 291.572 104.884C291.502 105.131 291.356 105.35 291.156 105.511Z" fill="#374761"/>
<path d="M220.278 175.5V163.864H227.494V165.375H222.034V168.92H226.977V170.426H222.034V175.5H220.278ZM232.026 175.693C231.473 175.693 230.973 175.591 230.526 175.386C230.079 175.178 229.724 174.877 229.463 174.483C229.205 174.089 229.077 173.606 229.077 173.034C229.077 172.542 229.171 172.136 229.361 171.818C229.55 171.5 229.806 171.248 230.128 171.062C230.45 170.877 230.81 170.737 231.207 170.642C231.605 170.547 232.01 170.475 232.423 170.426C232.946 170.366 233.37 170.316 233.696 170.278C234.022 170.237 234.259 170.17 234.406 170.08C234.554 169.989 234.628 169.841 234.628 169.636V169.597C234.628 169.1 234.488 168.716 234.207 168.443C233.931 168.17 233.518 168.034 232.969 168.034C232.397 168.034 231.946 168.161 231.616 168.415C231.291 168.665 231.065 168.943 230.94 169.25L229.344 168.886C229.533 168.356 229.81 167.928 230.173 167.602C230.541 167.273 230.963 167.034 231.44 166.886C231.918 166.735 232.42 166.659 232.946 166.659C233.295 166.659 233.664 166.701 234.054 166.784C234.448 166.864 234.815 167.011 235.156 167.227C235.501 167.443 235.783 167.752 236.003 168.153C236.223 168.551 236.332 169.068 236.332 169.705V175.5H234.673V174.307H234.605C234.495 174.527 234.33 174.742 234.111 174.955C233.891 175.167 233.609 175.343 233.264 175.483C232.92 175.623 232.507 175.693 232.026 175.693ZM232.395 174.33C232.865 174.33 233.266 174.237 233.599 174.051C233.937 173.866 234.192 173.623 234.366 173.324C234.545 173.021 234.634 172.697 234.634 172.352V171.227C234.573 171.288 234.455 171.345 234.281 171.398C234.111 171.447 233.916 171.491 233.696 171.528C233.476 171.562 233.262 171.595 233.054 171.625C232.846 171.652 232.671 171.674 232.531 171.693C232.202 171.735 231.901 171.805 231.628 171.903C231.359 172.002 231.143 172.144 230.98 172.33C230.821 172.511 230.741 172.754 230.741 173.057C230.741 173.477 230.897 173.795 231.207 174.011C231.518 174.223 231.914 174.33 232.395 174.33ZM245.749 166.773L242.584 175.5H240.766L237.595 166.773H239.419L241.629 173.489H241.72L243.925 166.773H245.749ZM250.724 175.676C249.906 175.676 249.192 175.489 248.582 175.114C247.973 174.739 247.499 174.214 247.162 173.54C246.825 172.866 246.656 172.078 246.656 171.176C246.656 170.271 246.825 169.479 247.162 168.801C247.499 168.123 247.973 167.597 248.582 167.222C249.192 166.847 249.906 166.659 250.724 166.659C251.543 166.659 252.257 166.847 252.866 167.222C253.476 167.597 253.95 168.123 254.287 168.801C254.624 169.479 254.793 170.271 254.793 171.176C254.793 172.078 254.624 172.866 254.287 173.54C253.95 174.214 253.476 174.739 252.866 175.114C252.257 175.489 251.543 175.676 250.724 175.676ZM250.73 174.25C251.26 174.25 251.7 174.11 252.048 173.83C252.397 173.549 252.654 173.176 252.821 172.71C252.991 172.244 253.077 171.731 253.077 171.17C253.077 170.614 252.991 170.102 252.821 169.636C252.654 169.167 252.397 168.79 252.048 168.506C251.7 168.222 251.26 168.08 250.73 168.08C250.196 168.08 249.753 168.222 249.401 168.506C249.052 168.79 248.793 169.167 248.622 169.636C248.455 170.102 248.372 170.614 248.372 171.17C248.372 171.731 248.455 172.244 248.622 172.71C248.793 173.176 249.052 173.549 249.401 173.83C249.753 174.11 250.196 174.25 250.73 174.25ZM256.689 175.5V166.773H258.331V168.159H258.422C258.581 167.689 258.861 167.32 259.263 167.051C259.668 166.778 260.126 166.642 260.638 166.642C260.744 166.642 260.869 166.646 261.013 166.653C261.161 166.661 261.276 166.67 261.359 166.682V168.307C261.291 168.288 261.17 168.267 260.996 168.244C260.821 168.218 260.647 168.205 260.473 168.205C260.071 168.205 259.714 168.29 259.399 168.46C259.089 168.627 258.842 168.86 258.661 169.159C258.479 169.455 258.388 169.792 258.388 170.17V175.5H256.689ZM262.83 175.5V166.773H264.528V175.5H262.83ZM263.688 165.426C263.392 165.426 263.138 165.328 262.926 165.131C262.718 164.93 262.614 164.691 262.614 164.415C262.614 164.134 262.718 163.896 262.926 163.699C263.138 163.498 263.392 163.398 263.688 163.398C263.983 163.398 264.235 163.498 264.443 163.699C264.655 163.896 264.761 164.134 264.761 164.415C264.761 164.691 264.655 164.93 264.443 165.131C264.235 165.328 263.983 165.426 263.688 165.426ZM270.888 166.773V168.136H266.121V166.773H270.888ZM267.399 164.682H269.098V172.938C269.098 173.267 269.147 173.515 269.246 173.682C269.344 173.845 269.471 173.956 269.626 174.017C269.786 174.074 269.958 174.102 270.143 174.102C270.28 174.102 270.399 174.093 270.501 174.074C270.604 174.055 270.683 174.04 270.74 174.028L271.047 175.432C270.948 175.47 270.808 175.508 270.626 175.545C270.445 175.587 270.217 175.61 269.945 175.614C269.498 175.621 269.081 175.542 268.695 175.375C268.308 175.208 267.996 174.951 267.757 174.602C267.518 174.254 267.399 173.816 267.399 173.29V164.682ZM276.435 175.676C275.575 175.676 274.834 175.492 274.213 175.125C273.596 174.754 273.118 174.233 272.781 173.562C272.448 172.888 272.281 172.098 272.281 171.193C272.281 170.299 272.448 169.511 272.781 168.83C273.118 168.148 273.588 167.616 274.19 167.233C274.796 166.85 275.505 166.659 276.315 166.659C276.808 166.659 277.285 166.741 277.747 166.903C278.209 167.066 278.624 167.322 278.991 167.67C279.359 168.019 279.649 168.472 279.861 169.028C280.073 169.581 280.179 170.254 280.179 171.045V171.648H273.241V170.375H278.514C278.514 169.928 278.423 169.532 278.241 169.188C278.06 168.839 277.804 168.564 277.474 168.364C277.149 168.163 276.766 168.062 276.327 168.062C275.849 168.062 275.433 168.18 275.077 168.415C274.724 168.646 274.452 168.949 274.259 169.324C274.069 169.695 273.974 170.098 273.974 170.534V171.528C273.974 172.112 274.077 172.608 274.281 173.017C274.49 173.426 274.779 173.739 275.151 173.955C275.522 174.167 275.955 174.273 276.452 174.273C276.774 174.273 277.067 174.227 277.332 174.136C277.598 174.042 277.827 173.902 278.02 173.716C278.213 173.53 278.361 173.301 278.463 173.028L280.071 173.318C279.942 173.792 279.711 174.206 279.378 174.562C279.048 174.915 278.634 175.189 278.134 175.386C277.637 175.58 277.071 175.676 276.435 175.676ZM286.298 175.5V166.773H287.94V168.159H288.031C288.19 167.689 288.471 167.32 288.872 167.051C289.277 166.778 289.736 166.642 290.247 166.642C290.353 166.642 290.478 166.646 290.622 166.653C290.77 166.661 290.885 166.67 290.969 166.682V168.307C290.901 168.288 290.779 168.267 290.605 168.244C290.431 168.218 290.257 168.205 290.082 168.205C289.681 168.205 289.323 168.29 289.009 168.46C288.698 168.627 288.452 168.86 288.27 169.159C288.088 169.455 287.997 169.792 287.997 170.17V175.5H286.298ZM295.888 175.676C295.028 175.676 294.287 175.492 293.666 175.125C293.049 174.754 292.571 174.233 292.234 173.562C291.901 172.888 291.734 172.098 291.734 171.193C291.734 170.299 291.901 169.511 292.234 168.83C292.571 168.148 293.041 167.616 293.643 167.233C294.25 166.85 294.958 166.659 295.768 166.659C296.261 166.659 296.738 166.741 297.2 166.903C297.662 167.066 298.077 167.322 298.445 167.67C298.812 168.019 299.102 168.472 299.314 169.028C299.526 169.581 299.632 170.254 299.632 171.045V171.648H292.695V170.375H297.967C297.967 169.928 297.876 169.532 297.695 169.188C297.513 168.839 297.257 168.564 296.928 168.364C296.602 168.163 296.219 168.062 295.78 168.062C295.303 168.062 294.886 168.18 294.53 168.415C294.178 168.646 293.905 168.949 293.712 169.324C293.522 169.695 293.428 170.098 293.428 170.534V171.528C293.428 172.112 293.53 172.608 293.734 173.017C293.943 173.426 294.232 173.739 294.604 173.955C294.975 174.167 295.409 174.273 295.905 174.273C296.227 174.273 296.52 174.227 296.786 174.136C297.051 174.042 297.28 173.902 297.473 173.716C297.666 173.53 297.814 173.301 297.916 173.028L299.524 173.318C299.395 173.792 299.164 174.206 298.831 174.562C298.501 174.915 298.087 175.189 297.587 175.386C297.09 175.58 296.524 175.676 295.888 175.676ZM301.517 178.773V166.773H303.176V168.188H303.318C303.417 168.006 303.559 167.795 303.744 167.557C303.93 167.318 304.188 167.11 304.517 166.932C304.847 166.75 305.282 166.659 305.824 166.659C306.528 166.659 307.157 166.837 307.71 167.193C308.263 167.549 308.697 168.062 309.011 168.733C309.33 169.403 309.489 170.21 309.489 171.153C309.489 172.097 309.331 172.905 309.017 173.58C308.703 174.25 308.271 174.767 307.722 175.131C307.172 175.491 306.545 175.67 305.841 175.67C305.311 175.67 304.877 175.581 304.54 175.403C304.206 175.225 303.945 175.017 303.756 174.778C303.566 174.54 303.42 174.328 303.318 174.142H303.216V178.773H301.517ZM303.182 171.136C303.182 171.75 303.271 172.288 303.449 172.75C303.627 173.212 303.884 173.574 304.222 173.835C304.559 174.093 304.972 174.222 305.46 174.222C305.968 174.222 306.392 174.087 306.733 173.818C307.074 173.545 307.331 173.176 307.506 172.71C307.684 172.244 307.773 171.72 307.773 171.136C307.773 170.561 307.686 170.044 307.511 169.585C307.341 169.127 307.083 168.765 306.739 168.5C306.398 168.235 305.972 168.102 305.46 168.102C304.968 168.102 304.551 168.229 304.21 168.483C303.873 168.737 303.617 169.091 303.443 169.545C303.269 170 303.182 170.53 303.182 171.136ZM315.068 175.676C314.25 175.676 313.536 175.489 312.926 175.114C312.316 174.739 311.843 174.214 311.506 173.54C311.169 172.866 311 172.078 311 171.176C311 170.271 311.169 169.479 311.506 168.801C311.843 168.123 312.316 167.597 312.926 167.222C313.536 166.847 314.25 166.659 315.068 166.659C315.886 166.659 316.6 166.847 317.21 167.222C317.82 167.597 318.294 168.123 318.631 168.801C318.968 169.479 319.136 170.271 319.136 171.176C319.136 172.078 318.968 172.866 318.631 173.54C318.294 174.214 317.82 174.739 317.21 175.114C316.6 175.489 315.886 175.676 315.068 175.676ZM315.074 174.25C315.604 174.25 316.044 174.11 316.392 173.83C316.741 173.549 316.998 173.176 317.165 172.71C317.335 172.244 317.42 171.731 317.42 171.17C317.42 170.614 317.335 170.102 317.165 169.636C316.998 169.167 316.741 168.79 316.392 168.506C316.044 168.222 315.604 168.08 315.074 168.08C314.54 168.08 314.097 168.222 313.744 168.506C313.396 168.79 313.136 169.167 312.966 169.636C312.799 170.102 312.716 170.614 312.716 171.17C312.716 171.731 312.799 172.244 312.966 172.71C313.136 173.176 313.396 173.549 313.744 173.83C314.097 174.11 314.54 174.25 315.074 174.25ZM321.033 175.5V166.773H322.675V168.159H322.766C322.925 167.689 323.205 167.32 323.607 167.051C324.012 166.778 324.47 166.642 324.982 166.642C325.088 166.642 325.213 166.646 325.357 166.653C325.504 166.661 325.62 166.67 325.703 166.682V168.307C325.635 168.288 325.514 168.267 325.339 168.244C325.165 168.218 324.991 168.205 324.817 168.205C324.415 168.205 324.057 168.29 323.743 168.46C323.432 168.627 323.186 168.86 323.004 169.159C322.822 169.455 322.732 169.792 322.732 170.17V175.5H321.033ZM331.763 166.773V168.136H326.996V166.773H331.763ZM328.274 164.682H329.973V172.938C329.973 173.267 330.022 173.515 330.121 173.682C330.219 173.845 330.346 173.956 330.501 174.017C330.661 174.074 330.833 174.102 331.018 174.102C331.155 174.102 331.274 174.093 331.376 174.074C331.479 174.055 331.558 174.04 331.615 174.028L331.922 175.432C331.823 175.47 331.683 175.508 331.501 175.545C331.32 175.587 331.092 175.61 330.82 175.614C330.373 175.621 329.956 175.542 329.57 175.375C329.183 175.208 328.871 174.951 328.632 174.602C328.393 174.254 328.274 173.816 328.274 173.29V164.682ZM340.041 168.903L338.501 169.176C338.437 168.979 338.335 168.792 338.195 168.614C338.058 168.436 337.873 168.29 337.638 168.176C337.403 168.062 337.109 168.006 336.757 168.006C336.276 168.006 335.875 168.114 335.553 168.33C335.231 168.542 335.07 168.816 335.07 169.153C335.07 169.445 335.178 169.68 335.393 169.858C335.609 170.036 335.958 170.182 336.439 170.295L337.825 170.614C338.628 170.799 339.227 171.085 339.621 171.472C340.015 171.858 340.212 172.36 340.212 172.977C340.212 173.5 340.06 173.966 339.757 174.375C339.458 174.78 339.039 175.098 338.501 175.33C337.967 175.561 337.348 175.676 336.643 175.676C335.666 175.676 334.869 175.468 334.251 175.051C333.634 174.631 333.255 174.034 333.115 173.261L334.757 173.011C334.859 173.439 335.07 173.763 335.388 173.983C335.706 174.199 336.121 174.307 336.632 174.307C337.189 174.307 337.634 174.191 337.967 173.96C338.301 173.725 338.467 173.439 338.467 173.102C338.467 172.83 338.365 172.6 338.161 172.415C337.96 172.229 337.651 172.089 337.234 171.994L335.757 171.67C334.943 171.485 334.34 171.189 333.95 170.784C333.564 170.379 333.371 169.866 333.371 169.244C333.371 168.729 333.515 168.278 333.803 167.892C334.09 167.506 334.488 167.205 334.996 166.989C335.503 166.769 336.085 166.659 336.74 166.659C337.683 166.659 338.426 166.864 338.967 167.273C339.509 167.678 339.867 168.222 340.041 168.903Z" fill="#374761"/>
<rect x="383.5" y="68.5" width="155" height="126" rx="18.5" stroke="#374761" stroke-width="3"/>
<path d="M461.006 85.5037C453.715 85.5074 446.723 88.4054 441.566 93.5611C436.41 98.7167 433.511 105.708 433.507 113C433.51 120.292 436.409 127.285 441.565 132.441C446.722 137.598 453.714 140.496 461.006 140.5C465.644 140.495 470.205 139.318 474.265 137.079C478.326 134.839 481.755 131.61 484.233 127.69C486.711 123.77 488.158 119.288 488.44 114.659C488.722 110.031 487.83 105.406 485.846 101.214L483.119 103.941C482.864 104.198 482.56 104.403 482.225 104.542C481.891 104.682 481.532 104.754 481.169 104.755H480.407C481.491 107.287 482.09 110.076 482.09 113C482.087 118.591 479.864 123.951 475.911 127.905C471.958 131.858 466.597 134.08 461.006 134.084C449.373 134.084 439.923 124.633 439.923 113C439.927 109.518 440.792 106.091 442.443 103.024C444.093 99.9581 446.477 97.3481 449.382 95.4271C452.286 93.5061 455.621 92.3339 459.089 92.015C462.556 91.6962 466.049 92.2407 469.255 93.5998V92.8377C469.255 92.1067 469.546 91.4035 470.066 90.8873L472.796 88.1574C469.112 86.4067 465.085 85.4977 461.006 85.5037ZM478.397 85.5037C478.163 85.5107 477.939 85.6074 477.774 85.7739L471.358 92.1864C471.272 92.2718 471.204 92.3733 471.158 92.4851C471.111 92.5968 471.088 92.7167 471.088 92.8377V98.876L458.983 110.98C458.45 111.519 458.151 112.246 458.151 113.004C458.151 113.761 458.45 114.488 458.983 115.027C460.092 116.135 461.918 116.132 463.026 115.02L475.127 102.919H481.169C481.29 102.919 481.41 102.895 481.522 102.849C481.633 102.802 481.735 102.734 481.82 102.649L488.233 96.2327C488.358 96.104 488.443 95.9413 488.477 95.7647C488.511 95.5881 488.492 95.4055 488.423 95.2395C488.354 95.0735 488.238 94.9314 488.089 94.8308C487.94 94.7302 487.765 94.6756 487.585 94.6738H483.376L484.107 93.9394C484.639 93.4026 484.939 92.6774 484.94 91.9211C484.942 91.1648 484.645 90.4385 484.114 89.8999C483.559 89.3456 482.821 89.0685 482.087 89.0685C481.353 89.0685 480.618 89.3456 480.064 89.8999L479.336 90.6274V86.4148C479.336 86.2928 479.311 86.1721 479.263 86.0597C479.216 85.9473 479.146 85.8456 479.059 85.7605C478.971 85.6753 478.868 85.6084 478.754 85.5637C478.641 85.5191 478.519 85.5009 478.397 85.5037ZM461.006 98.3321C452.917 98.3321 446.335 104.914 446.335 113C446.335 121.086 452.917 127.665 461.006 127.665C464.894 127.661 468.622 126.115 471.371 123.365C474.119 120.616 475.665 116.888 475.668 113C475.668 110.669 475.106 108.465 474.136 106.504L469.113 111.528C469.327 112.715 469.277 113.935 468.969 115.102C468.66 116.268 468.1 117.353 467.327 118.279C466.555 119.206 465.588 119.952 464.496 120.465C463.404 120.978 462.213 121.245 461.006 121.249C458.82 121.246 456.724 120.376 455.178 118.831C453.632 117.285 452.762 115.19 452.758 113.004C452.761 110.817 453.63 108.721 455.176 107.175C456.721 105.629 458.817 104.759 461.003 104.755C461.509 104.755 462.001 104.807 462.479 104.894L467.502 99.8703C465.485 98.8611 463.262 98.3345 461.006 98.3321Z" fill="#374761"/>
<path d="M407.778 163.864H409.909L413.614 172.909H413.75L417.455 163.864H419.585V175.5H417.915V167.08H417.807L414.375 175.483H412.989L409.557 167.074H409.449V175.5H407.778V163.864ZM424.541 175.693C423.988 175.693 423.488 175.591 423.041 175.386C422.594 175.178 422.24 174.877 421.979 174.483C421.721 174.089 421.592 173.606 421.592 173.034C421.592 172.542 421.687 172.136 421.876 171.818C422.066 171.5 422.321 171.248 422.643 171.062C422.965 170.877 423.325 170.737 423.723 170.642C424.121 170.547 424.526 170.475 424.939 170.426C425.462 170.366 425.886 170.316 426.212 170.278C426.537 170.237 426.774 170.17 426.922 170.08C427.07 169.989 427.143 169.841 427.143 169.636V169.597C427.143 169.1 427.003 168.716 426.723 168.443C426.446 168.17 426.034 168.034 425.484 168.034C424.912 168.034 424.462 168.161 424.132 168.415C423.806 168.665 423.581 168.943 423.456 169.25L421.859 168.886C422.049 168.356 422.325 167.928 422.689 167.602C423.056 167.273 423.479 167.034 423.956 166.886C424.433 166.735 424.935 166.659 425.462 166.659C425.81 166.659 426.179 166.701 426.57 166.784C426.964 166.864 427.331 167.011 427.672 167.227C428.017 167.443 428.299 167.752 428.518 168.153C428.738 168.551 428.848 169.068 428.848 169.705V175.5H427.189V174.307H427.121C427.011 174.527 426.846 174.742 426.626 174.955C426.407 175.167 426.125 175.343 425.78 175.483C425.435 175.623 425.022 175.693 424.541 175.693ZM424.911 174.33C425.38 174.33 425.782 174.237 426.115 174.051C426.452 173.866 426.708 173.623 426.882 173.324C427.06 173.021 427.149 172.697 427.149 172.352V171.227C427.089 171.288 426.971 171.345 426.797 171.398C426.626 171.447 426.431 171.491 426.212 171.528C425.992 171.562 425.778 171.595 425.57 171.625C425.361 171.652 425.187 171.674 425.047 171.693C424.717 171.735 424.416 171.805 424.143 171.903C423.875 172.002 423.659 172.144 423.496 172.33C423.337 172.511 423.257 172.754 423.257 173.057C423.257 173.477 423.412 173.795 423.723 174.011C424.034 174.223 424.429 174.33 424.911 174.33ZM432.81 170.318V175.5H431.111V166.773H432.741V168.193H432.849C433.05 167.731 433.365 167.36 433.793 167.08C434.224 166.799 434.768 166.659 435.423 166.659C436.018 166.659 436.539 166.784 436.986 167.034C437.433 167.28 437.779 167.648 438.026 168.136C438.272 168.625 438.395 169.229 438.395 169.949V175.5H436.696V170.153C436.696 169.521 436.531 169.027 436.202 168.67C435.872 168.311 435.42 168.131 434.844 168.131C434.45 168.131 434.099 168.216 433.793 168.386C433.49 168.557 433.249 168.807 433.071 169.136C432.897 169.462 432.81 169.856 432.81 170.318ZM443.213 175.693C442.66 175.693 442.16 175.591 441.713 175.386C441.266 175.178 440.912 174.877 440.651 174.483C440.393 174.089 440.264 173.606 440.264 173.034C440.264 172.542 440.359 172.136 440.548 171.818C440.738 171.5 440.993 171.248 441.315 171.062C441.637 170.877 441.997 170.737 442.395 170.642C442.793 170.547 443.198 170.475 443.611 170.426C444.134 170.366 444.558 170.316 444.884 170.278C445.209 170.237 445.446 170.17 445.594 170.08C445.741 169.989 445.815 169.841 445.815 169.636V169.597C445.815 169.1 445.675 168.716 445.395 168.443C445.118 168.17 444.705 168.034 444.156 168.034C443.584 168.034 443.134 168.161 442.804 168.415C442.478 168.665 442.253 168.943 442.128 169.25L440.531 168.886C440.721 168.356 440.997 167.928 441.361 167.602C441.728 167.273 442.151 167.034 442.628 166.886C443.105 166.735 443.607 166.659 444.134 166.659C444.482 166.659 444.851 166.701 445.241 166.784C445.635 166.864 446.003 167.011 446.344 167.227C446.688 167.443 446.971 167.752 447.19 168.153C447.41 168.551 447.52 169.068 447.52 169.705V175.5H445.861V174.307H445.793C445.683 174.527 445.518 174.742 445.298 174.955C445.079 175.167 444.796 175.343 444.452 175.483C444.107 175.623 443.694 175.693 443.213 175.693ZM443.582 174.33C444.052 174.33 444.454 174.237 444.787 174.051C445.124 173.866 445.38 173.623 445.554 173.324C445.732 173.021 445.821 172.697 445.821 172.352V171.227C445.76 171.288 445.643 171.345 445.469 171.398C445.298 171.447 445.103 171.491 444.884 171.528C444.664 171.562 444.45 171.595 444.241 171.625C444.033 171.652 443.859 171.674 443.719 171.693C443.389 171.735 443.088 171.805 442.815 171.903C442.546 172.002 442.33 172.144 442.168 172.33C442.009 172.511 441.929 172.754 441.929 173.057C441.929 173.477 442.084 173.795 442.395 174.011C442.705 174.223 443.101 174.33 443.582 174.33ZM453.442 178.955C452.749 178.955 452.152 178.864 451.652 178.682C451.156 178.5 450.75 178.259 450.436 177.96C450.122 177.661 449.887 177.333 449.732 176.977L451.192 176.375C451.294 176.542 451.43 176.718 451.601 176.903C451.775 177.093 452.01 177.254 452.305 177.386C452.605 177.519 452.989 177.585 453.459 177.585C454.103 177.585 454.635 177.428 455.055 177.114C455.476 176.803 455.686 176.307 455.686 175.625V173.909H455.578C455.476 174.095 455.328 174.301 455.135 174.528C454.946 174.756 454.684 174.953 454.351 175.119C454.018 175.286 453.584 175.369 453.05 175.369C452.36 175.369 451.739 175.208 451.186 174.886C450.637 174.561 450.201 174.081 449.879 173.449C449.561 172.812 449.402 172.03 449.402 171.102C449.402 170.174 449.559 169.379 449.874 168.716C450.192 168.053 450.627 167.545 451.18 167.193C451.733 166.837 452.36 166.659 453.061 166.659C453.603 166.659 454.04 166.75 454.374 166.932C454.707 167.11 454.966 167.318 455.152 167.557C455.341 167.795 455.487 168.006 455.589 168.188H455.714V166.773H457.379V175.693C457.379 176.443 457.205 177.059 456.857 177.54C456.508 178.021 456.036 178.377 455.442 178.608C454.851 178.839 454.184 178.955 453.442 178.955ZM453.425 173.96C453.913 173.96 454.326 173.847 454.663 173.619C455.004 173.388 455.262 173.059 455.436 172.631C455.614 172.199 455.703 171.682 455.703 171.08C455.703 170.492 455.616 169.975 455.442 169.528C455.268 169.081 455.012 168.733 454.675 168.483C454.338 168.229 453.921 168.102 453.425 168.102C452.913 168.102 452.487 168.235 452.146 168.5C451.805 168.761 451.548 169.117 451.374 169.568C451.203 170.019 451.118 170.523 451.118 171.08C451.118 171.652 451.205 172.153 451.379 172.585C451.554 173.017 451.811 173.354 452.152 173.597C452.497 173.839 452.921 173.96 453.425 173.96ZM463.419 175.676C462.559 175.676 461.819 175.492 461.197 175.125C460.58 174.754 460.103 174.233 459.766 173.562C459.432 172.888 459.266 172.098 459.266 171.193C459.266 170.299 459.432 169.511 459.766 168.83C460.103 168.148 460.572 167.616 461.175 167.233C461.781 166.85 462.489 166.659 463.3 166.659C463.792 166.659 464.269 166.741 464.732 166.903C465.194 167.066 465.608 167.322 465.976 167.67C466.343 168.019 466.633 168.472 466.845 169.028C467.057 169.581 467.163 170.254 467.163 171.045V171.648H460.226V170.375H465.499C465.499 169.928 465.408 169.532 465.226 169.188C465.044 168.839 464.788 168.564 464.459 168.364C464.133 168.163 463.75 168.062 463.311 168.062C462.834 168.062 462.417 168.18 462.061 168.415C461.709 168.646 461.436 168.949 461.243 169.324C461.054 169.695 460.959 170.098 460.959 170.534V171.528C460.959 172.112 461.061 172.608 461.266 173.017C461.474 173.426 461.764 173.739 462.135 173.955C462.506 174.167 462.94 174.273 463.436 174.273C463.758 174.273 464.052 174.227 464.317 174.136C464.582 174.042 464.811 173.902 465.004 173.716C465.197 173.53 465.345 173.301 465.447 173.028L467.055 173.318C466.927 173.792 466.696 174.206 466.362 174.562C466.033 174.915 465.618 175.189 465.118 175.386C464.622 175.58 464.055 175.676 463.419 175.676ZM481.294 167.54C481.184 167.195 481.036 166.886 480.851 166.614C480.669 166.337 480.451 166.102 480.197 165.909C479.944 165.712 479.654 165.562 479.328 165.46C479.006 165.358 478.652 165.307 478.266 165.307C477.61 165.307 477.019 165.475 476.493 165.812C475.966 166.15 475.55 166.644 475.243 167.295C474.94 167.943 474.788 168.737 474.788 169.676C474.788 170.619 474.942 171.417 475.249 172.068C475.555 172.72 475.976 173.214 476.51 173.551C477.044 173.888 477.652 174.057 478.334 174.057C478.966 174.057 479.518 173.928 479.987 173.67C480.461 173.413 480.826 173.049 481.084 172.58C481.345 172.106 481.476 171.549 481.476 170.909L481.93 170.994H478.601V169.545H483.175V170.869C483.175 171.847 482.966 172.695 482.55 173.415C482.137 174.131 481.565 174.684 480.834 175.074C480.107 175.464 479.273 175.659 478.334 175.659C477.281 175.659 476.357 175.417 475.561 174.932C474.769 174.447 474.152 173.759 473.709 172.869C473.266 171.975 473.044 170.915 473.044 169.688C473.044 168.759 473.173 167.926 473.43 167.188C473.688 166.449 474.05 165.822 474.516 165.307C474.985 164.788 475.536 164.392 476.169 164.119C476.805 163.843 477.5 163.705 478.254 163.705C478.883 163.705 479.468 163.797 480.01 163.983C480.555 164.169 481.04 164.432 481.464 164.773C481.893 165.114 482.247 165.519 482.527 165.989C482.807 166.455 482.997 166.972 483.095 167.54H481.294ZM488.943 175.676C488.125 175.676 487.411 175.489 486.801 175.114C486.191 174.739 485.718 174.214 485.381 173.54C485.044 172.866 484.875 172.078 484.875 171.176C484.875 170.271 485.044 169.479 485.381 168.801C485.718 168.123 486.191 167.597 486.801 167.222C487.411 166.847 488.125 166.659 488.943 166.659C489.761 166.659 490.475 166.847 491.085 167.222C491.695 167.597 492.169 168.123 492.506 168.801C492.843 169.479 493.011 170.271 493.011 171.176C493.011 172.078 492.843 172.866 492.506 173.54C492.169 174.214 491.695 174.739 491.085 175.114C490.475 175.489 489.761 175.676 488.943 175.676ZM488.949 174.25C489.479 174.25 489.919 174.11 490.267 173.83C490.616 173.549 490.873 173.176 491.04 172.71C491.21 172.244 491.295 171.731 491.295 171.17C491.295 170.614 491.21 170.102 491.04 169.636C490.873 169.167 490.616 168.79 490.267 168.506C489.919 168.222 489.479 168.08 488.949 168.08C488.415 168.08 487.972 168.222 487.619 168.506C487.271 168.79 487.011 169.167 486.841 169.636C486.674 170.102 486.591 170.614 486.591 171.17C486.591 171.731 486.674 172.244 486.841 172.71C487.011 173.176 487.271 173.549 487.619 173.83C487.972 174.11 488.415 174.25 488.949 174.25ZM497.447 175.693C496.894 175.693 496.394 175.591 495.947 175.386C495.5 175.178 495.146 174.877 494.885 174.483C494.627 174.089 494.499 173.606 494.499 173.034C494.499 172.542 494.593 172.136 494.783 171.818C494.972 171.5 495.228 171.248 495.55 171.062C495.872 170.877 496.232 170.737 496.629 170.642C497.027 170.547 497.432 170.475 497.845 170.426C498.368 170.366 498.792 170.316 499.118 170.278C499.444 170.237 499.68 170.17 499.828 170.08C499.976 169.989 500.05 169.841 500.05 169.636V169.597C500.05 169.1 499.91 168.716 499.629 168.443C499.353 168.17 498.94 168.034 498.391 168.034C497.819 168.034 497.368 168.161 497.038 168.415C496.713 168.665 496.487 168.943 496.362 169.25L494.766 168.886C494.955 168.356 495.232 167.928 495.595 167.602C495.963 167.273 496.385 167.034 496.862 166.886C497.339 166.735 497.841 166.659 498.368 166.659C498.716 166.659 499.086 166.701 499.476 166.784C499.87 166.864 500.237 167.011 500.578 167.227C500.923 167.443 501.205 167.752 501.425 168.153C501.644 168.551 501.754 169.068 501.754 169.705V175.5H500.095V174.307H500.027C499.917 174.527 499.752 174.742 499.533 174.955C499.313 175.167 499.031 175.343 498.686 175.483C498.341 175.623 497.929 175.693 497.447 175.693ZM497.817 174.33C498.286 174.33 498.688 174.237 499.021 174.051C499.358 173.866 499.614 173.623 499.788 173.324C499.966 173.021 500.055 172.697 500.055 172.352V171.227C499.995 171.288 499.877 171.345 499.703 171.398C499.533 171.447 499.338 171.491 499.118 171.528C498.898 171.562 498.684 171.595 498.476 171.625C498.268 171.652 498.093 171.674 497.953 171.693C497.624 171.735 497.322 171.805 497.05 171.903C496.781 172.002 496.565 172.144 496.402 172.33C496.243 172.511 496.163 172.754 496.163 173.057C496.163 173.477 496.319 173.795 496.629 174.011C496.94 174.223 497.336 174.33 497.817 174.33ZM505.716 163.864V175.5H504.017V163.864H505.716ZM514.541 168.903L513.001 169.176C512.937 168.979 512.835 168.792 512.695 168.614C512.558 168.436 512.373 168.29 512.138 168.176C511.903 168.062 511.609 168.006 511.257 168.006C510.776 168.006 510.375 168.114 510.053 168.33C509.731 168.542 509.57 168.816 509.57 169.153C509.57 169.445 509.678 169.68 509.893 169.858C510.109 170.036 510.458 170.182 510.939 170.295L512.325 170.614C513.128 170.799 513.727 171.085 514.121 171.472C514.515 171.858 514.712 172.36 514.712 172.977C514.712 173.5 514.56 173.966 514.257 174.375C513.958 174.78 513.539 175.098 513.001 175.33C512.467 175.561 511.848 175.676 511.143 175.676C510.166 175.676 509.369 175.468 508.751 175.051C508.134 174.631 507.755 174.034 507.615 173.261L509.257 173.011C509.359 173.439 509.57 173.763 509.888 173.983C510.206 174.199 510.621 174.307 511.132 174.307C511.689 174.307 512.134 174.191 512.467 173.96C512.801 173.725 512.967 173.439 512.967 173.102C512.967 172.83 512.865 172.6 512.661 172.415C512.46 172.229 512.151 172.089 511.734 171.994L510.257 171.67C509.443 171.485 508.84 171.189 508.45 170.784C508.064 170.379 507.871 169.866 507.871 169.244C507.871 168.729 508.015 168.278 508.303 167.892C508.59 167.506 508.988 167.205 509.496 166.989C510.003 166.769 510.585 166.659 511.24 166.659C512.183 166.659 512.926 166.864 513.467 167.273C514.009 167.678 514.367 168.222 514.541 168.903Z" fill="#374761"/>
<rect x="564.5" y="68.5" width="155" height="126" rx="18.5" stroke="#374761" stroke-width="3"/>
<path d="M620.874 88.9904H620.869C620.585 88.9898 620.304 89.0454 620.042 89.1539C619.78 89.2625 619.542 89.4218 619.342 89.6228C619.139 89.8252 618.977 90.0661 618.867 90.3315C618.757 90.5969 618.7 90.8816 618.701 91.1689V123.835C618.701 125.033 619.68 126.009 620.882 126.012C625.953 126.025 634.448 127.081 640.309 133.214V99.0289C640.309 98.6228 640.205 98.2413 640.01 97.9257C635.199 90.1793 625.956 89.0023 620.874 88.9904ZM665.299 123.835V91.1687C665.299 90.5841 665.071 90.035 664.658 89.6226C664.458 89.4217 664.22 89.2623 663.958 89.1538C663.696 89.0453 663.415 88.9897 663.132 88.9902H663.126C658.044 89.0023 648.801 90.1793 643.991 97.9257C643.795 98.2413 643.691 98.6228 643.691 99.0289V133.214C649.552 127.081 658.047 126.024 663.118 126.012C664.321 126.009 665.299 125.032 665.299 123.835Z" fill="#374761"/>
<path d="M670.26 96.5234H668.681V123.834C668.681 126.893 666.189 129.387 663.126 129.394C658.825 129.405 651.733 130.246 646.711 134.999C655.397 132.872 664.554 134.255 669.773 135.444C670.093 135.518 670.425 135.518 670.745 135.445C671.065 135.372 671.364 135.228 671.62 135.023C671.876 134.82 672.083 134.561 672.224 134.266C672.366 133.972 672.439 133.649 672.439 133.322V98.7015C672.439 97.5005 671.461 96.5234 670.26 96.5234ZM615.319 123.834V96.5234H613.739C612.539 96.5234 611.561 97.5005 611.561 98.7015V133.321C611.561 133.987 611.86 134.607 612.38 135.023C612.636 135.228 612.935 135.372 613.255 135.445C613.575 135.518 613.907 135.517 614.227 135.444C619.446 134.254 628.603 132.872 637.289 134.999C632.267 130.245 625.175 129.404 620.874 129.394C617.811 129.387 615.319 126.893 615.319 123.834Z" fill="#374761"/>
<path d="M595.778 163.864H597.909L601.614 172.909H601.75L605.455 163.864H607.585V175.5H605.915V167.08H605.807L602.375 175.483H600.989L597.557 167.074H597.449V175.5H595.778V163.864ZM611.075 178.773C610.821 178.773 610.59 178.752 610.382 178.71C610.174 178.672 610.018 178.631 609.916 178.585L610.325 177.193C610.636 177.277 610.912 177.313 611.155 177.301C611.397 177.29 611.611 177.199 611.797 177.028C611.986 176.858 612.153 176.58 612.297 176.193L612.507 175.614L609.314 166.773H611.132L613.342 173.545H613.433L615.643 166.773H617.467L613.871 176.665C613.704 177.119 613.492 177.504 613.234 177.818C612.977 178.136 612.67 178.375 612.314 178.534C611.958 178.693 611.545 178.773 611.075 178.773ZM623.435 175.5V163.864H625.19V173.989H630.463V175.5H623.435ZM636.091 175.676C635.231 175.676 634.491 175.492 633.869 175.125C633.252 174.754 632.775 174.233 632.438 173.562C632.104 172.888 631.938 172.098 631.938 171.193C631.938 170.299 632.104 169.511 632.438 168.83C632.775 168.148 633.244 167.616 633.847 167.233C634.453 166.85 635.161 166.659 635.972 166.659C636.464 166.659 636.941 166.741 637.403 166.903C637.866 167.066 638.28 167.322 638.648 167.67C639.015 168.019 639.305 168.472 639.517 169.028C639.729 169.581 639.835 170.254 639.835 171.045V171.648H632.898V170.375H638.17C638.17 169.928 638.08 169.532 637.898 169.188C637.716 168.839 637.46 168.564 637.131 168.364C636.805 168.163 636.422 168.062 635.983 168.062C635.506 168.062 635.089 168.18 634.733 168.415C634.381 168.646 634.108 168.949 633.915 169.324C633.725 169.695 633.631 170.098 633.631 170.534V171.528C633.631 172.112 633.733 172.608 633.938 173.017C634.146 173.426 634.436 173.739 634.807 173.955C635.178 174.167 635.612 174.273 636.108 174.273C636.43 174.273 636.723 174.227 636.989 174.136C637.254 174.042 637.483 173.902 637.676 173.716C637.869 173.53 638.017 173.301 638.119 173.028L639.727 173.318C639.598 173.792 639.367 174.206 639.034 174.562C638.705 174.915 638.29 175.189 637.79 175.386C637.294 175.58 636.727 175.676 636.091 175.676ZM644.26 175.693C643.707 175.693 643.207 175.591 642.76 175.386C642.313 175.178 641.959 174.877 641.697 174.483C641.44 174.089 641.311 173.606 641.311 173.034C641.311 172.542 641.406 172.136 641.595 171.818C641.785 171.5 642.04 171.248 642.362 171.062C642.684 170.877 643.044 170.737 643.442 170.642C643.839 170.547 644.245 170.475 644.658 170.426C645.18 170.366 645.605 170.316 645.93 170.278C646.256 170.237 646.493 170.17 646.641 170.08C646.788 169.989 646.862 169.841 646.862 169.636V169.597C646.862 169.1 646.722 168.716 646.442 168.443C646.165 168.17 645.752 168.034 645.203 168.034C644.631 168.034 644.18 168.161 643.851 168.415C643.525 168.665 643.3 168.943 643.175 169.25L641.578 168.886C641.768 168.356 642.044 167.928 642.408 167.602C642.775 167.273 643.197 167.034 643.675 166.886C644.152 166.735 644.654 166.659 645.18 166.659C645.529 166.659 645.898 166.701 646.288 166.784C646.682 166.864 647.05 167.011 647.391 167.227C647.735 167.443 648.018 167.752 648.237 168.153C648.457 168.551 648.567 169.068 648.567 169.705V175.5H646.908V174.307H646.839C646.73 174.527 646.565 174.742 646.345 174.955C646.125 175.167 645.843 175.343 645.499 175.483C645.154 175.623 644.741 175.693 644.26 175.693ZM644.629 174.33C645.099 174.33 645.5 174.237 645.834 174.051C646.171 173.866 646.427 173.623 646.601 173.324C646.779 173.021 646.868 172.697 646.868 172.352V171.227C646.807 171.288 646.69 171.345 646.516 171.398C646.345 171.447 646.15 171.491 645.93 171.528C645.711 171.562 645.497 171.595 645.288 171.625C645.08 171.652 644.906 171.674 644.766 171.693C644.436 171.735 644.135 171.805 643.862 171.903C643.593 172.002 643.377 172.144 643.214 172.33C643.055 172.511 642.976 172.754 642.976 173.057C642.976 173.477 643.131 173.795 643.442 174.011C643.752 174.223 644.148 174.33 644.629 174.33ZM650.83 175.5V166.773H652.472V168.159H652.562C652.722 167.689 653.002 167.32 653.403 167.051C653.809 166.778 654.267 166.642 654.778 166.642C654.884 166.642 655.009 166.646 655.153 166.653C655.301 166.661 655.417 166.67 655.5 166.682V168.307C655.432 168.288 655.311 168.267 655.136 168.244C654.962 168.218 654.788 168.205 654.614 168.205C654.212 168.205 653.854 168.29 653.54 168.46C653.229 168.627 652.983 168.86 652.801 169.159C652.619 169.455 652.528 169.792 652.528 170.17V175.5H650.83ZM658.669 170.318V175.5H656.97V166.773H658.601V168.193H658.709C658.91 167.731 659.224 167.36 659.652 167.08C660.084 166.799 660.627 166.659 661.283 166.659C661.877 166.659 662.398 166.784 662.845 167.034C663.292 167.28 663.639 167.648 663.885 168.136C664.131 168.625 664.254 169.229 664.254 169.949V175.5H662.555V170.153C662.555 169.521 662.391 169.027 662.061 168.67C661.732 168.311 661.279 168.131 660.703 168.131C660.309 168.131 659.959 168.216 659.652 168.386C659.349 168.557 659.108 168.807 658.93 169.136C658.756 169.462 658.669 169.856 658.669 170.318ZM666.533 175.5V166.773H668.232V175.5H666.533ZM667.391 165.426C667.095 165.426 666.841 165.328 666.629 165.131C666.421 164.93 666.317 164.691 666.317 164.415C666.317 164.134 666.421 163.896 666.629 163.699C666.841 163.498 667.095 163.398 667.391 163.398C667.686 163.398 667.938 163.498 668.146 163.699C668.358 163.896 668.464 164.134 668.464 164.415C668.464 164.691 668.358 164.93 668.146 165.131C667.938 165.328 667.686 165.426 667.391 165.426ZM672.216 170.318V175.5H670.517V166.773H672.148V168.193H672.256C672.456 167.731 672.771 167.36 673.199 167.08C673.631 166.799 674.174 166.659 674.83 166.659C675.424 166.659 675.945 166.784 676.392 167.034C676.839 167.28 677.186 167.648 677.432 168.136C677.678 168.625 677.801 169.229 677.801 169.949V175.5H676.102V170.153C676.102 169.521 675.938 169.027 675.608 168.67C675.278 168.311 674.826 168.131 674.25 168.131C673.856 168.131 673.506 168.216 673.199 168.386C672.896 168.557 672.655 168.807 672.477 169.136C672.303 169.462 672.216 169.856 672.216 170.318ZM683.739 178.955C683.045 178.955 682.449 178.864 681.949 178.682C681.453 178.5 681.047 178.259 680.733 177.96C680.419 177.661 680.184 177.333 680.028 176.977L681.489 176.375C681.591 176.542 681.727 176.718 681.898 176.903C682.072 177.093 682.307 177.254 682.602 177.386C682.902 177.519 683.286 177.585 683.756 177.585C684.4 177.585 684.932 177.428 685.352 177.114C685.773 176.803 685.983 176.307 685.983 175.625V173.909H685.875C685.773 174.095 685.625 174.301 685.432 174.528C685.242 174.756 684.981 174.953 684.648 175.119C684.314 175.286 683.881 175.369 683.347 175.369C682.657 175.369 682.036 175.208 681.483 174.886C680.934 174.561 680.498 174.081 680.176 173.449C679.858 172.812 679.699 172.03 679.699 171.102C679.699 170.174 679.856 169.379 680.17 168.716C680.489 168.053 680.924 167.545 681.477 167.193C682.03 166.837 682.657 166.659 683.358 166.659C683.9 166.659 684.337 166.75 684.67 166.932C685.004 167.11 685.263 167.318 685.449 167.557C685.638 167.795 685.784 168.006 685.886 168.188H686.011V166.773H687.676V175.693C687.676 176.443 687.502 177.059 687.153 177.54C686.805 178.021 686.333 178.377 685.739 178.608C685.148 178.839 684.481 178.955 683.739 178.955ZM683.722 173.96C684.21 173.96 684.623 173.847 684.96 173.619C685.301 173.388 685.559 173.059 685.733 172.631C685.911 172.199 686 171.682 686 171.08C686 170.492 685.913 169.975 685.739 169.528C685.564 169.081 685.309 168.733 684.972 168.483C684.634 168.229 684.218 168.102 683.722 168.102C683.21 168.102 682.784 168.235 682.443 168.5C682.102 168.761 681.845 169.117 681.67 169.568C681.5 170.019 681.415 170.523 681.415 171.08C681.415 171.652 681.502 172.153 681.676 172.585C681.85 173.017 682.108 173.354 682.449 173.597C682.794 173.839 683.218 173.96 683.722 173.96Z" fill="#374761"/>
<rect x="21.5" y="227.5" width="155" height="126" rx="18.5" stroke="#374761" stroke-width="3" stroke-dasharray="6 6"/>
<path fill-rule="evenodd" clip-rule="evenodd" d="M99 290C108.941 290 117 281.941 117 272C117 262.059 108.941 254 99 254C89.0589 254 81 262.059 81 272C81 281.941 89.0589 290 99 290ZM99 292C110.046 292 119 283.046 119 272C119 260.954 110.046 252 99 252C87.9542 252 79 260.954 79 272C79 283.046 87.9542 292 99 292Z" fill="#374761"/>
<path fill-rule="evenodd" clip-rule="evenodd" d="M107 272C107 272.265 106.895 272.519 106.707 272.707C106.52 272.895 106.265 273 106 273H92C91.7348 273 91.4805 272.895 91.2929 272.707C91.1054 272.52 91.0001 272.265 91.0001 272C91.0001 271.735 91.1054 271.48 91.2929 271.293C91.4805 271.105 91.7348 271 92 271H106C106.265 271 106.52 271.105 106.707 271.293C106.895 271.48 107 271.735 107 272Z" fill="#374761"/>
<path fill-rule="evenodd" clip-rule="evenodd" d="M99 280C98.7348 280 98.4805 279.895 98.293 279.707C98.1055 279.52 98.0001 279.265 98.0001 279V265C98.0001 264.735 98.1054 264.48 98.2929 264.293C98.4805 264.105 98.7348 264 99 264C99.2653 264 99.5196 264.105 99.7071 264.293C99.8947 264.48 100 264.735 100 265V279C100 279.265 99.8946 279.519 99.7071 279.707C99.5196 279.895 99.2653 280 99 280Z" fill="#374761"/>
<path d="M85.2614 327H83.3977L87.5852 315.364H89.6136L93.8011 327H91.9375L88.6477 317.477H88.5568L85.2614 327ZM85.5739 322.443H91.6193V323.92H85.5739V322.443ZM98.4716 327.17C97.767 327.17 97.1383 326.991 96.5852 326.631C96.036 326.267 95.6042 325.75 95.2898 325.08C94.9792 324.405 94.8239 323.597 94.8239 322.653C94.8239 321.71 94.9811 320.903 95.2955 320.233C95.6136 319.562 96.0492 319.049 96.6023 318.693C97.1553 318.337 97.7822 318.159 98.483 318.159C99.0246 318.159 99.4602 318.25 99.7898 318.432C100.123 318.61 100.381 318.818 100.562 319.057C100.748 319.295 100.892 319.506 100.994 319.688H101.097V315.364H102.795V327H101.136V325.642H100.994C100.892 325.828 100.744 326.04 100.551 326.278C100.362 326.517 100.1 326.725 99.767 326.903C99.4337 327.081 99.0019 327.17 98.4716 327.17ZM98.8466 325.722C99.3352 325.722 99.7481 325.593 100.085 325.335C100.426 325.074 100.684 324.712 100.858 324.25C101.036 323.788 101.125 323.25 101.125 322.636C101.125 322.03 101.038 321.5 100.864 321.045C100.689 320.591 100.434 320.237 100.097 319.983C99.7595 319.729 99.3428 319.602 98.8466 319.602C98.3352 319.602 97.9091 319.735 97.5682 320C97.2273 320.265 96.9697 320.627 96.7955 321.085C96.625 321.544 96.5398 322.061 96.5398 322.636C96.5398 323.22 96.6269 323.744 96.8011 324.21C96.9754 324.676 97.233 325.045 97.5739 325.318C97.9186 325.587 98.3428 325.722 98.8466 325.722ZM108.487 327.17C107.783 327.17 107.154 326.991 106.601 326.631C106.052 326.267 105.62 325.75 105.305 325.08C104.995 324.405 104.839 323.597 104.839 322.653C104.839 321.71 104.997 320.903 105.311 320.233C105.629 319.562 106.065 319.049 106.618 318.693C107.171 318.337 107.798 318.159 108.499 318.159C109.04 318.159 109.476 318.25 109.805 318.432C110.139 318.61 110.396 318.818 110.578 319.057C110.764 319.295 110.908 319.506 111.01 319.688H111.112V315.364H112.811V327H111.152V325.642H111.01C110.908 325.828 110.76 326.04 110.567 326.278C110.377 326.517 110.116 326.725 109.783 326.903C109.449 327.081 109.018 327.17 108.487 327.17ZM108.862 325.722C109.351 325.722 109.764 325.593 110.101 325.335C110.442 325.074 110.699 324.712 110.874 324.25C111.052 323.788 111.141 323.25 111.141 322.636C111.141 322.03 111.054 321.5 110.879 321.045C110.705 320.591 110.449 320.237 110.112 319.983C109.775 319.729 109.358 319.602 108.862 319.602C108.351 319.602 107.925 319.735 107.584 320C107.243 320.265 106.985 320.627 106.811 321.085C106.641 321.544 106.555 322.061 106.555 322.636C106.555 323.22 106.643 323.744 106.817 324.21C106.991 324.676 107.249 325.045 107.589 325.318C107.934 325.587 108.358 325.722 108.862 325.722Z" fill="#374761"/>
<rect x="202.5" y="227.5" width="155" height="126" rx="18.5" stroke="#374761" stroke-width="3" stroke-dasharray="6 6"/>
<path fill-rule="evenodd" clip-rule="evenodd" d="M280 290C289.941 290 298 281.941 298 272C298 262.059 289.941 254 280 254C270.059 254 262 262.059 262 272C262 281.941 270.059 290 280 290ZM280 292C291.046 292 300 283.046 300 272C300 260.954 291.046 252 280 252C268.954 252 260 260.954 260 272C260 283.046 268.954 292 280 292Z" fill="#374761"/>
<path fill-rule="evenodd" clip-rule="evenodd" d="M288 272C288 272.265 287.895 272.519 287.707 272.707C287.52 272.895 287.265 273 287 273H273C272.735 273 272.48 272.895 272.293 272.707C272.105 272.52 272 272.265 272 272C272 271.735 272.105 271.48 272.293 271.293C272.48 271.105 272.735 271 273 271H287C287.265 271 287.519 271.105 287.707 271.293C287.895 271.48 288 271.735 288 272Z" fill="#374761"/>
<path fill-rule="evenodd" clip-rule="evenodd" d="M280 280C279.735 280 279.48 279.895 279.293 279.707C279.105 279.52 279 279.265 279 279V265C279 264.735 279.105 264.48 279.293 264.293C279.48 264.105 279.735 264 280 264C280.265 264 280.52 264.105 280.707 264.293C280.895 264.48 281 264.735 281 265V279C281 279.265 280.895 279.519 280.707 279.707C280.52 279.895 280.265 280 280 280Z" fill="#374761"/>
<path d="M266.261 327H264.398L268.585 315.364H270.614L274.801 327H272.938L269.648 317.477H269.557L266.261 327ZM266.574 322.443H272.619V323.92H266.574V322.443ZM279.472 327.17C278.767 327.17 278.138 326.991 277.585 326.631C277.036 326.267 276.604 325.75 276.29 325.08C275.979 324.405 275.824 323.597 275.824 322.653C275.824 321.71 275.981 320.903 276.295 320.233C276.614 319.562 277.049 319.049 277.602 318.693C278.155 318.337 278.782 318.159 279.483 318.159C280.025 318.159 280.46 318.25 280.79 318.432C281.123 318.61 281.381 318.818 281.562 319.057C281.748 319.295 281.892 319.506 281.994 319.688H282.097V315.364H283.795V327H282.136V325.642H281.994C281.892 325.828 281.744 326.04 281.551 326.278C281.362 326.517 281.1 326.725 280.767 326.903C280.434 327.081 280.002 327.17 279.472 327.17ZM279.847 325.722C280.335 325.722 280.748 325.593 281.085 325.335C281.426 325.074 281.684 324.712 281.858 324.25C282.036 323.788 282.125 323.25 282.125 322.636C282.125 322.03 282.038 321.5 281.864 321.045C281.689 320.591 281.434 320.237 281.097 319.983C280.759 319.729 280.343 319.602 279.847 319.602C279.335 319.602 278.909 319.735 278.568 320C278.227 320.265 277.97 320.627 277.795 321.085C277.625 321.544 277.54 322.061 277.54 322.636C277.54 323.22 277.627 323.744 277.801 324.21C277.975 324.676 278.233 325.045 278.574 325.318C278.919 325.587 279.343 325.722 279.847 325.722ZM289.487 327.17C288.783 327.17 288.154 326.991 287.601 326.631C287.052 326.267 286.62 325.75 286.305 325.08C285.995 324.405 285.839 323.597 285.839 322.653C285.839 321.71 285.997 320.903 286.311 320.233C286.629 319.562 287.065 319.049 287.618 318.693C288.171 318.337 288.798 318.159 289.499 318.159C290.04 318.159 290.476 318.25 290.805 318.432C291.139 318.61 291.396 318.818 291.578 319.057C291.764 319.295 291.908 319.506 292.01 319.688H292.112V315.364H293.811V327H292.152V325.642H292.01C291.908 325.828 291.76 326.04 291.567 326.278C291.377 326.517 291.116 326.725 290.783 326.903C290.449 327.081 290.018 327.17 289.487 327.17ZM289.862 325.722C290.351 325.722 290.764 325.593 291.101 325.335C291.442 325.074 291.699 324.712 291.874 324.25C292.052 323.788 292.141 323.25 292.141 322.636C292.141 322.03 292.054 321.5 291.879 321.045C291.705 320.591 291.449 320.237 291.112 319.983C290.775 319.729 290.358 319.602 289.862 319.602C289.351 319.602 288.925 319.735 288.584 320C288.243 320.265 287.985 320.627 287.811 321.085C287.641 321.544 287.555 322.061 287.555 322.636C287.555 323.22 287.643 323.744 287.817 324.21C287.991 324.676 288.249 325.045 288.589 325.318C288.934 325.587 289.358 325.722 289.862 325.722Z" fill="#374761"/>
<rect x="383.5" y="227.5" width="155" height="126" rx="18.5" stroke="#374761" stroke-width="3" stroke-dasharray="6 6"/>
<path fill-rule="evenodd" clip-rule="evenodd" d="M461 290C470.941 290 479 281.941 479 272C479 262.059 470.941 254 461 254C451.059 254 443 262.059 443 272C443 281.941 451.059 290 461 290ZM461 292C472.046 292 481 283.046 481 272C481 260.954 472.046 252 461 252C449.954 252 441 260.954 441 272C441 283.046 449.954 292 461 292Z" fill="#374761"/>
<path fill-rule="evenodd" clip-rule="evenodd" d="M469 272C469 272.265 468.895 272.519 468.707 272.707C468.52 272.895 468.265 273 468 273H454C453.735 273 453.48 272.895 453.293 272.707C453.105 272.52 453 272.265 453 272C453 271.735 453.105 271.48 453.293 271.293C453.48 271.105 453.735 271 454 271H468C468.265 271 468.519 271.105 468.707 271.293C468.895 271.48 469 271.735 469 272Z" fill="#374761"/>
<path fill-rule="evenodd" clip-rule="evenodd" d="M461 280C460.735 280 460.48 279.895 460.293 279.707C460.105 279.52 460 279.265 460 279V265C460 264.735 460.105 264.48 460.293 264.293C460.48 264.105 460.735 264 461 264C461.265 264 461.52 264.105 461.707 264.293C461.895 264.48 462 264.735 462 265V279C462 279.265 461.895 279.519 461.707 279.707C461.52 279.895 461.265 280 461 280Z" fill="#374761"/>
<path d="M447.261 327H445.398L449.585 315.364H451.614L455.801 327H453.938L450.648 317.477H450.557L447.261 327ZM447.574 322.443H453.619V323.92H447.574V322.443ZM460.472 327.17C459.767 327.17 459.138 326.991 458.585 326.631C458.036 326.267 457.604 325.75 457.29 325.08C456.979 324.405 456.824 323.597 456.824 322.653C456.824 321.71 456.981 320.903 457.295 320.233C457.614 319.562 458.049 319.049 458.602 318.693C459.155 318.337 459.782 318.159 460.483 318.159C461.025 318.159 461.46 318.25 461.79 318.432C462.123 318.61 462.381 318.818 462.562 319.057C462.748 319.295 462.892 319.506 462.994 319.688H463.097V315.364H464.795V327H463.136V325.642H462.994C462.892 325.828 462.744 326.04 462.551 326.278C462.362 326.517 462.1 326.725 461.767 326.903C461.434 327.081 461.002 327.17 460.472 327.17ZM460.847 325.722C461.335 325.722 461.748 325.593 462.085 325.335C462.426 325.074 462.684 324.712 462.858 324.25C463.036 323.788 463.125 323.25 463.125 322.636C463.125 322.03 463.038 321.5 462.864 321.045C462.689 320.591 462.434 320.237 462.097 319.983C461.759 319.729 461.343 319.602 460.847 319.602C460.335 319.602 459.909 319.735 459.568 320C459.227 320.265 458.97 320.627 458.795 321.085C458.625 321.544 458.54 322.061 458.54 322.636C458.54 323.22 458.627 323.744 458.801 324.21C458.975 324.676 459.233 325.045 459.574 325.318C459.919 325.587 460.343 325.722 460.847 325.722ZM470.487 327.17C469.783 327.17 469.154 326.991 468.601 326.631C468.052 326.267 467.62 325.75 467.305 325.08C466.995 324.405 466.839 323.597 466.839 322.653C466.839 321.71 466.997 320.903 467.311 320.233C467.629 319.562 468.065 319.049 468.618 318.693C469.171 318.337 469.798 318.159 470.499 318.159C471.04 318.159 471.476 318.25 471.805 318.432C472.139 318.61 472.396 318.818 472.578 319.057C472.764 319.295 472.908 319.506 473.01 319.688H473.112V315.364H474.811V327H473.152V325.642H473.01C472.908 325.828 472.76 326.04 472.567 326.278C472.377 326.517 472.116 326.725 471.783 326.903C471.449 327.081 471.018 327.17 470.487 327.17ZM470.862 325.722C471.351 325.722 471.764 325.593 472.101 325.335C472.442 325.074 472.699 324.712 472.874 324.25C473.052 323.788 473.141 323.25 473.141 322.636C473.141 322.03 473.054 321.5 472.879 321.045C472.705 320.591 472.449 320.237 472.112 319.983C471.775 319.729 471.358 319.602 470.862 319.602C470.351 319.602 469.925 319.735 469.584 320C469.243 320.265 468.985 320.627 468.811 321.085C468.641 321.544 468.555 322.061 468.555 322.636C468.555 323.22 468.643 323.744 468.817 324.21C468.991 324.676 469.249 325.045 469.589 325.318C469.934 325.587 470.358 325.722 470.862 325.722Z" fill="#374761"/>
<rect x="564.5" y="227.5" width="155" height="126" rx="18.5" stroke="#374761" stroke-width="3" stroke-dasharray="6 6"/>
<path fill-rule="evenodd" clip-rule="evenodd" d="M642 290C651.941 290 660 281.941 660 272C660 262.059 651.941 254 642 254C632.059 254 624 262.059 624 272C624 281.941 632.059 290 642 290ZM642 292C653.046 292 662 283.046 662 272C662 260.954 653.046 252 642 252C630.954 252 622 260.954 622 272C622 283.046 630.954 292 642 292Z" fill="#374761"/>
<path fill-rule="evenodd" clip-rule="evenodd" d="M650 272C650 272.265 649.895 272.519 649.707 272.707C649.52 272.895 649.265 273 649 273H635C634.735 273 634.48 272.895 634.293 272.707C634.105 272.52 634 272.265 634 272C634 271.735 634.105 271.48 634.293 271.293C634.48 271.105 634.735 271 635 271H649C649.265 271 649.519 271.105 649.707 271.293C649.895 271.48 650 271.735 650 272Z" fill="#374761"/>
<path fill-rule="evenodd" clip-rule="evenodd" d="M642 280C641.735 280 641.48 279.895 641.293 279.707C641.105 279.52 641 279.265 641 279V265C641 264.735 641.105 264.48 641.293 264.293C641.48 264.105 641.735 264 642 264C642.265 264 642.52 264.105 642.707 264.293C642.895 264.48 643 264.735 643 265V279C643 279.265 642.895 279.519 642.707 279.707C642.52 279.895 642.265 280 642 280Z" fill="#374761"/>
<path d="M628.261 327H626.398L630.585 315.364H632.614L636.801 327H634.938L631.648 317.477H631.557L628.261 327ZM628.574 322.443H634.619V323.92H628.574V322.443ZM641.472 327.17C640.767 327.17 640.138 326.991 639.585 326.631C639.036 326.267 638.604 325.75 638.29 325.08C637.979 324.405 637.824 323.597 637.824 322.653C637.824 321.71 637.981 320.903 638.295 320.233C638.614 319.562 639.049 319.049 639.602 318.693C640.155 318.337 640.782 318.159 641.483 318.159C642.025 318.159 642.46 318.25 642.79 318.432C643.123 318.61 643.381 318.818 643.562 319.057C643.748 319.295 643.892 319.506 643.994 319.688H644.097V315.364H645.795V327H644.136V325.642H643.994C643.892 325.828 643.744 326.04 643.551 326.278C643.362 326.517 643.1 326.725 642.767 326.903C642.434 327.081 642.002 327.17 641.472 327.17ZM641.847 325.722C642.335 325.722 642.748 325.593 643.085 325.335C643.426 325.074 643.684 324.712 643.858 324.25C644.036 323.788 644.125 323.25 644.125 322.636C644.125 322.03 644.038 321.5 643.864 321.045C643.689 320.591 643.434 320.237 643.097 319.983C642.759 319.729 642.343 319.602 641.847 319.602C641.335 319.602 640.909 319.735 640.568 320C640.227 320.265 639.97 320.627 639.795 321.085C639.625 321.544 639.54 322.061 639.54 322.636C639.54 323.22 639.627 323.744 639.801 324.21C639.975 324.676 640.233 325.045 640.574 325.318C640.919 325.587 641.343 325.722 641.847 325.722ZM651.487 327.17C650.783 327.17 650.154 326.991 649.601 326.631C649.052 326.267 648.62 325.75 648.305 325.08C647.995 324.405 647.839 323.597 647.839 322.653C647.839 321.71 647.997 320.903 648.311 320.233C648.629 319.562 649.065 319.049 649.618 318.693C650.171 318.337 650.798 318.159 651.499 318.159C652.04 318.159 652.476 318.25 652.805 318.432C653.139 318.61 653.396 318.818 653.578 319.057C653.764 319.295 653.908 319.506 654.01 319.688H654.112V315.364H655.811V327H654.152V325.642H654.01C653.908 325.828 653.76 326.04 653.567 326.278C653.377 326.517 653.116 326.725 652.783 326.903C652.449 327.081 652.018 327.17 651.487 327.17ZM651.862 325.722C652.351 325.722 652.764 325.593 653.101 325.335C653.442 325.074 653.699 324.712 653.874 324.25C654.052 323.788 654.141 323.25 654.141 322.636C654.141 322.03 654.054 321.5 653.879 321.045C653.705 320.591 653.449 320.237 653.112 319.983C652.775 319.729 652.358 319.602 651.862 319.602C651.351 319.602 650.925 319.735 650.584 320C650.243 320.265 649.985 320.627 649.811 321.085C649.641 321.544 649.555 322.061 649.555 322.636C649.555 323.22 649.643 323.744 649.817 324.21C649.991 324.676 650.249 325.045 650.589 325.318C650.934 325.587 651.358 325.722 651.862 325.722Z" fill="#374761"/>
</svg>
