<svg width="263" height="119" viewBox="0 0 263 119" fill="none" xmlns="http://www.w3.org/2000/svg">
<rect width="263" height="119" rx="10" fill="url(#paint0_linear_3752_40287)"/>
<path d="M21.9787 34H20.348L24.0121 23.8182H25.7869L29.451 34H27.8203L24.9418 25.6676H24.8622L21.9787 34ZM22.2521 30.0128H27.5419V31.3054H22.2521V30.0128ZM30.9213 34V23.8182H32.4078V27.6016H32.4973C32.5835 27.4425 32.7078 27.2585 32.8702 27.0497C33.0326 26.8409 33.258 26.6586 33.5463 26.5028C33.8347 26.3438 34.2159 26.2642 34.6898 26.2642C35.3063 26.2642 35.8565 26.42 36.3404 26.7315C36.8243 27.0431 37.2038 27.4922 37.4789 28.0788C37.7573 28.6655 37.8965 29.3714 37.8965 30.1967C37.8965 31.022 37.7589 31.7296 37.4838 32.3196C37.2087 32.9062 36.8309 33.3587 36.3503 33.6768C35.8697 33.9917 35.3212 34.1491 34.7047 34.1491C34.2407 34.1491 33.8612 34.0713 33.5662 33.9155C33.2746 33.7597 33.0459 33.5774 32.8801 33.3686C32.7144 33.1598 32.5868 32.9742 32.4973 32.8118H32.373V34H30.9213ZM32.378 30.1818C32.378 30.7187 32.4559 31.1894 32.6117 31.5938C32.7675 31.9981 32.9928 32.3146 33.2878 32.5433C33.5828 32.7687 33.9441 32.8814 34.3716 32.8814C34.8158 32.8814 35.187 32.7637 35.4853 32.5284C35.7836 32.2898 36.0089 31.9666 36.1614 31.5589C36.3172 31.1513 36.3951 30.6922 36.3951 30.1818C36.3951 29.678 36.3188 29.2256 36.1664 28.8246C36.0172 28.4235 35.7918 28.107 35.4902 27.875C35.1919 27.643 34.8191 27.527 34.3716 27.527C33.9408 27.527 33.5762 27.638 33.2779 27.8601C32.9829 28.0821 32.7592 28.392 32.6067 28.7898C32.4542 29.1875 32.378 29.6515 32.378 30.1818ZM45.288 28.228L43.9407 28.4666C43.8844 28.2943 43.7949 28.1302 43.6722 27.9744C43.5529 27.8187 43.3905 27.6911 43.185 27.5916C42.9795 27.4922 42.7227 27.4425 42.4144 27.4425C41.9935 27.4425 41.6422 27.5369 41.3604 27.7259C41.0787 27.9115 40.9379 28.1518 40.9379 28.4467C40.9379 28.7019 41.0323 28.9074 41.2212 29.0632C41.4102 29.219 41.7151 29.3466 42.136 29.446L43.3491 29.7244C44.0517 29.8868 44.5754 30.1371 44.9201 30.4751C45.2648 30.8132 45.4371 31.2524 45.4371 31.7926C45.4371 32.25 45.3046 32.6577 45.0394 33.0156C44.7776 33.3703 44.4113 33.6487 43.9407 33.8509C43.4734 34.053 42.9315 34.1541 42.315 34.1541C41.4599 34.1541 40.7622 33.9718 40.2219 33.6072C39.6817 33.2393 39.3503 32.7173 39.2276 32.0412L40.6644 31.8224C40.7539 32.197 40.9379 32.4804 41.2163 32.6726C41.4947 32.8615 41.8576 32.956 42.305 32.956C42.7923 32.956 43.1817 32.8549 43.4734 32.6527C43.765 32.4472 43.9109 32.197 43.9109 31.902C43.9109 31.6634 43.8214 31.4628 43.6424 31.3004C43.4667 31.138 43.1966 31.0154 42.832 30.9325L41.5394 30.6491C40.8268 30.4867 40.2998 30.2282 39.9585 29.8736C39.6204 29.5189 39.4513 29.0698 39.4513 28.5263C39.4513 28.0755 39.5773 27.6811 39.8292 27.343C40.0811 27.005 40.4291 26.7415 40.8732 26.5526C41.3174 26.3603 41.8261 26.2642 42.3995 26.2642C43.2248 26.2642 43.8744 26.4432 44.3484 26.8011C44.8223 27.1558 45.1355 27.6314 45.288 28.228ZM50.3627 34.1541C49.6104 34.1541 48.9624 33.9934 48.4189 33.6719C47.8786 33.3471 47.461 32.8913 47.166 32.3047C46.8743 31.7147 46.7285 31.0237 46.7285 30.2315C46.7285 29.4493 46.8743 28.7599 47.166 28.1634C47.461 27.5668 47.872 27.1011 48.399 26.7663C48.9293 26.4316 49.5491 26.2642 50.2583 26.2642C50.6892 26.2642 51.1068 26.3355 51.5112 26.478C51.9155 26.6205 52.2785 26.8442 52.6 27.1491C52.9215 27.4541 53.175 27.8501 53.3606 28.3374C53.5462 28.8213 53.639 29.4096 53.639 30.1023V30.6293H47.5687V29.5156H52.1824C52.1824 29.1245 52.1028 28.7782 51.9437 28.4766C51.7846 28.1716 51.5609 27.9313 51.2725 27.7557C50.9875 27.58 50.6528 27.4922 50.2683 27.4922C49.8507 27.4922 49.4861 27.5949 49.1745 27.8004C48.8663 28.0026 48.6277 28.2678 48.4586 28.5959C48.2929 28.9207 48.21 29.2737 48.21 29.6548V30.5249C48.21 31.0353 48.2995 31.4695 48.4785 31.8274C48.6608 32.1854 48.9144 32.4588 49.2392 32.6477C49.564 32.8333 49.9435 32.9261 50.3777 32.9261C50.6594 32.9261 50.9163 32.8864 51.1483 32.8068C51.3803 32.724 51.5808 32.6013 51.7498 32.4389C51.9189 32.2765 52.0481 32.076 52.1376 31.8374L53.5446 32.0909C53.4319 32.5052 53.2297 32.8681 52.938 33.1797C52.6497 33.4879 52.2868 33.7282 51.8493 33.9006C51.4151 34.0696 50.9196 34.1541 50.3627 34.1541ZM56.7749 29.4659V34H55.2884V26.3636H56.7152V27.6065H56.8097C56.9853 27.2022 57.2604 26.8774 57.6349 26.6321C58.0128 26.3868 58.4884 26.2642 59.0618 26.2642C59.5821 26.2642 60.0379 26.3736 60.429 26.5923C60.8201 26.8078 61.1233 27.1293 61.3388 27.5568C61.5542 27.9844 61.6619 28.513 61.6619 29.1428V34H60.1754V29.3217C60.1754 28.7682 60.0313 28.3357 59.7429 28.0241C59.4545 27.7093 59.0585 27.5518 58.5547 27.5518C58.21 27.5518 57.9034 27.6264 57.6349 27.7756C57.3698 27.9247 57.1593 28.1435 57.0036 28.4318C56.8511 28.7169 56.7749 29.0616 56.7749 29.4659ZM67.2202 26.3636V27.5568H63.049V26.3636H67.2202ZM64.1676 24.5341H65.6541V31.7578C65.6541 32.0462 65.6972 32.2633 65.7834 32.4091C65.8696 32.5516 65.9806 32.6494 66.1165 32.7024C66.2557 32.7521 66.4065 32.777 66.5689 32.777C66.6882 32.777 66.7926 32.7687 66.8821 32.7521C66.9716 32.7356 67.0412 32.7223 67.0909 32.7124L67.3594 33.9403C67.2732 33.9735 67.1506 34.0066 66.9915 34.0398C66.8324 34.0762 66.6335 34.0961 66.3949 34.0994C66.0038 34.1061 65.6392 34.0365 65.3011 33.8906C64.9631 33.7448 64.6896 33.5194 64.4808 33.2145C64.272 32.9096 64.1676 32.5268 64.1676 32.0661V24.5341ZM72.0737 34.1541C71.3213 34.1541 70.6734 33.9934 70.1298 33.6719C69.5895 33.3471 69.1719 32.8913 68.877 32.3047C68.5853 31.7147 68.4395 31.0237 68.4395 30.2315C68.4395 29.4493 68.5853 28.7599 68.877 28.1634C69.1719 27.5668 69.5829 27.1011 70.1099 26.7663C70.6402 26.4316 71.26 26.2642 71.9693 26.2642C72.4002 26.2642 72.8178 26.3355 73.2221 26.478C73.6265 26.6205 73.9894 26.8442 74.3109 27.1491C74.6324 27.4541 74.8859 27.8501 75.0716 28.3374C75.2572 28.8213 75.35 29.4096 75.35 30.1023V30.6293H69.2797V29.5156H73.8933C73.8933 29.1245 73.8137 28.7782 73.6547 28.4766C73.4956 28.1716 73.2718 27.9313 72.9835 27.7557C72.6984 27.58 72.3637 27.4922 71.9792 27.4922C71.5616 27.4922 71.197 27.5949 70.8855 27.8004C70.5772 28.0026 70.3386 28.2678 70.1696 28.5959C70.0038 28.9207 69.921 29.2737 69.921 29.6548V30.5249C69.921 31.0353 70.0105 31.4695 70.1895 31.8274C70.3717 32.1854 70.6253 32.4588 70.9501 32.6477C71.2749 32.8333 71.6544 32.9261 72.0886 32.9261C72.3703 32.9261 72.6272 32.8864 72.8592 32.8068C73.0912 32.724 73.2917 32.6013 73.4608 32.4389C73.6298 32.2765 73.7591 32.076 73.8485 31.8374L75.2555 32.0909C75.1428 32.5052 74.9406 32.8681 74.649 33.1797C74.3606 33.4879 73.9977 33.7282 73.5602 33.9006C73.126 34.0696 72.6305 34.1541 72.0737 34.1541ZM80.2905 34.1541C79.5381 34.1541 78.8902 33.9934 78.3466 33.6719C77.8063 33.3471 77.3887 32.8913 77.0938 32.3047C76.8021 31.7147 76.6562 31.0237 76.6562 30.2315C76.6562 29.4493 76.8021 28.7599 77.0938 28.1634C77.3887 27.5668 77.7997 27.1011 78.3267 26.7663C78.857 26.4316 79.4768 26.2642 80.1861 26.2642C80.617 26.2642 81.0346 26.3355 81.4389 26.478C81.8433 26.6205 82.2062 26.8442 82.5277 27.1491C82.8492 27.4541 83.1027 27.8501 83.2884 28.3374C83.474 28.8213 83.5668 29.4096 83.5668 30.1023V30.6293H77.4964V29.5156H82.1101C82.1101 29.1245 82.0305 28.7782 81.8714 28.4766C81.7124 28.1716 81.4886 27.9313 81.2003 27.7557C80.9152 27.58 80.5805 27.4922 80.196 27.4922C79.7784 27.4922 79.4138 27.5949 79.1023 27.8004C78.794 28.0026 78.5554 28.2678 78.3864 28.5959C78.2206 28.9207 78.1378 29.2737 78.1378 29.6548V30.5249C78.1378 31.0353 78.2273 31.4695 78.4062 31.8274C78.5885 32.1854 78.8421 32.4588 79.1669 32.6477C79.4917 32.8333 79.8712 32.9261 80.3054 32.9261C80.5871 32.9261 80.844 32.8864 81.076 32.8068C81.308 32.724 81.5085 32.6013 81.6776 32.4389C81.8466 32.2765 81.9759 32.076 82.0653 31.8374L83.4723 32.0909C83.3596 32.5052 83.1574 32.8681 82.8658 33.1797C82.5774 33.4879 82.2145 33.7282 81.777 33.9006C81.3428 34.0696 80.8473 34.1541 80.2905 34.1541ZM85.2161 34V26.3636H86.7026V34H85.2161ZM85.9668 25.1854C85.7083 25.1854 85.4862 25.0992 85.3006 24.9268C85.1183 24.7512 85.0272 24.5424 85.0272 24.3004C85.0272 24.0552 85.1183 23.8464 85.3006 23.674C85.4862 23.4983 85.7083 23.4105 85.9668 23.4105C86.2253 23.4105 86.4457 23.4983 86.628 23.674C86.8136 23.8464 86.9064 24.0552 86.9064 24.3004C86.9064 24.5424 86.8136 24.7512 86.628 24.9268C86.4457 25.0992 86.2253 25.1854 85.9668 25.1854ZM94.4247 28.228L93.0774 28.4666C93.0211 28.2943 92.9316 28.1302 92.8089 27.9744C92.6896 27.8187 92.5272 27.6911 92.3217 27.5916C92.1162 27.4922 91.8594 27.4425 91.5511 27.4425C91.1302 27.4425 90.7789 27.5369 90.4972 27.7259C90.2154 27.9115 90.0746 28.1518 90.0746 28.4467C90.0746 28.7019 90.169 28.9074 90.358 29.0632C90.5469 29.219 90.8518 29.3466 91.2727 29.446L92.4858 29.7244C93.1884 29.8868 93.7121 30.1371 94.0568 30.4751C94.4015 30.8132 94.5739 31.2524 94.5739 31.7926C94.5739 32.25 94.4413 32.6577 94.1761 33.0156C93.9143 33.3703 93.5481 33.6487 93.0774 33.8509C92.6101 34.053 92.0682 34.1541 91.4517 34.1541C90.5966 34.1541 89.8989 33.9718 89.3587 33.6072C88.8184 33.2393 88.487 32.7173 88.3643 32.0412L89.8011 31.8224C89.8906 32.197 90.0746 32.4804 90.353 32.6726C90.6314 32.8615 90.9943 32.956 91.4418 32.956C91.929 32.956 92.3184 32.8549 92.6101 32.6527C92.9018 32.4472 93.0476 32.197 93.0476 31.902C93.0476 31.6634 92.9581 31.4628 92.7791 31.3004C92.6035 31.138 92.3333 31.0154 91.9688 30.9325L90.6761 30.6491C89.9635 30.4867 89.4366 30.2282 89.0952 29.8736C88.7571 29.5189 88.5881 29.0698 88.5881 28.5263C88.5881 28.0755 88.714 27.6811 88.9659 27.343C89.2178 27.005 89.5658 26.7415 90.0099 26.5526C90.4541 26.3603 90.9628 26.2642 91.5362 26.2642C92.3615 26.2642 93.0111 26.4432 93.4851 26.8011C93.959 27.1558 94.2723 27.6314 94.4247 28.228ZM96.2083 34V26.3636H97.6351V27.6065H97.7296C97.8887 27.1856 98.1489 26.8575 98.5101 26.6222C98.8714 26.3835 99.3039 26.2642 99.8077 26.2642C100.318 26.2642 100.746 26.3835 101.09 26.6222C101.438 26.8608 101.695 27.1889 101.861 27.6065H101.941C102.123 27.1989 102.413 26.8741 102.811 26.6321C103.208 26.3868 103.682 26.2642 104.232 26.2642C104.925 26.2642 105.49 26.4813 105.928 26.9155C106.369 27.3497 106.589 28.0043 106.589 28.8793V34H105.102V29.0185C105.102 28.5014 104.962 28.1269 104.68 27.8949C104.398 27.6629 104.062 27.5469 103.671 27.5469C103.187 27.5469 102.811 27.696 102.542 27.9943C102.274 28.2893 102.139 28.6688 102.139 29.1328V34H100.658V28.924C100.658 28.5097 100.529 28.1766 100.27 27.9247C100.012 27.6728 99.6751 27.5469 99.2608 27.5469C98.9791 27.5469 98.7189 27.6214 98.4803 27.7706C98.245 27.9164 98.0544 28.1203 97.9086 28.3821C97.766 28.6439 97.6948 28.9472 97.6948 29.2919V34H96.2083Z" fill="white"/>
<path d="M21.5511 66V63.7159L27.6108 57.7756C28.1903 57.1903 28.6733 56.6705 29.0597 56.2159C29.446 55.7614 29.7358 55.321 29.929 54.8949C30.1222 54.4687 30.2188 54.0142 30.2188 53.5312C30.2188 52.9801 30.0938 52.5085 29.8438 52.1165C29.5938 51.7188 29.25 51.4119 28.8125 51.196C28.375 50.9801 27.8778 50.8722 27.321 50.8722C26.7472 50.8722 26.2443 50.9915 25.8125 51.2301C25.3807 51.4631 25.0455 51.7955 24.8068 52.2273C24.5739 52.6591 24.4574 53.1733 24.4574 53.7699H21.4489C21.4489 52.6619 21.7017 51.6989 22.2074 50.8807C22.7131 50.0625 23.4091 49.429 24.2955 48.9801C25.1875 48.5312 26.2102 48.3068 27.3636 48.3068C28.5341 48.3068 29.5625 48.5256 30.4489 48.9631C31.3352 49.4006 32.0227 50 32.5114 50.7614C33.0057 51.5227 33.2528 52.392 33.2528 53.3693C33.2528 54.0227 33.1278 54.6648 32.8778 55.2955C32.6278 55.9261 32.1875 56.625 31.5568 57.392C30.9318 58.1591 30.054 59.0881 28.9233 60.179L25.9148 63.2386V63.358H33.517V66H21.5511ZM43.5568 48.5455V66H40.3949V51.6222H40.2926L36.2102 54.2301V51.3324L40.5483 48.5455H43.5568ZM47.6733 62.7614V60.2472L55.0795 48.5455H57.1761V52.125H55.8977L50.9119 60.0256V60.1619H61.25V62.7614H47.6733ZM56 66V61.9943L56.0341 60.8693V48.5455H59.017V66H56ZM70.0412 66.2386C68.9048 66.2386 67.8878 66.0256 66.9901 65.5994C66.0923 65.1676 65.3793 64.5767 64.8509 63.8267C64.3281 63.0767 64.0497 62.2187 64.0156 61.2528H67.0838C67.1406 61.9687 67.4503 62.554 68.0128 63.0085C68.5753 63.4574 69.2514 63.6818 70.0412 63.6818C70.6605 63.6818 71.2116 63.5398 71.6946 63.2557C72.1776 62.9716 72.5582 62.5767 72.8366 62.071C73.1151 61.5653 73.2514 60.9886 73.2457 60.3409C73.2514 59.6818 73.1122 59.0966 72.8281 58.5852C72.544 58.0739 72.1548 57.6733 71.6605 57.3835C71.1662 57.0881 70.598 56.9403 69.956 56.9403C69.4332 56.9347 68.919 57.0312 68.4134 57.2301C67.9077 57.429 67.5071 57.6903 67.2116 58.0142L64.3565 57.5455L65.2685 48.5455H75.3935V51.1875H67.8849L67.3821 55.8153H67.4844C67.8082 55.4347 68.2656 55.1193 68.8565 54.8693C69.4474 54.6136 70.0952 54.4858 70.7997 54.4858C71.8565 54.4858 72.7997 54.7358 73.6293 55.2358C74.4588 55.7301 75.1122 56.4119 75.5895 57.2812C76.0668 58.1506 76.3054 59.1449 76.3054 60.2642C76.3054 61.4176 76.0384 62.446 75.5043 63.3494C74.9759 64.2472 74.2401 64.9545 73.2969 65.4716C72.3594 65.983 71.2741 66.2386 70.0412 66.2386Z" fill="white"/>
<circle cx="29" cy="86" r="9" fill="white" fill-opacity="0.3"/>
<path d="M32.9427 83.8554C32.8854 83.7149 32.7708 83.5992 32.6317 83.5413C32.5662 83.5165 32.4925 83.5 32.4188 83.5H30.8962C30.5769 83.5 30.3231 83.7562 30.3231 84.0785C30.3231 84.4008 30.5769 84.657 30.8962 84.657H31.0435L29.3162 86.4008L28.4812 85.1446C28.383 85.0041 28.2356 84.905 28.0637 84.8884C27.8836 84.8719 27.7281 84.9298 27.6053 85.0537L25.1658 87.5165C24.9448 87.7397 24.9448 88.1033 25.1658 88.3347C25.2804 88.4504 25.4196 88.5 25.5669 88.5C25.7143 88.5 25.8616 88.4421 25.9681 88.3347L27.9164 86.3678L28.7514 87.624C28.8496 87.7645 28.997 87.8636 29.1689 87.8802C29.349 87.8967 29.5045 87.8388 29.6273 87.7149L31.854 85.4669V85.6157C31.854 85.938 32.1077 86.1942 32.427 86.1942C32.7463 86.1942 33 85.938 33 85.6157V84.0702C32.9837 83.9959 32.9755 83.9215 32.9427 83.8554Z" fill="white"/>
<path d="M46.4773 88.9659V83.3409H47.4318V88.9659H46.4773ZM44.142 86.6307V85.6761H49.767V86.6307H44.142ZM54.8817 81.7727V90.5H53.8249V82.8807H53.7738L51.6431 84.2955V83.2216L53.8249 81.7727H54.8817ZM57.1871 88.7102V87.8409L61.0224 81.7727H61.6531V83.1193H61.2269L58.3292 87.7045V87.7727H63.494V88.7102H57.1871ZM61.2951 90.5V88.446V88.0412V81.7727H62.3008V90.5H61.2951ZM69.5398 88.8636V88.4034C69.5398 88.0852 69.6051 87.794 69.7358 87.5298C69.8693 87.2628 70.0625 87.0497 70.3153 86.8906C70.571 86.7287 70.8807 86.6477 71.2443 86.6477C71.6136 86.6477 71.9233 86.7287 72.1733 86.8906C72.4233 87.0497 72.6122 87.2628 72.7401 87.5298C72.8679 87.794 72.9318 88.0852 72.9318 88.4034V88.8636C72.9318 89.1818 72.8665 89.4744 72.7358 89.7415C72.608 90.0057 72.4176 90.2187 72.1648 90.3807C71.9148 90.5398 71.608 90.6193 71.2443 90.6193C70.875 90.6193 70.5639 90.5398 70.3111 90.3807C70.0582 90.2187 69.8665 90.0057 69.7358 89.7415C69.6051 89.4744 69.5398 89.1818 69.5398 88.8636ZM70.4091 88.4034V88.8636C70.4091 89.1278 70.4716 89.3651 70.5966 89.5753C70.7216 89.7827 70.9375 89.8864 71.2443 89.8864C71.5426 89.8864 71.7528 89.7827 71.875 89.5753C72 89.3651 72.0625 89.1278 72.0625 88.8636V88.4034C72.0625 88.1392 72.0028 87.9034 71.8835 87.696C71.7642 87.4858 71.5511 87.3807 71.2443 87.3807C70.946 87.3807 70.7315 87.4858 70.6009 87.696C70.473 87.9034 70.4091 88.1392 70.4091 88.4034ZM65.1932 83.8693V83.4091C65.1932 83.0909 65.2585 82.7997 65.3892 82.5355C65.5227 82.2685 65.7159 82.0554 65.9688 81.8963C66.2244 81.7344 66.5341 81.6534 66.8977 81.6534C67.267 81.6534 67.5767 81.7344 67.8267 81.8963C68.0767 82.0554 68.2656 82.2685 68.3935 82.5355C68.5213 82.7997 68.5852 83.0909 68.5852 83.4091V83.8693C68.5852 84.1875 68.5199 84.4801 68.3892 84.7472C68.2614 85.0114 68.071 85.2244 67.8182 85.3864C67.5682 85.5455 67.2614 85.625 66.8977 85.625C66.5284 85.625 66.2173 85.5455 65.9645 85.3864C65.7116 85.2244 65.5199 85.0114 65.3892 84.7472C65.2585 84.4801 65.1932 84.1875 65.1932 83.8693ZM66.0625 83.4091V83.8693C66.0625 84.1335 66.125 84.3707 66.25 84.581C66.375 84.7884 66.5909 84.892 66.8977 84.892C67.196 84.892 67.4063 84.7884 67.5284 84.581C67.6534 84.3707 67.7159 84.1335 67.7159 83.8693V83.4091C67.7159 83.1449 67.6562 82.9091 67.5369 82.7017C67.4176 82.4915 67.2045 82.3864 66.8977 82.3864C66.5994 82.3864 66.3849 82.4915 66.2543 82.7017C66.1264 82.9091 66.0625 83.1449 66.0625 83.4091ZM65.517 90.5L71.517 81.7727H72.4886L66.4886 90.5H65.517ZM79.4261 81.7727V90.5H78.3693V81.7727H79.4261ZM82.4144 86.5625V90.5H81.4087V83.9545H82.3803V84.9773H82.4656C82.619 84.6449 82.8519 84.3778 83.1644 84.1761C83.4769 83.9716 83.8803 83.8693 84.3746 83.8693C84.8178 83.8693 85.2056 83.9602 85.538 84.142C85.8704 84.321 86.1289 84.5938 86.3136 84.9602C86.4982 85.3239 86.5906 85.7841 86.5906 86.3409V90.5H85.5849V86.4091C85.5849 85.8949 85.4513 85.4943 85.1843 85.2074C84.9173 84.9176 84.5508 84.7727 84.0849 84.7727C83.7638 84.7727 83.4769 84.8423 83.2241 84.9815C82.9741 85.1207 82.7766 85.3239 82.6317 85.5909C82.4869 85.858 82.4144 86.1818 82.4144 86.5625ZM91.0874 90.6364C90.4737 90.6364 89.9453 90.4915 89.5021 90.2017C89.0589 89.9119 88.718 89.5128 88.4794 89.0043C88.2408 88.4957 88.1214 87.9148 88.1214 87.2614C88.1214 86.5966 88.2436 86.0099 88.4879 85.5014C88.7351 84.9901 89.0788 84.5909 89.5192 84.304C89.9624 84.0142 90.4794 83.8693 91.0703 83.8693C91.5305 83.8693 91.9453 83.9545 92.3146 84.125C92.6839 84.2955 92.9865 84.5341 93.2223 84.8409C93.4581 85.1477 93.6044 85.5057 93.6612 85.9148H92.6555C92.5788 85.6165 92.4084 85.3523 92.1442 85.1222C91.8828 84.8892 91.5305 84.7727 91.0874 84.7727C90.6953 84.7727 90.3516 84.875 90.0561 85.0795C89.7635 85.2812 89.5348 85.5668 89.37 85.9361C89.2081 86.3026 89.1271 86.733 89.1271 87.2273C89.1271 87.733 89.2067 88.1733 89.3658 88.5483C89.5277 88.9233 89.755 89.2145 90.0476 89.4219C90.343 89.6293 90.6896 89.733 91.0874 89.733C91.3487 89.733 91.5859 89.6875 91.799 89.5966C92.0121 89.5057 92.1925 89.375 92.3402 89.2045C92.4879 89.0341 92.593 88.8295 92.6555 88.5909H93.6612C93.6044 88.9773 93.4638 89.3253 93.2393 89.6349C93.0178 89.9418 92.7237 90.1861 92.3572 90.3679C91.9936 90.5469 91.5703 90.6364 91.0874 90.6364Z" fill="white"/>
<circle cx="211" cy="57.4999" r="28.9999" stroke="white" stroke-opacity="0.3" stroke-width="6"/>
<path d="M219.195 29.6914C223.883 31.0786 228.145 33.6289 231.584 37.1052C235.023 40.5814 237.527 44.8708 238.863 49.5744C240.2 54.278 240.325 59.2431 239.228 64.0082C238.13 68.7732 235.846 73.1834 232.587 76.8287C229.328 80.4739 225.2 83.236 220.587 84.8579C215.974 86.4799 211.026 86.9091 206.202 86.1056C201.379 85.3022 196.837 83.2922 192.999 80.2625C189.161 77.2328 186.151 73.2818 184.25 68.7769" stroke="white" stroke-width="6" stroke-linecap="round"/>
<path d="M185.981 72.1289C183.431 68.2888 181.583 60.0774 182 55.4999C182.51 49.909 184.763 44.5519 187.5 40.4999" stroke="white" stroke-width="6" stroke-linecap="round"/>
<path d="M198.817 65.179C197.866 65.179 197.023 65.0192 196.286 64.6996C195.553 64.38 194.977 63.9432 194.56 63.3892C194.146 62.831 193.942 62.1982 193.946 61.4908C193.942 60.9411 194.061 60.4361 194.304 59.9759C194.547 59.5156 194.875 59.1321 195.288 58.8253C195.706 58.5142 196.17 58.3161 196.682 58.2308V58.1413C196.009 57.9922 195.463 57.6491 195.045 57.1122C194.632 56.571 194.428 55.9467 194.432 55.2393C194.428 54.5661 194.615 53.9652 194.994 53.4368C195.374 52.9084 195.893 52.4929 196.554 52.1903C197.214 51.8835 197.969 51.7301 198.817 51.7301C199.656 51.7301 200.404 51.8835 201.06 52.1903C201.721 52.4929 202.241 52.9084 202.62 53.4368C203.004 53.9652 203.195 54.5661 203.195 55.2393C203.195 55.9467 202.984 56.571 202.562 57.1122C202.145 57.6491 201.606 57.9922 200.945 58.1413V58.2308C201.457 58.3161 201.917 58.5142 202.326 58.8253C202.739 59.1321 203.067 59.5156 203.31 59.9759C203.558 60.4361 203.681 60.9411 203.681 61.4908C203.681 62.1982 203.472 62.831 203.055 63.3892C202.637 63.9432 202.062 64.38 201.329 64.6996C200.6 65.0192 199.763 65.179 198.817 65.179ZM198.817 63.3509C199.307 63.3509 199.733 63.2678 200.095 63.1016C200.457 62.9311 200.739 62.6925 200.939 62.3857C201.139 62.0788 201.241 61.7251 201.246 61.3246C201.241 60.907 201.133 60.5384 200.92 60.2188C200.711 59.8949 200.423 59.6413 200.057 59.4581C199.695 59.2749 199.281 59.1832 198.817 59.1832C198.348 59.1832 197.93 59.2749 197.564 59.4581C197.197 59.6413 196.908 59.8949 196.695 60.2188C196.486 60.5384 196.384 60.907 196.388 61.3246C196.384 61.7251 196.482 62.0788 196.682 62.3857C196.882 62.6882 197.163 62.9247 197.526 63.0952C197.892 63.2656 198.322 63.3509 198.817 63.3509ZM198.817 57.3871C199.217 57.3871 199.571 57.3061 199.878 57.1442C200.189 56.9822 200.434 56.7564 200.613 56.4666C200.792 56.1768 200.884 55.8423 200.888 55.4631C200.884 55.0881 200.794 54.7599 200.619 54.4787C200.445 54.1932 200.202 53.9737 199.891 53.8203C199.58 53.6626 199.222 53.5838 198.817 53.5838C198.403 53.5838 198.039 53.6626 197.724 53.8203C197.413 53.9737 197.17 54.1932 196.995 54.4787C196.825 54.7599 196.741 55.0881 196.746 55.4631C196.741 55.8423 196.827 56.1768 197.001 56.4666C197.18 56.7521 197.425 56.978 197.737 57.1442C198.052 57.3061 198.412 57.3871 198.817 57.3871ZM205.782 65V63.2869L210.327 58.8317C210.762 58.3928 211.124 58.0028 211.414 57.6619C211.704 57.321 211.921 56.9908 212.066 56.6712C212.211 56.3516 212.283 56.0107 212.283 55.6484C212.283 55.2351 212.189 54.8814 212.002 54.5874C211.814 54.2891 211.557 54.0589 211.229 53.897C210.9 53.7351 210.528 53.6541 210.11 53.6541C209.68 53.6541 209.302 53.7436 208.979 53.9226C208.655 54.0973 208.403 54.3466 208.224 54.6705C208.05 54.9943 207.962 55.38 207.962 55.8274H205.706C205.706 54.9964 205.895 54.2741 206.275 53.6605C206.654 53.0469 207.176 52.5717 207.841 52.2351C208.51 51.8984 209.277 51.7301 210.142 51.7301C211.02 51.7301 211.791 51.8942 212.456 52.2223C213.121 52.5504 213.636 53 214.003 53.571C214.373 54.142 214.559 54.794 214.559 55.527C214.559 56.017 214.465 56.4986 214.278 56.9716C214.09 57.4446 213.76 57.9687 213.287 58.544C212.818 59.1193 212.16 59.8161 211.312 60.6342L209.055 62.929V63.0185H214.757V65H205.782ZM222.601 62.9545V62.3793C222.601 61.9567 222.69 61.5678 222.867 61.2127C223.048 60.8576 223.311 60.5717 223.656 60.3551C224 60.1385 224.417 60.0302 224.907 60.0302C225.412 60.0302 225.834 60.1385 226.175 60.3551C226.516 60.5682 226.774 60.8523 226.948 61.2074C227.125 61.5625 227.214 61.9531 227.214 62.3793V62.9545C227.214 63.3771 227.125 63.766 226.948 64.1211C226.77 64.4762 226.509 64.7621 226.165 64.9787C225.824 65.1953 225.405 65.3036 224.907 65.3036C224.41 65.3036 223.99 65.1953 223.645 64.9787C223.301 64.7621 223.04 64.4762 222.862 64.1211C222.688 63.766 222.601 63.3771 222.601 62.9545ZM223.991 62.3793V62.9545C223.991 63.2351 224.059 63.4925 224.194 63.7269C224.329 63.9613 224.567 64.0785 224.907 64.0785C225.252 64.0785 225.488 63.9631 225.616 63.7322C225.747 63.4979 225.813 63.2386 225.813 62.9545V62.3793C225.813 62.0952 225.751 61.8359 225.627 61.6016C225.502 61.3636 225.263 61.2447 224.907 61.2447C224.574 61.2447 224.338 61.3636 224.199 61.6016C224.061 61.8359 223.991 62.0952 223.991 62.3793ZM217.056 56.7116V56.1364C217.056 55.7102 217.146 55.3196 217.328 54.9645C217.509 54.6094 217.771 54.3253 218.116 54.1122C218.46 53.8956 218.878 53.7873 219.368 53.7873C219.868 53.7873 220.289 53.8956 220.63 54.1122C220.975 54.3253 221.234 54.6094 221.408 54.9645C221.582 55.3196 221.669 55.7102 221.669 56.1364V56.7116C221.669 57.1378 221.58 57.5284 221.403 57.8835C221.229 58.2351 220.969 58.5174 220.625 58.7305C220.28 58.9435 219.861 59.0501 219.368 59.0501C218.867 59.0501 218.444 58.9435 218.1 58.7305C217.759 58.5174 217.5 58.2333 217.322 57.8782C217.145 57.5231 217.056 57.1342 217.056 56.7116ZM218.457 56.1364V56.7116C218.457 56.9957 218.523 57.255 218.654 57.4893C218.789 57.7202 219.027 57.8356 219.368 57.8356C219.709 57.8356 219.943 57.7202 220.071 57.4893C220.202 57.255 220.268 56.9957 220.268 56.7116V56.1364C220.268 55.8523 220.206 55.593 220.081 55.3587C219.957 55.1207 219.719 55.0018 219.368 55.0018C219.03 55.0018 218.794 55.1207 218.659 55.3587C218.524 55.5966 218.457 55.8558 218.457 56.1364ZM217.663 65L225.163 54.0909H226.495L218.995 65H217.663Z" fill="white"/>
<defs>
<linearGradient id="paint0_linear_3752_40287" x1="-47.9036" y1="7.04214e-06" x2="457.221" y2="179.095" gradientUnits="userSpaceOnUse">
<stop stop-color="#007905"/>
<stop offset="1" stop-color="#00DF09"/>
</linearGradient>
</defs>
</svg>
