<svg width="16" height="17" viewBox="0 0 16 17" fill="none" xmlns="http://www.w3.org/2000/svg">
<mask id="mask0_337_10284" style="mask-type:luminance" maskUnits="userSpaceOnUse" x="0" y="0" width="16" height="17">
<path d="M0 0.5H16V16.4626H0V0.5Z" fill="white"/>
</mask>
<g mask="url(#mask0_337_10284)">
<path d="M2.41743 0.488281H4.80995C6.16571 0.488281 7.20247 1.52504 7.20247 2.8808V5.27333C7.20247 6.62909 6.16571 7.66585 4.80995 7.66585H2.41743C1.06166 7.66585 0.0249023 6.62909 0.0249023 5.27333V2.8808C0.0249023 1.52504 1.06166 0.488281 2.41743 0.488281ZM2.41743 9.26087H4.80995C6.16571 9.26087 7.20247 10.2976 7.20247 11.6534V14.0459C7.20247 15.4017 6.16571 16.4384 4.80995 16.4384H2.41743C1.06166 16.4384 0.0249023 15.4017 0.0249023 14.0459V11.6534C0.0249023 10.3774 1.06166 9.26087 2.41743 9.26087ZM11.19 9.26087H13.5825C14.9383 9.26087 15.9751 10.2976 15.9751 11.6534V14.0459C15.9751 15.4017 14.9383 16.4384 13.5825 16.4384H11.19C9.83425 16.4384 8.79749 15.4017 8.79749 14.0459V11.6534C8.79749 10.3774 9.914 9.26087 11.19 9.26087ZM14.7788 4.63532H9.99375C9.67475 4.63532 9.35574 4.39607 9.35574 3.99732C9.35574 3.59856 9.595 3.35931 9.99375 3.35931H14.7788C15.0978 3.35931 15.4168 3.59856 15.4168 3.99732C15.4168 4.39607 15.0978 4.63532 14.7788 4.63532Z" fill="white"/>
<path d="M12.3863 7.02786C12.0673 7.02786 11.7483 6.7886 11.7483 6.38985V1.6048C11.7483 1.2858 11.9875 0.966797 12.3863 0.966797C12.7851 0.966797 13.0243 1.20605 13.0243 1.6048V6.38985C13.0243 6.7886 12.7053 7.02786 12.3863 7.02786Z" fill="white"/>
</g>
</svg>
