<svg width="19" height="16" viewBox="0 0 19 16" fill="none" xmlns="http://www.w3.org/2000/svg">
<path fill-rule="evenodd" clip-rule="evenodd" d="M4.17875 14.0001C4.29576 13.7974 4.46408 13.6291 4.66678 13.512C4.86948 13.395 5.09942 13.3334 5.33348 13.3334C5.56755 13.3334 5.79748 13.395 6.00018 13.512C6.20288 13.6291 6.3712 13.7974 6.48821 14.0001H18.0001C18.3681 14.0001 18.6669 14.2988 18.6669 14.6667C18.6669 15.0347 18.3681 15.3334 18.0001 15.3334H6.48821C6.37117 15.5361 6.20284 15.7044 6.00014 15.8214C5.79745 15.9384 5.56753 16 5.33348 16C5.09944 16 4.86951 15.9384 4.66682 15.8214C4.46412 15.7044 4.2958 15.5361 4.17875 15.3334H0.666725C0.489925 15.3333 0.32039 15.263 0.195373 15.138C0.0703561 15.013 8.47964e-05 14.8435 0 14.6667C0.000127185 14.4899 0.0704171 14.3204 0.195429 14.1954C0.320442 14.0704 0.489952 14.0002 0.666725 14.0001H4.17875ZM18.6669 2.00002C18.6669 0.895367 17.7715 0 16.6668 0H2.00002C0.895527 0 0 0.895367 0 2.00002V10.0001C0 11.1046 0.895527 12.0001 2.00002 12.0001H16.6668C17.7715 12.0001 18.6669 11.1046 18.6669 10.0001V2.00002ZM11.0668 6.53333C11.1496 6.47121 11.2168 6.39067 11.263 6.2981C11.3093 6.20553 11.3334 6.10346 11.3334 5.99997C11.3334 5.89648 11.3093 5.79441 11.263 5.70183C11.2168 5.60926 11.1496 5.52873 11.0668 5.4666L8.40007 3.46659C8.30104 3.39222 8.18325 3.34692 8.05991 3.33577C7.93657 3.32462 7.81257 3.34806 7.70181 3.40346C7.59104 3.45885 7.49791 3.54402 7.43286 3.64939C7.3678 3.75477 7.33339 3.87619 7.3335 4.00003V8.00006C7.33342 8.12389 7.36785 8.24529 7.43292 8.35064C7.49799 8.456 7.59112 8.54114 7.70188 8.59651C7.81263 8.65189 7.93663 8.67532 8.05995 8.66416C8.18327 8.653 8.30105 8.6077 8.40007 8.53335L11.0668 6.53333Z" fill="white"/>
</svg>
