<svg width="18" height="17" viewBox="0 0 18 17" fill="none" xmlns="http://www.w3.org/2000/svg">
<path d="M16.0185 9.2051L15.411 9.2657V9.88526C15.4114 10.2124 15.3086 10.5314 15.1173 10.7968C14.926 11.0622 14.6559 11.2605 14.3454 11.3637L11.2553 12.3937V15.078C16.4175 15.5922 16.0605 15.56 16.1722 15.56C17.037 15.56 17.7314 14.8584 17.7314 14.0016V10.7559C17.7314 9.83498 16.9352 9.11367 16.0185 9.2051ZM2.32031 9.88526V9.2657L1.71288 9.2051C0.796387 9.11364 0 9.8348 0 10.7559V14.0016C0 14.9227 0.796283 15.6438 1.71288 15.5524L6.4761 15.078V12.3937L3.38593 11.3637C3.07546 11.2606 2.80539 11.0622 2.61409 10.7968C2.4228 10.5314 2.32 10.2124 2.32031 9.88526ZM8.37322 13.026L7.51505 12.7399V15.9804C7.51505 16.1906 7.64145 16.3801 7.83574 16.4604C7.93067 16.4997 8.03513 16.51 8.13591 16.49C8.23669 16.4699 8.32927 16.4205 8.40196 16.3479L8.86568 15.8838L9.32939 16.3479C9.37766 16.3961 9.43494 16.4343 9.49799 16.4604C9.56104 16.4865 9.62861 16.4999 9.69684 16.4999C9.98265 16.4999 10.2163 16.2685 10.2163 15.9804V12.7399L9.35849 13.026C9.03873 13.1327 8.69298 13.1327 8.37322 13.026Z" fill="white"/>
<path d="M9.44229 9.11633C9.072 9.26371 8.65934 9.26371 8.28905 9.11633L3.35925 7.15269V9.88477C3.35925 10.1085 3.50228 10.3069 3.71457 10.3776L8.70152 12.0399C8.80807 12.0754 8.92327 12.0754 9.02982 12.0399L14.0168 10.3776C14.1202 10.3432 14.2103 10.277 14.274 10.1886C14.3378 10.1001 14.3721 9.99383 14.3721 9.88477V7.15234L12.4327 7.92497V9.60772C12.4327 9.89447 12.2 10.1272 11.9132 10.1272C11.6265 10.1272 11.3938 9.89447 11.3938 9.60772V8.33882L9.44229 9.11633Z" fill="white"/>
<path d="M0.327312 4.82704L8.67352 8.15167C8.79698 8.20062 8.93446 8.20062 9.05793 8.15167L11.3938 7.22112V6.80658L8.67005 5.7001C8.40443 5.59205 8.27629 5.28937 8.38434 5.0234C8.49239 4.75743 8.79542 4.62964 9.06139 4.73769L12.109 5.97542C12.3046 6.05507 12.4328 6.24555 12.4328 6.4568V6.80727L17.4041 4.82704C17.6019 4.74808 17.7314 4.55691 17.7314 4.34428C17.7314 4.13164 17.6019 3.94047 17.4041 3.86151L9.05793 0.536882C8.93451 0.487706 8.79694 0.487706 8.67352 0.536882L0.327312 3.86151C0.230747 3.90003 0.147953 3.96662 0.0896261 4.05268C0.0312996 4.13874 0.00012207 4.24031 0.00012207 4.34428C0.00012207 4.44824 0.0312996 4.54981 0.0896261 4.63587C0.147953 4.72193 0.230747 4.78852 0.327312 4.82704Z" fill="white"/>
</svg>
