<svg width="22" height="16" viewBox="0 0 22 16" fill="none" xmlns="http://www.w3.org/2000/svg">
<path d="M3.63636 8.72727C2.032 8.72727 0.727273 7.42255 0.727273 5.81818C0.727273 4.21382 2.032 2.90909 3.63636 2.90909C5.24073 2.90909 6.54546 4.21382 6.54546 5.81818C6.54546 7.42255 5.24073 8.72727 3.63636 8.72727ZM4.92364 9.21455C4.09455 9.53455 3.17818 9.53455 2.34909 9.21455C2.13818 9.13455 1.89818 9.16364 1.70909 9.28C1.18585 9.60662 0.754398 10.0611 0.455386 10.6006C0.156375 11.1401 -0.000343154 11.7468 5.64168e-07 12.3636V15.2727C5.64168e-07 15.6727 0.327273 16 0.727273 16H4.36364V12.3636C4.36364 11.2364 4.66182 10.1382 5.2 9.17818C5.10546 9.16364 5.01091 9.17818 4.92364 9.21455ZM18.1818 8.72727C19.7862 8.72727 21.0909 7.42255 21.0909 5.81818C21.0909 4.21382 19.7862 2.90909 18.1818 2.90909C16.5775 2.90909 15.2727 4.21382 15.2727 5.81818C15.2727 7.42255 16.5775 8.72727 18.1818 8.72727ZM20.1091 9.28C19.92 9.16364 19.68 9.13455 19.4691 9.21455C18.64 9.53455 17.7236 9.53455 16.8945 9.21455C16.8076 9.17706 16.7119 9.16447 16.6182 9.17818C17.1646 10.1511 17.4525 11.2478 17.4545 12.3636V16H21.0909C21.4909 16 21.8182 15.6727 21.8182 15.2727V12.3636C21.8182 11.1055 21.1782 9.95636 20.1091 9.28ZM10.9091 7.27273C8.904 7.27273 7.27273 5.64145 7.27273 3.63636C7.27273 1.63127 8.904 0 10.9091 0C12.9142 0 14.5455 1.63127 14.5455 3.63636C14.5455 5.64145 12.9142 7.27273 10.9091 7.27273ZM16 12.3636C15.9998 11.5638 15.8106 10.7754 15.4479 10.0626C15.0852 9.34978 14.5592 8.73276 13.9127 8.26182C13.6945 8.10182 13.4036 8.08 13.1636 8.19636C12.6764 8.44364 12.16 8.59636 11.6364 8.66909V12.3636C11.6364 12.7636 11.3091 13.0909 10.9091 13.0909C10.5091 13.0909 10.1818 12.7636 10.1818 12.3636V8.66909C9.65818 8.59636 9.14182 8.44364 8.65455 8.19636C8.41455 8.08 8.12364 8.10182 7.90546 8.26182C7.25901 8.73276 6.73299 9.34978 6.37027 10.0626C6.00754 10.7754 5.81837 11.5638 5.81818 12.3636V16H16V12.3636Z" fill="white"/>
</svg>
