<svg width="17" height="16" viewBox="0 0 17 16" fill="none" xmlns="http://www.w3.org/2000/svg">
<path d="M14.9827 3.10788H13.8161C13.9699 2.86433 14.0715 2.59094 14.1005 2.30181C14.193 1.37779 13.7063 0.549463 12.8778 0.182227C12.1163 -0.155332 11.2605 -0.017341 10.6443 0.541575L9.17111 1.87672C8.8842 1.56292 8.47176 1.3657 8.01402 1.3657C7.55547 1.3657 7.14237 1.56355 6.8554 1.87832L5.38032 0.541418C4.76309 -0.0174975 3.90765 -0.154957 3.14647 0.182415C2.31821 0.549682 1.83149 1.37829 1.92427 2.30228C1.95329 2.59119 2.05478 2.86445 2.20865 3.10788H1.0453C0.467975 3.10788 0 3.57588 0 4.15318V5.72114C0 6.00977 0.234003 6.2438 0.522665 6.2438H15.5054C15.794 6.2438 16.0281 6.0098 16.0281 5.72114V4.15318C16.028 3.57588 15.5601 3.10788 14.9827 3.10788ZM6.44606 2.93367V3.10788H3.98729C3.33765 3.10788 2.82638 2.50226 2.98864 1.82588C3.0601 1.52802 3.27511 1.27411 3.55319 1.14557C3.93504 0.969073 4.35803 1.02573 4.67875 1.31602L6.4465 2.91826C6.44641 2.92343 6.44606 2.9285 6.44606 2.93367ZM13.0633 2.16304C13.0244 2.70627 12.5337 3.10794 11.989 3.10794H9.58199V2.93373C9.58199 2.92756 9.58161 2.92146 9.58155 2.91529L11.3219 1.33781C11.5897 1.09511 11.9644 0.981814 12.3107 1.08512C12.8078 1.23338 13.0996 1.65606 13.0633 2.16304ZM1.0453 7.2891V14.9547C1.0453 15.532 1.51327 16 2.0906 16H6.96869V7.2891H1.0453ZM9.05932 7.2891V16H13.9374C14.5147 16 14.9827 15.532 14.9827 14.9547V7.2891H9.05932Z" fill="white"/>
</svg>
