<svg width="16" height="20" viewBox="0 0 16 20" fill="none" xmlns="http://www.w3.org/2000/svg">
<path d="M7.99995 6.32567C9.74671 6.32567 11.1627 4.90962 11.1627 3.16284C11.1627 1.41605 9.74671 0 7.99995 0C6.25319 0 4.83716 1.41605 4.83716 3.16284C4.83716 4.90962 6.25319 6.32567 7.99995 6.32567Z" fill="white"/>
<path d="M10.3241 6.75391C9.65443 7.18878 8.85625 7.44173 8.00003 7.44173C7.14381 7.44173 6.34563 7.18878 5.67598 6.75391C4.93148 7.03846 4.24561 7.4574 3.65253 7.98987L8.00003 9.62022L12.3475 7.98987C11.7545 7.45739 11.0686 7.03844 10.3241 6.75391ZM14.6977 11.5348H14.3256C14.0174 11.5348 13.7675 11.7847 13.7675 12.093V13.5814C13.7675 13.8896 14.0174 14.1395 14.3256 14.1395H14.6977C15.417 14.1395 16 13.5564 16 12.8372C16 12.1179 15.417 11.5348 14.6977 11.5348ZM1.72863 8.71713C1.6545 8.76851 1.59393 8.83707 1.55209 8.91697C1.51026 8.99686 1.4884 9.08571 1.4884 9.17589V10.4185H1.67445C2.59772 10.4185 3.34887 11.1697 3.34887 12.093V13.5814C3.34887 14.5046 2.59772 15.2558 1.67445 15.2558H1.4884V16.4318C1.4884 16.5454 1.52308 16.6563 1.58779 16.7497C1.65251 16.8431 1.74418 16.9145 1.85056 16.9544L7.44189 19.0512V10.6031L2.24252 8.65328C2.15809 8.62158 2.06722 8.61083 1.97772 8.62195C1.88821 8.63307 1.80274 8.66573 1.72863 8.71713Z" fill="white"/>
<path d="M12.6512 13.5808V12.0924C12.6512 11.1691 13.4023 10.418 14.3256 10.418H14.5116V9.17534C14.5116 9.08515 14.4898 8.99631 14.4479 8.91641C14.4061 8.83652 14.3455 8.76795 14.2714 8.71658C14.1973 8.66521 14.1118 8.63257 14.0223 8.62145C13.9328 8.61033 13.842 8.62106 13.7575 8.65273L8.55814 10.6025V19.0506L14.1495 16.9539C14.2559 16.914 14.3475 16.8426 14.4122 16.7492C14.477 16.6558 14.5116 16.5449 14.5116 16.4313V15.2552H14.3256C13.4023 15.2552 12.6512 14.5041 12.6512 13.5808ZM2.23256 13.5808V12.0924C2.23256 11.7842 1.98266 11.5343 1.67442 11.5343H1.30233C0.58307 11.5343 0 12.1173 0 12.8366C0 13.5559 0.58307 14.1389 1.30233 14.1389H1.67442C1.98266 14.1389 2.23256 13.889 2.23256 13.5808Z" fill="white"/>
</svg>
