<svg width="20" height="16" viewBox="0 0 20 16" fill="none" xmlns="http://www.w3.org/2000/svg">
<path d="M18.6375 11.3778V0H3.39502V4.3C4.58752 4.73848 5.44048 5.88568 5.44048 7.22844C5.44048 8.00817 5.15217 8.72141 4.67745 9.26881H8.37199L11.702 7.63054L12.2119 8.66686L9.08266 10.2063V11.0783C9.08326 11.5966 8.92856 12.1032 8.63851 12.5328H19.7108V11.3778H18.6375ZM14.1888 2.26405V3.41898H7.84365V2.26405H14.1888ZM6.84726 5.86623V4.7113H15.1852V5.86623H6.84726Z" fill="white"/>
<path d="M2.32155 9.19143C3.40617 9.19143 4.28543 8.31217 4.28543 7.22755C4.28543 6.14293 3.40617 5.26367 2.32155 5.26367C1.23692 5.26367 0.357666 6.14293 0.357666 7.22755C0.357666 8.31217 1.23692 9.19143 2.32155 9.19143Z" fill="white"/>
<path d="M7.92766 11.0784V10.4238H2.3216C1.03944 10.4238 0 11.4633 0 12.7454V16.0001H4.64324C4.64324 16.0001 4.64243 12.5467 4.64216 12.5324H6.47365C7.27667 12.5324 7.92766 11.8814 7.92766 11.0784Z" fill="white"/>
</svg>
