<svg width="60" height="60" viewBox="0 0 60 60" fill="none" xmlns="http://www.w3.org/2000/svg">
<path d="M45.0375 9.70621V56.2125C45.0375 57.0413 44.7083 57.8361 44.1222 58.4222C43.5362 59.0082 42.7413 59.3375 41.9125 59.3375H3.125C2.2962 59.3375 1.50134 59.0082 0.915291 58.4222C0.32924 57.8361 0 57.0413 0 56.2125V9.70621C0 8.87741 0.32924 8.08255 0.915291 7.4965C1.50134 6.91045 2.2962 6.58121 3.125 6.58121H13.4375V10.5625C13.4399 10.6831 13.4661 10.8021 13.5146 10.9127C13.563 11.0232 13.6327 11.1231 13.7198 11.2067C13.8069 11.2903 13.9095 11.3559 14.022 11.3997C14.1344 11.4436 14.2543 11.4649 14.375 11.4625H31C31.2355 11.4528 31.458 11.3524 31.6211 11.1823C31.7842 11.0122 31.8752 10.7856 31.875 10.55V6.56871H41.875C42.2896 6.56373 42.701 6.6413 43.0853 6.7969C43.4696 6.9525 43.8191 7.18301 44.1135 7.47502C44.4078 7.76703 44.6411 8.11469 44.7997 8.49775C44.9584 8.8808 45.0392 9.2916 45.0375 9.70621Z" fill="#E27C48"/>
<path d="M45.0375 9.7V56.2125C45.0375 57.0413 44.7083 57.8361 44.1222 58.4222C43.5362 59.0083 42.7413 59.3375 41.9125 59.3375H3.125C2.2962 59.3375 1.50134 59.0083 0.915291 58.4222C0.32924 57.8361 0 57.0413 0 56.2125V55.3562C10.9634 55.1418 21.4053 50.6356 29.0822 42.8056C36.7591 34.9756 41.0583 24.4468 41.0563 13.4812V6.60624H41.875C42.2859 6.60129 42.6938 6.67743 43.0752 6.83031C43.4566 6.98319 43.8042 7.20979 44.0979 7.49716C44.3917 7.78453 44.6259 8.12701 44.7871 8.505C44.9483 8.883 45.0334 9.28908 45.0375 9.7Z" fill="#E27C48"/>
<path d="M41.0625 11.0375V55.3687H4.81245C4.60028 55.3687 4.3968 55.2844 4.24677 55.1344C4.09674 54.9844 4.01245 54.7809 4.01245 54.5687V11.0375C4.01327 10.9332 4.03461 10.8302 4.07526 10.7342C4.1159 10.6382 4.17506 10.5511 4.24935 10.478C4.32363 10.4049 4.4116 10.3471 4.50822 10.308C4.60483 10.2689 4.70821 10.2491 4.81245 10.25H13.45V10.55C13.4508 10.6706 13.4753 10.7899 13.5223 10.9011C13.5692 11.0122 13.6376 11.1131 13.7235 11.1978C13.8094 11.2825 13.9111 11.3495 14.0229 11.3949C14.1347 11.4403 14.2543 11.4633 14.375 11.4625H31C31.2354 11.4528 31.458 11.3524 31.6211 11.1823C31.7842 11.0122 31.8752 10.7856 31.875 10.55V10.25H40.2625C40.3667 10.2491 40.4701 10.2689 40.5667 10.308C40.6633 10.3471 40.7513 10.4049 40.8256 10.478C40.8998 10.5511 40.959 10.6382 40.9996 10.7342C41.0403 10.8302 41.0616 10.9332 41.0625 11.0375Z" fill="#F4F6F8"/>
<path d="M8.25623 42.7937H16.7062V51.2437H8.25623V42.7937Z" fill="#258F6E"/>
<path d="M16.7063 42.7875V51.2562H8.25V49.3812H8.48125C10.1703 49.3812 11.7903 48.7102 12.9846 47.5159C14.179 46.3215 14.85 44.7016 14.85 43.0125V42.7875H16.7063Z" fill="#258F6E"/>
<path d="M8.25623 15.7125H16.7062V24.1625H8.25623V15.7125Z" fill="#258F6E"/>
<path d="M16.7063 15.7125V24.1625H8.25V22.2875H8.48125C10.1671 22.2875 11.7842 21.6191 12.978 20.4287C14.1719 19.2384 14.845 17.6233 14.85 15.9375V15.7125H16.7063Z" fill="#258F6E"/>
<path d="M31.875 5.54373V10.5437C31.875 10.7847 31.7797 11.0158 31.61 11.1868C31.4402 11.3577 31.2097 11.4546 30.9688 11.4562H14.375C14.1335 11.4546 13.9024 11.3579 13.7316 11.1872C13.5608 11.0164 13.4642 10.7852 13.4625 10.5437V5.54373C13.4625 5.30172 13.5587 5.06962 13.7298 4.89849C13.9009 4.72736 14.133 4.63123 14.375 4.63123H19.8438V3.49998C19.8438 2.74742 20.1427 2.02569 20.6749 1.49356C21.207 0.961425 21.9287 0.662476 22.6813 0.662476C23.4344 0.662474 24.1568 0.961224 24.6899 1.49318C25.223 2.02514 25.5234 2.74685 25.525 3.49998V4.63123H30.9875C31.2257 4.63615 31.4524 4.73465 31.6184 4.90543C31.7845 5.0762 31.8767 5.30551 31.875 5.54373Z" fill="#656D78"/>
<path d="M31.875 5.54375V10.5438C31.875 10.7847 31.7797 11.0158 31.61 11.1868C31.4402 11.3577 31.2097 11.4546 30.9688 11.4562H14.375C14.133 11.4562 13.9009 11.3601 13.7298 11.189C13.5587 11.0179 13.4625 10.7858 13.4625 10.5438V8.84375H23.3563C24.6282 8.83964 25.8653 8.42762 26.8856 7.66825C27.906 6.90887 28.6559 5.84219 29.025 4.625H30.9875C31.2263 4.63154 31.4529 4.73141 31.6188 4.90318C31.7848 5.07495 31.8767 5.30493 31.875 5.54375Z" fill="#434A54"/>
<path d="M11.7 49.125C11.6167 49.1263 11.534 49.1109 11.4567 49.0798C11.3794 49.0487 11.3092 49.0024 11.25 48.9437L9.84377 47.5375C9.74138 47.4179 9.68787 47.2641 9.69395 47.1068C9.70002 46.9495 9.76523 46.8003 9.87654 46.689C9.98785 46.5777 10.1371 46.5125 10.2944 46.5064C10.4517 46.5004 10.6055 46.5539 10.725 46.6562L11.6938 47.6187L14.1938 45.0875C14.3115 44.9698 14.4711 44.9037 14.6375 44.9037C14.804 44.9037 14.9636 44.9698 15.0813 45.0875C15.199 45.2052 15.2651 45.3648 15.2651 45.5312C15.2651 45.6977 15.199 45.8573 15.0813 45.975L12.1375 48.9437C12.0211 49.0592 11.864 49.1243 11.7 49.125Z" fill="white"/>
<path d="M36.875 32.4062H20.4563C20.2905 32.4062 20.1316 32.3404 20.0144 32.2232C19.8971 32.106 19.8313 31.947 19.8313 31.7812C19.8313 31.6155 19.8971 31.4565 20.0144 31.3393C20.1316 31.2221 20.2905 31.1562 20.4563 31.1562H36.875C37.0408 31.1562 37.1998 31.2221 37.317 31.3393C37.4342 31.4565 37.5 31.6155 37.5 31.7812C37.5 31.947 37.4342 32.106 37.317 32.2232C37.1998 32.3404 37.0408 32.4062 36.875 32.4062ZM36.875 36.5625H20.4563C20.2905 36.5625 20.1316 36.4967 20.0144 36.3794C19.8971 36.2622 19.8313 36.1033 19.8313 35.9375C19.8313 35.7717 19.8971 35.6128 20.0144 35.4956C20.1316 35.3783 20.2905 35.3125 20.4563 35.3125H36.875C37.0408 35.3125 37.1998 35.3783 37.317 35.4956C37.4342 35.6128 37.5 35.7717 37.5 35.9375C37.5 36.1033 37.4342 36.2622 37.317 36.3794C37.1998 36.4967 37.0408 36.5625 36.875 36.5625Z" fill="#434A54"/>
<path d="M11.7001 22.05C11.6176 22.0529 11.5354 22.0396 11.4582 22.0106C11.381 21.9816 11.3102 21.9377 11.2501 21.8812L9.84381 20.475C9.78523 20.4169 9.73873 20.3478 9.707 20.2716C9.67527 20.1954 9.65894 20.1137 9.65894 20.0312C9.65894 19.9487 9.67527 19.867 9.707 19.7909C9.73873 19.7147 9.78523 19.6456 9.84381 19.5875C9.96091 19.4711 10.1193 19.4057 10.2844 19.4057C10.4496 19.4057 10.608 19.4711 10.7251 19.5875L11.6938 20.55L14.1938 18.05C14.2519 17.9914 14.321 17.9449 14.3972 17.9132C14.4734 17.8814 14.5551 17.8651 14.6376 17.8651C14.7201 17.8651 14.8018 17.8814 14.8779 17.9132C14.9541 17.9449 15.0232 17.9914 15.0813 18.05C15.1977 18.1671 15.2631 18.3255 15.2631 18.4906C15.2631 18.6557 15.1977 18.8141 15.0813 18.9312L12.1376 21.8812C12.0192 21.9921 11.8623 22.0526 11.7001 22.05Z" fill="white"/>
<path d="M36.875 18.4812H20.4563C20.2905 18.4812 20.1316 18.4154 20.0144 18.2981C19.8971 18.1809 19.8313 18.022 19.8313 17.8562C19.8313 17.6904 19.8971 17.5315 20.0144 17.4143C20.1316 17.297 20.2905 17.2312 20.4563 17.2312H36.875C37.0408 17.2312 37.1998 17.297 37.317 17.4143C37.4342 17.5315 37.5 17.6904 37.5 17.8562C37.5 18.022 37.4342 18.1809 37.317 18.2981C37.1998 18.4154 37.0408 18.4812 36.875 18.4812ZM36.875 22.6437H20.4563C20.2905 22.6437 20.1316 22.5779 20.0144 22.4606C19.8971 22.3434 19.8313 22.1845 19.8313 22.0187C19.8313 21.8529 19.8971 21.694 20.0144 21.5768C20.1316 21.4595 20.2905 21.3937 20.4563 21.3937H36.875C37.0408 21.3937 37.1998 21.4595 37.317 21.5768C37.4342 21.694 37.5 21.8529 37.5 22.0187C37.5 22.1845 37.4342 22.3434 37.317 22.4606C37.1998 22.5779 37.0408 22.6437 36.875 22.6437ZM36.875 45.5625H20.4563C20.2905 45.5625 20.1316 45.4966 20.0144 45.3794C19.8971 45.2622 19.8313 45.1032 19.8313 44.9375C19.8313 44.7717 19.8971 44.6127 20.0144 44.4955C20.1316 44.3783 20.2905 44.3125 20.4563 44.3125H36.875C37.0408 44.3125 37.1998 44.3783 37.317 44.4955C37.4342 44.6127 37.5 44.7717 37.5 44.9375C37.5 45.1032 37.4342 45.2622 37.317 45.3794C37.1998 45.4966 37.0408 45.5625 36.875 45.5625ZM36.875 49.7187H20.4563C20.2905 49.7187 20.1316 49.6529 20.0144 49.5356C19.8971 49.4184 19.8313 49.2595 19.8313 49.0937C19.8313 48.9279 19.8971 48.769 20.0144 48.6518C20.1316 48.5346 20.2905 48.4687 20.4563 48.4687H36.875C37.0408 48.4687 37.1998 48.5346 37.317 48.6518C37.4342 48.769 37.5 48.9279 37.5 49.0937C37.5 49.2595 37.4342 49.4184 37.317 49.5356C37.1998 49.6529 37.0408 49.7187 36.875 49.7187Z" fill="#434A54"/>
<path d="M60 28.4312V31.5562C59.9976 31.8473 59.905 32.1305 59.7348 32.3667C59.5646 32.6029 59.3254 32.7805 59.05 32.875L56.675 33.6687C56.4826 33.7305 56.306 33.8335 56.1576 33.9706C56.0091 34.1078 55.8925 34.2756 55.8157 34.4625C55.7389 34.6495 55.7038 34.8509 55.713 35.0527C55.7222 35.2546 55.7753 35.452 55.8687 35.6312L56.9875 37.8687C57.1185 38.13 57.1636 38.4259 57.1165 38.7144C57.0693 39.0028 56.9323 39.269 56.725 39.475L54.5125 41.6937C54.3053 41.9014 54.0376 42.0381 53.7479 42.0841C53.4582 42.1302 53.1613 42.0832 52.9 41.95L50.6687 40.8375C50.4917 40.7527 50.2988 40.7062 50.1027 40.7012C49.9065 40.6961 49.7114 40.7325 49.5303 40.8081C49.3492 40.8836 49.186 40.9965 49.0516 41.1394C48.9171 41.2824 48.8143 41.4521 48.75 41.6375L47.9562 44.0125C47.8661 44.291 47.6899 44.5338 47.4528 44.7057C47.2158 44.8776 46.9303 44.9697 46.6375 44.9687H45.0375V15.0437H46.6062C46.899 15.0428 47.1845 15.1349 47.4216 15.3067C47.6586 15.4786 47.8349 15.7214 47.925 16L48.75 18.3687C48.813 18.5588 48.9162 18.733 49.0526 18.8796C49.189 19.0262 49.3554 19.1417 49.5404 19.2182C49.7255 19.2947 49.9248 19.3305 50.1249 19.323C50.325 19.3155 50.5212 19.265 50.7 19.175L52.9312 18.0562C53.1937 17.9257 53.4904 17.8808 53.7797 17.9279C54.069 17.975 54.3363 18.1117 54.5437 18.3187L56.7562 20.5375C56.9636 20.7434 57.1006 21.0096 57.1477 21.2981C57.1949 21.5865 57.1497 21.8824 57.0187 22.1437L55.8687 24.3812C55.7799 24.5602 55.7305 24.7561 55.724 24.9558C55.7175 25.1555 55.7541 25.3543 55.8311 25.5386C55.9082 25.723 56.024 25.8886 56.1706 26.0243C56.3173 26.1599 56.4914 26.2625 56.6812 26.325L59.05 27.1187C59.3254 27.2112 59.565 27.3874 59.7353 27.6227C59.9056 27.8581 59.9982 28.1407 60 28.4312Z" fill="#407194"/>
<path d="M57.1938 28.7562V31.2562C57.1923 31.4921 57.1175 31.7217 56.9797 31.9131C56.842 32.1046 56.6482 32.2485 56.425 32.325L54.4938 32.95C54.3423 33.0043 54.2041 33.0903 54.0885 33.2022C53.9729 33.3141 53.8825 33.4495 53.8233 33.5991C53.7642 33.7488 53.7376 33.9094 53.7455 34.0701C53.7533 34.2308 53.7954 34.3881 53.8688 34.5312L54.775 36.35C54.884 36.5614 54.9227 36.802 54.8856 37.0369C54.8485 37.2717 54.7375 37.4887 54.5688 37.6562L52.7688 39.4562C52.6015 39.6274 52.3838 39.7404 52.1475 39.7786C51.9113 39.8169 51.669 39.7784 51.4563 39.6687L49.6438 38.7625C49.5006 38.689 49.3434 38.647 49.1826 38.6392C49.0219 38.6313 48.8613 38.6578 48.7117 38.717C48.562 38.7762 48.4267 38.8666 48.3147 38.9822C48.2028 39.0978 48.1168 39.236 48.0625 39.3875L47.4375 41.3125C47.3635 41.5388 47.2195 41.7358 47.0263 41.8751C46.8331 42.0144 46.6007 42.0887 46.3625 42.0875H45.1125V17.85H46.3625C46.6007 17.8488 46.8331 17.9231 47.0263 18.0624C47.2195 18.2017 47.3635 18.3987 47.4375 18.625L48.0625 20.55C48.1135 20.7042 48.1971 20.8457 48.3076 20.9647C48.4181 21.0838 48.553 21.1776 48.703 21.2399C48.8531 21.3021 49.0147 21.3314 49.1771 21.3256C49.3394 21.3198 49.4986 21.2791 49.6438 21.2062L51.4563 20.3C51.6689 20.1915 51.9103 20.1531 52.146 20.1901C52.3818 20.2272 52.5997 20.3378 52.7688 20.5062L54.5688 22.3125C54.7375 22.48 54.8485 22.697 54.8856 22.9319C54.9227 23.1668 54.884 23.4074 54.775 23.6187L53.8688 25.4312C53.7961 25.5768 53.7557 25.7364 53.7503 25.8991C53.7449 26.0617 53.7746 26.2237 53.8375 26.3738C53.9004 26.5239 53.9949 26.6586 54.1147 26.7689C54.2344 26.8791 54.3765 26.9622 54.5313 27.0125L56.4563 27.6375C56.6807 27.7235 56.8725 27.8777 57.0048 28.0784C57.1371 28.279 57.2032 28.5161 57.1938 28.7562Z" fill="#DDEBFD"/>
<path d="M50.9375 30.0062C50.9358 31.5699 50.3135 33.069 49.2072 34.1741C48.1009 35.2792 46.6012 35.9 45.0375 35.9V24.1062C46.6023 24.1062 48.1029 24.7278 49.2094 25.8343C50.3159 26.9407 50.9375 28.4414 50.9375 30.0062Z" fill="#437A9F"/>
<path d="M8.19092 29.2635H16.6409V37.7136H8.19092V29.2635Z" fill="#258F6E"/>
<path d="M11.6346 35.6011C11.5522 35.604 11.47 35.5906 11.3928 35.5617C11.3155 35.5327 11.2448 35.4888 11.1846 35.4323L9.77838 34.0261C9.7198 33.968 9.6733 33.8988 9.64157 33.8227C9.60984 33.7465 9.59351 33.6648 9.59351 33.5823C9.59351 33.4998 9.60984 33.4181 9.64157 33.342C9.6733 33.2658 9.7198 33.1967 9.77838 33.1386C9.89548 33.0222 10.0539 32.9568 10.219 32.9568C10.3841 32.9568 10.5425 33.0222 10.6596 33.1386L11.6284 34.1011L14.1284 31.6011C14.1865 31.5425 14.2556 31.496 14.3318 31.4643C14.4079 31.4325 14.4896 31.4162 14.5721 31.4162C14.6546 31.4162 14.7363 31.4325 14.8125 31.4643C14.8887 31.496 14.9578 31.5425 15.0159 31.6011C15.1323 31.7182 15.1976 31.8766 15.1976 32.0417C15.1976 32.2068 15.1323 32.3652 15.0159 32.4823L12.0721 35.4323C11.9537 35.5432 11.7968 35.6037 11.6346 35.6011Z" fill="white"/>
</svg>
