<svg width="58" height="57" viewBox="0 0 58 57" fill="none" xmlns="http://www.w3.org/2000/svg">
<path fill-rule="evenodd" clip-rule="evenodd" d="M6.89698 0.0129395H20.6072C24.1889 0.0129395 27.1058 2.9298 27.1058 6.51148V20.2217C27.1058 23.8034 24.1889 26.7203 20.6072 26.7203H6.89698C3.3153 26.7203 0.398438 23.8034 0.398438 20.2217V6.51148C0.398438 2.9298 3.3153 0.0129395 6.89698 0.0129395Z" fill="#E86820"/>
<path fill-rule="evenodd" clip-rule="evenodd" d="M37.0024 30.1221H50.7127C54.2944 30.1221 57.2112 33.0389 57.2112 36.6206V50.3308C57.2112 53.9125 54.2944 56.8294 50.7127 56.8294H37.0024C33.4208 56.8294 30.5039 53.9125 30.5039 50.3308V36.6206C30.5039 33.0388 33.4208 30.1221 37.0024 30.1221Z" fill="#E86820"/>
<path fill-rule="evenodd" clip-rule="evenodd" d="M35.3551 4.86171C40.0525 0.164203 47.6678 0.164321 52.3651 4.86171C57.0625 9.55909 57.0625 17.1744 52.3651 21.8718C47.6678 26.5692 40.0525 26.5693 35.3551 21.8718C30.6577 17.1744 30.6577 9.55921 35.3551 4.86171Z" fill="#437A9F"/>
<path fill-rule="evenodd" clip-rule="evenodd" d="M17.7789 33.6029L26.4899 48.6909C28.315 51.8468 25.982 55.6773 22.4615 55.6773H5.03934C1.45023 55.6773 -0.800037 51.7526 1.0109 48.6909L9.72199 33.6029C11.5061 30.5173 15.969 30.4773 17.7789 33.6029Z" fill="#437A9F"/>
<path fill-rule="evenodd" clip-rule="evenodd" d="M6.89533 0.0129395H20.6056C24.1872 0.0129395 27.1041 2.9298 27.1041 6.51148V20.2217C27.1041 23.0423 25.2952 25.45 22.7773 26.3462C23.7121 25.2204 24.2751 23.7755 24.2751 22.202V8.49181C24.2751 4.91013 21.3582 1.99327 17.7765 1.99327H4.06629C3.3263 1.99271 2.59171 2.11922 1.89453 2.36729C3.0878 0.930138 4.88695 0.0129395 6.89533 0.0129395Z" fill="#E86820"/>
<path fill-rule="evenodd" clip-rule="evenodd" d="M37.0046 30.1221H50.7148C54.2965 30.1221 57.2134 33.0389 57.2134 36.6206V50.3308C57.2134 53.1513 55.4043 55.559 52.8866 56.4554C53.8213 55.3294 54.3844 53.8845 54.3844 52.3112V38.6009C54.3844 35.0193 51.4676 32.1024 47.8859 32.1024H34.1757C33.4357 32.1018 32.7011 32.2284 32.0039 32.4764C33.1972 31.0393 34.9963 30.1221 37.0046 30.1221Z" fill="#E86820"/>
<path fill-rule="evenodd" clip-rule="evenodd" d="M35.6289 4.59808C40.3439 0.166506 47.7585 0.253971 52.3661 4.86165C57.0635 9.55904 57.0635 17.1743 52.3661 21.8717C51.4588 22.7806 50.4116 23.5382 49.2644 24.1155C49.3562 24.0292 49.4474 23.9418 49.5371 23.8521C54.2344 19.1547 54.2344 11.5395 49.5371 6.84198C45.7735 3.07841 40.1371 2.33084 35.6289 4.59808Z" fill="#437A9F"/>
<path fill-rule="evenodd" clip-rule="evenodd" d="M17.7796 33.6026L26.4907 48.6906C28.1256 51.5174 26.4239 54.885 23.5212 55.5567C24.4307 54.1788 24.6221 52.3317 23.6617 50.6709L14.9506 35.583C13.8419 33.6682 11.7375 32.9418 9.86328 33.3755C11.7308 30.5176 16.0155 30.5559 17.7796 33.6026Z" fill="#437A9F"/>
</svg>
