<svg width="51" height="51" viewBox="0 0 51 51" fill="none" xmlns="http://www.w3.org/2000/svg">
<path d="M6.05185 24.1583H18.1125C21.2646 24.1583 23.8292 21.5939 23.8292 18.4417V6.38111C23.8292 3.22904 21.2647 0.66449 18.1125 0.66449H6.05185C2.89978 0.66449 0.335231 3.22893 0.335231 6.38111V18.4417C0.335231 21.5939 2.89967 24.1583 6.05185 24.1583ZM3.65342 6.38111C3.65342 5.0586 4.72935 3.98268 6.05185 3.98268H18.1125C19.4351 3.98268 20.511 5.0586 20.511 6.38111V18.4417C20.511 19.7642 19.4351 20.8401 18.1125 20.8401H6.05185C4.72935 20.8401 3.65342 19.7642 3.65342 18.4417V6.38111ZM44.5988 27.1509H32.5382C29.386 27.1509 26.8215 29.7154 26.8215 32.8675V44.9281C26.8215 48.0803 29.3859 50.6449 32.5382 50.6449H44.5988C47.7509 50.6449 50.3155 48.0804 50.3155 44.9281V32.8675C50.3155 29.7154 47.751 27.1509 44.5988 27.1509ZM46.9973 44.928C46.9973 46.2506 45.9214 47.3266 44.5988 47.3266H32.5382C31.2156 47.3266 30.1396 46.2506 30.1396 44.928V32.8675C30.1396 31.545 31.2156 30.4691 32.5382 30.4691H44.5988C45.9214 30.4691 46.9973 31.545 46.9973 32.8675V44.928ZM38.5685 22.9923C44.4028 22.9923 49.1494 18.2457 49.1494 12.4114C49.1494 6.57709 44.4028 1.83052 38.5685 1.83052C32.7342 1.83052 27.9877 6.5772 27.9877 12.4114C27.9877 18.2456 32.7342 22.9923 38.5685 22.9923ZM38.5685 5.14871C42.5731 5.14871 45.8312 8.40676 45.8312 12.4114C45.8312 16.416 42.5731 19.6741 38.5685 19.6741C34.5638 19.6741 31.3059 16.416 31.3059 12.4114C31.3059 8.40676 34.5638 5.14871 38.5685 5.14871ZM15.6304 30.2129C14.8899 28.9302 13.5634 28.1643 12.0821 28.1643C10.6009 28.1643 9.27444 28.9302 8.53386 30.2129L0.870912 43.4854C0.130333 44.7682 0.130333 46.2999 0.871016 47.5828C1.6117 48.8655 2.93825 49.6314 4.4193 49.6314H19.7451C21.2262 49.6314 22.5527 48.8655 23.2935 47.5827C24.0341 46.2999 24.0341 44.7682 23.2935 43.4854L15.6304 30.2129ZM20.4198 45.9235C20.2683 46.1856 20.0477 46.3132 19.745 46.3132H4.4193C4.11662 46.3132 3.89596 46.1857 3.74457 45.9236C3.59328 45.6616 3.59328 45.4067 3.74457 45.1445L11.4075 31.872C11.5588 31.6099 11.7795 31.4825 12.0821 31.4825C12.3848 31.4825 12.6055 31.6099 12.7568 31.872L20.4197 45.1445C20.571 45.4066 20.571 45.6614 20.4198 45.9235Z" fill="#437A9F"/>
</svg>
