<svg width="51" height="41" viewBox="0 0 51 41" fill="none" xmlns="http://www.w3.org/2000/svg">
<path d="M7.24463 0.931396C3.42562 0.931396 0.329712 4.31154 0.329712 8.48113V32.8726C0.329712 37.0421 3.42562 40.4223 7.24463 40.4223H29.59C33.409 40.4223 36.505 37.0421 36.505 32.8726V29.2039L46.1669 36.4323C47.9318 37.7527 50.3297 36.3728 50.3297 34.0368V7.31596C50.3297 4.98033 47.9325 3.60047 46.1674 4.92016L36.505 12.145V8.48113C36.505 4.31154 33.409 0.931396 29.59 0.931396H7.24463ZM36.505 24.98V16.3682L47.1382 8.41754V32.935L36.505 24.98ZM33.3135 8.48113V32.8726C33.3135 35.1177 31.6462 36.9378 29.59 36.9378H7.24463C5.18824 36.9378 3.52121 35.1177 3.52121 32.8726V8.48113C3.52121 6.23595 5.18824 4.41589 7.24463 4.41589H29.59C31.6464 4.41589 33.3135 6.23595 33.3135 8.48113Z" fill="#437A9F"/>
</svg>
