<svg width="98" height="100" viewBox="0 0 98 100" fill="none" xmlns="http://www.w3.org/2000/svg">
<path d="M80.213 0.998474C79.4322 0.101038 78.6848 0.00873022 78.5899 -0.000244141H19.0591C18.9643 0.00873022 18.2168 0.10232 17.4361 0.998474C16.3322 2.26642 15.1181 5.14206 15.6143 11.6395C16.0284 17.0818 17.5899 24.1074 20.254 32.5216C20.6604 33.8036 21.0835 35.0562 21.513 36.2472C25.663 47.7857 31.2476 56.5344 38.1117 62.2523C39.6299 63.5259 41.2605 64.6592 42.9835 65.6382L43.0643 65.6844C45.7681 67.1946 47.8579 67.7882 48.822 68.0023C49.7874 67.7882 51.8797 67.1933 54.5912 65.678L54.6617 65.6382C56.3842 64.6579 58.0147 63.5243 59.5335 62.251C66.4015 56.5382 71.9861 47.7882 76.1322 36.2498C76.5758 35.0161 76.9955 33.774 77.3912 32.5241C80.0591 24.11 81.6194 17.0857 82.0297 11.6421C82.5309 5.14206 81.3168 2.26642 80.213 0.998474ZM62.3297 21.2549L55.6732 27.7433C55.6631 27.7531 55.6556 27.7653 55.6513 27.7787C55.6471 27.7921 55.6462 27.8064 55.6489 27.8203L57.2194 36.9818C57.2225 36.9981 57.2209 37.0149 57.2147 37.0303C57.2086 37.0457 57.1981 37.0591 57.1847 37.0688C57.1712 37.0785 57.1553 37.0841 57.1387 37.0851C57.1222 37.086 57.1057 37.0822 57.0912 37.0741L48.8643 32.7485C48.8515 32.7421 48.8375 32.7389 48.8232 32.7389C48.809 32.7389 48.795 32.7421 48.7822 32.7485L40.5553 37.0741C40.5408 37.0822 40.5243 37.086 40.5078 37.0851C40.4912 37.0841 40.4753 37.0785 40.4618 37.0688C40.4484 37.0591 40.4379 37.0457 40.4318 37.0303C40.4256 37.0149 40.424 36.9981 40.4271 36.9818L42.0002 27.8203C42.0028 27.8064 42.002 27.7921 41.9978 27.7787C41.9935 27.7653 41.986 27.7531 41.9758 27.7433L35.3194 21.2562C35.3078 21.2446 35.2997 21.2301 35.2959 21.2142C35.2921 21.1984 35.2927 21.1818 35.2978 21.1662C35.3028 21.1507 35.312 21.1369 35.3245 21.1263C35.3369 21.1157 35.352 21.1087 35.3681 21.1062L44.5668 19.7703C44.5808 19.7682 44.594 19.7628 44.6054 19.7546C44.6167 19.7463 44.626 19.7354 44.6322 19.7228L48.7463 11.3895C48.7535 11.3749 48.7647 11.3626 48.7785 11.354C48.7923 11.3454 48.8083 11.3408 48.8245 11.3408C48.8408 11.3408 48.8568 11.3454 48.8706 11.354C48.8844 11.3626 48.8955 11.3749 48.9027 11.3895L53.0168 19.7228C53.0231 19.7354 53.0323 19.7463 53.0437 19.7546C53.0551 19.7628 53.0683 19.7682 53.0822 19.7703L62.2861 21.1062C62.3018 21.1094 62.3163 21.1169 62.3281 21.1278C62.3399 21.1388 62.3484 21.1527 62.3529 21.1681C62.3574 21.1835 62.3576 21.1998 62.3535 21.2153C62.3494 21.2309 62.3412 21.245 62.3297 21.2562V21.2549Z" fill="#FFA135"/>
<path d="M23.2063 39.89C10.7281 39.89 0.578125 29.7388 0.578125 17.2631V11.8695C0.578125 10.9855 0.929315 10.1376 1.55444 9.5125C2.17956 8.88738 3.0274 8.53619 3.91146 8.53619H17.2999C18.1385 8.54012 18.9452 8.85831 19.5607 9.42796C20.1761 9.99761 20.5556 10.7773 20.6243 11.6131C20.664 12.1272 20.5792 12.6432 20.3769 13.1175C20.1746 13.5918 19.8609 14.0102 19.4624 14.3374C19.0639 14.6646 18.5924 14.8908 18.0878 14.9968C17.5832 15.1028 17.0605 15.0855 16.564 14.9464H6.98838V17.2644C6.98838 25.9221 13.8089 33.017 22.3602 33.4593C23.1511 33.2087 24.0083 33.2745 24.7517 33.643C25.495 34.0114 26.0666 34.6538 26.3461 35.4349C26.5261 35.9381 26.5826 36.4772 26.5106 37.0068C26.4386 37.5364 26.2404 38.0409 25.9326 38.4778C25.6248 38.9147 25.2164 39.2712 24.7419 39.5172C24.2674 39.7632 23.7408 39.8915 23.2063 39.8913V39.89ZM74.455 39.89C73.9206 39.8902 73.3939 39.7619 72.9195 39.5159C72.445 39.2699 72.0366 38.9135 71.7288 38.4766C71.421 38.0396 71.2227 37.5351 71.1508 37.0055C71.0788 36.476 71.1352 35.9368 71.3153 35.4336C71.5956 34.6532 72.1674 34.0117 72.9107 33.644C73.6539 33.2763 74.5108 33.211 75.3012 33.4618C79.4486 33.2402 83.3535 31.4377 86.2127 28.4252C89.0719 25.4126 90.6681 21.419 90.673 17.2657V14.9452H81.0973C80.601 15.084 80.0784 15.1011 79.574 14.9949C79.0696 14.8888 78.5982 14.6626 78.1999 14.3354C77.8015 14.0083 77.488 13.5899 77.2858 13.1158C77.0836 12.6417 76.9987 12.1258 77.0384 11.6118C77.1067 10.7761 77.486 9.99645 78.1012 9.42678C78.7165 8.8571 79.523 8.53886 80.3615 8.53491H93.7499C94.634 8.53491 95.4818 8.8861 96.1069 9.51122C96.7321 10.1363 97.0832 10.9842 97.0832 11.8682V17.2606C97.0832 29.7439 86.932 39.89 74.455 39.89ZM62.882 82.2336H34.7794C37.1241 80.7651 39.1199 78.8024 40.6274 76.4826C42.135 74.1628 43.1179 71.5419 43.5076 68.8029C45.9076 69.9567 47.7268 70.4067 48.5807 70.5746C48.643 70.5862 48.7059 70.5939 48.7691 70.5977H48.8307C48.9217 70.5977 49.0124 70.5878 49.1012 70.5682C49.9653 70.3964 51.7717 69.9375 54.1486 68.8003C54.5385 71.5402 55.522 74.162 57.0305 76.4823C58.5389 78.8026 60.536 80.7654 62.882 82.2336ZM84.8486 91.3746V100H12.8127V91.3746C12.8148 89.6307 13.5085 87.9589 14.7418 86.7259C15.975 85.4928 17.647 84.7994 19.3909 84.7977H78.2704C80.0143 84.7994 81.6863 85.4928 82.9196 86.7259C84.1528 87.9589 84.8466 89.6307 84.8486 91.3746Z" fill="#FFA135"/>
</svg>
