<svg width="190" height="122" viewBox="0 0 190 122" fill="none" xmlns="http://www.w3.org/2000/svg">
<path d="M91.9636 122C115.569 122 134.704 102.864 134.704 79.2596C134.704 55.6546 115.569 36.519 91.9636 36.519C68.3587 36.519 49.2231 55.6546 49.2231 79.2596C49.2231 102.864 68.3587 122 91.9636 122Z" fill="#437A9F"/>
<path d="M113.007 61.2201C113.546 61.6608 105.562 72.4031 95.1792 85.2024L88.8776 92.8428L88.0123 93.8877L87.0981 92.9408C78.9353 84.5657 73.4335 78.362 73.8253 77.9702C74.2171 77.5784 80.4372 83.1127 88.7959 91.2266L87.0328 91.4062L93.2038 83.6841C103.587 70.8032 112.452 60.7793 113.007 61.2201Z" fill="white"/>
<path d="M152.679 62.0201C151.405 57.5305 145.577 57.9713 145.577 57.9713L145.724 61.0895C149.104 60.5018 151.193 64.4526 151.193 64.4526L152.679 62.0201Z" fill="#437A9F"/>
<path d="M28.8648 71.4557C27.6077 66.9662 21.7632 67.3906 21.7632 67.3906L21.9264 70.5252C25.3058 69.9374 27.3955 73.8882 27.3955 73.8882L28.8648 71.4557Z" fill="#E0E0E0"/>
<path d="M18.9101 119.098C25.6853 121.155 29.8972 113.351 29.8972 113.351L25.7832 111C23.7588 115.783 17 115.228 17 115.228L18.9101 119.098Z" fill="#E0E0E0"/>
<path d="M59.4917 17.7446C56.3408 18.0875 55.9653 22.0383 55.9653 22.0383L58.0713 22.2832C58.0713 19.9649 60.961 19.018 60.961 19.018L59.4917 17.7446Z" fill="#437A9F"/>
<path d="M189.346 46.6741C189.803 43.5396 186.081 42.1846 186.081 42.1846L185.313 44.16C187.566 44.7314 187.779 47.7679 187.779 47.7679L189.346 46.6741Z" fill="#E0E0E0"/>
<path d="M168.032 102.49C168.49 99.355 164.767 98 164.767 98L164 99.9917C166.253 100.563 166.465 103.583 166.465 103.583L168.032 102.49Z" fill="#437A9F"/>
<path d="M0.0336411 27.0502C-0.521431 31.9479 5.97617 33.156 5.97617 33.156L7.15162 29.8909C3.24979 29.5317 2.6947 24.9932 2.6947 24.9932L0.0336411 27.0502Z" fill="#437A9F"/>
<path d="M144.939 9.23879C148.107 9.41837 149.119 5.58184 149.119 5.58184L147.078 4.99414C146.703 7.27973 143.699 7.75315 143.699 7.75315L144.939 9.23879Z" fill="#437A9F"/>
<path d="M162.229 22.1362C161.38 22.3743 160.495 22.4572 159.617 22.3811C158.739 22.459 157.853 22.376 157.005 22.1362C158.729 21.7879 160.505 21.7879 162.229 22.1362Z" fill="#E0E0E0"/>
<path d="M165.004 15.0342C165.331 16.7822 165.331 18.5757 165.004 20.3237C164.656 18.5777 164.656 16.7801 165.004 15.0342Z" fill="#E0E0E0"/>
<path d="M167.943 21.9564C168.792 21.7183 169.677 21.6353 170.555 21.7115C171.433 21.6335 172.319 21.7165 173.167 21.9564C171.443 22.3046 169.667 22.3046 167.943 21.9564Z" fill="#E0E0E0"/>
<path d="M165.184 29.0744C164.835 27.3229 164.835 25.52 165.184 23.7686C165.51 25.5221 165.51 27.3208 165.184 29.0744Z" fill="#E0E0E0"/>
<path d="M169.396 26.1032C169.298 26.1848 168.792 25.7604 168.27 25.1563C167.747 24.5523 167.437 23.9646 167.535 23.8829C167.633 23.8013 168.155 24.2094 168.662 24.8298C169.168 25.4502 169.511 25.9236 169.396 26.1032Z" fill="#E0E0E0"/>
<path d="M169.151 17.9409C169.249 18.0552 168.906 18.5613 168.367 19.1C167.829 19.6388 167.323 19.9979 167.225 19.9C167.127 19.802 167.47 19.2796 168.008 18.7409C168.547 18.2021 169.053 17.9409 169.151 17.9409Z" fill="#E0E0E0"/>
<path d="M163.176 20.0135C163.078 20.1278 162.588 19.8665 162.082 19.4421C161.576 19.0176 161.25 18.5931 161.331 18.4952C161.413 18.3972 161.903 18.6421 162.409 19.0502C162.915 19.4584 163.258 19.9155 163.176 20.0135Z" fill="#E0E0E0"/>
<path d="M162.931 23.5728C163.045 23.6544 162.735 24.1605 162.245 24.6992C161.756 25.238 161.282 25.5808 161.184 25.4829C161.086 25.3849 161.38 24.8788 161.87 24.3564C162.36 23.834 162.833 23.4748 162.931 23.5728Z" fill="#E0E0E0"/>
<path d="M20.0001 7.57353C18.2761 7.92181 16.4999 7.92181 14.7759 7.57353C15.6248 7.33549 16.5096 7.25254 17.388 7.32866C18.2663 7.25073 19.1515 7.3337 20.0001 7.57353Z" fill="#437A9F"/>
<path d="M22.7749 0.47168C23.1233 2.22314 23.1233 4.02606 22.7749 5.77751C22.4266 4.02606 22.4266 2.22314 22.7749 0.47168Z" fill="#437A9F"/>
<path d="M25.7305 7.41014C27.4545 7.06186 29.2307 7.06186 30.9547 7.41014C29.2307 7.75842 27.4545 7.75842 25.7305 7.41014Z" fill="#437A9F"/>
<path d="M22.9551 14.5117C22.6068 12.7657 22.6068 10.9681 22.9551 9.22217C23.3034 10.9681 23.3034 12.7657 22.9551 14.5117Z" fill="#437A9F"/>
<path d="M27.183 11.4102C27.0687 11.5082 26.5626 11.0837 26.0565 10.4633C25.5504 9.84295 25.2076 9.28788 25.3218 9.18992C25.4361 9.09197 25.9259 9.53276 26.4483 10.1368C26.9707 10.7409 27.2809 11.4102 27.183 11.4102Z" fill="#437A9F"/>
<path d="M26.9387 3.41089C27.0367 3.50884 26.6775 4.03125 26.1551 4.57C25.6327 5.10874 25.1102 5.45157 25.0123 5.35362C24.9143 5.25567 25.2572 4.74958 25.7959 4.21083C26.3347 3.67208 26.8408 3.24763 26.9387 3.41089Z" fill="#437A9F"/>
<path d="M20.9473 5.46775C20.8656 5.5657 20.3759 5.32081 19.8698 4.89634C19.3637 4.47188 19.0208 4.04742 19.1188 3.93314C19.2167 3.81886 19.6902 4.08008 20.1963 4.50454C20.7024 4.92901 21.0452 5.35347 20.9473 5.46775Z" fill="#437A9F"/>
<path d="M20.7182 9.0107C20.8162 9.10865 20.506 9.61474 20.0325 10.1535C19.5591 10.6922 19.0693 11.0351 18.955 10.9371C18.8408 10.8392 19.1673 10.3331 19.6407 9.81066C20.1142 9.28824 20.6039 8.91275 20.7182 9.0107Z" fill="#437A9F"/>
</svg>
