<svg width="100" height="100" viewBox="0 0 100 100" fill="none" xmlns="http://www.w3.org/2000/svg">
<path fill-rule="evenodd" clip-rule="evenodd" d="M12.4967 58.332C14.7979 58.332 16.6634 60.1975 16.6634 62.4987V79.1654C16.6634 80.2704 17.1024 81.3302 17.8838 82.1116C18.6652 82.893 19.725 83.332 20.8301 83.332H79.1634C80.2685 83.332 81.3283 82.893 82.1097 82.1116C82.8911 81.3302 83.3301 80.2704 83.3301 79.1654V62.4987C83.3301 60.1975 85.1956 58.332 87.4967 58.332C89.7979 58.332 91.6634 60.1975 91.6634 62.4987V79.1654C91.6634 82.4806 90.3464 85.66 88.0022 88.0042C85.658 90.3484 82.4786 91.6654 79.1634 91.6654H20.8301C17.5149 91.6654 14.3354 90.3484 11.9912 88.0042C9.64704 85.66 8.33008 82.4806 8.33008 79.1654V62.4987C8.33008 60.1975 10.1956 58.332 12.4967 58.332Z" fill="#e86820"/>
<path fill-rule="evenodd" clip-rule="evenodd" d="M26.2204 38.7193C27.8476 37.0921 30.4858 37.0921 32.1129 38.7193L50 56.6064L67.8871 38.7193C69.5142 37.0921 72.1524 37.0921 73.7796 38.7193C75.4068 40.3465 75.4068 42.9847 73.7796 44.6119L52.9463 65.4452C51.3191 67.0724 48.6809 67.0724 47.0537 65.4452L26.2204 44.6119C24.5932 42.9847 24.5932 40.3465 26.2204 38.7193Z" fill="#e86820"/>
<path fill-rule="evenodd" clip-rule="evenodd" d="M49.9967 8.33198C52.2979 8.33198 54.1634 10.1975 54.1634 12.4986V62.4986C54.1634 64.7998 52.2979 66.6653 49.9967 66.6653C47.6956 66.6653 45.8301 64.7998 45.8301 62.4986V12.4986C45.8301 10.1975 47.6956 8.33198 49.9967 8.33198Z" fill="#e86820"/>
</svg>
