<svg width="38" height="40" viewBox="0 0 38 40" fill="none" xmlns="http://www.w3.org/2000/svg">
<path d="M26.6878 15.8367C27.0201 15.1516 27.4849 14.539 28.0553 14.0346C28.6257 13.5301 29.2904 13.1436 30.0111 12.8975C30.6152 12.6966 31.2484 12.5967 31.885 12.6018V4.34796C31.885 1.95079 29.9343 0 27.5371 0H4.34796C1.95079 0 0 1.95079 0 4.34796V33.3344C0 35.7315 1.95079 37.6823 4.34796 37.6823H18.7672L18.6107 37.2272C18.2984 36.3267 18.1679 35.3731 18.2268 34.4217C18.2858 33.4703 18.533 32.5401 18.9542 31.685L26.6878 15.8367ZM5.79728 8.69592H23.1891C23.5735 8.69592 23.9422 8.84862 24.214 9.12042C24.4858 9.39222 24.6384 9.76086 24.6384 10.1452C24.6384 10.5296 24.4858 10.8983 24.214 11.1701C23.9422 11.4419 23.5735 11.5946 23.1891 11.5946H5.79728C5.4129 11.5946 5.04426 11.4419 4.77246 11.1701C4.50066 10.8983 4.34796 10.5296 4.34796 10.1452C4.34796 9.76086 4.50066 9.39222 4.77246 9.12042C5.04426 8.84862 5.4129 8.69592 5.79728 8.69592ZM5.79728 14.4932H21.7398C22.1242 14.4932 22.4928 14.6459 22.7646 14.9177C23.0364 15.1895 23.1891 15.5581 23.1891 15.9425C23.1891 16.3269 23.0364 16.6955 22.7646 16.9673C22.4928 17.2391 22.1242 17.3918 21.7398 17.3918H5.79728C5.4129 17.3918 5.04426 17.2391 4.77246 16.9673C4.50066 16.6955 4.34796 16.3269 4.34796 15.9425C4.34796 15.5581 4.50066 15.1895 4.77246 14.9177C5.04426 14.6459 5.4129 14.4932 5.79728 14.4932ZM15.9425 28.9864H5.79728C5.4129 28.9864 5.04426 28.8337 4.77246 28.5619C4.50066 28.2901 4.34796 27.9215 4.34796 27.5371C4.34796 27.1527 4.50066 26.7841 4.77246 26.5123C5.04426 26.2405 5.4129 26.0878 5.79728 26.0878H15.9425C16.3269 26.0878 16.6955 26.2405 16.9673 26.5123C17.2391 26.7841 17.3918 27.1527 17.3918 27.5371C17.3918 27.9215 17.2391 28.2901 16.9673 28.5619C16.6955 28.8337 16.3269 28.9864 15.9425 28.9864ZM5.79728 23.1891C5.4129 23.1891 5.04426 23.0364 4.77246 22.7646C4.50066 22.4928 4.34796 22.1242 4.34796 21.7398C4.34796 21.3554 4.50066 20.9868 4.77246 20.715C5.04426 20.4432 5.4129 20.2905 5.79728 20.2905H18.8412C19.2255 20.2905 19.5942 20.4432 19.866 20.715C20.1378 20.9868 20.2905 21.3554 20.2905 21.7398C20.2905 22.1242 20.1378 22.4928 19.866 22.7646C19.5942 23.0364 19.2255 23.1891 18.8412 23.1891H5.79728ZM37.1084 20.9209L29.3719 36.7751C29.1224 37.289 28.7735 37.7485 28.3454 38.1269C27.9173 38.5052 27.4184 38.795 26.8776 38.9795L24.137 39.9215C23.7737 40.0462 23.3759 40.0216 23.0307 39.8531C22.6856 39.6846 22.4215 39.386 22.2963 39.023L21.3528 36.2823C21.1655 35.7423 21.0872 35.1705 21.1225 34.6C21.1578 34.0295 21.3061 33.4717 21.5586 32.959L29.2951 17.1078C29.6328 16.4121 30.2241 15.8903 30.956 15.6382C31.3155 15.5127 31.6963 15.4601 32.0763 15.4835C32.4563 15.5069 32.8278 15.6058 33.1691 15.7744L35.775 17.0455C36.4707 17.3846 36.9925 17.9759 37.2446 18.7078C37.4968 19.4397 37.449 20.2253 37.1084 20.9209Z" fill="#193141"/>
</svg>
