<svg width="41" height="40" viewBox="0 0 41 40" fill="none" xmlns="http://www.w3.org/2000/svg">
<path d="M26.4104 26.8046C26.5035 25.8256 26.4754 24.8503 26.3339 23.8981L28.535 22.917C28.3252 21.8376 27.9937 20.7855 27.5467 19.7809C27.0986 18.7771 26.5387 17.8271 25.8776 16.9488L23.675 17.9291C23.0553 17.1797 22.3472 16.508 21.5662 15.9287L22.4297 13.6791C20.6 12.447 18.5148 11.6458 16.3308 11.3358L15.4666 13.5875C14.4983 13.4953 13.5223 13.521 12.5601 13.664L11.5848 11.4736C9.42046 11.901 7.3816 12.8149 5.62239 14.1462L6.59122 16.3221C5.84119 16.9416 5.16899 17.6497 4.58931 18.4309L2.34555 17.5703C1.72669 18.4799 1.21483 19.4579 0.820113 20.4848C0.428914 21.5114 0.153831 22.5785 0 23.6663L2.24954 24.5298C2.15736 25.4981 2.18305 26.4741 2.32606 27.4362L0.124894 28.4166C0.33459 29.496 0.666154 30.5481 1.11322 31.5527C1.56143 32.5566 2.12159 33.5067 2.78304 34.3848L4.98421 33.4044C5.60378 34.1544 6.31213 34.8264 7.09369 35.4056L6.23026 37.6566C8.05932 38.8899 10.1448 39.6912 12.3291 40L13.1933 37.7483C14.1722 37.8407 15.1475 37.8126 16.0998 37.6711L17.0751 39.8607C19.2397 39.4334 21.2789 38.5195 23.0382 37.1881L22.0687 35.0122C22.8187 34.3927 23.4909 33.6846 24.0706 32.9034L26.3129 33.764C26.9316 32.8545 27.4435 31.8769 27.8384 30.8503C28.2376 29.8107 28.5083 28.7429 28.6606 27.6673L26.4104 26.8046ZM20.4306 28.008C19.7925 29.6018 18.5529 30.8805 16.9797 31.5677C15.4064 32.2549 13.626 32.2954 12.0231 31.6805C10.4203 31.0655 9.12375 29.8445 8.41384 28.2814C7.70393 26.7183 7.63763 24.9386 8.22928 23.327C8.85002 21.709 10.0881 20.4039 11.6711 19.6987C13.2541 18.9935 15.0525 18.9461 16.6705 19.5668C18.2885 20.1876 19.5936 21.4256 20.2988 23.0087C21.0039 24.5917 21.0514 26.39 20.4306 28.008ZM38.598 8.86603C38.598 8.42998 38.5532 8.00332 38.4767 7.58893L40.1639 6.61433C39.7628 5.08243 38.9583 3.68609 37.8342 2.57079L36.1427 3.54757C35.4906 2.98975 34.7409 2.55749 33.9314 2.27264V0.321259C33.1716 0.110151 32.3868 0.00209757 31.5982 0C30.7903 0 30.0106 0.118397 29.2649 0.321259V2.27336C28.4556 2.55866 27.706 2.99088 27.0536 3.54829L25.3614 2.57152C24.238 3.6874 23.4337 5.08351 23.0317 6.61505L24.7196 7.58965C24.6431 8.00476 24.5976 8.42998 24.5976 8.86675C24.5976 9.30352 24.6431 9.72946 24.7196 10.1438L23.0317 11.1185C23.4335 12.6501 24.2379 14.0462 25.3614 15.162L27.0529 14.1852C27.7051 14.7429 28.4548 15.1751 29.2642 15.4601V17.4122C30.0099 17.6158 30.7896 17.7335 31.5975 17.7335C32.4053 17.7335 33.1864 17.6151 33.9307 17.4122V15.4601C34.7401 15.175 35.4897 14.7428 36.142 14.1852L37.8335 15.162C38.9576 14.0467 39.7621 12.6504 40.1632 11.1185L38.476 10.1438C38.5559 9.72256 38.5967 9.29481 38.598 8.86603ZM31.5989 12.1335C30.7323 12.1337 29.9011 11.7896 29.2882 11.177C28.6753 10.5643 28.3309 9.73333 28.3307 8.86675C28.3305 8.00017 28.6746 7.169 29.2872 6.5561C29.8999 5.94319 30.7309 5.59876 31.5975 5.59857C32.0265 5.59848 32.4514 5.6829 32.8479 5.84701C33.2444 6.01113 33.6046 6.25173 33.9081 6.55508C34.2116 6.85842 34.4523 7.21857 34.6166 7.61496C34.7809 8.01135 34.8655 8.43622 34.8656 8.86531C34.8657 9.29439 34.7813 9.7193 34.6172 10.1158C34.4531 10.5122 34.2125 10.8725 33.9091 11.176C33.6058 11.4794 33.2456 11.7202 32.8492 11.8845C32.4528 12.0488 32.028 12.1334 31.5989 12.1335Z" fill="#193141"/>
</svg>
