<svg width="58" height="61" viewBox="0 0 58 61" fill="none" xmlns="http://www.w3.org/2000/svg">
<path d="M35.1695 11.9783H16.7416C15.9005 11.9783 15.0939 11.6442 14.4992 11.0494C13.9044 10.4547 13.5703 9.64805 13.5703 8.80695V3.97494C13.5703 2.22427 14.991 0.803589 16.7416 0.803589H35.1695C36.9201 0.803589 38.3408 2.22427 38.3408 3.97494V8.80695C38.3408 9.22342 38.2588 9.63581 38.0994 10.0206C37.94 10.4053 37.7064 10.7549 37.4119 11.0494C37.1174 11.3439 36.7678 11.5775 36.3831 11.7369C35.9983 11.8963 35.5859 11.9783 35.1695 11.9783ZM56.4794 35.067C54.508 33.0956 51.2938 33.0956 49.3225 35.067L46.9826 37.4198L54.1437 44.5789L56.4794 42.2432C58.4721 40.2526 58.4721 37.0598 56.4794 35.067ZM44.7155 39.6954L32.2232 52.1666C31.966 52.4451 31.7946 52.788 31.7303 53.1522L30.7875 58.7021C30.5732 59.9235 31.6446 60.9735 32.866 60.7806L38.4158 59.8378C38.78 59.7735 39.1229 59.6021 39.38 59.3449L51.8724 46.8524L44.7155 39.6954Z" fill="#374761"/>
<path d="M44.2269 6.39639H41.5591V8.80704C41.5568 10.4999 40.8833 12.1228 39.6863 13.3198C38.4893 14.5168 36.8665 15.1903 35.1736 15.1926H16.7458C15.0528 15.1909 13.4296 14.5176 12.2324 13.3204C11.0353 12.1233 10.362 10.5001 10.3603 8.80704V6.39639H7.6497C3.42844 6.39639 0 9.82487 0 14.0462V53.1523C0 57.3737 3.42844 60.8021 7.6497 60.8021H27.9139C27.5763 59.9611 27.4763 59.0434 27.6246 58.1493L28.5653 52.6145C28.7325 51.6331 29.1824 50.7267 29.8596 49.9874L43.4983 36.3678L47.0446 32.8021C48.3467 31.5061 50.0473 30.6864 51.8723 30.4751V14.0676C51.8782 13.0607 51.6847 12.0626 51.3029 11.1309C50.9211 10.1992 50.3586 9.35228 49.6478 8.63909C48.937 7.9259 48.092 7.36054 47.1616 6.97561C46.2312 6.59068 45.2337 6.39382 44.2269 6.39639ZM22.6234 38.1806H13.3259C12.8144 38.1806 12.3239 37.9774 11.9623 37.6157C11.6006 37.2541 11.3974 36.7635 11.3974 36.252C11.3974 35.7406 11.6006 35.2501 11.9623 34.8884C12.3239 34.5267 12.8144 34.3235 13.3259 34.3235H22.6234C23.1349 34.3235 23.6254 34.5267 23.9871 34.8884C24.3487 35.2501 24.5519 35.7406 24.5519 36.252C24.5519 36.7635 24.3487 37.2541 23.9871 37.6157C23.6254 37.9774 23.1349 38.1806 22.6234 38.1806ZM34.0058 27.2351H13.3281C12.8166 27.2351 12.3261 27.032 11.9644 26.6703C11.6027 26.3086 11.3996 25.8181 11.3996 25.3066C11.3996 24.7951 11.6027 24.3046 11.9644 23.9429C12.3261 23.5813 12.8166 23.3781 13.3281 23.3781H34.0058C34.5173 23.3781 35.0078 23.5813 35.3695 23.9429C35.7311 24.3046 35.9343 24.7951 35.9343 25.3066C35.9343 25.8181 35.7311 26.3086 35.3695 26.6703C35.0078 27.032 34.5173 27.2351 34.0058 27.2351Z" fill="#374761"/>
</svg>
