<svg width="52" height="52" viewBox="0 0 52 52" fill="none" xmlns="http://www.w3.org/2000/svg">
<path d="M50.1566 16.9415C48.4035 15.1883 45.551 15.1884 43.7973 16.9419L39.2882 21.4548V9.57745C39.2882 8.37644 38.8205 7.24737 37.9712 6.39817L33.7322 2.15896C32.883 1.30966 31.7538 0.842041 30.5528 0.842041H4.81661C2.33735 0.842041 0.320312 2.85908 0.320312 5.33834V47.5036C0.320312 49.9829 2.33735 51.9999 4.81661 51.9999H34.7919C37.2712 51.9999 39.2882 49.9829 39.2882 47.5036V34.1777L50.1565 23.3003C51.9137 21.5431 51.9141 18.6988 50.1566 16.9415ZM30.2957 3.83957C30.5789 3.83957 31.1245 3.79051 31.6126 4.27851L35.8517 8.51772C36.3274 8.99343 36.2908 9.5147 36.2908 9.83464H30.2957V3.83957ZM36.2907 47.5036C36.2907 48.3301 35.6184 49.0024 34.7919 49.0024H4.81661C3.99019 49.0024 3.31784 48.3301 3.31784 47.5036V5.33834C3.31784 4.51192 3.99019 3.83957 4.81661 3.83957H27.2981V11.3334C27.2981 12.1611 27.9691 12.8322 28.7969 12.8322H36.2907V24.4549L31.8687 28.8806L29.7502 30.9992C29.5856 31.1637 29.4617 31.3643 29.3881 31.585L27.2684 37.9438C27.1803 38.2079 27.1676 38.4912 27.2315 38.7622C27.2954 39.0331 27.4335 39.2808 27.6304 39.4777C27.8272 39.6745 28.075 39.8126 28.3459 39.8766C28.6168 39.9405 28.9002 39.9277 29.1643 39.8396L35.523 37.7201C35.7438 37.6465 35.9443 37.5226 36.1088 37.358L36.2907 37.1761V47.5036ZM32.9295 32.059L35.049 34.1786L34.2394 34.9882L31.0601 36.048L32.1198 32.8686L32.9295 32.059ZM37.1682 32.0585L35.0486 29.939L42.2532 22.7283L44.3727 24.8479L37.1682 32.0585ZM48.0365 21.1811L46.4915 22.7274L44.3719 20.6079L45.9175 19.061C46.5022 18.4766 47.4528 18.4767 48.0371 19.061C48.6213 19.6456 48.6244 20.5931 48.0365 21.1811Z" fill="#193141"/>
<path d="M28.7979 15.8296H7.81517C6.98745 15.8296 6.31641 16.5006 6.31641 17.3284C6.31641 18.1561 6.98745 18.8271 7.81517 18.8271H28.7979C29.6256 18.8271 30.2967 18.1561 30.2967 17.3284C30.2967 16.5006 29.6256 15.8296 28.7979 15.8296ZM22.8028 21.8247H7.81517C6.98745 21.8247 6.31641 22.4957 6.31641 23.3234C6.31641 24.1511 6.98745 24.8222 7.81517 24.8222H22.8028C23.6305 24.8222 24.3016 24.1511 24.3016 23.3234C24.3016 22.4957 23.6305 21.8247 22.8028 21.8247ZM22.8028 27.8197H7.81517C6.98745 27.8197 6.31641 28.4908 6.31641 29.3185C6.31641 30.1462 6.98745 30.8173 7.81517 30.8173H22.8028C23.6305 30.8173 24.3016 30.1462 24.3016 29.3185C24.3016 28.4908 23.6305 27.8197 22.8028 27.8197ZM22.8028 33.8148H7.81517C6.98745 33.8148 6.31641 34.4858 6.31641 35.3136C6.31641 36.1413 6.98745 36.8123 7.81517 36.8123H22.8028C23.6305 36.8123 24.3016 36.1413 24.3016 35.3136C24.3016 34.4858 23.6305 33.8148 22.8028 33.8148ZM28.7979 43.0072H19.8053C18.9776 43.0072 18.3065 43.6783 18.3065 44.506C18.3065 45.3337 18.9776 46.0048 19.8053 46.0048H28.7979C29.6256 46.0048 30.2967 45.3337 30.2967 44.506C30.2967 43.6783 29.6256 43.0072 28.7979 43.0072Z" fill="#193141"/>
</svg>
