<svg width="24" height="22" viewBox="0 0 24 22" fill="none" xmlns="http://www.w3.org/2000/svg">
<path fill-rule="evenodd" clip-rule="evenodd" d="M21.7304 1.55199C21.0118 0.966726 20.1828 0.532018 19.2927 0.273735C18.4026 0.0154526 17.4697 -0.0611252 16.5494 0.0485598C15.6291 0.158245 14.7403 0.451951 13.9359 0.912196C13.1315 1.37244 12.4279 1.98982 11.8669 2.72759C11.306 1.98982 10.6024 1.37244 9.79796 0.912196C8.99353 0.451951 8.10473 0.158245 7.18446 0.0485598C6.26418 -0.0611252 5.33124 0.0154526 4.44117 0.273735C3.5511 0.532018 2.72209 0.966726 2.00348 1.55199C-0.55448 3.80812 -0.720046 8.3196 1.83633 12.8319C3.52684 16.0172 7.84503 19.2367 11.4645 21.3653C11.5862 21.4369 11.7249 21.4746 11.8661 21.4746C12.0074 21.4746 12.146 21.4369 12.2678 21.3653C15.8896 19.2351 20.2118 16.0133 21.9039 12.8176C24.4539 8.31485 24.2868 3.80733 21.7304 1.55199Z" fill="#e86820"/>
</svg>
