<svg width="41" height="37" viewBox="0 0 41 37" fill="none" xmlns="http://www.w3.org/2000/svg">
<path fill-rule="evenodd" clip-rule="evenodd" d="M37.0448 2.85966C35.8337 1.8733 34.4366 1.14068 32.9365 0.705384C31.4364 0.270092 29.8641 0.141033 28.3132 0.325889C26.7622 0.510744 25.2643 1.00574 23.9085 1.7814C22.5528 2.55707 21.367 3.59756 20.4216 4.84094C19.4763 3.59756 18.2904 2.55707 16.9347 1.7814C15.579 1.00574 14.081 0.510744 12.5301 0.325889C10.9791 0.141033 9.4068 0.270092 7.90673 0.705384C6.40667 1.14068 5.0095 1.8733 3.7984 2.85966C-0.512609 6.662 -0.791643 14.2653 3.5167 21.87C6.36578 27.2384 13.6434 32.6642 19.7434 36.2516C19.9486 36.3723 20.1823 36.4359 20.4203 36.4359C20.6583 36.4359 20.892 36.3723 21.0972 36.2516C27.2012 32.6616 34.4855 27.2318 37.3372 21.846C41.6349 14.2573 41.3532 6.66067 37.0448 2.85966Z" fill="#437A9F"/>
</svg>
