<svg width="89" height="82" viewBox="0 0 89 82" fill="none" xmlns="http://www.w3.org/2000/svg">
<path fill-rule="evenodd" clip-rule="evenodd" d="M81.4206 6.65333C78.7281 4.46044 75.6219 2.83165 72.2869 1.8639C68.9519 0.896156 65.4563 0.60923 62.0082 1.0202C58.5601 1.43118 55.2298 2.53165 52.2158 4.25612C49.2017 5.9806 46.5653 8.29383 44.4636 11.0581C42.3619 8.29383 39.7255 5.9806 36.7114 4.25612C33.6974 2.53165 30.3671 1.43118 26.919 1.0202C23.4709 0.60923 19.9753 0.896156 16.6403 1.8639C13.3054 2.83165 10.1992 4.46044 7.50662 6.65333C-2.07768 15.1067 -2.69803 32.0106 6.88033 48.9174C13.2145 60.8526 29.3941 72.9153 42.9558 80.8908C43.4119 81.1591 43.9314 81.3006 44.4606 81.3006C44.9898 81.3006 45.5094 81.1591 45.9655 80.8908C59.5361 72.9094 75.7306 60.8377 82.0706 48.864C91.6252 31.9928 90.999 15.1038 81.4206 6.65333ZM76.8733 45.9997L76.8318 46.0769C71.1506 56.8128 56.8143 67.4479 44.4636 74.8684C32.11 67.4479 17.7736 56.801 12.0925 46.0769L12.0509 45.9997C8.26393 39.7292 6.139 32.5964 5.87708 25.2758C5.72992 22.6528 6.15011 20.0289 7.109 17.583C8.06789 15.1371 9.54292 12.9268 11.4335 11.1027C13.7799 9.26095 16.5053 7.9622 19.4137 7.29984C22.3221 6.63747 25.3411 6.62797 28.2536 7.272C31.166 7.91603 33.8996 9.19759 36.2575 11.0245C38.6154 12.8514 40.5391 15.1782 41.8902 17.8375C42.1505 18.2894 42.5253 18.6647 42.9768 18.9257C43.4283 19.1866 43.9406 19.324 44.4621 19.324C44.9836 19.324 45.4959 19.1866 45.9474 18.9257C46.3989 18.6647 46.7737 18.2894 47.0341 17.8375C48.3851 15.1777 50.3089 12.8505 52.667 11.0233C55.0252 9.19605 57.7591 7.9143 60.6719 7.27024C63.5848 6.62619 66.6042 6.63584 69.5129 7.29851C72.4216 7.96119 75.1472 9.2604 77.4937 11.1027C79.3843 12.9268 80.8593 15.1371 81.8182 17.583C82.7771 20.0289 83.1973 22.6528 83.0501 25.2758C82.7877 32.5967 80.6617 39.7297 76.8733 45.9997Z" fill="#193141"/>
</svg>
