<svg width="41" height="52" viewBox="0 0 41 52" fill="none" xmlns="http://www.w3.org/2000/svg">
<path d="M28.0449 1.23742C27.8103 0.990319 27.4887 0.842041 27.1554 0.842041H7.19883C3.51616 0.842041 0.476562 3.86955 0.476562 7.55172V45.2899C0.476562 48.9723 3.51626 51.9999 7.19873 51.9999H34.285C37.9676 51.9999 41.0073 48.9724 41.0073 45.2899V15.3241C41.0073 15.003 40.8589 14.6942 40.649 14.4592L28.0449 1.23742ZM28.4032 5.20415L36.8431 14.064H31.3566C29.7255 14.064 28.4032 12.754 28.4032 11.1231V5.20415ZM34.285 49.5286H7.19873C4.88813 49.5286 2.94793 47.6133 2.94793 45.2899V7.55172C2.94793 5.24112 4.87564 3.31341 7.19873 3.31341H25.9318V11.123C25.9318 14.1256 28.354 16.5353 31.3566 16.5353H38.5358V45.2899C38.5358 47.6133 36.6081 49.5286 34.285 49.5286Z" fill="#193141"/>
<path d="M30.9112 41.0026H10.5716C9.89218 41.0026 9.33594 41.5583 9.33594 42.2382C9.33594 42.9177 9.89208 43.4739 10.5716 43.4739H30.9237C31.6031 43.4739 32.1593 42.9178 32.1593 42.2382C32.1593 41.5583 31.6031 41.0026 30.9112 41.0026ZM19.8394 36.5663C20.0744 36.8134 20.3955 36.9617 20.7413 36.9617C21.0876 36.9617 21.4088 36.8134 21.6434 36.5663L28.8846 28.7938C29.3543 28.2992 29.3171 27.5086 28.823 27.0515C28.3284 26.5819 27.5377 26.6187 27.0807 27.1132L21.977 32.5872V19.0936C21.977 18.4137 21.4209 17.8579 20.7413 17.8579C20.0619 17.8579 19.5057 18.4137 19.5057 19.0936V32.5872L14.4146 27.1132C13.9449 26.619 13.1664 26.5819 12.6722 27.0515C12.1781 27.5211 12.141 28.2997 12.6105 28.7938L19.8394 36.5663Z" fill="#193141"/>
</svg>
