<svg width="36" height="28" viewBox="0 0 36 28" fill="none" xmlns="http://www.w3.org/2000/svg">
<path d="M2.25 0H10.7848C11.3438 0 11.8601 0.298578 12.139 0.782949L13.5438 2.70191C13.6808 2.93989 13.8781 3.13756 14.1158 3.27501C14.3536 3.41246 14.6233 3.48484 14.8979 3.48486H35.687V25.3939C35.687 26.5446 34.7541 27.4774 33.6035 27.4774H2.08349C0.932846 27.4774 1.31936e-10 26.5446 1.31936e-10 25.3939V5.91525C-6.61605e-06 4.30474 0.248822 2.70391 0.737681 1.16939C0.824742 0.834557 1.02046 0.538081 1.29415 0.326451C1.56785 0.11482 1.90403 2.29556e-06 2.25 0Z" fill="#FF9960"/>
<path d="M3.24805 3.12891H30.6795V14.7168H3.24805V3.12891Z" fill="#EBF0F3"/>
<path d="M34.1244 1.04297H25.5237C25.2242 1.04296 24.931 1.12903 24.679 1.29093C24.427 1.45283 24.2269 1.68374 24.1024 1.95615L22.6306 5.17719C22.5062 5.4496 22.306 5.6805 22.0541 5.8424C21.8021 6.00429 21.5089 6.09037 21.2094 6.09037H0V25.9159C0 27.0666 0.932846 27.9994 2.08349 27.9994H33.6036C34.7542 27.9994 35.687 27.0666 35.687 25.9159V2.60559C35.687 1.74262 34.9874 1.04297 34.1244 1.04297Z" fill="#E86820"/>
</svg>
