<svg width="50" height="50" viewBox="0 0 50 50" fill="none" xmlns="http://www.w3.org/2000/svg">
<path d="M20.6585 38.9182L18.1799 46.01H31.82L29.3414 38.9182H20.6585Z" fill="#DDEBFD"/>
<path d="M30.3624 41.8396L29.3414 38.9182H20.6586L19.6376 41.8396H30.3624ZM13.6188 47.9104V49.2246C13.6188 49.3438 13.6661 49.4581 13.7504 49.5423C13.8346 49.6266 13.9489 49.6739 14.0681 49.6739H35.9319C36.051 49.6739 36.1653 49.6266 36.2496 49.5423C36.3338 49.4581 36.3812 49.3438 36.3812 49.2246V47.9104C36.3812 46.8609 35.5304 46.01 34.4808 46.01H15.5192C14.4697 46.01 13.6188 46.8608 13.6188 47.9104Z" fill="#BED9FD"/>
<path d="M0 37.6789V26.6299C0 25.9454 0.554883 25.3906 1.23926 25.3906H48.7607C49.4452 25.3906 50 25.9455 50 26.6299V37.6789C50 38.3634 49.4451 38.9182 48.7607 38.9182H1.23926C0.554883 38.9182 0 38.3634 0 37.6789Z" fill="#DDEBFD"/>
<path d="M50 34.3327H0V1.23926C0 0.554785 0.554883 0 1.23926 0H48.7607C49.4452 0 50 0.554883 50 1.23926V34.3327Z" fill="#407194"/>
<path d="M3.46997 3.96573V30.367C3.47 30.4985 3.52223 30.6245 3.61519 30.7175C3.70814 30.8104 3.83421 30.8627 3.96567 30.8627H46.0341C46.1656 30.8627 46.2917 30.8104 46.3846 30.7175C46.4776 30.6245 46.5298 30.4985 46.5298 30.367V3.96573C46.5298 3.83427 46.4776 3.70818 46.3846 3.61522C46.2917 3.52226 46.1656 3.47003 46.0341 3.47003H3.96577C3.90066 3.47001 3.83619 3.48281 3.77603 3.50771C3.71587 3.53261 3.66121 3.56912 3.61516 3.61516C3.56912 3.66119 3.5326 3.71585 3.50769 3.776C3.48277 3.83615 3.46996 3.90063 3.46997 3.96573Z" fill="#DDEBFD"/>
<path d="M38.8824 24.8096C38.6823 24.8096 38.4904 24.7301 38.3489 24.5886C38.2074 24.4471 38.1279 24.2552 38.1279 24.0551V23.2504C38.1279 22.6989 38.5403 22.2331 39.0872 22.1668C39.9288 22.0649 40.5632 21.3477 40.5632 20.4983C40.5631 20.2619 40.5131 20.0281 40.4166 19.8123C40.3201 19.5965 40.1792 19.4035 40.0032 19.2457C39.6425 18.9227 39.1754 18.7747 38.688 18.8283C37.9286 18.9122 37.3092 19.5225 37.2154 20.2795C37.1883 20.476 37.085 20.654 36.9277 20.7749C36.7704 20.8958 36.5718 20.9499 36.3749 20.9254C36.178 20.901 35.9987 20.8 35.8757 20.6444C35.7528 20.4887 35.696 20.2908 35.7178 20.0937C35.8968 18.6511 37.0763 17.4881 38.5224 17.3284C39.4286 17.2281 40.3354 17.5174 41.01 18.1216C41.344 18.421 41.6112 18.7874 41.7942 19.1969C41.9773 19.6064 42.072 20.0498 42.0723 20.4983C42.0723 21.9838 41.0486 23.2566 39.637 23.5983V24.0552C39.637 24.1543 39.6174 24.2524 39.5795 24.3439C39.5416 24.4354 39.486 24.5186 39.4159 24.5887C39.3458 24.6587 39.2627 24.7143 39.1711 24.7522C39.0796 24.7901 38.9815 24.8096 38.8824 24.8096ZM38.8824 28.2894C38.6823 28.2894 38.4904 28.2099 38.3489 28.0684C38.2074 27.9269 38.1279 27.735 38.1279 27.5349V27.2645C38.1279 27.0644 38.2074 26.8724 38.3489 26.731C38.4904 26.5895 38.6823 26.51 38.8824 26.51C39.0825 26.51 39.2744 26.5895 39.4159 26.731C39.5574 26.8724 39.6369 27.0644 39.6369 27.2645V27.5349C39.6369 27.634 39.6174 27.7321 39.5795 27.8236C39.5416 27.9152 39.486 27.9983 39.4159 28.0684C39.3459 28.1385 39.2627 28.194 39.1711 28.232C39.0796 28.2699 38.9815 28.2894 38.8824 28.2894Z" fill="#407194"/>
<path d="M39.8136 9.59816H23.65C23.4499 9.59816 23.258 9.51867 23.1165 9.37717C22.975 9.23568 22.8955 9.04377 22.8955 8.84366C22.8955 8.64356 22.975 8.45165 23.1165 8.31016C23.258 8.16866 23.4499 8.08917 23.65 8.08917H39.8136C40.0137 8.08917 40.2056 8.16866 40.3471 8.31016C40.4886 8.45165 40.5681 8.64356 40.5681 8.84366C40.5681 9.04377 40.4886 9.23568 40.3471 9.37717C40.2056 9.51867 40.0137 9.59816 39.8136 9.59816ZM39.8136 14.4369H23.65C23.4499 14.4369 23.258 14.3574 23.1165 14.2159C22.975 14.0744 22.8955 13.8825 22.8955 13.6824C22.8955 13.4823 22.975 13.2904 23.1165 13.1489C23.258 13.0074 23.4499 12.9279 23.65 12.9279H39.8136C40.0137 12.9279 40.2056 13.0074 40.3471 13.1489C40.4886 13.2904 40.5681 13.4823 40.5681 13.6824C40.5681 13.8825 40.4886 14.0744 40.3471 14.2159C40.2056 14.3574 40.0137 14.4369 39.8136 14.4369ZM30.4705 19.2756H23.65C23.4499 19.2756 23.258 19.1961 23.1165 19.0546C22.975 18.9131 22.8955 18.7212 22.8955 18.5211C22.8955 18.321 22.975 18.1291 23.1165 17.9876C23.258 17.8461 23.4499 17.7666 23.65 17.7666H30.4705C30.6706 17.7666 30.8625 17.8461 31.004 17.9876C31.1455 18.1291 31.225 18.321 31.225 18.5211C31.225 18.7212 31.1455 18.9131 31.004 19.0546C30.8625 19.1961 30.6706 19.2756 30.4705 19.2756Z" fill="#80B6FC"/>
<path d="M14.3578 11.4646C14.3578 11.446 14.3639 11.4212 14.3702 11.3964L15.5252 7.60868C15.5934 7.3913 15.8729 7.28583 16.1585 7.28583C16.444 7.28583 16.7235 7.39139 16.7919 7.60868L17.953 11.3964C17.9592 11.4212 17.9654 11.446 17.9654 11.4646C17.9654 11.6944 17.6115 11.862 17.3445 11.862C17.1893 11.862 17.0651 11.8123 17.0278 11.6819L16.8167 10.9057H15.5064L15.2953 11.6819C15.2581 11.8123 15.1339 11.862 14.9786 11.862C14.7117 11.8621 14.3578 11.6944 14.3578 11.4646ZM16.6117 10.1607L16.1584 8.49657L15.7051 10.1607H16.6117Z" fill="#365F7E"/>
<path d="M11.0788 10.6335C11.4582 9.71825 11.0239 8.66864 10.1086 8.28915C9.19338 7.90966 8.14377 8.344 7.76428 9.25926C7.38479 10.1745 7.81912 11.2241 8.73439 11.6036C9.64966 11.9831 10.6993 11.5488 11.0788 10.6335Z" fill="#80B6FC"/>
<path d="M11.0796 18.5342C11.4591 17.6189 11.0248 16.5693 10.1095 16.1898C9.19423 15.8104 8.14462 16.2447 7.76513 17.16C7.38564 18.0752 7.81997 19.1248 8.73524 19.5043C9.65051 19.8838 10.7001 19.4495 11.0796 18.5342Z" fill="#80B6FC"/>
<path d="M11.0805 26.4349C11.46 25.5196 11.0256 24.47 10.1104 24.0905C9.19509 23.7111 8.14548 24.1454 7.76599 25.0607C7.3865 25.9759 7.82083 27.0255 8.7361 27.405C9.65137 27.7845 10.701 27.3502 11.0805 26.4349Z" fill="#80B6FC"/>
<path d="M14.6682 15.5194C14.6682 15.3206 14.8794 15.2213 15.0905 15.2213H16.3635C16.9844 15.2213 17.6052 15.4448 17.6052 16.3266C17.6052 16.8295 17.4065 17.1586 17.0775 17.3014C17.4562 17.4442 17.7171 17.674 17.7171 18.2948V18.4252C17.7171 19.4063 17.1707 19.7602 16.469 19.7602H15.0906C14.8299 19.7602 14.6683 19.6236 14.6683 19.4684L14.6682 15.5194ZM15.6307 16.9288H16.2827C16.5186 16.9288 16.6366 16.7115 16.6366 16.5004C16.6366 16.2831 16.5186 16.0657 16.2827 16.0657H15.6307V16.9288ZM16.2516 18.9158C16.5621 18.9158 16.7483 18.742 16.7483 18.3446V18.2452C16.7483 17.823 16.5621 17.674 16.2516 17.674H15.6307V18.9158H16.2516ZM16.1461 23.9641C15.7921 23.9641 15.5872 24.1628 15.5872 24.585V26.2305C15.5872 26.6528 15.7921 26.8514 16.1522 26.8514C16.649 26.8514 16.6801 26.4726 16.6986 26.2305C16.7173 26.0007 16.9284 25.9386 17.1767 25.9386C17.5121 25.9386 17.6673 26.0255 17.6673 26.3982C17.6673 27.224 16.9967 27.6959 16.1088 27.6959C15.2953 27.6959 14.6185 27.2986 14.6185 26.2306V24.5851C14.6185 23.517 15.2954 23.1197 16.1088 23.1197C16.9967 23.1197 17.6673 23.5667 17.6673 24.3553C17.6673 24.7279 17.5121 24.8148 17.183 24.8148C16.9222 24.8148 16.7111 24.7464 16.6987 24.523C16.6925 24.3615 16.6738 23.9641 16.1461 23.9641Z" fill="#365F7E"/>
<path d="M33.2902 22.6305H23.926C22.9253 22.6305 22.1141 23.4417 22.1141 24.4423V33.8066C22.1141 34.8172 23.3972 35.2505 24.0099 34.4468L26.4257 31.2781C26.4398 31.2594 26.4578 31.2441 26.4785 31.233C26.4991 31.2219 26.5218 31.2154 26.5452 31.2138C26.5685 31.2123 26.5919 31.2157 26.6138 31.224C26.6357 31.2322 26.6556 31.245 26.6721 31.2615L32.2052 36.7946C32.5926 37.182 33.2206 37.182 33.608 36.7946L36.2782 34.1243C36.6656 33.7369 36.6656 33.1089 36.2782 32.7215L30.7451 27.1885C30.7285 27.172 30.7157 27.1521 30.7075 27.1302C30.6993 27.1083 30.6958 27.0849 30.6974 27.0615C30.6989 27.0382 30.7055 27.0154 30.7166 26.9948C30.7276 26.9742 30.743 26.9562 30.7616 26.942L33.9303 24.5263C34.7342 23.9136 34.3009 22.6305 33.2902 22.6305Z" fill="#E27C48"/>
</svg>
