<svg width="264" height="259" viewBox="0 0 264 259" fill="none" xmlns="http://www.w3.org/2000/svg">
<path d="M163.616 206.311C165.314 206.194 167.957 207.089 168.622 205.724C169.17 204.594 168.156 202.042 167.7 200.734C166.627 197.665 164.711 194.232 162.033 192.955C159.126 191.574 155.314 191.352 151.49 190.901C147.499 190.433 143.49 189.738 140.155 189.728C139.521 189.276 139.593 188.387 139.365 187.673C136.169 177.646 131.979 167.014 127.768 158.028C125.366 152.903 122.95 148.349 119.068 144.966C115.192 141.586 109.686 139.964 103.121 139.535C97.4452 139.164 92.8597 140.343 92.3151 145.846C91.888 150.171 93.3762 154.799 94.4245 158.469C97.5225 169.312 102.62 180.699 106.151 190.022C100.629 190.147 101.185 197.876 101.54 203.67C101.982 204.253 102.697 204.533 103.781 204.403C102.084 218.486 100.408 232.854 98.6391 246.964C98.5452 247.728 98.4075 248.519 98.3065 249.317H101.328C101.39 248.731 101.449 248.135 101.541 247.551C103.726 233.505 106.098 218.706 108.264 204.55C115.745 204.777 124.383 204.993 132.379 205.138C133.049 207.254 133.094 209.52 133.434 211.741C135.299 223.952 137.206 236.612 139.083 249.316H141.884C140.429 234.788 138.894 219.733 137.52 205.284C144.36 205.202 151.946 205.558 158.738 206.019C162.92 217.843 167.471 231.286 171.787 244.029C172.313 245.586 172.952 247.416 173.613 249.316H176.482C172.219 235.169 167.843 220.563 163.616 206.311ZM109.711 189.579C107.291 182.96 104.519 176.233 101.673 168.742C99.8293 163.893 97.5315 158.044 96.4016 152.158C95.7823 148.933 95.0615 144.229 97.8507 143.792C104.392 157.835 108.959 174.08 114.325 189.435C112.706 189.394 111.394 189.693 109.711 189.579ZM118.015 189.286C112.623 173.864 108.145 157.425 101.408 143.498C103.146 143.375 104.398 143.788 106.023 143.792C111.117 158.663 116.075 173.687 120.52 189.286H118.015V189.286ZM124.209 189.286C121.053 177.851 117.277 166.312 113.665 155.532C112.556 152.218 111.313 149.017 110.371 145.846C110.29 145.577 109.659 144.941 110.238 144.67C111.499 145.026 112.744 145.404 113.796 145.993C117.371 160.945 122.385 174.293 125.922 189.286H124.209V189.286ZM129.614 189.286C126.308 175.407 121.696 162.195 118.144 149.074C122.552 154.32 125.425 161.147 128.294 168.008C131.199 174.947 133.745 182.274 136.334 189.435C133.95 189.544 131.975 189.199 129.614 189.286Z" fill="#D1031B"/>
<path d="M123.141 76.4841L123.14 77.7034C123.138 79.4586 121.705 80.9109 119.939 80.9459L28.9615 82.7269C27.1952 82.7616 25.7655 81.3654 25.7692 79.6098L25.7702 78.391L123.141 76.4841Z" fill="#437A9F"/>
<path d="M25.7501 19.3316C25.7539 17.6067 27.1793 16.1804 28.9354 16.1469L119.423 14.3973C121.178 14.3637 122.601 15.7343 122.598 17.4598L122.497 80.0257L25.6502 81.8983L25.7501 19.3316Z" fill="#437A9F"/>
<path opacity="0.75" d="M120.021 78.4682L120.102 19.7338C120.103 18.0976 118.755 16.7973 117.089 16.8294L31.2714 18.489C29.6054 18.5204 28.2539 19.8735 28.2516 21.5091L28.1714 80.2444L120.021 78.4682Z" fill="white"/>
<path d="M27.7142 154.171L72.5458 189.587C73.9805 190.721 76.0186 190.673 77.399 189.474L119.284 153.093" stroke="#437A9F" stroke-width="2.71748"/>
<path fill-rule="evenodd" clip-rule="evenodd" d="M161.82 37.3317C161.612 37.3558 160.889 37.6211 160.572 37.7775C159.384 38.3658 158.3 39.2484 157.199 40.1195C151.784 44.4048 147.36 47.9006 141.962 52.3725C141.023 53.1487 140.157 53.8218 139.006 54.8667C137.993 55.7875 137.072 56.8951 137.463 57.8394C137.918 58.9408 139.609 59.1563 140.618 59.322C144.212 59.907 147.883 59.8076 151.48 60.1098C154.946 60.3974 158.446 60.9471 162.269 61.0948C163.351 61.1347 165.165 61.3271 166.086 60.4731C167.187 59.4504 165.615 55.6166 165.063 53.9442C164.425 52.0055 164.045 50.5015 163.349 48.7036C163.125 48.134 162.65 47.6084 162.485 46.9977C162.337 46.4673 162.642 45.4576 162.77 44.639C163.02 43.0264 163.148 41.5785 163.2 39.9799C163.225 39.2561 163.299 37.1701 161.82 37.3317Z" fill="#437A9F"/>
<path fill-rule="evenodd" clip-rule="evenodd" d="M161.82 37.3317C161.612 37.3558 160.889 37.6211 160.572 37.7775C159.384 38.3658 158.3 39.2484 157.199 40.1195C151.784 44.4048 147.36 47.9006 141.962 52.3725C141.023 53.1487 140.157 53.8218 139.006 54.8667C137.993 55.7875 137.072 56.8951 137.463 57.8394C137.918 58.9408 139.609 59.1563 140.618 59.322C144.212 59.907 147.883 59.8076 151.48 60.1098C154.946 60.3974 158.446 60.9471 162.269 61.0948C163.351 61.1347 165.165 61.3271 166.086 60.4731C167.187 59.4504 165.615 55.6166 165.063 53.9442C164.425 52.0055 164.045 50.5015 163.349 48.7036C163.125 48.134 162.65 47.6084 162.485 46.9977C162.337 46.4673 162.642 45.4576 162.77 44.639C163.02 43.0264 163.148 41.5785 163.2 39.9799C163.225 39.2561 163.299 37.1701 161.82 37.3317Z" fill="#437A9F"/>
<path opacity="0.42" fill-rule="evenodd" clip-rule="evenodd" d="M161.82 37.3317C161.612 37.3558 160.889 37.6211 160.572 37.7775C159.384 38.3658 158.3 39.2484 157.199 40.1195C151.784 44.4048 147.36 47.9006 141.962 52.3725C141.023 53.1487 140.157 53.8218 139.006 54.8667C137.993 55.7875 137.072 56.8951 137.463 57.8394C137.918 58.9408 139.609 59.1563 140.618 59.322C144.212 59.907 147.883 59.8076 151.48 60.1098C154.946 60.3974 158.446 60.9471 162.269 61.0948C163.351 61.1347 165.165 61.3271 166.086 60.4731C167.187 59.4504 165.615 55.6166 165.063 53.9442C164.425 52.0055 164.045 50.5015 163.349 48.7036C163.125 48.134 162.65 47.6084 162.485 46.9977C162.337 46.4673 162.642 45.4576 162.77 44.639C163.02 43.0264 163.148 41.5785 163.2 39.9799C163.225 39.2561 163.299 37.1701 161.82 37.3317Z" fill="white"/>
<path fill-rule="evenodd" clip-rule="evenodd" d="M167.27 49.794C167.077 49.1069 166.347 48.9363 165.885 48.6383C165.396 48.3214 164.94 47.9499 164.391 47.6137C163.508 47.0618 162.201 46.0695 161.205 46.058C160.793 46.0558 159.9 46.3511 159.356 46.5105C157.353 47.0936 155.441 48.1934 153.48 49.1638C148.623 51.5689 143.116 54.0153 138.556 56.8928C138.259 57.0796 137.589 57.3524 137.713 57.6648C137.913 58.1633 138.783 57.8606 139.358 57.7136C148.022 55.4912 157.096 52.2765 165.591 50.4198C166.159 50.298 166.895 50.3628 167.27 49.794Z" fill="#437A9F"/>
<path fill-rule="evenodd" clip-rule="evenodd" d="M167.27 49.794C167.077 49.1069 166.347 48.9363 165.885 48.6383C165.396 48.3214 164.94 47.9499 164.391 47.6137C163.508 47.0618 162.201 46.0695 161.205 46.058C160.793 46.0558 159.9 46.3511 159.356 46.5105C157.353 47.0936 155.441 48.1934 153.48 49.1638C148.623 51.5689 143.116 54.0153 138.556 56.8928C138.259 57.0796 137.589 57.3524 137.713 57.6648C137.913 58.1633 138.783 57.8606 139.358 57.7136C148.022 55.4912 157.096 52.2765 165.591 50.4198C166.159 50.298 166.895 50.3628 167.27 49.794Z" fill="#437A9F"/>
<path d="M258.987 221.339C250.366 207.888 218.124 187.501 200.889 206.38C185.949 222.745 203.655 237.895 216.286 227.495C228.917 217.096 216.171 170.266 170.867 183.801" stroke="#305D7C" stroke-width="2.71748" stroke-linecap="round" stroke-dasharray="5.98 5.98"/>
<path fill-rule="evenodd" clip-rule="evenodd" d="M177.244 183.103C177.138 181.573 176.74 180.235 176.976 178.236C177.193 176.374 177.935 173.585 179.595 173.691C181.259 173.802 181.621 176.312 181.561 177.745C181.433 180.984 179.88 183.507 178.918 185.661C179.6 187.02 180.315 188.355 181.084 189.644C181.32 187.654 181.507 185.583 181.991 183.632C182.365 182.125 183.223 179.845 184.783 180.021C186.541 180.217 186.408 183.285 186.065 185.092C185.484 188.138 183.912 190.598 182.448 192.445C183.253 194.305 184.015 196.205 184.898 198.007C185.476 194.677 186.09 191.72 187.814 189.393C188.341 188.681 189.113 187.905 190.045 188.091C191.236 188.328 191.351 189.959 191.053 191.489C190.347 195.111 187.699 198.354 185.828 200.487C186.291 202.041 186.914 203.468 187.36 205.036C188.379 202.02 189.271 198.796 191.209 196.525C191.802 195.829 192.55 194.902 193.553 195.054C194.777 195.24 194.992 196.976 194.769 198.292C194.103 202.269 190.38 204.856 188.063 207.034C189.374 212.024 191.408 218.076 191.65 224.406C191.695 225.604 191.831 227.153 190.602 226.843C189.854 226.654 190.106 225.58 190.094 224.779C190.062 222.431 189.531 219.858 189.296 218.029C186.662 218.649 184.087 217.756 181.945 216.386C181.059 215.82 179.107 214.642 179.452 213.553C179.888 212.186 183.4 214.034 184.167 214.353C185.945 215.082 187.332 215.643 188.839 216.336C188.687 214.652 188.005 212.667 187.6 210.902C184.739 211.964 180.874 211.005 178.238 209.492C177.35 208.982 175.451 207.684 175.861 206.49C176.389 204.953 180.172 206.527 181.377 206.923C183.403 207.585 185.196 208.065 186.917 208.729C186.291 206.399 185.492 204.205 184.7 202.003C182.244 202.916 177.629 202.347 175.214 200.852C174.467 200.388 173.396 199.722 173.671 198.763C174.07 197.364 177.499 198.5 178.765 198.784C180.825 199.25 182.386 199.635 183.906 199.996C183.293 198.091 182.438 196.375 181.722 194.55C180.004 195.955 176.432 195.904 173.608 194.559C172.491 194.027 169.606 192.433 170 190.778C170.468 188.808 174.88 190.324 176.594 190.875C178.148 191.374 179.621 191.886 180.738 192.525C179.749 190.228 178.615 188.048 177.374 185.944C174.37 186.823 168.466 185.627 166.449 184.175C165.838 183.735 164.886 182.682 165.033 181.828C165.355 179.936 169.14 181.249 170.612 181.721C172.625 182.365 174.308 183.123 176.026 183.785C175.658 182.926 175.017 182.104 174.35 181.226C173.735 180.416 173.089 179.366 172.282 178.806C171.466 178.238 170.451 177.921 169.606 177.503C167.904 176.655 166.333 175.684 165.089 174.26C164.468 173.554 163.698 172.641 164.086 171.595C164.39 170.769 165.39 170.42 166.626 170.872C168.328 171.499 169.565 173.119 170.635 174.424C171.459 175.428 172.353 176.413 173.097 177.528C173.329 177.88 173.463 178.343 173.709 178.692C174.253 179.457 175.062 180.096 175.629 180.822C176.258 181.639 176.711 182.436 177.244 183.103Z" fill="#889922"/>
<path d="M212.655 194.089C213.214 193.635 213.815 193.202 214.394 192.781C215.51 191.973 216.562 191.211 217.339 190.329C218.445 189.07 218.891 187.991 218.709 187.029C218.518 186.037 217.847 185.889 217.465 185.889C216.419 185.889 215.18 186.937 215.044 187.055C213.312 188.557 212.029 190.447 210.882 193.177C210.264 193.728 209.639 194.369 209.038 194.988C208.617 195.42 208.213 195.838 207.822 196.211C207.866 195.249 207.902 194.175 207.807 192.996C207.739 192.123 207.524 189.466 205.982 189.466C204.526 189.489 204.175 191.833 204.191 193.071C204.225 195.454 204.802 197.618 205.687 198.723C205.41 199.048 205.154 199.426 204.906 199.794C204.701 200.097 204.502 200.392 204.305 200.638C204.122 199.565 203.929 198.729 203.496 197.673C202.706 195.76 201.751 194.936 200.771 195.245C200.018 195.481 199.972 196.714 200.067 197.705C200.242 199.516 201.072 202.324 202.67 203.209C202.39 203.623 202.152 204.068 201.918 204.5C201.86 204.609 201.801 204.718 201.741 204.829C201.457 203.942 201.075 203.145 200.62 202.243C200.571 202.143 200.518 202.026 200.455 201.895C199.999 200.909 199.275 199.382 198.117 199.576C197.834 199.624 197.6 199.766 197.446 199.987C197.1 200.483 197.223 201.283 197.369 201.927C197.869 204.12 198.917 205.939 200.486 207.336C199.735 209 199.05 210.881 198.31 213.329C198.24 213.193 198.169 213.06 198.101 212.92C197.849 212.421 197.587 211.906 197.219 211.354L197.093 211.157C196.608 210.403 195.75 209.097 194.661 209.295C194.339 209.346 194.082 209.531 193.908 209.824C193.498 210.53 193.68 211.768 193.941 212.421C194.482 213.773 196.039 215.894 196.947 216.294C197.169 216.393 197.397 216.43 197.597 216.445C197.073 218.737 196.729 221.738 196.638 224.759L196.63 224.978C196.611 225.728 196.581 226.663 196.682 227.408L196.697 227.525C196.727 227.827 196.776 228.328 197.261 228.486L197.348 228.513L197.439 228.495C198.234 228.337 198.207 227.541 198.191 227.065C198.183 226.945 198.18 226.829 198.19 226.727C198.213 226.365 198.237 225.986 198.262 225.599C198.346 224.249 198.884 219.331 198.884 219.331C199.037 218.348 199.193 217.337 199.434 216.424C201.206 216.704 203.027 216.428 205.266 215.529C206.077 215.207 207.974 214.447 207.706 213.101C207.615 212.641 207.245 212.091 206.008 212.091C205.11 212.091 204.054 212.369 203.422 212.534L203.249 212.579C201.873 212.935 200.967 213.301 200.095 213.716C200.583 211.902 201.131 210.343 201.755 208.976C202.47 209.286 203.34 209.576 204.435 209.637C204.703 209.651 205.02 209.658 205.363 209.658C206.444 209.658 209.057 209.568 209.92 208.718C210.129 208.512 210.239 208.266 210.232 208.003C210.211 206.701 207.866 206.486 206.104 206.438C205.028 206.407 204.241 206.484 203.474 206.558C203.265 206.579 203.056 206.598 202.839 206.617C203.125 205.984 203.463 205.395 203.795 204.818C203.911 204.618 204.027 204.414 204.138 204.213C205.2 204.954 206.722 205.412 208.484 205.515C208.702 205.527 208.943 205.535 209.195 205.535C210.086 205.535 212.251 205.443 213.053 204.579C213.285 204.328 213.389 204.027 213.354 203.704C213.214 202.457 210.541 202.127 208.774 202.256C208.227 202.298 207.685 202.303 207.229 202.303L205.944 202.298C205.748 202.298 205.549 202.298 205.347 202.302C205.851 201.44 206.451 200.664 207.15 199.795C208.197 200.363 209.798 200.696 211.519 200.696C212.753 200.696 213.955 200.522 214.911 200.206L214.983 200.182C215.886 199.886 217.249 199.434 217.131 198.367C217.003 197.208 215.01 197.175 213.819 197.157L213.514 197.149C211.965 197.107 210.386 197.272 209.001 197.601C209.294 197.313 209.594 197.006 209.906 196.688C210.704 195.866 211.614 194.939 212.655 194.089Z" fill="#889922"/>
<path fill-rule="evenodd" clip-rule="evenodd" d="M208.563 224.452C208.513 223.308 208.536 221.768 207.8 221.374C207.526 221.229 207.003 221.178 206.401 221.161L206.402 221.157L206.001 221.155H205.995L179.42 221.05V221.052C178.915 221.046 178.424 221.053 177.95 221.107C176.429 221.277 176.506 222.447 176.543 224.025C176.579 225.424 176.383 227.04 177.227 227.554C177.925 227.971 179.708 227.863 179.708 227.863C180.19 233.131 180.877 238.509 181.425 243.912C181.587 245.514 181.621 248.268 182.408 248.939C183.156 249.577 202.132 249.71 202.875 249.093C203.377 248.678 203.397 247.855 203.503 246.77C204.149 240.393 204.831 233.963 205.523 227.886C206.579 227.835 207.392 227.938 207.926 227.596C208.647 227.138 208.604 225.53 208.563 224.452Z" fill="#E88F20"/>
<path opacity="0.2" fill-rule="evenodd" clip-rule="evenodd" d="M205.523 227.886L179.863 229.491L179.704 227.863L205.523 227.886Z" fill="black"/>
<path fill-rule="evenodd" clip-rule="evenodd" d="M65.5948 154.229C65.5554 154.236 65.5014 154.215 65.4674 154.229C64.445 154.532 64.0864 156.786 63.6155 158.023C62.0501 162.129 60.8274 166.776 61.2352 172.258C61.4548 175.216 62.8589 178.274 64.0087 180.682C64.3716 181.432 64.9377 182.301 65.0651 182.937C65.3121 184.141 65.1179 185.595 65.1998 186.852C65.4352 190.473 65.7938 194.525 65.991 198.122C56.3537 196.771 40.8621 192.581 30.1671 192.181C29.5658 192.679 29.3783 193.491 29.1083 194.197C28.3371 196.232 27.6599 198.784 27.3936 201.435C27.9888 201.981 28.8462 202.312 29.6374 202.621C35.2003 204.784 46.9869 209.279 52.6481 211.647C55.7669 212.953 58.9792 214.219 62.2928 215.324C65.6561 216.447 69.3131 217.766 72.9932 218.054C79.2193 218.539 81.4031 215.589 82.9055 211.647C84.3478 207.856 84.7913 203.593 85.1511 198.597C85.3107 196.367 85.662 193.455 85.1511 191.361C84.9491 190.537 84.3393 189.815 83.9588 188.99C81.4984 183.608 78.4645 177.903 75.6381 172.854C72.2062 166.728 68.5492 161.097 65.8606 154.583C65.8667 154.381 65.7617 154.276 65.5948 154.229Z" fill="#305D7C"/>
<path opacity="0.19" d="M67.1803 200.496C67.4551 201.54 68.0874 203.124 67.1803 203.698C65.5917 203.241 64.8691 201.513 64.0087 200.258C63.3898 199.349 62.6641 198.417 62.1259 197.565C63.4104 197.754 64.7004 197.94 65.991 198.123C65.9752 197.838 65.9601 197.545 65.9382 197.255C65.9983 197.268 66.0626 197.28 66.1257 197.292C66.4139 198.18 66.8793 199.369 67.1803 200.496Z" fill="black"/>
<path fill-rule="evenodd" clip-rule="evenodd" d="M21.5713 203.131C20.524 204.673 19.4506 206.1 18.1618 207.246C18.0259 207.366 17.6758 207.282 17.5357 207.396C17.3585 207.54 17.3894 207.879 17.2037 208.012C16.9489 208.194 16.6862 208.365 16.4131 208.525C15.7754 208.899 14.8774 209.45 14.1177 209.099C13.1111 208.633 13.4217 206.769 13.7506 205.221C14.4423 201.967 15.3391 199.01 16.495 195.751C17.4355 193.118 18.495 190.812 20.4227 190.457C21.4785 190.262 22.6313 190.411 23.8164 190.633C23.9899 190.665 24.0742 190.942 24.249 190.977C24.4207 191.011 24.6822 190.802 24.8546 190.837C24.9086 190.848 24.9626 190.859 25.0172 190.87C26.6087 191.193 28.136 191.672 29.8926 192.477C29.5122 194.825 28.7191 197.866 27.6906 200.738C29.531 201.241 29.8732 202.465 29.4315 204.332C29.2792 204.973 28.8708 206 28.4497 206.164C27.6026 206.499 22.5543 203.797 21.5713 203.131Z" fill="#E88F20"/>
<path d="M20.4348 199.517C18.2832 200.645 16.7262 203.617 16.9665 206.616C16.9999 207.003 17.0526 207.546 17.2037 208.01C17.5356 207.773 17.8518 207.512 18.1576 207.239C18.1066 207.081 18.0611 206.924 18.0423 206.77C17.9367 205.896 17.9925 204.814 18.4094 203.623C19.9099 199.3 23.8934 199.559 27.9558 200.833C28.0977 200.876 28.2367 200.936 28.3744 200.998C28.1742 200.898 27.9503 200.807 27.6924 200.737C27.8041 200.42 27.9133 200.099 28.0231 199.777C27.7422 199.697 27.4776 199.625 27.2507 199.564C24.6052 198.828 22.3346 198.521 20.4348 199.517Z" fill="white"/>
<path d="M24.7629 191.402C24.8011 191.23 24.8363 191.036 24.8551 190.837C24.5081 190.768 24.1634 190.697 23.8163 190.633C23.8236 190.803 23.8339 190.976 23.8006 191.136C23.2023 194.075 20.9803 194.679 18.7989 194.476C18.2097 194.421 17.4998 194.221 17.0496 194.312C16.947 194.564 16.8433 194.821 16.7438 195.083C17.1825 195.516 18.6017 195.536 19.1939 195.554C21.7381 195.641 24.1106 194.679 24.7629 191.402Z" fill="white"/>
<path d="M19.8802 190.624C18.2899 191.275 17.3433 193.376 16.495 195.751C15.3397 199.009 14.4429 201.966 13.7506 205.221C13.4551 206.606 13.1772 208.238 13.8471 208.902L19.8802 190.624Z" fill="#305D7C"/>
<path d="M25.8401 207.217C25.7624 207.292 25.6702 207.36 25.561 207.419C25.3183 207.555 25.0258 207.554 24.6963 207.409C23.4894 206.879 21.8748 204.435 21.5951 203.458C21.5672 203.363 21.589 203.26 21.6509 203.187C21.711 203.113 21.8087 203.078 21.8985 203.093C22.5993 203.203 25.6289 204.97 26.0385 206.282C26.1459 206.634 26.0755 206.967 25.8401 207.217ZM22.3669 203.873C22.9021 204.941 24.0974 206.52 24.9093 206.872C25.0774 206.944 25.2066 206.96 25.2982 206.911C25.3613 206.874 25.4111 206.835 25.4475 206.798C25.5118 206.73 25.5658 206.645 25.5064 206.457C25.24 205.606 23.3748 204.365 22.3669 203.873Z" fill="#305D7C"/>
<path d="M23.5197 208.695C23.3401 208.884 23.0864 208.964 22.7733 208.94C22.4997 208.92 22.2557 208.757 22.0446 208.45C21.2886 207.338 21.1623 204.378 21.4214 203.402C21.4475 203.304 21.5149 203.231 21.6101 203.202C21.6963 203.171 21.7976 203.192 21.8704 203.258C22.3692 203.704 23.7502 206.288 23.7988 207.757C23.8139 208.177 23.7217 208.491 23.5197 208.695ZM21.8668 204.186C21.7831 205.388 21.9942 207.372 22.5003 208.121C22.6059 208.273 22.7096 208.356 22.8091 208.368C22.9596 208.374 23.0664 208.347 23.1295 208.283C23.2175 208.199 23.2569 208.022 23.2478 207.776C23.2126 206.754 22.3947 205.042 21.8668 204.186Z" fill="#305D7C"/>
<path d="M19.9313 207.395L21.9355 203.617L21.4483 203.338L19.4429 207.119L19.9313 207.395Z" fill="#305D7C"/>
<path fill-rule="evenodd" clip-rule="evenodd" d="M98.308 206.557C92.7961 215.925 91.1693 228.783 89.6712 241.751C89.8569 242.22 90.5504 242.193 90.96 242.332C93.1893 243.089 95.836 243.835 98.5113 244.505C99.2297 244.685 100.065 244.819 100.757 244.994C104.001 238.219 106.575 231.685 109.654 224.616C111.712 219.904 114.157 214.427 115.715 208.873C116.265 206.913 116.797 204.751 116.744 202.738C116.688 200.503 115.701 198.565 114.556 196.716C111.431 191.68 107.446 186.848 103.981 182.362C101.653 179.345 99.2516 176.145 96.89 172.866C93.9113 168.744 90.0262 164.158 91.602 157.471C83.7916 156.351 75.0923 155.609 67.3626 154.809C67.0804 154.779 67.0391 154.624 66.5889 154.692C65.8559 154.805 66.0319 155.177 65.8153 155.964C64.9009 159.33 64.2662 163.561 64.5235 167.772C64.8335 172.743 67.5689 176.766 70.0718 180.163C77.2954 189.967 88.63 199.405 98.308 206.557Z" fill="#437A9F"/>
<path fill-rule="evenodd" clip-rule="evenodd" d="M100.797 250.316C102.324 251.345 103.735 252.397 104.855 253.643C105.033 253.841 104.765 254.02 104.927 254.227C105.008 254.331 105.525 254.46 105.602 254.567C105.779 254.812 105.945 255.065 106.098 255.326C106.458 255.937 106.991 256.801 106.616 257.506C106.117 258.444 104.245 258.102 102.69 257.748C99.4278 257.007 96.468 256.081 93.2132 254.902C90.5829 253.944 88.2862 252.883 87.9792 251.054C87.8117 250.052 87.9938 248.969 88.2492 247.857C88.282 247.715 88.8681 247.704 88.9027 247.561C88.9464 247.379 88.4397 247.064 88.484 246.881C88.4962 246.831 88.5083 246.782 88.5204 246.732C88.8906 245.238 89.4142 243.812 90.2746 242.177C92.6344 242.598 95.6798 243.429 98.5486 244.478C99.1086 242.754 100.351 242.463 102.223 242.933C102.863 243.094 103.889 243.505 104.044 243.907C104.356 244.718 101.496 249.405 100.797 250.316Z" fill="#E88F20"/>
<path d="M97.1191 251.289C98.2016 253.35 101.155 254.9 104.186 254.753C104.579 254.733 105.13 254.696 105.602 254.567C105.37 254.248 105.115 253.944 104.849 253.648C104.688 253.692 104.53 253.731 104.372 253.744C103.487 253.82 102.399 253.739 101.208 253.313C96.996 251.818 97.2411 248.215 98.5493 244.515L98.5481 244.479C98.2308 244.362 97.9104 244.25 97.587 244.14C97.499 244.399 97.4201 244.65 97.3546 244.86C96.5385 247.337 96.1671 249.469 97.1191 251.289Z" fill="white"/>
<path d="M89.0502 246.984C88.8803 246.946 88.6843 246.905 88.4841 246.881C88.4052 247.208 88.3233 247.533 88.2487 247.857C88.4216 247.855 88.5957 247.852 88.7565 247.885C91.7073 248.53 92.2546 250.642 91.9894 252.696C91.9178 253.25 91.7012 253.913 91.7758 254.338C92.0276 254.445 92.2837 254.548 92.5495 254.649C92.9954 254.248 93.0525 252.91 93.0895 252.352C93.2442 249.952 92.3401 247.689 89.0502 246.984Z" fill="white"/>
<path d="M88.1327 251.573C88.7467 253.089 90.8407 254.038 93.2132 254.902C96.4679 256.082 99.4272 257.008 102.69 257.749C104.082 258.065 105.719 258.37 106.408 257.759L88.1327 251.573Z" fill="#305D7C"/>
<path d="M105.035 246.398C105.108 246.475 105.177 246.564 105.23 246.668C105.362 246.901 105.354 247.177 105.196 247.483C104.631 248.61 102.118 250.065 101.125 250.301C101.03 250.325 100.928 250.301 100.858 250.243C100.786 250.184 100.75 250.091 100.768 250.005C100.896 249.35 102.762 246.539 104.096 246.188C104.457 246.095 104.789 246.168 105.035 246.398ZM101.568 249.586C102.659 249.107 104.285 248.022 104.662 247.267C104.74 247.112 104.757 246.988 104.712 246.902C104.677 246.841 104.637 246.793 104.604 246.757C104.536 246.693 104.451 246.641 104.26 246.692C103.394 246.92 102.093 248.646 101.568 249.586Z" fill="#305D7C"/>
<path d="M106.461 248.627C106.646 248.802 106.721 249.043 106.689 249.339C106.661 249.596 106.49 249.822 106.177 250.01C105.035 250.698 102.043 250.733 101.067 250.463C100.968 250.438 100.895 250.37 100.87 250.28C100.841 250.196 100.863 250.103 100.932 250.035C101.397 249.577 104.04 248.345 105.525 248.339C105.947 248.336 106.264 248.433 106.461 248.627ZM101.868 250.065C103.076 250.177 105.086 250.033 105.854 249.575C106.014 249.478 106.098 249.383 106.113 249.29C106.124 249.147 106.099 249.045 106.038 248.984C105.956 248.9 105.778 248.858 105.53 248.86C104.496 248.864 102.747 249.587 101.868 250.065Z" fill="#305D7C"/>
<path d="M105.055 251.98L101.296 249.986L101.003 250.438L104.762 252.432L105.055 251.98Z" fill="#305D7C"/>
<path fill-rule="evenodd" clip-rule="evenodd" d="M21.28 78.0487C20.7576 77.905 19.1338 77.144 18.2564 77.0372C17.9172 76.9926 17.5004 77.0325 17.3936 77.2918C17.1715 77.834 18.5113 78.331 18.956 78.5616C19.7169 78.9641 20.223 79.2845 20.8856 79.6101C20.2685 79.5198 18.6969 78.7722 17.6278 78.5903C17.18 78.5117 16.6533 78.5005 16.532 78.8385C16.3742 79.2639 17.4276 79.7873 17.774 79.9716C19.4433 80.8628 21.2994 81.8709 22.4626 82.8185C23.8029 83.9111 24.7987 85.0142 25.6621 86.403C25.8714 86.7393 26.1597 87.5379 26.5662 87.6634C26.7561 87.7227 27.2682 87.5953 27.4515 87.5208C28.0746 87.2656 28.699 86.7692 29.5054 86.1824C29.8094 85.9577 30.1267 85.7465 30.4708 85.4167C30.7505 85.1503 31.2796 84.7413 31.3458 84.5741C31.4525 84.3089 31.1965 83.6799 31.0418 83.3102C30.5885 82.2282 29.8203 80.7584 29.4138 79.8742C29.0667 79.1061 28.7039 78.3016 28.375 77.5594C28.0692 76.8559 27.082 74.5423 26.0316 74.784C25.1627 74.9859 26.4194 77.1217 26.463 77.7501C25.6348 76.9615 24.0802 75.8736 22.2308 75.1308C21.7466 74.936 20.7521 74.4812 20.4784 74.828C20.0998 75.3039 20.8765 75.6917 21.1926 75.9311C21.6343 76.2626 21.9183 76.549 22.3509 76.7743C21.6374 76.6124 20.192 75.8942 19.3201 75.8126C19.0331 75.7856 18.6763 75.8519 18.5829 76.0461C18.3693 76.5038 19.1842 76.8036 19.6757 77.0894C20.3468 77.479 20.7527 77.7747 21.2236 78.0352C21.2387 78.0376 21.2551 78.0441 21.28 78.0487Z" fill="#FCD2C0"/>
<path fill-rule="evenodd" clip-rule="evenodd" d="M119.647 79.3173C119.531 80.2644 119.24 81.8709 119.132 83.0221C119.098 83.4182 119.047 84.0859 119.228 84.3124C119.342 84.4597 119.977 84.7202 120.328 84.9062C120.738 85.1292 121.092 85.2512 121.44 85.3844C122.646 84.5401 124.059 83.941 125.57 83.6459C125.965 82.524 126.493 81.5007 127.23 80.4345C128.059 79.2358 129.537 77.8088 130.868 76.5396C131.146 76.2744 132 75.5133 131.719 75.1437C131.499 74.8491 130.992 74.9923 130.586 75.1724C129.613 75.6149 128.335 76.7221 127.77 76.9603C128.305 76.485 128.693 76.0496 129.304 75.4758C129.656 75.1431 130.796 74.334 130.415 73.8716C130.232 73.648 129.821 73.7132 129.508 73.837C128.724 74.1468 127.471 75.2041 126.973 75.5169L126.962 75.5263C126.948 75.5368 126.929 75.5444 126.913 75.5544C126.929 75.5444 126.956 75.5245 126.973 75.5169C127.338 75.1513 127.639 74.7723 128.162 74.2354C128.545 73.8393 129.24 73.3529 128.892 72.965C128.746 72.799 128.382 72.8242 128.116 72.9204C127.298 73.2138 126.133 74.263 125.489 74.5939C125.836 74.27 126.027 73.9267 126.346 73.4972C126.578 73.1863 127.208 72.6235 126.698 72.2615C126.325 71.9934 125.508 72.6769 125.103 72.9815C123.554 74.1515 122.391 75.5802 121.839 76.5455C121.686 75.9323 122.237 73.5665 121.345 73.5882C120.258 73.6122 120.015 76.0813 119.936 76.8324C119.851 77.6251 119.748 78.4923 119.647 79.3173Z" fill="#FCD2C0"/>
<path fill-rule="evenodd" clip-rule="evenodd" d="M119.61 79.5916C121.279 80.0885 124.832 81.1911 126.417 81.7461C124.54 86.8803 121.283 98.2535 119.442 102.667C117.583 107.132 116.652 109.953 113.176 112.957C106.457 118.765 101.573 121.388 98.982 127.748C96.9402 132.762 98.7156 153.373 99.8248 165.371C91.8828 166.328 67.8588 168.539 58.0952 167.39C58.4095 160.56 59.6928 134.8 57.3051 129.902C55.7105 126.636 48.7648 120.266 46.8195 118.999C42.9604 116.489 39.1468 113.706 36.2197 110.294C33.1404 106.708 26.0205 92.9181 23.8846 84.1196C25.7487 82.9114 27.9543 82.2695 30.1969 81.4985C34.5317 89.1141 39.4435 98.4131 46.7728 103.908C54.0007 109.323 60.9725 114.146 72.0686 117.187C76.7073 118.039 78.8723 117.93 81.6477 116.717C88.9162 112.518 98.0931 109.402 104.965 104.804C111.92 100.15 119.61 79.5916 119.61 79.5916Z" fill="#E88F20"/>
<path fill-rule="evenodd" clip-rule="evenodd" d="M80.844 113.465C84.1983 113.134 86.2116 111.713 85.8778 108.079C85.7607 106.763 85.3075 104.918 85.035 103.169C84.535 99.9708 83.8427 97.7042 81.9629 96.1252C80.7154 95.0784 78.9703 94.5263 77.4777 94.2546C75.9577 93.9812 73.6392 94.4201 72.4863 94.8584C69.4349 96.0219 66.9058 99.6986 67.9367 103.642C68.3421 105.185 69.1115 106.519 69.8912 107.663C71.1581 109.526 71.4712 111.075 71.7624 113.546C71.8868 114.579 71.9997 116.877 71.9997 116.877C72.0246 119.089 75.3861 122.347 77.92 121.941C79.4527 121.698 81.077 119.874 80.8616 117.669L80.844 113.465Z" fill="#FCD2C0"/>
<path fill-rule="evenodd" clip-rule="evenodd" d="M73.5581 108.482C73.6855 109.936 73.0696 111.085 71.3549 111.328C68.6341 111.717 62.8012 104.923 63.3382 100.543C63.5184 99.0413 64.4662 97.8466 66.0577 96.9964C66.9721 94.5737 67.6863 93.2018 71.0139 91.9755C75.3893 90.3637 83.034 89.0206 84.5249 91.5143C85.8179 93.6794 84.0461 95.9637 82.7998 96.9794C82.0917 97.5556 80.8745 98.201 79.8655 98.6564C78.7156 99.1792 77.2442 99.3998 76.5197 100.038C75.9069 100.585 75.8583 102.014 75.9318 103.106C75.9827 103.825 76.6532 105.715 75.345 106.175C73.6321 106.773 73.0192 103.737 71.2493 104.184C69.631 104.597 70.0612 106.72 71.1643 107.796C71.8919 108.507 72.708 108.414 73.5581 108.482Z" fill="#305D7C"/>
<path fill-rule="evenodd" clip-rule="evenodd" d="M79.9493 101.594C80.4062 100.988 80.9038 100.664 81.3759 100.508C82.5002 100.499 82.7563 100.739 82.7563 100.739C82.7563 100.739 82.8752 101.017 82.3849 101.591C82.2381 101.66 82.0737 101.725 81.8886 101.78C80.9875 102.053 79.9493 101.594 79.9493 101.594Z" fill="white"/>
<path fill-rule="evenodd" clip-rule="evenodd" d="M83.4469 100.697C83.4469 100.697 82.4869 100.147 81.3753 100.508C81.3577 100.596 81.308 100.766 81.3213 100.859C81.3693 101.268 81.7558 101.578 82.2442 101.651C83.1647 101.271 83.4469 100.697 83.4469 100.697Z" fill="#305D7C"/>
<path d="M79.3739 100.97C80.2574 99.5182 82.1985 99.2671 82.9509 99.3762L83.0534 98.7971C81.8696 98.624 79.7677 99.0987 78.7993 100.691L79.3739 100.97Z" fill="#305D7C"/>
<path fill-rule="evenodd" clip-rule="evenodd" d="M84.2708 100.284C83.7028 100.314 84.6233 103.756 85.2695 105.046C86.0037 105.098 86.9066 104.773 87.0249 104.216C87.2706 103.114 84.8059 100.256 84.2708 100.284Z" fill="#FCD2C0"/>
<path opacity="0.13" fill-rule="evenodd" clip-rule="evenodd" d="M84.2708 100.284C83.7028 100.314 84.6233 103.756 85.2695 105.046C86.0037 105.098 86.9066 104.773 87.0249 104.216C87.2706 103.114 84.8059 100.256 84.2708 100.284Z" fill="black"/>
<path opacity="0.13" d="M81.7865 106.797L81.329 107.333C82.5522 108.167 84.3792 108.596 85.8494 107.827C85.8246 107.591 85.7936 107.345 85.7511 107.083C84.5352 107.908 82.8732 107.54 81.7865 106.797Z" fill="black"/>
<path opacity="0.13" fill-rule="evenodd" clip-rule="evenodd" d="M80.8441 113.466C80.8441 113.466 77.4869 113.34 75.1757 112.25C75.1757 112.25 76.5767 116.156 80.9072 116.195L80.8441 113.466Z" fill="black"/>
<path fill-rule="evenodd" clip-rule="evenodd" d="M71.4599 127.731C73.1243 128.055 78.5943 123.217 78.3747 122.168C78.1332 121.041 73.2226 115.214 72.2863 115.032C70.8659 114.959 70.7912 116.822 70.6274 118.05C70.3483 120.131 70.358 122.31 70.4945 124.526C70.5649 125.742 70.3277 127.514 71.4599 127.731Z" fill="white"/>
<path fill-rule="evenodd" clip-rule="evenodd" d="M77.9875 122.226C78.2436 123.822 82.7914 126.586 83.7992 126.102C84.8599 125.589 82.559 116.381 81.0432 116.209C79.6568 116.787 77.7636 120.841 77.9875 122.226Z" fill="white"/>
<path opacity="0.19" d="M103.892 209.452C102.149 208.296 99.9304 207.118 97.9627 206.107C97.814 206.082 97.7529 206.142 97.6795 206.186C97.8672 206.324 98.0555 206.466 98.2367 206.602C97.6432 207.611 97.1035 208.666 96.5879 209.746C99.2621 210.397 102.331 211.121 105.276 211.062C105.379 210.274 104.477 209.839 103.892 209.452Z" fill="black"/>
</svg>
