<svg width="424" height="447" viewBox="0 0 424 447" fill="none" xmlns="http://www.w3.org/2000/svg">
<path d="M379.561 288.4H200.931V370.78H379.561V288.4Z" fill="#F5F5F5"/>
<path d="M375.311 366.9H205.021V292.74H375.311V366.9ZM206.131 365.79H374.201V293.85H206.131V365.79Z" fill="#E0E0E0"/>
<path d="M423.202 288.4H379.562V370.78H423.202V288.4Z" fill="#E0E0E0"/>
<path d="M205.581 315.69H374.751C374.802 315.679 374.849 315.651 374.882 315.61C374.915 315.569 374.933 315.518 374.933 315.465C374.933 315.413 374.915 315.361 374.882 315.32C374.849 315.279 374.802 315.251 374.751 315.24H205.581C205.529 315.251 205.483 315.279 205.45 315.32C205.417 315.361 205.398 315.413 205.398 315.465C205.398 315.518 205.417 315.569 205.45 315.61C205.483 315.651 205.529 315.679 205.581 315.69Z" fill="#E0E0E0"/>
<path d="M290.721 315.47C291.191 308.018 291.211 300.544 290.781 293.09C290.781 293.029 290.757 292.97 290.713 292.927C290.67 292.884 290.612 292.86 290.551 292.86C290.49 292.86 290.431 292.884 290.388 292.927C290.345 292.97 290.321 293.029 290.321 293.09C289.891 300.544 289.911 308.018 290.381 315.47C290.381 315.515 290.399 315.558 290.431 315.59C290.463 315.622 290.506 315.64 290.551 315.64C290.596 315.64 290.639 315.622 290.671 315.59C290.703 315.558 290.721 315.515 290.721 315.47Z" fill="#E0E0E0"/>
<path d="M336.261 304.28C336.261 304.737 336.125 305.184 335.871 305.564C335.617 305.943 335.257 306.24 334.835 306.414C334.413 306.589 333.948 306.635 333.5 306.546C333.052 306.457 332.64 306.237 332.317 305.914C331.994 305.591 331.774 305.179 331.685 304.731C331.596 304.283 331.642 303.818 331.816 303.396C331.991 302.974 332.287 302.613 332.667 302.359C333.047 302.106 333.494 301.97 333.951 301.97C334.563 301.97 335.151 302.214 335.584 302.647C336.017 303.08 336.261 303.668 336.261 304.28Z" fill="#E0E0E0"/>
<path d="M247.471 304.28C247.471 304.737 247.335 305.184 247.081 305.564C246.826 305.944 246.465 306.24 246.042 306.415C245.62 306.589 245.155 306.635 244.706 306.545C244.258 306.455 243.846 306.234 243.524 305.91C243.201 305.586 242.982 305.173 242.894 304.724C242.806 304.275 242.853 303.811 243.029 303.389C243.206 302.967 243.503 302.607 243.885 302.354C244.266 302.102 244.713 301.968 245.171 301.97C245.473 301.97 245.773 302.03 246.053 302.146C246.333 302.262 246.587 302.432 246.8 302.647C247.014 302.862 247.183 303.116 247.298 303.397C247.413 303.677 247.472 303.977 247.471 304.28Z" fill="#E0E0E0"/>
<path d="M292.472 329.82C292.474 330.278 292.339 330.726 292.086 331.107C291.833 331.489 291.473 331.786 291.05 331.962C290.628 332.138 290.162 332.185 289.713 332.096C289.264 332.007 288.852 331.787 288.528 331.463C288.204 331.14 287.984 330.727 287.895 330.278C287.807 329.829 287.853 329.364 288.029 328.941C288.205 328.519 288.503 328.158 288.884 327.905C289.266 327.652 289.714 327.518 290.172 327.52C290.781 327.523 291.364 327.766 291.795 328.197C292.226 328.627 292.469 329.211 292.472 329.82Z" fill="#E0E0E0"/>
<path d="M222.291 370.78L213.091 422.51H218.271L235.221 370.78H222.291Z" fill="#E0E0E0"/>
<path d="M366.921 370.78L374.611 422.6H369.441L353.991 370.78H366.921Z" fill="#E0E0E0"/>
<path d="M401.461 370.78L410.171 422.6H405.001L388.521 370.78H401.461Z" fill="#E0E0E0"/>
<path d="M292.321 353.14C292.321 353.597 292.186 354.044 291.932 354.423C291.678 354.803 291.317 355.099 290.895 355.274C290.473 355.449 290.009 355.495 289.561 355.406C289.112 355.317 288.701 355.097 288.378 354.773C288.055 354.45 287.835 354.039 287.746 353.591C287.656 353.143 287.702 352.678 287.877 352.256C288.052 351.834 288.348 351.473 288.728 351.219C289.108 350.966 289.554 350.83 290.011 350.83C290.624 350.83 291.211 351.073 291.645 351.507C292.078 351.94 292.321 352.527 292.321 353.14Z" fill="#E0E0E0"/>
<path d="M205.581 341.21H374.751C374.802 341.199 374.849 341.171 374.882 341.13C374.915 341.089 374.933 341.037 374.933 340.985C374.933 340.932 374.915 340.881 374.882 340.84C374.849 340.799 374.802 340.771 374.751 340.76H205.581C205.529 340.771 205.483 340.799 205.45 340.84C205.417 340.881 205.398 340.932 205.398 340.985C205.398 341.037 205.417 341.089 205.45 341.13C205.483 341.171 205.529 341.199 205.581 341.21Z" fill="#E0E0E0"/>
<path d="M327.313 261.739L327.203 250.749L273.193 251.289L273.303 262.279L327.313 261.739Z" fill="#E0E0E0"/>
<path d="M332.128 288.147L332.038 271.067L271.839 271.383L271.928 288.462L332.128 288.147Z" fill="#F5F5F5"/>
<path d="M320.541 288.06C320.252 285.22 320.155 282.363 320.251 279.51C320.155 276.66 320.252 273.807 320.541 270.97C320.83 273.807 320.927 276.66 320.831 279.51C320.927 282.363 320.83 285.22 320.541 288.06Z" fill="#E0E0E0"/>
<path d="M323.071 288.06C322.782 285.22 322.685 282.363 322.781 279.51C322.685 276.66 322.782 273.807 323.071 270.97C323.36 273.807 323.457 276.66 323.361 279.51C323.457 282.363 323.36 285.22 323.071 288.06Z" fill="#E0E0E0"/>
<path d="M281.001 288.06C280.711 285.22 280.615 282.363 280.711 279.51C280.615 276.66 280.712 273.807 281.001 270.97C281.29 273.807 281.387 276.66 281.291 279.51C281.387 282.363 281.29 285.22 281.001 288.06Z" fill="#E0E0E0"/>
<path d="M283.531 288.06C283.242 285.22 283.145 282.363 283.241 279.51C283.145 276.66 283.242 273.807 283.531 270.97C283.82 273.807 283.917 276.66 283.821 279.51C283.917 282.363 283.82 285.22 283.531 288.06Z" fill="#E0E0E0"/>
<path d="M289.051 279.79C289.051 279.63 295.121 279.49 302.611 279.49C310.101 279.49 316.171 279.63 316.171 279.79C316.171 279.95 310.101 280.08 302.611 280.08C295.121 280.08 289.051 279.95 289.051 279.79Z" fill="#E0E0E0"/>
<path d="M354.723 270.976L354.665 259.986L280.386 260.375L280.444 271.365L354.723 270.976Z" fill="#EBEBEB"/>
<path d="M344.111 269.63C343.405 269.64 342.712 269.439 342.12 269.054C341.528 268.669 341.064 268.117 340.787 267.467C340.509 266.818 340.432 266.1 340.563 265.407C340.695 264.713 341.03 264.074 341.526 263.571C342.022 263.068 342.656 262.724 343.348 262.582C344.04 262.441 344.758 262.508 345.412 262.776C346.065 263.044 346.624 263.501 347.017 264.087C347.411 264.673 347.621 265.364 347.621 266.07C347.625 266.534 347.537 266.995 347.363 267.425C347.188 267.856 346.931 268.248 346.605 268.578C346.279 268.909 345.891 269.172 345.463 269.353C345.035 269.533 344.575 269.627 344.111 269.63Z" fill="#E0E0E0"/>
<path d="M334.461 267.17V264.97H284.741V267.17H334.461Z" fill="#E0E0E0"/>
<path d="M129.941 0H121.691V177.47H129.941V0Z" fill="#E0E0E0"/>
<path d="M120.321 1.37012H2.08094C2.01466 1.37012 1.96094 1.42384 1.96094 1.49012V177.59C1.96094 177.656 2.01466 177.71 2.08094 177.71H120.321C120.387 177.71 120.441 177.656 120.441 177.59V1.49012C120.441 1.42384 120.387 1.37012 120.321 1.37012Z" fill="#F5F5F5"/>
<path d="M121.691 179.09H0.701054C0.669994 179.088 0.640794 179.074 0.618771 179.052C0.596747 179.03 0.583365 179.001 0.581055 178.97V0.119999C0.581055 0.088173 0.593699 0.0576492 0.616203 0.0351448C0.638708 0.0126404 0.669228 0 0.701054 0H121.701C121.733 0 121.763 0.0126404 121.786 0.0351448C121.808 0.0576492 121.821 0.088173 121.821 0.119999V178.97C121.821 178.987 121.818 179.003 121.811 179.018C121.804 179.034 121.795 179.047 121.782 179.059C121.77 179.07 121.756 179.078 121.74 179.084C121.724 179.089 121.708 179.091 121.691 179.09ZM3.45105 176.34H118.901C118.933 176.34 118.963 176.327 118.986 176.305C119.008 176.282 119.021 176.252 119.021 176.22V2.87C119.021 2.83817 119.008 2.80765 118.986 2.78514C118.963 2.76264 118.933 2.75 118.901 2.75H3.45105C3.41923 2.75 3.38871 2.76264 3.3662 2.78514C3.3437 2.80765 3.33105 2.83817 3.33105 2.87V176.21C3.32967 176.227 3.33174 176.243 3.33715 176.259C3.34256 176.275 3.35118 176.289 3.36246 176.301C3.37375 176.314 3.38745 176.323 3.4027 176.33C3.41795 176.337 3.43442 176.34 3.45105 176.34Z" fill="#EBEBEB"/>
<path d="M108.601 12.25H14.0106C13.9443 12.25 13.8906 12.3037 13.8906 12.37V166.6C13.8906 166.666 13.9443 166.72 14.0106 166.72H108.601C108.667 166.72 108.721 166.666 108.721 166.6V12.37C108.721 12.3037 108.667 12.25 108.601 12.25Z" fill="white"/>
<path d="M87.7613 56.04H34.6313C34.5982 56.04 34.5713 56.0669 34.5713 56.1V118.39C34.5713 118.423 34.5982 118.45 34.6313 118.45H87.7613C87.7944 118.45 87.8213 118.423 87.8213 118.39V56.1C87.8213 56.0669 87.7944 56.04 87.7613 56.04Z" fill="#EBEBEB"/>
<path d="M83.6013 110.81C83.6713 111.01 81.0513 112.16 76.0413 111.58C72.9711 111.176 70.0517 110.007 67.5513 108.18C64.1332 105.656 61.7655 101.96 60.9013 97.7998C60.4031 95.2021 60.6035 92.5188 61.482 90.024C62.3604 87.5291 63.8855 85.3122 65.9013 83.5998C67.0401 82.6392 68.3357 81.8815 69.7313 81.3598C71.2602 80.7928 72.9036 80.6041 74.5213 80.8098C76.2999 80.978 77.9782 81.7103 79.3113 82.8998C80.0608 83.6028 80.6253 84.4798 80.955 85.4531C81.2847 86.4264 81.3693 87.466 81.2013 88.4798C80.8335 90.3044 79.9157 91.9725 78.5713 93.2598C77.3909 94.449 76.0434 95.4596 74.5713 96.2598C71.6317 97.8888 68.3579 98.8227 65.0013 98.9898C61.4512 99.1861 57.9172 98.3823 54.8013 96.6698C51.5838 94.8792 48.9728 92.1707 47.3013 88.8898C45.5681 85.5366 45.0894 81.6747 45.9513 77.9998C46.798 74.4396 48.8202 71.2689 51.6913 68.9998C53.1294 67.8916 54.7651 67.0669 56.5113 66.5698C58.2818 66.1038 60.135 66.0457 61.9313 66.3998C63.8526 66.7624 65.6001 67.7504 66.9013 69.2098C68.1573 70.6548 68.8653 72.4955 68.9013 74.4098C68.9118 76.1601 68.4673 77.8831 67.6113 79.4098C66.8371 80.7957 65.8211 82.0319 64.6113 83.0598C62.405 84.9109 59.832 86.2741 57.0613 87.0598C54.4886 87.8095 51.7883 88.0172 49.1313 87.6698C46.6561 87.331 44.2919 86.4277 42.2213 85.0298C40.4438 83.8558 38.9368 82.3166 37.8005 80.5147C36.6642 78.7129 35.9247 76.6897 35.6313 74.5798C35.2606 71.3779 36.1341 68.156 38.0713 65.5798C39.2153 63.9818 40.7799 62.7322 42.5913 61.9698C43.8313 61.4998 44.5413 61.5098 44.5913 61.6298C44.6413 61.7498 44.0313 62.0798 43.0213 62.7498C41.5857 63.7342 40.3868 65.0254 39.5113 66.5298C38.0878 68.8199 37.5441 71.549 37.9813 74.2098C38.3341 75.9103 39.0374 77.5186 40.0464 78.9321C41.0553 80.3457 42.3478 81.5335 43.8413 82.4198C45.6531 83.4801 47.6744 84.1323 49.7643 84.3309C51.8541 84.5295 53.9622 84.2698 55.9413 83.5698C58.1554 82.855 60.198 81.6906 61.9413 80.1498C62.8034 79.4732 63.5045 78.6136 63.9939 77.6331C64.4833 76.6525 64.7488 75.5755 64.7713 74.4798C64.7597 73.483 64.3827 72.5251 63.7117 71.7878C63.0408 71.0505 62.1226 70.585 61.1313 70.4798C59.9735 70.2788 58.7857 70.3334 57.6513 70.6398C56.4561 71.0058 55.3402 71.5926 54.3613 72.3698C52.2816 74.0445 50.8238 76.3685 50.2213 78.9698C49.6043 81.6415 49.9588 84.4457 51.2213 86.8798C52.4929 89.4045 54.4877 91.4933 56.9513 92.8798C59.3564 94.2122 62.0848 94.8493 64.8313 94.7198C67.5413 94.6061 70.1907 93.8814 72.5813 92.5998C73.7085 92.0218 74.7487 91.2879 75.6713 90.4198C76.4314 89.7364 76.9768 88.8471 77.2413 87.8598C77.3188 87.4911 77.3017 87.1089 77.1915 86.7487C77.0813 86.3884 76.8817 86.062 76.6113 85.7998C75.8897 85.1701 74.9931 84.7758 74.0413 84.6698C73.0347 84.5212 72.0073 84.6102 71.0413 84.9298C70.0271 85.2868 69.0779 85.807 68.2313 86.4698C66.6272 87.7449 65.3872 89.4198 64.6359 91.3262C63.8846 93.2326 63.6485 95.3032 63.9513 97.3298C64.5132 100.839 66.3115 104.031 69.0213 106.33C71.1345 108.094 73.6309 109.341 76.3113 109.97C80.9013 110.95 83.5713 110.43 83.6013 110.81Z" fill="#E0E0E0"/>
<path d="M106.782 360.73H33.7119V370.77H106.782V360.73Z" fill="#263238"/>
<path d="M106.902 370.9H33.5918V360.61H106.902V370.9ZM33.8318 370.65H106.652V360.86H33.8418L33.8318 370.65Z" fill="#263238"/>
<path d="M40.4912 367.43L51.0112 419.32H89.9312L100.091 370.77L40.4912 367.43Z" fill="#263238"/>
<path d="M40.4912 414.41L46.1012 422.13H93.4012L100.091 414.41H40.4912Z" fill="#437A9F"/>
<path d="M67.512 368.95C67.362 368.95 67.182 344.95 67.102 315.26C67.022 285.57 67.102 261.57 67.202 261.57C67.302 261.57 67.532 285.57 67.622 315.26C67.712 344.95 67.652 368.95 67.512 368.95Z" fill="#263238"/>
<path d="M83.7812 308.79C83.7424 308.984 83.6785 309.172 83.5912 309.35C83.4212 309.76 83.2012 310.27 82.9412 310.91C82.7912 311.25 82.6312 311.62 82.4612 312.03L81.9712 313.39C81.8012 313.88 81.6112 314.39 81.4112 314.96C81.2112 315.53 81.0612 316.12 80.8712 316.74C80.018 319.696 79.35 322.701 78.8712 325.74C78.3023 329.448 77.9251 333.183 77.7412 336.93C77.4757 343.745 77.6695 350.571 78.3212 357.36C78.5612 359.97 78.7912 362.08 78.9712 363.53C79.0412 364.22 79.1012 364.77 79.1512 365.21C79.1778 365.406 79.1778 365.604 79.1512 365.8C79.0834 365.616 79.0397 365.425 79.0212 365.23C78.9412 364.79 78.8512 364.23 78.7412 363.56C78.5012 362.11 78.2112 360.01 77.9212 357.4C77.1638 350.595 76.9198 343.742 77.1912 336.9C77.3758 333.134 77.7698 329.382 78.3712 325.66C78.8876 322.614 79.6127 319.607 80.5412 316.66C80.7412 316.04 80.9112 315.43 81.1212 314.88L81.7212 313.32C81.9112 312.84 82.0812 312.38 82.2512 311.96C82.4212 311.54 82.6112 311.19 82.7712 310.85L83.5112 309.33C83.5852 309.142 83.6756 308.962 83.7812 308.79Z" fill="#263238"/>
<path d="M81.9019 289.35C81.8388 289.618 81.7586 289.882 81.6619 290.14L80.9019 292.38C80.7319 292.87 80.5519 293.38 80.3419 293.99L79.7619 295.93C79.3319 297.32 78.8319 298.93 78.3919 300.68C78.1619 301.57 77.9119 302.49 77.6619 303.46L76.9719 306.46C76.4619 308.55 76.1019 310.82 75.6219 313.2C74.8219 317.97 74.1119 323.25 73.6219 328.82C73.1319 334.39 72.9619 339.71 72.8919 344.56C72.8219 349.41 72.8919 353.76 73.1319 357.42C73.2019 359.26 73.3219 360.91 73.4119 362.36C73.5019 363.81 73.5819 365.07 73.6819 366.09C73.7819 367.11 73.8119 367.86 73.8619 368.44C73.8861 368.716 73.8861 368.994 73.8619 369.27C73.8022 369 73.7588 368.726 73.7319 368.45C73.6586 367.87 73.5686 367.09 73.4619 366.11C73.3319 365.11 73.2119 363.84 73.1019 362.38C72.9919 360.92 72.8319 359.28 72.7519 357.44C72.5019 353.78 72.4019 349.44 72.3919 344.55C72.3819 339.66 72.6219 334.36 73.0819 328.77C73.5419 323.18 74.3019 317.9 75.0819 313.11C75.5719 310.73 75.9519 308.46 76.4819 306.36L77.2019 303.36C77.4719 302.36 77.7219 301.47 77.9719 300.58C78.4319 298.8 78.9719 297.23 79.4119 295.84C79.6319 295.15 79.8419 294.5 80.0419 293.91L80.6419 292.31C81.0019 291.39 81.2819 290.65 81.5019 290.1C81.6094 289.837 81.7434 289.586 81.9019 289.35Z" fill="#263238"/>
<path d="M62.9011 373.21C62.8964 373.117 62.8964 373.023 62.9011 372.93C62.9011 372.71 62.9011 372.44 62.8311 372.1C62.7811 371.34 62.7111 370.27 62.6211 368.92C62.4411 366.11 62.1911 362.12 61.8911 357.21C61.2511 347.33 60.3411 333.67 58.6711 318.65C57.8211 311.14 56.8411 304.01 55.8111 297.55C55.2711 294.32 54.8111 291.25 54.2111 288.39C53.6111 285.53 53.1411 282.87 52.6311 280.45C52.1211 278.03 51.6311 275.84 51.1911 273.93C50.7511 272.02 50.3611 270.36 50.0111 269.02C49.6611 267.68 49.4411 266.67 49.2511 265.92C49.1777 265.593 49.1177 265.323 49.0711 265.11C49.0662 265.017 49.0662 264.923 49.0711 264.83C49.1193 264.914 49.1531 265.005 49.1711 265.1C49.2311 265.31 49.3111 265.57 49.4111 265.89C49.6111 266.63 49.9011 267.66 50.2611 268.97C50.6211 270.28 51.0711 271.97 51.5211 273.86C51.9711 275.75 52.5211 277.94 53.0411 280.37C53.5611 282.8 54.1511 285.44 54.6911 288.31C55.2311 291.18 55.7811 294.24 56.3411 297.47C57.3411 303.94 58.3411 311.08 59.2411 318.59C60.9011 333.59 61.7611 347.3 62.3011 357.19C62.5711 362.14 62.7611 366.14 62.8711 368.91C62.8711 370.26 62.9611 371.33 62.9911 372.1C62.9911 372.44 62.9911 372.71 62.9911 372.93C62.9766 373.028 62.9462 373.122 62.9011 373.21Z" fill="#263238"/>
<path d="M66.9014 273.13C66.5814 269.72 63.1414 267.13 59.7214 267.13C56.3014 267.13 53.1114 269.13 51.0214 271.85C49.0545 274.66 47.6332 277.815 46.8314 281.15C44.5314 289.15 43.2714 297.6 44.2514 305.89C45.2314 314.18 48.6014 322.34 54.5514 328.19C55.5514 329.19 56.7714 330.1 58.1014 329.82C58.8142 329.601 59.4584 329.201 59.9714 328.66C65.7994 323.331 70.4206 316.818 73.5251 309.557C76.6295 302.296 78.1455 294.455 77.9714 286.56C77.8814 283.4 77.4614 280.12 75.7214 277.5C73.9814 274.88 69.9014 272.08 66.9314 273.14" fill="#437A9F"/>
<path d="M41.372 245.85C39.772 248.763 38.1653 251.67 36.552 254.57C36.442 254.78 36.292 255 36.062 255.02C35.832 255.04 35.622 254.81 35.482 254.59L22.752 235.05L25.682 233.38L41.372 245.85Z" fill="#437A9F"/>
<g opacity="0.2">
<path d="M41.372 245.85C39.772 248.763 38.1653 251.67 36.552 254.57C36.442 254.78 36.292 255 36.062 255.02C35.832 255.04 35.622 254.81 35.482 254.59L22.752 235.05L25.682 233.38L41.372 245.85Z" fill="black"/>
</g>
<path d="M67.202 261.57L23.762 235.93C23.2886 235.722 22.9105 235.343 22.702 234.87C22.6769 234.538 22.7351 234.205 22.8713 233.901C23.0075 233.597 23.2174 233.332 23.482 233.13C26.466 230.029 30.0846 227.608 34.0904 226.034C38.0963 224.46 42.3947 223.77 46.692 224.01C50.9895 224.314 55.148 225.662 58.8072 227.936C62.4664 230.21 65.5161 233.342 67.692 237.06C71.882 244.55 72.022 254.46 67.212 261.57" fill="#437A9F"/>
<path d="M30.0215 227.75C30.208 227.704 30.3994 227.681 30.5915 227.68C30.9715 227.68 31.5215 227.59 32.2315 227.6C34.2419 227.578 36.2502 227.738 38.2315 228.08C41.2203 228.58 44.1336 229.457 46.9015 230.69C51.6385 232.821 55.8458 235.972 59.2221 239.919C62.5985 243.866 65.0604 248.51 66.4315 253.52C66.9728 255.466 67.3343 257.458 67.5115 259.47C67.5543 259.892 67.5743 260.316 67.5715 260.74C67.5486 261.096 67.435 261.441 67.2415 261.74C67.3712 261.017 67.3948 260.28 67.3115 259.55C67.0566 257.564 66.6453 255.601 66.0815 253.68C64.2643 247.284 60.6875 241.527 55.7583 237.065C50.8292 232.603 44.746 229.614 38.2015 228.44C36.2218 228.067 34.2154 227.853 32.2015 227.8C30.8115 227.77 30.0215 227.8 30.0215 227.75Z" fill="#263238"/>
<path d="M61.3216 243.88C60.632 244.295 59.8973 244.631 59.1316 244.88C57.7416 245.43 55.8116 246.13 53.6516 246.81C51.4916 247.49 49.5016 248.05 48.0516 248.4C47.2817 248.641 46.4864 248.792 45.6816 248.85C46.4138 248.51 47.1774 248.242 47.9616 248.05L53.4916 246.32L59.0016 244.54C59.7497 244.239 60.5273 244.018 61.3216 243.88Z" fill="#263238"/>
<path d="M54.4814 225.5C55.0907 228.702 55.1752 231.981 54.7314 235.21C54.5176 233.603 54.434 231.981 54.4814 230.36C54.3552 228.742 54.3552 227.118 54.4814 225.5Z" fill="#263238"/>
<path d="M23.3818 235.45C24.4008 234.989 25.4582 234.618 26.5418 234.34C28.5418 233.73 31.2618 232.96 34.3218 232.22C37.3818 231.48 40.1918 230.92 42.2218 230.56C43.3132 230.313 44.4241 230.163 45.5418 230.11C44.4786 230.455 43.3926 230.726 42.2918 230.92C40.2918 231.37 37.5018 231.99 34.4518 232.73C31.4018 233.47 28.6318 234.18 26.6418 234.73C25.5736 235.047 24.4842 235.288 23.3818 235.45Z" fill="#263238"/>
<path d="M48.9015 265.74C45.1615 262.9 41.2115 262.35 36.5315 262.53C31.84 262.846 27.2484 264.033 22.9915 266.03C15.6615 269.23 8.77153 273.96 4.40153 280.66C0.0315304 287.36 -1.51847 296.21 1.75153 303.51C2.01527 304.27 2.54434 304.909 3.24153 305.31C4.05469 305.542 4.92375 305.474 5.69153 305.12C14.0215 302.4 22.4115 299.66 30.0715 295.4C37.7315 291.14 44.7115 285.21 48.8215 277.49C49.887 275.664 50.5676 273.639 50.8215 271.54C50.9342 270.493 50.8221 269.434 50.4927 268.434C50.1633 267.434 49.6242 266.516 48.9115 265.74" fill="#437A9F"/>
<path d="M48.9511 264.86C48.7619 264.965 48.5603 265.046 48.3511 265.1L46.6111 265.7L45.3411 266.12L43.8711 266.7C42.8111 267.13 41.5911 267.55 40.3011 268.18L38.3011 269.11C37.5911 269.43 36.8811 269.84 36.1311 270.22C34.6211 270.96 33.1311 271.91 31.4711 272.87C24.4798 277.19 18.2662 282.656 13.0911 289.04C11.9311 290.53 10.7911 291.93 9.86109 293.33C9.39109 294.02 8.86109 294.67 8.49109 295.33L7.26109 297.21C6.48109 298.41 5.90109 299.57 5.34109 300.56L4.58109 301.95C4.38109 302.39 4.18109 302.79 4.01109 303.15L3.19109 304.81C3.10799 305.01 3.0005 305.198 2.87109 305.37C2.92241 305.163 2.99617 304.962 3.09109 304.77L3.82109 303.07C3.99109 302.69 4.17109 302.29 4.36109 301.84C4.55109 301.39 4.83109 300.94 5.09109 300.43C5.62109 299.43 6.18109 298.24 6.95109 297.02L8.11109 295.09C8.52109 294.42 9.00109 293.76 9.47109 293.09C10.3911 291.67 11.4711 290.26 12.6711 288.75C17.8486 282.29 24.1123 276.781 31.1811 272.47C32.8211 271.47 34.3711 270.58 35.8911 269.85C36.6511 269.47 37.3711 269.07 38.0911 268.75L40.1511 267.85C41.4611 267.24 42.7011 266.85 43.7711 266.44C44.3011 266.24 44.7711 266.05 45.2611 265.9L46.5511 265.52L48.3211 265.01C48.5245 264.936 48.7359 264.885 48.9511 264.86Z" fill="#263238"/>
<path d="M19.7614 280.66C16.7872 281.802 13.7526 282.78 10.6714 283.59C7.64136 284.568 4.56009 285.379 1.44141 286.02C4.41562 284.878 7.45017 283.9 10.5314 283.09C13.5631 282.118 16.6441 281.307 19.7614 280.66Z" fill="#263238"/>
<path d="M19.3917 300.72C19.2345 299.785 19.1675 298.837 19.1917 297.89C19.1417 296.14 19.1317 293.72 19.1917 291.05C19.2517 288.38 19.4117 285.96 19.5517 284.21C19.5813 283.264 19.7018 282.323 19.9117 281.4C19.9876 282.335 19.9842 283.275 19.9017 284.21C19.8417 286.13 19.7717 288.46 19.6917 291.04C19.6117 293.62 19.5717 295.95 19.5217 297.87C19.5588 298.822 19.5153 299.775 19.3917 300.72Z" fill="#263238"/>
<path d="M36.5714 291.97C36.4314 291.97 35.9714 287.06 35.5714 280.97C35.1714 274.88 34.9314 269.97 35.0714 269.97C35.2114 269.97 35.6714 274.88 36.0714 280.97C36.4714 287.06 36.7114 291.96 36.5714 291.97Z" fill="#263238"/>
<path d="M15.1816 269.49C16.1505 269.375 17.1275 269.345 18.1016 269.4C19.8916 269.4 22.3716 269.46 25.1016 269.56C27.8316 269.66 30.3216 269.76 32.1016 269.86C33.0746 269.87 34.0448 269.964 35.0016 270.14C34.0367 270.263 33.0623 270.293 32.0916 270.23C30.3016 270.23 27.8116 270.17 25.0916 270.08C22.3716 269.99 19.8716 269.87 18.0916 269.77C17.1154 269.761 16.1417 269.667 15.1816 269.49Z" fill="#263238"/>
<path d="M56.4217 329.33C56.3892 329.138 56.3691 328.944 56.3617 328.75C56.3617 328.31 56.3617 327.75 56.2917 327.07C56.2217 325.62 56.2017 323.52 56.2917 320.92C56.3817 318.32 56.5117 315.23 56.8317 311.81C57.1517 308.39 57.6517 304.64 58.3617 300.73C59.0717 296.82 59.9417 293.14 60.8317 289.81C61.7217 286.48 62.6717 283.53 63.5417 281.08C64.4117 278.63 65.1617 276.65 65.7317 275.32C66.0017 274.69 66.2217 274.18 66.3917 273.77C66.4569 273.585 66.5478 273.41 66.6617 273.25C66.6252 273.442 66.5682 273.63 66.4917 273.81C66.3417 274.22 66.1517 274.74 65.9217 275.39C65.4117 276.75 64.7117 278.73 63.9217 281.19C63.1317 283.65 62.2117 286.62 61.3217 289.93C60.4317 293.24 59.6217 296.93 58.9017 300.82C58.1817 304.71 57.7017 308.45 57.3317 311.82C56.9617 315.19 56.7817 318.3 56.6917 320.89C56.6017 323.48 56.5417 325.58 56.5517 327.03C56.5517 327.71 56.5517 328.27 56.5517 328.7C56.5413 328.915 56.4974 329.128 56.4217 329.33Z" fill="#263238"/>
<path d="M58.7218 300.88C58.2078 301.574 57.6248 302.214 56.9818 302.79C55.8618 303.91 54.2618 305.41 52.4418 307.01C50.6218 308.61 48.9218 310.01 47.6618 310.96C47.011 311.521 46.3039 312.014 45.5518 312.43C46.1166 311.78 46.7465 311.191 47.4318 310.67L52.1018 306.67L56.7318 302.57C57.3389 301.944 58.0054 301.378 58.7218 300.88Z" fill="#263238"/>
<path d="M72.4714 311.96C71.7841 311.16 71.1653 310.304 70.6214 309.4L66.3314 303.14L61.9514 296.93C61.2993 296.106 60.711 295.234 60.1914 294.32C60.9343 295.05 61.6041 295.85 62.1914 296.71C63.3914 298.24 65.0114 300.4 66.7114 302.84C68.4114 305.28 69.9014 307.54 70.9014 309.21C71.5062 310.078 72.0317 310.998 72.4714 311.96Z" fill="#263238"/>
<path d="M65.2611 277.12C65.3411 277.25 60.7711 280.32 55.0611 283.99C49.3511 287.66 44.6611 290.54 44.5811 290.42C44.5011 290.3 49.0711 287.23 54.7811 283.55C60.4911 279.87 65.1911 277 65.2611 277.12Z" fill="#263238"/>
<path d="M78.1414 291.03C75.7248 289.026 73.4181 286.893 71.2314 284.64C68.9272 282.51 66.7437 280.253 64.6914 277.88C67.108 279.884 69.4147 282.017 71.6014 284.27C73.9057 286.4 76.0891 288.656 78.1414 291.03Z" fill="#263238"/>
<path d="M81.3813 290.75L85.3013 290.42C88.085 290.195 90.7869 289.369 93.2213 288C94.4098 287.301 95.6424 286.68 96.9113 286.14C101.761 284.2 107.171 284.55 112.391 284.28C120.933 283.849 129.301 281.71 137.001 277.99C137.458 277.78 137.837 277.43 138.081 276.99C138.881 275.52 137.391 274.21 136.081 273.42C129.471 269.35 122.751 265.23 115.261 263.21C107.771 261.19 99.2613 261.53 92.8713 265.93C85.3613 271.09 82.6313 281.7 81.3613 290.72" fill="#437A9F"/>
<path d="M138.172 276.53C137.939 276.453 137.714 276.353 137.502 276.23L135.642 275.23C134.032 274.38 131.712 273.13 128.782 271.73C125.365 270.055 121.808 268.683 118.152 267.63C113.68 266.352 109 265.975 104.382 266.52C99.7539 267.035 95.3828 268.911 91.8217 271.91C89.0441 274.495 86.8222 277.619 85.2917 281.09C83.9117 284.03 83.0617 286.53 82.4417 288.24L81.7417 290.24C81.6736 290.475 81.5832 290.703 81.4717 290.92C81.5021 290.678 81.5591 290.44 81.6417 290.21C81.8017 289.7 82.0017 289.03 82.2517 288.21C83.0087 285.746 83.9103 283.329 84.9517 280.97C86.4626 277.419 88.6967 274.221 91.5117 271.58C95.1265 268.491 99.5856 266.557 104.312 266.03C109.01 265.473 113.771 265.871 118.312 267.2C121.964 268.277 125.509 269.69 128.902 271.42C131.822 272.87 134.122 274.17 135.702 275.07L137.512 276.13C137.739 276.251 137.959 276.385 138.172 276.53Z" fill="#263238"/>
<path d="M128.752 281.59C128.672 281.71 123.542 278.4 117.292 274.19C111.042 269.98 106.052 266.46 106.132 266.34C106.212 266.22 111.342 269.54 117.592 273.75C123.842 277.96 128.832 281.47 128.752 281.59Z" fill="#263238"/>
<path d="M123.281 266.07C122.076 266.484 120.815 266.71 119.541 266.74C118.282 266.928 117.001 266.928 115.741 266.74C116.982 266.506 118.239 266.376 119.501 266.35C120.752 266.161 122.016 266.067 123.281 266.07Z" fill="#263238"/>
<path d="M100.832 263.15C100.411 264.108 99.8439 264.995 99.1517 265.78C98.5558 266.683 97.8354 267.498 97.0117 268.2C97.4316 267.239 98.0021 266.351 98.7017 265.57C99.289 264.663 100.007 263.848 100.832 263.15Z" fill="#263238"/>
<path d="M105.421 284.62C104.558 284.252 103.731 283.803 102.951 283.28C101.471 282.38 99.4713 281.06 97.3313 279.51C95.1913 277.96 93.3313 276.51 91.9513 275.41C91.1882 274.865 90.4753 274.252 89.8213 273.58C90.6502 274.02 91.4368 274.536 92.1713 275.12L97.6413 279.12C99.7713 280.66 101.731 282.02 103.151 283C103.956 283.47 104.716 284.012 105.421 284.62Z" fill="#263238"/>
<path d="M87.162 307.41C83.422 306.41 78.962 310.06 78.162 313.85C77.362 317.64 78.812 321.52 80.472 325.01C84.0462 332.828 89.3456 339.734 95.972 345.21C102.672 350.55 111.052 353.96 119.622 353.92C118.042 346.58 120.042 338.92 119.152 331.44C118.374 324.868 115.39 318.753 110.687 314.096C105.985 309.439 99.8417 306.515 93.262 305.8C90.872 305.55 88.112 305.17 87.162 307.38" fill="#437A9F"/>
<path d="M119.622 353.95C119.432 353.89 119.25 353.806 119.082 353.7C118.591 353.429 118.126 353.114 117.692 352.76C116.12 351.396 114.859 349.712 113.992 347.82C113.402 346.67 112.732 345.41 112.082 344.02C111.432 342.63 110.772 341.13 110.082 339.57C109.356 337.936 108.528 336.349 107.602 334.82C106.593 333.189 105.456 331.641 104.202 330.19C101.642 327.19 98.8919 324.58 96.5119 322.09C94.3591 319.931 92.3984 317.589 90.6519 315.09C89.4821 313.383 88.5187 311.544 87.7819 309.61C87.5419 308.93 87.3719 308.39 87.2819 308.01C87.2207 307.825 87.1838 307.634 87.1719 307.44C87.1719 307.44 87.4319 308.2 87.9719 309.54C88.7785 311.422 89.7842 313.212 90.9719 314.88C92.7506 317.34 94.7272 319.651 96.8819 321.79C99.2719 324.25 102.032 326.84 104.622 329.88C105.889 331.355 107.039 332.926 108.062 334.58C108.991 336.13 109.816 337.74 110.532 339.4C111.232 340.97 111.882 342.46 112.532 343.87C113.182 345.28 113.812 346.52 114.382 347.69C115.203 349.559 116.394 351.242 117.882 352.64C118.902 353.55 119.652 353.9 119.622 353.95Z" fill="#263238"/>
<path d="M100.281 347.85C100.298 347 100.412 346.154 100.621 345.33C100.911 343.79 101.391 341.67 102.041 339.33C102.691 336.99 103.381 334.97 103.941 333.51C104.187 332.699 104.523 331.917 104.941 331.18C104.794 332.016 104.57 332.836 104.271 333.63C103.801 335.12 103.171 337.18 102.521 339.47C101.871 341.76 101.341 343.85 100.961 345.37C100.805 346.215 100.577 347.044 100.281 347.85Z" fill="#263238"/>
<path d="M118.901 329.82C118.005 329.697 117.121 329.493 116.261 329.21C114.651 328.79 112.431 328.21 109.951 327.66C107.471 327.11 105.221 326.66 103.581 326.36C102.687 326.241 101.804 326.047 100.941 325.78C101.846 325.754 102.751 325.825 103.641 325.99C105.291 326.21 107.581 326.59 110.071 327.15C112.561 327.71 114.781 328.35 116.371 328.86C117.248 329.084 118.097 329.406 118.901 329.82Z" fill="#263238"/>
<path d="M86.4014 335.06C86.4363 334.076 86.5703 333.098 86.8014 332.14C87.1314 330.36 87.6514 327.9 88.3514 325.22C89.0514 322.54 89.8014 320.14 90.3514 318.42C90.6273 317.477 90.9853 316.56 91.4214 315.68C91.2641 316.649 91.0232 317.603 90.7014 318.53C90.2114 320.28 89.5314 322.68 88.8314 325.35C88.1314 328.02 87.5514 330.46 87.1314 332.22C86.9613 333.184 86.7173 334.134 86.4014 335.06Z" fill="#263238"/>
<path d="M110.331 314.11C110.331 314.25 105.641 313.87 99.9012 313.27C96.4233 312.992 92.962 312.535 89.5312 311.9C89.5312 311.76 94.2112 312.14 99.9612 312.75C105.711 313.36 110.341 313.97 110.331 314.11Z" fill="#263238"/>
<path d="M106.901 370.73C106.901 370.88 90.481 370.99 70.2411 370.99C50.0011 370.99 33.5811 370.88 33.5811 370.73C33.5811 370.58 49.9911 370.47 70.2411 370.47C90.4911 370.47 106.901 370.59 106.901 370.73Z" fill="#437A9F"/>
<path d="M95.4918 391.85C95.4918 392 84.4318 392.11 70.7918 392.11C57.1518 392.11 46.0918 392 46.0918 391.85C46.0918 391.7 57.1518 391.59 70.7918 391.59C84.4318 391.59 95.4918 391.71 95.4918 391.85Z" fill="#437A9F"/>
<path d="M95.0615 394.87C95.0615 395.02 84.1915 395.13 70.7915 395.13C57.3915 395.13 46.5215 395.02 46.5215 394.87C46.5215 394.72 57.3915 394.61 70.7915 394.61C84.1915 394.61 95.0615 394.73 95.0615 394.87Z" fill="#437A9F"/>
<path d="M95.9015 389.36C95.9015 389.51 84.4615 389.62 70.3515 389.62C56.2415 389.62 44.8115 389.51 44.8115 389.36C44.8115 389.21 56.2415 389.1 70.3515 389.1C84.4615 389.1 95.9015 389.21 95.9015 389.36Z" fill="#437A9F"/>
<path d="M394.452 422.6C394.452 422.74 308.682 422.86 202.912 422.86C97.1416 422.86 11.3516 422.74 11.3516 422.6C11.3516 422.46 97.1016 422.34 202.912 422.34C308.722 422.34 394.452 422.45 394.452 422.6Z" fill="#263238"/>
<path d="M185.321 409.08L191.311 388.51L166.581 386.5L164.531 410.5L171.921 415.17L185.321 409.08Z" fill="#BE8671"/>
<path d="M257.671 386.39L254.801 421.67L238.611 419.32L237.521 384.67L257.671 386.39Z" fill="#BE8671"/>
<path d="M238.551 412.35C238.551 412.35 249.421 421.12 255.481 414.68L256.681 418.11L261.441 442.26C261.602 443.024 261.475 443.821 261.084 444.497C260.692 445.173 260.064 445.68 259.321 445.92C258.747 446.098 258.135 446.112 257.553 445.96C256.972 445.808 256.445 445.496 256.031 445.06C251.651 440.34 235.591 422.91 235.921 420.74L236.421 414.93C236.48 414.337 236.714 413.775 237.093 413.316C237.472 412.856 237.98 412.52 238.551 412.35Z" fill="#193141"/>
<g opacity="0.6">
<path d="M258.751 446.04L236.061 418.71L235.981 419.98C235.751 421.35 236.331 421.98 236.931 422.87C238.731 425.63 243.801 431.87 255.931 445.05C256.284 445.432 256.724 445.722 257.213 445.896C257.702 446.07 258.227 446.123 258.741 446.05L258.751 446.04Z" fill="white"/>
</g>
<g opacity="0.6">
<path d="M239.951 415.21C240.307 415.502 240.54 415.917 240.604 416.372C240.669 416.827 240.561 417.29 240.301 417.67C240.005 418.032 239.584 418.269 239.121 418.336C238.659 418.403 238.188 418.293 237.801 418.03C237.591 417.892 237.412 417.711 237.276 417.498C237.141 417.286 237.052 417.047 237.016 416.798C236.979 416.549 236.996 416.295 237.066 416.052C237.135 415.81 237.255 415.585 237.417 415.393C237.58 415.2 237.781 415.045 238.008 414.936C238.236 414.827 238.483 414.768 238.735 414.762C238.987 414.756 239.237 414.803 239.469 414.901C239.701 414.999 239.91 415.145 240.081 415.33" fill="white"/>
</g>
<path d="M252.631 432.46C252.801 432.55 253.631 431.03 255.491 430.31C257.351 429.59 259.031 430.09 259.081 429.9C259.131 429.71 258.741 429.57 258.031 429.42C257.093 429.245 256.125 429.342 255.241 429.7C254.357 430.038 253.592 430.63 253.041 431.4C252.641 431.99 252.561 432.43 252.631 432.46Z" fill="#263238"/>
<path d="M254.542 436.62C254.682 436.76 255.742 435.86 257.362 435.52C258.982 435.18 260.362 435.52 260.362 435.36C260.362 435.2 259.022 434.47 257.182 434.88C255.342 435.29 254.392 436.53 254.542 436.62Z" fill="#263238"/>
<path d="M248.901 427.02C249.041 427.18 250.651 425.78 253.131 425.02C255.611 424.26 257.751 424.5 257.771 424.3C257.791 424.1 255.571 423.57 252.931 424.39C250.291 425.21 248.771 426.93 248.901 427.02Z" fill="#263238"/>
<path d="M248.901 419.78C248.971 419.97 250.721 419.39 252.901 419.47C255.081 419.55 256.831 420.19 256.901 420.01C256.971 419.83 255.291 418.87 252.901 418.81C250.511 418.75 248.821 419.63 248.901 419.78Z" fill="#263238"/>
<path d="M254.201 419.5C254.258 419.118 254.227 418.728 254.111 418.36C253.886 417.333 253.457 416.36 252.851 415.5C252.452 414.829 251.844 414.306 251.121 414.01C250.874 413.931 250.609 413.929 250.361 414.004C250.113 414.079 249.893 414.228 249.731 414.43C249.452 414.84 249.334 415.339 249.401 415.83C249.604 416.839 250.148 417.747 250.943 418.401C251.737 419.055 252.732 419.415 253.761 419.42C254.777 419.418 255.77 419.116 256.615 418.552C257.46 417.988 258.12 417.187 258.511 416.25C258.605 416.017 258.646 415.767 258.632 415.516C258.618 415.266 258.55 415.021 258.431 414.8C258.283 414.585 258.072 414.421 257.826 414.332C257.581 414.242 257.313 414.231 257.061 414.3C256.329 414.538 255.674 414.966 255.161 415.54C254.408 416.271 253.791 417.132 253.341 418.08C253.152 418.413 253.03 418.78 252.981 419.16C253.654 417.948 254.5 416.84 255.491 415.87C255.964 415.407 256.54 415.065 257.171 414.87C257.309 414.83 257.455 414.835 257.59 414.884C257.725 414.932 257.841 415.022 257.921 415.14C257.995 415.297 258.033 415.467 258.033 415.64C258.033 415.813 257.995 415.984 257.921 416.14C257.559 416.939 256.976 417.618 256.241 418.096C255.505 418.574 254.649 418.833 253.771 418.84C252.901 418.832 252.058 418.532 251.378 417.988C250.698 417.444 250.221 416.688 250.021 415.84C249.962 415.495 250.029 415.14 250.211 414.84C250.296 414.725 250.415 414.639 250.551 414.594C250.688 414.549 250.834 414.548 250.971 414.59C251.585 414.844 252.105 415.28 252.461 415.84C253.259 416.945 253.848 418.185 254.201 419.5Z" fill="#263238"/>
<path d="M262.252 181.38C262.252 182.14 273.872 207.8 273.872 207.8C273.872 207.8 285.242 234.56 281.102 250.35C278.822 259.06 266.242 313.35 266.242 313.35C266.242 313.35 262.242 354.87 260.062 372.79C258.252 387.79 257.782 392.84 257.782 392.84L237.072 392.01L232.752 319.43L231.312 256.51L205.312 335.71C205.312 335.71 199.762 360.18 196.732 370.52C193.702 380.86 191.292 388.52 191.292 388.52L166.562 386.52C166.562 386.52 167.982 361.22 170.002 351.89C172.022 342.56 175.802 306.73 175.802 306.73L187.192 223.73L194.682 202.15L203.342 180.06L262.252 181.38Z" fill="#263238"/>
<path d="M164.141 407.8V409.15C164.141 409.15 141.061 418.09 140.771 422.45L186.361 422.76L185.851 407.59C179.031 410.68 171.901 410.98 164.141 407.8Z" fill="#193141"/>
<g opacity="0.6">
<path d="M181.182 412.41C181.62 412.545 181.992 412.837 182.226 413.23C182.461 413.624 182.541 414.09 182.452 414.54C182.329 414.982 182.043 415.36 181.651 415.598C181.258 415.836 180.79 415.915 180.342 415.82C179.883 415.666 179.495 415.352 179.251 414.934C179.006 414.517 178.921 414.025 179.012 413.55C179.185 413.103 179.524 412.74 179.958 412.537C180.392 412.334 180.888 412.306 181.342 412.46" fill="white"/>
</g>
<g opacity="0.6">
<path d="M186.341 422.76L186.221 419.11L142.561 420.11C142.561 420.11 140.561 420.98 140.751 422.41L186.341 422.76Z" fill="white"/>
</g>
<path d="M163.952 409.28C163.952 409.5 165.072 409.61 166.162 410.33C167.252 411.05 167.832 411.99 168.042 411.91C168.252 411.83 167.922 410.53 166.582 409.68C165.242 408.83 163.902 409.07 163.952 409.28Z" fill="#263238"/>
<path d="M159.161 411.21C159.161 411.43 160.071 411.81 160.821 412.76C161.571 413.71 161.821 414.7 162.001 414.69C162.181 414.68 162.371 413.43 161.421 412.27C160.471 411.11 159.171 411.01 159.161 411.21Z" fill="#263238"/>
<path d="M156.402 416.93C156.612 416.93 156.922 415.86 156.402 414.64C155.882 413.42 154.802 412.93 154.702 413.11C154.602 413.29 155.252 413.95 155.702 414.96C156.152 415.97 156.182 416.9 156.402 416.93Z" fill="#263238"/>
<path d="M256.262 240.67C256.273 240.8 256.273 240.93 256.262 241.06C256.262 241.35 256.182 241.73 256.132 242.21C256.002 243.21 255.822 244.72 255.592 246.61C255.112 250.43 254.442 255.97 253.662 262.81C252.102 276.49 250.232 295.42 249.052 316.4C248.482 326.89 248.132 336.89 247.942 345.99C247.752 355.09 247.742 363.29 247.802 370.18C247.862 377.07 247.952 382.63 248.052 386.48C248.052 388.38 248.122 389.87 248.142 390.91V392.07C248.151 392.2 248.151 392.33 248.142 392.46C248.131 392.33 248.131 392.2 248.142 392.07C248.142 391.79 248.142 391.4 248.082 390.92C248.082 389.92 247.982 388.39 247.902 386.49C247.732 382.64 247.592 377.07 247.482 370.18C247.372 363.29 247.352 355.09 247.482 345.98C247.612 336.87 247.972 326.87 248.552 316.37C249.732 295.37 251.662 276.44 253.312 262.76C254.142 255.93 254.862 250.4 255.412 246.59C255.682 244.7 255.902 243.23 256.052 242.2C256.122 241.72 256.182 241.34 256.222 241.06C256.227 240.929 256.24 240.799 256.262 240.67Z" fill="#455A64"/>
<path d="M242.761 236.34C242.774 236.473 242.774 236.607 242.761 236.74C242.761 237.04 242.761 237.43 242.761 237.93C242.711 239 242.651 240.54 242.571 242.5C242.401 246.5 242.161 252.22 241.861 259.28C241.301 273.46 240.681 293.04 240.411 314.69C240.141 336.34 240.311 355.93 240.561 370.12C240.721 377.19 240.841 382.92 240.931 386.91C240.931 388.91 241.001 390.41 241.031 391.48C241.031 391.98 241.031 392.38 241.031 392.67C241.042 392.803 241.042 392.937 241.031 393.07C241.013 392.937 241.013 392.803 241.031 392.67C241.031 392.38 241.031 391.98 240.961 391.48C240.961 390.41 240.851 388.88 240.761 386.92C240.591 382.92 240.411 377.22 240.231 370.13C239.881 355.94 239.661 336.34 239.931 314.68C240.201 293.02 240.931 273.44 241.541 259.27C241.861 252.18 242.161 246.45 242.401 242.49C242.531 240.49 242.621 239 242.691 237.93C242.691 237.42 242.761 237.03 242.781 236.74C242.759 236.608 242.752 236.474 242.761 236.34Z" fill="#455A64"/>
<path d="M272.741 240.68C272.735 240.815 272.715 240.949 272.681 241.08L272.471 242.22C272.261 243.22 271.971 244.72 271.601 246.61C270.821 250.41 269.741 255.93 268.461 262.75C267.181 269.57 265.751 277.75 264.311 286.75C262.871 295.75 261.441 305.8 260.151 316.32C258.861 326.84 257.871 336.88 257.071 346.03C256.271 355.18 255.731 363.43 255.321 370.36C254.911 377.29 254.641 382.9 254.481 386.78C254.391 388.7 254.321 390.2 254.271 391.25C254.271 391.74 254.221 392.13 254.211 392.41C254.209 392.545 254.192 392.679 254.161 392.81C254.161 392.81 254.161 392.67 254.161 392.41C254.161 392.15 254.161 391.74 254.161 391.25C254.161 390.2 254.221 388.7 254.271 386.78C254.371 382.89 254.591 377.28 254.941 370.34C255.291 363.4 255.831 355.14 256.581 345.99C257.331 336.84 258.341 326.78 259.581 316.25C260.821 305.72 262.331 295.74 263.781 286.67C265.231 277.6 266.731 269.46 268.051 262.67C269.371 255.88 270.511 250.35 271.351 246.55C271.761 244.68 272.091 243.21 272.351 242.19C272.461 241.71 272.541 241.33 272.611 241.05C272.641 240.923 272.685 240.799 272.741 240.68Z" fill="#455A64"/>
<path d="M231.641 238.82C231.618 238.953 231.581 239.084 231.531 239.21C231.441 239.49 231.331 239.87 231.181 240.35C230.841 241.35 230.371 242.83 229.761 244.69L224.461 260.64C219.991 274.13 213.821 292.72 207.021 313.26C200.221 333.8 194.241 352.47 189.841 365.98C187.661 372.71 185.891 378.17 184.651 381.98C184.041 383.84 183.561 385.3 183.221 386.32C183.061 386.79 182.931 387.16 182.841 387.44C182.802 387.57 182.752 387.698 182.691 387.82C182.709 387.686 182.742 387.555 182.791 387.43L183.121 386.29C183.441 385.29 183.891 383.79 184.461 381.92C185.661 378.1 187.371 372.63 189.461 365.92C193.741 352.39 199.731 333.73 206.461 313.15C213.191 292.57 219.461 274 224.051 260.57C226.351 253.88 228.211 248.46 229.501 244.68L231.021 240.36L231.421 239.25C231.483 239.101 231.557 238.957 231.641 238.82Z" fill="#455A64"/>
<path d="M211.681 240.59C211.668 240.721 211.648 240.851 211.621 240.98L211.381 242.09C211.161 243.09 210.841 244.54 210.441 246.38L206.901 262.12C203.901 275.44 199.841 293.8 195.311 314.12C190.781 334.44 186.661 352.79 183.581 366.06L179.881 381.76C179.431 383.59 179.081 385.02 178.881 386.03L178.591 387.13C178.568 387.26 178.531 387.387 178.481 387.51C178.487 387.378 178.507 387.247 178.541 387.12L178.781 386C179.001 385 179.311 383.56 179.721 381.72C180.561 377.97 181.771 372.6 183.261 365.98C186.261 352.65 190.321 334.29 194.851 313.98C199.381 293.67 203.501 275.32 206.581 262.05C208.141 255.44 209.401 250.05 210.281 246.34C210.731 244.51 211.081 243.08 211.281 242.08L211.561 240.97C211.59 240.84 211.631 240.713 211.681 240.59Z" fill="#455A64"/>
<path d="M194.541 240.15C194.552 240.28 194.552 240.41 194.541 240.54C194.541 240.81 194.481 241.18 194.431 241.66C194.321 242.66 194.161 244.11 193.961 245.96C193.511 249.72 192.881 255.11 192.101 261.77C190.501 275.11 188.231 293.54 185.311 313.84C182.391 334.14 179.241 352.45 176.751 365.65C175.491 372.26 174.451 377.59 173.681 381.27C173.291 383.09 173.001 384.51 172.791 385.51C172.681 385.97 172.601 386.33 172.541 386.61C172.517 386.735 172.483 386.859 172.441 386.98C172.43 386.853 172.43 386.726 172.441 386.6C172.491 386.32 172.551 385.95 172.631 385.49C172.821 384.49 173.091 383.06 173.431 381.23L176.331 365.59C178.741 352.37 181.821 334.06 184.751 313.76C187.681 293.46 189.991 275.05 191.691 261.76C192.541 255.12 193.221 249.76 193.691 245.97C193.941 244.13 194.131 242.69 194.271 241.68C194.331 241.21 194.391 240.85 194.431 240.57C194.455 240.427 194.492 240.286 194.541 240.15Z" fill="#455A64"/>
<path d="M260.352 101.21C260.352 101.6 254.082 96.3899 254.082 96.3899V94.5799C254.082 90.0599 254.082 88.1999 254.082 88.2399C254.082 88.2799 263.622 86.5899 265.512 74.1199C266.452 67.9199 266.072 57.7699 265.512 49.4699C264.992 41.9999 259.982 32.8599 252.512 33.6999L229.302 39.6999C228.205 39.8229 227.195 40.3562 226.476 41.1927C225.756 42.0293 225.379 43.1072 225.422 44.2099L227.802 94.3399L222.392 97.0299L228.982 109.7L246.262 112.7L261.022 113.89L260.162 106.08L260.352 101.17V101.21Z" fill="#BE8671"/>
<path d="M261.771 57.1398C261.777 57.5557 261.62 57.9575 261.335 58.2599C261.049 58.5623 260.657 58.7416 260.241 58.7598C260.038 58.7761 259.835 58.7519 259.642 58.6886C259.448 58.6253 259.27 58.5241 259.116 58.3909C258.963 58.2578 258.837 58.0954 258.747 57.9132C258.657 57.731 258.604 57.5327 258.591 57.3298C258.583 56.9131 258.739 56.5099 259.025 56.2069C259.311 55.904 259.705 55.7254 260.121 55.7098C260.324 55.6906 260.529 55.7129 260.724 55.7751C260.918 55.8374 261.098 55.9384 261.252 56.072C261.406 56.2057 261.532 56.3692 261.621 56.5527C261.71 56.7363 261.761 56.936 261.771 57.1398Z" fill="#263238"/>
<path d="M263.331 54.7599C263.131 54.9699 261.911 54.0799 260.191 54.0899C258.471 54.0999 257.191 54.9799 257.031 54.7699C256.871 54.5599 257.141 54.2999 257.691 53.8999C258.428 53.3713 259.314 53.0911 260.221 53.0999C261.113 53.089 261.985 53.3622 262.711 53.8799C263.241 54.2899 263.421 54.6599 263.331 54.7599Z" fill="#263238"/>
<path d="M246.342 58.0401C246.142 58.2501 244.922 57.3601 243.212 57.3801C241.502 57.4001 240.212 58.2601 240.052 58.0501C239.892 57.8401 240.152 57.5801 240.702 57.1801C241.442 56.6588 242.326 56.3794 243.232 56.3801C244.124 56.372 244.997 56.6487 245.722 57.1701C246.252 57.5701 246.442 57.9401 246.342 58.0401Z" fill="#263238"/>
<path d="M252.761 67.9001C253.662 67.6069 254.596 67.4288 255.541 67.3701C255.981 67.3701 256.401 67.2401 256.471 66.9401C256.503 66.4866 256.398 66.034 256.171 65.6401L254.901 62.3C253.061 57.5601 251.731 53.6501 251.901 53.5801C252.071 53.5101 253.741 57.3001 255.571 62.0401C256.011 63.2101 256.441 64.3301 256.841 65.4001C257.122 65.9271 257.207 66.5364 257.081 67.1201C257.018 67.2754 256.92 67.4145 256.795 67.527C256.671 67.6396 256.522 67.7226 256.361 67.7701C256.12 67.8332 255.871 67.8668 255.621 67.8701C254.673 68.0045 253.712 68.0146 252.761 67.9001Z" fill="#263238"/>
<path d="M254.081 88.2099C248.218 88.3406 242.433 86.8417 237.371 83.8799C237.371 83.8799 241.621 92.5299 254.081 91.2799V88.2099Z" fill="#A24C2C"/>
<path d="M247.711 69.1198C247.981 69.1198 248.001 70.9698 249.611 72.2798C251.221 73.5898 253.201 73.3798 253.211 73.6398C253.211 73.7498 252.771 73.9998 251.931 74.0298C250.845 74.058 249.783 73.7041 248.931 73.0298C248.115 72.3669 247.588 71.4133 247.461 70.3698C247.371 69.5698 247.581 69.1098 247.711 69.1198Z" fill="#263238"/>
<path d="M247.182 53.2099C247.022 53.6799 245.302 53.4699 243.282 53.7299C241.262 53.9899 239.642 54.5399 239.372 54.1299C239.252 53.9299 239.532 53.4899 240.192 53.0299C241.062 52.4718 242.053 52.129 243.082 52.0299C244.114 51.9011 245.163 52.0176 246.142 52.3699C246.902 52.6099 247.252 52.9799 247.182 53.2099Z" fill="#263238"/>
<path d="M262.661 49.7801C262.361 50.1801 261.171 49.7801 259.751 49.7801C258.331 49.7801 257.121 50.0601 256.841 49.6501C256.721 49.4601 256.911 49.0601 257.431 48.6501C258.131 48.1922 258.956 47.9649 259.791 48.0001C260.628 48.0068 261.442 48.2723 262.121 48.7601C262.621 49.2101 262.791 49.5901 262.661 49.7801Z" fill="#263238"/>
<path d="M225.361 56.97C225.193 57.3803 225.161 57.8335 225.269 58.2634C225.377 58.6933 225.619 59.0775 225.961 59.36C226.129 59.4581 226.314 59.5212 226.507 59.5456C226.7 59.57 226.896 59.5551 227.083 59.5018C227.269 59.4486 227.444 59.358 227.594 59.2357C227.745 59.1134 227.87 58.9618 227.961 58.79C228.501 59.52 229.751 58.79 229.581 57.79C230.251 58.17 231.141 57.27 230.921 56.42C231.701 56.72 232.171 55.42 232.581 54.62C232.827 54.1756 233.098 53.745 233.391 53.33C234.26 51.9182 234.707 50.2876 234.681 48.63C235.681 47.48 235.961 45.69 236.171 44.03L236.561 40.93L237.141 40.21C237.137 40.5613 237.242 40.9054 237.44 41.1952C237.639 41.4851 237.922 41.7067 238.251 41.83C238.867 41.9951 239.515 41.9951 240.131 41.83L241.991 41.48L243.141 41.82C242.922 42.8293 243.038 43.8825 243.471 44.82C243.618 45.4914 243.997 46.0896 244.541 46.51C244.684 46.5753 244.842 46.6006 244.999 46.583C245.155 46.5655 245.304 46.5058 245.429 46.4104C245.555 46.3149 245.652 46.1872 245.71 46.041C245.768 45.8948 245.786 45.7354 245.761 45.58C245.871 45.6752 246.001 45.7452 246.141 45.7851C246.281 45.825 246.428 45.8338 246.572 45.8109C246.715 45.7881 246.853 45.7341 246.973 45.6527C247.094 45.5714 247.196 45.4647 247.271 45.34C247.607 44.7627 247.754 44.0949 247.691 43.43C247.658 41.8174 247.146 40.251 246.221 38.93L249.431 41.93C249.634 42.175 249.911 42.3471 250.221 42.42C250.207 42.5433 250.221 42.668 250.261 42.7854C250.301 42.9028 250.366 43.01 250.452 43.0996C250.538 43.1892 250.642 43.2589 250.758 43.3039C250.873 43.3489 250.997 43.368 251.121 43.36C251.6 43.2372 252.023 42.9551 252.321 42.56C253.101 41.74 253.941 40.34 253.251 39.41C253.341 39.3692 253.421 39.3097 253.487 39.2355C253.552 39.1613 253.601 39.0741 253.631 38.9796C253.66 38.8852 253.669 38.7855 253.657 38.6873C253.645 38.5891 253.612 38.4946 253.561 38.41L257.201 41.21C256.841 41 256.431 41.56 256.511 42.03C256.625 42.4729 256.895 42.86 257.271 43.12C256.948 43.6364 256.797 44.2423 256.841 44.85C256.191 44.26 255.191 45.35 255.401 46.29C255.518 46.7162 255.769 47.0937 256.116 47.3673C256.463 47.6408 256.889 47.7959 257.331 47.81C257.686 47.8713 258.052 47.7962 258.354 47.5996C258.656 47.4031 258.873 47.0996 258.961 46.75C259.761 46.93 260.541 45.83 260.261 44.92C260.841 45.31 261.351 44.27 261.391 43.48C261.453 42.0369 261.243 40.595 260.771 39.23C260.771 39.43 260.971 39.61 261.111 39.5C261.144 39.4664 261.169 39.426 261.185 39.3817C261.2 39.3373 261.206 39.29 261.201 39.2432C261.196 39.1965 261.181 39.1513 261.157 39.111C261.133 39.0707 261.1 39.0362 261.061 39.01L263.061 44.01C263.688 45.3256 264.064 46.7465 264.171 48.2C264.171 48.8 264.251 49.62 264.751 49.68C264.891 49.6813 265.028 49.6468 265.151 49.58C266.66 48.7248 267.829 47.3758 268.461 45.76C268.722 45.2002 268.894 44.603 268.971 43.99C269.091 42.71 268.561 41.46 268.471 40.17C268.474 39.6014 268.437 39.0334 268.361 38.47C268.121 37.6271 267.67 36.8595 267.051 36.24C265.051 33.96 263.051 31.59 260.381 30.66C258.771 30.1 257.051 30.11 255.441 29.56C254.449 29.1673 253.48 28.7166 252.541 28.21C248.541 26.33 244.161 26.08 239.891 26.43C237.479 26.5541 235.109 27.106 232.891 28.06C230.422 29.3378 228.189 31.0289 226.291 33.06C223.115 36.0435 220.485 39.5599 218.521 43.45C216.911 46.6256 216.262 50.2012 216.651 53.74C217.161 57.26 219.341 60.57 222.291 61.31L223.451 59.98" fill="#263238"/>
<path d="M228.771 59.3599C228.601 59.2799 221.831 57.1299 221.901 64.0799C221.971 71.0299 228.901 69.5399 228.901 69.3399C228.901 69.1399 228.771 59.3599 228.771 59.3599Z" fill="#BE8671"/>
<path d="M226.791 66.73C226.791 66.73 226.671 66.81 226.461 66.91C226.173 67.0289 225.849 67.0289 225.561 66.91C225.111 66.6293 224.743 66.2344 224.496 65.7653C224.248 65.2963 224.129 64.77 224.151 64.24C224.123 63.6431 224.232 63.0477 224.471 62.5C224.536 62.2833 224.652 62.0851 224.808 61.9217C224.964 61.7583 225.157 61.6343 225.371 61.56C225.511 61.5203 225.66 61.5318 225.792 61.5923C225.924 61.6527 226.03 61.7583 226.091 61.89C226.191 62.08 226.141 62.22 226.181 62.23C226.221 62.24 226.331 62.11 226.271 61.83C226.231 61.6556 226.132 61.5002 225.991 61.39C225.798 61.2484 225.558 61.1874 225.321 61.22C225.037 61.2798 224.773 61.4114 224.554 61.6022C224.335 61.793 224.169 62.0367 224.071 62.31C223.781 62.9145 223.641 63.5798 223.661 64.25C223.721 65.65 224.451 66.96 225.461 67.25C225.647 67.3006 225.842 67.3098 226.032 67.277C226.222 67.2442 226.403 67.1701 226.561 67.06C226.781 66.89 226.811 66.74 226.791 66.73Z" fill="#A24C2C"/>
<path d="M251.511 57.2098C251.446 56.5371 251.34 55.8692 251.191 55.2098C250.717 53.4299 249.661 51.8599 248.191 50.7498C247.107 49.936 245.837 49.4055 244.496 49.2065C243.155 49.0074 241.785 49.146 240.511 49.6098C239.777 49.8723 239.086 50.2431 238.461 50.7098C237.808 51.1901 237.234 51.7706 236.761 52.4298C235.732 53.8109 235.176 55.4874 235.176 57.2098C235.176 58.9322 235.732 60.6086 236.761 61.9898C237.234 62.649 237.808 63.2294 238.461 63.7098C239.083 64.1833 239.775 64.5577 240.511 64.8198C241.785 65.2867 243.156 65.4261 244.498 65.2251C245.84 65.0242 247.11 64.4894 248.191 63.6698C249.665 62.5635 250.722 60.9919 251.191 59.2098C251.341 58.5507 251.448 57.8827 251.511 57.2098C251.525 57.3862 251.525 57.5634 251.511 57.7398C251.517 57.9543 251.5 58.1687 251.461 58.3798C251.435 58.67 251.385 58.9577 251.311 59.2398C250.871 61.0757 249.812 62.7038 248.311 63.8498C247.282 64.6465 246.08 65.1911 244.801 65.4398C243.33 65.7136 241.812 65.5928 240.401 65.0898C239.64 64.8158 238.922 64.4318 238.271 63.9498C237.59 63.455 236.992 62.854 236.501 62.1698C235.436 60.7354 234.861 58.9963 234.861 57.2098C234.861 55.4232 235.436 53.6842 236.501 52.2498C237.484 50.9141 238.841 49.9011 240.401 49.3398C241.498 48.9396 242.667 48.7755 243.831 48.8583C244.996 48.941 246.13 49.2688 247.159 49.8201C248.188 50.3714 249.089 51.1339 249.802 52.0575C250.516 52.9811 251.027 54.0451 251.301 55.1798C251.375 55.4653 251.425 55.7562 251.451 56.0498C251.49 56.2574 251.507 56.4686 251.501 56.6798C251.518 56.856 251.521 57.0331 251.511 57.2098Z" fill="#455A64"/>
<path d="M271.132 57.2101C271.067 56.5374 270.96 55.8695 270.812 55.2101C270.336 53.4308 269.28 51.8612 267.812 50.7501C266.73 49.9355 265.461 49.4045 264.121 49.2054C262.782 49.0063 261.414 49.1454 260.142 49.6101C258.636 50.1557 257.327 51.1374 256.382 52.4301C255.361 53.815 254.811 55.49 254.811 57.2101C254.811 58.9302 255.361 60.6051 256.382 61.9901C256.858 62.6496 257.435 63.23 258.092 63.7101C258.714 64.1836 259.405 64.558 260.142 64.8201C261.502 65.3119 262.968 65.4361 264.392 65.1801C265.634 64.95 266.805 64.4329 267.812 63.6701C269.284 62.5621 270.34 60.9913 270.812 59.2101C270.961 58.551 271.068 57.8829 271.132 57.2101C271.145 57.3865 271.145 57.5637 271.132 57.7401C271.132 57.9544 271.115 58.1684 271.082 58.3801C271.055 58.6703 271.005 58.9579 270.932 59.2401C270.555 60.7871 269.742 62.1937 268.59 63.2927C267.438 64.3916 265.995 65.137 264.432 65.4401C262.96 65.7139 261.442 65.5931 260.032 65.0901C259.268 64.8201 258.55 64.4357 257.902 63.9501C257.215 63.4583 256.613 62.8569 256.122 62.1701C255.063 60.7332 254.491 58.9951 254.491 57.2101C254.491 55.4251 255.063 53.687 256.122 52.2501C257.105 50.9111 258.467 49.8975 260.032 49.3401C261.129 48.9452 262.296 48.7862 263.459 48.8733C264.622 48.9604 265.753 49.2918 266.778 49.8457C267.804 50.3997 268.702 51.1638 269.412 52.0881C270.123 53.0125 270.63 54.0763 270.902 55.2101C270.975 55.4956 271.025 55.7865 271.052 56.0801C271.085 56.2884 271.102 56.4991 271.102 56.7101C271.123 56.8758 271.133 57.0429 271.132 57.2101Z" fill="#455A64"/>
<path d="M255.002 55.3C255.002 55.38 254.172 55.06 253.142 55.03C252.112 55 251.292 55.26 251.262 55.17C251.818 54.7993 252.488 54.6397 253.152 54.72C253.818 54.6842 254.475 54.8902 255.002 55.3Z" fill="#455A64"/>
<path d="M234.971 58.0502C233.855 58.4954 232.685 58.7913 231.491 58.9302C230.312 59.1796 229.105 59.2737 227.901 59.2102C227.901 59.1102 229.481 58.9602 231.421 58.6402C233.361 58.3202 234.901 57.9602 234.971 58.0502Z" fill="#455A64"/>
<path d="M250.642 55.9401C250.705 56.4575 250.678 56.9819 250.562 57.4901C250.334 58.7338 249.869 59.922 249.192 60.9901C248.535 62.0772 247.639 63.0005 246.572 63.6901C246.356 63.8498 246.109 63.9618 245.847 64.0187C245.585 64.0756 245.314 64.076 245.052 64.0201C245.549 63.9445 246.026 63.7675 246.452 63.5001C247.443 62.778 248.283 61.8672 248.922 60.8201C249.578 59.7828 250.058 58.6441 250.342 57.4501C250.552 56.5201 250.592 55.9301 250.642 55.9401Z" fill="white"/>
<path d="M268.581 61.2098C268.776 60.7621 268.999 60.3278 269.251 59.9098C269.494 59.4521 269.675 58.9646 269.791 58.4598C269.912 57.8424 269.912 57.2073 269.791 56.5898C269.655 55.4331 269.317 54.3093 268.791 53.2698C268.371 52.4898 267.941 52.1198 267.991 52.0698C268.111 52.1307 268.219 52.2119 268.311 52.3098C268.567 52.566 268.792 52.8513 268.981 53.1598C269.579 54.1987 269.956 55.3491 270.091 56.5398C270.204 57.2039 270.184 57.8837 270.031 58.5398C269.885 59.0627 269.67 59.5638 269.391 60.0298C269.178 60.4595 268.906 60.8568 268.581 61.2098Z" fill="white"/>
<path d="M238.241 41.4902C237.545 41.3251 236.923 40.9349 236.471 40.3802C236.329 40.1871 236.227 39.9667 236.174 39.7326C236.121 39.4986 236.116 39.256 236.161 39.0202C236.192 38.9058 236.236 38.7951 236.291 38.6902L236.361 38.9102C236.168 38.8084 235.998 38.6666 235.864 38.4942C235.729 38.3218 235.633 38.1227 235.581 37.9102C235.516 37.5622 235.592 37.2027 235.791 36.9102C236.131 36.4102 236.541 36.3602 236.531 36.3902C236.521 36.4202 236.211 36.5602 235.971 37.0202C235.895 37.1636 235.849 37.3208 235.835 37.4824C235.82 37.644 235.838 37.8069 235.888 37.9615C235.937 38.1161 236.017 38.2593 236.122 38.3827C236.227 38.5061 236.356 38.6072 236.501 38.6802L236.641 38.7502L236.561 38.9002C236.525 38.9812 236.495 39.0648 236.471 39.1502C236.433 39.345 236.435 39.5454 236.476 39.7396C236.518 39.9337 236.598 40.1175 236.711 40.2802C236.907 40.558 237.151 40.7985 237.431 40.9902C237.901 41.2602 238.271 41.4402 238.241 41.4902Z" fill="#455A64"/>
<path d="M159.032 87.5798C159.032 87.5798 190.712 87.0898 200.312 92.2698C200.312 92.2698 204.232 90.1198 206.372 91.0098C208.512 91.8998 208.272 92.2698 208.272 92.2698C208.272 92.2698 206.272 88.1898 210.412 89.6598C214.552 91.1298 214.712 92.2698 214.712 92.2698L227.712 91.9698L227.872 94.7498C225.472 97.3998 218.782 104.75 218.782 104.75L213.222 124.75L193.102 206.82L183.832 248.55C178.127 239.646 174.431 229.607 173.002 219.13C170.462 201.34 183.312 124.71 183.312 124.71C183.312 124.71 133.652 104.15 131.492 95.7098C129.902 89.6598 159.032 87.5798 159.032 87.5798Z" fill="#455A64"/>
<path d="M254.081 96.3799C254.081 96.3799 263.141 98.0899 266.081 100.26C269.021 102.43 275.901 109.21 275.901 109.21C275.901 109.21 280.771 108.83 280.531 113.75C280.531 113.75 296.591 121.23 297.631 123.85C298.671 126.47 325.321 168.85 325.041 171.17C324.761 173.49 319.321 190.8 311.961 188.53C304.601 186.26 285.471 165.53 285.471 165.53C285.471 165.53 293.781 246.92 282.951 253.59L269.081 236.32L266.541 176.32L254.081 96.3799Z" fill="#455A64"/>
<path d="M254.081 96.38C256.321 106.86 247.761 111.13 238.481 109.1C229.201 107.07 227.781 93.77 227.781 93.77L216.901 97.58L207.111 119.78L193.111 206.78L268.411 225.51L263.901 102.11L254.081 96.38Z" fill="#F5F5F5"/>
<path d="M175.101 89.96C175.101 89.96 159.861 81.66 155.291 81.05C147.521 80.05 131.891 78.68 128.691 86.55C125.491 94.42 140.411 106.26 160.161 106.84C163.265 106.845 166.319 107.629 169.041 109.12L175.101 89.96Z" fill="#455A64"/>
<path d="M205.491 104.95C205.024 102.702 204.4 100.49 203.621 98.3298C202.675 96.2343 201.585 94.2062 200.361 92.2598C200.894 92.6946 201.35 93.215 201.711 93.7998C202.677 95.1429 203.48 96.5965 204.101 98.1298C204.726 99.6613 205.162 101.263 205.401 102.9C205.549 103.573 205.579 104.266 205.491 104.95Z" fill="#263238"/>
<path d="M207.342 104.74C207.965 102.572 208.37 100.348 208.552 98.0999C208.554 95.8426 208.326 93.591 207.872 91.3799C208.218 91.9622 208.455 92.6026 208.572 93.2699C209.368 96.4536 209.236 99.7987 208.192 102.91C208.014 103.563 207.726 104.182 207.342 104.74Z" fill="#263238"/>
<path d="M208.722 114.36C208.79 114.014 208.9 113.678 209.052 113.36C209.292 112.76 209.652 111.9 210.112 110.84C211.032 108.72 212.332 105.84 213.802 102.6C215.272 99.36 216.522 96.43 218.012 94.6C218.575 93.8605 219.25 93.2128 220.012 92.68C220.278 92.4723 220.58 92.3132 220.902 92.21C219.924 92.9623 219.053 93.8437 218.312 94.83C216.942 96.66 215.772 99.64 214.312 102.83C212.852 106.02 211.492 108.92 210.492 111C209.982 112 209.572 112.88 209.272 113.45C208.972 114.02 208.762 114.38 208.722 114.36Z" fill="#263238"/>
<path d="M156.171 81.2598C156.32 81.2932 156.464 81.3436 156.601 81.4098L157.811 81.9198C158.871 82.3798 160.401 83.0698 162.311 84.0198C167.546 86.6116 172.592 89.5689 177.411 92.8698L177.581 92.9898L177.491 93.1698L169.281 109.21L169.161 109.44L168.931 109.33L168.371 109.07C167.011 108.47 165.741 107.76 164.371 107.27C163.089 106.73 161.7 106.491 160.311 106.57C157.625 106.764 154.928 106.764 152.241 106.57C149.807 106.229 147.432 105.556 145.181 104.57C143.201 103.799 141.28 102.887 139.431 101.84C136.739 100.341 134.274 98.4652 132.111 96.2698C131.53 95.6715 130.979 95.044 130.461 94.3898C130.275 94.1649 130.105 93.9277 129.951 93.6798C130.167 93.8746 130.365 94.0888 130.541 94.3198C130.911 94.7498 131.481 95.3698 132.261 96.1298C134.458 98.2488 136.93 100.062 139.611 101.52C141.456 102.538 143.371 103.423 145.341 104.17C147.563 105.108 149.9 105.744 152.291 106.06C154.956 106.22 157.629 106.197 160.291 105.99C163.291 105.73 165.941 107.34 168.571 108.53L169.121 108.79L168.781 108.91L177.041 92.9098L177.121 93.2098C172.321 89.8881 167.311 86.8817 162.121 84.2098C160.231 83.2098 158.721 82.4998 157.691 81.9998L156.511 81.4198C156.393 81.3765 156.28 81.323 156.171 81.2598Z" fill="#263238"/>
<path d="M264.502 118.61C264.313 117.567 264.23 116.509 264.252 115.45C264.192 113.45 264.252 110.78 264.122 107.81C264.062 106.32 263.962 104.91 263.802 103.64C263.721 102.516 263.45 101.414 263.002 100.38C262.677 99.7041 262.189 99.1199 261.582 98.6797C261.142 98.3697 260.852 98.2797 260.862 98.2397C261.158 98.2443 261.446 98.3346 261.692 98.4997C262.383 98.9081 262.947 99.5 263.322 100.21C263.858 101.259 264.197 102.398 264.322 103.57C264.502 104.86 264.622 106.29 264.682 107.79C264.782 110.79 264.682 113.49 264.682 115.45C264.688 116.506 264.628 117.561 264.502 118.61Z" fill="#263238"/>
<path d="M280.901 114.21C278.528 113.219 276.226 112.066 274.011 110.76C271.714 109.611 269.498 108.304 267.381 106.85C269.749 107.845 272.047 108.997 274.261 110.3C276.559 111.454 278.777 112.76 280.901 114.21Z" fill="#263238"/>
<path d="M171.162 89.54C170.264 89.9219 169.389 90.356 168.542 90.84C166.588 92.1277 165.041 93.9452 164.082 96.08C163.15 98.2358 162.648 100.552 162.602 102.9C162.542 104.71 162.662 105.83 162.602 105.84C162.5 105.592 162.442 105.328 162.432 105.06C161.988 101.944 162.407 98.7653 163.642 95.87C164.636 93.6431 166.291 91.7755 168.382 90.52C169.012 90.157 169.683 89.8716 170.382 89.6701C170.631 89.5784 170.896 89.5343 171.162 89.54Z" fill="#263238"/>
<path d="M167.502 102.53C166.584 102.63 165.656 102.474 164.822 102.08C163.93 101.841 163.119 101.368 162.472 100.71C163.346 100.906 164.195 101.201 165.002 101.59C165.865 101.818 166.702 102.133 167.502 102.53Z" fill="#263238"/>
<path d="M168.181 99.2097C167.26 99.1334 166.367 98.8606 165.561 98.4097C164.686 98.108 163.885 97.624 163.211 96.9897C164.971 97.4972 166.654 98.2442 168.211 99.2097H168.181Z" fill="#263238"/>
<path d="M169.742 96.1499C168.904 95.9723 168.109 95.6326 167.402 95.1499C166.614 94.8084 165.903 94.3118 165.312 93.6899C166.152 93.8587 166.949 94.1992 167.652 94.6899C168.902 95.3699 169.812 96.0199 169.742 96.1499Z" fill="#263238"/>
<path d="M172.462 94.0198C172.342 94.1098 171.592 93.1398 170.412 92.2598C169.232 91.3798 168.102 90.9198 168.142 90.7798C169.076 90.9128 169.962 91.2794 170.717 91.8458C171.472 92.4121 172.072 93.1599 172.462 94.0198Z" fill="#263238"/>
<path d="M256.211 98.4898C256.261 98.4898 256.061 99.1398 255.841 100.32C255.621 101.5 255.441 103.23 254.921 105.32C254.638 106.488 254.139 107.594 253.451 108.58C252.626 109.699 251.533 110.594 250.271 111.18C247.416 112.531 244.236 113.041 241.101 112.65C237.963 112.29 234.989 111.052 232.521 109.08C230.537 107.455 228.944 105.405 227.861 103.08C227.128 101.523 226.649 99.8583 226.441 98.1498C226.38 97.689 226.35 97.2246 226.351 96.7598C226.329 96.6005 226.329 96.439 226.351 96.2798C226.351 96.2798 226.421 96.9398 226.621 98.1298C226.906 99.7925 227.428 101.406 228.171 102.92C229.273 105.165 230.854 107.141 232.801 108.71C235.221 110.581 238.105 111.756 241.143 112.108C244.181 112.461 247.258 111.977 250.041 110.71C251.221 110.155 252.25 109.325 253.041 108.29C253.713 107.35 254.207 106.296 254.501 105.18C255.061 103.12 255.281 101.37 255.581 100.18C255.687 99.7264 255.817 99.2791 255.971 98.8398C256.036 98.7133 256.117 98.5956 256.211 98.4898Z" fill="#263238"/>
<path d="M145.421 109.003L320.112 123.12C323.548 123.397 326.734 125.029 328.968 127.655C331.201 130.282 332.3 133.688 332.022 137.124L323.952 236.999C323.674 240.435 322.042 243.621 319.416 245.855C316.789 248.088 313.383 249.187 309.947 248.91L135.256 234.793C132.084 234.537 129.143 233.03 127.082 230.606C125.02 228.182 124.005 225.038 124.262 221.865L132.494 119.987C132.751 116.815 134.257 113.875 136.681 111.813C139.106 109.751 142.25 108.737 145.422 108.993L145.421 109.003Z" fill="#193141"/>
<g opacity="0.5">
<path d="M127.441 182.8L332.231 134.78L330.971 150.32L125.731 204.01L127.441 182.8Z" fill="#E86820"/>
</g>
<g opacity="0.5">
<path d="M242.381 116.86L260.071 166.9L277.341 246.32L295.851 247.82L266.081 155.05L258.971 118.2L242.381 116.86Z" fill="#E86820"/>
</g>
<path d="M154.441 215.51L156.851 215.71L156.481 220.33C155.055 221.172 153.401 221.546 151.751 221.4C148.171 221.11 145.751 218.4 146.011 215.01C146.271 211.62 149.121 209.33 152.751 209.62C153.646 209.652 154.522 209.88 155.319 210.287C156.115 210.695 156.813 211.273 157.361 211.98L155.541 213.4C155.206 212.956 154.779 212.59 154.288 212.328C153.798 212.065 153.257 211.913 152.701 211.88C152.214 211.823 151.721 211.864 151.25 212.002C150.779 212.139 150.341 212.37 149.961 212.68C149.581 212.99 149.267 213.374 149.039 213.807C148.81 214.241 148.67 214.716 148.629 215.205C148.587 215.694 148.644 216.186 148.797 216.652C148.949 217.118 149.193 217.549 149.515 217.919C149.837 218.288 150.231 218.59 150.671 218.805C151.112 219.02 151.592 219.144 152.081 219.17C152.794 219.242 153.513 219.132 154.171 218.85L154.441 215.51Z" fill="white"/>
<path d="M159.741 210.39L162.371 210.6L161.451 221.99L158.821 221.78L159.741 210.39Z" fill="white"/>
<path d="M167.541 213.15L167.301 216.15L172.571 216.57L172.401 218.69L167.131 218.26L166.791 222.41L164.161 222.2L165.081 210.81L173.681 211.5L173.511 213.62L167.541 213.15Z" fill="white"/>
<path d="M177.742 214L174.102 213.71L174.272 211.56L184.202 212.36L184.032 214.51L180.382 214.22L179.632 223.46L177.002 223.21L177.742 214Z" fill="white"/>
<path d="M189.311 218.51C189.36 217.736 189.567 216.979 189.918 216.288C190.269 215.596 190.758 214.983 191.354 214.487C191.951 213.991 192.642 213.622 193.386 213.402C194.13 213.183 194.911 213.117 195.681 213.21C196.43 213.24 197.165 213.424 197.839 213.751C198.514 214.078 199.114 214.541 199.601 215.11L199.041 215.61C198.616 215.122 198.097 214.725 197.514 214.443C196.932 214.161 196.298 214 195.651 213.97C194.325 213.862 193.011 214.286 191.997 215.148C190.984 216.01 190.354 217.239 190.246 218.565C190.139 219.891 190.563 221.205 191.424 222.219C192.286 223.233 193.515 223.862 194.841 223.97C195.485 224.044 196.137 223.986 196.757 223.801C197.378 223.615 197.954 223.305 198.451 222.89L198.931 223.46C198.36 223.948 197.694 224.313 196.974 224.532C196.255 224.751 195.498 224.818 194.751 224.73C193.979 224.698 193.221 224.509 192.524 224.175C191.827 223.841 191.205 223.369 190.697 222.787C190.188 222.205 189.803 221.526 189.564 220.791C189.326 220.056 189.24 219.279 189.311 218.51Z" fill="white"/>
<path d="M208.591 222.57L201.981 222.04L200.271 225.13L199.381 225.05L205.541 214.05L206.371 214.11L210.691 225.93L209.791 225.86L208.591 222.57ZM208.331 221.85L205.901 215.03L202.391 221.36L208.331 221.85Z" fill="white"/>
<path d="M220.672 226.77L218.262 222.77C217.889 222.795 217.515 222.795 217.142 222.77L213.892 222.5L213.592 226.23L212.762 226.17L213.682 214.77L217.762 215.1C220.632 215.34 222.232 216.91 222.042 219.31C222.015 220.132 221.7 220.918 221.151 221.531C220.602 222.143 219.856 222.543 219.042 222.66L221.572 226.88L220.672 226.77ZM217.202 222.01C219.642 222.2 221.042 221.17 221.202 219.22C221.362 217.27 220.152 216.02 217.712 215.82L214.462 215.56L213.962 221.74L217.202 222.01Z" fill="white"/>
<path d="M225.392 215.69L229.902 216.05C233.512 216.35 235.762 218.92 235.502 222.24C235.242 225.56 232.592 227.74 228.982 227.45L224.472 227.08L225.392 215.69ZM228.982 226.69C232.202 226.95 234.432 225.07 234.672 222.17C234.912 219.27 233.002 217.06 229.782 216.8L226.162 216.51L225.362 226.4L228.982 226.69Z" fill="white"/>
<path d="M267.421 236.58C267.421 236.72 239.981 234.7 206.171 232.06C172.361 229.42 144.901 227.21 144.901 227.03C144.901 226.85 172.341 228.91 206.171 231.54C240.001 234.17 267.441 236.44 267.421 236.58Z" fill="white"/>
<path d="M255.242 154.43C251.732 155.26 248.042 154.61 244.612 153.51C241.182 152.41 237.902 150.88 234.442 149.88C225.905 147.46 216.766 148.39 208.892 152.48C208.503 152.638 208.175 152.915 207.952 153.27C207.786 153.718 207.786 154.212 207.952 154.66L216.472 185.57C216.661 186.659 217.186 187.662 217.972 188.44C219.212 189.44 220.972 189.08 222.532 188.68C227.484 187.522 232.3 185.846 236.902 183.68C241.517 181.48 245.485 178.125 248.422 173.94C249.732 171.94 250.732 169.78 252.102 167.84C253.383 165.812 255.354 164.317 257.652 163.63L255.242 154.43Z" fill="#193141"/>
<path d="M317.412 164.75C315.172 151.61 312.922 138.4 308.572 125.81C299.842 125.63 291.572 129.88 284.642 135.19C277.712 140.5 271.642 146.91 264.642 152.12L264.742 161.55C267.333 160.672 270.139 160.655 272.742 161.5C275.311 162.333 277.804 163.387 280.192 164.65C285.712 167.477 291.629 169.449 297.742 170.5C303.862 171.39 310.342 170.77 315.802 167.86C316.522 167.579 317.106 167.031 317.432 166.33C317.555 165.81 317.548 165.267 317.412 164.75Z" fill="#193141"/>
<path d="M255.242 154.43C251.732 155.26 248.042 154.61 244.612 153.51C241.182 152.41 237.902 150.88 234.442 149.88C225.905 147.46 216.766 148.39 208.892 152.48C208.503 152.638 208.175 152.915 207.952 153.27C207.786 153.718 207.786 154.212 207.952 154.66L216.472 185.57C216.661 186.659 217.186 187.662 217.972 188.44C219.212 189.44 220.972 189.08 222.532 188.68C227.484 187.522 232.3 185.846 236.902 183.68C241.517 181.48 245.485 178.125 248.422 173.94C249.732 171.94 250.732 169.78 252.102 167.84C253.383 165.812 255.354 164.317 257.652 163.63L255.242 154.43Z" fill="#E86820"/>
<path d="M255.241 154.43L255.421 155C255.541 155.42 255.701 156 255.921 156.74L257.821 163.56V163.68H257.701C256.089 164.13 254.641 165.036 253.531 166.29C252.221 167.816 251.1 169.495 250.191 171.29C249.111 173.368 247.766 175.297 246.191 177.03C244.421 178.954 242.403 180.636 240.191 182.03C235.591 185.03 229.941 186.96 223.921 188.57C222.431 188.93 220.921 189.57 219.161 189.26C218.73 189.179 218.321 189.009 217.96 188.761C217.598 188.513 217.292 188.192 217.061 187.82C216.654 187.086 216.355 186.298 216.171 185.48C215.301 182.33 214.411 179.1 213.501 175.83C212.171 171.01 210.881 166.3 209.621 161.75C209.001 159.48 208.381 157.24 207.781 155.06C207.547 154.482 207.498 153.846 207.641 153.24C207.96 152.71 208.456 152.31 209.041 152.11C210.041 151.6 211.041 151.11 212.041 150.75C215.898 149.244 219.992 148.438 224.131 148.37C227.776 148.276 231.411 148.765 234.901 149.82C238.051 150.82 240.761 152 243.211 152.82C245.284 153.612 247.436 154.175 249.631 154.5C251.019 154.699 252.426 154.73 253.821 154.59C254.771 154.48 255.301 154.36 255.281 154.38C255.161 154.427 255.037 154.464 254.911 154.49C254.558 154.575 254.201 154.641 253.841 154.69C252.437 154.875 251.015 154.875 249.611 154.69C247.391 154.399 245.211 153.859 243.111 153.08C240.641 152.24 237.921 151.08 234.791 150.08C227.403 147.92 219.508 148.271 212.341 151.08C211.341 151.48 210.341 151.92 209.341 152.42C208.841 152.67 208.341 152.91 208.171 153.31C208.072 153.811 208.127 154.331 208.331 154.8C208.938 156.986 209.558 159.22 210.191 161.5C211.441 166.04 212.741 170.75 214.081 175.57C214.981 178.85 215.868 182.066 216.741 185.22C216.906 185.994 217.185 186.739 217.571 187.43C217.764 187.743 218.02 188.013 218.323 188.221C218.626 188.43 218.969 188.572 219.331 188.64C220.821 188.91 222.331 188.34 223.861 187.97C229.861 186.38 235.471 184.43 240.021 181.53C242.203 180.174 244.2 178.54 245.961 176.67C247.522 174.962 248.866 173.068 249.961 171.03C250.89 169.228 252.039 167.549 253.381 166.03C254.539 164.742 256.047 163.821 257.721 163.38L257.621 163.54C256.871 160.61 256.281 158.33 255.881 156.76L255.431 154.98C255.281 154.66 255.241 154.43 255.241 154.43Z" fill="#263238"/>
<path d="M317.412 164.75C315.172 151.61 312.922 138.4 308.572 125.81C299.842 125.63 291.572 129.88 284.642 135.19C277.712 140.5 271.642 146.91 264.642 152.12L264.742 161.55C267.333 160.672 270.139 160.655 272.742 161.5C275.311 162.333 277.804 163.387 280.192 164.65C285.712 167.477 291.629 169.449 297.742 170.5C303.862 171.39 310.342 170.77 315.802 167.86C316.522 167.579 317.106 167.031 317.432 166.33C317.555 165.81 317.548 165.267 317.412 164.75Z" fill="#E86820"/>
<path d="M317.411 164.75C317.52 165.103 317.57 165.471 317.561 165.84C317.545 166.307 317.352 166.75 317.021 167.08C316.572 167.502 316.05 167.841 315.481 168.08C311.912 169.891 307.983 170.882 303.981 170.98C298.871 171.23 292.701 170.07 286.251 167.52C284.638 166.853 283.001 166.15 281.341 165.41C279.671 164.65 278.001 163.79 276.261 163.02C274.504 162.204 272.649 161.62 270.741 161.28C268.771 160.915 266.739 161.077 264.851 161.75L264.511 161.88V161.52C264.511 158.52 264.441 155.34 264.401 152.09V151.96L264.511 151.88C267.811 149.42 271.051 146.57 274.321 143.63C279.681 138.8 284.961 134.07 290.761 130.74C296.561 127.41 302.761 125.41 308.571 125.55H308.731L308.781 125.69C311.777 134.89 314.074 144.304 315.651 153.85C316.261 157.3 316.701 160.01 317.001 161.85C317.141 162.76 317.251 163.46 317.321 163.97C317.321 164.19 317.381 164.37 317.401 164.51C317.41 164.573 317.41 164.637 317.401 164.7C317.401 164.7 317.401 164.64 317.351 164.52L317.241 163.98C317.148 163.48 317.018 162.78 316.851 161.88C316.511 160 316.011 157.31 315.381 153.88C313.725 144.37 311.386 134.993 308.381 125.82L308.581 125.97C302.861 125.85 296.721 127.8 291.031 131.14C285.341 134.48 280.031 139.14 274.691 143.99C271.411 146.93 268.161 149.79 264.831 152.26L264.941 152.05C264.941 155.3 265.001 158.48 265.031 161.48L264.691 161.25C266.661 160.558 268.778 160.393 270.831 160.77C272.781 161.119 274.677 161.721 276.471 162.56C278.231 163.34 279.891 164.21 281.551 164.97C283.211 165.73 284.821 166.45 286.431 167.09C291.977 169.47 297.956 170.676 303.991 170.63C307.958 170.563 311.862 169.631 315.431 167.9C315.992 167.658 316.507 167.319 316.951 166.9C317.267 166.597 317.46 166.187 317.491 165.75C317.481 165.415 317.454 165.082 317.411 164.75Z" fill="#263238"/>
<path d="M259.042 165.52C259.042 165.52 256.652 165.91 254.742 172.61C252.832 179.31 248.972 210.4 248.972 210.4L278.702 218.35L265.902 166.46L259.042 165.52Z" fill="#193141"/>
<path d="M267.991 165.43L285.481 199.05L300.901 179.27C300.901 179.27 281.341 162.06 268.901 162.37L267.991 165.43Z" fill="#193141"/>
<path d="M259.042 165.52C259.042 165.52 256.652 165.91 254.742 172.61C252.832 179.31 248.972 210.4 248.972 210.4L278.702 218.35L265.902 166.46L259.042 165.52Z" fill="#E86820"/>
<path d="M267.991 165.43L285.481 199.05L300.901 179.27C300.901 179.27 281.341 162.06 268.901 162.37L267.991 165.43Z" fill="#E86820"/>
<path d="M259.041 165.52C259.188 165.506 259.335 165.506 259.481 165.52L260.791 165.67L265.931 166.32H266.011V166.4C268.401 175.78 273.231 195.17 278.931 218.25L279.031 218.67L278.611 218.56L270.321 216.34L248.901 210.63H248.691V210.42C250.431 196.89 252.061 185.3 253.591 177.15C254.02 173.927 255.015 170.806 256.531 167.93C256.958 167.164 257.524 166.486 258.201 165.93C258.383 165.795 258.582 165.684 258.791 165.6C258.931 165.55 259.011 165.54 259.011 165.55L258.801 165.64C258.608 165.738 258.427 165.859 258.261 166C257.616 166.566 257.078 167.243 256.671 168C255.231 170.89 254.294 174.004 253.901 177.21C252.461 185.36 250.901 196.95 249.191 210.48L249.011 210.21L270.451 215.93L278.741 218.15L278.431 218.46C272.751 195.38 268.031 175.96 265.791 166.54L265.881 166.62L260.771 165.87L259.461 165.66L259.041 165.52Z" fill="#263238"/>
<path d="M267.991 165.43C267.991 165.43 267.991 165.37 267.991 165.24L268.141 164.65L268.801 162.35V162.29H268.901C271.901 162.12 276.901 163.36 282.481 166.29C289.135 169.857 295.373 174.149 301.081 179.09L301.261 179.25L301.111 179.44L294.041 188.5L285.681 199.21L285.431 199.52L285.251 199.17L272.791 175L269.221 168L268.281 166.12C268.162 165.911 268.064 165.69 267.991 165.46C267.991 165.46 268.131 165.68 268.371 166.11L269.371 167.97C270.251 169.64 271.511 171.97 273.081 174.97C276.231 180.97 280.611 189.32 285.681 198.97H285.261L293.651 188.21L300.731 179.16V179.5C295.059 174.576 288.878 170.271 282.291 166.66C276.721 163.71 271.861 162.41 268.901 162.5L268.981 162.44L268.241 164.69C268.161 164.92 268.101 165.12 268.041 165.27C268.029 165.325 268.012 165.378 267.991 165.43Z" fill="#263238"/>
<path d="M255.671 161.43C255.671 161.5 254.321 161.77 252.141 162.28C249.961 162.79 246.971 163.57 243.731 164.64C240.491 165.71 237.641 166.9 235.601 167.83C234.524 168.377 233.419 168.867 232.291 169.3C232.535 169.083 232.807 168.901 233.101 168.76C233.641 168.43 234.441 168 235.441 167.49C238.071 166.191 240.787 165.075 243.571 164.15C246.348 163.216 249.184 162.471 252.061 161.92C253.171 161.71 254.061 161.56 254.691 161.49C255.012 161.417 255.343 161.397 255.671 161.43Z" fill="#263238"/>
<path d="M254.602 158.21C253.481 158.308 252.356 158.345 251.232 158.32C248.528 158.376 245.831 158.586 243.152 158.95C240.022 159.39 237.212 160 235.152 160.46C234.066 160.751 232.964 160.975 231.852 161.13C232.115 160.981 232.397 160.87 232.692 160.8C233.252 160.61 234.062 160.37 235.062 160.1C237.69 159.378 240.362 158.823 243.062 158.44C245.761 158.063 248.486 157.899 251.212 157.95C252.212 157.95 253.102 158.02 253.682 158.07C253.994 158.07 254.304 158.117 254.602 158.21Z" fill="#263238"/>
<path d="M296.451 147.11C296.451 147.2 294.861 147.19 292.291 147.41C288.957 147.687 285.66 148.304 282.451 149.25C279.25 150.223 276.162 151.537 273.241 153.17C271.011 154.44 269.711 155.37 269.651 155.29C269.916 155.021 270.208 154.78 270.521 154.57C271.333 153.95 272.182 153.379 273.061 152.86C275.954 151.103 279.059 149.721 282.301 148.75C285.555 147.786 288.912 147.212 292.301 147.04C293.591 146.98 294.641 146.97 295.361 147.04C295.726 147.023 296.092 147.047 296.451 147.11Z" fill="#263238"/>
<path d="M294.902 156.09C294.611 156.239 294.301 156.35 293.982 156.42C293.392 156.61 292.522 156.84 291.432 157.09C288.595 157.742 285.714 158.18 282.812 158.4C279.909 158.622 276.994 158.622 274.092 158.4C272.982 158.3 272.092 158.2 271.462 158.1C271.138 158.077 270.819 158.013 270.512 157.91C271.713 157.889 272.915 157.929 274.112 158.03C276.999 158.146 279.89 158.096 282.772 157.88C285.65 157.65 288.514 157.266 291.352 156.73C292.523 156.456 293.708 156.242 294.902 156.09Z" fill="#263238"/>
<path d="M270.902 159.21C270.529 157.408 269.875 155.677 268.962 154.08C268.212 152.67 267.962 151.27 265.962 150.52C265.067 150.268 264.127 150.227 263.214 150.4C262.301 150.574 261.441 150.957 260.702 151.52C259.402 150.31 257.242 151 255.842 152.09C255.16 152.67 254.624 153.402 254.276 154.227C253.929 155.052 253.78 155.947 253.842 156.84C253.996 158.616 254.572 160.33 255.522 161.84C256.749 164.149 258.645 166.035 260.962 167.25C262.014 167.753 263.176 167.982 264.34 167.915C265.505 167.849 266.634 167.489 267.622 166.87C268.887 166.082 269.879 164.925 270.466 163.555C271.053 162.186 271.205 160.669 270.902 159.21Z" fill="#193141"/>
<path d="M270.902 159.21C270.529 157.408 269.875 155.677 268.962 154.08C268.212 152.67 267.962 151.27 265.962 150.52C265.067 150.268 264.127 150.227 263.214 150.4C262.301 150.574 261.441 150.957 260.702 151.52C259.402 150.31 257.242 151 255.842 152.09C255.16 152.67 254.624 153.402 254.276 154.227C253.929 155.052 253.78 155.947 253.842 156.84C253.996 158.616 254.572 160.33 255.522 161.84C256.749 164.149 258.645 166.035 260.962 167.25C262.014 167.753 263.176 167.982 264.34 167.915C265.505 167.849 266.634 167.489 267.622 166.87C268.887 166.082 269.879 164.925 270.466 163.555C271.053 162.186 271.205 160.669 270.902 159.21Z" fill="#E86820"/>
<path d="M270.901 159.21C270.974 159.389 271.021 159.578 271.041 159.77C271.118 160.306 271.142 160.849 271.111 161.39C271.005 163.12 270.281 164.753 269.072 165.994C267.862 167.235 266.247 168 264.521 168.15C262.894 168.268 261.274 167.847 259.911 166.95C258.418 165.987 257.138 164.727 256.151 163.25C255.03 161.71 254.224 159.963 253.781 158.11C253.52 157.054 253.533 155.949 253.819 154.899C254.104 153.849 254.652 152.889 255.411 152.11C256.174 151.433 257.09 150.952 258.081 150.71C258.562 150.57 259.07 150.553 259.559 150.659C260.048 150.766 260.502 150.993 260.881 151.32H260.551C261.468 150.557 262.609 150.114 263.801 150.06C264.866 149.914 265.95 150.136 266.871 150.69C267.654 151.223 268.255 151.984 268.591 152.87C268.921 153.64 269.291 154.3 269.591 154.95C270.07 155.932 270.446 156.961 270.711 158.02C270.786 158.299 270.843 158.583 270.881 158.87C270.881 159.06 270.881 159.16 270.881 159.16C270.881 159.16 270.771 158.77 270.551 158.06C270.228 157.027 269.817 156.023 269.321 155.06C269.011 154.45 268.611 153.76 268.261 153C267.943 152.183 267.381 151.485 266.651 151C265.794 150.51 264.797 150.323 263.821 150.47C262.723 150.527 261.672 150.933 260.821 151.63L260.661 151.79L260.501 151.64C260.176 151.371 259.79 151.186 259.376 151.103C258.963 151.019 258.535 151.039 258.131 151.16C257.228 151.386 256.394 151.829 255.701 152.45C255.014 153.168 254.52 154.047 254.263 155.007C254.006 155.966 253.995 156.975 254.231 157.94C254.66 159.724 255.434 161.405 256.511 162.89C257.456 164.312 258.677 165.529 260.101 166.47C261.376 167.328 262.897 167.743 264.431 167.65C265.766 167.555 267.042 167.068 268.101 166.25C268.875 165.661 269.519 164.917 269.992 164.067C270.465 163.217 270.758 162.279 270.851 161.31C270.914 160.612 270.931 159.91 270.901 159.21Z" fill="#263238"/>
<path d="M259.411 166.34C259.341 166.28 259.911 165.59 260.581 164.34C261.462 162.726 262.005 160.949 262.177 159.118C262.348 157.287 262.146 155.44 261.581 153.69C261.151 152.34 260.711 151.57 260.791 151.52C261.305 152.12 261.692 152.817 261.931 153.57C262.616 155.349 262.883 157.262 262.711 159.16C262.54 161.062 261.927 162.897 260.921 164.52C260.542 165.22 260.029 165.838 259.411 166.34Z" fill="#263238"/>
<path d="M269.651 155.29C269.718 156.015 269.657 156.746 269.471 157.45C269.14 159.169 268.517 160.82 267.631 162.33C266.75 163.856 265.602 165.211 264.241 166.33C263.708 166.823 263.087 167.213 262.411 167.48C264.279 165.954 265.89 164.137 267.181 162.1C269.221 158.61 269.471 155.21 269.651 155.29Z" fill="#263238"/>
<path d="M246.401 156.21C245.92 156.146 245.445 156.043 244.981 155.9L241.141 154.9C236.943 153.724 232.665 152.852 228.341 152.29C224.015 151.735 219.628 151.863 215.341 152.67C214.049 152.926 212.773 153.26 211.521 153.67C211.064 153.844 210.597 153.988 210.121 154.1C210.539 153.843 210.986 153.635 211.451 153.48C212.689 152.99 213.963 152.596 215.261 152.3C219.569 151.377 224.002 151.195 228.371 151.76C232.721 152.324 237.016 153.251 241.211 154.53C242.821 155 244.111 155.41 245.001 155.7C245.482 155.828 245.95 155.999 246.401 156.21Z" fill="white"/>
<path d="M241.381 160.86C240.09 161.181 238.776 161.398 237.451 161.51C236.151 161.795 234.83 161.972 233.501 162.04C236.003 161.051 238.699 160.647 241.381 160.86Z" fill="white"/>
<path d="M239.452 167.3C239.512 167.43 238.852 167.85 237.982 168.24C237.112 168.63 236.362 168.83 236.302 168.7C236.242 168.57 236.902 168.15 237.772 167.76C238.642 167.37 239.392 167.21 239.452 167.3Z" fill="white"/>
<path d="M256.352 159.9C256.302 159.9 255.982 159.53 255.682 158.77C255.302 157.759 255.162 156.674 255.272 155.6C255.372 154.537 255.714 153.511 256.272 152.6C256.722 151.91 257.112 151.6 257.162 151.6C256.463 152.857 255.995 154.228 255.782 155.65C255.726 157.089 255.919 158.527 256.352 159.9Z" fill="white"/>
<path d="M263.281 161.36C263.251 160.598 263.288 159.835 263.391 159.08C263.32 158.321 263.32 157.558 263.391 156.8C263.73 157.517 263.893 158.305 263.867 159.098C263.841 159.891 263.626 160.666 263.241 161.36H263.281Z" fill="white"/>
<path d="M284.281 138.42C282.018 140.488 279.645 142.431 277.171 144.24C274.799 146.175 272.322 147.978 269.751 149.64C272.01 147.569 274.384 145.626 276.861 143.82C279.233 141.884 281.71 140.082 284.281 138.42Z" fill="white"/>
<path d="M279.001 151.85C277.642 152.897 276.083 153.656 274.421 154.08C275.051 153.49 275.792 153.032 276.601 152.73C277.332 152.275 278.149 151.976 279.001 151.85Z" fill="white"/>
<path d="M256.092 178.68C255.82 176.755 255.922 174.796 256.392 172.91C256.698 170.987 257.377 169.142 258.392 167.48C258.532 167.54 257.552 169.92 256.932 173.01C256.312 176.1 256.242 178.68 256.092 178.68Z" fill="white"/>
<path d="M276.902 176.75C275.307 174.164 274.015 171.402 273.052 168.52C273.923 169.766 274.648 171.108 275.212 172.52C275.932 173.862 276.499 175.281 276.902 176.75Z" fill="white"/>
<path d="M180.411 123.13C180.411 123.28 174.251 122.68 166.701 121.81C159.151 120.94 153.031 120.11 153.041 119.97C153.051 119.83 159.201 120.42 166.761 121.29C174.321 122.16 180.431 122.99 180.411 123.13Z" fill="white"/>
<path d="M335.631 164.74V161.3C335.508 160.184 334.947 159.162 334.072 158.459C333.196 157.756 332.078 157.429 330.961 157.55L324.181 158.22L320.331 160.63C320.299 160.911 320.326 161.196 320.412 161.466C320.498 161.736 320.64 161.985 320.829 162.195C321.018 162.406 321.25 162.574 321.509 162.689C321.768 162.804 322.048 162.862 322.331 162.86L317.171 164.81C317.063 165.114 317.034 165.441 317.086 165.76C317.138 166.078 317.27 166.378 317.47 166.632C317.67 166.886 317.931 167.085 318.228 167.21C318.526 167.336 318.85 167.384 319.171 167.35L317.031 168.5C316.959 168.91 316.987 169.331 317.112 169.728C317.237 170.125 317.456 170.486 317.751 170.781C318.045 171.075 318.406 171.294 318.803 171.419C319.2 171.544 319.621 171.572 320.031 171.5C320.031 171.5 318.471 173.05 322.031 173.87C323.553 174.286 325.11 174.56 326.681 174.69L328.771 177.48L328.571 179.99C328.571 179.99 331.941 180.38 332.571 179.05C333.011 177.762 333.23 176.41 333.221 175.05C333.911 174.969 334.543 174.626 334.986 174.092C335.43 173.557 335.65 172.873 335.601 172.18C336.266 171.531 336.695 170.68 336.822 169.76C336.949 168.84 336.766 167.904 336.301 167.1C336.029 166.328 335.805 165.54 335.631 164.74Z" fill="#BE8671"/>
<path d="M332.821 174.4C332.741 174.4 332.371 173.69 331.591 172.63C331.147 172.013 330.595 171.481 329.961 171.06C329.205 170.548 328.315 170.27 327.401 170.26C326.401 170.26 325.401 170.47 324.561 170.54C323.79 170.615 323.025 170.742 322.271 170.92C321.58 171.13 320.875 171.29 320.161 171.4C320.78 171.018 321.455 170.735 322.161 170.56C322.922 170.329 323.702 170.161 324.491 170.06C325.371 169.97 326.311 169.77 327.381 169.74C328.396 169.753 329.383 170.073 330.211 170.66C330.876 171.134 331.443 171.732 331.881 172.42C332.318 173.014 332.637 173.686 332.821 174.4Z" fill="#A24C2C"/>
<path d="M335.021 170.54C334.373 169.864 333.79 169.127 333.281 168.34C332.734 167.511 332.108 166.738 331.411 166.03C330.997 165.667 330.487 165.43 329.941 165.35C329.328 165.296 328.711 165.34 328.111 165.48C325.571 166.11 323.251 166.7 321.571 167.08C320.672 167.336 319.752 167.51 318.821 167.6C319.678 167.222 320.568 166.927 321.481 166.72C323.141 166.25 325.481 165.6 328.011 164.97C328.666 164.816 329.343 164.775 330.011 164.85C330.654 164.944 331.253 165.23 331.731 165.67C332.446 166.416 333.067 167.245 333.581 168.14C334.128 168.898 334.609 169.701 335.021 170.54Z" fill="#A24C2C"/>
<path d="M334.731 164.1C334.731 164.17 333.941 163.77 333.031 162.81C332.534 162.262 331.954 161.796 331.311 161.43C330.484 161.095 329.569 161.045 328.711 161.29C326.415 161.999 324.077 162.564 321.711 162.98C322.344 162.646 323.016 162.391 323.711 162.22C324.961 161.83 326.711 161.22 328.631 160.77C329.599 160.516 330.625 160.597 331.541 161C332.227 161.404 332.831 161.933 333.321 162.56C334.131 163.57 334.761 164.04 334.731 164.1Z" fill="#A24C2C"/>
<path d="M167.592 103.06L172.192 104.7C172.192 104.7 175.262 114.94 176.902 115.14C178.542 115.34 180.592 117.4 182.232 115.55C182.232 115.55 184.582 117.4 185.912 115.35C185.912 115.35 190.832 116.27 191.342 114.84L191.852 113.4C191.852 113.4 199.852 123.4 201.482 123.4C203.112 123.4 203.482 122.47 202.912 121.25C202.342 120.03 194.412 107.12 192.572 104.97C190.732 102.82 182.432 92.7202 174.902 92.7202C174.902 92.7202 169.472 95.1802 168.142 98.9702C166.812 102.76 167.592 103.06 167.592 103.06Z" fill="#BE8671"/>
<path d="M176.252 92.4102C175.273 92.7521 174.315 93.1494 173.382 93.6002C171.172 94.7669 169.425 96.6515 168.429 98.9435C167.433 101.236 167.247 103.798 167.902 106.21C168.207 107.2 168.567 108.171 168.982 109.12C168.982 109.12 168.762 108.91 168.472 108.44C168.083 107.768 167.775 107.053 167.552 106.31C166.78 103.82 166.931 101.135 167.978 98.7474C169.025 96.3598 170.897 94.4294 173.252 93.3102C173.948 92.9666 174.683 92.708 175.442 92.5402C175.703 92.4542 175.976 92.4104 176.252 92.4102Z" fill="#263238"/>
<path d="M190.172 110.49C190.577 110.859 190.936 111.275 191.242 111.73C191.862 112.52 192.712 113.63 193.632 114.85L195.972 118.01C196.327 118.424 196.636 118.877 196.892 119.36C196.752 119.49 195.052 117.63 193.212 115.17C191.372 112.71 190.022 110.59 190.172 110.49Z" fill="#A24C2C"/>
<path d="M184.901 113.97C185.021 113.88 185.361 114.13 185.661 114.53C185.961 114.93 186.121 115.33 186.011 115.41C185.901 115.49 185.551 115.25 185.251 114.85C184.951 114.45 184.791 114.05 184.901 113.97Z" fill="#A24C2C"/>
<path d="M181.181 114.81C181.321 114.81 181.501 114.93 181.651 115.15C181.801 115.37 181.901 115.6 181.811 115.71C181.721 115.82 181.421 115.71 181.221 115.44C181.021 115.17 181.051 114.85 181.181 114.81Z" fill="#A24C2C"/>
<path d="M192.821 107.12C192.881 107.12 192.991 107.27 192.991 107.58C192.982 107.785 192.93 107.987 192.839 108.171C192.748 108.355 192.619 108.518 192.461 108.65C192.305 108.782 192.123 108.879 191.926 108.936C191.73 108.993 191.524 109.008 191.321 108.98C191.011 108.93 190.861 108.79 190.891 108.73C190.921 108.67 191.591 108.73 192.131 108.25C192.671 107.77 192.681 107.13 192.821 107.12Z" fill="#A24C2C"/>
<path d="M187.761 111.02C187.831 111.02 187.841 111.24 187.711 111.52C187.523 111.874 187.229 112.16 186.871 112.339C186.512 112.518 186.107 112.582 185.711 112.52C185.411 112.45 185.261 112.32 185.281 112.25C185.301 112.18 185.981 112.25 186.651 111.89C187.321 111.53 187.621 110.98 187.761 111.02Z" fill="#A24C2C"/>
<path d="M310.901 85.4901L332.511 80.2101H332.351C337.945 83.757 344.408 85.6945 351.031 85.8101C354.954 85.8277 358.857 85.2581 362.611 84.1201C366.701 82.8133 370.522 80.7809 373.891 78.1201C381.454 72.1995 386.363 63.5226 387.541 53.9901C388.319 47.3895 387.28 40.7018 384.536 34.6484C381.792 28.5949 377.448 23.4056 371.971 19.6401C370.801 18.9101 369.651 18.1601 368.441 17.5301L366.601 16.6401L365.691 16.2001L364.691 15.8501C359.737 13.942 354.428 13.1333 349.131 13.4801C342.034 13.9332 335.23 16.4782 329.578 20.794C323.925 25.1098 319.678 31.003 317.371 37.7301C316.088 41.496 315.413 45.442 315.371 49.4201C315.34 56.029 317.136 62.518 320.561 68.1701V67.9701C314.561 78.8301 311.501 84.3201 310.831 85.5301L320.901 68.1201L320.961 68.0301L320.901 67.9301C317.571 62.3196 315.842 55.9041 315.901 49.3801C315.954 45.465 316.629 41.5832 317.901 37.8801C319.31 33.8101 321.456 30.034 324.231 26.7401C329.024 21.0556 335.473 17.0108 342.677 15.1713C349.881 13.3317 357.48 13.7893 364.411 16.4801L365.351 16.8201L366.251 17.2501L368.051 18.1201C369.231 18.7401 370.361 19.4801 371.511 20.1901C373.75 21.7399 375.809 23.5343 377.651 25.5401C380.967 29.1468 383.5 33.3999 385.094 38.0325C386.687 42.6652 387.306 47.5772 386.911 52.4602C386.515 57.3432 385.115 62.0918 382.797 66.4077C380.479 70.7237 377.294 74.5138 373.441 77.5401C370.133 80.1568 366.384 82.1617 362.371 83.4601C358.702 84.6021 354.884 85.1919 351.041 85.2101C344.505 85.1352 338.115 83.2636 332.571 79.8001H332.491H332.411L310.901 85.4901Z" fill="#263238"/>
<path d="M354.581 33.5L353.441 51.58C353.381 52.2901 353.071 52.9558 352.565 53.4578C352.059 53.9599 351.392 54.2655 350.681 54.32C349.93 54.363 349.191 54.1164 348.616 53.6308C348.041 53.1453 347.674 52.4578 347.591 51.71L345.591 33.54C345.554 33.2165 345.586 32.8888 345.686 32.5788C345.786 32.2688 345.95 31.9836 346.169 31.7423C346.388 31.501 346.655 31.3091 346.954 31.1793C347.253 31.0496 347.575 30.9851 347.901 30.99L352.311 31.05C352.624 31.0534 352.932 31.1205 353.218 31.2472C353.504 31.3738 353.761 31.5574 353.973 31.7867C354.186 32.016 354.349 32.2862 354.453 32.5807C354.558 32.8753 354.601 33.1881 354.581 33.5Z" fill="#193141"/>
<path d="M345.901 64.4899C346.177 65.3171 346.691 66.0441 347.379 66.5791C348.068 67.1141 348.899 67.433 349.769 67.4956C350.638 67.5582 351.507 67.3617 352.265 66.9308C353.023 66.4999 353.636 65.8541 354.027 65.0749C354.418 64.2956 354.569 63.418 354.462 62.5528C354.354 61.6877 353.993 60.8738 353.423 60.2141C352.853 59.5543 352.1 59.0783 351.26 58.8462C350.419 58.6141 349.529 58.6362 348.701 58.9099C347.592 59.282 346.676 60.0775 346.151 61.1229C345.627 62.1682 345.537 63.3785 345.901 64.4899Z" fill="#193141"/>
</svg>
