<svg width="26" height="20" viewBox="0 0 26 20" fill="none" xmlns="http://www.w3.org/2000/svg">
<path d="M24.3491 0H1.65082C0.739167 0 0 0.731001 0 1.63264V18.3674C0 19.269 0.739167 20 1.65082 20H24.3491C25.2608 20 26 19.269 26 18.3674V1.63264C26 0.731001 25.2609 0 24.3491 0ZM24.3491 1.63264V13.5065L21.0958 10.5812C20.6068 10.1416 19.8549 10.1592 19.3877 10.6216L16.0951 13.8775L9.60308 6.20814C9.11235 5.62854 8.21349 5.62284 7.7154 6.19549L1.65082 13.1661V1.63264H24.3491ZM17.3333 5.91836C17.3333 4.67835 18.3493 3.67344 19.6031 3.67344C20.8569 3.67344 21.873 4.67835 21.873 5.91836C21.873 7.15837 20.857 8.16323 19.6031 8.16323C18.3494 8.16328 17.3333 7.15837 17.3333 5.91836Z" fill="#437A9F"/>
</svg>
