<svg width="60" height="60" viewBox="0 0 60 60" fill="none" xmlns="http://www.w3.org/2000/svg">
<path d="M12.4219 42.4219H5.39063C4.41984 42.4219 3.63281 43.2089 3.63281 44.1797V57.0703C3.63281 58.0411 4.41984 58.8281 5.39063 58.8281H12.4219C13.3927 58.8281 14.1797 58.0411 14.1797 57.0703V44.1797C14.1797 43.2089 13.3927 42.4219 12.4219 42.4219ZM26.4844 38.2031H19.4531C18.4823 38.2031 17.6953 38.9902 17.6953 39.9609V57.0703C17.6953 58.0411 18.4823 58.8281 19.4531 58.8281H26.4844C27.4552 58.8281 28.2422 58.0411 28.2422 57.0703V39.9609C28.2422 38.9902 27.4552 38.2031 26.4844 38.2031Z" fill="#BED9FD"/>
<path d="M40.5469 31.7578H33.5156C32.5448 31.7578 31.7578 32.5448 31.7578 33.5156V57.0703C31.7578 58.0411 32.5448 58.8281 33.5156 58.8281H40.5469C41.5177 58.8281 42.3047 58.0411 42.3047 57.0703V33.5156C42.3047 32.5448 41.5177 31.7578 40.5469 31.7578ZM54.6094 20.0391H47.5781C46.6073 20.0391 45.8203 20.8261 45.8203 21.7969V57.0703C45.8203 58.0411 46.6073 58.8281 47.5781 58.8281H54.6094C55.5802 58.8281 56.3672 58.0411 56.3672 57.0703V21.7969C56.3672 20.8261 55.5802 20.0391 54.6094 20.0391Z" fill="#DDEBFD"/>
<path d="M59.9401 12.0455L57.0617 1.30287C56.941 0.852572 56.6464 0.468645 56.2426 0.23554C55.8389 0.00243568 55.3591 -0.0607555 54.9088 0.059866L44.1662 2.93834C43.2284 3.18959 42.672 4.15346 42.9232 5.0912C43.1746 6.02893 44.1387 6.58557 45.0761 6.33409L51.9966 4.47971C47.9742 11.4696 41.3264 18.354 33.2949 23.7586C23.2371 30.5269 12.0369 34.2544 1.75781 34.2544C0.787031 34.2544 0 35.0414 0 36.0122C0 36.983 0.787031 37.77 1.75781 37.77C12.7287 37.77 24.6259 33.8299 35.2577 26.6755C43.5846 21.0722 50.5256 13.914 54.8372 6.58428L56.5443 12.9554C56.7547 13.7408 57.4649 14.2588 58.241 14.2588C58.395 14.2587 58.5484 14.2384 58.6971 14.1984C59.6349 13.9471 60.1914 12.9832 59.9401 12.0455Z" fill="#E27C48"/>
<path d="M59.9401 12.0455L57.0616 1.30287C56.941 0.852572 56.6464 0.468645 56.2426 0.23554C55.8389 0.00243567 55.3591 -0.0607555 54.9088 0.0598659L44.1662 2.93834C43.2284 3.18959 42.672 4.15346 42.9232 5.09119C43.1746 6.02893 44.1387 6.58557 45.0761 6.33409L51.9966 4.47971C47.9742 11.4696 41.3264 18.354 33.2948 23.7586C32.2164 24.4836 31.1176 25.178 29.9999 25.8409V29.8948C31.7977 28.8973 33.5519 27.8232 35.2576 26.6754C43.5845 21.0721 50.5255 13.9139 54.8371 6.58416L56.5441 12.9553C56.7546 13.7407 57.4648 14.2587 58.2409 14.2587C58.3949 14.2586 58.5483 14.2383 58.697 14.1983C59.6348 13.9471 60.1914 12.9832 59.9401 12.0455Z" fill="#E27C48"/>
<path d="M58.2422 60H1.75781C0.787031 60 0 59.213 0 58.2422C0 57.2714 0.787031 56.4844 1.75781 56.4844H58.2422C59.213 56.4844 60 57.2714 60 58.2422C60 59.213 59.213 60 58.2422 60Z" fill="#466288"/>
<path d="M58.2422 56.4844H30V60H58.2422C59.213 60 60 59.213 60 58.2422C60 57.2714 59.213 56.4844 58.2422 56.4844Z" fill="#354A67"/>
</svg>
