<svg width="58" height="57" viewBox="0 0 58 57" fill="none" xmlns="http://www.w3.org/2000/svg">
<path d="M50.7775 56.8421C51.6935 56.8421 52.4424 56.0988 52.4424 55.1768V47.9235H55.4386C56.3582 47.9235 57.1038 47.1779 57.1038 46.2582V14.1514C57.1038 13.2317 56.3582 12.4861 55.4386 12.4861H26.8996C25.98 12.4861 25.2344 13.2317 25.2344 14.1514V46.2582C25.2344 47.1779 25.98 47.9235 26.8996 47.9235H41.1691L49.5997 56.3542C49.7543 56.509 49.9379 56.6317 50.14 56.7154C50.3421 56.7991 50.5587 56.8422 50.7775 56.8421Z" fill="#437A9F"/>
<path d="M50.7763 56.8421C51.6924 56.8421 52.4413 56.0988 52.4413 55.1768V47.9235H55.4374C56.3571 47.9235 57.1027 47.1779 57.1027 46.2582V14.1514C57.1027 13.2317 56.3571 12.4861 55.4374 12.4861H41.168V47.9235L49.5986 56.3542C49.7532 56.509 49.9368 56.6317 50.1389 56.7154C50.341 56.7991 50.5576 56.8422 50.7763 56.8421Z" fill="#437A9F"/>
<path d="M48.1357 36.9356L45.0008 24.3952C44.7879 23.5402 44.2948 22.7811 43.6002 22.239C42.9055 21.697 42.0494 21.4032 41.1683 21.4045C40.2874 21.4035 39.4315 21.6974 38.7372 22.2395C38.0428 22.7815 37.55 23.5405 37.3373 24.3953L34.2024 36.9356C33.9794 37.8279 34.522 38.732 35.4142 38.9551C36.3065 39.1781 37.2106 38.6356 37.4336 37.7434L38.01 35.4374H44.3283L44.9047 37.7434C45.1277 38.6357 46.0318 39.1781 46.9241 38.9551C47.8163 38.732 48.3588 37.8279 48.1357 36.9356ZM38.8425 32.1068L40.5684 25.203C40.6019 25.0689 40.6794 24.95 40.7884 24.8652C40.8975 24.7804 41.0318 24.7345 41.1699 24.735C41.3078 24.7348 41.4418 24.7807 41.5505 24.8656C41.6592 24.9504 41.7363 25.0692 41.7696 25.203L43.4955 32.1068H38.8425Z" fill="#F5FAFF"/>
<path d="M6.58807 44.356C5.67206 44.356 4.92314 43.6127 4.92314 42.6907V35.4374H1.92699C1.00731 35.4374 0.261719 34.6918 0.261719 33.7722V1.66529C0.261719 0.745607 1.00731 0 1.92699 0H30.4659C31.3856 0 32.1312 0.745607 32.1312 1.66529V33.7722C32.1312 34.6918 31.3856 35.4374 30.4659 35.4374H16.1964L7.76586 43.8683C7.61122 44.023 7.4276 44.1457 7.2255 44.2294C7.02341 44.313 6.80681 44.3561 6.58807 44.356Z" fill="#E86820"/>
<path d="M30.4648 0H16.1953V35.4374H30.4648C31.3844 35.4374 32.13 34.6918 32.13 33.7722V1.66529C32.13 0.745607 31.3846 0 30.4648 0Z" fill="#E86820"/>
<path d="M23.8066 25.0404C21.9206 24.481 20.1585 23.5671 18.6147 22.3478C20.6951 19.9627 22.1683 17.11 22.9087 14.0329H23.3336C24.2533 14.0329 24.9989 13.2872 24.9989 12.3676C24.9989 11.4479 24.2533 10.7023 23.3336 10.7023H17.8641V8.80006C17.8641 7.88037 17.1185 7.13477 16.1989 7.13477C15.2792 7.13477 14.5336 7.88037 14.5336 8.80006V10.7022H9.06418C8.14451 10.7022 7.39891 11.4478 7.39891 12.3675C7.39891 13.2871 8.14451 14.0327 9.06418 14.0327H19.4607C18.8072 16.2565 17.6665 18.2821 16.199 20.006C15.8534 19.5847 15.5626 19.1491 15.2615 18.6902L14.0237 16.8047C13.5189 16.0359 12.4864 15.8217 11.7177 16.3265C10.9488 16.8313 10.7348 17.8638 11.2396 18.6325L12.4771 20.5176C12.8885 21.1439 13.3371 21.745 13.8204 22.3176C11.4988 24.1208 9.36448 24.7821 8.53995 25.0564C7.66702 25.3459 7.19408 26.2883 7.48351 27.1613C7.71531 27.8603 8.36555 28.3028 9.06385 28.3028C9.57298 28.3028 13.0199 27.2605 16.1989 24.6779C19.3759 27.3109 22.8165 28.3028 23.3342 28.3028C24.0528 28.3028 24.7158 27.8339 24.9303 27.11C25.1915 26.2282 24.6884 25.3016 23.8066 25.0404Z" fill="#F5FAFF"/>
<path d="M23.7991 25.0404C21.9131 24.481 20.1511 23.5671 18.6073 22.3478C20.6877 19.9627 22.1608 17.11 22.9012 14.0329H23.3262C24.2459 14.0329 24.9915 13.2872 24.9915 12.3676C24.9915 11.4479 24.2459 10.7023 23.3262 10.7023H17.8567V8.80006C17.8567 7.88037 17.1111 7.13477 16.1914 7.13477V14.0329H19.4531C18.7997 16.2566 17.659 18.2822 16.1914 20.0062V24.6782C19.3684 27.3112 22.8091 28.3031 23.3267 28.3031C24.0454 28.3031 24.7084 27.8343 24.9228 27.1103C25.1841 26.2282 24.6809 25.3016 23.7991 25.0404ZM44.8986 37.7433C45.1217 38.6356 46.0258 39.178 46.918 38.955C47.8103 38.7319 48.3528 37.8278 48.1298 36.9355L44.9949 24.3951C44.782 23.5402 44.289 22.7812 43.5945 22.2392C42.9001 21.6971 42.0441 21.4033 41.1631 21.4044V24.735L41.164 24.7349C41.3019 24.7347 41.4358 24.7806 41.5445 24.8655C41.6532 24.9503 41.7304 25.0691 41.7637 25.2029L43.4896 32.1067H41.1631V35.4373H44.3222L44.8986 37.7433Z" fill="#DFE9EE"/>
</svg>
