<svg width="834" height="556" viewBox="0 0 834 556" fill="none" xmlns="http://www.w3.org/2000/svg">
<circle cx="649.513" cy="183.6" r="161.1" stroke="#2C0005" stroke-opacity="0.05" stroke-width="45"/>
<g opacity="0.8">
<g opacity="0.5">
<g opacity="0.5">
<g opacity="0.5">
<g opacity="0.5">
<path opacity="0.5" d="M407.986 210.984C379.877 206.831 353.24 195.377 330.25 178.002C295.91 152.063 224.064 107.919 155.526 129.903C60.9814 160.23 60.5607 247.968 85.1873 295.622C109.814 343.276 284.433 482.846 510.829 460.639C713.417 440.772 752.888 213.301 644.844 172.14C551.141 136.455 519.163 227.423 407.986 210.984Z" fill="#E2EAF0"/>
</g>
</g>
</g>
</g>
<g opacity="0.5">
<g opacity="0.5">
<g opacity="0.5">
<g opacity="0.5">
<path opacity="0.5" d="M699.637 186.789C704.492 186.789 708.427 182.551 708.427 177.323C708.427 172.096 704.492 167.858 699.637 167.858C694.783 167.858 690.848 172.096 690.848 177.323C690.848 182.551 694.783 186.789 699.637 186.789Z" fill="#E2EAF0"/>
</g>
</g>
</g>
</g>
<g opacity="0.8">
<g opacity="0.8">
<g opacity="0.8">
<g opacity="0.8">
<path opacity="0.8" d="M126.13 114.974C128.83 114.483 131.554 115.969 132.5 118.543C134.113 122.93 129.882 127.856 124.178 125.645C119.258 122.006 121.408 115.852 126.13 114.974Z" fill="#E2EAF0"/>
</g>
</g>
</g>
</g>
<g opacity="0.8">
<g opacity="0.8">
<path opacity="0.8" d="M683.742 100.833C688.211 96.3601 688.211 89.1077 683.742 84.6346C679.274 80.1615 672.029 80.1614 667.56 84.6346C663.092 89.1077 663.092 96.3601 667.56 100.833C672.029 105.306 679.274 105.306 683.742 100.833Z" fill="#E2EAF0"/>
</g>
</g>
<g opacity="0.8">
<g opacity="0.8">
<path opacity="0.8" d="M160.821 105.942C162.539 112.096 158.962 118.484 152.814 120.204C146.666 121.924 140.285 118.344 138.567 112.189C136.848 106.035 140.425 99.647 146.573 97.9271C152.721 96.1955 159.102 99.7874 160.821 105.942Z" fill="#E2EAF0"/>
</g>
</g>
<g opacity="0.8">
<g opacity="0.8">
<g opacity="0.8">
<g opacity="0.8">
<path opacity="0.8" d="M618.183 450.682C620.743 449.688 623.7 450.647 625.103 452.999C627.51 457.012 624.261 462.628 618.242 461.528C612.737 458.861 613.695 452.414 618.183 450.682Z" fill="#E2EAF0"/>
</g>
</g>
</g>
</g>
<g opacity="0.8">
<g opacity="0.8">
<path opacity="0.8" d="M650.583 435.343C653.423 441.065 651.085 448.015 645.358 450.846C639.631 453.677 632.7 451.349 629.872 445.616C627.032 439.895 629.369 432.945 635.096 430.114C640.812 427.282 647.743 429.622 650.583 435.343Z" fill="#E2EAF0"/>
</g>
</g>
<g opacity="0.8">
<g opacity="0.8">
<path opacity="0.8" d="M661.137 75.1942C661.137 79.0903 657.981 82.2376 654.101 82.2376C650.209 82.2376 647.065 79.0786 647.065 75.1942C647.065 71.2981 650.221 68.1508 654.101 68.1508C657.981 68.1508 661.137 71.3098 661.137 75.1942Z" fill="#E2EAF0"/>
</g>
</g>
</g>
<g opacity="0.8">
<path opacity="0.8" d="M679.884 202.853C679.873 139.907 627.51 70.9236 562.35 66.7584C561.204 66.6882 560.047 66.618 558.879 66.5712C465.456 62.2071 458.338 176.27 373.811 189.14C289.283 202.01 224.73 137.064 123.594 179.429C32.7549 217.49 8.15167 431.319 275.047 439.895C488.587 446.751 679.908 390.673 679.884 202.853Z" fill="#E2EAF0"/>
</g>
<g filter="url(#filter0_d_557_9094)">
<path d="M422.117 517.056C540.73 517.056 636.884 512.09 636.884 505.965C636.884 499.839 540.73 494.873 422.117 494.873C303.505 494.873 207.35 499.839 207.35 505.965C207.35 512.09 303.505 517.056 422.117 517.056Z" fill="#CED3E6"/>
<path d="M561.799 505.906H276.799V493.551C276.799 483.266 285.133 474.924 295.406 474.924H543.192C553.466 474.924 561.799 483.266 561.799 493.551V505.906Z" fill="white"/>
<path d="M470.155 408.527H366.844V474.913H470.155V408.527Z" fill="white"/>
<path d="M366.844 428.908L470.143 420.636L470.166 408.527L366.856 408.644L366.844 428.908Z" fill="#CED3E6"/>
<path d="M639.538 134.373V394.733C639.538 402.361 633.355 408.551 625.734 408.551H202.184C194.564 408.551 188.381 402.361 188.381 394.733V134.373C188.381 126.744 194.564 120.555 202.184 120.555H625.734C625.944 120.555 626.143 120.555 626.342 120.567C626.494 120.578 626.646 120.578 626.786 120.59H626.798C626.903 120.602 627.008 120.602 627.113 120.625C627.289 120.637 627.464 120.66 627.651 120.684C627.768 120.695 627.885 120.719 628.001 120.742C628.06 120.754 628.107 120.754 628.165 120.766C628.282 120.777 628.387 120.801 628.504 120.836C634.804 122.123 639.538 127.692 639.538 134.373Z" fill="white"/>
<path d="M424.632 397.071C428.621 393.628 429.065 387.599 425.625 383.607C422.185 379.614 416.163 379.169 412.174 382.613C408.186 386.057 407.741 392.085 411.182 396.078C414.622 400.07 420.644 400.515 424.632 397.071Z" fill="#CED3E6"/>
<path d="M628.516 120.836C628.399 120.812 628.294 120.789 628.177 120.766C628.118 120.754 628.072 120.742 628.013 120.742C627.896 120.719 627.779 120.695 627.663 120.684C627.487 120.66 627.312 120.637 627.125 120.625C627.02 120.614 626.914 120.602 626.809 120.59H626.798C626.646 120.578 626.505 120.567 626.354 120.567C626.155 120.555 625.944 120.555 625.746 120.555H202.184C194.564 120.555 188.381 126.744 188.381 134.373V375.475H639.538V134.373C639.538 127.692 634.804 122.123 628.516 120.836ZM621.643 351.384C621.643 353.467 619.96 355.14 617.891 355.14H210.027C207.946 355.14 206.275 353.455 206.275 351.384V142.223C206.275 140.141 207.958 138.468 210.027 138.468H617.891C619.972 138.468 621.643 140.153 621.643 142.223V351.384Z" fill="#39393B"/>
<path d="M621.644 142.223V351.384C621.644 353.467 619.96 355.14 617.892 355.14H210.027C207.947 355.14 206.275 353.455 206.275 351.384V142.223C206.275 140.141 207.958 138.468 210.027 138.468H617.892C619.96 138.468 621.644 140.152 621.644 142.223Z" fill="#CED3E6"/>
<path d="M621.644 142.223V161.961H206.275V142.223C206.275 140.141 207.958 138.468 210.027 138.468H617.892C619.96 138.468 621.644 140.152 621.644 142.223Z" fill="white"/>
<path d="M589.467 149.899C589.467 151.665 588.041 153.093 586.276 153.093C584.511 153.093 583.085 151.665 583.085 149.899C583.085 148.132 584.511 146.704 586.276 146.704C588.041 146.704 589.467 148.132 589.467 149.899Z" fill="#C17951"/>
<path d="M599.81 149.899C599.81 151.665 598.384 153.093 596.62 153.093C594.855 153.093 593.429 151.665 593.429 149.899C593.429 148.132 594.855 146.704 596.62 146.704C598.384 146.704 599.81 148.132 599.81 149.899Z" fill="#21B573"/>
<path d="M570.134 153.28H245.383C243.817 153.28 242.543 151.993 242.543 150.437V149.372C242.543 147.804 243.829 146.529 245.383 146.529H570.134C571.701 146.529 572.975 147.816 572.975 149.372V150.437C572.986 151.993 571.701 153.28 570.134 153.28Z" fill="#D2DCEC"/>
<path d="M221.271 149.899V153.022C221.271 153.467 220.792 153.736 220.406 153.514L217.706 151.946L215.006 150.378C214.621 150.156 214.621 149.606 215.006 149.384L217.706 147.816L220.406 146.248C220.792 146.026 221.271 146.307 221.271 146.74V149.899Z" fill="black"/>
<path d="M226.028 149.899V153.022C226.028 153.467 226.507 153.736 226.893 153.514L229.593 151.946L232.293 150.378C232.679 150.156 232.679 149.606 232.293 149.384L229.593 147.816L226.893 146.248C226.507 146.026 226.028 146.307 226.028 146.74V149.899Z" fill="black"/>
<path d="M604.135 152.59L603.948 152.402C603.644 152.098 603.644 151.619 603.948 151.314L608.284 146.974C608.588 146.669 609.067 146.669 609.371 146.974L609.558 147.161C609.862 147.465 609.862 147.945 609.558 148.249L605.222 152.59C604.918 152.894 604.427 152.894 604.135 152.59Z" fill="#39393B"/>
<path d="M609.348 152.59L609.535 152.402C609.839 152.098 609.839 151.619 609.535 151.314L605.198 146.974C604.895 146.669 604.415 146.669 604.111 146.974L603.925 147.161C603.621 147.465 603.621 147.945 603.925 148.249L608.261 152.59C608.565 152.894 609.055 152.894 609.348 152.59Z" fill="#39393B"/>
<path d="M565.455 346.493H260.118C255.968 346.493 252.614 343.123 252.614 338.981V174.011C252.614 169.858 255.98 166.5 260.118 166.5H565.455C569.604 166.5 572.959 169.87 572.959 174.011V338.993C572.97 343.135 569.604 346.493 565.455 346.493Z" fill="white"/>
<path d="M340.987 299.038H266.827C264.886 299.038 263.309 297.458 263.309 295.516V256.941C263.309 254.999 264.886 253.419 266.827 253.419H340.987C342.927 253.419 344.505 254.999 344.505 256.941V295.516C344.505 297.458 342.927 299.038 340.987 299.038Z" fill="#CED3E6"/>
<path d="M557.192 222.847H483.031C481.091 222.847 479.513 221.268 479.513 219.326V180.751C479.513 178.808 481.091 177.229 483.031 177.229H557.192C559.132 177.229 560.71 178.808 560.71 180.751V219.326C560.71 221.268 559.132 222.847 557.192 222.847Z" fill="#CED3E6"/>
<path d="M393.947 219.875H316.35C315.322 219.875 314.48 219.045 314.48 218.003V217.828C314.48 216.798 315.31 215.956 316.35 215.956H393.947C394.975 215.956 395.817 216.787 395.817 217.828V218.003C395.805 219.033 394.975 219.875 393.947 219.875Z" fill="#CED3E6"/>
<path d="M393.947 203.343H316.35C315.322 203.343 314.48 202.513 314.48 201.471V201.296C314.48 200.266 315.31 199.424 316.35 199.424H393.947C394.975 199.424 395.817 200.255 395.817 201.296V201.471C395.805 202.513 394.975 203.343 393.947 203.343Z" fill="#CED3E6"/>
<path d="M393.947 236.396H316.35C315.322 236.396 314.48 235.565 314.48 234.524V234.348C314.48 233.319 315.31 232.476 316.35 232.476H393.947C394.975 232.476 395.817 233.307 395.817 234.348V234.524C395.805 235.565 394.975 236.396 393.947 236.396Z" fill="#CED3E6"/>
<path d="M512.951 258.591H435.483C434.455 258.591 433.613 257.76 433.613 256.719V256.543C433.613 255.514 434.443 254.671 435.483 254.671H512.951C513.98 254.671 514.821 255.502 514.821 256.543V256.719C514.81 257.76 513.98 258.591 512.951 258.591Z" fill="#CED3E6"/>
<path d="M512.951 242.07H435.483C434.455 242.07 433.613 241.24 433.613 240.198V240.023C433.613 238.993 434.443 238.151 435.483 238.151H512.951C513.98 238.151 514.821 238.982 514.821 240.023V240.198C514.81 241.228 513.98 242.07 512.951 242.07Z" fill="#CED3E6"/>
<path d="M512.951 275.123H435.483C434.455 275.123 433.613 274.292 433.613 273.251V273.075C433.613 272.046 434.443 271.203 435.483 271.203H512.951C513.98 271.203 514.821 272.034 514.821 273.075V273.251C514.81 274.281 513.98 275.123 512.951 275.123Z" fill="#CED3E6"/>
<path d="M252.614 318.542H572.97V344.831C572.97 345.744 572.222 346.493 571.311 346.493H254.274C253.35 346.493 252.614 345.744 252.614 344.831V318.542V318.542Z" fill="#39393B"/>
<path d="M549.992 328.908V326.533H552.949V324.427H548.928C548.344 324.427 547.876 324.895 547.876 325.48V328.908H549.992Z" fill="white"/>
<path d="M549.992 333.12H547.888V336.723C547.888 337.308 548.355 337.776 548.94 337.776H552.961V335.67H550.003V333.12H549.992Z" fill="white"/>
<path d="M559.12 328.908H561.224V325.48C561.224 324.895 560.756 324.427 560.172 324.427H556.315V326.533H559.12V328.908Z" fill="white"/>
<path d="M559.12 333.12V335.67H556.315V337.776H560.172C560.756 337.776 561.224 337.308 561.224 336.723V333.12H559.12V333.12Z" fill="white"/>
<path d="M572.97 313.288H252.614V318.542H572.97V313.288Z" fill="#CED3E6"/>
<path d="M275.885 171.987H279.496V179.908H284.335V182.716H275.885V171.987V171.987Z" fill="#39393B"/>
<path d="M285.329 171.987H288.94V182.716H285.329V171.987Z" fill="#39393B"/>
<path d="M302.148 171.987L297.613 182.716H294.06L289.525 171.987H293.417L295.977 178.259L298.595 171.987H302.148Z" fill="#39393B"/>
<path d="M311.416 179.978V182.705H302.499V171.976H311.218V174.702H306.052V175.954H310.587V178.563H306.052V179.978H311.416V179.978Z" fill="#39393B"/>
<path d="M269.936 177.264C269.936 179.698 267.96 181.675 265.529 181.675C263.098 181.675 261.123 179.698 261.123 177.264C261.123 174.83 263.098 172.853 265.529 172.853C267.96 172.853 269.936 174.819 269.936 177.264Z" fill="#C17951"/>
<path d="M531.221 295.469C531.221 297.61 529.491 299.342 527.352 299.342C525.213 299.342 523.483 297.61 523.483 295.469C523.483 293.328 525.213 291.596 527.352 291.596C529.491 291.585 531.221 293.328 531.221 295.469Z" fill="#C17951"/>
<path d="M534.587 305.274H520.117C520.117 305.274 521.765 300.676 527.247 300.676C527.282 300.676 527.317 300.676 527.352 300.676C527.387 300.676 527.422 300.676 527.457 300.676C532.939 300.664 534.587 305.274 534.587 305.274Z" fill="#C17951"/>
<path d="M547.935 293.117V295.551L544.031 304.853H539.706L543.423 296.183H541.167V297.891H537.906V293.117H547.935Z" fill="#39393B"/>
<path d="M558.22 301.787V304.853H548.823V302.419L553.054 298.499C553.86 297.751 553.977 297.294 553.977 296.885C553.977 296.312 553.592 295.961 552.844 295.961C552.142 295.961 551.476 296.347 551.114 297.049L548.133 295.563C548.987 293.948 550.681 292.848 553.206 292.848C555.988 292.848 557.94 294.287 557.94 296.522C557.94 297.68 557.636 298.722 555.929 300.266L554.258 301.787H558.22Z" fill="#39393B"/>
</g>
<path d="M718.643 216.074C736.027 216.074 750.119 202.14 750.119 184.952C750.119 167.763 736.027 153.83 718.643 153.83C701.26 153.83 687.167 167.763 687.167 184.952C687.167 202.14 701.26 216.074 718.643 216.074Z" fill="#CED3E6"/>
<path d="M718.643 212.025C736.027 212.025 750.119 198.092 750.119 180.903C750.119 163.715 736.027 149.781 718.643 149.781C701.26 149.781 687.168 163.715 687.168 180.903C687.168 198.092 701.26 212.025 718.643 212.025Z" fill="#E88F20"/>
<path d="M718.642 206.199C732.779 206.199 744.239 194.874 744.239 180.904C744.239 166.933 732.779 155.608 718.642 155.608C704.506 155.608 693.046 166.933 693.046 180.904C693.046 194.874 704.506 206.199 718.642 206.199Z" fill="white"/>
<path d="M744.239 180.904C744.239 181.582 744.216 182.249 744.157 182.904C743.117 169.882 732.072 159.598 718.642 159.598C705.213 159.598 694.168 169.882 693.128 182.904C693.081 182.249 693.046 181.582 693.046 180.904C693.046 166.957 704.523 155.608 718.642 155.608C732.75 155.608 744.239 166.957 744.239 180.904Z" fill="#CED3E6"/>
<path d="M718.642 183.536C718.444 183.536 718.257 183.442 718.128 183.279L705.575 166.571C705.365 166.29 705.423 165.892 705.704 165.682C705.984 165.471 706.393 165.53 706.604 165.81L718.853 182.12L732.773 176.083C733.1 175.943 733.474 176.083 733.615 176.411C733.755 176.727 733.615 177.101 733.287 177.241L718.899 183.489C718.818 183.524 718.724 183.536 718.642 183.536Z" fill="#39393B"/>
<path d="M78.1164 222.556H69.5958C68.8244 222.556 68.205 221.936 68.205 221.163V175.697C68.205 174.925 68.8244 174.305 69.5958 174.305H78.1164C78.8878 174.305 79.5072 174.925 79.5072 175.697V221.163C79.5072 221.936 78.8878 222.556 78.1164 222.556Z" fill="#62A3CF"/>
<path d="M76.4333 200.08H71.2906C70.5426 200.08 69.9231 199.471 69.9231 198.711V198.138C69.9231 197.389 70.5309 196.769 71.2906 196.769H76.4333C77.1813 196.769 77.8008 197.377 77.8008 198.138V198.711C77.7891 199.471 77.1813 200.08 76.4333 200.08Z" fill="#3D759B"/>
<path d="M79.5072 178.201H68.205V180.061H79.5072V178.201Z" fill="#3D759B"/>
<path d="M79.5072 182.097H68.205V183.957H79.5072V182.097Z" fill="#3D759B"/>
<path d="M79.5072 210.856H68.205V212.716H79.5072V210.856Z" fill="#3D759B"/>
<path d="M79.5072 214.752H68.205V216.612H79.5072V214.752Z" fill="#3D759B"/>
<path d="M56.5637 222.556H45.9627C45.7757 222.556 45.6121 222.404 45.6121 222.205V174.656C45.6121 174.469 45.764 174.305 45.9627 174.305H56.5637C56.7507 174.305 56.9144 174.457 56.9144 174.656V222.205C56.9144 222.404 56.7507 222.556 56.5637 222.556Z" fill="#21B573"/>
<path d="M53.8287 200.08H48.686C47.938 200.08 47.3185 199.471 47.3185 198.711V198.138C47.3185 197.389 47.9263 196.769 48.686 196.769H53.8287C54.5767 196.769 55.1962 197.377 55.1962 198.138V198.711C55.1962 199.471 54.5767 200.08 53.8287 200.08Z" fill="#217C58"/>
<path d="M56.9144 178.201H45.6121V180.061H56.9144V178.201Z" fill="#217C58"/>
<path d="M56.9144 182.097H45.6121V183.957H56.9144V182.097Z" fill="#217C58"/>
<path d="M56.9144 210.856H45.6121V212.716H56.9144V210.856Z" fill="#217C58"/>
<path d="M56.9144 214.752H45.6121V216.612H56.9144V214.752Z" fill="#217C58"/>
<path d="M66.8139 222.556H58.2933C57.5219 222.556 56.9025 221.935 56.9025 221.163V175.697C56.9025 174.925 57.5219 174.305 58.2933 174.305H66.8139C67.5853 174.305 68.2048 174.925 68.2048 175.697V221.163C68.2048 221.935 67.5853 222.556 66.8139 222.556Z" fill="#C17951"/>
<path d="M65.1311 200.08H59.9883C59.2403 200.08 58.6208 199.471 58.6208 198.711V198.138C58.6208 197.389 59.2286 196.769 59.9883 196.769H65.1311C65.8791 196.769 66.4986 197.377 66.4986 198.138V198.711C66.4986 199.471 65.8791 200.08 65.1311 200.08Z" fill="#9B491B"/>
<path d="M68.2166 178.201H56.9143V180.061H68.2166V178.201Z" fill="#9B491B"/>
<path d="M68.2166 182.097H56.9143V183.957H68.2166V182.097Z" fill="#9B491B"/>
<path d="M68.2166 210.856H56.9143V212.716H68.2166V210.856Z" fill="#9B491B"/>
<path d="M68.2166 214.752H56.9143V216.612H68.2166V214.752Z" fill="#9B491B"/>
<path d="M97.8691 220.859L87.3967 222.544C87.2097 222.579 87.0227 222.45 86.9993 222.251L79.4372 175.311C79.4021 175.124 79.5307 174.937 79.7294 174.913L90.2018 173.228C90.3888 173.193 90.5758 173.322 90.5992 173.521L98.1613 220.461C98.1847 220.648 98.0561 220.824 97.8691 220.859Z" fill="#F3AF00"/>
<path d="M92.6446 198.933L85.4798 200.092C85.3162 200.115 85.1642 200.01 85.1292 199.846L84.6967 197.178C84.6733 197.014 84.7785 196.862 84.9422 196.827L92.1069 195.669C92.2705 195.646 92.4225 195.751 92.4576 195.915L92.89 198.582C92.9134 198.746 92.8082 198.91 92.6446 198.933Z" fill="#C77E2E"/>
<path d="M91.1739 177.01L80.0151 178.811L80.311 180.648L91.4698 178.847L91.1739 177.01Z" fill="#C77E2E"/>
<path d="M91.794 180.86L80.6353 182.661L80.9311 184.497L92.0899 182.696L91.794 180.86Z" fill="#C77E2E"/>
<path d="M96.3631 209.247L85.2043 211.048L85.5002 212.885L96.659 211.083L96.3631 209.247Z" fill="#C77E2E"/>
<path d="M96.9871 213.093L85.8284 214.894L86.1242 216.731L97.283 214.93L96.9871 213.093Z" fill="#C77E2E"/>
<g opacity="0.8">
<g opacity="0.8">
<g opacity="0.8">
<path opacity="0.8" d="M126.926 235.484H24.5737L22.3296 229.529H129.485L126.926 235.484Z" fill="#CED3E6"/>
</g>
</g>
</g>
<path d="M129.485 222.45H22.3296V229.529H129.485V222.45Z" fill="#39393B"/>
<path d="M33.2458 229.529L36.1094 235.543H42.8651L44.7936 229.529H33.2458Z" fill="#39393B"/>
<path d="M118.569 229.529L115.705 235.543H108.949L107.032 229.529H118.569Z" fill="#39393B"/>
<path d="M630.912 556.006C716.151 556.006 785.252 551.936 785.252 546.915C785.252 541.894 716.151 537.824 630.912 537.824C545.672 537.824 476.572 541.894 476.572 546.915C476.572 551.936 545.672 556.006 630.912 556.006Z" fill="#CED3E6"/>
<path d="M683.321 551.174C635.108 549.477 585.235 542.89 559.416 453.947C551.737 427.505 556.728 407.486 565.155 392.393C567.235 388.661 569.526 385.244 571.887 382.097C572.775 380.915 573.675 379.769 574.575 378.657C593.417 355.526 625.009 347.231 653.025 357.457C668.734 363.19 688.884 371.66 706.849 382.682C742.941 404.83 751.415 430.079 763.208 473.38C764.225 477.101 765.23 481.266 766.001 485.7C766.411 488.064 766.75 490.509 766.983 492.989C769.601 520.683 758.93 553.829 683.321 551.174Z" fill="#39393B"/>
<path d="M766.983 492.989C765.382 497.494 763.103 502.08 760.064 506.433C750.947 519.513 731.954 535.308 693.29 536.338C691.584 536.385 689.913 536.408 688.253 536.408C673.479 536.408 660.447 534.618 648.537 530.979C636.078 527.177 625.208 521.42 615.296 513.418C598.735 500.033 585.071 480.459 571.034 449.957C565.482 437.906 562.607 425.691 562.49 413.652C562.42 406.48 563.308 399.354 565.167 392.405C567.247 388.672 569.538 385.256 571.899 382.109C571.303 383.489 570.718 384.94 570.169 386.449C565.12 400.314 561.637 422.38 573.757 448.705C598.407 502.256 626.984 535.086 693.22 533.354C730.645 532.372 748.902 517.244 757.621 504.736C762.18 498.208 764.751 491.597 766.013 485.712C766.411 488.064 766.75 490.509 766.983 492.989Z" fill="#585859"/>
<path d="M698.012 328.85C698.012 328.85 728.284 369.964 735.192 390.451C742.099 410.926 725.339 425.48 725.339 425.48L709.77 431.33C709.77 431.319 693.769 359.013 698.012 328.85Z" fill="#5A99C3"/>
<path d="M695.336 444.025C682.105 448.412 649.776 459.925 635.739 455.269C635.143 455.07 634.593 454.847 634.067 454.59C632.536 453.841 631.309 452.835 630.444 451.525C624.939 443.136 619.481 407.93 621.935 387.245C622.239 384.659 622.391 381.851 622.438 378.903C622.508 374.562 622.368 369.917 622.181 365.249C621.491 347.675 618.721 335.543 626.236 331.272C632.98 327.434 641.513 324.439 646.948 323.141C650.314 322.333 655.83 320.648 659.699 320.719L676.436 323.761C676.436 323.761 690.883 326.171 694.214 328.64C697.545 331.097 699.251 341.942 705.271 351.876C711.29 361.809 712.599 371.777 706.849 382.682C701.846 392.171 702.723 388.567 702.068 404.128C701.262 423.199 721.178 435.449 695.336 444.025Z" fill="white"/>
<g opacity="0.8">
<g opacity="0.8">
<path opacity="0.8" d="M650.898 354.672C650.898 354.672 669.038 349.98 692.192 354.309L692.753 370.326C692.753 370.326 667.296 367.495 651.26 371.578L650.898 354.672Z" fill="#CED3E6"/>
</g>
</g>
<g opacity="0.8">
<path opacity="0.8" d="M671.738 341.147C671.493 341.147 671.247 341.135 670.99 341.123C661.079 340.608 651.985 331.857 651.611 331.482C651.343 331.225 651.343 330.792 651.6 330.523C651.857 330.254 652.289 330.254 652.558 330.511C652.652 330.593 661.663 339.286 671.06 339.766C680.06 340.246 681.147 331.307 681.194 330.921C681.24 330.546 681.568 330.277 681.942 330.324C682.316 330.359 682.585 330.698 682.538 331.073C682.538 331.166 681.346 341.147 671.738 341.147Z" fill="#CED3E6"/>
</g>
<g opacity="0.8">
<path opacity="0.8" d="M643.64 421.327C643.57 421.268 643.512 421.21 643.453 421.128C643.254 420.789 643.36 420.356 643.687 420.157C656.579 412.341 668.945 409.592 677.044 408.656C685.846 407.638 691.514 408.457 691.748 408.492C692.134 408.55 692.402 408.913 692.344 409.299C692.286 409.685 691.923 409.954 691.538 409.896C691.479 409.884 685.775 409.065 677.15 410.071C669.202 410.996 657.058 413.71 644.412 421.374C644.178 421.526 643.874 421.502 643.64 421.327Z" fill="#CED3E6"/>
</g>
<path d="M660.494 450.401C648.584 446.622 637.808 439.017 630.456 432.243C629.871 431.705 629.31 431.178 628.773 430.652C624.962 426.943 622.274 428.85 621.105 426.721C616.652 418.566 619.177 386.566 621.105 374.808C623.034 363.061 614.934 341.533 619.294 333.834C623.653 326.136 638.672 323.445 638.672 323.445C638.672 323.445 636.545 320.964 640.578 318.121C644.61 315.278 655.34 316.46 655.34 316.46C655.854 367.308 663.042 414.553 660.494 450.401Z" fill="#62A3CF"/>
<path d="M648.783 435.823C648.455 435.823 648.175 435.589 648.128 435.262C642.705 399.986 648.07 333.624 648.128 332.957C648.163 332.594 648.479 332.325 648.841 332.348C649.203 332.384 649.484 332.699 649.449 333.062C649.39 333.729 644.049 399.928 649.449 435.051C649.507 435.414 649.25 435.753 648.888 435.812C648.853 435.812 648.818 435.823 648.783 435.823Z" fill="white"/>
<path d="M659.687 441.111C659.372 441.111 659.091 440.889 659.033 440.561C651.938 400.044 651.377 330.125 651.377 329.423C651.377 329.06 651.669 328.756 652.032 328.756C652.394 328.756 652.698 329.049 652.698 329.411C652.698 330.113 653.271 399.916 660.342 440.327C660.4 440.69 660.167 441.029 659.804 441.1C659.758 441.111 659.722 441.111 659.687 441.111Z" fill="#5A99C3"/>
<path d="M647.918 329.014C647.859 329.014 647.801 329.002 647.742 328.99C642.132 327.493 638.696 324.182 638.544 324.041C638.287 323.784 638.275 323.363 638.532 323.105C638.789 322.848 639.21 322.836 639.467 323.094C639.502 323.129 642.81 326.311 648.07 327.715C648.42 327.809 648.631 328.171 648.537 328.534C648.479 328.827 648.21 329.014 647.918 329.014Z" fill="#5A99C3"/>
<path d="M712.097 428.195C712.097 428.195 707.854 442.504 692.052 449.325C690.088 410.528 685.647 366.22 679.908 319.092C679.908 319.092 685.95 318.028 688.463 321.491C689.55 322.977 689.784 325.504 689.784 325.504C689.784 325.504 692.87 326.101 696.248 327.68C699.625 329.26 699.24 331.424 700.046 336.923C700.853 342.422 709.338 350.928 712.097 362.453C714.855 373.977 707.538 381.325 705.259 391.001C702.968 400.653 712.097 428.195 712.097 428.195Z" fill="#62A3CF"/>
<path d="M698.527 434.197C698.165 434.197 697.872 433.916 697.861 433.553C696.33 380.775 686.699 333.612 686.605 333.144C686.535 332.781 686.757 332.43 687.12 332.36C687.482 332.29 687.832 332.512 687.903 332.875C687.996 333.343 697.65 380.611 699.182 433.518C699.193 433.881 698.901 434.197 698.539 434.197C698.539 434.197 698.539 434.197 698.527 434.197Z" fill="white"/>
<path d="M683.987 330.476C683.671 330.476 683.391 330.242 683.332 329.927C683.274 329.564 683.519 329.225 683.87 329.154C683.917 329.143 688.171 328.37 689.141 325.293C689.246 324.942 689.62 324.743 689.971 324.86C690.322 324.966 690.509 325.34 690.404 325.691C689.176 329.552 684.291 330.43 684.092 330.465C684.057 330.476 684.022 330.476 683.987 330.476Z" fill="#5A99C3"/>
<path d="M696.984 434.197C696.657 434.197 696.365 433.951 696.33 433.612C691.655 394.698 684.268 332.512 684.198 331.892C684.151 331.529 684.42 331.202 684.782 331.155C685.144 331.108 685.472 331.377 685.518 331.74C685.589 332.36 692.975 394.557 697.651 433.46C697.697 433.822 697.44 434.15 697.066 434.197C697.031 434.197 697.008 434.197 696.984 434.197Z" fill="#5A99C3"/>
<path d="M657.724 462.136C659.746 463.587 662.925 465.096 667.705 466.617C694.822 475.252 719.682 461.317 719.682 461.317C721.19 453.888 720.255 445.44 717.753 442.34C718.537 441.24 718.022 439.93 718.022 439.93L742.976 414.002C728.787 425.773 711.232 429.622 697.568 437.894C697.568 437.894 697.568 437.894 697.557 437.894C693.618 440.281 690.076 442.375 687.481 443.837C683.519 446.06 678.47 446.283 673.514 445.592C663.86 444.259 654.603 439.497 654.603 439.497C654.603 439.497 623.525 425.398 617.704 425.866C613.181 426.217 637.562 451.7 657.724 462.136Z" fill="#9B491B"/>
<path d="M705.749 483.864C705.749 483.864 697.754 481.559 695.288 478.961L689.724 492.065L708.647 497.974C708.659 497.974 708.916 486.473 705.749 483.864Z" fill="#EA9B7A"/>
<path d="M751.414 521.724L726.951 467.378C726.04 467.308 724.894 467.554 723.608 468.022C718.863 469.753 712.189 474.527 707.9 477.323C707.397 477.651 706.93 477.955 706.497 478.224C705.773 478.669 705.153 479.019 704.686 479.242C700.91 480.938 702.897 482.974 702.897 482.974C709.934 486.496 705.644 496.932 709.934 499.366C709.934 499.366 711.757 500.43 717.578 502.993C723.398 505.555 729.254 511.744 734.677 516.81C741.678 523.362 746.073 524.123 748.586 523.526C750.596 523.058 751.414 521.724 751.414 521.724Z" fill="#F3AF00"/>
<path d="M751.414 521.724L726.951 467.378C726.039 467.308 724.894 467.554 723.608 468.022L748.585 523.526C750.596 523.058 751.414 521.724 751.414 521.724Z" fill="#C77E2E"/>
<path d="M729.452 472.924L728.727 471.309C727.617 473.754 725.466 476.527 721.352 478.154C715.871 480.306 710.798 478.715 707.911 477.335C707.409 477.662 706.941 477.966 706.509 478.236C709.442 479.815 715.298 482.061 721.867 479.487C725.794 477.92 728.096 475.357 729.452 472.924Z" fill="#C77E2E"/>
<path d="M720.371 500.629C720.195 500.232 719.751 499.986 719.295 500.068C718.758 500.161 718.407 500.676 718.5 501.214L719.19 504.993C719.284 505.532 719.798 505.883 720.336 505.789C720.873 505.695 721.224 505.181 721.13 504.642L720.441 500.863C720.429 500.781 720.406 500.7 720.371 500.629Z" fill="white"/>
<path d="M716.034 498.523C715.859 498.126 715.415 497.88 714.959 497.962C714.422 498.055 714.071 498.57 714.164 499.108L714.854 502.888C714.947 503.426 715.462 503.777 715.999 503.683C716.537 503.59 716.888 503.075 716.794 502.537L716.105 498.757C716.093 498.676 716.07 498.594 716.034 498.523Z" fill="white"/>
<path d="M723.877 503.133C723.702 502.735 723.258 502.49 722.802 502.572C722.264 502.665 721.913 503.18 722.007 503.718L722.697 507.497C722.79 508.035 723.304 508.386 723.842 508.293C724.38 508.199 724.73 507.684 724.637 507.146L723.947 503.367C723.924 503.285 723.9 503.203 723.877 503.133Z" fill="white"/>
<path d="M727.302 505.672C727.126 505.274 726.682 505.029 726.226 505.11C725.689 505.204 725.338 505.719 725.432 506.257L726.121 510.036C726.215 510.574 726.729 510.925 727.267 510.832C727.804 510.738 728.155 510.223 728.061 509.685L727.372 505.906C727.348 505.824 727.325 505.742 727.302 505.672Z" fill="white"/>
<path d="M730.715 508.585C730.539 508.188 730.095 507.942 729.64 508.024C729.102 508.117 728.751 508.632 728.845 509.17L729.534 512.949C729.628 513.488 730.142 513.839 730.68 513.745C731.217 513.651 731.568 513.137 731.475 512.598L730.785 508.819C730.773 508.737 730.75 508.656 730.715 508.585Z" fill="white"/>
<path d="M734.011 511.932C733.836 511.534 733.391 511.288 732.936 511.37C732.398 511.464 732.047 511.978 732.141 512.517L732.83 516.296C732.924 516.834 733.438 517.185 733.976 517.091C734.513 516.998 734.864 516.483 734.771 515.945L734.081 512.166C734.069 512.072 734.046 512.002 734.011 511.932Z" fill="white"/>
<path d="M617.704 425.855C617.704 425.855 598.033 415.231 586.649 423.445C565.821 438.467 601.166 467.355 641.606 481.465C682.047 495.575 695.172 493.645 695.172 493.645C695.172 493.645 703.962 491.223 700.841 476.972C700.841 476.972 677.535 468.104 665.403 458.814C653.271 449.524 645.007 438.14 617.704 425.855Z" fill="#C17951"/>
<path d="M699.263 481.126C690.778 479.09 673.503 471.146 653.037 459.902C637.726 451.49 620.077 440.737 617.482 437.005C616.08 434.993 615.729 433.343 616.43 432.103C617.482 430.254 620.521 430.067 621.9 430.079C622.251 430.079 622.531 430.383 622.508 430.734C622.485 431.061 622.216 431.307 621.889 431.307C620.533 431.295 618.16 431.529 617.494 432.711C616.933 433.694 617.728 435.203 618.487 436.291C620.579 439.298 635.353 448.775 653.621 458.814C669.353 467.46 689.679 477.545 699.544 479.921L699.263 481.126Z" fill="#9B491B"/>
<path d="M697.661 475.088C696.703 482.576 694.763 489.386 690.543 494.616C690.543 494.616 694.166 497.225 697.474 495.353C699.999 493.925 704.873 482.225 703.014 475.977C700.899 474.807 699.075 474.41 697.661 475.088Z" fill="#9B491B"/>
<path d="M646.351 482.389C646.351 482.389 654.393 480.833 656.672 478.072L663.089 490.766L644.61 497.927C644.598 497.939 643.359 485.197 646.351 482.389Z" fill="#EA9B7A"/>
<path d="M603.527 524.486L624.308 468.63C625.22 468.49 626.365 468.665 627.686 469.051C632.536 470.467 639.514 474.773 643.979 477.288C644.505 477.581 644.984 477.85 645.44 478.084C646.199 478.481 646.831 478.797 647.322 478.973C651.202 480.412 649.589 481.512 649.589 481.512C641.945 485.104 647.544 496.687 643.429 499.413C643.429 499.413 641.676 500.594 636.043 503.543C630.409 506.491 624.974 513.055 619.902 518.472C613.356 525.469 609.02 526.533 606.472 526.1C604.438 525.761 603.527 524.486 603.527 524.486Z" fill="#F3AF00"/>
<path d="M603.527 524.486L624.308 468.63C625.22 468.49 626.365 468.665 627.686 469.051L606.46 526.1C604.438 525.761 603.527 524.486 603.527 524.486Z" fill="#C77E2E"/>
<path d="M622.18 474.328L622.8 472.667C624.074 475.03 626.4 477.662 630.619 478.996C636.229 480.786 641.185 478.856 643.979 477.276C644.505 477.569 644.984 477.838 645.44 478.072C642.623 479.85 636.919 482.483 630.198 480.342C626.166 479.067 623.688 476.668 622.18 474.328Z" fill="#C77E2E"/>
<path d="M633.086 501.367C633.238 500.957 633.658 500.676 634.114 500.735C634.652 500.793 635.037 501.285 634.979 501.823L634.547 505.637C634.488 506.175 633.997 506.561 633.46 506.503C632.922 506.444 632.536 505.953 632.595 505.415L633.027 501.601C633.039 501.519 633.062 501.437 633.086 501.367Z" fill="white"/>
<path d="M637.281 498.98C637.433 498.57 637.854 498.289 638.31 498.348C638.847 498.406 639.233 498.898 639.175 499.436L638.742 503.25C638.684 503.788 638.193 504.175 637.655 504.116C637.118 504.058 636.732 503.566 636.79 503.028L637.223 499.214C637.234 499.132 637.258 499.05 637.281 498.98Z" fill="white"/>
<path d="M629.766 504.093C629.918 503.683 630.339 503.414 630.795 503.461C631.332 503.519 631.718 504.011 631.66 504.549L631.227 508.363C631.169 508.901 630.678 509.288 630.14 509.229C629.603 509.171 629.217 508.679 629.275 508.141L629.708 504.327C629.719 504.245 629.731 504.175 629.766 504.093Z" fill="white"/>
<path d="M626.517 506.866C626.669 506.456 627.089 506.187 627.545 506.234C628.083 506.293 628.469 506.784 628.41 507.322L627.978 511.136C627.919 511.675 627.428 512.061 626.891 512.002C626.353 511.944 625.967 511.452 626.026 510.914L626.458 507.1C626.47 507.018 626.493 506.936 626.517 506.866Z" fill="white"/>
<path d="M623.303 509.99C623.455 509.58 623.875 509.311 624.331 509.358C624.869 509.416 625.255 509.908 625.196 510.446L624.764 514.26C624.705 514.798 624.214 515.184 623.677 515.126C623.139 515.067 622.753 514.576 622.812 514.038L623.244 510.224C623.256 510.142 623.279 510.071 623.303 509.99Z" fill="white"/>
<path d="M620.228 513.546C620.38 513.137 620.801 512.856 621.257 512.915C621.795 512.973 622.18 513.464 622.122 514.003L621.689 517.817C621.631 518.355 621.14 518.741 620.602 518.683C620.065 518.624 619.679 518.133 619.737 517.595L620.17 513.78C620.182 513.698 620.205 513.617 620.228 513.546Z" fill="white"/>
<path d="M734.958 417.232C734.958 417.232 753.566 404.842 765.663 411.979C787.788 425.024 755.237 457.035 716.257 474.796C677.29 492.557 664.035 491.843 664.035 491.843C664.035 491.843 655.071 490.24 656.859 475.755C656.859 475.755 679.253 464.781 690.485 454.415C701.718 444.06 708.906 431.962 734.958 417.232Z" fill="#C17951"/>
<path d="M700.923 481.477C698.772 482.179 696.598 482.892 694.342 483.606C685.623 486.355 675.665 489.234 666.654 491.445L666.619 492.732C674.765 490.743 684.314 488.052 694.705 484.776C696.738 484.132 698.807 483.466 700.888 482.775L700.923 481.477Z" fill="#9B491B"/>
<path d="M658.823 479.745C667.086 476.937 683.566 467.448 702.91 454.368C717.379 444.587 733.976 432.255 736.209 428.3C737.413 426.171 737.623 424.498 736.805 423.328C735.589 421.584 732.55 421.666 731.171 421.807C730.821 421.842 730.563 422.169 730.622 422.52C730.68 422.836 730.961 423.059 731.288 423.035C732.644 422.906 735.017 422.918 735.8 424.03C736.443 424.954 735.8 426.533 735.145 427.692C733.345 430.874 719.495 441.662 702.22 453.35C687.353 463.4 668.033 475.311 658.425 478.587L658.823 479.745Z" fill="#9B491B"/>
<path d="M659.851 473.591C661.487 480.962 664.047 487.561 668.734 492.381C668.734 492.381 665.368 495.318 661.908 493.75C659.267 492.557 653.341 481.348 654.615 474.96C656.614 473.614 658.39 473.041 659.851 473.591Z" fill="#9B491B"/>
<path d="M657.338 414.482L655.842 435.858C655.842 435.858 630.444 432.231 617.985 429.049C614.35 428.125 610.282 426.931 606.542 424.942C599.658 421.28 593.954 414.904 594.375 402.478C594.503 398.489 595.275 393.879 596.841 388.52C605.911 357.48 621.105 331.412 621.105 331.412C640.659 339.79 639.011 353.736 639.011 353.736C633.436 368.63 621.105 400.349 621.105 400.349C628.27 409.112 657.338 414.482 657.338 414.482Z" fill="#62A3CF"/>
<path d="M621.105 401.027C620.988 401.027 620.86 400.992 620.755 400.922C618.592 399.588 612.713 398.196 612.655 398.184C612.293 398.102 612.071 397.74 612.164 397.389C612.246 397.026 612.608 396.815 612.959 396.897C613.169 396.944 617.295 397.915 620.018 399.085C619.621 398.196 618.966 397.248 618.066 396.219C617.821 395.938 617.856 395.528 618.125 395.283C618.405 395.037 618.815 395.072 619.06 395.341C620.626 397.12 621.514 398.734 621.76 400.267C621.807 400.524 621.69 400.782 621.479 400.922C621.362 400.992 621.234 401.027 621.105 401.027Z" fill="#5A99C3"/>
<path d="M606.542 424.954C599.658 421.292 593.954 414.915 594.375 402.49C599.833 405.345 609.336 412.259 606.542 424.954Z" fill="#5A99C3"/>
<path d="M641.372 411.206C641.314 411.206 641.267 411.195 641.209 411.183C628.632 407.93 620.988 401.144 620.673 400.852C620.451 400.653 620.392 400.325 620.521 400.056C629.486 382.401 635.166 368.384 638.38 355.936C638.474 355.585 638.836 355.362 639.187 355.456C639.537 355.55 639.759 355.912 639.666 356.263C636.452 368.7 630.818 382.658 621.935 400.185C623.63 401.589 630.83 407.123 641.536 409.884C641.887 409.978 642.109 410.341 642.015 410.692C641.933 411.008 641.665 411.206 641.372 411.206Z" fill="#5A99C3"/>
<path d="M636.335 365.846C636.195 365.846 636.043 365.799 635.926 365.705C635.634 365.471 635.587 365.062 635.82 364.769L640.484 358.907C640.718 358.615 641.127 358.568 641.419 358.802C641.711 359.036 641.758 359.446 641.524 359.738L636.861 365.6C636.72 365.752 636.522 365.846 636.335 365.846Z" fill="#5A99C3"/>
<path d="M658.074 311.955L680.632 315.185C695.289 313.722 699.952 307.884 702.348 295.552C703.552 289.351 702.758 283.875 701.577 279.804C701.273 275.171 700.21 271.169 698.024 268.525C688.124 256.579 679.405 257.047 679.405 257.047C674.975 255.011 660.342 253.619 650.688 265.354C650.384 265.612 644.493 271.859 643.137 284.963C641.828 297.471 650.161 313.43 658.074 311.955Z" fill="#39393B"/>
<path d="M670.674 260.335C670.674 260.335 673.024 239.509 654.556 242.153C642.494 243.873 635.026 260.241 646.059 267.671C657.081 275.1 670.674 260.335 670.674 260.335Z" fill="#39393B"/>
<path d="M647.906 269.812C647.812 269.812 647.719 269.789 647.625 269.742C647.345 269.59 647.24 269.227 647.392 268.946C651.67 261.166 657.771 257.726 662.13 256.205C666.864 254.567 670.546 254.766 670.698 254.766C671.025 254.789 671.27 255.058 671.247 255.386C671.223 255.713 670.955 255.959 670.627 255.936C670.487 255.924 656.24 255.269 648.42 269.508C648.315 269.695 648.116 269.812 647.906 269.812Z" fill="#F3AF00"/>
<path d="M659.839 307.263C659.839 307.263 645.451 299.202 648.28 282.424C651.108 265.647 662.142 255.549 679.054 260.417C679.054 260.417 677.418 308.913 659.839 307.263Z" fill="#39393B"/>
<path d="M699.859 276.411C699.859 276.411 701.331 290.813 698.702 292.896C696.084 294.978 693.512 289.281 693.512 289.281C693.512 289.281 697.089 276.574 699.859 276.411Z" fill="#39393B"/>
<path d="M693.232 294.206C693.232 294.206 697.521 290.439 698.947 295.06C700.373 299.682 697.486 308.188 692.145 305.93L693.232 294.206Z" fill="#D46A43"/>
<path d="M698.514 304.877C697.93 305.415 697.275 305.883 696.562 306.269C693.862 307.72 690.344 307.895 686.113 305.672C686.113 305.672 680.701 298.629 688.696 286.204C688.696 286.204 696.024 284.273 700.22 288.707C700.688 289.199 701.109 289.76 701.483 290.416C701.716 290.813 701.915 291.246 702.102 291.714C703.587 295.493 702.207 301.519 698.514 304.877Z" fill="#F3AF00"/>
<path d="M698.316 287.198C698.655 285.537 698.994 283.477 699.216 281.196C699.111 281.243 699.005 281.278 698.888 281.278C698.433 281.313 697.988 281.126 697.544 280.798C697.346 282.928 697.042 284.858 696.738 286.461L698.316 287.198Z" fill="white"/>
<path d="M698.514 304.877C697.93 305.415 697.276 305.883 696.563 306.269C700.268 298.582 700.373 291.562 700.221 288.707C700.688 289.199 701.109 289.76 701.483 290.416C701.483 293.645 700.992 298.957 698.514 304.877Z" fill="#E88F20"/>
<path d="M680.726 314.985L678.961 326.896C678.961 326.896 671.679 336.244 654.825 320.999C656.742 316.155 659.687 309.919 658.927 305.146C658.927 305.146 660.155 306.281 662.282 307.626C662.714 307.907 663.182 308.199 663.673 308.492C668.044 311.148 674.73 314.564 680.726 314.985Z" fill="#EA9B7A"/>
<path d="M680.726 314.985L679.896 320.555C674.975 318.659 666.466 314.553 662.27 307.614C662.703 307.895 663.17 308.188 663.661 308.48C668.044 311.148 674.73 314.564 680.726 314.985Z" fill="#39393B"/>
<path d="M696.89 294.733C696.703 295.961 696.528 297.119 696.341 298.219C694.985 306.433 693.746 310.855 691.467 312.61C679.931 321.467 659.593 305.813 658.939 305.309C658.927 305.298 658.927 305.298 658.927 305.298C658.857 304.338 658.81 303.391 658.787 302.466C658.518 294.557 659.488 287.397 661.288 280.716C661.978 273.497 667.226 267.46 674.32 266.009C681.672 264.512 687.469 268.513 691.058 270.221C696.469 272.819 698.947 280.693 697.427 291.152C697.24 292.404 697.065 293.598 696.89 294.733Z" fill="#EA9B7A"/>
<path d="M686.581 304.303C680.129 304.303 677.546 298.126 677.523 298.056C677.406 297.751 677.546 297.412 677.85 297.295C678.154 297.178 678.493 297.318 678.61 297.623C678.727 297.892 681.427 304.303 688.463 302.946C688.779 302.888 689.082 303.098 689.153 303.414C689.211 303.73 689.001 304.034 688.685 304.104C687.937 304.233 687.236 304.303 686.581 304.303Z" fill="#39393B"/>
<path d="M681.614 282.003C683.273 281.43 682.934 278.984 681.181 278.867C678.201 278.68 673.409 278.75 673.011 281.161C672.427 284.682 677.99 283.22 681.508 282.038C681.543 282.026 681.579 282.015 681.614 282.003Z" fill="#39393B"/>
<path d="M690.415 283.044C689.129 281.851 690.427 279.745 692.075 280.353C694.88 281.383 699.239 283.384 698.631 285.747C697.755 289.21 693.243 285.618 690.497 283.126C690.462 283.091 690.438 283.068 690.415 283.044Z" fill="#39393B"/>
<path d="M681.824 307.182C683.004 307.474 683.998 307.252 684.068 307.228C684.278 307.182 684.407 306.971 684.36 306.76C684.313 306.55 684.103 306.421 683.892 306.468C683.869 306.468 681.94 306.901 680.479 305.614C680.316 305.473 680.07 305.485 679.93 305.649C679.79 305.813 679.802 306.058 679.965 306.199C680.561 306.737 681.216 307.029 681.824 307.182Z" fill="#D46A43"/>
<path d="M685.869 299.155C685.764 299.109 685.694 299.015 685.647 298.91C685.577 298.687 685.694 298.442 685.916 298.372L688.733 297.447L687.061 295.751C686.968 295.657 686.921 295.528 686.944 295.4L687.459 290.731C687.482 290.497 687.692 290.322 687.938 290.357C688.172 290.38 688.347 290.591 688.312 290.825L687.809 295.283L689.82 297.319C689.925 297.424 689.971 297.576 689.936 297.716C689.901 297.857 689.796 297.974 689.656 298.021L686.185 299.167C686.079 299.226 685.974 299.214 685.869 299.155Z" fill="#39393B"/>
<path d="M678.575 294.698C678.435 295.669 676.319 296.148 673.865 295.786C671.41 295.423 669.529 294.335 669.68 293.364C669.821 292.393 671.936 291.913 674.391 292.276C676.833 292.65 678.715 293.727 678.575 294.698Z" fill="#D46A43"/>
<g opacity="0.8">
<g opacity="0.8">
<g opacity="0.8">
<g opacity="0.8">
<g opacity="0.8">
<g opacity="0.8">
<g opacity="0.8">
<g opacity="0.8">
<g opacity="0.8">
<g opacity="0.8">
<g opacity="0.8">
<path opacity="0.8" d="M696.89 295.868C696.703 297.096 696.528 298.254 696.341 299.354C694.097 298.933 692.449 297.915 692.589 297.014C692.717 296.09 694.611 295.61 696.89 295.868Z" fill="#D46A43"/>
</g>
</g>
</g>
</g>
</g>
</g>
</g>
</g>
</g>
</g>
</g>
<path d="M680.971 291.234C680.772 292.568 680.013 293.551 679.265 293.446C678.516 293.34 678.084 292.17 678.271 290.837C678.47 289.503 679.229 288.52 679.978 288.625C680.726 288.731 681.17 289.901 680.971 291.234Z" fill="#39393B"/>
<path d="M694.108 293.188C693.91 294.522 693.15 295.505 692.402 295.4C691.654 295.294 691.221 294.124 691.408 292.791C691.607 291.457 692.367 290.474 693.115 290.579C693.875 290.696 694.307 291.866 694.108 293.188Z" fill="#39393B"/>
<path d="M664.07 300.559C663.988 300.7 661.639 304.491 658.939 305.31C658.927 305.298 658.927 305.298 658.927 305.298C658.857 304.338 658.811 303.391 658.787 302.466C658.881 302.455 661.475 302.385 664.07 300.559Z" fill="#39393B"/>
<path d="M663.007 290.954C663.007 290.954 658.752 283.021 654.03 288.052C650.138 292.194 654.346 305.415 661.51 301.881L663.007 290.954Z" fill="#EA9B7A"/>
<path d="M660.961 299.717C660.681 299.67 660.482 299.436 660.494 299.144C660.704 293.645 656.461 291.094 656.286 290.989C656.029 290.837 655.935 290.497 656.087 290.228C656.239 289.959 656.578 289.877 656.847 290.029C657.046 290.146 661.849 293.013 661.604 299.19C661.592 299.495 661.335 299.729 661.031 299.717C660.996 299.717 660.985 299.717 660.961 299.717Z" fill="#39393B"/>
<path d="M656.356 295.634C656.192 295.61 656.052 295.517 655.959 295.365C655.807 295.107 655.889 294.768 656.157 294.604C656.403 294.464 658.588 293.2 660.166 293.867C660.447 293.984 660.575 294.312 660.459 294.592C660.342 294.873 660.014 295.002 659.734 294.885C658.822 294.499 657.209 295.259 656.718 295.552C656.601 295.634 656.473 295.657 656.356 295.634Z" fill="#39393B"/>
<path d="M676.179 298.219C672.018 296.628 669.926 291.948 671.515 287.783C673.105 283.618 677.78 281.523 681.941 283.115C686.102 284.706 688.194 289.386 686.605 293.551C685.015 297.716 680.34 299.811 676.179 298.219ZM681.52 284.214C677.967 282.857 673.97 284.647 672.614 288.204C671.258 291.761 673.047 295.762 676.6 297.12C680.153 298.477 684.15 296.687 685.506 293.13C686.862 289.573 685.074 285.572 681.52 284.214Z" fill="white"/>
<path d="M671.772 288.859C671.702 288.859 671.632 288.836 671.562 288.801C667.191 286.8 663.088 288.321 663.041 288.345C662.737 288.462 662.398 288.309 662.282 288.005C662.165 287.701 662.317 287.362 662.621 287.245C662.808 287.175 667.237 285.525 672.053 287.736C672.345 287.877 672.474 288.228 672.345 288.52C672.228 288.742 672.006 288.871 671.772 288.859Z" fill="white"/>
<path d="M694.05 300.243C689.889 298.652 687.797 293.972 689.386 289.807C690.976 285.642 695.651 283.548 699.812 285.139C703.973 286.73 706.065 291.41 704.475 295.575C702.898 299.74 698.211 301.835 694.05 300.243ZM699.403 286.239C695.85 284.881 691.852 286.671 690.497 290.228C689.141 293.785 690.929 297.786 694.482 299.144C698.035 300.501 702.033 298.711 703.388 295.154C704.733 291.597 702.956 287.596 699.403 286.239Z" fill="white"/>
<path d="M686.228 290.123C686.135 290.076 686.064 290.006 686.006 289.913C685.831 289.632 685.913 289.269 686.193 289.094C686.275 289.047 688.238 287.842 690.284 289.41C690.541 289.608 690.588 289.983 690.389 290.24C690.19 290.498 689.816 290.544 689.559 290.346C688.157 289.269 686.824 290.088 686.813 290.088C686.626 290.217 686.403 290.217 686.228 290.123Z" fill="white"/>
<path d="M690.555 262.956C695.464 265.167 699.321 269.262 701.039 274.363C702.115 277.557 703.015 281.781 698.526 281.231C686.277 279.745 679.72 267.015 679.72 267.015C679.72 267.015 677.336 278.739 667.717 277.311C658.098 275.872 658.401 268.618 663.871 264.512C668.325 261.165 679.674 258.053 690.555 262.956Z" fill="#39393B"/>
<path d="M668.091 275.966C668.091 275.966 662.621 281.851 664.584 288.181C666.548 294.51 666.677 299.588 664.631 302.993C664.631 302.993 664.105 296.324 661.662 291.27C659.664 287.116 657.794 283.957 659.243 279.172C660.225 275.884 662.632 272.737 668.091 275.966Z" fill="#39393B"/>
<path d="M659.196 304.678C654.953 305.707 651.669 305.111 649.238 303.578C648.852 303.332 648.49 303.063 648.139 302.782C643.043 298.512 642.669 289.655 645.79 285.314C646.889 283.782 648.163 282.752 649.507 282.097C649.916 281.886 650.325 281.722 650.734 281.594C656.005 279.862 661.721 283.033 661.721 283.033C667.693 299.495 659.196 304.678 659.196 304.678Z" fill="#F3AF00"/>
<path d="M674.122 311.885C661.721 309.346 656.45 300.407 656.204 299.974C656.005 299.635 656.122 299.19 656.473 298.992C656.812 298.793 657.256 298.91 657.455 299.261C657.537 299.401 663.977 310.235 679.007 311.054C679.405 311.078 679.709 311.417 679.685 311.815C679.662 312.213 679.323 312.517 678.926 312.493C677.219 312.4 675.618 312.189 674.122 311.885Z" fill="white"/>
<path d="M682.958 312.306C682.701 313.546 681.485 314.354 680.246 314.096C679.007 313.839 678.201 312.622 678.458 311.382C678.715 310.142 679.931 309.334 681.17 309.592C682.409 309.837 683.215 311.054 682.958 312.306Z" fill="#243434"/>
<path d="M649.238 303.59C648.852 303.344 648.49 303.075 648.139 302.794C652.067 293.902 650.734 286.133 649.495 282.108C649.904 281.898 650.313 281.734 650.722 281.605C652.043 285.864 653.492 294.159 649.238 303.59Z" fill="#E88F20"/>
<path d="M699.578 271.029C698.538 269.075 697.381 267.776 696.808 267.132C696.329 265.74 695.815 264.43 695.043 263.213C692.449 259.095 688.346 256.567 682.829 255.713C676.88 254.789 671.714 255.971 667.483 259.212C666.162 260.218 664.993 261.399 663.942 262.663C662.492 264.43 661.288 266.384 660.307 268.338C656.894 275.17 656.076 282.19 656.064 282.284L654.439 282.108C654.509 281.442 656.344 265.67 666.478 257.901C671.071 254.379 676.658 253.092 683.075 254.087C689.082 255.011 693.571 257.796 696.423 262.335C698.082 264.968 699.064 267.963 699.578 271.029Z" fill="white"/>
<path d="M637.913 451.092L632.256 440.328C630.841 437.648 632.817 434.431 635.844 434.454L724.708 435.414L722.09 449.196L637.913 451.092Z" fill="#39393B"/>
<path d="M720.546 448.061H641.021C639.104 448.061 637.713 446.505 637.935 444.586L643.359 395.4C643.569 393.481 645.299 391.925 647.216 391.925H726.741C728.658 391.925 730.049 393.481 729.827 395.4L724.403 444.586C724.193 446.505 722.463 448.061 720.546 448.061Z" fill="#39393B"/>
<path d="M639.841 450.179C639.818 450.179 639.783 450.179 639.759 450.179C639.397 450.132 639.128 449.793 639.175 449.43L645.779 396.757C645.826 396.394 646.164 396.125 646.527 396.172C646.889 396.219 647.158 396.558 647.111 396.921L640.507 449.594C640.461 449.933 640.169 450.179 639.841 450.179Z" fill="#564C54"/>
<path d="M678.528 420.871C678.224 424.825 681.134 428.23 685.015 428.476C688.907 428.721 692.308 425.726 692.612 421.772C692.916 417.817 690.006 414.412 686.125 414.167C682.233 413.909 678.832 416.916 678.528 420.871Z" fill="#585859"/>
<path d="M720.932 452.344H640.309C638.532 452.344 637.176 450.776 637.41 449.021L638.181 443.393H724.708L723.831 449.805C723.632 451.267 722.393 452.344 720.932 452.344Z" fill="#39393B"/>
<path d="M662.504 436.467L661.92 439.275H664.573L664.281 442.621H661.207L660.564 445.675H657.046L657.689 442.621H655.515L654.872 445.675H651.354L651.997 442.621H649.344L649.636 439.286H652.71L653.294 436.478H650.641L650.933 433.132H654.007L654.65 430.079H658.168L657.525 433.132H659.699L660.342 430.079H663.86L663.217 433.132H665.87L665.578 436.478L662.504 436.467ZM658.998 436.467H656.824L656.24 439.275H658.414L658.998 436.467Z" fill="#F3AF00"/>
<path d="M742.848 358.732C742.848 370.853 752.666 380.693 764.786 380.693C776.895 380.693 786.724 370.865 786.724 358.732C786.724 346.611 776.906 336.771 764.786 336.771C752.666 336.771 742.848 346.599 742.848 358.732Z" fill="#C17951"/>
<path d="M753.565 376.691L741.772 379.183L746.88 369.016L753.565 376.691Z" fill="#C17951"/>
<path d="M766.644 354.017C766.644 352.987 765.651 352.461 764.424 352.461C762.998 352.461 761.677 353.327 760.976 354.719L755.073 351.77C756.768 348.588 760.111 346.4 765.417 346.4C770.618 346.4 774.499 348.588 774.499 352.742C774.499 357.819 769.192 358.709 769.192 361.271H762.367C762.367 357.234 766.644 356.041 766.644 354.017ZM761.408 366.489C761.408 364.266 763.196 362.57 765.779 362.57C768.363 362.57 770.151 364.266 770.151 366.489C770.151 368.677 768.363 370.467 765.779 370.467C763.196 370.467 761.408 368.677 761.408 366.489Z" fill="white"/>
<path d="M465.42 483.512C465.42 483.512 456.455 469.414 434.704 456.602C419.334 447.558 410.381 422.006 410.381 422.006C410.381 422.006 439.823 423.293 452.621 441.229C465.42 459.176 465.42 483.512 465.42 483.512Z" fill="#21B573"/>
<path d="M465.525 483.898C465.326 483.898 465.151 483.77 465.104 483.571C460.966 467.928 451.908 456.59 445.036 449.828C437.59 442.504 431.057 438.842 430.987 438.806C430.776 438.689 430.694 438.42 430.811 438.21C430.928 437.999 431.197 437.917 431.407 438.034C431.478 438.069 438.116 441.79 445.643 449.208C452.598 456.041 461.761 467.518 465.945 483.348C466.004 483.582 465.864 483.828 465.63 483.887C465.595 483.887 465.56 483.898 465.525 483.898Z" fill="#39393B"/>
<path d="M461.563 483.197C461.563 483.197 459.003 478.072 447.479 479.347C435.954 480.634 429.561 487.034 409.083 475.498C409.083 475.498 424.442 462.686 441.085 465.249C457.717 467.823 459.003 474.223 461.563 483.197Z" fill="#21B573"/>
<path d="M461.621 483.629C461.481 483.629 461.329 483.559 461.247 483.419C461.2 483.337 456.046 475.229 447.759 473.72C433.278 471.087 423.413 475.72 423.319 475.767C423.097 475.872 422.84 475.779 422.735 475.556C422.63 475.334 422.723 475.077 422.945 474.971C423.051 474.925 433.149 470.163 447.923 472.854C456.595 474.433 461.785 482.6 461.995 482.951C462.124 483.161 462.065 483.431 461.855 483.559C461.773 483.618 461.703 483.629 461.621 483.629Z" fill="#39393B"/>
<path d="M466.588 481.956C466.588 481.956 465.583 476.317 475.588 470.455C485.593 464.594 494.546 465.904 504.095 444.411C504.095 444.411 484.132 443.311 472.316 455.315C460.499 467.331 463.292 473.228 466.588 481.956Z" fill="#21B573"/>
<path d="M466.542 482.424C466.32 482.424 466.121 482.249 466.109 482.026C466.074 481.617 465.361 471.964 471.381 465.518C481.631 454.531 492.571 452.308 492.676 452.285C492.91 452.238 493.144 452.39 493.19 452.636C493.237 452.87 493.085 453.104 492.84 453.151C492.735 453.174 482.063 455.35 472.012 466.114C466.261 472.28 466.963 481.863 466.974 481.956C466.998 482.202 466.811 482.412 466.577 482.424C466.565 482.424 466.554 482.424 466.542 482.424Z" fill="#39393B"/>
<path d="M478.37 488.918H450.319C448.659 488.918 447.315 487.561 447.315 485.911V484.647C447.315 482.986 448.671 481.64 450.319 481.64H478.37C480.03 481.64 481.374 482.998 481.374 484.647V485.911C481.385 487.572 480.03 488.918 478.37 488.918Z" fill="#C17951"/>
<path d="M464.485 551.665C441.599 551.665 427.036 548.015 429.374 531.88C430.858 521.643 438.841 511.604 444.475 505.637C445.27 504.795 446.018 504.034 446.684 503.367C448.776 501.296 450.178 500.115 450.178 500.115L450.249 499.74L450.646 497.471L451.102 494.861L452.154 488.906L452.516 486.824L464.485 486.297L476.967 486.824L477.248 488.906L477.692 492.17L478.417 497.459L478.732 499.729L478.779 500.103C478.779 500.103 480.193 501.296 482.274 503.356C482.952 504.023 483.7 504.783 484.494 505.625C490.128 511.592 498.111 521.619 499.595 531.869C501.933 548.026 487.37 551.665 464.485 551.665Z" fill="#C17951"/>
<path d="M478.732 499.752H450.237L450.635 497.482H478.417L478.732 499.752Z" fill="#9B491B"/>
<path d="M484.495 505.637H444.464C445.258 504.795 446.006 504.034 446.673 503.367H482.274C482.952 504.046 483.7 504.806 484.495 505.637Z" fill="#9B491B"/>
<path d="M477.692 492.194L451.102 494.873L452.154 488.918H477.248L477.692 492.194Z" fill="#9B491B"/>
<path d="M297.593 338.456H286.794C285.718 338.456 284.854 337.59 284.854 336.514V329.061C284.854 327.984 285.718 327.119 286.794 327.119H297.593C298.669 327.119 299.534 327.984 299.534 329.061V336.514C299.545 337.59 298.669 338.456 297.593 338.456Z" fill="white"/>
<path d="M303.788 327.119V338.456L299.218 334.607V330.968L303.788 327.119Z" fill="white"/>
<path d="M323.505 342.235C328.715 342.235 332.938 338.008 332.938 332.793C332.938 327.578 328.715 323.351 323.505 323.351C318.296 323.351 314.073 327.578 314.073 332.793C314.073 338.008 318.296 342.235 323.505 342.235Z" fill="#C17951"/>
<path d="M319.052 338.234C319.309 338.234 319.555 338.14 319.754 337.941L328.648 329.037C329.034 328.651 329.034 328.02 328.648 327.633C328.262 327.247 327.631 327.247 327.246 327.633L318.351 336.537C317.965 336.923 317.965 337.555 318.351 337.941C318.55 338.14 318.795 338.234 319.052 338.234Z" fill="white"/>
<path d="M327.947 338.234C328.204 338.234 328.449 338.14 328.648 337.941C329.034 337.555 329.034 336.923 328.648 336.537L319.754 327.633C319.368 327.247 318.737 327.247 318.351 327.633C317.965 328.02 317.965 328.651 318.351 329.037L327.246 337.941C327.444 338.14 327.701 338.234 327.947 338.234Z" fill="white"/>
<path d="M270.103 337.578H271.003C272.184 337.578 273.142 336.607 273.142 335.437V326.194C273.142 325.013 272.172 324.053 271.003 324.053H270.103C268.923 324.053 267.964 325.024 267.964 326.194V335.437C267.953 336.607 268.923 337.578 270.103 337.578Z" fill="white"/>
<path d="M270.454 340.784H270.641C270.886 340.784 271.085 340.585 271.085 340.34V334.864C271.085 334.618 270.886 334.419 270.641 334.419H270.454C270.208 334.419 270.01 334.618 270.01 334.864V340.34C270.021 340.585 270.22 340.784 270.454 340.784Z" fill="white"/>
<path d="M266.258 341.276H274.837C275.339 341.276 275.76 340.866 275.76 340.351V339.965C275.76 339.462 275.351 339.041 274.837 339.041H266.258C265.755 339.041 265.334 339.462 265.334 339.965V340.351C265.334 340.854 265.755 341.276 266.258 341.276Z" fill="white"/>
<path d="M229.534 298.933C228.985 294.019 224.952 290.041 219.927 289.491C216.023 289.058 211.5 288.895 208.005 289.714C207.058 289.936 206.182 290.228 205.41 290.626L205.609 291.527C208.332 290.065 213.218 289.655 219.821 290.381C221.937 290.615 223.866 291.504 225.385 292.838C226.893 294.171 227.991 295.938 228.459 297.939C228.541 298.301 228.611 298.664 228.646 299.039C228.669 299.261 228.693 299.483 228.693 299.694L229.581 299.448C229.569 299.261 229.546 299.097 229.534 298.933ZM209.513 299.261C208.823 299.752 208.169 300.162 207.549 300.478L207.736 301.39C208.461 301.028 209.232 300.56 210.039 299.986C213.826 297.248 216.315 299.518 218.968 301.928C219.085 302.034 219.202 302.151 219.319 302.256L220.336 301.975C220.079 301.741 219.821 301.507 219.564 301.273C216.911 298.863 213.884 296.102 209.513 299.261Z" fill="#9B491B"/>
<path d="M157.723 556.005C239.936 556.005 306.582 551.935 306.582 546.914C306.582 541.894 239.936 537.824 157.723 537.824C75.5113 537.824 8.86511 541.894 8.86511 546.914C8.86511 551.935 75.5113 556.005 157.723 556.005Z" fill="#CED3E6"/>
<path d="M179.451 262.757L179.638 263.646L179.778 264.36L180.024 265.705C180.176 266.583 180.316 267.437 180.445 268.291C180.69 269.999 180.901 271.672 181.088 273.345C181.45 276.692 181.719 280.003 181.871 283.325C182.023 286.637 182.069 289.948 182.034 293.259C181.987 296.57 181.847 299.869 181.625 303.169C181.391 306.468 181.052 309.767 180.643 313.055C180.41 314.693 180.199 316.343 179.93 317.981C179.802 318.8 179.673 319.619 179.533 320.438L179.077 322.883C178.937 323.702 178.75 324.509 178.586 325.328C178.411 326.136 178.259 326.955 178.06 327.762C177.686 329.377 177.324 331.003 176.892 332.618C176.681 333.425 176.482 334.232 176.26 335.028L175.582 337.438L175.407 338.035L175.325 338.339L175.15 338.947C174.975 339.521 174.799 340.012 174.601 340.515C174.414 340.983 174.215 341.463 174.016 341.884C173.818 342.329 173.607 342.715 173.397 343.112L173.093 343.662C172.988 343.85 172.883 344.025 172.777 344.189L172.462 344.704L172.158 345.183C171.948 345.511 171.749 345.792 171.538 346.084C170.72 347.231 169.914 348.19 169.131 349.068C168.348 349.945 167.588 350.717 166.828 351.443C165.32 352.894 163.859 354.122 162.422 355.28C159.547 357.574 156.73 359.504 153.913 361.306C148.303 364.898 142.727 367.998 137.117 370.912C131.519 373.825 125.885 376.516 120.228 379.09C117.388 380.365 114.548 381.617 111.696 382.834C110.27 383.442 108.844 384.051 107.406 384.647L105.232 385.525L103 386.414L93.2054 364.254L95.1106 363.283L97.0625 362.265L100.978 360.218C103.584 358.837 106.191 357.445 108.762 356.018C113.928 353.198 119.036 350.285 124.003 347.313C126.481 345.827 128.924 344.294 131.308 342.761C133.693 341.229 136.019 339.661 138.216 338.07C140.413 336.479 142.505 334.864 144.282 333.296C145.17 332.512 145.977 331.74 146.62 331.061C147.251 330.383 147.73 329.751 147.823 329.54C147.823 329.529 147.847 329.494 147.835 329.494C147.823 329.505 147.823 329.505 147.812 329.517L147.777 329.552C147.765 329.576 147.753 329.587 147.742 329.611C147.695 329.669 147.683 329.716 147.625 329.821C147.59 329.903 147.52 330.02 147.473 330.149C147.403 330.301 147.356 330.441 147.286 330.64L147.239 330.781C147.227 330.827 147.239 330.781 147.239 330.769L147.251 330.71L147.309 330.465L147.426 329.962L147.882 327.973C148.034 327.306 148.162 326.639 148.303 325.972C148.595 324.638 148.817 323.293 149.062 321.947C149.191 321.28 149.284 320.602 149.39 319.923C149.495 319.244 149.612 318.578 149.694 317.899C150.091 315.196 150.395 312.47 150.64 309.732C150.874 306.995 151.026 304.257 151.143 301.507C151.236 298.758 151.26 296.008 151.213 293.27C151.178 290.521 151.061 287.783 150.874 285.045C150.699 282.319 150.453 279.605 150.126 276.926C149.962 275.592 149.775 274.27 149.577 272.983C149.483 272.339 149.378 271.707 149.273 271.087L149.109 270.198L148.981 269.566L179.451 262.757Z" fill="#EA9B7A"/>
<path d="M146.877 270.303L141.313 312.54C149.623 317.197 157.501 320.531 164.748 321.854L146.877 270.303Z" fill="#9B491B"/>
<path d="M158.693 335.601C158.576 335.601 158.448 335.578 158.343 335.507C154.018 333.156 148.069 331.178 148.011 331.155C147.625 331.026 147.414 330.605 147.543 330.219C147.672 329.833 148.092 329.622 148.478 329.751C148.723 329.833 154.614 331.787 159.056 334.209C159.418 334.408 159.547 334.852 159.348 335.215C159.208 335.461 158.962 335.601 158.693 335.601Z" fill="#D46A43"/>
<path d="M148.653 331.331C148.279 331.331 147.964 331.05 147.917 330.675C147.87 330.266 148.162 329.903 148.572 329.856C151.645 329.517 155.678 329.494 155.841 329.494C156.251 329.494 156.578 329.821 156.578 330.231C156.578 330.64 156.251 330.968 155.841 330.98C155.795 330.98 151.716 331.003 148.723 331.331C148.712 331.331 148.677 331.331 148.653 331.331Z" fill="#D46A43"/>
<path d="M68.6259 504.736L60.9469 517.279L46.3252 510.808L52.964 497.318L68.6259 504.736Z" fill="#EA9B7A"/>
<path d="M0.0287112 517.934L55.3246 542.434C56.061 541.872 56.7623 540.901 57.4168 539.684C59.8362 535.156 61.6478 527.025 63.0037 521.982C63.1556 521.397 63.3076 520.847 63.4595 520.356C63.7049 519.525 63.9387 518.835 64.1491 518.355C65.8438 514.506 62.1621 513.663 62.1621 513.663C54.1325 516.682 51.4442 505.637 46.547 506.69C46.547 506.69 44.4431 507.123 38.3069 509.135C32.1707 511.148 23.545 510.446 16.0179 510.294C6.29348 510.095 2.44813 512.493 0.952064 514.646C-0.2518 516.366 0.0287112 517.934 0.0287112 517.934Z" fill="#F3AF00"/>
<path d="M0.0287242 517.934L55.3246 542.434C56.061 541.872 56.7623 540.901 57.4168 539.684L0.940389 514.658C-0.251787 516.366 0.0287242 517.934 0.0287242 517.934Z" fill="#C77E2E"/>
<path d="M49.6794 539.93L51.3274 540.655C50.5209 538.058 50.2521 534.501 52.2741 530.476C54.9624 525.129 59.8713 522.895 62.992 521.982C63.144 521.397 63.2959 520.847 63.4479 520.356C60.1635 521.151 54.2027 523.421 50.9885 529.833C49.0599 533.682 49.0483 537.18 49.6794 539.93Z" fill="#C77E2E"/>
<path d="M37.781 512.821C38.19 512.996 38.6809 512.891 38.9731 512.517C39.3121 512.084 39.2303 511.452 38.7978 511.113L35.7239 508.726C35.2914 508.387 34.6603 508.469 34.3213 508.901C33.9824 509.334 34.0642 509.966 34.4966 510.305L37.5706 512.692C37.6407 512.751 37.7108 512.798 37.781 512.821Z" fill="white"/>
<path d="M42.4915 511.464C42.9006 511.639 43.3915 511.534 43.6837 511.16C44.0227 510.727 43.9408 510.095 43.5084 509.756L40.4344 507.369C40.002 507.03 39.3708 507.111 39.0319 507.544C38.6929 507.977 38.7747 508.609 39.2072 508.948L42.2811 511.335C42.3513 511.394 42.4214 511.44 42.4915 511.464Z" fill="white"/>
<path d="M33.4448 513.301C33.8539 513.476 34.3448 513.371 34.637 512.996C34.9759 512.564 34.8941 511.932 34.4616 511.592L31.3877 509.206C30.9552 508.866 30.3241 508.948 29.9851 509.381C29.6462 509.814 29.728 510.446 30.1604 510.785L33.2344 513.172C33.3045 513.23 33.3746 513.277 33.4448 513.301Z" fill="white"/>
<path d="M29.1322 513.71C29.5412 513.886 30.0321 513.78 30.3243 513.406C30.6633 512.973 30.5815 512.341 30.149 512.002L27.0751 509.615C26.6426 509.276 26.0115 509.358 25.6725 509.791C25.3336 510.224 25.4154 510.855 25.8478 511.195L28.9218 513.582C28.9919 513.628 29.062 513.675 29.1322 513.71Z" fill="white"/>
<path d="M24.5736 513.827C24.9826 514.003 25.4735 513.897 25.7657 513.523C26.1047 513.09 26.0229 512.458 25.5904 512.119L22.5165 509.732C22.084 509.393 21.4529 509.475 21.1139 509.908C20.775 510.341 20.8568 510.972 21.2892 511.312L24.3632 513.698C24.4333 513.757 24.5034 513.792 24.5736 513.827Z" fill="white"/>
<path d="M19.8165 513.535C20.2256 513.71 20.7165 513.605 21.0087 513.23C21.3476 512.798 21.2658 512.166 20.8333 511.826L17.7594 509.44C17.3269 509.1 16.6958 509.182 16.3568 509.615C16.0179 510.048 16.0997 510.68 16.5321 511.019L19.6061 513.406C19.6762 513.464 19.7464 513.511 19.8165 513.535Z" fill="white"/>
<path d="M102.953 383.676C108.084 378.622 148.571 367.32 175.454 374.831C178.54 380.763 182.455 395.798 172.824 409.709C137.491 415.489 117.774 427.388 117.774 427.388C117.774 427.388 105.244 456.368 97.7988 467.004C90.3536 477.639 73.2774 511.417 73.2774 511.417L47.5521 500.419C47.5521 500.419 88.9861 397.436 102.953 383.676Z" fill="#39393B"/>
<path d="M76.0241 505.052C75.9306 505.052 75.8371 505.029 75.7436 504.994L50.5676 494.522C50.1936 494.37 50.0066 493.925 50.1703 493.551C50.3222 493.177 50.7547 492.989 51.1404 493.153L76.3163 503.625C76.6903 503.777 76.8773 504.221 76.7137 504.596C76.5851 504.877 76.3163 505.052 76.0241 505.052Z" fill="#585859"/>
<path d="M71.793 502.934C71.6995 502.934 71.606 502.923 71.5242 502.888C71.1385 502.736 70.9631 502.303 71.1034 501.928C71.1501 501.8 76.4214 488.637 88.7055 469.976C100.908 451.443 113.671 420.098 113.8 419.783C113.952 419.408 114.384 419.221 114.77 419.373C115.144 419.525 115.331 419.958 115.179 420.344C115.05 420.66 102.24 452.133 89.9561 470.795C77.7539 489.327 72.541 502.349 72.4943 502.478C72.3657 502.759 72.0852 502.934 71.793 502.934Z" fill="#585859"/>
<path d="M133.54 506.947L131.6 521.526H115.611L116.231 506.515L133.54 506.947Z" fill="#EA9B7A"/>
<path d="M76.1641 546.809H136.638C137.082 545.99 137.327 544.832 137.433 543.452C137.807 538.327 136.182 530.16 135.376 525.012C135.282 524.416 135.2 523.854 135.13 523.339C135.013 522.473 134.955 521.76 134.955 521.233C134.955 517.033 131.238 517.747 131.238 517.747C125.113 523.749 118.194 514.74 114.15 517.7C114.15 517.7 112.409 518.952 107.605 523.269C102.801 527.598 94.6429 530.441 87.6885 533.354C78.7121 537.11 76.1758 540.854 75.6732 543.44C75.2759 545.487 76.1641 546.809 76.1641 546.809Z" fill="#F3AF00"/>
<path d="M76.1643 546.809H136.638C137.082 545.99 137.328 544.832 137.433 543.452H75.6618C75.2761 545.487 76.1643 546.809 76.1643 546.809Z" fill="#C77E2E"/>
<path d="M130.467 546.809H132.267C130.478 544.762 128.795 541.615 129.017 537.122C129.31 531.143 132.898 527.107 135.387 525.012C135.294 524.416 135.212 523.854 135.142 523.339C132.454 525.398 127.93 529.891 127.58 537.052C127.358 541.334 128.772 544.54 130.467 546.809Z" fill="#C77E2E"/>
<path d="M108.622 526.838C109.066 526.838 109.475 526.533 109.592 526.077C109.721 525.539 109.405 525.001 108.867 524.872L105.092 523.936C104.555 523.807 104.017 524.123 103.888 524.661C103.76 525.2 104.087 525.738 104.613 525.866L108.388 526.802C108.458 526.826 108.54 526.838 108.622 526.838Z" fill="white"/>
<path d="M112.375 523.69C112.819 523.69 113.228 523.386 113.345 522.929C113.474 522.391 113.158 521.853 112.62 521.724L108.845 520.788C108.308 520.66 107.77 520.987 107.641 521.514C107.513 522.052 107.84 522.59 108.366 522.719L112.141 523.655C112.211 523.678 112.293 523.69 112.375 523.69Z" fill="white"/>
<path d="M104.847 529.037C105.291 529.037 105.7 528.733 105.817 528.277C105.945 527.738 105.63 527.2 105.092 527.072L101.317 526.136C100.779 526.007 100.242 526.323 100.113 526.861C99.9845 527.399 100.3 527.937 100.838 528.066L104.613 529.002C104.683 529.025 104.765 529.037 104.847 529.037Z" fill="white"/>
<path d="M101.071 531.155C101.516 531.155 101.925 530.851 102.042 530.394C102.17 529.856 101.855 529.318 101.317 529.189L97.5416 528.253C97.004 528.124 96.4663 528.44 96.3378 528.978C96.2092 529.517 96.5365 530.055 97.0624 530.184L100.838 531.12C100.908 531.143 100.99 531.155 101.071 531.155Z" fill="white"/>
<path d="M96.9456 533.109C97.3897 533.109 97.7988 532.805 97.9157 532.348C98.0442 531.81 97.717 531.272 97.191 531.143L93.4158 530.207C92.8781 530.078 92.3405 530.394 92.2119 530.933C92.0834 531.471 92.4106 532.009 92.9366 532.138L96.7118 533.074C96.7819 533.097 96.8637 533.109 96.9456 533.109Z" fill="white"/>
<path d="M92.4808 534.77C92.925 534.77 93.3341 534.466 93.4509 534.01C93.5795 533.471 93.2639 532.933 92.7263 532.805L88.9511 531.869C88.4134 531.74 87.8758 532.056 87.7472 532.594C87.6186 533.132 87.9459 533.67 88.4719 533.799L92.2471 534.735C92.3172 534.758 92.399 534.77 92.4808 534.77Z" fill="white"/>
<path d="M254.699 386.309C254.675 386.554 254.64 386.788 254.617 387.011C254.488 387.104 254.371 387.198 254.255 387.292C244.869 394.499 233.917 399.296 222.732 402.022C222.335 402.115 221.949 402.209 221.551 402.303C219.635 402.747 217.706 403.133 215.778 403.449C213.171 403.882 210.565 404.221 207.982 404.444C205.691 404.643 203.412 404.771 201.168 404.806C191.49 404.982 182.315 403.718 174.554 401.25C174.262 401.156 173.958 401.062 173.666 400.957C171.609 400.267 169.668 399.495 167.845 398.64C167.565 398.512 167.284 398.383 167.015 398.243C165.882 397.693 164.795 397.096 163.766 396.476C163.93 392.744 163.976 388.274 163.941 383.501C163.941 383.103 163.941 382.705 163.93 382.307C163.86 375.662 163.661 368.49 163.404 361.938C163.38 361.622 163.369 361.317 163.369 361.013C163.228 357.585 163.065 354.333 162.924 351.443C162.901 351.138 162.889 350.823 162.878 350.53C162.749 348.085 162.621 345.897 162.504 344.107C162.469 343.651 162.445 343.206 162.41 342.75C162.387 342.399 162.363 342.048 162.34 341.708C162.247 340.445 162.141 339.216 162.036 337.999C161.873 336.057 161.686 334.173 161.487 332.348C161.253 330.266 161.008 328.23 160.751 326.276C160.458 324.17 160.166 322.134 159.851 320.18C159.512 318.086 159.161 316.074 158.787 314.143C157.49 307.334 156.029 301.484 154.568 296.429C154.462 296.078 154.369 295.751 154.264 295.4C153.668 293.387 153.083 291.527 152.51 289.772C152.382 289.386 152.253 289.011 152.136 288.625C148.887 278.973 146.199 273.146 146.152 269.239C146.059 261.107 151.996 258.498 158.191 255.222C158.483 255.07 158.775 254.918 159.067 254.754C160.108 254.192 161.16 253.596 162.165 252.952C162.597 252.683 163.018 252.402 163.427 252.11C163.719 251.911 163.988 251.7 164.257 251.501C166.711 249.606 168.862 247.231 170.265 243.861L193.676 238.924C193.676 238.924 195.92 240.082 199.672 241.088C200.022 241.182 200.385 241.275 200.77 241.369C201.214 241.474 201.67 241.58 202.149 241.673C202.442 241.732 202.757 241.79 203.061 241.849C203.295 241.896 203.54 241.942 203.786 241.977C206.03 242.328 208.625 242.551 211.558 242.492C211.85 242.481 212.154 242.481 212.447 242.469C212.657 242.457 212.867 242.445 213.078 242.445C215.065 242.34 216.958 242.598 218.781 243.183C219.132 243.288 219.471 243.417 219.81 243.557C227.419 246.599 233.403 255.702 237.272 269.683C238.347 273.568 239.411 277.358 240.439 281.055C240.556 281.465 240.661 281.863 240.778 282.261C241 283.068 241.222 283.875 241.444 284.682C241.526 284.975 241.608 285.267 241.69 285.56C242.485 288.426 243.256 291.258 244.004 294.054C244.004 294.054 244.004 294.054 244.004 294.066C244.086 294.358 244.168 294.663 244.238 294.955C244.238 294.955 244.238 294.955 244.238 294.967C244.285 295.131 244.32 295.283 244.366 295.435L244.787 297.073C247.382 307.076 249.544 316.717 250.935 326.44C251.227 328.464 251.484 330.488 251.695 332.524C251.753 333.015 251.812 333.565 251.87 334.185C251.882 334.302 251.894 334.408 251.905 334.525C251.929 334.735 251.952 334.946 251.975 335.168C251.987 335.273 251.999 335.39 252.01 335.496C252.384 339.181 252.864 344.282 253.343 349.91C253.366 350.202 253.401 350.507 253.425 350.811C254.5 363.868 255.47 379.453 254.699 386.309Z" fill="#C17951"/>
<path d="M183.449 257.632C192.799 255.655 197.848 243.955 198.059 243.44C198.199 243.101 198.047 242.703 197.708 242.563C197.369 242.422 196.972 242.574 196.831 242.914C196.785 243.031 191.654 254.953 182.63 256.415C173.759 257.854 170.23 251.326 170.078 251.045C169.902 250.717 169.505 250.589 169.178 250.764C168.85 250.94 168.722 251.338 168.897 251.665C168.932 251.747 173 259.34 182.853 257.737C183.051 257.714 183.25 257.667 183.449 257.632Z" fill="#9B491B"/>
<path d="M192.928 382.167C201.717 380.318 210.799 375.79 219.88 368.688C232.34 358.942 240.521 347.64 240.603 347.523C240.813 347.219 240.755 346.81 240.451 346.587C240.147 346.377 239.726 346.435 239.516 346.739C239.434 346.856 231.346 358.018 219.039 367.647C207.748 376.481 190.473 385.794 172.333 379.991C171.983 379.874 171.609 380.073 171.492 380.424C171.375 380.775 171.574 381.149 171.924 381.266C178.61 383.407 185.669 383.7 192.928 382.167Z" fill="#9B491B"/>
<path d="M187.668 375.451C187.68 375.451 187.68 375.451 187.668 375.451C201.366 372.327 208.718 351.642 209.034 350.764C209.151 350.413 208.975 350.039 208.625 349.91C208.274 349.793 207.9 349.968 207.771 350.319C207.701 350.53 200.349 371.181 187.387 374.141C187.025 374.223 186.803 374.585 186.885 374.948C186.967 375.299 187.317 375.521 187.668 375.451Z" fill="#9B491B"/>
<path d="M162.387 342.738C164.081 341.568 165.683 340.117 166.945 338.467C169.996 334.489 170.405 330.418 168.102 327.001C167.635 326.323 167.214 325.703 166.816 325.118C162.106 318.238 161.615 317.524 162.024 306.211C162.153 302.654 161.148 299.846 159.044 297.904C157.63 296.581 155.9 295.821 154.24 295.376C154.345 295.716 154.439 296.055 154.544 296.406C155.923 296.827 157.302 297.506 158.436 298.559C160.341 300.325 161.241 302.899 161.124 306.187C160.704 317.794 161.311 318.683 166.068 325.633C166.466 326.218 166.887 326.838 167.354 327.516C170.159 331.646 167.857 335.812 166.232 337.929C165.145 339.345 163.778 340.632 162.317 341.697C162.34 342.036 162.375 342.387 162.387 342.738Z" fill="#9B491B"/>
<path d="M251.999 335.449C250.175 336.514 248.411 337.18 246.728 337.543C242.181 338.503 238.242 337.122 235.706 334.571C232.679 331.518 231.498 326.264 235.11 322.146C238.593 318.156 237.097 316.039 235.203 313.348C233.333 310.703 231.007 307.404 233.427 301.612C234.817 298.278 236.956 295.996 239.785 294.85C241.199 294.277 242.637 294.043 243.993 294.007C244.074 294.3 244.156 294.604 244.226 294.897C242.906 294.908 241.491 295.119 240.112 295.681C237.517 296.734 235.542 298.851 234.245 301.952C232.012 307.287 234.011 310.095 235.928 312.821C237.88 315.594 239.726 318.215 235.776 322.719C232.866 326.042 233.088 330.652 236.337 333.916C239.61 337.215 245.442 338.362 251.894 334.443C251.917 334.653 251.94 334.864 251.964 335.086C251.975 335.226 251.987 335.344 251.999 335.449Z" fill="#9B491B"/>
<path d="M190.942 338.818C193.198 342.703 198.083 344.563 202.548 343.265C203.226 343.066 203.939 342.808 204.652 342.504C210.391 340.047 217.006 334.256 219.542 327.516C221.494 322.322 220.898 316.998 217.801 312.143C213.219 304.959 210.566 298.278 210.122 292.849C209.853 289.632 207.644 287.14 204.5 286.496C201.332 285.853 198.317 287.28 196.809 290.135C196.727 290.287 196.646 290.439 196.564 290.591C192.707 298.126 195.009 303.578 197.043 308.387C199.17 313.418 201.005 317.758 195.196 323.398C189.913 328.522 188.324 334.291 190.942 338.818ZM195.827 324.03C202.092 317.957 200.035 313.125 197.873 308.024C195.816 303.169 193.7 298.161 197.37 290.989C197.452 290.837 197.522 290.685 197.604 290.544C198.305 289.222 199.369 288.251 200.631 287.713C201.753 287.233 203.027 287.093 204.325 287.362C207.083 287.935 209.011 290.111 209.245 292.919C209.514 296.078 210.437 299.53 212.039 303.262C213.301 306.222 214.984 309.334 217.065 312.61C220.045 317.29 220.594 322.193 218.724 327.2C215.978 334.525 208.217 340.679 202.314 342.399C198.223 343.592 193.782 341.896 191.725 338.362C189.317 334.22 190.848 328.862 195.827 324.03Z" fill="#9B491B"/>
<path d="M152.101 288.602C152.23 288.976 152.347 289.351 152.475 289.737C155.596 290.989 158.471 290.942 160.762 290.451C161.931 290.205 162.948 289.842 163.778 289.491C169.493 287.023 173.374 281.722 173.28 278.517C173.245 277.312 172.637 276.434 171.574 276.048C165.426 273.802 162.925 269.742 161.989 260.51C161.732 258.007 160.739 256.064 159.021 254.719C158.729 254.871 158.436 255.023 158.144 255.187C158.214 255.234 158.284 255.292 158.366 255.351C159.944 256.532 160.856 258.299 161.09 260.604C162.06 270.256 164.724 274.515 171.258 276.89C171.983 277.159 172.345 277.698 172.368 278.54C172.45 281.453 168.64 286.402 163.404 288.672C160.996 289.737 156.8 290.778 152.101 288.602Z" fill="#9B491B"/>
<path d="M183.834 290.088C184.933 291.281 186.71 291.726 188.474 291.363C189.059 291.234 189.643 291.024 190.193 290.72C193.021 289.152 194.073 285.876 193.009 281.968C191.899 277.896 194.015 275.942 196.06 274.059C197.86 272.409 199.707 270.701 198.246 267.776C197.124 265.529 195.043 264.476 192.261 264.734C188.977 265.05 186.102 267.062 184.559 270.128C181.941 275.311 179.428 285.314 183.834 290.088ZM185.354 270.525C186.593 268.057 188.872 266.29 191.431 265.752C191.735 265.693 192.039 265.646 192.343 265.611C194.774 265.377 196.492 266.243 197.451 268.162C198.62 270.49 197.287 271.707 195.452 273.392C193.418 275.264 190.894 277.592 192.144 282.19C193.091 285.677 192.203 288.567 189.76 289.924C187.925 290.942 185.658 290.755 184.489 289.479C180.398 285.045 182.841 275.498 185.354 270.525Z" fill="#9B491B"/>
<path d="M170.685 321.76C171.188 324.123 172.135 326.042 173.771 327.001C176.226 328.441 178.633 329.002 180.41 328.628C181.181 328.464 181.824 328.125 182.315 327.61C183.764 326.054 183.285 323.257 181.006 319.935C178.364 316.085 180.679 313.64 183.145 311.043C185.237 308.831 187.411 306.55 186.195 303.426C185.319 301.18 183.308 300.138 180.375 300.396C175.454 300.84 171.398 304.795 170.732 309.814C170.206 313.722 169.937 318.238 170.685 321.76ZM171.609 309.943C171.889 307.825 172.824 305.918 174.18 304.432C175.548 302.946 177.336 301.882 179.335 301.46C179.697 301.378 180.059 301.332 180.445 301.297C183.005 301.074 184.618 301.87 185.354 303.754C186.371 306.351 184.489 308.34 182.502 310.434C180.024 313.043 177.219 316.003 180.27 320.449C182.292 323.386 182.806 325.785 181.66 327.001C180.386 328.37 177.336 328.054 174.227 326.229C171.375 324.556 170.44 318.765 171.609 309.943Z" fill="#9B491B"/>
<path d="M163.392 361.926C166.98 360.627 168.184 362.429 169.926 365.038C171.492 367.366 173.432 370.268 177.792 371.298C179.276 371.649 180.702 371.637 182.046 371.356C185.564 370.619 188.439 367.986 189.819 365.038C191.677 361.072 190.859 357.117 187.668 354.707C186.277 353.666 185.552 352.671 185.412 351.677C185.225 350.273 186.277 348.916 187.399 347.476C188.954 345.476 190.719 343.218 189.363 340.316C188.299 338.034 186.3 336.677 183.729 336.478C179.451 336.162 174.659 339.064 171.515 343.849C168.827 347.944 165.426 349.735 162.843 350.507C162.854 350.799 162.878 351.115 162.889 351.419C165.659 350.624 169.365 348.74 172.251 344.341C174.636 340.714 177.99 338.233 181.263 337.543C182.069 337.368 182.876 337.309 183.659 337.368C185.891 337.531 187.621 338.713 188.545 340.69C189.655 343.089 188.206 344.949 186.674 346.915C185.494 348.436 184.267 350.004 184.501 351.782C184.664 353.022 185.517 354.204 187.095 355.409C190.473 357.96 190.286 361.856 188.977 364.652C187.224 368.396 182.876 371.578 177.967 370.42C173.946 369.472 172.181 366.852 170.639 364.535C168.897 361.926 167.378 359.656 163.322 360.99C163.369 361.306 163.38 361.61 163.392 361.926Z" fill="#9B491B"/>
<path d="M208.835 351.08C209.138 352.636 210.074 353.701 211.453 354.075C212.189 354.274 213.007 354.274 213.872 354.099C215.801 353.689 217.916 352.379 219.646 350.413C221.423 348.401 223.199 348.658 225.654 349.009C228.038 349.348 231.007 349.781 234.794 348.061C239.001 346.143 239.703 342.165 238.581 339.275C237.552 336.666 234.782 334.396 231.112 335.613C228.482 336.478 226.776 337.824 225.256 338.994C222.942 340.796 220.955 342.352 216.385 342.071C214.118 341.931 212.294 342.539 210.997 343.873C208.472 346.459 208.811 350.846 208.823 351.022C208.835 351.057 208.835 351.068 208.835 351.08ZM209.711 350.94C209.688 350.6 209.477 346.716 211.64 344.505C212.75 343.37 214.328 342.855 216.327 342.972C221.224 343.264 223.445 341.545 225.794 339.708C227.325 338.514 228.903 337.286 231.392 336.455C234.513 335.425 236.874 337.368 237.739 339.602C238.721 342.106 238.101 345.569 234.42 347.242C230.866 348.857 228.155 348.471 225.77 348.132C224.391 347.933 223.129 347.757 221.913 348.015C220.897 348.225 219.927 348.752 218.968 349.828C216.712 352.379 213.708 353.783 211.675 353.233C210.635 352.929 209.957 352.145 209.711 350.94Z" fill="#9B491B"/>
<path d="M247.966 372.608C244.904 377.686 246.19 383.337 249.228 385.876C250.689 387.093 252.419 387.572 254.254 387.291C254.371 387.198 254.488 387.104 254.617 387.011C254.652 386.788 254.675 386.554 254.71 386.309C252.91 386.742 251.227 386.379 249.801 385.185C247.066 382.892 245.909 377.733 248.738 373.076C251.601 368.349 249.345 366.887 246.961 365.342C244.775 363.915 242.496 362.452 242.847 358.205C243.022 356.111 243.864 354.426 245.371 353.198C246.68 352.133 248.352 351.513 249.988 351.162C251.204 350.904 252.408 350.799 253.436 350.764C253.413 350.46 253.389 350.167 253.366 349.863C250.83 349.957 247.288 350.483 244.81 352.507C243.116 353.888 242.157 355.783 241.97 358.135C241.584 362.909 244.308 364.675 246.493 366.091C248.819 367.612 250.374 368.63 247.966 372.608Z" fill="#9B491B"/>
<path d="M173.666 400.945C173.958 401.051 174.25 401.144 174.554 401.238C174.589 399.857 174.916 396.897 176.962 394.908C178.668 393.258 181.216 392.603 184.536 392.966C188.942 393.457 190.941 395.283 192.694 396.897C195.651 399.612 197.708 400.899 205.422 395.856C208.356 393.937 211.079 392.814 213.452 392.311C217.285 391.503 220.231 392.299 221.774 393.89C223.667 395.844 223.574 398.945 221.552 402.291C221.949 402.197 222.335 402.104 222.732 402.01C224.567 398.57 224.474 395.376 222.428 393.258C219.681 390.427 213.043 389.795 204.943 395.095C197.427 400.021 195.873 398.594 193.302 396.23C191.537 394.604 189.328 392.58 184.629 392.065C181.029 391.667 178.236 392.404 176.331 394.265C174.18 396.382 173.736 399.342 173.666 400.945Z" fill="#9B491B"/>
<path d="M223.842 386.554C224.964 388.953 228.658 390.93 232.106 390.205C232.258 390.17 232.41 390.135 232.55 390.088C237.81 388.602 240.837 384.331 241.07 378.072C241.246 373.228 240.802 368.478 236.325 366.419C236.302 366.407 236.278 366.395 236.243 366.395C236.033 366.349 231.077 365.143 227.992 367.238C226.694 368.115 225.923 369.449 225.701 371.181C225.292 374.246 226.227 376.13 226.893 377.499C227.734 379.183 228.108 379.956 225.537 381.711C223.632 383.033 223.013 384.799 223.842 386.554ZM226.04 382.471C229.102 380.377 228.658 379.078 227.699 377.124C227.045 375.79 226.215 374.117 226.577 371.321C226.776 369.847 227.419 368.724 228.494 367.987C231.124 366.196 235.53 367.156 235.986 367.261C239.189 368.747 240.404 371.883 240.17 378.037C240.019 382.167 238.522 387.467 232.304 389.234C229.207 390.1 225.642 388.309 224.649 386.18C224.006 384.811 224.485 383.536 226.04 382.471Z" fill="#9B491B"/>
<path d="M167.016 398.231C167.284 398.371 167.565 398.5 167.845 398.629C169.715 396.441 170.487 394.054 170.125 391.562C169.54 387.514 166.162 384.121 163.93 382.296C163.942 382.693 163.942 383.091 163.942 383.489C166.022 385.326 168.757 388.298 169.248 391.691C169.575 393.96 168.851 396.125 167.097 398.149C167.062 398.172 167.039 398.208 167.016 398.231Z" fill="#9B491B"/>
<path d="M149.799 203.543C149.799 203.543 136.533 200.735 136.217 195.669C135.937 190.989 141.454 191.48 141.454 191.48C141.454 191.48 135.014 180.903 138.707 178.833C142.4 176.75 147.064 182.682 147.064 182.682C147.064 182.682 143.686 170.139 148.198 171.04C152.709 171.941 153.294 178.833 153.294 178.833C153.294 178.833 168.289 173.486 176.81 176.048C182.619 177.791 183.986 183.384 183.986 183.384C183.986 183.384 187.434 181.325 189.889 182.588C192.331 183.852 190.099 188.157 190.099 188.157C190.099 188.157 193.886 191.071 192.729 195.704C191.572 200.337 188.264 209.487 188.264 209.487L149.799 203.543Z" fill="#39393B"/>
<path d="M168.523 240.398L169.809 246.505C170.638 246.927 171.468 247.278 172.286 247.558C184.208 251.689 193.968 241.404 193.968 241.404L189.515 220.251L171.024 238L168.523 240.398Z" fill="#EA9B7A"/>
<path d="M168.523 240.398L169.809 246.505C170.638 246.927 171.468 247.278 172.286 247.558C180.55 242.083 185.12 231.237 185.12 231.237L171.036 238L168.523 240.398Z" fill="#39393B"/>
<path d="M156.788 190.989C156.788 190.989 142.354 195.482 150.921 209.791C150.909 209.779 157.969 194.943 156.788 190.989Z" fill="#39393B"/>
<path d="M155.21 214.962C155.21 214.962 150.885 211.593 149.787 216.109C148.688 220.613 151.937 228.581 156.928 226.124L155.21 214.962Z" fill="#D46A43"/>
<path d="M154.544 230.102C154.544 230.102 157.185 242.726 170.288 239.93C183.308 237.157 190.029 225.048 190.391 224.474C190.403 224.463 190.403 224.463 190.403 224.463L189.982 221.783L187.82 207.86L186.663 200.419C186.663 200.419 185.541 186.824 172.462 187.058C162.901 187.233 154.614 190.579 151.271 196.289C150.044 198.395 149.483 200.829 149.787 203.543L152.16 216.846L152.744 220.11L154.544 230.102Z" fill="#EA9B7A"/>
<path d="M181.275 209.498C181.275 209.498 179.346 217.244 175.08 216.893C170.814 216.53 166.08 217.021 162.784 219.49C162.784 219.49 156.18 218.507 153.06 221.795C150.968 224.006 155.888 240.456 165.017 241.041C174.145 241.638 185.12 236.151 186.207 227.423C187.294 218.694 185.658 211.803 185.658 211.803L181.275 209.498Z" fill="#39393B"/>
<path d="M160.096 223.176C160.096 223.176 167.471 222.415 171.082 220.344C171.082 220.344 172.695 227.551 166.466 228.171C161.463 228.675 160.096 223.176 160.096 223.176Z" fill="white"/>
<path d="M169.61 214.857C169.808 215.781 171.854 216.12 174.18 215.629C176.506 215.138 178.247 213.991 178.048 213.078C177.85 212.154 175.804 211.815 173.478 212.306C171.152 212.798 169.423 213.933 169.61 214.857Z" fill="#D46A43"/>
<path d="M152.756 220.099C153.083 220.063 153.434 220.005 153.784 219.935C156.11 219.443 157.852 218.297 157.653 217.384C157.454 216.472 155.409 216.121 153.083 216.612C152.768 216.682 152.464 216.752 152.172 216.846L152.756 220.099Z" fill="#D46A43"/>
<path d="M168.686 209.767C168.955 211.031 169.738 211.932 170.439 211.78C171.141 211.628 171.503 210.493 171.234 209.229C170.965 207.966 170.182 207.065 169.481 207.217C168.78 207.369 168.417 208.504 168.686 209.767Z" fill="#39393B"/>
<path d="M156.215 212.4C156.484 213.664 157.267 214.564 157.968 214.412C158.67 214.26 159.032 213.125 158.763 211.862C158.494 210.598 157.711 209.697 157.01 209.849C156.309 210.001 155.946 211.136 156.215 212.4Z" fill="#39393B"/>
<path d="M163.964 217.396C164.256 217.337 164.432 217.056 164.373 216.764C164.315 216.483 164.034 216.296 163.742 216.355C161.837 216.752 160.738 215.945 160.341 215.559C161.51 210.855 162.655 206.117 162.667 206.07C162.737 205.789 162.562 205.497 162.281 205.427C162.001 205.356 161.709 205.532 161.638 205.813C161.627 205.86 160.435 210.774 159.242 215.571C159.207 215.723 159.242 215.886 159.336 216.015C159.406 216.12 160.89 218.051 163.964 217.396Z" fill="#39393B"/>
<path d="M173.771 202.654C173.198 201.379 171.561 199.12 167.272 199.822C166.746 199.904 166.349 200.349 166.325 200.875C166.29 201.542 166.816 202.104 167.482 202.092C168.651 202.057 170.416 202.326 171.748 203.976C172.158 204.491 172.941 204.514 173.408 204.058L173.513 203.953C173.876 203.613 173.969 203.098 173.771 202.654Z" fill="#39393B"/>
<path d="M151.972 207.252C151.984 205.86 152.557 203.122 156.776 202.034C157.29 201.905 157.828 202.151 158.074 202.619C158.377 203.215 158.12 203.941 157.501 204.198C156.414 204.643 154.906 205.602 154.357 207.638C154.181 208.27 153.492 208.609 152.872 208.387L152.732 208.34C152.265 208.176 151.972 207.732 151.972 207.252Z" fill="#39393B"/>
<path d="M185.202 220.215C185.295 220.344 187.761 223.843 190.38 224.474C190.391 224.463 190.391 224.463 190.391 224.463L189.97 221.783C189.982 221.772 187.843 221.853 185.202 220.215Z" fill="#39393B"/>
<path d="M185.669 210.972C185.669 210.972 189.281 203.133 194.096 207.685C198.059 211.429 194.716 224.076 187.867 221.432L185.669 210.972Z" fill="#EA9B7A"/>
<path d="M188.136 219.233C188.393 219.174 188.58 218.929 188.556 218.659C188.042 213.418 191.957 210.715 192.121 210.61C192.367 210.446 192.425 210.118 192.261 209.873C192.098 209.627 191.77 209.569 191.525 209.721C191.338 209.849 186.908 212.868 187.493 218.753C187.516 219.045 187.785 219.256 188.077 219.233C188.089 219.244 188.112 219.244 188.136 219.233Z" fill="#39393B"/>
<path d="M192.31 215.067C192.462 215.032 192.591 214.939 192.672 214.787C192.801 214.529 192.708 214.202 192.439 214.073C192.193 213.944 190.031 212.868 188.558 213.605C188.301 213.734 188.184 214.049 188.313 214.319C188.441 214.576 188.757 214.693 189.026 214.564C189.867 214.143 191.469 214.775 191.959 215.032C192.065 215.079 192.193 215.091 192.31 215.067Z" fill="#39393B"/>
<path d="M151.283 196.289C151.47 196.71 151.739 197.05 152.09 197.295C155.199 199.436 161.019 197.213 166.232 194.312C171.445 191.41 176.214 194.639 176.214 194.639C175.793 200.314 181.134 199.635 180.866 203.929C180.597 208.223 182.151 213.476 182.151 213.476L185.33 212.353C185.634 210.306 186.908 208.738 187.808 207.86L186.651 200.419C186.651 200.419 185.529 186.824 172.45 187.058C162.913 187.233 154.614 190.568 151.283 196.289Z" fill="#39393B"/>
<path d="M248.925 375.241C248.925 375.241 261.408 424.533 196.691 424.533C162.13 424.533 145.697 421.198 145.697 421.198C145.697 421.198 144.867 451.747 143.254 464.64C141.641 477.534 135.949 509.638 135.949 509.638L108.727 511.744C108.727 511.744 104.379 399.892 121.058 389.596C137.737 379.3 161.733 378.996 202.921 375.03C202.933 375.03 239.914 368.77 248.925 375.241Z" fill="#39393B"/>
<path d="M132.232 500.7C132.173 500.7 132.115 500.688 132.056 500.676C131.659 500.583 131.414 500.185 131.507 499.787C135.271 484.051 136.767 461.516 137.959 443.405C139.139 425.551 139.852 416.156 141.699 414.518C143.744 412.716 149.799 413.359 159.839 414.424C172.286 415.746 191.081 417.747 211.359 415.418C221.435 414.26 229.149 410.317 234.303 403.683C243.548 391.784 241.433 375.089 241.409 374.925C241.351 374.515 241.643 374.141 242.04 374.094C242.45 374.036 242.824 374.328 242.87 374.726C242.964 375.428 245.103 392.194 235.472 404.584C230.06 411.546 222.007 415.688 211.523 416.893C191.081 419.244 172.181 417.232 159.675 415.898C151.038 414.974 144.224 414.248 142.669 415.629C142.318 415.945 141.617 417.478 140.904 424.252C140.367 429.26 139.934 435.858 139.432 443.51C138.228 461.68 136.732 484.285 132.933 500.138C132.863 500.477 132.559 500.7 132.232 500.7Z" fill="#585859"/>
<path d="M109.031 502.923C108.645 502.923 108.318 502.618 108.295 502.221C108.271 501.811 108.587 501.46 108.984 501.437L136.825 499.752C137.234 499.728 137.585 500.044 137.608 500.442C137.632 500.852 137.316 501.203 136.919 501.226L109.078 502.911C109.055 502.923 109.043 502.923 109.031 502.923Z" fill="#585859"/>
<path d="M183.916 389.35H102.368C102.181 389.35 102.03 389.198 102.03 389.011V378.961C102.03 378.774 102.181 378.622 102.368 378.622H183.916C184.103 378.622 184.255 378.774 184.255 378.961V389.011C184.255 389.198 184.103 389.35 183.916 389.35Z" fill="#CED3E6"/>
<path d="M93.4509 389.351C90.3536 389.351 87.6537 387.268 86.8472 384.273L71.4658 326.627C70.5308 323.105 73.1839 319.642 76.8189 319.642H113.636C116.114 319.642 118.3 321.292 118.978 323.69L137.398 389.339H93.4509V389.351Z" fill="white"/>
<path d="M118.989 323.702L137.257 388.813H141.465L123.197 323.702C122.519 321.304 120.345 319.654 117.855 319.654H113.647C116.125 319.642 118.311 321.304 118.989 323.702Z" fill="#CED3E6"/>
<path d="M108.587 355.433C109.428 359.048 107.172 361.985 103.549 361.985C99.9374 361.985 96.3259 359.048 95.4843 355.433C94.6428 351.817 96.8986 348.88 100.522 348.88C104.133 348.88 107.745 351.817 108.587 355.433Z" fill="#CED3E6"/>
<path d="M158.799 365.857C158.799 365.857 142.108 367.004 136.778 372.117L140.028 383.676C140.028 383.676 150.009 379.593 152.768 379.991C155.538 380.389 157.186 384.928 166.431 382.167L158.799 365.857Z" fill="#EA9B7A"/>
<path d="M158.881 365.097L160.763 364.324L162.715 363.505C164.024 362.955 165.321 362.382 166.63 361.797C169.236 360.639 171.819 359.445 174.391 358.205C179.522 355.737 184.559 353.116 189.41 350.343C194.26 347.558 198.959 344.61 203.237 341.451C204.3 340.655 205.352 339.86 206.358 339.052C207.363 338.233 208.333 337.414 209.268 336.584C211.103 334.922 212.786 333.214 214.107 331.553C214.761 330.734 215.346 329.903 215.778 329.178C216.164 328.511 216.538 327.774 216.865 326.943C217.52 325.293 218.034 323.339 218.384 321.198C219.074 316.893 219.097 311.92 218.653 306.831C218.209 301.729 217.309 296.464 216.129 291.234C215.533 288.614 214.855 285.993 214.118 283.407C213.744 282.108 213.359 280.821 212.961 279.558C212.763 278.926 212.552 278.294 212.353 277.674L212.05 276.773L211.898 276.34L211.828 276.141L211.792 276.048L211.781 276.013C208.263 268.665 211.36 259.843 218.7 256.322C226.04 252.8 234.853 255.901 238.371 263.248C238.71 263.962 238.99 264.687 239.212 265.413L239.657 266.945L239.773 267.355L239.867 267.682L240.042 268.314L240.358 269.531C240.557 270.338 240.755 271.122 240.942 271.918C241.316 273.497 241.667 275.065 241.983 276.633C242.637 279.78 243.198 282.927 243.677 286.11C244.624 292.475 245.267 298.945 245.349 305.637C245.395 308.983 245.279 312.388 244.975 315.851C244.659 319.326 244.121 322.871 243.245 326.498C242.357 330.125 241.106 333.834 239.259 337.531C238.324 339.38 237.237 341.205 235.963 342.972C234.724 344.68 233.462 346.154 232.165 347.547C229.57 350.308 226.893 352.601 224.193 354.695C221.493 356.766 218.758 358.626 216.012 360.358C210.518 363.798 204.967 366.723 199.368 369.402C193.77 372.07 188.124 374.48 182.444 376.715C179.604 377.826 176.752 378.903 173.877 379.932C172.439 380.447 171.001 380.95 169.552 381.442L167.366 382.179L165.087 382.916C160.143 384.507 154.837 381.792 153.236 376.843C151.716 372.128 154.1 367.097 158.612 365.237L158.881 365.097Z" fill="#EA9B7A"/>
<path d="M227.174 333.378C227.116 333.378 227.057 333.366 227.01 333.355C221.318 331.646 214.96 331.904 214.902 331.915C214.574 331.927 214.306 331.681 214.294 331.354C214.282 331.026 214.528 330.757 214.855 330.745C215.124 330.734 221.47 330.465 227.361 332.231C227.665 332.325 227.84 332.653 227.758 332.957C227.653 333.214 227.419 333.378 227.174 333.378Z" fill="#D46A43"/>
<path d="M216.327 331.892C216.163 331.892 216 331.822 215.883 331.693C215.673 331.447 215.696 331.085 215.941 330.862C218.069 329.025 220.733 328.218 220.85 328.183C221.154 328.089 221.482 328.265 221.575 328.581C221.669 328.885 221.493 329.213 221.178 329.306C221.154 329.318 218.63 330.078 216.701 331.74C216.608 331.845 216.467 331.892 216.327 331.892Z" fill="#D46A43"/>
<path d="M247.978 296.113L235.881 299.436L234.993 299.682L226.636 301.975L225.619 302.256L214.866 305.204L214.036 301.39L213.849 300.478L211.909 291.515L211.71 290.614L208.052 273.708C207.059 269.8 206.404 264.91 206.953 260.92C207.76 255.011 212.938 247.348 222.487 246.833C224.193 246.739 225.794 246.997 227.29 247.547C227.594 247.64 227.898 247.769 228.19 247.898C231.077 249.208 233.579 251.618 235.729 254.719C235.905 254.965 236.068 255.21 236.22 255.468C240.311 261.692 243.104 270.397 244.974 278.54C245.056 278.856 245.126 279.172 245.196 279.488C246.061 283.36 246.716 287.093 247.207 290.322C247.289 290.825 247.359 291.316 247.417 291.796C247.651 293.411 247.838 294.862 247.978 296.113Z" fill="#C17951"/>
<path d="M247.207 290.322C245.769 289.011 243.829 288.099 240.837 288.637C237.284 289.269 234.49 288.122 233.368 285.56C232.515 283.641 232.912 281.395 234.28 280.342C237.015 278.236 241.211 278.411 245.196 279.488C245.126 279.172 245.056 278.856 244.974 278.54C240.884 277.499 236.606 277.428 233.731 279.628C232.445 280.623 231.849 282.354 232.059 284.144C232.129 284.741 232.293 285.338 232.538 285.923C233.847 288.883 237.015 290.228 241 289.515C244.215 288.93 245.991 290.181 247.417 291.796C247.359 291.328 247.289 290.837 247.207 290.322Z" fill="#9B491B"/>
<path d="M234.572 263.856C232.095 260.265 233.953 257.889 236.22 255.479C236.068 255.222 235.905 254.976 235.729 254.73C233.333 257.246 230.914 260.136 233.836 264.371C235.858 267.308 236.361 269.695 235.227 270.923C233.953 272.292 230.891 271.976 227.793 270.151C224.941 268.466 224.018 262.686 225.175 253.865C225.456 251.747 226.391 249.84 227.747 248.354C227.887 248.202 228.039 248.05 228.191 247.909C227.899 247.781 227.595 247.652 227.291 247.558C225.689 249.208 224.614 251.349 224.287 253.736C223.784 257.632 223.516 262.16 224.252 265.67C224.754 268.033 225.701 269.952 227.337 270.923C229.792 272.362 232.211 272.924 233.976 272.55C234.748 272.386 235.402 272.046 235.881 271.532C237.331 269.976 236.852 267.179 234.572 263.856Z" fill="#9B491B"/>
<path d="M211.933 290.731C209.946 278.903 207.433 267.835 207.409 267.718C207.351 267.484 207.117 267.331 206.884 267.39C206.65 267.448 206.498 267.682 206.556 267.916C206.58 268.033 209.081 279.043 211.056 290.813C211.185 291.27 211.933 291.293 211.933 290.731Z" fill="#9B491B"/>
<path d="M208.73 276.457C208.648 276.457 208.566 276.434 208.496 276.387L203.938 273.462C203.739 273.334 203.669 273.064 203.809 272.854C203.938 272.643 204.207 272.585 204.417 272.725L208.976 275.65C209.174 275.779 209.244 276.048 209.104 276.259C209.022 276.387 208.87 276.457 208.73 276.457Z" fill="#9B491B"/>
<path d="M246.19 493.446H158.787C156.741 493.446 155.082 491.784 155.082 489.737C155.082 487.689 156.741 486.028 158.787 486.028H246.19C248.235 486.028 249.895 487.689 249.895 489.737C249.895 491.784 248.235 493.446 246.19 493.446Z" fill="#3D759B"/>
<path d="M150.745 550.039C150.582 550.039 150.418 550.027 150.255 550.004C148.233 549.734 146.807 547.862 147.075 545.838L162.994 426.849C163.24 425.012 164.806 423.632 166.664 423.632H237.973C239.831 423.632 241.398 425.012 241.643 426.849L257.317 545.85C257.585 547.874 256.159 549.746 254.126 550.004C252.104 550.273 250.234 548.845 249.977 546.809L234.724 431.038H169.902L154.415 546.821C154.158 548.693 152.569 550.039 150.745 550.039Z" fill="#62A3CF"/>
<path d="M187.317 427.341H233.625C248.293 427.341 264.014 419.303 266.258 404.795C269.273 385.385 270.01 366.594 269.18 349.349C268.233 329.845 260.659 311.733 245.336 299.647C245.336 299.647 251.952 374.878 245.979 395.657C238.02 423.421 187.317 427.341 187.317 427.341Z" fill="#62A3CF"/>
<path d="M45.5889 272.421V294.674C45.5889 297.611 47.9732 299.998 50.9069 299.998H91.2773L103.468 304.374C104.718 304.818 105.922 303.59 105.431 302.349L100.826 290.427V272.409C100.826 269.472 98.442 267.086 95.4966 267.086H50.9069C47.9732 267.086 45.5889 269.472 45.5889 272.421Z" fill="#62A3CF"/>
<path d="M80.653 284.179C80.653 286.309 82.3711 288.029 84.4983 288.029C86.6255 288.029 88.3437 286.297 88.3437 284.179C88.3437 282.05 86.6255 280.33 84.4983 280.33C82.3828 280.318 80.653 282.05 80.653 284.179Z" fill="#3D759B"/>
<path d="M68.4738 284.179C68.4738 286.309 70.1919 288.029 72.3191 288.029C74.4463 288.029 76.1645 286.297 76.1645 284.179C76.1645 282.05 74.4463 280.33 72.3191 280.33C70.1919 280.318 68.4738 282.05 68.4738 284.179Z" fill="#3D759B"/>
<path d="M56.2834 284.179C56.2834 286.309 58.0133 288.029 60.1288 288.029C62.256 288.029 63.9742 286.297 63.9742 284.179C63.9742 282.05 62.2443 280.33 60.1288 280.33C58.0016 280.318 56.2834 282.05 56.2834 284.179Z" fill="#3D759B"/>
<defs>
<filter id="filter0_d_557_9094" x="184.781" y="120.555" width="458.357" height="403.701" filterUnits="userSpaceOnUse" color-interpolation-filters="sRGB">
<feFlood flood-opacity="0" result="BackgroundImageFix"/>
<feColorMatrix in="SourceAlpha" type="matrix" values="0 0 0 0 0 0 0 0 0 0 0 0 0 0 0 0 0 0 127 0" result="hardAlpha"/>
<feOffset dy="3.6"/>
<feGaussianBlur stdDeviation="1.8"/>
<feComposite in2="hardAlpha" operator="out"/>
<feColorMatrix type="matrix" values="0 0 0 0 0 0 0 0 0 0 0 0 0 0 0 0 0 0 0.1 0"/>
<feBlend mode="normal" in2="BackgroundImageFix" result="effect1_dropShadow_557_9094"/>
<feBlend mode="normal" in="SourceGraphic" in2="effect1_dropShadow_557_9094" result="shape"/>
</filter>
</defs>
</svg>
