<svg width="329" height="319" viewBox="0 0 329 319" fill="none" xmlns="http://www.w3.org/2000/svg">
<path d="M127.929 318.865C198.192 318.865 255.152 315.4 255.152 311.126C255.152 306.852 198.192 303.388 127.929 303.388C57.6656 303.388 0.705933 306.852 0.705933 311.126C0.705933 315.4 57.6656 318.865 127.929 318.865Z" fill="#CED3E6"/>
<path d="M119.998 95.6272L132.849 142.62L128.263 137.341C129.959 138.246 131.926 138.94 134.096 139.423C136.265 139.915 138.637 140.196 141.114 140.319C143.591 140.45 146.173 140.424 148.817 140.319C151.461 140.204 154.158 140.011 156.898 139.774H156.916C160.956 139.431 164.514 142.427 164.856 146.467C165.181 150.323 162.45 153.731 158.699 154.346C155.871 154.794 152.998 155.225 150.056 155.567C147.104 155.91 144.083 156.164 140.956 156.235C137.829 156.305 134.588 156.182 131.232 155.699C127.886 155.216 124.416 154.337 121.026 152.879C118.856 151.939 117.31 150.165 116.607 148.083L116.441 147.592L101.025 101.38C99.2948 96.1893 102.097 90.5677 107.297 88.8374C112.488 87.107 118.11 89.909 119.84 95.1089C119.893 95.267 119.954 95.4603 119.998 95.6272Z" fill="#EA9B7A"/>
<path d="M124.94 265.979C124.747 265.979 124.553 265.944 124.36 265.874L57.0419 241.604C56.1635 241.288 55.7068 240.313 56.023 239.435C56.3392 238.556 57.3142 238.091 58.1926 238.416L125.511 262.685C126.389 263.001 126.855 263.976 126.53 264.855C126.293 265.549 125.634 265.979 124.94 265.979Z" fill="#C77E2E"/>
<path d="M54.8223 265.978C54.1284 265.978 53.4784 265.547 53.2237 264.854C52.9075 263.975 53.3642 263 54.2426 262.675L122.36 238.002C123.239 237.686 124.214 238.142 124.539 239.021C124.855 239.899 124.398 240.874 123.52 241.199L55.402 265.872C55.2088 265.943 55.0155 265.978 54.8223 265.978Z" fill="#C77E2E"/>
<path d="M130.935 309.352C129.503 309.352 128.256 308.289 128.054 306.831L115.897 216.034H65.0135L53.0413 306.831C52.8305 308.421 51.3724 309.545 49.7826 309.335C48.1927 309.124 47.0684 307.666 47.2792 306.076L59.5852 212.767C59.7784 211.317 61.0081 210.237 62.4662 210.237H118.445C119.903 210.237 121.133 211.317 121.326 212.758L133.825 306.067C134.036 307.657 132.92 309.124 131.33 309.335C131.19 309.343 131.067 309.352 130.935 309.352Z" fill="#FAAF3A"/>
<path d="M102.227 213.136H65.8713C54.3559 213.136 42.0235 206.829 40.2492 195.454C37.8864 180.232 37.2979 165.502 37.9567 151.975C38.7033 136.682 46.0113 122.453 58.0274 112.966C58.0274 112.966 65.2916 144.614 56.1565 188.295C59.6524 204.879 102.227 213.136 102.227 213.136Z" fill="#FAAF3A"/>
<path d="M186.328 270.449H170.087C170.087 270.449 166.328 252.425 165.072 242.324C163.807 232.214 163.157 208.261 163.157 208.261C163.157 208.261 150.219 212.468 123.13 210.878C63.1106 207.374 85.8692 163.28 85.8692 163.28C87.8982 166.082 100.318 164.14 108.812 165.475C134.873 167.979 157.465 178.203 171.027 184.053C174.295 185.458 177.193 186.952 179.741 188.524C183.008 190.535 185.055 196.658 186.293 204.695C189.991 228.859 186.328 270.449 186.328 270.449Z" fill="#39393B"/>
<path d="M172.115 261.763C171.843 261.763 171.606 261.569 171.544 261.297C169.199 249.703 168.417 235.271 167.785 223.676C167.258 214.058 166.766 204.976 165.527 203.887C164.526 203 160.371 203.694 155.119 204.563C144.657 206.302 128.847 208.92 111.42 204.871C101.925 202.657 94.9416 198.046 90.6728 191.159C83.3032 179.284 86.6674 164.553 86.7025 164.404C86.7728 164.088 87.089 163.895 87.4052 163.974C87.7214 164.044 87.9147 164.36 87.8356 164.676C87.8005 164.817 84.5593 179.09 91.6741 190.553C95.7761 197.167 102.513 201.603 111.692 203.737C128.899 207.743 144.57 205.143 154.943 203.421C161.153 202.394 164.904 201.77 166.318 203.017C167.846 204.37 168.277 211.01 168.962 223.615C169.594 235.174 170.376 249.553 172.704 261.069C172.765 261.385 172.563 261.692 172.247 261.754C172.185 261.763 172.15 261.763 172.115 261.763Z" fill="#585859"/>
<path d="M186.635 262.067H186.627L168.567 261.68C168.242 261.671 167.988 261.408 167.996 261.083C168.005 260.758 168.269 260.503 168.594 260.512L186.653 260.899C186.978 260.907 187.233 261.171 187.224 261.496C187.215 261.812 186.952 262.067 186.635 262.067Z" fill="#585859"/>
<path d="M185.888 291.25H174.426L172.221 277.811L171.009 270.45H185.247L185.475 277.811L185.888 291.25Z" fill="#EA9B7A"/>
<path d="M185.883 291.249H174.42L172.777 281.244L172.215 277.81H185.47L185.584 281.367L185.883 291.249Z" fill="#FAAF3A"/>
<path d="M185.584 281.367L172.777 281.244L172.215 277.81H185.47L185.584 281.367Z" fill="#C77E2E"/>
<path d="M214.168 309.351H170.82C170.495 308.762 170.319 307.937 170.249 306.944C169.977 303.273 171.145 297.423 171.716 293.734C171.786 293.303 171.848 292.899 171.892 292.539C171.971 291.924 172.023 291.406 172.023 291.028C172.023 288.015 174.685 288.534 174.685 288.534C179.068 292.838 184.04 286.382 186.938 288.498C186.938 288.498 187.052 288.586 187.325 288.788C187.571 288.982 187.94 289.28 188.449 289.711C189.187 290.325 190.223 291.221 191.629 292.486C195.072 295.587 200.922 297.625 205.902 299.706C206.535 299.97 207.123 300.242 207.676 300.506C208.089 300.708 208.485 300.91 208.853 301.103C212.929 303.299 214.22 305.407 214.519 306.935C214.809 308.411 214.168 309.351 214.168 309.351Z" fill="#0875F7"/>
<path d="M208.86 301.112C207.745 301.999 205.259 303.782 203.265 303.782C203.177 303.782 203.089 303.782 203.002 303.773C201.596 303.659 196.431 301.12 192.224 298.81C189.817 297.484 187.613 296.184 186.031 295.139C183.44 293.426 182.984 292.776 182.887 292.319C182.509 290.606 185.338 289.42 187.323 288.797C187.569 288.99 187.938 289.289 188.447 289.719C185.988 290.387 183.959 291.441 184.055 292.047C184.301 292.556 186.866 294.506 192.997 297.87C197.679 300.435 202.114 302.499 203.098 302.587C204.433 302.693 206.392 301.48 207.675 300.523C208.096 300.716 208.491 300.918 208.86 301.112Z" fill="#084FC7"/>
<path d="M214.166 309.352H170.818C170.493 308.763 170.317 307.938 170.247 306.945H214.526C214.807 308.412 214.166 309.352 214.166 309.352Z" fill="#084FC7"/>
<path d="M175.235 309.349H173.944C175.226 307.882 176.43 305.624 176.272 302.41C176.061 298.123 173.496 295.242 171.704 293.731C171.774 293.301 171.836 292.897 171.88 292.537C173.804 294.004 177.045 297.227 177.299 302.357C177.466 305.431 176.456 307.724 175.235 309.349Z" fill="#084FC7"/>
<path d="M190.903 295.049C190.587 295.049 190.288 294.829 190.209 294.504C190.113 294.118 190.35 293.731 190.728 293.635L193.433 292.958C193.819 292.862 194.206 293.099 194.303 293.477C194.399 293.863 194.162 294.25 193.784 294.346L191.079 295.023C191.017 295.04 190.956 295.049 190.903 295.049Z" fill="white"/>
<path d="M188.212 292.803C187.896 292.803 187.597 292.583 187.518 292.258C187.421 291.871 187.658 291.485 188.036 291.388L190.742 290.712C191.128 290.615 191.515 290.853 191.611 291.23C191.708 291.617 191.471 292.003 191.093 292.091L188.388 292.767C188.326 292.794 188.265 292.803 188.212 292.803Z" fill="white"/>
<path d="M193.609 296.621C193.292 296.621 192.994 296.402 192.915 296.077C192.818 295.69 193.055 295.304 193.433 295.216L196.138 294.54C196.525 294.443 196.911 294.68 197.008 295.058C197.104 295.444 196.867 295.831 196.49 295.928L193.784 296.604C193.723 296.621 193.67 296.621 193.609 296.621Z" fill="white"/>
<path d="M196.313 298.143C195.988 298.143 195.698 297.924 195.619 297.599C195.522 297.212 195.76 296.826 196.137 296.729L198.843 296.053C199.229 295.956 199.616 296.193 199.712 296.571C199.809 296.957 199.572 297.344 199.194 297.432L196.489 298.108C196.436 298.134 196.374 298.143 196.313 298.143Z" fill="white"/>
<path d="M199.271 299.539C198.954 299.539 198.656 299.32 198.577 298.995C198.48 298.608 198.717 298.222 199.095 298.134L201.8 297.458C202.187 297.361 202.573 297.598 202.67 297.976C202.767 298.362 202.529 298.749 202.152 298.846L199.446 299.522C199.385 299.531 199.323 299.539 199.271 299.539Z" fill="white"/>
<path d="M202.465 300.733C202.149 300.733 201.85 300.513 201.771 300.188C201.674 299.802 201.912 299.415 202.289 299.319L204.995 298.642C205.381 298.546 205.768 298.783 205.864 299.16C205.961 299.547 205.724 299.933 205.346 300.021L202.641 300.698C202.579 300.724 202.526 300.733 202.465 300.733Z" fill="white"/>
<path d="M109.572 165.466C84.1872 179.432 56.4658 168.189 56.4658 168.189C57.8185 164.491 58.8286 160.318 59.5577 156.524C60.4009 152.106 60.8752 148.206 61.0948 146.159C71.89 145.571 98.364 144.438 108.738 146.897L108.817 151.052L109.572 165.466Z" fill="#EA9B7A"/>
<path d="M90.8174 158.772C90.6329 160.081 90.0356 161.083 89.4998 161.004C88.9553 160.924 88.6742 159.8 88.8586 158.491C89.0431 157.183 89.6404 156.181 90.1762 156.26C90.7208 156.339 91.0019 157.464 90.8174 158.772Z" fill="#D96C63"/>
<path d="M108.808 151.052C97.9953 150.393 76.73 150.165 59.5491 156.516C60.3923 152.097 60.8666 148.197 61.0862 146.151C71.8814 145.562 98.3554 144.429 108.729 146.889L108.808 151.052Z" fill="#D96C63"/>
<path d="M120.867 130.963C120.761 131.28 120.638 131.569 120.498 131.842C120.445 131.947 120.393 132.053 120.34 132.149C119.533 134.902 119.18 136.312 117.934 138.412C117.565 138.737 117.214 139.027 116.889 139.29C116.239 139.817 116.032 140.271 115.654 140.543C115.144 140.206 115.654 140.587 115.646 140.622C115.628 140.807 115.61 141.009 115.593 141.22C115.531 142.019 113.874 158.819 113.839 159.908C113.804 160.778 113.777 161.735 113.76 162.772C113.751 163.536 113.733 164.335 113.724 165.161C99.3807 158.749 67.7167 162.798 55.8148 164.801C56.0344 163.773 56.2276 162.763 56.4121 161.779C57.2553 157.238 57.7296 137.639 57.9141 133.976C58.1952 128.53 57.7209 120.344 56.5614 111.885C56.4911 111.332 56.4121 110.787 56.333 110.243C56.2803 109.882 56.2276 109.531 56.1661 109.171C55.7621 106.518 55.2878 103.857 54.752 101.274C52.4067 90.0137 54.0493 78.1996 65.4681 76.803C66.2938 76.6976 67.1106 76.6098 67.91 76.522C73.2856 75.951 77.7126 75.749 78.9423 75.7051C79.1706 75.6963 79.2848 75.6963 79.2848 75.6963L101.349 82.1084L103.449 82.7145C104.652 83.1009 105.768 83.4786 106.804 83.8476C107.243 84.0057 107.674 84.1638 108.078 84.3131C109.149 84.7171 110.116 85.1036 111.003 85.4989C112.768 86.2807 114.165 87.0448 115.272 87.8266C120.111 91.261 119.365 95.1434 119.242 102.812C119.242 102.847 119.242 102.882 119.242 102.917C119.242 103.014 119.242 103.11 119.242 103.216C119.242 103.26 119.242 103.303 119.242 103.347C119.242 103.664 119.242 103.971 119.242 104.287C119.251 105.28 119.286 106.264 119.347 107.247C119.426 108.697 119.558 110.137 119.716 111.543C119.778 112.105 119.839 112.667 119.909 113.229C119.971 113.756 120.041 114.274 120.111 114.793C120.972 121.503 121.649 127.497 120.867 130.963Z" fill="#0875F7"/>
<path d="M119.233 102.917C119.233 103.014 119.233 103.111 119.233 103.216C119.233 103.26 119.233 103.304 119.233 103.348C119.233 103.664 119.233 103.971 119.233 104.288L114.595 107.195C114.455 107.283 114.297 107.309 114.138 107.283C113.963 107.257 113.805 107.151 113.699 106.993C113.506 106.686 113.603 106.29 113.901 106.097L118.82 103.014C118.943 102.935 119.092 102.909 119.233 102.917Z" fill="#084FC7"/>
<path d="M88.6671 127.757C88.4914 127.757 88.3157 127.687 88.184 127.547C87.9468 127.283 87.9644 126.87 88.2279 126.633L92.5407 122.751C92.8042 122.513 93.217 122.531 93.4542 122.795C93.6913 123.058 93.6738 123.471 93.4103 123.708L89.0975 127.59C88.9745 127.696 88.8164 127.757 88.6671 127.757Z" fill="#084FC7"/>
<path d="M120.094 114.793L117.143 117.454C117.02 117.568 116.861 117.621 116.712 117.621C116.536 117.621 116.361 117.551 116.229 117.41C115.992 117.147 116.009 116.734 116.273 116.497L119.892 113.238C119.953 113.756 120.024 114.274 120.094 114.793Z" fill="#084FC7"/>
<path d="M79.9174 112.14C79.8208 111.991 79.7769 111.806 79.8208 111.622C79.8998 111.27 80.2512 111.059 80.6025 111.139L86.2504 112.474C86.6018 112.553 86.8126 112.904 86.7335 113.255C86.6545 113.607 86.3031 113.818 85.9518 113.738L80.3039 112.403C80.137 112.368 80.0052 112.272 79.9174 112.14Z" fill="#084FC7"/>
<path d="M59.758 123.225C59.5823 123.225 59.4067 123.155 59.2749 123.014C59.0377 122.751 59.0553 122.338 59.3188 122.101L63.6316 118.219C63.8951 117.981 64.308 117.999 64.5451 118.262C64.7823 118.526 64.7647 118.939 64.5012 119.176L60.1884 123.058C60.0654 123.173 59.9161 123.225 59.758 123.225Z" fill="#084FC7"/>
<path d="M109.966 122.303C110.019 122.136 110.151 121.986 110.318 121.916C110.643 121.776 111.029 121.925 111.17 122.25L113.488 127.573C113.629 127.898 113.48 128.284 113.155 128.425C112.83 128.565 112.443 128.416 112.303 128.091L109.984 122.768C109.922 122.61 109.922 122.443 109.966 122.303Z" fill="#084FC7"/>
<path d="M120.866 130.964C120.761 131.28 120.638 131.57 120.497 131.842C120.444 131.948 120.392 132.053 120.339 132.15L117.186 131.157C117.028 131.104 116.905 130.999 116.826 130.867C116.738 130.718 116.703 130.525 116.764 130.349C116.869 130.006 117.238 129.822 117.572 129.927L120.866 130.964Z" fill="#084FC7"/>
<path d="M103.054 131.429C103.229 131.411 103.414 131.464 103.554 131.596C103.818 131.833 103.835 132.246 103.598 132.509L99.6982 136.805C99.461 137.068 99.0481 137.086 98.7846 136.849C98.5211 136.611 98.5036 136.199 98.7407 135.935L102.641 131.64C102.755 131.517 102.904 131.447 103.054 131.429Z" fill="#084FC7"/>
<path d="M100.761 121.521C100.585 121.495 100.427 121.389 100.322 121.231C100.128 120.933 100.225 120.529 100.524 120.335L105.443 117.252C105.741 117.059 106.145 117.156 106.339 117.454C106.532 117.753 106.435 118.157 106.137 118.35L101.218 121.433C101.077 121.521 100.91 121.547 100.761 121.521Z" fill="#084FC7"/>
<path d="M103.897 102.829C104.011 102.961 104.082 103.137 104.055 103.33C104.02 103.681 103.695 103.945 103.344 103.901L97.5729 103.268C97.2216 103.233 96.9581 102.908 97.002 102.557C97.0371 102.205 97.3621 101.942 97.7135 101.986L103.484 102.618C103.642 102.636 103.792 102.715 103.897 102.829Z" fill="#084FC7"/>
<path d="M95.5087 90.3126C95.5527 90.1369 95.6668 89.9876 95.8337 89.8998C96.1499 89.7329 96.5452 89.8471 96.7121 90.1633L99.4614 95.2754C99.6283 95.5916 99.5141 95.9869 99.1979 96.1538C98.8817 96.3207 98.4864 96.2065 98.3195 95.8902L95.5702 90.7781C95.4824 90.6288 95.4648 90.4619 95.5087 90.3126Z" fill="#084FC7"/>
<path d="M115.122 138.421C114.753 138.746 114.402 139.036 114.077 139.299L113.322 137.367C113.26 137.209 113.26 137.051 113.322 136.901C113.383 136.735 113.515 136.594 113.69 136.524C114.024 136.392 114.402 136.559 114.534 136.893L115.122 138.421Z" fill="#084FC7"/>
<path d="M62.069 128.583C61.9811 128.425 61.9636 128.241 62.0338 128.056C62.1568 127.722 62.5257 127.547 62.8595 127.67L68.323 129.637C68.6567 129.76 68.8324 130.129 68.7094 130.463C68.5865 130.797 68.2176 130.972 67.8838 130.85L62.4203 128.882C62.2622 128.838 62.1392 128.724 62.069 128.583Z" fill="#084FC7"/>
<path d="M64.7397 135.97C64.9154 135.97 65.091 136.049 65.2228 136.189C65.46 136.453 65.4336 136.866 65.1701 137.103L60.8222 140.95C60.5587 141.187 60.1458 141.161 59.9087 140.897C59.6715 140.634 59.6979 140.221 59.9614 139.984L64.3093 136.137C64.4323 136.022 64.5904 135.97 64.7397 135.97Z" fill="#084FC7"/>
<path d="M72.6181 142.074C72.7235 142.215 72.785 142.399 72.7498 142.584C72.6883 142.935 72.3546 143.172 72.0032 143.111L66.285 142.136C65.9337 142.074 65.6965 141.741 65.758 141.389C65.8195 141.038 66.1533 140.801 66.5046 140.862L72.2228 141.837C72.3809 141.864 72.5214 141.951 72.6181 142.074Z" fill="#084FC7"/>
<path d="M77.4057 87.7385C77.3618 87.5716 77.3794 87.3784 77.4848 87.2203C77.678 86.9216 78.0821 86.8338 78.3807 87.027L83.2557 90.1716C83.5543 90.3648 83.6422 90.7689 83.4489 91.0675C83.2557 91.3662 82.8516 91.454 82.553 91.2608L77.678 88.1162C77.5375 88.0196 77.4409 87.8878 77.4057 87.7385Z" fill="#084FC7"/>
<path d="M110.678 91.4454C110.836 91.3576 111.02 91.34 111.205 91.4015C111.539 91.5245 111.714 91.8934 111.6 92.2272L109.659 97.6994C109.536 98.0332 109.167 98.2089 108.833 98.0947C108.499 97.9717 108.324 97.6028 108.438 97.269L110.379 91.7968C110.432 91.6475 110.546 91.5245 110.678 91.4454Z" fill="#084FC7"/>
<path d="M108.069 84.3219L105.074 88.1691C104.854 88.4502 104.45 88.5029 104.169 88.2833C103.888 88.0637 103.835 87.6597 104.055 87.3786L106.795 83.8651C107.234 84.0057 107.665 84.1637 108.069 84.3219Z" fill="#084FC7"/>
<path d="M101.341 82.1088C100.102 84.0236 97.5548 86.1932 92.39 85.8243C85.2664 85.306 80.5759 78.5074 78.9421 75.7142C79.1617 75.7054 79.2847 75.7054 79.2847 75.7054L101.341 82.1088Z" fill="#084FC7"/>
<path d="M115.273 87.827C114.817 92.8864 116.064 101.24 119.331 107.248C119.252 105.957 119.217 104.648 119.235 103.348C119.235 103.304 119.235 103.26 119.235 103.216C119.235 103.084 119.244 102.953 119.244 102.821C119.358 95.1526 120.104 91.2615 115.273 87.827Z" fill="#EA9B7A"/>
<path d="M74.6807 96.733C72.151 106.501 62.893 114.336 56.5687 111.894C56.4897 111.349 56.4194 110.796 56.3404 110.251C56.2877 109.891 56.235 109.54 56.1735 109.18C55.7694 106.527 55.2951 103.865 54.7593 101.283C52.414 90.0223 54.0654 78.2082 65.4754 76.8116C66.3011 76.7062 67.1179 76.6184 67.9173 76.5305C73.6179 78.9636 77.5969 85.4899 74.6807 96.733Z" fill="#EA9B7A"/>
<path d="M75.9821 89.2847L90.809 143.515L85.5212 137.419C87.48 138.456 89.7462 139.264 92.2583 139.826C94.7617 140.388 97.5022 140.713 100.357 140.863C103.22 141.012 106.198 140.986 109.246 140.863C112.294 140.74 115.412 140.511 118.574 140.239H118.592C123.256 139.844 127.358 143.296 127.753 147.96C128.131 152.404 124.978 156.348 120.638 157.051C117.38 157.569 114.059 158.061 110.66 158.456C107.261 158.852 103.774 159.141 100.155 159.229C96.5448 159.308 92.8029 159.177 88.9381 158.614C85.082 158.052 81.0767 157.051 77.1591 155.356C74.6558 154.275 72.8727 152.22 72.0646 149.822L71.8801 149.26L54.0844 95.9251C52.0817 89.9347 55.3229 83.4523 61.3134 81.4496C67.3038 79.4469 73.7862 82.6881 75.7889 88.6786C75.8679 88.8718 75.9294 89.1002 75.9821 89.2847Z" fill="#EA9B7A"/>
<path d="M82.6224 141.785C82.4731 141.785 82.3238 141.706 82.2447 141.566C82.1217 141.355 82.2008 141.091 82.4116 140.968C82.5521 140.889 85.7933 139.062 89.1838 138.799C89.4298 138.781 89.6406 138.957 89.6581 139.203C89.6757 139.449 89.5 139.659 89.2541 139.677C86.0656 139.923 82.8771 141.715 82.8508 141.732C82.7717 141.768 82.6927 141.785 82.6224 141.785Z" fill="#D96C63"/>
<path d="M88.0155 139.826C87.9364 139.826 87.8574 139.809 87.7871 139.765C85.7405 138.526 83.2635 138.333 83.2372 138.333C82.9912 138.315 82.8156 138.105 82.8331 137.867C82.8507 137.621 83.0527 137.446 83.2987 137.463C83.4041 137.472 86.0128 137.665 88.2351 139.018C88.4459 139.141 88.5074 139.413 88.3844 139.624C88.3054 139.747 88.156 139.826 88.0155 139.826Z" fill="#D96C63"/>
<path d="M101.236 111.244C107.798 112.571 110.67 105.79 110.696 105.72C110.811 105.447 110.679 105.14 110.407 105.034C110.134 104.92 109.827 105.052 109.721 105.324C109.616 105.579 107.139 111.367 101.447 110.217C95.4655 109.005 84.3102 97.2433 84.2048 97.1203C84.0028 96.9095 83.669 96.9007 83.4582 97.1027C83.2474 97.3048 83.2386 97.6385 83.4406 97.8493C83.8974 98.3325 94.9385 109.962 101.236 111.244Z" fill="#084FC7"/>
<path d="M90.9236 68.5288C90.9236 68.5288 80.392 66.5437 77.4231 55.9154C74.5947 45.7966 76.7731 40.5439 79.7156 35.0805C81.9291 30.9609 88.9561 25.4008 98.8026 27.3947C108.746 29.4062 116.186 34.5183 117.283 42.696C119.33 57.9972 106.989 76.6625 90.9236 68.5288Z" fill="#39393B"/>
<path d="M111.348 57.7252C111.348 57.7252 114.774 55.0199 115.678 58.6036C116.583 62.1874 114.036 68.5555 110.048 66.6231L111.348 57.7252Z" fill="#D96C63"/>
<path d="M100.966 73.0875L99.5338 82.0644C99.5338 82.0644 92.8143 88.9245 80.5435 76.6185C83.8373 74.1679 85.0934 68.476 84.7069 64.8044C84.7069 64.8044 85.6731 65.3842 87.1664 66.7369C87.4562 67.0004 87.8339 67.2024 88.194 67.4571C91.4352 69.6531 96.4068 72.5253 100.966 73.0875Z" fill="#EA9B7A"/>
<path d="M100.964 73.0869L100.287 77.3383C96.607 75.6957 90.0983 72.191 87.1646 66.7275C87.4808 66.9559 87.8321 67.1931 88.1922 67.4478C91.4334 69.6525 96.405 72.5248 100.964 73.0869Z" fill="#39393B"/>
<path d="M114.666 55.5637C114.473 56.5124 114.297 57.4171 114.113 58.2779C113.919 59.209 113.735 60.0873 113.55 60.913C112.189 67.1231 111.073 70.4521 109.264 71.6994C100.103 77.9973 85.1966 65.2434 84.7135 64.8305C84.7047 64.8217 84.7047 64.8217 84.7047 64.8217C84.6959 64.0927 84.6959 63.3637 84.7047 62.6522C84.8189 56.609 85.8466 51.1807 87.4804 46.1652C88.2972 40.6841 92.5486 36.2923 98.0208 35.4666C103.695 34.6146 107.964 37.8997 110.634 39.349C114.666 41.5449 116.247 47.6496 114.666 55.5637Z" fill="#EA9B7A"/>
<path d="M87.7966 40.5259C87.7966 40.5259 94.2087 28.1936 106.998 31.6368C119.787 35.08 120.463 41.0178 120.692 43.9866C120.92 46.9555 114.069 41.6941 114.069 41.6941C114.069 41.6941 113.831 47.6319 111.548 45.8049C108.746 43.5563 105.619 38.7164 105.619 38.7164C105.619 38.7164 98.0033 46.2001 90.7655 44.1799C86.646 43.038 87.7966 40.5259 87.7966 40.5259Z" fill="#39393B"/>
<path d="M103.501 67.659C101.841 67.659 100.699 66.5083 100.646 66.4468C100.471 66.2624 100.471 65.9725 100.655 65.7968C100.84 65.6211 101.121 65.6211 101.296 65.8056C101.358 65.8671 102.675 67.1759 104.415 66.5786C104.652 66.4995 104.915 66.6225 104.994 66.8597C105.073 67.0968 104.95 67.3603 104.713 67.4394C104.292 67.5975 103.888 67.659 103.501 67.659Z" fill="#D96C63"/>
<path d="M99.6806 60.1926C99.6806 60.1926 105.847 62.0196 109.044 62.0196C109.044 62.0196 107.445 66.5872 102.878 64.9885C99.3205 63.7412 99.6806 60.1926 99.6806 60.1926Z" fill="white"/>
<path d="M111.126 47.351C111.126 47.351 109.528 47.1841 109.782 48.7389C110.046 50.2936 113.515 49.3449 115.237 52.4544C115.237 52.4544 116.897 49.1956 111.126 47.351Z" fill="#39393B"/>
<path d="M104.003 45.9102C104.003 45.9102 105.54 46.3845 104.697 47.7109C103.854 49.0372 101.025 46.8149 98.2321 49.0108C98.2321 49.0108 97.9774 45.3656 104.003 45.9102Z" fill="#39393B"/>
<path d="M119.433 57.5189L114.453 56.6669C114.426 56.8777 114.374 57.0885 114.33 57.2905C114.321 57.3257 114.312 57.3608 114.295 57.3959L119.31 58.2479C119.512 58.2831 119.705 58.1425 119.74 57.9405C119.776 57.7473 119.644 57.554 119.433 57.5189Z" fill="white"/>
<path d="M106.134 53.2699C106.134 53.0151 106.126 52.7604 106.09 52.5145C105.923 51.1618 105.326 49.9145 104.413 48.9483C103.569 48.0611 102.472 47.4111 101.198 47.1301C101.18 47.1213 101.154 47.1213 101.136 47.1125C98.2202 46.5152 95.3479 48.0436 94.1621 50.6435C94.0567 50.8719 93.9689 51.1003 93.8898 51.3374C93.8196 51.5483 93.7669 51.7678 93.7142 51.9874C93.3804 53.6212 93.7054 55.2374 94.5223 56.555C94.8033 57.0029 95.1371 57.4158 95.5148 57.7759C96.3405 58.5752 97.3858 59.1549 98.5891 59.4009C100.618 59.8225 102.612 59.2076 104.044 57.9252C105.01 57.0644 105.721 55.8874 106.003 54.5259C106.003 54.5171 106.003 54.5171 106.003 54.5084C106.09 54.0955 106.134 53.6827 106.134 53.2699ZM98.7472 58.6718C98.7121 58.6631 98.6857 58.6631 98.6594 58.6543C97.0871 58.3029 95.8135 57.3016 95.0669 55.9928C94.4256 54.8597 94.1709 53.507 94.452 52.1368C94.5135 51.8557 94.5925 51.5834 94.6892 51.3199C94.6979 51.3023 94.7067 51.2848 94.7067 51.2672C95.4885 49.2381 97.3945 47.8591 99.5378 47.7361C100.012 47.7098 100.495 47.7361 100.987 47.8415C102.041 48.0611 102.955 48.5618 103.684 49.2557C105.019 50.5293 105.686 52.4442 105.291 54.3766C104.659 57.3631 101.734 59.2955 98.7472 58.6718Z" fill="white"/>
<path d="M117.286 50.7082C117.119 50.6204 116.943 50.5413 116.759 50.4623C116.548 50.3745 116.329 50.3042 116.109 50.2339C115.951 50.19 115.802 50.1461 115.635 50.1197C115.336 50.0582 115.046 50.0231 114.756 50.0055C114.405 49.9792 114.054 49.988 113.711 50.0319C112.754 50.1373 111.849 50.4535 111.05 50.9542C110.171 51.4988 109.425 52.263 108.915 53.1852C108.775 53.4224 108.66 53.6683 108.555 53.9143C108.546 53.9319 108.546 53.9406 108.537 53.9582C108.406 54.292 108.3 54.6433 108.221 55.0035C107.721 57.4278 108.696 59.8169 110.531 61.2399C111.129 61.7054 111.814 62.0656 112.569 62.2852C112.683 62.3203 112.798 62.3554 112.921 62.373C112.982 62.3906 113.035 62.3993 113.096 62.4169C113.702 62.5399 114.308 62.575 114.897 62.5223C114.994 62.5135 115.09 62.5048 115.178 62.496C115.433 62.4608 115.687 62.4169 115.942 62.3466C116.408 62.2237 116.864 62.048 117.286 61.8284C118.893 60.9852 120.123 59.4568 120.518 57.542C121.089 54.7312 119.693 51.9731 117.286 50.7082ZM119.781 57.3838C119.754 57.5068 119.728 57.621 119.693 57.7352C119.649 57.9021 119.596 58.0602 119.535 58.2271C119.095 59.3953 118.287 60.344 117.268 60.9676C116.9 61.196 116.496 61.3804 116.074 61.521C115.81 61.6088 115.547 61.6703 115.266 61.7142C115.187 61.7318 115.108 61.7406 115.029 61.7494C114.449 61.8196 113.843 61.8021 113.237 61.6791C113.184 61.6703 113.123 61.6527 113.07 61.644C113.035 61.6352 113 61.6264 112.973 61.6176C112.086 61.3892 111.296 60.95 110.654 60.3615C110.558 60.2737 110.47 60.1858 110.382 60.098C109.161 58.8332 108.564 56.9974 108.942 55.144C109.029 54.7312 109.161 54.3271 109.328 53.9582C109.881 52.7461 110.848 51.8062 112.016 51.2528C112.736 50.9103 113.535 50.7258 114.361 50.7258C114.493 50.7258 114.625 50.7346 114.765 50.7434C115.002 50.7609 115.239 50.7961 115.477 50.84C115.652 50.8751 115.819 50.919 115.986 50.9717C116.214 51.042 116.434 51.1299 116.654 51.2265C116.821 51.3055 116.987 51.3934 117.154 51.4812C119.148 52.6494 120.273 54.9947 119.781 57.3838Z" fill="white"/>
<path d="M86.2158 51.7773C86.1718 51.7685 86.1279 51.7509 86.0928 51.7246C85.9171 51.6104 85.8732 51.382 85.9786 51.2151C88.4732 47.3151 94.4724 50.8199 94.5251 50.855C94.7008 50.9604 94.7623 51.1888 94.6569 51.3644C94.5515 51.5401 94.3231 51.6016 94.1474 51.4962C94.0947 51.4611 88.7103 48.3253 86.6022 51.6192C86.5232 51.7421 86.3651 51.8036 86.2158 51.7773Z" fill="white"/>
<path d="M108.819 54.1266C108.722 54.109 108.643 54.0475 108.582 53.9685C107.782 52.7388 106.078 53.2921 106.061 53.2921C105.867 53.3536 105.657 53.2482 105.595 53.055C105.534 52.8617 105.639 52.6509 105.832 52.5895C106.614 52.3259 108.327 52.1942 109.214 53.5644C109.328 53.7401 109.276 53.9685 109.1 54.0739C109.012 54.1266 108.915 54.1442 108.819 54.1266Z" fill="white"/>
<g opacity="0.8">
<g opacity="0.8">
<g opacity="0.8">
<g opacity="0.8">
<g opacity="0.8">
<g opacity="0.8">
<g opacity="0.8">
<path opacity="0.8" d="M114.115 58.2771C113.921 59.2081 113.737 60.0865 113.553 60.9122C111.857 60.4993 110.636 59.6649 110.777 58.971C110.926 58.2858 112.384 57.9872 114.115 58.2771Z" fill="#D96C63"/>
</g>
</g>
</g>
</g>
</g>
</g>
</g>
<path d="M102.536 53.3589C102.334 54.3691 101.71 55.0893 101.148 54.9751C100.586 54.8609 100.296 53.9562 100.498 52.9461C100.7 51.936 101.324 51.2157 101.886 51.3299C102.448 51.4441 102.738 52.3488 102.536 53.3589Z" fill="#39393B"/>
<path d="M112.497 55.3791C112.295 56.3892 111.671 57.1095 111.109 56.9953C110.547 56.8811 110.257 55.9764 110.459 54.9662C110.661 53.9561 111.285 53.2358 111.847 53.35C112.409 53.4642 112.699 54.3689 112.497 55.3791Z" fill="#39393B"/>
<path d="M107.351 58.0839C107.834 58.1805 108.177 58.1629 108.203 58.1629C108.317 58.1541 108.431 58.1014 108.511 58.0136C108.59 57.9258 108.616 57.8028 108.607 57.6886L107.966 52.9893C107.931 52.761 107.72 52.5941 107.492 52.6292C107.263 52.6643 107.096 52.8751 107.131 53.1035L107.702 57.2933C107.281 57.2319 106.648 57.0562 106.077 56.5819C105.902 56.4325 105.629 56.4589 105.48 56.6346C105.331 56.8102 105.357 57.0825 105.533 57.2319C106.156 57.7413 106.833 57.9785 107.351 58.0839Z" fill="#39393B"/>
<path d="M88.822 61.4058C88.7517 61.5112 86.8017 64.3132 84.72 64.8226C84.7112 64.8138 84.7112 64.8138 84.7112 64.8138C84.6936 64.0848 84.7024 63.3557 84.7112 62.6443C84.7815 62.6531 86.7666 62.7057 88.822 61.4058Z" fill="#39393B"/>
<path d="M88.394 54.0439C88.394 54.0439 85.4602 47.825 81.6569 51.4703C78.5211 54.4831 81.2616 64.5316 86.7075 62.3796L88.394 54.0439Z" fill="#EA9B7A"/>
<path d="M86.4791 60.6495C86.4967 60.6495 86.5055 60.6583 86.523 60.6583C86.7514 60.6759 86.9622 60.509 86.9798 60.2718C87.4102 55.5726 83.8616 53.1922 83.7123 53.0955C83.519 52.9638 83.2555 53.0253 83.1237 53.2185C82.992 53.4118 83.0535 53.6753 83.2467 53.807C83.3785 53.8949 86.523 56.0205 86.1366 60.2016C86.1278 60.4124 86.2771 60.6056 86.4791 60.6495Z" fill="#39393B"/>
<path d="M83.1265 57.3543C83.2143 57.3719 83.3197 57.3631 83.4076 57.3104C83.8292 57.0908 85.0677 56.5989 85.744 56.9239C85.9548 57.0293 86.2096 56.9415 86.3062 56.7307C86.4116 56.5199 86.3238 56.2651 86.1129 56.1685C84.9359 55.5976 83.2143 56.4672 83.0211 56.5638C82.8103 56.6692 82.7312 56.9239 82.8454 57.1347C82.8981 57.2489 83.0123 57.328 83.1265 57.3543Z" fill="#39393B"/>
<path d="M92.1709 43.4953C92.1709 43.4953 88.2271 54.2026 88.0163 56.3634C87.7264 59.306 83.8352 49.2223 87.744 40.6143L92.1709 43.4953Z" fill="#39393B"/>
<path d="M158.066 270.501H141.825C141.825 270.501 138.066 252.477 136.809 242.376C135.545 232.266 134.895 208.312 134.895 208.312C134.895 208.312 121.956 212.52 94.8673 210.93C34.8483 207.425 57.6068 163.331 57.6068 163.331C59.6359 166.133 74.8492 169.989 83.3343 171.333C109.396 173.836 129.203 178.263 142.765 184.113C146.032 185.519 148.931 187.012 151.478 188.584C154.746 190.596 156.792 196.718 158.031 204.755C161.729 228.919 158.066 270.501 158.066 270.501Z" fill="#39393B"/>
<path d="M143.836 261.823C143.564 261.823 143.327 261.63 143.265 261.357C140.92 249.763 140.138 235.331 139.506 223.737C138.979 214.119 138.487 205.036 137.248 203.947C136.247 203.06 132.092 203.754 126.84 204.624C116.378 206.363 100.568 208.98 83.1409 204.931C73.6457 202.717 66.6627 198.106 62.3938 191.22C55.0243 179.344 58.3885 164.614 58.4236 164.464C58.4939 164.148 58.8101 163.955 59.1263 164.034C59.4425 164.104 59.6358 164.421 59.5567 164.737C59.5216 164.877 56.2804 179.151 63.3952 190.614C67.4972 197.228 74.2343 201.663 83.4132 203.798C100.62 207.803 116.291 205.203 126.664 203.482C132.874 202.454 136.625 201.83 138.039 203.078C139.567 204.43 139.998 211.071 140.683 223.675C141.315 235.235 142.097 249.614 144.425 261.129C144.486 261.445 144.284 261.753 143.968 261.814C143.915 261.814 143.88 261.823 143.836 261.823Z" fill="#585859"/>
<path d="M158.373 262.121H158.364L140.305 261.735C139.98 261.726 139.725 261.462 139.734 261.137C139.743 260.812 140.006 260.558 140.331 260.567L158.391 260.953C158.716 260.962 158.97 261.225 158.961 261.55C158.944 261.875 158.689 262.121 158.373 262.121Z" fill="#585859"/>
<path d="M157.619 291.31H146.156L143.951 277.862L142.739 270.501H156.977L157.206 277.862L157.619 291.31Z" fill="#EA9B7A"/>
<path d="M157.618 291.31H146.156L144.513 281.296L143.951 277.862H157.206L157.311 281.419L157.618 291.31Z" fill="#FAAF3A"/>
<path d="M157.311 281.419L144.513 281.296L143.951 277.862H157.206L157.311 281.419Z" fill="#C77E2E"/>
<path d="M185.899 309.415H142.543C142.218 308.826 142.042 308.001 141.972 307.008C141.7 303.337 142.868 297.487 143.439 293.797C143.509 293.367 143.57 292.963 143.614 292.603C143.693 291.988 143.746 291.47 143.746 291.092C143.746 288.079 146.408 288.598 146.408 288.598C150.791 292.902 155.762 286.454 158.661 288.562C158.661 288.562 158.775 288.65 159.047 288.852C159.293 289.045 159.662 289.344 160.172 289.775C160.909 290.389 161.946 291.285 163.351 292.55C166.795 295.651 172.644 297.689 177.625 299.77C178.257 300.034 178.846 300.297 179.399 300.57C179.812 300.772 180.207 300.974 180.576 301.167C184.652 303.363 185.943 305.471 186.242 306.999C186.532 308.466 185.899 309.415 185.899 309.415Z" fill="#0875F7"/>
<path d="M180.587 301.174C179.472 302.061 176.986 303.844 174.992 303.844C174.904 303.844 174.816 303.844 174.729 303.836C173.323 303.721 168.158 301.183 163.951 298.873C161.544 297.546 159.339 296.246 157.758 295.201C155.167 293.488 154.71 292.838 154.614 292.382C154.236 290.669 157.064 289.483 159.05 288.859C159.296 289.053 159.664 289.351 160.174 289.782C157.714 290.449 155.685 291.503 155.782 292.101C156.028 292.61 158.593 294.56 164.724 297.924C169.406 300.489 173.841 302.553 174.825 302.641C176.16 302.746 178.119 301.534 179.401 300.577C179.832 300.77 180.218 300.972 180.587 301.174Z" fill="#084FC7"/>
<path d="M185.901 309.413H142.545C142.22 308.825 142.044 307.999 141.974 307.007H186.253C186.534 308.465 185.901 309.413 185.901 309.413Z" fill="#084FC7"/>
<path d="M146.976 309.412H145.685C146.967 307.945 148.17 305.688 148.012 302.473C147.802 298.186 145.237 295.305 143.445 293.794C143.515 293.364 143.577 292.96 143.62 292.6C145.544 294.067 148.785 297.29 149.04 302.42C149.198 305.494 148.188 307.787 146.976 309.412Z" fill="#084FC7"/>
<path d="M162.636 295.114C162.319 295.114 162.021 294.895 161.942 294.57C161.845 294.183 162.082 293.797 162.46 293.7L165.165 293.024C165.552 292.927 165.938 293.164 166.035 293.542C166.131 293.929 165.894 294.315 165.517 294.412L162.811 295.088C162.75 295.106 162.688 295.114 162.636 295.114Z" fill="white"/>
<path d="M159.937 292.856C159.612 292.856 159.322 292.636 159.243 292.311C159.146 291.925 159.383 291.538 159.761 291.442L162.466 290.765C162.853 290.669 163.239 290.906 163.336 291.284C163.433 291.67 163.195 292.057 162.818 292.153L160.112 292.83C160.051 292.847 159.998 292.856 159.937 292.856Z" fill="white"/>
<path d="M165.339 296.686C165.023 296.686 164.724 296.466 164.645 296.141C164.548 295.755 164.785 295.368 165.163 295.28L167.869 294.604C168.255 294.507 168.641 294.745 168.738 295.122C168.835 295.509 168.598 295.895 168.22 295.992L165.514 296.668C165.453 296.677 165.392 296.686 165.339 296.686Z" fill="white"/>
<path d="M168.044 298.197C167.728 298.197 167.429 297.977 167.35 297.652C167.253 297.266 167.491 296.879 167.868 296.791L170.574 296.115C170.96 296.018 171.347 296.256 171.443 296.633C171.54 297.02 171.303 297.406 170.925 297.503L168.22 298.179C168.158 298.188 168.105 298.197 168.044 298.197Z" fill="white"/>
<path d="M170.992 299.591C170.676 299.591 170.377 299.372 170.298 299.047C170.201 298.66 170.439 298.274 170.816 298.186L173.522 297.51C173.908 297.413 174.295 297.65 174.391 298.028C174.488 298.414 174.251 298.801 173.873 298.897L171.168 299.574C171.106 299.591 171.053 299.591 170.992 299.591Z" fill="white"/>
<path d="M174.204 300.789C173.879 300.789 173.589 300.569 173.51 300.244C173.413 299.858 173.651 299.471 174.028 299.375L176.734 298.698C177.12 298.602 177.507 298.839 177.603 299.217C177.7 299.603 177.463 299.99 177.085 300.086L174.38 300.763C174.318 300.78 174.257 300.789 174.204 300.789Z" fill="white"/>
<path d="M217.886 162.681V166.282C217.886 168.355 216.639 170.033 215.093 170.033H20.5603C19.0144 170.033 17.7671 168.355 17.7671 166.282V162.681C17.7671 160.608 19.0144 158.93 20.5603 158.93H215.084C216.63 158.93 217.886 160.608 217.886 162.681Z" fill="#437A9F"/>
<path d="M217.886 163.822H17.7671V165.473H217.886V163.822Z" fill="#124465"/>
<path d="M212.034 179.283H29.1833C28.3664 179.283 27.6989 178.615 27.6989 177.798V169.981H213.518V177.798C213.518 178.615 212.85 179.283 212.034 179.283Z" fill="#124465"/>
<path d="M203.821 225.168H40.2954V231.545H203.821V225.168Z" fill="#124465"/>
<path d="M28.5028 310.547L60.1593 179.284H49.0391L17.3827 310.547H28.5028Z" fill="#437A9F"/>
<path d="M215.395 310.547L183.729 179.283H194.85L226.506 310.547H215.395Z" fill="#437A9F"/>
<path d="M35.5178 128.764L32.0881 129.289L36.0524 155.172L39.4821 154.647L35.5178 128.764Z" fill="#FAAF3A"/>
<path d="M35.5243 128.75L32.0986 129.277L32.854 126.66L33.2405 125.298L34.0223 126.475L35.5243 128.75Z" fill="#EA9B7A"/>
<path d="M39.1904 152.763L35.7607 153.288L36.0493 155.172L39.479 154.647L39.1904 152.763Z" fill="#39393B"/>
<path d="M39.495 156.164L36.5173 156.621C36.3943 156.639 36.2714 156.551 36.2538 156.428L36.0605 155.154L39.495 154.627L39.6882 155.901C39.7058 156.033 39.6179 156.147 39.495 156.164Z" fill="#DF615C"/>
<path d="M34.023 126.475L32.8547 126.66L33.2412 125.298L34.023 126.475Z" fill="#39393B"/>
<path d="M38.9974 151.41L35.5677 151.935L35.7739 153.281L39.2035 152.756L38.9974 151.41Z" fill="#C77E2E"/>
<path d="M33.1446 130.419L36.0783 149.585C36.1047 149.735 36.2364 149.831 36.377 149.805C36.5175 149.779 36.6229 149.647 36.5966 149.506L33.6628 130.34C33.6364 130.2 33.5047 130.094 33.3642 130.121C33.2236 130.138 33.1182 130.279 33.1446 130.419Z" fill="#C77E2E"/>
<path d="M34.4905 130.217L37.4243 149.383C37.4506 149.524 37.5824 149.629 37.7229 149.603C37.8722 149.577 37.9688 149.445 37.9425 149.304L35.0087 130.138C34.9824 129.998 34.8506 129.892 34.7101 129.919C34.5696 129.936 34.4642 130.068 34.4905 130.217Z" fill="#C77E2E"/>
<path d="M41.7374 128.868L38.2678 128.88L38.3539 155.064L41.8235 155.052L41.7374 128.868Z" fill="#21B573"/>
<path d="M41.7352 128.873L38.2656 128.882L39.3987 126.405L39.9872 125.114L40.5845 126.396L41.7352 128.873Z" fill="#EA9B7A"/>
<path d="M41.8115 153.156L38.3419 153.167L38.3482 155.073L41.8178 155.062L41.8115 153.156Z" fill="#39393B"/>
<path d="M41.5925 156.567L38.5797 156.576C38.4479 156.576 38.3513 156.471 38.3513 156.348V155.065L41.8209 155.057V156.339C41.8209 156.462 41.7243 156.567 41.5925 156.567Z" fill="#DF615C"/>
<path d="M40.5844 126.396L39.3986 126.405L39.9871 125.114L40.5844 126.396Z" fill="#39393B"/>
<path d="M41.8034 151.785L38.3339 151.797L38.3383 153.158L41.8079 153.147L41.8034 151.785Z" fill="#217C58"/>
<path d="M39.1282 130.174L39.1897 149.559C39.1897 149.709 39.3126 149.823 39.4532 149.823C39.6025 149.823 39.7167 149.7 39.7167 149.559L39.6552 130.174C39.6552 130.024 39.5322 129.91 39.3917 129.91C39.2511 129.901 39.1282 130.024 39.1282 130.174Z" fill="#217C58"/>
<path d="M40.4863 130.164L40.5478 149.55C40.5478 149.699 40.6708 149.814 40.8113 149.814C40.9607 149.814 41.0748 149.691 41.0748 149.55L41.0133 130.164C41.0133 130.015 40.8904 129.901 40.7498 129.901C40.6093 129.901 40.4863 130.015 40.4863 130.164Z" fill="#217C58"/>
<path d="M44.2959 128.738L40.6144 154.663L44.0496 155.151L47.7311 129.226L44.2959 128.738Z" fill="#0875F7"/>
<path d="M47.7256 129.242L44.2911 128.75L45.7668 126.457L46.5398 125.272L46.9438 126.624L47.7256 129.242Z" fill="#EA9B7A"/>
<path d="M44.3257 153.288L40.8905 152.8L40.6225 154.687L44.0577 155.175L44.3257 153.288Z" fill="#39393B"/>
<path d="M43.6074 156.63L40.6297 156.208C40.5067 156.19 40.4189 156.076 40.4364 155.945L40.6209 154.671L44.0553 155.163L43.8709 156.436C43.8445 156.559 43.7303 156.647 43.6074 156.63Z" fill="#DF615C"/>
<path d="M46.944 126.624L45.767 126.457L46.5399 125.272L46.944 126.624Z" fill="#39393B"/>
<path d="M41.0789 151.438L40.8873 152.786L44.3226 153.274L44.5141 151.926L41.0789 151.438Z" fill="#084FC7"/>
<path d="M44.96 130.147L42.237 149.339C42.2195 149.488 42.3161 149.62 42.4654 149.638C42.6147 149.655 42.7465 149.559 42.7641 149.409L45.487 130.217C45.5046 130.068 45.408 129.936 45.2586 129.918C45.1181 129.901 44.9863 130.006 44.96 130.147Z" fill="#084FC7"/>
<path d="M46.3131 130.34L43.5902 149.532C43.5726 149.682 43.6692 149.813 43.8186 149.831C43.9679 149.848 44.0996 149.752 44.1172 149.602L46.8402 130.41C46.8577 130.261 46.7611 130.129 46.6118 130.111C46.4625 130.094 46.3307 130.19 46.3131 130.34Z" fill="#084FC7"/>
<path d="M48.8567 139.23L48.6723 140.636L48.5054 141.909L48.2594 143.842L48.0925 145.106L47.8466 147.056L47.6797 148.304L47.425 150.271L47.2669 151.501L47.0121 153.486L46.854 154.698L46.5993 156.701L46.4412 157.895L46.3094 158.932H32.6596L32.5278 157.895L32.3697 156.701L32.115 154.698L31.9569 153.486L31.7022 151.501L31.5441 150.271L31.2893 148.304L31.1312 147.056L30.8765 145.106L30.7184 143.842L30.4637 141.909L30.2968 140.636L30.1211 139.23H48.8567Z" fill="#DF615C"/>
<path d="M48.6759 140.636L48.509 141.909H30.4673L30.3004 140.636H48.6759Z" fill="#B11722"/>
<path d="M48.2611 143.841L48.0942 145.106H30.8782L30.7201 143.841H48.2611Z" fill="#B11722"/>
<path d="M47.8486 147.056L47.6817 148.303H31.2913L31.1332 147.056H47.8486Z" fill="#B11722"/>
<path d="M47.4256 150.271L47.2675 151.501H31.7028L31.5447 150.271H47.4256Z" fill="#B11722"/>
<path d="M47.0131 153.485L46.855 154.697H32.116L31.9579 153.485H47.0131Z" fill="#B11722"/>
<path d="M46.601 156.7L46.4429 157.895H32.5296L32.3715 156.7H46.601Z" fill="#B11722"/>
<path d="M203.351 89.3199L191.713 138.544L191.405 139.835L190.623 143.146C190.281 144.587 189.007 145.597 187.531 145.597H109.119C107.064 145.597 105.553 143.682 106.028 141.688L118.755 87.853C119.098 86.4213 120.371 85.4111 121.847 85.4111H200.25C202.306 85.4111 203.816 87.326 203.351 89.3199Z" fill="#39393B"/>
<path d="M191.704 138.535L191.405 139.835H109.989V138.535H191.704Z" fill="#585859"/>
<path d="M140.718 97.584C140.068 101.071 136.713 103.9 133.226 103.9C129.739 103.9 127.437 101.071 128.087 97.584C128.737 94.0969 132.093 91.2686 135.58 91.2686C139.076 91.2686 141.368 94.0969 140.718 97.584Z" fill="#FAAF3A"/>
<path d="M133.583 96.3819C133.451 97.0758 133.099 97.6468 132.801 97.6468C132.493 97.6468 132.353 97.0846 132.485 96.3819C132.616 95.688 132.968 95.1171 133.266 95.1171C133.574 95.1171 133.714 95.6792 133.583 96.3819Z" fill="#39393B"/>
<path d="M136.877 96.3819C136.745 97.0758 136.394 97.6468 136.095 97.6468C135.796 97.6468 135.647 97.0846 135.779 96.3819C135.91 95.688 136.262 95.1171 136.56 95.1171C136.868 95.1171 137.008 95.6792 136.877 96.3819Z" fill="#39393B"/>
<path d="M133.878 100.668C131.164 100.668 131.049 97.9535 131.049 97.9272C131.041 97.7779 131.164 97.6285 131.322 97.6022C131.48 97.5671 131.603 97.6637 131.612 97.813C131.612 97.9096 131.717 100.123 133.992 100.123C136.258 100.123 137.189 97.9096 137.233 97.813C137.295 97.6637 137.461 97.5758 137.602 97.6022C137.743 97.6373 137.813 97.7779 137.751 97.9272C137.725 97.9448 136.592 100.668 133.878 100.668Z" fill="#39393B"/>
<path d="M176.963 127.081C177.033 130.349 182.567 134.442 182.567 134.442C182.567 134.442 188.996 130.349 189.778 127.081C190.621 123.541 186.581 122.452 183.586 125.122C181.17 122.452 176.884 123.541 176.963 127.081Z" fill="#DF615C"/>
<path d="M165.249 117.602C164.872 120.993 161.824 123.733 158.442 123.733C155.06 123.733 152.61 120.984 152.987 117.602C153.365 114.212 156.413 111.471 159.795 111.471C163.185 111.471 165.627 114.221 165.249 117.602Z" fill="#585859"/>
<path d="M124.956 85.4114L111.403 145.597H109.119C107.064 145.597 105.553 143.682 106.028 141.689L118.755 87.8532C119.098 86.4215 120.371 85.4026 121.847 85.4026H124.956V85.4114Z" fill="#585859"/>
<path d="M147.662 145.597L145.282 158.975H153.143L155.524 145.597H147.662Z" fill="white"/>
<path d="M133.529 156.674L135.137 154.416C135.708 153.608 136.639 153.134 137.631 153.134H159.169C160.311 153.134 161.356 153.766 161.883 154.776L162.964 156.849C163.473 157.815 162.77 158.984 161.672 158.984H134.715C133.529 158.975 132.844 157.631 133.529 156.674Z" fill="white"/>
<path d="M88.6534 158.966H153.354L154.057 156.524C154.496 154.987 153.345 153.459 151.747 153.459H92.0439C90.9723 153.459 90.0325 154.17 89.7338 155.198L88.6534 158.966Z" fill="white"/>
<path d="M186.887 69.3373L158.269 69.3197C157.163 69.3197 156.258 68.415 156.258 67.3082L156.267 49.7233C156.267 48.6165 157.171 47.7118 158.278 47.7118L186.895 47.7294C188.002 47.7294 188.907 48.6341 188.907 49.7408L188.898 67.3258C188.898 68.4413 188.002 69.3373 186.887 69.3373Z" fill="#DF615C"/>
<path d="M185.182 66.0959L182.573 75.9513L178.014 66.6845L185.182 66.0959Z" fill="#DF615C"/>
<path d="M179.815 56.9346C179.235 60.6237 172.34 65.2439 172.34 65.2439C172.34 65.2439 165.708 60.6149 165.331 56.917C164.918 52.9116 169.661 51.6907 172.639 54.7123C175.775 51.6995 180.448 52.9292 179.815 56.9346Z" fill="white"/>
<path d="M279.521 315.429C306.435 315.429 328.253 313.274 328.253 310.615C328.253 307.957 306.435 305.802 279.521 305.802C252.607 305.802 230.789 307.957 230.789 310.615C230.789 313.274 252.607 315.429 279.521 315.429Z" fill="#CED3E6"/>
<path d="M309.36 275.806H247.839C246.671 275.806 245.722 274.857 245.722 273.689V272.714C245.722 271.546 246.671 270.597 247.839 270.597H309.36C310.528 270.597 311.477 271.546 311.477 272.714V273.689C311.477 274.857 310.528 275.806 309.36 275.806Z" fill="#39393B"/>
<path d="M248.612 212.897H308.719C309.72 212.897 310.528 213.705 310.528 214.706V222.094C310.528 223.095 309.72 223.903 308.719 223.903H248.612C247.611 223.903 246.803 223.095 246.803 222.094V214.706C246.803 213.705 247.611 212.897 248.612 212.897Z" fill="#585859"/>
<path d="M262.808 166.079C262.808 166.079 237.467 161.072 230.396 143.391C223.325 125.709 249.184 112.446 262.808 121.941C277.389 132.095 262.808 166.079 262.808 166.079Z" fill="#21B573"/>
<path d="M277.881 212.536C277.661 212.536 277.459 212.37 277.424 212.141C275 195.716 265.206 172.087 257.433 155.161C248.991 136.803 241.033 122.152 240.954 122.003C240.831 121.783 240.919 121.502 241.139 121.379C241.358 121.256 241.639 121.344 241.762 121.564C241.842 121.713 249.817 136.391 258.276 154.775C266.085 171.763 275.905 195.478 278.347 212.009C278.382 212.264 278.215 212.493 277.96 212.528C277.925 212.528 277.899 212.536 277.881 212.536Z" fill="#39393B"/>
<path d="M261.859 164.367C261.692 164.367 261.534 164.279 261.455 164.13C250.431 143.602 232.53 128.705 232.354 128.556C232.161 128.398 232.135 128.108 232.293 127.914C232.451 127.721 232.741 127.695 232.934 127.853C233.118 128.002 251.151 143.005 262.263 163.699C262.386 163.919 262.298 164.2 262.078 164.323C261.999 164.349 261.929 164.367 261.859 164.367Z" fill="#39393B"/>
<path d="M262.358 165.842C262.227 165.842 262.104 165.79 262.007 165.684C253.97 156.224 245.731 150.339 240.241 147.072C234.286 143.532 230.184 142.205 230.149 142.197C229.911 142.118 229.771 141.863 229.85 141.617C229.929 141.38 230.184 141.239 230.43 141.318C230.597 141.371 234.655 142.671 240.689 146.263C246.249 149.566 254.585 155.522 262.71 165.087C262.877 165.28 262.85 165.57 262.657 165.737C262.569 165.807 262.455 165.842 262.358 165.842Z" fill="#39393B"/>
<path d="M260.127 160.458C259.934 160.458 259.758 160.336 259.697 160.151C253.513 142.013 255.788 119.974 255.814 119.755C255.841 119.5 256.069 119.324 256.315 119.351C256.57 119.377 256.746 119.605 256.719 119.851C256.693 120.071 254.444 141.916 260.558 159.852C260.637 160.09 260.514 160.353 260.268 160.432C260.224 160.45 260.171 160.458 260.127 160.458Z" fill="#39393B"/>
<path d="M261.683 164.05C261.463 164.05 261.27 163.892 261.235 163.664C259.347 152.184 260.796 142.82 262.351 136.988C264.037 130.655 266.145 127.089 266.233 126.939C266.365 126.72 266.646 126.649 266.865 126.781C267.085 126.913 267.155 127.194 267.024 127.414C267.006 127.449 264.88 131.041 263.229 137.269C261.709 143.005 260.286 152.228 262.14 163.523C262.184 163.769 262.008 164.007 261.762 164.05C261.727 164.042 261.701 164.05 261.683 164.05Z" fill="#39393B"/>
<path d="M289.536 170.7C289.536 170.7 315.132 167.195 323.239 149.97C331.347 132.736 306.313 117.971 292.154 126.641C276.993 135.916 289.536 170.7 289.536 170.7Z" fill="#21B573"/>
<path d="M279.831 211.035C279.576 211.035 279.366 210.824 279.374 210.569C279.471 202.11 281.316 192.475 284.855 181.934C287.684 173.511 291.584 164.49 296.468 155.126C304.768 139.184 313.13 127.598 313.218 127.484C313.367 127.282 313.657 127.229 313.859 127.379C314.061 127.528 314.114 127.818 313.965 128.02C313.886 128.134 305.559 139.676 297.284 155.557C289.66 170.199 280.525 191.623 280.305 210.578C280.288 210.833 280.086 211.035 279.831 211.035Z" fill="#39393B"/>
<path d="M290.617 169.049C290.538 169.049 290.45 169.031 290.38 168.979C290.16 168.847 290.099 168.566 290.231 168.346C302.545 148.346 321.439 134.432 321.632 134.292C321.834 134.143 322.124 134.187 322.274 134.389C322.423 134.591 322.379 134.88 322.177 135.03C321.992 135.17 303.239 148.978 291.021 168.821C290.925 168.97 290.775 169.049 290.617 169.049Z" fill="#39393B"/>
<path d="M290.027 170.489C289.913 170.489 289.798 170.445 289.71 170.366C289.526 170.19 289.517 169.9 289.693 169.716C298.38 160.642 307.049 155.196 312.794 152.227C319.03 149.004 323.15 147.941 323.326 147.897C323.572 147.836 323.818 147.985 323.879 148.231C323.941 148.477 323.791 148.723 323.545 148.784C323.501 148.793 319.329 149.873 313.18 153.053C307.506 155.987 298.942 161.38 290.352 170.348C290.273 170.436 290.15 170.489 290.027 170.489Z" fill="#39393B"/>
<path d="M292.576 165.245C292.514 165.245 292.462 165.236 292.4 165.21C292.163 165.113 292.058 164.85 292.146 164.612C299.313 147.063 298.356 125.13 298.347 124.91C298.338 124.655 298.531 124.445 298.786 124.427C299.032 124.409 299.252 124.611 299.269 124.866C299.278 125.086 300.244 147.221 293.006 164.964C292.927 165.139 292.76 165.245 292.576 165.245Z" fill="#39393B"/>
<path d="M290.811 168.741C290.776 168.741 290.741 168.741 290.705 168.732C290.459 168.679 290.301 168.433 290.363 168.187C292.893 157.014 292.014 147.73 290.837 141.915C289.555 135.609 287.657 131.893 287.64 131.849C287.526 131.621 287.614 131.349 287.833 131.234C288.062 131.12 288.334 131.208 288.448 131.428C288.527 131.577 290.416 135.266 291.724 141.696C292.928 147.616 293.824 157.05 291.259 168.389C291.215 168.591 291.022 168.741 290.811 168.741Z" fill="#39393B"/>
<path d="M279.682 137.357C279.682 137.357 257.995 123.321 257.968 104.277C257.942 85.2344 286.875 82.4939 296.019 96.3546C305.813 111.19 279.682 137.357 279.682 137.357Z" fill="#21B573"/>
<path d="M276.65 186.115C276.615 186.115 276.58 186.115 276.545 186.107C276.299 186.045 276.15 185.799 276.202 185.553C280.032 169.4 279.689 143.822 278.732 125.218C277.695 105.042 275.719 88.4757 275.702 88.3176C275.675 88.0629 275.851 87.8345 276.106 87.8082C276.352 87.7818 276.589 87.9575 276.615 88.2122C276.633 88.3791 278.609 104.972 279.654 125.174C280.62 143.839 280.954 169.505 277.107 185.764C277.045 185.975 276.861 186.115 276.65 186.115Z" fill="#39393B"/>
<path d="M279.602 135.451C279.374 135.451 279.171 135.275 279.145 135.047C276.51 111.893 265.399 91.4267 265.284 91.2247C265.162 91.0051 265.241 90.724 265.469 90.6011C265.688 90.4781 265.97 90.5571 266.093 90.7855C266.207 90.9875 277.406 111.612 280.059 134.95C280.085 135.205 279.909 135.433 279.655 135.459C279.637 135.451 279.619 135.451 279.602 135.451Z" fill="#39393B"/>
<path d="M279.524 136.997C279.33 136.997 279.155 136.874 279.093 136.681C275.132 124.911 269.66 116.399 265.768 111.331C261.552 105.833 258.232 103.092 258.197 103.066C258.004 102.908 257.968 102.618 258.135 102.424C258.293 102.231 258.583 102.196 258.777 102.363C258.917 102.477 262.193 105.183 266.471 110.751C270.415 115.881 275.949 124.489 279.954 136.391C280.033 136.628 279.91 136.892 279.664 136.971C279.62 136.988 279.576 136.997 279.524 136.997Z" fill="#39393B"/>
<path d="M279.444 131.173C279.435 131.173 279.426 131.173 279.417 131.173C279.162 131.164 278.969 130.945 278.987 130.69C279.962 111.559 290.239 91.9277 290.335 91.7256C290.458 91.4973 290.731 91.4182 290.959 91.5324C291.187 91.6466 291.266 91.9277 291.152 92.156C291.047 92.3493 280.866 111.805 279.909 130.734C279.891 130.98 279.689 131.173 279.444 131.173Z" fill="#39393B"/>
<path d="M279.558 135.082C279.523 135.082 279.497 135.082 279.462 135.073C279.216 135.02 279.058 134.774 279.11 134.529C281.605 123.162 286.436 114.941 290.055 110.04C293.981 104.717 297.266 102.125 297.407 102.02C297.609 101.862 297.899 101.897 298.048 102.099C298.206 102.301 298.171 102.591 297.969 102.74C297.934 102.767 294.622 105.384 290.766 110.611C287.209 115.433 282.457 123.531 280.006 134.722C279.962 134.941 279.769 135.082 279.558 135.082Z" fill="#39393B"/>
<path d="M306.18 183.656L305.425 185.659L304.951 186.932L303.58 190.569L303.097 191.842L301.692 195.584L301.218 196.849L295.174 212.888H262.165L256.122 196.849L255.648 195.584L254.242 191.842L253.759 190.569L252.389 186.932L251.915 185.659L251.159 183.656C250.641 182.277 251.66 180.81 253.127 180.81H304.222C305.68 180.81 306.699 182.277 306.18 183.656Z" fill="#0875F7"/>
<path d="M305.424 185.658L304.95 186.932H252.388L251.905 185.658H305.424Z" fill="#084FC7"/>
<path d="M303.572 190.568L303.098 191.842H254.234L253.76 190.568H303.572Z" fill="#084FC7"/>
<path d="M301.683 195.584L301.208 196.849H256.122L255.647 195.584H301.683Z" fill="#084FC7"/>
<path d="M269.825 223.894L267.998 229.797L242.516 311.924H237.536L253.689 231.474L255.217 223.894H269.825Z" fill="#39393B"/>
<path d="M319.944 311.924H314.963L288.735 227.364L287.655 223.894H302.262L302.631 225.739L319.944 311.924Z" fill="#39393B"/>
<path d="M309.36 264.484H247.839C246.671 264.484 245.722 263.535 245.722 262.367V261.392C245.722 260.223 246.671 259.275 247.839 259.275H309.351C310.52 259.275 311.468 260.223 311.468 261.392V262.367C311.477 263.535 310.528 264.484 309.36 264.484Z" fill="#585859"/>
<path d="M159.512 51.0154C172.668 51.0154 183.333 40.4839 183.333 27.4926C183.333 14.5013 172.668 3.96985 159.512 3.96985C146.356 3.96985 135.69 14.5013 135.69 27.4926C135.69 40.4839 146.356 51.0154 159.512 51.0154Z" fill="#CED3E6"/>
<path d="M159.512 47.9587C172.668 47.9587 183.333 37.4272 183.333 24.436C183.333 11.4447 172.668 0.913208 159.512 0.913208C146.356 0.913208 135.69 11.4447 135.69 24.436C135.69 37.4272 146.356 47.9587 159.512 47.9587Z" fill="#0875F7"/>
<path d="M159.511 43.5582C170.203 43.5582 178.871 34.9969 178.871 24.4361C178.871 13.8752 170.203 5.31396 159.511 5.31396C148.82 5.31396 140.152 13.8752 140.152 24.4361C140.152 34.9969 148.82 43.5582 159.511 43.5582Z" fill="white"/>
<path d="M178.87 24.4362C178.87 24.9457 178.852 25.4463 178.808 25.947C178.027 16.1093 169.665 8.33568 159.502 8.33568C149.339 8.33568 140.986 16.1093 140.195 25.947C140.16 25.4463 140.134 24.9457 140.134 24.4362C140.134 13.887 148.821 5.31409 159.493 5.31409C170.183 5.31409 178.87 13.887 178.87 24.4362Z" fill="#CED3E6"/>
<path d="M159.511 26.4214C159.362 26.4214 159.212 26.3511 159.124 26.2281L149.629 13.5972C149.471 13.3864 149.515 13.0877 149.726 12.9296C149.937 12.7715 150.244 12.8154 150.402 13.0262L159.669 25.3498L170.201 20.7822C170.447 20.6768 170.728 20.7822 170.842 21.0282C170.947 21.2741 170.842 21.5552 170.596 21.6606L159.713 26.3775C159.643 26.4126 159.572 26.4214 159.511 26.4214Z" fill="#39393B"/>
</svg>
