<svg width="402" height="353" viewBox="0 0 402 353" fill="none" xmlns="http://www.w3.org/2000/svg">
<path fill-rule="evenodd" clip-rule="evenodd" d="M255.852 237.735L254.68 242.363L139 213.079L140.17 208.452C149.426 210.794 156.606 201.879 157.767 197.298L164.442 170.922C169.729 151.727 187.208 138.446 207.119 138.494C208.824 132.128 215.369 128.351 221.735 130.057C228.101 131.764 231.88 138.308 230.172 144.675C247.634 154.421 256.584 174.511 252.149 194.01L245.684 219.553C244.312 224.966 251.226 236.563 255.852 237.735Z" fill="#E2EAF0"/>
<path fill-rule="evenodd" clip-rule="evenodd" d="M176.051 227.382C177.162 239.192 187.635 247.867 199.446 246.758C205.878 246.155 211.698 242.686 215.291 237.314L176.051 227.382Z" fill="#FFDA3E"/>
<path fill-rule="evenodd" clip-rule="evenodd" d="M363.917 192.915C363.917 280.494 292.918 351.493 205.339 351.493C117.759 351.493 46.7617 280.494 46.7617 192.915C46.7617 105.335 117.759 34.3359 205.339 34.3359C292.918 34.3359 363.917 105.335 363.917 192.915Z" stroke="#E9EAEC" stroke-width="1.52788" stroke-dasharray="7.67 7.67"/>
<path fill-rule="evenodd" clip-rule="evenodd" d="M323.103 192.915C323.103 257.952 270.379 310.676 205.342 310.676C140.303 310.676 87.582 257.952 87.582 192.915C87.582 127.877 140.303 75.1533 205.342 75.1533C270.379 75.1533 323.103 127.877 323.103 192.915Z" stroke="#E9EAEC" stroke-width="1.52788" stroke-dasharray="7.71 7.71"/>
<path fill-rule="evenodd" clip-rule="evenodd" d="M316.907 84.3801C319.193 84.3801 321.041 86.2273 321.041 88.5145C321.041 90.8017 319.193 92.649 316.907 92.649C314.62 92.649 312.771 90.8017 312.771 88.5145C312.771 86.2273 314.62 84.3801 316.907 84.3801ZM329.309 84.3801C331.596 84.3801 333.443 86.2273 333.443 88.5145C333.443 90.8017 331.596 92.649 329.309 92.649C327.022 92.649 325.174 90.8017 325.174 88.5145C325.174 86.2273 327.022 84.3801 329.309 84.3801ZM341.713 84.3801C344 84.3801 345.847 86.2273 345.847 88.5145C345.847 90.8018 344 92.649 341.713 92.649C339.426 92.649 337.578 90.8018 337.578 88.5145C337.578 86.2273 339.426 84.3801 341.713 84.3801ZM312.28 111.256H332.011C333.872 111.256 333.872 111.269 334.762 111.928C335.655 112.586 345.837 119.524 345.837 119.524V111.256H346.313C351.765 111.256 356.171 107.147 356.171 102.03V75.0386C356.171 69.9218 351.754 65.7736 346.313 65.7736H312.28C306.841 65.7736 302.422 69.9218 302.422 75.0386V102.03C302.422 107.147 306.841 111.256 312.28 111.256Z" fill="#E86820"/>
<path fill-rule="evenodd" clip-rule="evenodd" d="M73.4632 132.021C73.4632 133.517 72.2562 134.724 70.7589 134.724C69.2646 134.724 68.0576 133.517 68.0576 132.021C68.0576 130.525 69.2646 129.317 70.7589 129.317C72.2562 129.317 73.4632 130.525 73.4632 132.021ZM65.3524 132.021C65.3524 133.517 64.1438 134.724 62.6496 134.724C61.1538 134.724 59.9452 133.517 59.9452 132.021C59.9452 130.525 61.1538 129.317 62.6496 129.317C64.1438 129.317 65.3524 130.525 65.3524 132.021ZM57.2433 132.021C57.2433 133.517 56.0347 134.724 54.5389 134.724C53.0447 134.724 51.8361 133.517 51.8361 132.021C51.8361 130.525 53.0447 129.317 54.5389 129.317C56.0347 129.317 57.2433 130.525 57.2433 132.021ZM80.2317 140.858V123.21C80.2317 119.864 77.341 117.152 73.7856 117.152H51.5321C47.9752 117.152 45.0859 119.864 45.0859 123.21V140.858C45.0859 144.203 47.9675 146.889 51.5321 146.889H51.8453V152.298C51.8453 152.298 58.5022 147.76 59.0844 147.329C59.668 146.898 59.668 146.889 60.8842 146.889H73.7856C77.341 146.889 80.2317 144.203 80.2317 140.858Z" fill="#E86820"/>
<path fill-rule="evenodd" clip-rule="evenodd" d="M176.059 227.408C177.169 239.219 187.643 247.894 199.453 246.785C205.886 246.182 211.706 242.713 215.299 237.341L176.059 227.408Z" fill="#E86820"/>
<path fill-rule="evenodd" clip-rule="evenodd" d="M269.331 156.447C272.025 159.688 274.048 163.504 275.423 167.55C276.824 171.597 277.509 175.897 277.579 180.199C277.579 182.352 277.425 184.502 277.146 186.633C276.78 188.754 276.357 190.859 275.69 192.899C274.402 196.98 272.456 200.85 269.803 204.144C269.689 204.286 269.484 204.308 269.342 204.195C269.232 204.105 269.195 203.958 269.238 203.83C270.619 199.898 271.764 196.021 272.532 192.086C272.674 191.093 272.87 190.115 273.035 189.133C273.148 188.141 273.298 187.157 273.383 186.167C273.447 185.176 273.576 184.19 273.617 183.199C273.632 182.206 273.68 181.214 273.675 180.222C273.698 176.251 273.255 172.287 272.483 168.351C271.69 164.412 270.497 160.533 269.064 156.601C269.035 156.52 269.076 156.43 269.157 156.401C269.221 156.377 269.29 156.398 269.331 156.447Z" fill="#E86820"/>
<path fill-rule="evenodd" clip-rule="evenodd" d="M284.501 157.823C287.102 160.82 289.06 164.373 290.425 168.146C291.792 171.923 292.582 175.935 292.723 179.972C292.875 184.007 292.383 188.063 291.305 191.927C290.228 195.79 288.548 199.481 286.18 202.662C286.165 202.682 286.136 202.687 286.118 202.673C286.102 202.661 286.096 202.641 286.101 202.624C287.082 198.795 287.904 195.07 288.402 191.325C288.9 187.582 289.063 183.84 288.924 180.112C288.771 176.386 288.321 172.671 287.528 168.985C286.738 165.293 285.621 161.651 284.348 157.912C284.333 157.865 284.357 157.814 284.405 157.797C284.44 157.785 284.478 157.796 284.501 157.823Z" fill="#E86820"/>
<path fill-rule="evenodd" clip-rule="evenodd" d="M145.831 176.944C145.006 172.835 144.996 168.543 145.65 164.348C146.283 160.142 147.643 156.041 149.531 152.21C151.465 148.403 153.938 144.86 156.923 141.828C159.887 138.786 163.325 136.209 167.117 134.409C167.186 134.377 167.265 134.406 167.297 134.473C167.323 134.528 167.31 134.592 167.265 134.632C164.18 137.433 161.34 140.352 158.83 143.514C156.338 146.681 154.133 150.047 152.352 153.63C150.521 157.19 149.125 160.962 148.063 164.854C147.018 168.754 146.373 172.78 145.962 176.938C145.957 176.973 145.925 177 145.889 176.997C145.86 176.994 145.837 176.971 145.831 176.944Z" fill="#E86820"/>
<path fill-rule="evenodd" clip-rule="evenodd" d="M132.881 168.822C132.1 164.964 132.087 160.944 132.653 157.008C133.239 153.072 134.407 149.205 136.132 145.604C137.839 141.997 140.042 138.621 142.693 135.665C145.332 132.704 148.381 130.116 151.779 128.16C149.005 130.922 146.456 133.804 144.233 136.903C142.018 140.004 140.091 143.275 138.53 146.716C136.983 150.162 135.743 153.74 134.858 157.433C133.949 161.124 133.404 164.912 133.011 168.815C133.006 168.851 132.976 168.877 132.938 168.873C132.91 168.87 132.886 168.849 132.881 168.822Z" fill="#E86820"/>
<path fill-rule="evenodd" clip-rule="evenodd" d="M255.864 237.762C255.864 237.762 249.022 235.103 245.426 231.31C240.417 226.028 240.747 220.265 244.133 209.142C248.116 195.896 248.008 181.944 246.474 175.548C241.131 153.262 230.184 144.702 230.184 144.702C247.646 154.448 256.596 174.538 252.161 194.037L245.696 219.58C244.562 223.354 251.238 236.59 255.864 237.762L254.692 242.39L255.864 237.762Z" fill="#D8DBEA"/>
<path d="M16.8075 214.265L13.8633 214.175" stroke="#D2D8DF" stroke-width="1.52788" stroke-linecap="round"/>
<path d="M14.6936 208.683L12.582 210.655" stroke="#D2D8DF" stroke-width="1.52788" stroke-linecap="round"/>
<path d="M9.18884 206.134L9.14453 209.012" stroke="#D2D8DF" stroke-width="1.52788" stroke-linecap="round"/>
<path d="M3.51953 208.11L5.56994 210.209" stroke="#D2D8DF" stroke-width="1.52788" stroke-linecap="round"/>
<path d="M1 213.455L3.94269 213.545" stroke="#D2D8DF" stroke-width="1.52788" stroke-linecap="round"/>
<path d="M3.11328 219.038L5.22634 217.065" stroke="#D2D8DF" stroke-width="1.52788" stroke-linecap="round"/>
<path d="M8.61719 221.588L8.6615 218.709" stroke="#D2D8DF" stroke-width="1.52788" stroke-linecap="round"/>
<path d="M14.2887 219.611L12.2383 217.512" stroke="#D2D8DF" stroke-width="1.52788" stroke-linecap="round"/>
<path d="M400.767 173.226L399.473 174.627" stroke="#D2D8DF" stroke-width="1.52788" stroke-linecap="round"/>
<path d="M394.691 174.444L395.668 175.344" stroke="#D2D8DF" stroke-width="1.52788" stroke-linecap="round"/>
<path d="M393.707 180.654L395.001 179.253" stroke="#D2D8DF" stroke-width="1.52788" stroke-linecap="round"/>
<path d="M399.779 179.436L398.805 178.536" stroke="#D2D8DF" stroke-width="1.52788" stroke-linecap="round"/>
<path d="M282.236 8.55815L279.105 8.47412" stroke="#D2D8DF" stroke-width="1.52788" stroke-linecap="round"/>
<path d="M274.137 1L274.09 3.67532" stroke="#D2D8DF" stroke-width="1.52788" stroke-linecap="round"/>
<path d="M265.426 7.8053L268.556 7.8878" stroke="#D2D8DF" stroke-width="1.52788" stroke-linecap="round"/>
<path d="M273.523 15.3634L273.571 12.6881" stroke="#D2D8DF" stroke-width="1.52788" stroke-linecap="round"/>
<path fill-rule="evenodd" clip-rule="evenodd" d="M50.4066 297.419C48.1545 298.092 44.4035 301.402 43.1201 305.325C42.9047 301.68 40.5899 297.098 38.043 296.438C41.1507 295.339 44.5166 291.301 45.4119 287.898C45.25 291.465 48.4875 296.642 50.4066 297.419Z" fill="#EBECEF"/>
<path fill-rule="evenodd" clip-rule="evenodd" d="M103.152 22.8879C101.415 23.195 98.336 25.334 97.0403 28.1453C97.1946 25.4119 95.8669 21.7985 94.0273 21.0865C96.4368 20.5364 99.2939 17.8199 100.255 15.363C99.8256 18.0063 101.789 22.1438 103.152 22.8879Z" fill="#EBECEF"/>
<path fill-rule="evenodd" clip-rule="evenodd" d="M333.406 42.7372C331.086 42.6868 329.246 40.7662 329.298 38.4469C329.348 36.1276 331.269 34.288 333.587 34.3384C335.908 34.3888 337.747 36.3094 337.697 38.6287C337.645 40.948 335.726 42.7876 333.406 42.7372Z" fill="#D1D9E0"/>
<path fill-rule="evenodd" clip-rule="evenodd" d="M333.414 317.988C331.395 317.946 329.794 316.273 329.837 314.254C329.88 312.234 331.553 310.633 333.572 310.676C335.592 310.72 337.194 312.392 337.149 314.412C337.105 316.43 335.433 318.033 333.414 317.988Z" fill="#EBECEF"/>
<path fill-rule="evenodd" clip-rule="evenodd" d="M29.7574 98.484C28.5076 98.4565 27.516 97.4222 27.5435 96.1708C27.5695 94.921 28.6054 93.9309 29.8552 93.9569C31.105 93.9844 32.0966 95.0188 32.0706 96.2686C32.0431 97.5199 31.0072 98.5115 29.7574 98.484Z" stroke="#D2D8DF" stroke-width="1.52788" stroke-linecap="round"/>
</svg>
