<svg width="39" height="45" viewBox="0 0 39 45" fill="none" xmlns="http://www.w3.org/2000/svg">
<path d="M33.2334 36.9271V37.5446H1.60884V36.9271L5.5167 33.0193L5.82545 32.7105V32.2739V21.7323C5.82545 15.6064 9.03469 10.7289 14.5017 9.43362L15.3128 9.24144V8.40787V6.97422C15.3128 5.80652 16.2534 4.86592 17.4211 4.86592C18.5888 4.86592 19.5294 5.80652 19.5294 6.97422V8.40787V9.24077L20.3398 9.43343C25.7871 10.7286 29.0168 15.6284 29.0168 21.7323V32.2739V32.7105L29.3256 33.0193L33.2334 36.9271ZM20.4013 41.7612C19.9639 42.9854 18.7891 43.8695 17.4211 43.8695C16.0388 43.8695 14.8716 42.9868 14.4386 41.7612H20.4013Z" fill="white" stroke="#334D6E" stroke-width="2.10831"/>
<path d="M27.9645 20.6777C33.2042 20.6777 37.4519 16.43 37.4519 11.1903C37.4519 5.95057 33.2042 1.70293 27.9645 1.70293C22.7247 1.70293 18.4771 5.95057 18.4771 11.1903C18.4771 16.43 22.7247 20.6777 27.9645 20.6777Z" fill="#F7685B" stroke="white" stroke-width="2.10831"/>
</svg>
