<svg width="39" height="45" viewBox="0 0 39 45" fill="none" xmlns="http://www.w3.org/2000/svg">
<path d="M33.1631 36.9269V37.5444H1.53853V36.9269L5.44639 33.019L5.75514 32.7103V32.2736V21.7321C5.75514 15.6062 8.96437 10.7287 14.4314 9.43338L15.2425 9.2412V8.40763V6.97398C15.2425 5.80628 16.1831 4.86568 17.3508 4.86568C18.5185 4.86568 19.4591 5.80628 19.4591 6.97398V8.40763V9.24053L20.2694 9.43319C25.7168 10.7284 28.9465 15.6282 28.9465 21.7321V32.2736V32.7103L29.2553 33.019L33.1631 36.9269ZM20.331 41.761C19.8935 42.9851 18.7188 43.8693 17.3508 43.8693C15.9685 43.8693 14.8013 42.9866 14.3683 41.761H20.331Z" fill="#334D6E" stroke="#334D6E" stroke-width="2.10831"/>
<path d="M27.8942 20.6774C33.1339 20.6774 37.3815 16.4298 37.3815 11.1901C37.3815 5.95032 33.1339 1.70268 27.8942 1.70268C22.6544 1.70268 18.4068 5.95032 18.4068 11.1901C18.4068 16.4298 22.6544 20.6774 27.8942 20.6774Z" fill="#F7685B" stroke="white" stroke-width="2.10831"/>
</svg>
