<svg width="86" height="41" viewBox="0 0 86 41" fill="none" xmlns="http://www.w3.org/2000/svg">
<path d="M25.9454 9.27234C25.9454 4.60035 22.1444 0.799316 17.4724 0.799316C6.24717 1.2253 6.25033 17.3211 17.4726 17.7454C22.1444 17.7454 25.9454 13.9443 25.9454 9.27234ZM77.3166 9.27234C77.3166 4.60035 73.5156 0.799316 68.8436 0.799316C57.6184 1.2253 57.6215 17.3211 68.8438 17.7454C73.5156 17.7454 77.3166 13.9443 77.3166 9.27234ZM34.6849 9.27234C34.6849 13.9443 38.4859 17.7454 43.1579 17.7454C54.3832 17.3194 54.3802 1.22363 43.1578 0.799316C38.4859 0.799316 34.6849 4.60035 34.6849 9.27234ZM68.8434 17.7454C65.498 17.7454 62.3761 18.7201 59.7463 20.4C63.0705 24.2422 65.0827 29.2372 65.0827 34.6913V40.0425H83.2915C84.6711 40.0425 85.7895 38.9241 85.7895 37.5446V34.6913C85.7895 25.3473 78.1876 17.7454 68.8434 17.7454Z" fill="#437A9F"/>
<path d="M43.0129 17.7454C33.6 17.7454 25.942 25.3473 25.942 34.6914V40.0425H60.0841V34.6912C60.0839 25.3473 52.4259 17.7454 43.0129 17.7454ZM17.4695 17.7454C8.12534 17.7454 0.523438 25.3473 0.523438 34.6912V37.5446C0.523438 38.9241 1.64185 40.0425 3.02138 40.0425H20.9461V34.6912C20.9461 29.1828 22.9988 24.1423 26.3826 20.2849C23.7916 18.6761 20.7373 17.7454 17.4695 17.7454Z" fill="#437A9F"/>
</svg>
