<svg width="1818" height="856" viewBox="0 0 1818 856" fill="none" xmlns="http://www.w3.org/2000/svg">
<path d="M1271.69 286.178C1271.69 288.914 1269.52 291.137 1266.84 291.137C1264.17 291.137 1262 288.914 1262 286.178C1262 283.442 1264.17 281.22 1266.84 281.22C1269.52 281.22 1271.69 283.436 1271.69 286.178Z" stroke="#437A9F" stroke-opacity="0.1" stroke-width="2" stroke-miterlimit="10" stroke-linecap="round" stroke-linejoin="round"/>
<path d="M1318.68 329.182C1321.35 329.182 1323.52 326.962 1323.52 324.224C1323.52 321.486 1321.35 319.266 1318.68 319.266C1316 319.266 1313.84 321.486 1313.84 324.224C1313.84 326.962 1316 329.182 1318.68 329.182Z" stroke="#437A9F" stroke-opacity="0.1" stroke-width="2" stroke-miterlimit="10" stroke-linecap="round" stroke-linejoin="round"/>
<path d="M1300.45 314.03C1306.15 314.03 1310.78 309.295 1310.78 303.455C1310.78 297.614 1306.15 292.88 1300.45 292.88C1294.74 292.88 1290.12 297.614 1290.12 303.455C1290.12 309.295 1294.74 314.03 1300.45 314.03Z" stroke="#437A9F" stroke-opacity="0.1" stroke-width="2" stroke-miterlimit="10" stroke-linecap="round" stroke-linejoin="round"/>
<path d="M1318.44 303.455L1315 309.62L1313.17 316.483L1306.47 318.348L1300.44 321.88L1294.42 318.348L1287.71 316.483L1285.89 309.62L1282.44 303.455L1285.89 297.285L1287.71 290.422L1294.42 288.557L1300.44 285.024L1306.47 288.557L1313.17 290.422L1315 297.285L1318.44 303.455Z" stroke="#437A9F" stroke-opacity="0.1" stroke-width="2" stroke-miterlimit="10" stroke-linecap="round" stroke-linejoin="round"/>
<path d="M1313.84 324.224C1313.84 321.488 1316.01 319.265 1318.68 319.265C1320.12 319.265 1321.42 319.917 1322.31 320.945C1325.99 316.119 1328.2 310.053 1328.2 303.449C1328.2 287.754 1315.77 275.032 1300.44 275.032C1285.11 275.032 1272.68 287.754 1272.68 303.449C1272.68 319.144 1285.11 331.866 1300.44 331.866C1305.83 331.866 1310.85 330.29 1315.11 327.572C1314.33 326.688 1313.84 325.517 1313.84 324.224Z" stroke="#437A9F" stroke-opacity="0.1" stroke-width="2" stroke-miterlimit="10" stroke-linecap="round" stroke-linejoin="round"/>
<path d="M1300.44 265C1287.49 265 1276.07 271.713 1269.32 281.924C1270.73 282.79 1271.69 284.372 1271.69 286.184C1271.69 288.92 1269.52 291.143 1266.84 291.143C1266.18 291.143 1265.56 291.004 1264.99 290.762C1263.63 294.739 1262.88 299.005 1262.88 303.455C1262.88 324.691 1279.7 341.91 1300.45 341.91C1321.19 341.91 1338.01 324.691 1338.01 303.455C1338.01 282.219 1321.19 265 1300.44 265Z" stroke="#437A9F" stroke-opacity="0.1" stroke-width="2" stroke-miterlimit="10" stroke-linecap="round" stroke-linejoin="round"/>
<path d="M1214.84 82.0794L1191.54 73.9764C1189.07 73.1224 1187.76 70.3826 1188.59 67.8615C1189.43 65.3404 1192.1 63.9945 1194.56 64.8485L1217.87 72.9516C1220.33 73.8056 1221.64 76.5453 1220.81 79.0596C1219.97 81.5875 1217.3 82.9403 1214.84 82.0794Z" stroke="#437A9F" stroke-opacity="0.1" stroke-width="3" stroke-miterlimit="10"/>
<path d="M1211.78 91.3168L1188.47 83.2137C1186.01 82.3597 1184.69 79.62 1185.53 77.1057C1186.36 74.5846 1189.04 73.2386 1191.5 74.0926L1214.81 82.1889C1217.27 83.0429 1218.58 85.7827 1217.75 88.3038C1216.91 90.8249 1214.24 92.1708 1211.78 91.3168Z" stroke="#437A9F" stroke-opacity="0.1" stroke-width="3" stroke-miterlimit="10"/>
<path d="M1191.06 39.9311C1191.09 40.0131 1191.11 40.0883 1191.14 40.1703C1191.66 41.8715 1194.73 52.6528 1193.44 64.6161L1218.45 73.0608C1224.37 62.6689 1233.11 55.8844 1234.52 54.8323C1234.58 54.7844 1234.65 54.7366 1234.71 54.6888C1235.39 54.1901 1236.05 53.6571 1236.69 53.09C1240.46 49.7627 1243.42 45.3833 1245.09 40.2044C1250.01 24.9548 1241.92 8.50954 1227.02 3.47416C1212.13 -1.56122 1196.06 6.71949 1191.14 21.9691C1189.47 27.1548 1189.3 32.4771 1190.39 37.4442C1190.58 38.2777 1190.8 39.1112 1191.06 39.9311Z" stroke="#437A9F" stroke-opacity="0.1" stroke-width="3" stroke-miterlimit="10"/>
<path d="M1189.75 83.7734C1189.47 88.8293 1192.51 93.646 1197.43 95.3131C1202.29 96.9528 1207.47 95.0057 1210.22 90.8858L1189.75 83.7734Z" stroke="#437A9F" stroke-opacity="0.1" stroke-width="3" stroke-miterlimit="10"/>
<path d="M1201.27 67.1236L1208.7 44.0784C1209.44 41.8101 1208.23 39.3641 1206.01 38.6126C1203.8 37.861 1201.41 39.0977 1200.67 41.366C1199.94 43.6343 1201.15 46.0803 1203.36 46.8318L1212.28 49.8448" stroke="#437A9F" stroke-opacity="0.1" stroke-width="3" stroke-miterlimit="10"/>
<path d="M1211.07 70.4369L1218.5 47.3917C1219.23 45.1234 1221.62 43.8936 1223.84 44.6383C1226.05 45.3898 1227.26 47.8358 1226.53 50.1041C1225.79 52.3724 1223.4 53.6022 1221.19 52.8575L1212.27 49.8445" stroke="#437A9F" stroke-opacity="0.1" stroke-width="3" stroke-miterlimit="10"/>
<path d="M1250.37 48.1436L1257.9 50.692" stroke="#437A9F" stroke-opacity="0.1" stroke-width="3" stroke-miterlimit="10" stroke-linecap="round"/>
<path d="M1253.82 38.4349L1261.66 37.2256" stroke="#437A9F" stroke-opacity="0.1" stroke-width="3" stroke-miterlimit="10" stroke-linecap="round"/>
<path d="M1245.1 56.4717L1250.69 62.2244" stroke="#437A9F" stroke-opacity="0.1" stroke-width="3" stroke-miterlimit="10" stroke-linecap="round"/>
<path d="M1180.44 24.5182L1172.91 21.9766" stroke="#437A9F" stroke-opacity="0.1" stroke-width="3" stroke-miterlimit="10" stroke-linecap="round"/>
<path d="M1183.32 14.6112L1177.73 8.8584" stroke="#437A9F" stroke-opacity="0.1" stroke-width="3" stroke-miterlimit="10" stroke-linecap="round"/>
<path d="M1179.84 34.418L1172 35.6273" stroke="#437A9F" stroke-opacity="0.1" stroke-width="3" stroke-miterlimit="10" stroke-linecap="round"/>
<path d="M1055.99 258.332L986.788 237.169C981.755 235.632 978.898 230.209 980.4 225.057L994.221 177.675C995.723 172.522 1001.02 169.598 1006.05 171.135L1075.26 192.298C1080.29 193.835 1083.15 199.258 1081.65 204.41L1067.83 251.792C1066.32 256.939 1061.02 259.869 1055.99 258.332Z" stroke="#437A9F" stroke-opacity="0.1" stroke-width="4" stroke-miterlimit="10" stroke-linecap="round"/>
<path d="M982.031 219.454L1069.46 246.19" stroke="#437A9F" stroke-opacity="0.1" stroke-width="4" stroke-miterlimit="10" stroke-linecap="round"/>
<path d="M1025.96 240.586C1025.58 241.871 1024.26 242.604 1023 242.219C1021.74 241.835 1021.03 240.478 1021.4 239.193C1021.78 237.908 1023.11 237.175 1024.36 237.559C1025.62 237.944 1026.33 239.301 1025.96 240.586Z" fill="#E2EAF0"/>
<path d="M1031.2 250.757L1011.6 244.764L1008.96 253.815L1028.56 259.808L1031.2 250.757Z" stroke="#437A9F" stroke-opacity="0.1" stroke-width="4" stroke-miterlimit="10" stroke-linecap="round"/>
<path d="M1001.69 252.11L1035.53 262.457" stroke="#437A9F" stroke-opacity="0.1" stroke-width="4" stroke-miterlimit="10" stroke-linecap="round"/>
<path d="M1776.28 169.3C1797.97 169.3 1815.56 160.767 1815.56 150.24C1815.56 139.713 1797.97 131.18 1776.28 131.18C1754.59 131.18 1737 139.713 1737 150.24C1737 160.767 1754.59 169.3 1776.28 169.3Z" stroke="#437A9F" stroke-opacity="0.1" stroke-width="3" stroke-miterlimit="10" stroke-linecap="round" stroke-linejoin="round"/>
<path d="M1792.16 160.175C1803.45 141.207 1805.47 121.394 1796.69 115.92C1787.9 110.446 1771.64 121.385 1760.36 140.352C1749.08 159.32 1747.05 179.134 1755.84 184.608C1764.62 190.082 1780.88 179.143 1792.16 160.175Z" stroke="#437A9F" stroke-opacity="0.1" stroke-width="3" stroke-miterlimit="10" stroke-linecap="round" stroke-linejoin="round"/>
<path d="M1796.68 184.6C1805.46 179.126 1803.44 159.312 1792.16 140.344C1780.88 121.377 1764.61 110.438 1755.83 115.912C1747.05 121.386 1749.07 141.2 1760.35 160.167C1771.63 179.135 1787.9 190.074 1796.68 184.6Z" stroke="#437A9F" stroke-opacity="0.1" stroke-width="3" stroke-miterlimit="10" stroke-linecap="round" stroke-linejoin="round"/>
<path d="M1776.28 155.286C1779 155.286 1781.21 153.027 1781.21 150.24C1781.21 147.453 1779 145.194 1776.28 145.194C1773.56 145.194 1771.35 147.453 1771.35 150.24C1771.35 153.027 1773.56 155.286 1776.28 155.286Z" stroke="#437A9F" stroke-opacity="0.1" stroke-width="3" stroke-miterlimit="10" stroke-linecap="round" stroke-linejoin="round"/>
<path d="M1742.54 766.151L1710.1 773.816L1708.65 767.344C1708.31 765.844 1709.22 764.351 1710.68 764.001L1737.81 757.586C1739.28 757.243 1740.74 758.172 1741.08 759.672L1742.54 766.151Z" stroke="#437A9F" stroke-opacity="0.1" stroke-width="3" stroke-miterlimit="10" stroke-linecap="round"/>
<path d="M1731.88 731.346C1746.17 719.546 1748.42 698.116 1736.89 683.481C1725.36 668.846 1704.43 666.547 1690.13 678.348C1675.84 690.148 1673.59 711.578 1685.12 726.213C1696.65 740.848 1717.58 743.146 1731.88 731.346Z" stroke="#437A9F" stroke-opacity="0.1" stroke-width="3" stroke-miterlimit="10"/>
<path d="M1726.48 734.962L1695.47 674.742L1691.6 667.435C1671.38 678.343 1663.64 703.959 1674.29 724.654C1684.95 745.349 1709.97 753.278 1730.19 742.37L1726.4 735.012" stroke="#437A9F" stroke-opacity="0.1" stroke-width="3" stroke-miterlimit="10" stroke-linecap="round" stroke-linejoin="round"/>
<path d="M1702.31 687.937C1712.46 682.458 1719.16 675.053 1717.28 671.399C1715.4 667.745 1705.64 669.225 1695.49 674.705C1685.34 680.185 1678.63 687.589 1680.52 691.243C1682.4 694.897 1692.15 693.417 1702.31 687.937Z" stroke="#437A9F" stroke-opacity="0.1" stroke-width="3" stroke-miterlimit="10"/>
<path d="M1704.69 738.27C1711.85 739.684 1719.52 738.72 1726.48 734.962C1733.44 731.205 1738.55 725.276 1741.46 718.425C1734.3 717.011 1726.63 717.975 1719.67 721.732C1712.71 725.49 1707.6 731.419 1704.69 738.27Z" stroke="#437A9F" stroke-opacity="0.1" stroke-width="3" stroke-miterlimit="10"/>
<path d="M1726.51 734.925C1734.63 730.542 1734.27 713.508 1725.7 696.878C1717.14 680.248 1703.61 670.32 1695.49 674.703C1687.37 679.087 1687.73 696.121 1696.3 712.75C1704.86 729.38 1718.39 739.308 1726.51 734.925Z" stroke="#437A9F" stroke-opacity="0.1" stroke-width="3" stroke-miterlimit="10"/>
<path d="M1681.56 720.725L1740.39 688.979" stroke="#437A9F" stroke-opacity="0.1" stroke-width="3" stroke-miterlimit="10"/>
<path d="M1720.63 746.077L1724.07 760.736" stroke="#437A9F" stroke-opacity="0.1" stroke-width="3" stroke-miterlimit="10"/>
<path d="M1706.21 775.18L1747.55 765.029" stroke="#437A9F" stroke-opacity="0.1" stroke-width="3" stroke-miterlimit="10" stroke-linecap="round"/>
<path d="M1764.73 553.611L1782.04 535.896L1734.09 486.81L1716.78 504.525L1764.73 553.611Z" stroke="#437A9F" stroke-opacity="0.1" stroke-width="3" stroke-miterlimit="10" stroke-linecap="round" stroke-linejoin="round"/>
<path d="M1786.71 558.404L1782.03 535.894L1764.72 553.609L1786.71 558.404Z" stroke="#437A9F" stroke-opacity="0.1" stroke-width="3" stroke-miterlimit="10" stroke-linecap="round" stroke-linejoin="round"/>
<path d="M1784.53 547.901L1776.45 556.166" stroke="#437A9F" stroke-opacity="0.1" stroke-width="3" stroke-miterlimit="10" stroke-linecap="round" stroke-linejoin="round"/>
<path d="M1711.68 491.02L1720.88 481.601C1723.12 479.309 1726.75 479.309 1728.99 481.601L1734.07 486.81L1716.77 504.525L1711.68 499.317C1709.44 497.024 1709.44 493.305 1711.68 491.02Z" stroke="#437A9F" stroke-opacity="0.1" stroke-width="3" stroke-miterlimit="10" stroke-linecap="round" stroke-linejoin="round"/>
<path d="M1738.75 491.59L1721.45 509.313" stroke="#437A9F" stroke-opacity="0.1" stroke-width="3" stroke-miterlimit="10" stroke-linecap="round" stroke-linejoin="round"/>
<path d="M1773.38 544.752L1730.1 500.455" stroke="#437A9F" stroke-opacity="0.1" stroke-width="3" stroke-miterlimit="10" stroke-linecap="round" stroke-linejoin="round"/>
<path d="M828.047 769.302L824.85 776.733" stroke="#437A9F" stroke-opacity="0.1" stroke-width="4" stroke-miterlimit="10" stroke-linecap="round" stroke-linejoin="round"/>
<path d="M851.166 779.683L847.97 787.115" stroke="#437A9F" stroke-opacity="0.1" stroke-width="4" stroke-miterlimit="10" stroke-linecap="round" stroke-linejoin="round"/>
<path d="M874.289 790.059L871.093 797.491" stroke="#437A9F" stroke-opacity="0.1" stroke-width="4" stroke-miterlimit="10" stroke-linecap="round" stroke-linejoin="round"/>
<path d="M812.573 762.356L810.974 766.077" stroke="#437A9F" stroke-opacity="0.1" stroke-width="4" stroke-miterlimit="10" stroke-linecap="round" stroke-linejoin="round"/>
<path d="M820.309 765.835L818.711 769.545" stroke="#437A9F" stroke-opacity="0.1" stroke-width="4" stroke-miterlimit="10" stroke-linecap="round" stroke-linejoin="round"/>
<path d="M835.737 772.753L834.138 776.475" stroke="#437A9F" stroke-opacity="0.1" stroke-width="4" stroke-miterlimit="10" stroke-linecap="round" stroke-linejoin="round"/>
<path d="M843.467 776.225L841.874 779.942" stroke="#437A9F" stroke-opacity="0.1" stroke-width="4" stroke-miterlimit="10" stroke-linecap="round" stroke-linejoin="round"/>
<path d="M858.901 783.15L857.302 786.872" stroke="#437A9F" stroke-opacity="0.1" stroke-width="4" stroke-miterlimit="10" stroke-linecap="round" stroke-linejoin="round"/>
<path d="M882.398 793.701L880.806 797.417" stroke="#437A9F" stroke-opacity="0.1" stroke-width="4" stroke-miterlimit="10" stroke-linecap="round" stroke-linejoin="round"/>
<path d="M866.631 786.623L865.038 790.339" stroke="#437A9F" stroke-opacity="0.1" stroke-width="4" stroke-miterlimit="10" stroke-linecap="round" stroke-linejoin="round"/>
<path d="M869.186 853.126L792.955 753.635L892.767 798.27L869.186 853.126Z" stroke="#437A9F" stroke-opacity="0.1" stroke-width="4" stroke-miterlimit="10" stroke-linecap="round" stroke-linejoin="round"/>
<path d="M865.366 821.699L844.511 794.482L871.813 806.687L865.366 821.699Z" stroke="#437A9F" stroke-opacity="0.1" stroke-width="4" stroke-miterlimit="10" stroke-linecap="round" stroke-linejoin="round"/>
<path d="M613.774 317L585 331.242L642.351 452.667L671.124 438.426L613.774 317Z" stroke="#437A9F" stroke-opacity="0.1" stroke-width="4" stroke-miterlimit="10" stroke-linecap="round" stroke-linejoin="round"/>
<path d="M620.64 331.571L606.26 338.686" stroke="#437A9F" stroke-opacity="0.1" stroke-width="4" stroke-miterlimit="10" stroke-linecap="round" stroke-linejoin="round"/>
<path d="M633.929 359.702L619.539 366.827" stroke="#437A9F" stroke-opacity="0.1" stroke-width="4" stroke-miterlimit="10" stroke-linecap="round" stroke-linejoin="round"/>
<path d="M647.22 387.833L632.83 394.958" stroke="#437A9F" stroke-opacity="0.1" stroke-width="4" stroke-miterlimit="10" stroke-linecap="round" stroke-linejoin="round"/>
<path d="M660.499 415.975L646.119 423.089" stroke="#437A9F" stroke-opacity="0.1" stroke-width="4" stroke-miterlimit="10" stroke-linecap="round" stroke-linejoin="round"/>
<path d="M625.04 340.887L617.85 344.439" stroke="#437A9F" stroke-opacity="0.1" stroke-width="4" stroke-miterlimit="10" stroke-linecap="round" stroke-linejoin="round"/>
<path d="M629.479 350.294L622.289 353.856" stroke="#437A9F" stroke-opacity="0.1" stroke-width="4" stroke-miterlimit="10" stroke-linecap="round" stroke-linejoin="round"/>
<path d="M638.35 369.069L631.16 372.622" stroke="#437A9F" stroke-opacity="0.1" stroke-width="4" stroke-miterlimit="10" stroke-linecap="round" stroke-linejoin="round"/>
<path d="M642.79 378.477L635.6 382.039" stroke="#437A9F" stroke-opacity="0.1" stroke-width="4" stroke-miterlimit="10" stroke-linecap="round" stroke-linejoin="round"/>
<path d="M651.659 397.251L644.469 400.803" stroke="#437A9F" stroke-opacity="0.1" stroke-width="4" stroke-miterlimit="10" stroke-linecap="round" stroke-linejoin="round"/>
<path d="M656.11 406.659L648.91 410.222" stroke="#437A9F" stroke-opacity="0.1" stroke-width="4" stroke-miterlimit="10" stroke-linecap="round" stroke-linejoin="round"/>
<path d="M40.0008 735.428L8.77077 750.445C7.10077 751.254 5.11082 750.517 4.32082 748.807L2.32082 744.446C1.53082 742.737 2.2508 740.7 3.9208 739.891L35.1508 724.873C36.8208 724.065 38.8108 724.802 39.6008 726.511L41.6008 730.872C42.3908 732.592 41.6708 734.629 40.0008 735.428Z" stroke="#437A9F" stroke-opacity="0.1" stroke-width="4" stroke-miterlimit="10" stroke-linecap="round"/>
<path d="M52.1309 769.537L36.851 736.963L12.1309 749.114L27.4109 781.688L37.0509 836.19C40.2209 842.956 48.1509 845.802 54.7509 842.557L81.4409 829.433C88.0509 826.188 90.8309 818.07 87.6609 811.314L52.1309 769.537Z" stroke="#437A9F" stroke-opacity="0.1" stroke-width="4" stroke-miterlimit="10" stroke-linecap="round"/>
<path d="M31.75 806.267C31.75 806.267 36.85 797.811 50.41 798.292C63.97 798.774 66.25 786.131 66.25 786.131" stroke="#437A9F" stroke-opacity="0.1" stroke-width="4" stroke-miterlimit="10" stroke-linecap="round"/>
<path d="M546.48 46.978C558.343 46.978 567.96 37.1332 567.96 24.989C567.96 12.8448 558.343 3 546.48 3C534.617 3 525 12.8448 525 24.989C525 37.1332 534.617 46.978 546.48 46.978Z" stroke="#437A9F" stroke-opacity="0.1" stroke-width="4" stroke-miterlimit="10" stroke-linecap="round" stroke-linejoin="round"/>
<path d="M576.59 68.7004C581.334 68.7004 585.18 64.7634 585.18 59.9068C585.18 55.0503 581.334 51.1133 576.59 51.1133C571.846 51.1133 568 55.0503 568 59.9068C568 64.7634 571.846 68.7004 576.59 68.7004Z" stroke="#437A9F" stroke-opacity="0.1" stroke-width="4" stroke-miterlimit="10" stroke-linecap="round" stroke-linejoin="round"/>
</svg>
