<svg width="20" height="20" viewBox="0 0 20 20" fill="none" xmlns="http://www.w3.org/2000/svg">
<path d="M10 3.51562C6.42449 3.51562 3.51562 6.42449 3.51562 10C3.51562 13.5755 6.42449 16.4844 10 16.4844C13.5755 16.4844 16.4844 13.5755 16.4844 10C16.4844 6.42449 13.5755 3.51562 10 3.51562ZM12.4848 13.3134L9.41406 10.2427V4.72656H10.5859V9.7573L13.3134 12.4848L12.4848 13.3134Z" fill="#555555"/>
<path d="M10 0C4.46719 0 0 4.47047 0 10C0 15.5328 4.47039 20 10 20C15.5328 20 20 15.5295 20 10C20 4.46719 15.5296 0 10 0ZM10 17.6562C5.77832 17.6562 2.34375 14.2217 2.34375 10C2.34375 5.77832 5.77832 2.34375 10 2.34375C14.2217 2.34375 17.6562 5.77832 17.6562 10C17.6562 14.2217 14.2217 17.6562 10 17.6562Z" fill="#555555"/>
</svg>
