<svg width="49" height="48" viewBox="0 0 49 48" fill="none" xmlns="http://www.w3.org/2000/svg">
<path d="M24.1367 0C10.8282 0 0.00140381 10.6515 0.00140381 23.7436C0.00140381 36.8364 10.8282 47.4879 24.1367 47.4879C37.4452 47.4879 48.2726 36.8364 48.2726 23.7436C48.2726 10.6515 37.4446 0 24.1367 0ZM24.1367 44.055C12.7527 44.055 3.49035 34.9432 3.49035 23.7436C3.49035 12.5441 12.7521 3.43282 24.1367 3.43282C35.5213 3.43282 44.783 12.5441 44.783 23.7436C44.783 34.9432 35.5213 44.055 24.1367 44.055Z" fill="#437A9F"/>
<path d="M31.1196 25.9295C31.1103 25.9295 31.1021 25.9295 31.0928 25.9295L25.8806 26.0061V12.5873C25.8806 11.6392 25.0996 10.8708 24.1359 10.8708C23.1722 10.8708 22.3911 11.6392 22.3911 12.5873V27.7489C22.3911 27.7523 22.3923 27.7557 22.3923 27.7592C22.3923 27.7649 22.3911 27.77 22.3911 27.7746C22.3923 27.8444 22.4057 27.9102 22.415 27.9771C22.4208 28.0189 22.4214 28.0618 22.4295 28.103C22.4452 28.1768 22.4714 28.2455 22.4964 28.3147C22.5092 28.3507 22.5173 28.3885 22.5324 28.4228C22.5627 28.4932 22.6034 28.5573 22.6424 28.6231C22.6604 28.6523 22.6738 28.6843 22.693 28.7129C22.7372 28.7764 22.7901 28.8331 22.8424 28.8908C22.8645 28.9149 22.8826 28.9423 22.9058 28.9658C22.9622 29.0207 23.0256 29.0671 23.089 29.1146C23.1146 29.1334 23.1373 29.1563 23.1635 29.1741C23.2321 29.2198 23.3071 29.2559 23.3821 29.2913C23.4083 29.3034 23.4316 29.3205 23.4583 29.3314C23.5456 29.3674 23.6386 29.3926 23.7328 29.4149C23.7503 29.4189 23.7666 29.4269 23.7846 29.4304C23.8974 29.4527 24.0143 29.4653 24.1341 29.4653C24.1429 29.4653 24.1522 29.4653 24.1609 29.4653L31.1446 29.3623C32.1077 29.348 32.8771 28.5676 32.8632 27.6201C32.8498 26.6813 32.071 25.9295 31.1196 25.9295Z" fill="#437A9F"/>
</svg>
