<svg width="16" height="16" viewBox="0 0 16 16" fill="none" xmlns="http://www.w3.org/2000/svg">
<path d="M14.8182 8.68164C14.6374 8.68164 14.4639 8.75348 14.3361 8.88135C14.2082 9.00921 14.1364 9.18264 14.1364 9.36348V12.236C14.1358 12.7399 13.9354 13.2229 13.5792 13.5791C13.223 13.9354 12.7399 14.1358 12.2361 14.1363H3.76386C3.26006 14.1358 2.77704 13.9354 2.4208 13.5791C2.06455 13.2229 1.86418 12.7399 1.86364 12.236V9.36348C1.86364 9.18264 1.7918 9.00921 1.66394 8.88135C1.53607 8.75348 1.36265 8.68164 1.18182 8.68164C1.00099 8.68164 0.827566 8.75348 0.6997 8.88135C0.571834 9.00921 0.5 9.18264 0.5 9.36348V12.236C0.500902 13.1014 0.845063 13.9311 1.45696 14.543C2.06886 15.1549 2.89851 15.4991 3.76386 15.5H12.2361C13.1015 15.4991 13.9311 15.1549 14.543 14.543C15.1549 13.9311 15.4991 13.1014 15.5 12.236V9.36348C15.5 9.18264 15.4282 9.00921 15.3003 8.88135C15.1724 8.75348 14.999 8.68164 14.8182 8.68164Z" fill="white"/>
<path d="M4.39084 5.75476L7.31788 2.82764V11.4092C7.31788 11.59 7.38972 11.7635 7.51758 11.8913C7.64545 12.0192 7.81887 12.091 7.9997 12.091C8.18053 12.091 8.35395 12.0192 8.48182 11.8913C8.60968 11.7635 8.68152 11.59 8.68152 11.4092V2.82764L11.6086 5.75476C11.7372 5.87896 11.9094 5.94768 12.0882 5.94613C12.2669 5.94458 12.4379 5.87287 12.5643 5.74645C12.6908 5.62003 12.7625 5.44902 12.764 5.27025C12.7656 5.09147 12.6969 4.91924 12.5727 4.79064L8.48175 0.699632C8.35389 0.571808 8.18049 0.5 7.9997 0.5C7.81891 0.5 7.64551 0.571808 7.51765 0.699632L3.42675 4.79064C3.30255 4.91924 3.23382 5.09147 3.23538 5.27025C3.23693 5.44902 3.30864 5.62003 3.43505 5.74645C3.56147 5.87287 3.73247 5.94458 3.91125 5.94613C4.09002 5.94768 4.26224 5.87896 4.39084 5.75476Z" fill="white"/>
</svg>
