<svg width="68" height="52" viewBox="0 0 68 52" fill="none" xmlns="http://www.w3.org/2000/svg">
<path d="M44.4585 24.7525L28.7176 14.9144C28.4197 14.7283 28.0775 14.6253 27.7264 14.6162C27.3753 14.607 27.0282 14.6919 26.721 14.8621C26.4138 15.0324 26.1578 15.2818 25.9795 15.5844C25.8012 15.887 25.7071 16.2318 25.707 16.583V36.2591C25.707 36.6103 25.801 36.9551 25.9793 37.2578C26.1576 37.5604 26.4136 37.8098 26.7208 37.98C27.028 38.1503 27.3752 38.2352 27.7263 38.226C28.0774 38.2168 28.4196 38.1138 28.7175 37.9276L44.4584 28.0896C44.7414 27.9127 44.9747 27.6668 45.1365 27.3749C45.2983 27.083 45.3832 26.7548 45.3832 26.4211C45.3832 26.0873 45.2984 25.7591 45.1366 25.4672C44.9748 25.1753 44.7415 24.9294 44.4585 24.7525ZM29.6424 32.709V20.1329L39.7032 26.421L29.6424 32.709Z" fill="#193141"/>
<path d="M57.3231 0.842041H9.83805C4.41335 0.842041 0 5.25539 0 10.6801V42.1619C0 47.5866 4.41335 51.9999 9.83805 51.9999H57.3231C62.7478 51.9999 67.1611 47.5866 67.1611 42.1619V10.6801C67.1611 5.25539 62.7478 0.842041 57.3231 0.842041ZM63.2259 42.1619C63.2259 45.4167 60.5779 48.0647 57.3231 48.0647H9.83805C6.58323 48.0647 3.93522 45.4167 3.93522 42.1619V10.6801C3.93522 7.42527 6.58323 4.77726 9.83805 4.77726H57.3231C60.5779 4.77726 63.2259 7.42527 63.2259 10.6801V42.1619Z" fill="#193141"/>
</svg>
