<svg width="30" height="30" viewBox="0 0 30 30" fill="none" xmlns="http://www.w3.org/2000/svg">
<path d="M29.1402 4.10125C28.6988 3.65916 27.9828 3.6584 27.5414 4.09938L13.9774 17.6276L9.08353 12.3124C8.66066 11.8534 7.9457 11.8236 7.48591 12.2464C7.02648 12.6693 6.99707 13.3846 7.41994 13.844L13.1109 20.0246C13.214 20.1366 13.3387 20.2267 13.4775 20.2893C13.6163 20.352 13.7663 20.3859 13.9186 20.389C13.9268 20.3894 13.9348 20.3894 13.9427 20.3894C14.2419 20.3893 14.5289 20.2707 14.7409 20.0596L29.1379 5.70034C29.5804 5.25942 29.5811 4.54334 29.1402 4.10125Z" fill="#193141"/>
<path d="M28.8693 13.8693C28.2448 13.8693 27.7387 14.3754 27.7387 15C27.7387 22.0244 22.0244 27.7387 15 27.7387C7.97602 27.7387 2.26131 22.0244 2.26131 15C2.26131 7.97602 7.97602 2.26131 15 2.26131C15.6245 2.26131 16.1307 1.75518 16.1307 1.13068C16.1307 0.506133 15.6245 0 15 0C6.72891 0 0 6.72891 0 15C0 23.2707 6.72891 30 15 30C23.2707 30 30 23.2707 30 15C30 14.3755 29.4939 13.8693 28.8693 13.8693Z" fill="#193141"/>
</svg>
