<svg width="404" height="482" viewBox="0 0 404 482" fill="none" xmlns="http://www.w3.org/2000/svg">
<path d="M403.482 22.5882V459.369C403.482 465.36 401.102 471.106 396.866 475.342C392.63 479.578 386.885 481.958 380.894 481.958H22.8705C16.8797 481.958 11.1343 479.578 6.89817 475.342C2.66205 471.106 0.282227 465.36 0.282227 459.369V90.6541H68.4234C74.4142 90.6541 80.1596 88.2743 84.3957 84.0382C88.6318 79.8021 91.0116 74.0567 91.0116 68.0659V0H380.894C386.885 0 392.63 2.37982 396.866 6.61594C401.102 10.8521 403.482 16.5975 403.482 22.5882Z" fill="#374761"/>
<path d="M0.282227 90.6541H68.4234C74.4142 90.6541 80.1596 88.2743 84.3957 84.0382C88.6318 79.8021 91.0116 74.0567 91.0116 68.0659V0L0.282227 90.6541Z" fill="#D2DBEA"/>
<path d="M341.425 154.367C341.425 159.773 337.118 164.08 331.712 164.08H72.0528C69.4768 164.08 67.0062 163.057 65.1847 161.235C63.3632 159.414 62.3398 156.943 62.3398 154.367C62.3398 151.791 63.3632 149.321 65.1847 147.499C67.0062 145.678 69.4768 144.654 72.0528 144.654H331.712C337.118 144.654 341.425 148.961 341.425 154.367ZM341.425 204.137C341.425 209.543 337.118 213.85 331.712 213.85H72.0528C69.4768 213.85 67.0062 212.826 65.1847 211.005C63.3632 209.183 62.3398 206.713 62.3398 204.137C62.3398 201.561 63.3632 199.09 65.1847 197.269C67.0062 195.447 69.4768 194.424 72.0528 194.424H331.712C337.118 194.424 341.425 198.738 341.425 204.137Z" fill="#D2DBEA"/>
</svg>
